<svg xmlns="http://www.w3.org/2000/svg" width="1024" height="1084" viewBox="0 0 1024 1084">
<defs>
  <style>
    .region { cursor:pointer; }
    .region:hover { opacity:0.7; }
    .swatch { cursor:pointer; stroke:transparent; stroke-width:3; }
    .swatch:hover { stroke:#fff; stroke-width:3; }
    .swatch.active { stroke:#fff; stroke-width:3.5; }
  </style>
</defs>

<rect width="1024" height="860" fill="white"/>

<g id="colorRegions">
    <path id="apple_outer" class="region" d="M 716 96.102 C 683.813 98.386, 651.734 107.216, 625 121.150 C 606.887 130.591, 593.557 140.378, 578.941 154.967 C 554.668 179.194, 541.468 203.009, 534.861 234.498 L 532.559 245.470 531.211 240.485 C 520.502 200.882, 507.952 170.863, 492.022 146.743 C 488.188 140.937, 483.377 134.808, 481.331 133.122 C 471.347 124.891, 454.868 124.828, 437.500 132.953 C 413.093 144.372, 397.383 166.152, 403.361 180.282 C 404.110 182.052, 407.823 186.973, 411.611 191.217 C 415.400 195.462, 422.775 203.728, 428 209.587 C 439.441 222.416, 445.712 230.623, 456.203 246.500 C 463.425 257.429, 477.486 284.359, 481.359 294.681 L 482.928 298.862 464.714 289.590 C 430.878 272.366, 401.987 262.637, 370.500 257.864 C 357.254 255.856, 321.205 256.153, 309 258.369 C 263.866 266.567, 227.737 285.236, 196.592 316.455 C 172.501 340.604, 152.947 373.833, 141.561 409.975 C 137.873 421.679, 133.421 444.988, 131.953 460.276 C 130.241 478.104, 131.196 513.476, 133.862 531 C 145.938 610.373, 181.212 685.479, 236.933 750.459 C 279.296 799.864, 322.023 829.348, 368.030 840.927 C 384.789 845.144, 394.268 846.241, 413.500 846.186 C 440.277 846.110, 457.716 842.517, 499.637 828.441 C 523.807 820.325, 525.116 820.002, 533.637 820.048 C 543.486 820.101, 550.906 822.041, 581 832.430 C 600.393 839.125, 620.755 844.321, 634.255 846.020 C 648.832 847.855, 680.802 846.791, 693.394 844.052 C 709.345 840.583, 721.506 836.295, 737.500 828.504 C 775.194 810.141, 810.372 778.288, 843.948 732.120 C 891.162 667.198, 920.029 595.156, 927.061 524.700 C 928.624 509.037, 927.745 465.997, 925.586 452.500 C 918.617 408.923, 901.691 370.827, 875.732 340.291 C 853.836 314.535, 824.030 294.633, 790.580 283.433 C 783.386 281.025, 777.500 278.858, 777.500 278.618 C 777.500 278.378, 780.553 274.784, 784.283 270.632 C 807.314 245.001, 824.233 211.426, 830.015 179.877 C 834.133 157.412, 833.660 122.312, 829.136 114.500 C 825.580 108.361, 812.966 104.116, 784.500 99.479 C 760.066 95.498, 739.083 94.464, 716 96.102" fill="none" fill-rule="evenodd" stroke="none" onclick="fillRegion(this)" />
    <path id="leaf" class="region" d="M 712 110.014 C 650.868 116.378, 601.437 142.030, 570.873 183.252 C 563.205 193.594, 552.963 214.639, 549.583 227 C 544.166 246.806, 543.661 250.517, 543.592 271 C 543.536 287.807, 543.850 292.019, 545.866 301.500 C 547.153 307.550, 548.537 313.102, 548.942 313.838 C 549.455 314.770, 550.681 313.614, 552.977 310.036 C 563.569 293.530, 586.990 265.766, 602.350 251.509 L 611.200 243.294 610.100 236.206 C 608.174 223.792, 608.695 208.446, 611.402 197.878 C 614.023 187.649, 617.167 179.633, 619.004 178.497 C 621.727 176.815, 621.898 179.949, 619.582 189.077 C 618.258 194.295, 616.868 202.150, 616.493 206.533 C 615.819 214.388, 617.368 233.774, 618.780 235.174 C 619.176 235.566, 623.100 232.928, 627.500 229.311 C 636.004 222.321, 658.336 205.503, 666.250 200.129 C 669.001 198.261, 671 196.137, 671 195.080 C 671 184.193, 686.806 147.333, 693.434 142.765 C 697.766 139.780, 697.074 144.599, 691.503 156.218 C 686.765 166.101, 679.089 189.422, 680.207 190.540 C 680.429 190.762, 682.836 189.448, 685.555 187.619 C 694.372 181.692, 719.762 167.135, 731.781 161.115 C 753.706 150.134, 776.582 141.182, 778.307 142.907 C 779.954 144.554, 778.074 145.893, 765.697 151.889 C 745.834 161.513, 712.704 180.664, 689.525 195.922 L 679.550 202.488 702.025 205.690 C 718.426 208.027, 728.318 208.907, 738.628 208.946 C 749.304 208.987, 753.032 209.334, 753.890 210.367 C 756.944 214.047, 747.294 216.002, 726.114 215.994 C 710.378 215.988, 699.266 214.762, 680.231 210.933 L 669.963 208.867 660.341 216.067 C 641.257 230.349, 617.294 250.627, 618.306 251.639 C 618.934 252.267, 658.206 260.822, 668.573 262.589 C 673.689 263.461, 683.190 264.697, 689.687 265.337 C 700.304 266.382, 701.500 266.696, 701.500 268.436 C 701.500 271.474, 696.105 272.291, 680 271.690 C 662.494 271.037, 647.946 268.559, 626 262.491 L 609.500 257.928 599.179 268.714 C 578.123 290.720, 558.473 315.873, 560.642 318.042 C 561.990 319.390, 583.413 323.670, 595.211 324.948 C 623.338 327.996, 656.821 324.468, 685.941 315.389 C 733.061 300.697, 771.223 270.462, 794.936 229.034 C 804.276 212.716, 812.713 189.635, 815.966 171.500 C 819.441 152.133, 819.452 124.452, 815.986 120.986 C 813.821 118.821, 796.429 114.579, 778.717 111.897 C 763.619 109.610, 726.060 108.550, 712 110.014" fill="none" fill-rule="evenodd" stroke="none" onclick="fillRegion(this)" />
    <path id="stem_hole" class="region" d="M 450.176 142.400 C 439.287 146.016, 427.118 154.428, 420.831 162.686 C 413.251 172.643, 415.075 176, 428.066 176 C 440.169 176, 451.073 171.347, 461.707 161.646 C 471.139 153.042, 475.142 145.022, 471.510 142.008 C 468.583 139.579, 458.090 139.772, 450.176 142.400" fill="none" fill-rule="evenodd" stroke="none" onclick="fillRegion(this)" />
    <path id="stem" class="region" d="M 477.135 158.304 C 475.506 160.672, 471.286 165.284, 467.756 168.554 C 456.547 178.941, 444.614 184.725, 432.276 185.752 L 426.053 186.270 434.358 195.385 C 475.430 240.466, 500.874 290.957, 510.471 346.424 C 511.320 351.333, 512.258 355.592, 512.556 355.889 C 512.853 356.186, 518.924 356.611, 526.048 356.833 C 536.540 357.160, 538.998 356.977, 538.990 355.868 C 538.985 355.116, 538.312 348.425, 537.495 341 C 529.960 272.525, 509.551 201.807, 485.415 160.548 C 483.308 156.947, 481.250 154, 480.840 154 C 480.431 154, 478.763 155.937, 477.135 158.304" fill="none" fill-rule="evenodd" stroke="none" onclick="fillRegion(this)" />
    <path id="apple_inner" class="region" d="M 321.500 271.026 C 278.202 275.937, 237.941 295.844, 206.892 327.694 C 176.237 359.139, 157.651 396.569, 149.390 443.500 C 146.165 461.817, 145.044 494.487, 146.943 514.801 C 151.485 563.375, 170.169 620.095, 197.737 669 C 206.351 684.280, 222.701 708.695, 234.193 723.440 C 278.871 780.759, 325.097 815.018, 373.812 826.914 C 396.116 832.360, 416.467 833.133, 439.957 829.423 C 454.427 827.138, 466.808 823.718, 494.829 814.264 C 519.867 805.816, 520.771 805.593, 531.500 805.209 C 544.763 804.733, 549.823 805.876, 578.703 815.868 C 600.821 823.520, 617.830 828.177, 632 830.461 C 643.038 832.240, 668.153 832.497, 679.678 830.950 C 738.988 822.985, 796.128 779.251, 845.389 704.118 C 892.957 631.567, 918.096 547.249, 913.094 477.035 C 910.042 434.196, 898.772 399.473, 877.540 367.500 C 857.700 337.622, 831.186 315.484, 798.543 301.542 C 787.791 296.949, 769.126 291, 765.469 291 C 764.269 291, 761.310 292.505, 758.894 294.345 C 723.877 321.002, 680.356 336.462, 634 338.713 C 622.310 339.281, 621.273 339.499, 618 342.085 C 612.930 346.090, 597.017 354.487, 587.079 358.401 C 551.750 372.316, 513.113 373.384, 477.373 361.433 C 464.294 357.059, 454.727 352.604, 441.299 344.633 C 420.431 332.246, 411.271 323.301, 415.315 319.257 C 417.276 317.295, 418.187 317.700, 429.500 325.560 C 444.480 335.968, 477.739 350.133, 492.777 352.509 L 497.053 353.185 496.393 348.842 C 496.031 346.454, 494.106 338.032, 492.117 330.126 L 488.500 315.752 471.500 307.028 C 434.304 287.939, 403.368 276.943, 374.182 272.435 C 362.291 270.599, 332.334 269.798, 321.500 271.026" fill="none" fill-rule="evenodd" stroke="none" onclick="fillRegion(this)" />
    <path id="stem_base" class="region" d="M 550.147 335.750 C 550.560 339.462, 550.920 345.286, 550.949 348.691 C 550.977 352.096, 551.378 355.116, 551.840 355.401 C 553.210 356.248, 574.774 351.507, 584.613 348.196 C 589.626 346.510, 596.601 343.821, 600.113 342.221 L 606.500 339.311 600 338.593 C 588.459 337.319, 574.784 334.878, 562.525 331.905 C 555.939 330.307, 550.291 329, 549.973 329 C 549.656 329, 549.734 332.038, 550.147 335.750" fill="none" fill-rule="evenodd" stroke="none" onclick="fillRegion(this)" />
    <path id="eye_left_outer" class="region" d="M 369.341 486.096 C 353.415 488.756, 338.542 499.783, 330.737 514.718 C 318.141 538.820, 321.464 565.734, 339.382 584.727 C 356.044 602.390, 380.177 606.403, 402.494 595.221 C 414.444 589.234, 426.458 572.765, 429.563 558.115 C 436.657 524.647, 418.038 492.951, 387.500 486.511 C 379.779 484.883, 376.985 484.819, 369.341 486.096" fill="none" fill-rule="evenodd" stroke="none" onclick="fillRegion(this)" />
    <path id="eye_right_outer" class="region" d="M 669.335 490.360 C 660.512 492.607, 652.904 497.111, 645.456 504.500 C 633.331 516.528, 627.728 530.378, 627.656 548.500 C 627.525 581.729, 651.740 608, 682.500 608 C 700.798 608, 717.454 598.738, 727.965 582.718 C 737.019 568.919, 739.913 548.281, 735.007 532.500 C 729.036 513.293, 717.307 499.732, 700.557 492.667 C 694.741 490.214, 691.830 489.634, 684 489.368 C 678.338 489.176, 672.413 489.577, 669.335 490.360" fill="none" fill-rule="evenodd" stroke="none" onclick="fillRegion(this)" />
    <path id="mouth_outer" class="region" d="M 461 577.558 C 457.975 579.487, 453.821 581.569, 451.769 582.185 C 447.663 583.418, 446.095 586.205, 448.129 588.655 C 449.095 589.819, 450.509 590.065, 453.711 589.626 L 458 589.038 458 593.985 C 458 596.705, 458.695 603.917, 459.545 610.010 C 466.793 661.977, 496.386 695.931, 532.500 693.715 C 561.758 691.920, 584.150 666.968, 594.840 624.248 C 596.456 617.787, 598.086 609.125, 598.461 605 C 599.476 593.844, 599.347 594.066, 604.202 595.157 C 607.441 595.884, 608.661 595.768, 609.808 594.621 C 611.991 592.438, 610.651 590.365, 605.297 587.642 C 602.659 586.300, 598.751 583.806, 596.612 582.101 C 594.474 580.395, 591.917 579, 590.930 579 C 588.045 579, 587.492 582.821, 589.905 586.085 L 592.017 588.943 589.759 590.422 C 584.588 593.808, 571.104 599.354, 562.119 601.790 C 553.357 604.166, 550.808 604.400, 533.500 604.422 C 515.833 604.445, 513.768 604.251, 504.070 601.660 C 498.334 600.128, 490.909 597.746, 487.570 596.367 C 481.037 593.669, 466 585.017, 466 583.956 C 466 583.601, 466.900 582.495, 468 581.500 C 470.261 579.454, 470.575 576.975, 468.800 575.200 C 467.187 573.587, 467.265 573.563, 461 577.558" fill="none" fill-rule="evenodd" stroke="none" onclick="fillRegion(this)" />
    <path id="cheek_left_outer" class="region" d="M 287.156 588.014 C 275.062 589.702, 260.956 595.890, 253.911 602.600 C 246.413 609.741, 244.103 623.779, 248.915 632.958 C 256.907 648.200, 279.900 659.574, 305.058 660.728 C 342.244 662.435, 366.652 643.056, 358.336 618.428 C 355.920 611.273, 344.896 600.567, 335 595.765 C 321.198 589.068, 301.953 585.950, 287.156 588.014" fill="none" fill-rule="evenodd" stroke="none" onclick="fillRegion(this)" />
    <path id="cheek_left_inner" class="region" d="M 287.381 594.931 C 272.509 597.308, 259.129 604.970, 255.018 613.463 C 247.546 628.897, 264.537 646.587, 292.500 652.488 C 301.482 654.383, 317.735 654.387, 325.760 652.494 C 337.835 649.647, 349.225 641.899, 351.940 634.685 C 357.344 620.328, 342.743 603.707, 318.829 596.993 C 310.638 594.694, 295.202 593.682, 287.381 594.931" fill="none" fill-rule="evenodd" stroke="none" onclick="fillRegion(this)" />
    <path id="cheek_right_outer" class="region" d="M 740.500 602.482 C 722.155 606.527, 707.116 616.762, 701.714 628.878 C 698.977 635.015, 698.964 643.956, 701.683 650.054 C 706.236 660.263, 720.484 670.046, 735.697 673.409 C 746.074 675.703, 763.367 675.497, 774 672.952 C 803.654 665.856, 819.198 645.233, 809.631 625.679 C 804.723 615.646, 791.958 606.954, 776.226 602.930 C 767.285 600.643, 749.831 600.425, 740.500 602.482" fill="none" fill-rule="evenodd" stroke="none" onclick="fillRegion(this)" />
    <path id="cheek_right_inner" class="region" d="M 740.175 609.459 C 732.602 611.291, 719.172 618.228, 714.675 622.630 C 706.818 630.320, 704.515 638.678, 708.013 646.808 C 713.824 660.317, 731.025 668.315, 754 668.189 C 777.509 668.061, 796.638 659.394, 803.412 645.801 C 806.605 639.392, 806.651 635.939, 803.626 629.444 C 799.452 620.480, 788.059 612.877, 773.742 609.501 C 766.097 607.699, 747.545 607.675, 740.175 609.459" fill="none" fill-rule="evenodd" stroke="none" onclick="fillRegion(this)" />
    <path id="mouth_inner" class="region" d="M 515.531 625.113 C 504.299 626.749, 488.077 633.334, 480.686 639.258 L 477.872 641.513 481.881 649.507 C 496.560 678.782, 524.163 690.983, 548.613 679.005 C 557.469 674.666, 568.210 663.074, 573.835 651.785 C 576.219 646.999, 577.896 642.640, 577.561 642.098 C 577.225 641.556, 573.689 638.930, 569.702 636.263 C 555.062 626.472, 534.816 622.304, 515.531 625.113" fill="none" fill-rule="evenodd" stroke="none" onclick="fillRegion(this)" />
</g>

<g id="outlines" fill="none" stroke="#111111" stroke-width="3" stroke-linejoin="round" stroke-linecap="round" pointer-events="none">
    <path d="M 716 96.102 C 683.813 98.386, 651.734 107.216, 625 121.150 C 606.887 130.591, 593.557 140.378, 578.941 154.967 C 554.668 179.194, 541.468 203.009, 534.861 234.498 L 532.559 245.470 531.211 240.485 C 520.502 200.882, 507.952 170.863, 492.022 146.743 C 488.188 140.937, 483.377 134.808, 481.331 133.122 C 471.347 124.891, 454.868 124.828, 437.500 132.953 C 413.093 144.372, 397.383 166.152, 403.361 180.282 C 404.110 182.052, 407.823 186.973, 411.611 191.217 C 415.400 195.462, 422.775 203.728, 428 209.587 C 439.441 222.416, 445.712 230.623, 456.203 246.500 C 463.425 257.429, 477.486 284.359, 481.359 294.681 L 482.928 298.862 464.714 289.590 C 430.878 272.366, 401.987 262.637, 370.500 257.864 C 357.254 255.856, 321.205 256.153, 309 258.369 C 263.866 266.567, 227.737 285.236, 196.592 316.455 C 172.501 340.604, 152.947 373.833, 141.561 409.975 C 137.873 421.679, 133.421 444.988, 131.953 460.276 C 130.241 478.104, 131.196 513.476, 133.862 531 C 145.938 610.373, 181.212 685.479, 236.933 750.459 C 279.296 799.864, 322.023 829.348, 368.030 840.927 C 384.789 845.144, 394.268 846.241, 413.500 846.186 C 440.277 846.110, 457.716 842.517, 499.637 828.441 C 523.807 820.325, 525.116 820.002, 533.637 820.048 C 543.486 820.101, 550.906 822.041, 581 832.430 C 600.393 839.125, 620.755 844.321, 634.255 846.020 C 648.832 847.855, 680.802 846.791, 693.394 844.052 C 709.345 840.583, 721.506 836.295, 737.500 828.504 C 775.194 810.141, 810.372 778.288, 843.948 732.120 C 891.162 667.198, 920.029 595.156, 927.061 524.700 C 928.624 509.037, 927.745 465.997, 925.586 452.500 C 918.617 408.923, 901.691 370.827, 875.732 340.291 C 853.836 314.535, 824.030 294.633, 790.580 283.433 C 783.386 281.025, 777.500 278.858, 777.500 278.618 C 777.500 278.378, 780.553 274.784, 784.283 270.632 C 807.314 245.001, 824.233 211.426, 830.015 179.877 C 834.133 157.412, 833.660 122.312, 829.136 114.500 C 825.580 108.361, 812.966 104.116, 784.500 99.479 C 760.066 95.498, 739.083 94.464, 716 96.102" />
    <path d="M 712 110.014 C 650.868 116.378, 601.437 142.030, 570.873 183.252 C 563.205 193.594, 552.963 214.639, 549.583 227 C 544.166 246.806, 543.661 250.517, 543.592 271 C 543.536 287.807, 543.850 292.019, 545.866 301.500 C 547.153 307.550, 548.537 313.102, 548.942 313.838 C 549.455 314.770, 550.681 313.614, 552.977 310.036 C 563.569 293.530, 586.990 265.766, 602.350 251.509 L 611.200 243.294 610.100 236.206 C 608.174 223.792, 608.695 208.446, 611.402 197.878 C 614.023 187.649, 617.167 179.633, 619.004 178.497 C 621.727 176.815, 621.898 179.949, 619.582 189.077 C 618.258 194.295, 616.868 202.150, 616.493 206.533 C 615.819 214.388, 617.368 233.774, 618.780 235.174 C 619.176 235.566, 623.100 232.928, 627.500 229.311 C 636.004 222.321, 658.336 205.503, 666.250 200.129 C 669.001 198.261, 671 196.137, 671 195.080 C 671 184.193, 686.806 147.333, 693.434 142.765 C 697.766 139.780, 697.074 144.599, 691.503 156.218 C 686.765 166.101, 679.089 189.422, 680.207 190.540 C 680.429 190.762, 682.836 189.448, 685.555 187.619 C 694.372 181.692, 719.762 167.135, 731.781 161.115 C 753.706 150.134, 776.582 141.182, 778.307 142.907 C 779.954 144.554, 778.074 145.893, 765.697 151.889 C 745.834 161.513, 712.704 180.664, 689.525 195.922 L 679.550 202.488 702.025 205.690 C 718.426 208.027, 728.318 208.907, 738.628 208.946 C 749.304 208.987, 753.032 209.334, 753.890 210.367 C 756.944 214.047, 747.294 216.002, 726.114 215.994 C 710.378 215.988, 699.266 214.762, 680.231 210.933 L 669.963 208.867 660.341 216.067 C 641.257 230.349, 617.294 250.627, 618.306 251.639 C 618.934 252.267, 658.206 260.822, 668.573 262.589 C 673.689 263.461, 683.190 264.697, 689.687 265.337 C 700.304 266.382, 701.500 266.696, 701.500 268.436 C 701.500 271.474, 696.105 272.291, 680 271.690 C 662.494 271.037, 647.946 268.559, 626 262.491 L 609.500 257.928 599.179 268.714 C 578.123 290.720, 558.473 315.873, 560.642 318.042 C 561.990 319.390, 583.413 323.670, 595.211 324.948 C 623.338 327.996, 656.821 324.468, 685.941 315.389 C 733.061 300.697, 771.223 270.462, 794.936 229.034 C 804.276 212.716, 812.713 189.635, 815.966 171.500 C 819.441 152.133, 819.452 124.452, 815.986 120.986 C 813.821 118.821, 796.429 114.579, 778.717 111.897 C 763.619 109.610, 726.060 108.550, 712 110.014" />
    <path d="M 450.176 142.400 C 439.287 146.016, 427.118 154.428, 420.831 162.686 C 413.251 172.643, 415.075 176, 428.066 176 C 440.169 176, 451.073 171.347, 461.707 161.646 C 471.139 153.042, 475.142 145.022, 471.510 142.008 C 468.583 139.579, 458.090 139.772, 450.176 142.400" />
    <path d="M 477.135 158.304 C 475.506 160.672, 471.286 165.284, 467.756 168.554 C 456.547 178.941, 444.614 184.725, 432.276 185.752 L 426.053 186.270 434.358 195.385 C 475.430 240.466, 500.874 290.957, 510.471 346.424 C 511.320 351.333, 512.258 355.592, 512.556 355.889 C 512.853 356.186, 518.924 356.611, 526.048 356.833 C 536.540 357.160, 538.998 356.977, 538.990 355.868 C 538.985 355.116, 538.312 348.425, 537.495 341 C 529.960 272.525, 509.551 201.807, 485.415 160.548 C 483.308 156.947, 481.250 154, 480.840 154 C 480.431 154, 478.763 155.937, 477.135 158.304" />
    <path d="M 321.500 271.026 C 278.202 275.937, 237.941 295.844, 206.892 327.694 C 176.237 359.139, 157.651 396.569, 149.390 443.500 C 146.165 461.817, 145.044 494.487, 146.943 514.801 C 151.485 563.375, 170.169 620.095, 197.737 669 C 206.351 684.280, 222.701 708.695, 234.193 723.440 C 278.871 780.759, 325.097 815.018, 373.812 826.914 C 396.116 832.360, 416.467 833.133, 439.957 829.423 C 454.427 827.138, 466.808 823.718, 494.829 814.264 C 519.867 805.816, 520.771 805.593, 531.500 805.209 C 544.763 804.733, 549.823 805.876, 578.703 815.868 C 600.821 823.520, 617.830 828.177, 632 830.461 C 643.038 832.240, 668.153 832.497, 679.678 830.950 C 738.988 822.985, 796.128 779.251, 845.389 704.118 C 892.957 631.567, 918.096 547.249, 913.094 477.035 C 910.042 434.196, 898.772 399.473, 877.540 367.500 C 857.700 337.622, 831.186 315.484, 798.543 301.542 C 787.791 296.949, 769.126 291, 765.469 291 C 764.269 291, 761.310 292.505, 758.894 294.345 C 723.877 321.002, 680.356 336.462, 634 338.713 C 622.310 339.281, 621.273 339.499, 618 342.085 C 612.930 346.090, 597.017 354.487, 587.079 358.401 C 551.750 372.316, 513.113 373.384, 477.373 361.433 C 464.294 357.059, 454.727 352.604, 441.299 344.633 C 420.431 332.246, 411.271 323.301, 415.315 319.257 C 417.276 317.295, 418.187 317.700, 429.500 325.560 C 444.480 335.968, 477.739 350.133, 492.777 352.509 L 497.053 353.185 496.393 348.842 C 496.031 346.454, 494.106 338.032, 492.117 330.126 L 488.500 315.752 471.500 307.028 C 434.304 287.939, 403.368 276.943, 374.182 272.435 C 362.291 270.599, 332.334 269.798, 321.500 271.026" />
    <path d="M 550.147 335.750 C 550.560 339.462, 550.920 345.286, 550.949 348.691 C 550.977 352.096, 551.378 355.116, 551.840 355.401 C 553.210 356.248, 574.774 351.507, 584.613 348.196 C 589.626 346.510, 596.601 343.821, 600.113 342.221 L 606.500 339.311 600 338.593 C 588.459 337.319, 574.784 334.878, 562.525 331.905 C 555.939 330.307, 550.291 329, 549.973 329 C 549.656 329, 549.734 332.038, 550.147 335.750" />
    <path d="M 367.746 431.086 C 353.812 434.370, 337.574 450.381, 340.861 457.595 C 342.521 461.238, 344.654 460.553, 351.459 454.187 C 360.404 445.819, 365.297 443.741, 377.326 443.202 C 386.637 442.784, 387.211 442.630, 388.289 440.266 C 389.303 438.039, 389.085 437.466, 386.266 434.947 C 381.312 430.520, 375.387 429.285, 367.746 431.086" />
    <path d="M 675.021 434.054 C 671.245 435.655, 669 438.070, 669 440.533 C 669 443.942, 671.078 444.982, 679.899 445.989 C 684.365 446.498, 690.131 447.849, 692.714 448.991 C 699.472 451.981, 707.108 458.094, 710 462.830 C 713.013 467.764, 714.687 468.593, 717.145 466.369 C 719.656 464.097, 719.479 461.355, 716.428 455.230 C 710.993 444.325, 695.758 434.126, 683.804 433.391 C 680.337 433.178, 676.384 433.476, 675.021 434.054" />
    <path d="M 369.341 486.096 C 353.415 488.756, 338.542 499.783, 330.737 514.718 C 318.141 538.820, 321.464 565.734, 339.382 584.727 C 356.044 602.390, 380.177 606.403, 402.494 595.221 C 414.444 589.234, 426.458 572.765, 429.563 558.115 C 436.657 524.647, 418.038 492.951, 387.500 486.511 C 379.779 484.883, 376.985 484.819, 369.341 486.096" />
    <path d="M 669.335 490.360 C 660.512 492.607, 652.904 497.111, 645.456 504.500 C 633.331 516.528, 627.728 530.378, 627.656 548.500 C 627.525 581.729, 651.740 608, 682.500 608 C 700.798 608, 717.454 598.738, 727.965 582.718 C 737.019 568.919, 739.913 548.281, 735.007 532.500 C 729.036 513.293, 717.307 499.732, 700.557 492.667 C 694.741 490.214, 691.830 489.634, 684 489.368 C 678.338 489.176, 672.413 489.577, 669.335 490.360" />
    <path d="M 386.149 505.696 C 381.157 508.156, 377.697 514.046, 377.199 520.930 C 376.741 527.264, 378.248 531.365, 382.864 536.342 C 398.305 552.988, 421.319 535.509, 410.962 515 C 406.221 505.612, 394.920 501.375, 386.149 505.696" />
    <path d="M 660.625 507.424 C 655.895 509.165, 650.243 514.379, 648.381 518.718 C 646.369 523.406, 646.645 531.384, 648.977 535.956 C 655.891 549.508, 675.748 548.215, 683.137 533.732 C 687.463 525.252, 683.701 512.459, 675.776 508.698 C 670.678 506.279, 665.026 505.804, 660.625 507.424" />
    <path d="M 461 577.558 C 457.975 579.487, 453.821 581.569, 451.769 582.185 C 447.663 583.418, 446.095 586.205, 448.129 588.655 C 449.095 589.819, 450.509 590.065, 453.711 589.626 L 458 589.038 458 593.985 C 458 596.705, 458.695 603.917, 459.545 610.010 C 466.793 661.977, 496.386 695.931, 532.500 693.715 C 561.758 691.920, 584.150 666.968, 594.840 624.248 C 596.456 617.787, 598.086 609.125, 598.461 605 C 599.476 593.844, 599.347 594.066, 604.202 595.157 C 607.441 595.884, 608.661 595.768, 609.808 594.621 C 611.991 592.438, 610.651 590.365, 605.297 587.642 C 602.659 586.300, 598.751 583.806, 596.612 582.101 C 594.474 580.395, 591.917 579, 590.930 579 C 588.045 579, 587.492 582.821, 589.905 586.085 L 592.017 588.943 589.759 590.422 C 584.588 593.808, 571.104 599.354, 562.119 601.790 C 553.357 604.166, 550.808 604.400, 533.500 604.422 C 515.833 604.445, 513.768 604.251, 504.070 601.660 C 498.334 600.128, 490.909 597.746, 487.570 596.367 C 481.037 593.669, 466 585.017, 466 583.956 C 466 583.601, 466.900 582.495, 468 581.500 C 470.261 579.454, 470.575 576.975, 468.800 575.200 C 467.187 573.587, 467.265 573.563, 461 577.558" />
    <path d="M 287.156 588.014 C 275.062 589.702, 260.956 595.890, 253.911 602.600 C 246.413 609.741, 244.103 623.779, 248.915 632.958 C 256.907 648.200, 279.900 659.574, 305.058 660.728 C 342.244 662.435, 366.652 643.056, 358.336 618.428 C 355.920 611.273, 344.896 600.567, 335 595.765 C 321.198 589.068, 301.953 585.950, 287.156 588.014" />
    <path d="M 287.381 594.931 C 272.509 597.308, 259.129 604.970, 255.018 613.463 C 247.546 628.897, 264.537 646.587, 292.500 652.488 C 301.482 654.383, 317.735 654.387, 325.760 652.494 C 337.835 649.647, 349.225 641.899, 351.940 634.685 C 357.344 620.328, 342.743 603.707, 318.829 596.993 C 310.638 594.694, 295.202 593.682, 287.381 594.931" />
    <path d="M 740.500 602.482 C 722.155 606.527, 707.116 616.762, 701.714 628.878 C 698.977 635.015, 698.964 643.956, 701.683 650.054 C 706.236 660.263, 720.484 670.046, 735.697 673.409 C 746.074 675.703, 763.367 675.497, 774 672.952 C 803.654 665.856, 819.198 645.233, 809.631 625.679 C 804.723 615.646, 791.958 606.954, 776.226 602.930 C 767.285 600.643, 749.831 600.425, 740.500 602.482" />
    <path d="M 740.175 609.459 C 732.602 611.291, 719.172 618.228, 714.675 622.630 C 706.818 630.320, 704.515 638.678, 708.013 646.808 C 713.824 660.317, 731.025 668.315, 754 668.189 C 777.509 668.061, 796.638 659.394, 803.412 645.801 C 806.605 639.392, 806.651 635.939, 803.626 629.444 C 799.452 620.480, 788.059 612.877, 773.742 609.501 C 766.097 607.699, 747.545 607.675, 740.175 609.459" />
    <path d="M 515.531 625.113 C 504.299 626.749, 488.077 633.334, 480.686 639.258 L 477.872 641.513 481.881 649.507 C 496.560 678.782, 524.163 690.983, 548.613 679.005 C 557.469 674.666, 568.210 663.074, 573.835 651.785 C 576.219 646.999, 577.896 642.640, 577.561 642.098 C 577.225 641.556, 573.689 638.930, 569.702 636.263 C 555.062 626.472, 534.816 622.304, 515.531 625.113" />
</g>

<g id="dark_details" fill="#111111" stroke="none" pointer-events="none">
    <path d="M 367.746 431.086 C 353.812 434.370, 337.574 450.381, 340.861 457.595 C 342.521 461.238, 344.654 460.553, 351.459 454.187 C 360.404 445.819, 365.297 443.741, 377.326 443.202 C 386.637 442.784, 387.211 442.630, 388.289 440.266 C 389.303 438.039, 389.085 437.466, 386.266 434.947 C 381.312 430.520, 375.387 429.285, 367.746 431.086" fill-rule="evenodd" />
    <path d="M 675.021 434.054 C 671.245 435.655, 669 438.070, 669 440.533 C 669 443.942, 671.078 444.982, 679.899 445.989 C 684.365 446.498, 690.131 447.849, 692.714 448.991 C 699.472 451.981, 707.108 458.094, 710 462.830 C 713.013 467.764, 714.687 468.593, 717.145 466.369 C 719.656 464.097, 719.479 461.355, 716.428 455.230 C 710.993 444.325, 695.758 434.126, 683.804 433.391 C 680.337 433.178, 676.384 433.476, 675.021 434.054" fill-rule="evenodd" />
    <path d="M 386.149 505.696 C 381.157 508.156, 377.697 514.046, 377.199 520.930 C 376.741 527.264, 378.248 531.365, 382.864 536.342 C 398.305 552.988, 421.319 535.509, 410.962 515 C 406.221 505.612, 394.920 501.375, 386.149 505.696" fill-rule="evenodd" />
    <path d="M 660.625 507.424 C 655.895 509.165, 650.243 514.379, 648.381 518.718 C 646.369 523.406, 646.645 531.384, 648.977 535.956 C 655.891 549.508, 675.748 548.215, 683.137 533.732 C 687.463 525.252, 683.701 512.459, 675.776 508.698 C 670.678 506.279, 665.026 505.804, 660.625 507.424" fill-rule="evenodd" />
</g>

<rect x="0" y="860" width="1024" height="224" fill="#1a1a2e"/>
<rect x="0" y="860" width="1024" height="5" fill="#e94560"/>
<text x="14" y="880" font-family="sans-serif" font-size="12" fill="#f5a623" font-weight="bold">🎨 اختر لون:</text>

  <rect class="swatch" x="20" y="870" width="32" height="28" rx="6" fill="#FF6B6B" onclick="pick('#FF6B6B', this)" />
  <rect class="swatch" x="62" y="870" width="32" height="28" rx="6" fill="#FF8E53" onclick="pick('#FF8E53', this)" />
  <rect class="swatch" x="104" y="870" width="32" height="28" rx="6" fill="#FFC107" onclick="pick('#FFC107', this)" />
  <rect class="swatch" x="146" y="870" width="32" height="28" rx="6" fill="#A8E063" onclick="pick('#A8E063', this)" />
  <rect class="swatch" x="188" y="870" width="32" height="28" rx="6" fill="#56CCF2" onclick="pick('#56CCF2', this)" />
  <rect class="swatch" x="20" y="906" width="32" height="28" rx="6" fill="#764BA2" onclick="pick('#764BA2', this)" />
  <rect class="swatch" x="62" y="906" width="32" height="28" rx="6" fill="#F093FB" onclick="pick('#F093FB', this)" />
  <rect class="swatch" x="104" y="906" width="32" height="28" rx="6" fill="#4ECDC4" onclick="pick('#4ECDC4', this)" />
  <rect class="swatch" x="146" y="906" width="32" height="28" rx="6" fill="#D62839" onclick="pick('#D62839', this)" />
  <rect class="swatch" x="188" y="906" width="32" height="28" rx="6" fill="#E84393" onclick="pick('#E84393', this)" />
  <rect class="swatch" x="20" y="942" width="32" height="28" rx="6" fill="#F7B731" onclick="pick('#F7B731', this)" />
  <rect class="swatch" x="62" y="942" width="32" height="28" rx="6" fill="#20BF6B" onclick="pick('#20BF6B', this)" />
  <rect class="swatch" x="104" y="942" width="32" height="28" rx="6" fill="#0652DD" onclick="pick('#0652DD', this)" />
  <rect class="swatch" x="146" y="942" width="32" height="28" rx="6" fill="#C0392B" onclick="pick('#C0392B', this)" />
  <rect class="swatch" x="188" y="942" width="32" height="28" rx="6" fill="#2C3E50" onclick="pick('#2C3E50', this)" />
  <rect class="swatch" x="20" y="978" width="32" height="28" rx="6" fill="#8E44AD" onclick="pick('#8E44AD', this)" />
  <rect class="swatch" x="62" y="978" width="32" height="28" rx="6" fill="#1ABC9C" onclick="pick('#1ABC9C', this)" />
  <rect class="swatch" x="104" y="978" width="32" height="28" rx="6" fill="#E67E22" onclick="pick('#E67E22', this)" />
  <rect class="swatch" x="146" y="978" width="32" height="28" rx="6" fill="#2980B9" onclick="pick('#2980B9', this)" />
  <rect class="swatch" x="188" y="978" width="32" height="28" rx="6" fill="#27AE60" onclick="pick('#27AE60', this)" />
  <rect class="swatch" x="20" y="1014" width="32" height="28" rx="6" fill="#FF5252" onclick="pick('#FF5252', this)" />
  <rect class="swatch" x="62" y="1014" width="32" height="28" rx="6" fill="#FF6F00" onclick="pick('#FF6F00', this)" />
  <rect class="swatch" x="104" y="1014" width="32" height="28" rx="6" fill="#E040FB" onclick="pick('#E040FB', this)" />
  <rect class="swatch" x="146" y="1014" width="32" height="28" rx="6" fill="#00BCD4" onclick="pick('#00BCD4', this)" />
  <rect class="swatch" x="188" y="1014" width="32" height="28" rx="6" fill="#8BC34A" onclick="pick('#8BC34A', this)" />

<rect id="eraserBtn" x="240" y="952" width="70" height="28" rx="7" fill="#0f3460" stroke="#444" stroke-width="1.5" onclick="toggleErase()" style="cursor:pointer"/>
<text x="275" y="971" font-family="sans-serif" font-size="12" fill="#eee" text-anchor="middle" pointer-events="none">🧹 محو</text>

<rect id="undoBtn" x="320" y="952" width="70" height="28" rx="7" fill="#0f3460" stroke="#444" stroke-width="1.5" onclick="undo()" style="cursor:pointer"/>
<text x="355" y="971" font-family="sans-serif" font-size="12" fill="#eee" text-anchor="middle" pointer-events="none">↩ تراجع</text>

<rect id="clearBtn" x="400" y="952" width="70" height="28" rx="7" fill="#0f3460" stroke="#444" stroke-width="1.5" onclick="clearAll()" style="cursor:pointer"/>
<text x="435" y="971" font-family="sans-serif" font-size="12" fill="#eee" text-anchor="middle" pointer-events="none">🗑 مسح</text>

<text x="490" y="967" font-family="sans-serif" font-size="11" fill="#aaa">اللون:</text>
<rect id="preview" x="525" y="952" width="28" height="28" rx="6" fill="#FF6B6B" stroke="#666" stroke-width="1.5"/>

<text x="570" y="964" font-family="sans-serif" font-size="11" fill="#aaa">شفافية:</text>
<text id="opLabel" x="570" y="978" font-family="sans-serif" font-size="11" fill="#f5a623">100%</text>
<rect x="620" y="957" width="100" height="7" rx="3" fill="#333"/>
<rect id="opBar" x="620" y="957" width="100" height="7" rx="3" fill="#f5a623"/>
<rect x="620" y="950" width="100" height="22" rx="3" fill="transparent" onmousedown="startSlide(evt)" onmousemove="slideMove(evt)" onmouseup="endSlide()" style="cursor:ew-resize"/>

<script type="text/javascript"><![CDATA[
  var activeColor = '#FF6B6B';
  var eraseMode = false;
  var opacity = 1.0;
  var sliding = false;
  var history = [];

  document.querySelectorAll('.swatch')[0].classList.add('active');

  function pick(c, el) {
    activeColor = c;
    eraseMode = false;
    document.getElementById('preview').setAttribute('fill', c);
    document.getElementById('eraserBtn').setAttribute('fill','#0f3460');
    document.getElementById('eraserBtn').setAttribute('stroke','#444');
    document.querySelectorAll('.swatch').forEach(function(s){s.classList.remove('active');});
    el.classList.add('active');
  }

  function toggleErase() {
    eraseMode = !eraseMode;
    var el = document.getElementById('eraserBtn');
    el.setAttribute('fill', eraseMode ? '#fff0f0' : '#0f3460');
    el.setAttribute('stroke', eraseMode ? '#e94560' : '#444');
  }

  function fillRegion(el) {
    history.push({ el:el, fill:el.getAttribute('fill'), op:el.getAttribute('fill-opacity') });
    if (eraseMode) {
      el.setAttribute('fill','none');
      el.setAttribute('fill-opacity','1');
    } else {
      el.setAttribute('fill', activeColor);
      el.setAttribute('fill-opacity', opacity);
    }
  }

  function undo() {
    if (!history.length) return;
    var last = history.pop();
    last.el.setAttribute('fill', last.fill || 'none');
    last.el.setAttribute('fill-opacity', last.op || '1');
  }

  function clearAll() {
    document.querySelectorAll('.region').forEach(function(r){
      r.setAttribute('fill','none');
      r.setAttribute('fill-opacity','1');
    });
    history = [];
  }

  function startSlide(evt) { sliding=true; slideMove(evt); }
  function endSlide() { sliding=false; }
  function slideMove(evt) {
    if (!sliding) return;
    var svg = evt.target.ownerSVGElement;
    var pt = svg.createSVGPoint();
    pt.x = evt.clientX; pt.y = evt.clientY;
    var sp = pt.matrixTransform(svg.getScreenCTM().inverse());
    var pct = Math.max(0, Math.min(1, (sp.x - 620) / 100));
    opacity = pct;
    document.getElementById('opBar').setAttribute('width', Math.round(pct*100));
    document.getElementById('opLabel').textContent = Math.round(pct*100) + '%';
  }
]]></script>
</svg>