<svg xmlns="http://www.w3.org/2000/svg" width="1024" height="1200" viewBox="0 0 1024 1024">
<defs>
  <style>
    .region { cursor:pointer; transition: opacity 0.1s; }
    .region:hover { opacity:0.75; }
    .swatch { cursor:pointer; stroke:transparent; stroke-width:3; }
    .swatch:hover { stroke:#fff; stroke-width:3; }
    .swatch.active { stroke:#fff; stroke-width:3.5; }
  </style>
</defs>
<rect width="1024" height="1024" fill="white"/>
<g pointer-events="none">
  <path d="M 699 45.040 C 649.738 49.453, 604.116 83.094, 583.945 129.882 C 568.812 164.984, 569.081 206.950, 584.708 249 C 603.568 299.749, 645.580 344.039, 686.785 356.614 L 695.070 359.143 689.940 364.756 C 684.281 370.948, 683 373.483, 683 378.488 C 683 385.725, 691.399 390.821, 701.123 389.483 L 706 388.812 705.998 392.156 C 705.994 397.439, 703.179 423.597, 701.540 433.568 C 697.811 456.265, 689.094 488.164, 681.814 505.750 C 678.866 512.873, 678.749 513, 675.157 513.017 C 669.601 513.044, 658.947 515.547, 653.431 518.121 C 646.980 521.132, 638.655 529.459, 637.019 534.537 C 636.316 536.717, 633.830 541.425, 631.495 545 C 629.159 548.575, 626.550 552.850, 625.697 554.500 C 624.844 556.150, 622.787 559.075, 621.126 561 L 618.107 564.500 620.696 558 C 622.120 554.425, 624.347 546.325, 625.645 540 C 631.999 509.036, 626.194 473.781, 609.210 440.183 L 604.500 430.866 607.500 428.756 C 617.598 421.653, 626.120 408.776, 629.485 395.540 C 631.466 387.745, 631.422 371.788, 629.394 362.697 C 628.511 358.739, 626.019 351.689, 623.856 347.030 C 608.531 314.024, 573.684 296.173, 540.115 304.133 C 525.102 307.694, 510.539 318.550, 504.076 331 C 502.220 334.575, 500.628 337.603, 500.539 337.728 C 500.450 337.854, 496.353 336.880, 491.435 335.564 C 474.657 331.074, 465.885 329.834, 447 329.285 C 406.782 328.115, 375.582 335.167, 337.875 353.950 L 324.251 360.736 320.018 354.299 C 313.067 343.726, 301.402 335.692, 285.965 330.844 C 279.597 328.844, 276.517 328.512, 265 328.581 C 253.048 328.652, 250.583 328.974, 243.500 331.388 C 222.907 338.408, 208.367 352.275, 199.975 372.896 C 195.765 383.243, 194.683 390.284, 195.239 403.721 C 196.459 433.200, 211.119 453.631, 238.861 464.515 C 245.619 467.166, 246.136 467.576, 245.711 469.941 C 245.459 471.349, 244.431 477, 243.428 482.500 C 240.906 496.330, 240.856 524.958, 243.332 537.346 C 251.653 578.969, 275.559 611.821, 313 633.084 C 317.125 635.427, 320.704 637.508, 320.954 637.709 C 321.204 637.910, 314.937 644.245, 307.027 651.787 C 244.826 711.099, 202.425 791.877, 211.394 833.976 C 215.333 852.465, 226.718 864.775, 243.872 869.094 L 250.406 870.738 253.167 884.119 C 259.638 915.484, 271.542 938.138, 291.202 956.500 C 306.161 970.471, 323.348 977.613, 344.660 978.713 C 354.047 979.197, 357.351 978.934, 365.462 977.060 C 380.418 973.604, 389.262 968.665, 398.857 958.410 C 405.417 951.398, 408.314 949.144, 415.167 945.720 C 424.585 941.014, 426.066 940.870, 445 942.813 C 474.151 945.805, 511.674 942.643, 542.913 934.562 L 552.326 932.127 568.913 940.508 C 586.795 949.544, 603.620 956.634, 615.224 960.027 C 619.226 961.197, 624.317 963.013, 626.538 964.064 C 638.769 969.848, 660.354 971.754, 675.303 968.371 C 708.545 960.848, 730.478 929.028, 735.085 881.639 C 737.819 853.516, 733.065 824.580, 722.865 807.264 C 721.014 804.122, 716.085 798.098, 711.911 793.876 C 705.712 787.606, 702.601 785.370, 694.911 781.655 C 668.275 768.787, 642.679 772.446, 620.519 792.287 C 614.457 797.716, 614.026 797.932, 613.562 795.787 C 607.560 768.009, 602.032 749.106, 593.824 728.294 C 590.464 719.775, 588.132 712.519, 588.619 712.097 C 589.103 711.675, 591.750 710.511, 594.500 709.508 C 603.045 706.394, 625.645 695.362, 633.760 690.343 C 643.715 684.187, 653.746 677.136, 662.282 670.296 L 669.065 664.861 672.922 673.181 C 679.939 688.314, 681.569 701.179, 677.849 712.074 C 676.082 717.250, 670.465 725.710, 663.733 733.335 C 657.925 739.912, 654 746.085, 654 748.640 C 654 750.648, 656.982 753, 659.529 753 C 661.261 753, 663.432 751.150, 667.452 746.250 C 670.498 742.538, 675.186 736.878, 677.870 733.674 C 693.827 714.625, 695.251 693.846, 682.498 666.113 C 678.872 658.227, 678.298 656.218, 679.291 654.883 C 679.956 653.989, 683.135 650.162, 686.355 646.379 C 689.575 642.596, 693.770 637.185, 695.677 634.355 C 697.664 631.405, 701.200 627.931, 703.962 626.214 C 713.716 620.151, 722.400 605.595, 725.556 590.021 C 731.174 562.294, 719.157 532.940, 696.854 519.915 C 693.084 517.713, 690 515.723, 690 515.493 C 690 515.263, 690.956 512.695, 692.125 509.787 C 704.400 479.239, 713.565 437.275, 716.608 397.686 L 717.285 388.872 721.393 389.630 C 730.263 391.266, 734.797 389.447, 738.444 382.788 C 740.162 379.652, 740.244 378.757, 739.149 375.103 C 738.467 372.828, 735.905 368.506, 733.455 365.498 C 731.005 362.490, 729 359.834, 729 359.597 C 729 359.360, 731.306 358.671, 734.125 358.067 C 740.553 356.688, 753.076 351.238, 763.500 345.282 C 789.630 330.353, 816.058 301.014, 831.763 269.500 C 836.871 259.252, 843.896 240.495, 846.455 230.274 C 850.990 212.163, 852.303 199.376, 851.719 179 C 851.246 162.501, 850.854 159.234, 848.092 148.794 C 841.437 123.639, 830.562 104.448, 812.395 85.798 C 789.931 62.737, 759.951 48.351, 727.576 45.098 C 715.663 43.901, 711.810 43.893, 699 45.040" fill="white" stroke="none" fill-rule="nonzero"/>
  <path d="M 689.500 61.010 C 661.431 67.190, 642.164 77.824, 622.759 97.846 C 597.127 124.292, 585.652 154.914, 587.307 192.447 C 589.671 246.043, 621.559 303.242, 665.500 332.703 C 677.332 340.636, 692.391 346.965, 704.422 349.060 C 724.382 352.536, 755.634 338.660, 779.735 315.622 C 809.014 287.635, 828.240 252.167, 835.636 212.500 C 838.483 197.230, 838.184 168.852, 835.042 156 C 823.578 109.115, 789.807 74.432, 744 62.499 C 734.947 60.141, 731.088 59.713, 716 59.396 C 701.301 59.087, 697.059 59.346, 689.500 61.010" fill="white" stroke="none" fill-rule="evenodd"/>
  <path d="M 544.500 315.405 C 526.902 319.753, 514.917 330.634, 511.352 345.500 C 510.429 349.350, 509.555 352.654, 509.410 352.843 C 509.266 353.032, 504.165 351.578, 498.075 349.613 C 475.351 342.277, 453.264 339.541, 429.129 341.072 C 392.557 343.391, 360.595 353.603, 324.500 374.502 C 321.200 376.413, 318.198 377.982, 317.829 377.988 C 317.461 377.995, 316.842 376.538, 316.455 374.750 C 316.068 372.962, 314.416 368.843, 312.783 365.595 C 302.564 345.267, 273.288 335.053, 247.871 342.947 C 238.081 345.987, 232.344 349.543, 224.227 357.600 C 212.615 369.127, 207 383.058, 207 400.339 C 207 416.216, 212.292 429.361, 222.992 440.061 C 230.908 447.977, 242.896 454.420, 253 456.190 C 256.575 456.816, 259.868 457.645, 260.319 458.033 C 260.769 458.420, 260.219 461.834, 259.096 465.619 C 253.607 484.128, 252.009 513.451, 255.425 533 C 263.456 578.954, 293.549 613.860, 341.729 633.109 C 354.785 638.324, 369.494 642.195, 389 645.547 C 403.742 648.080, 438.329 648.624, 455 646.584 C 508.322 640.060, 552.103 621.993, 580.593 594.756 C 592.266 583.597, 598.684 575.189, 604.452 563.500 C 623.117 525.674, 618.389 477.928, 591.470 432.395 C 588.977 428.179, 587.064 424.662, 587.219 424.581 C 587.373 424.499, 589.300 423.835, 591.500 423.105 C 608.523 417.456, 619 400.783, 619 379.339 C 619 367.927, 617.587 362.019, 612.225 351 C 608.374 343.087, 606.166 340.060, 599.013 332.881 C 592.037 325.880, 588.837 323.501, 581.963 320.200 C 569.400 314.170, 556.293 312.492, 544.500 315.405" fill="white" stroke="none" fill-rule="evenodd"/>
  <path d="M 548.296 345.399 C 539.713 348.182, 528 359.171, 528 364.441 C 528 367.420, 529.263 368.682, 537.795 374.233 C 545.436 379.204, 559.922 392.683, 567.005 401.413 C 569.864 404.937, 573.126 408.061, 574.255 408.356 C 579.146 409.635, 588.496 400.601, 592.065 391.147 C 597.933 375.606, 588.741 354.848, 572.500 346.960 C 566.473 344.033, 554.826 343.281, 548.296 345.399" fill="white" stroke="none" fill-rule="evenodd"/>
  <path d="M 549.500 356.319 C 544.604 358.692, 539 362.912, 539 364.226 C 539 364.590, 543.711 368.762, 549.470 373.499 C 555.228 378.235, 563.330 385.794, 567.474 390.297 C 576.135 399.710, 576.693 399.740, 581.250 391.029 C 585.811 382.309, 584.364 372.290, 577.362 364.110 C 569.471 354.891, 558.674 351.872, 549.500 356.319" fill="white" stroke="none" fill-rule="evenodd"/>
  <path d="M 703.315 365.006 C 697.163 371.360, 693.691 376.690, 694.670 378.275 C 695.007 378.820, 697.248 378.946, 699.880 378.568 C 712.170 376.805, 714.861 376.793, 719.932 378.478 C 728.932 381.467, 730.537 378.374, 724.156 370.340 C 713.278 356.643, 711.782 356.261, 703.315 365.006" fill="white" stroke="none" fill-rule="evenodd"/>
  <path d="M 258.929 370.305 C 248.158 373.356, 238.785 381.756, 234.886 391.853 C 233.308 395.941, 232.678 399.853, 232.603 406.020 C 232.510 413.742, 232.808 415.167, 235.787 421.218 C 241.027 431.864, 251.641 439.779, 262.015 440.776 C 267.422 441.295, 266.675 442.024, 275.619 427.500 C 282.835 415.783, 287.316 410.047, 295.931 401.500 C 300.088 397.376, 302.989 393.657, 302.993 392.447 C 303.011 387.186, 290.211 375.533, 280.101 371.606 C 274.186 369.308, 264.543 368.716, 258.929 370.305" fill="white" stroke="none" fill-rule="evenodd"/>
  <path d="M 259.239 381.335 C 253.611 383.376, 248.945 387.936, 245.900 394.373 C 239.397 408.119, 243.911 422.164, 257.021 428.977 C 263.282 432.231, 263.308 432.216, 270.715 421 C 274.530 415.225, 280.879 406.480, 284.825 401.568 C 288.771 396.655, 292 392.297, 292 391.884 C 292 390.279, 282.855 383.753, 278.045 381.925 C 272.401 379.780, 264.232 379.524, 259.239 381.335" fill="white" stroke="none" fill-rule="evenodd"/>
  <path d="M 508.176 435.059 C 506.727 435.639, 505.978 436.651, 506.186 437.745 C 506.467 439.215, 508.025 439.595, 515.785 440.086 C 524.345 440.628, 525.442 440.946, 530.212 444.271 C 534.229 447.071, 535.778 447.654, 537.188 446.900 C 538.184 446.366, 539 445.542, 539 445.068 C 539 443.587, 531.818 437.822, 527.565 435.890 C 523.151 433.885, 512.266 433.419, 508.176 435.059" fill="white" stroke="none" fill-rule="evenodd"/>
  <path d="M 349.909 465.554 C 344.159 467.325, 336.942 473.584, 334.561 478.865 C 331.283 486.134, 335.148 488.849, 339.380 482.250 C 340.703 480.188, 342.798 477.436, 344.037 476.136 C 346.474 473.579, 353.467 470.057, 356.179 470.022 C 358.923 469.986, 361.289 467.053, 359.912 465.394 C 358.486 463.676, 355.868 463.718, 349.909 465.554" fill="white" stroke="none" fill-rule="evenodd"/>
  <path d="M 507.500 470.573 C 499.895 474.528, 496.484 481.344, 496.527 492.500 C 496.570 503.557, 502.529 514.105, 510.718 517.619 C 514.596 519.283, 523.295 519.429, 526.316 517.880 C 534.335 513.768, 538.556 505.009, 537.775 494.100 C 536.982 483.016, 531.305 473.697, 523.312 470.357 C 518.969 468.542, 511.200 468.648, 507.500 470.573" fill="white" stroke="none" fill-rule="evenodd"/>
  <path d="M 504.939 481.061 C 502.292 483.708, 502.775 486.760, 506.250 489.345 L 509 491.391 511.750 489.345 C 515.225 486.760, 515.708 483.708, 513.061 481.061 C 510.439 478.439, 507.561 478.439, 504.939 481.061" fill="white" stroke="none" fill-rule="evenodd"/>
  <path d="M 363.500 496.490 C 357.943 498.439, 352.482 504.823, 350.966 511.141 C 346.859 528.260, 357.764 546, 372.395 546 C 380.582 546, 386.584 542.102, 390.104 534.500 C 392.493 529.340, 392.604 518.130, 390.333 511.463 C 388.029 504.702, 380.930 497.723, 374.779 496.175 C 369.039 494.729, 368.478 494.745, 363.500 496.490" fill="white" stroke="none" fill-rule="evenodd"/>
  <path d="M 364.200 507.200 C 361.191 510.209, 363.873 517, 368.071 517 C 370.520 517, 374 513.569, 374 511.155 C 374 507.093, 367.094 504.306, 364.200 507.200" fill="white" stroke="none" fill-rule="evenodd"/>
  <path d="M 445.500 508.916 C 419.046 513.917, 398.558 526.775, 386.535 545.922 C 378.282 559.064, 376.086 577.129, 380.940 591.950 C 393.436 630.109, 443.986 647.467, 488.570 628.907 C 510.231 619.889, 527.252 601.485, 532.475 581.436 C 534.430 573.928, 534.428 561.062, 532.469 553.542 C 528.540 538.460, 515.950 523.605, 500.836 516.221 C 484.154 508.071, 464.026 505.414, 445.500 508.916" fill="white" stroke="none" fill-rule="evenodd"/>
  <path d="M 450.168 514.091 C 423.693 518.142, 399.133 534.110, 389.954 553.239 C 382.566 568.638, 382.565 581.480, 389.951 596.500 C 396.908 610.647, 408.128 619.915, 425.499 625.862 C 462.390 638.494, 507.426 621.563, 522.753 589.303 C 537.520 558.219, 519.182 525.469, 481.722 516.028 C 472.196 513.627, 458.640 512.795, 450.168 514.091" fill="white" stroke="none" fill-rule="evenodd"/>
  <path d="M 448.355 517.039 C 439.211 518.849, 429.887 525.619, 428.405 531.524 C 426.290 539.948, 437.334 549.779, 451.121 551.747 L 456.500 552.514 457.414 561.385 C 458.019 567.259, 457.984 570.804, 457.309 571.878 C 455.701 574.436, 447.186 577.143, 439 577.699 C 429.381 578.352, 421.350 575.637, 417.337 570.375 C 415.321 567.732, 414.065 566.970, 412.101 567.199 C 410.533 567.382, 409.379 568.225, 409.167 569.345 C 408.655 572.044, 417.912 580.594, 422.993 582.116 C 426.599 583.196, 427.636 584.240, 431.243 590.415 C 439.689 604.878, 449.067 611.914, 461.035 612.770 C 466.830 613.185, 468.587 612.879, 473.635 610.574 C 485.289 605.252, 491.458 595.783, 492.663 581.369 C 493.310 573.634, 493.395 573.434, 497.702 569.628 C 504.455 563.661, 508.125 555.029, 504.500 553.638 C 502.144 552.734, 500.224 553.920, 499.176 556.924 C 495.770 566.695, 478.783 575.171, 468.516 572.222 C 465.286 571.294, 465.015 570.484, 463.521 557.322 L 462.820 551.144 466.025 549.487 C 470.295 547.279, 477.806 540.276, 479.577 536.852 C 480.360 535.338, 481 532.007, 481 529.450 C 481 525.524, 480.487 524.287, 477.703 521.503 C 475.890 519.690, 472.627 517.712, 470.453 517.109 C 465.950 515.858, 454.503 515.823, 448.355 517.039" fill="white" stroke="none" fill-rule="evenodd"/>
  <path d="M 662.183 527.843 C 652.658 531.238, 646.985 538.729, 647.015 547.872 C 647.038 554.856, 647.730 555.323, 653.692 552.372 C 663.148 547.692, 670 548.166, 670 553.500 C 670 556.289, 668.985 557.084, 661.782 559.939 C 658.095 561.401, 654.633 563.759, 652.032 566.581 C 648.632 570.270, 648.001 571.625, 648.004 575.228 C 648.009 580.981, 651.271 586.408, 654.300 585.700 C 665.062 583.188, 667.922 582.764, 670.221 583.341 C 673.700 584.214, 674.819 587.675, 672.355 589.939 C 671.335 590.876, 667.828 592.448, 664.563 593.431 C 657.219 595.644, 653 599.539, 653 604.107 C 653 611.282, 659.078 618.854, 667.315 621.944 C 668.863 622.525, 673.415 623, 677.431 623 C 683.799 623, 685.641 622.545, 691.848 619.440 C 703.521 613.600, 710.998 602.102, 713.755 585.750 C 715.123 577.632, 715.123 575.731, 713.754 567.354 C 710.921 550.019, 701.418 535.287, 689.218 529.318 C 681.839 525.708, 669.986 525.061, 662.183 527.843" fill="white" stroke="none" fill-rule="evenodd"/>
  <path d="M 636 561.795 C 636 564.823, 616.810 582.656, 604 591.532 C 600.975 593.628, 594.598 598.915, 589.829 603.281 C 565.664 625.402, 537.387 640.197, 500.769 649.880 C 474.154 656.917, 455.069 659.344, 426 659.387 C 394.513 659.434, 373.431 656.217, 344.508 646.952 L 334.781 643.836 331.141 646.420 C 316.660 656.695, 293.602 681.075, 274.316 706.500 C 238.471 753.756, 218.275 802.220, 222.860 829.981 C 224.695 841.093, 228.638 847.475, 237.304 853.359 C 240.162 855.299, 244.167 857.184, 246.205 857.546 C 250.474 858.306, 250.457 858.343, 251.484 846.500 C 252.190 838.359, 254.201 829.767, 257.219 822 C 265.533 800.598, 286.880 783.196, 310 778.973 C 313.575 778.320, 317.175 777.484, 318 777.114 C 319.793 776.311, 327.232 761.641, 343.664 726.508 C 353.688 705.077, 356.273 700.338, 358.355 699.578 C 361.521 698.422, 364 700.235, 364 703.705 C 364 706.477, 362.586 709.832, 345.793 746.906 C 330.235 781.253, 331.370 777.660, 335.813 778.489 C 342.677 779.769, 355.082 785.167, 362.383 790.050 C 374.871 798.403, 390.830 817.076, 397.571 831.223 C 398.711 833.616, 401.336 836.258, 404.922 838.622 C 412.838 843.840, 423.803 855.394, 428.571 863.543 C 439.083 881.507, 443.359 900.627, 437.224 902.231 C 432.912 903.359, 431.419 901.525, 429.749 893.051 C 427.944 883.885, 424.072 874.926, 418.198 866.322 C 414.490 860.892, 409 854.884, 409 856.258 C 409 856.592, 410.330 862.022, 411.955 868.326 C 417.153 888.486, 418.081 909.522, 414.532 926.750 C 413.824 930.188, 413.398 933, 413.585 933 C 413.773 933, 416.305 932.052, 419.213 930.893 C 424.310 928.862, 424.984 928.833, 438 930.095 C 471.048 933.300, 506.236 930.718, 540.339 922.585 C 546.300 921.163, 551.968 920, 552.934 920 C 553.900 920, 560.048 922.733, 566.595 926.074 C 578.428 932.111, 601.212 942.096, 601.815 941.509 C 601.989 941.341, 600.779 938.524, 599.126 935.250 C 584.807 906.885, 585.014 860.463, 599.615 825.634 L 602.913 817.767 599.717 818.407 C 592.348 819.880, 578.105 830.882, 570.846 840.708 C 562.270 852.317, 555 872.023, 555 883.660 C 555 891.464, 550.563 895.420, 546.437 891.294 C 542.523 887.380, 546.988 861.892, 554.031 847.939 C 564.028 828.136, 580.142 812.894, 596.750 807.534 C 601.709 805.933, 602 805.653, 602 802.470 C 602 796.754, 598.112 778.584, 593.485 762.676 C 584.711 732.509, 573.984 707.734, 556.346 676.902 C 551.284 668.052, 550.825 664.492, 554.529 662.805 C 558.693 660.908, 561.491 664.127, 571.528 682.365 C 576.620 691.616, 581.171 699.567, 581.643 700.032 C 583.617 701.982, 609.026 690.664, 627.967 679.397 C 635.607 674.852, 652.778 662.441, 659.829 656.367 L 663.157 653.500 660.973 644.500 C 657.745 631.202, 657.858 631.439, 653.029 627.806 C 643.570 620.690, 639.735 610.991, 641.846 599.530 C 642.975 593.403, 642.920 592.971, 640.565 589.500 C 637.707 585.290, 636.563 579.169, 637.356 572.328 C 638.494 562.500, 638.486 561.690, 637.250 561.264 C 636.563 561.027, 636 561.266, 636 561.795" fill="white" stroke="none" fill-rule="evenodd"/>
  <path d="M 463.119 590.978 C 455.193 592.209, 449.804 593.885, 447.020 595.985 C 444.553 597.846, 444.552 597.848, 446.526 600.030 C 449.418 603.228, 455.472 606.032, 460.865 606.670 C 464.457 607.096, 466.843 606.693, 470.788 604.996 C 475.459 602.987, 483 596.293, 483 594.158 C 483 591.378, 471.933 589.608, 463.119 590.978" fill="white" stroke="none" fill-rule="evenodd"/>
  <path d="M 671.015 637.750 C 671.024 639.263, 671.487 641.175, 672.044 642 C 672.892 643.253, 673.546 642.931, 676.029 640.038 C 677.663 638.134, 679 636.221, 679 635.788 C 679 635.354, 677.200 635, 675 635 C 671.299 635, 671.001 635.206, 671.015 637.750" fill="white" stroke="none" fill-rule="evenodd"/>
  <path d="M 658 786.910 C 631.847 790.640, 611.650 815.478, 602.540 855.112 C 600.141 865.548, 598.826 888.613, 600.020 899.302 C 603.587 931.244, 617.989 950.778, 642.176 956.480 C 665.274 961.925, 689.565 953.911, 702.689 936.515 C 724.656 907.398, 730.403 848.705, 714.322 817.700 C 709.289 807.996, 697.863 796.545, 689 792.324 C 679.317 787.712, 667.206 785.597, 658 786.910" fill="white" stroke="none" fill-rule="evenodd"/>
  <path d="M 309.643 791.584 C 289.576 796.442, 273.333 811.736, 266.562 832.148 C 262.874 843.267, 261.952 863.380, 264.439 878.498 C 270.182 913.419, 290.278 945.661, 313.903 957.859 C 335.861 969.196, 365.696 968.877, 382.067 957.130 C 391.235 950.553, 397.576 940.753, 401.565 927 C 404.485 916.930, 404.279 892.142, 401.154 877.533 C 393.361 841.115, 372.713 809.009, 349.133 796.647 C 336.796 790.180, 322.837 788.391, 309.643 791.584" fill="white" stroke="none" fill-rule="evenodd"/>
  <path d="M 666.615 820.088 C 662.775 823.109, 661 827.190, 661 833 C 661 842.091, 665.942 848, 673.546 848 C 677.079 848, 678.265 847.474, 680.373 844.969 C 686.754 837.386, 686.212 825.459, 679.238 819.973 C 675.897 817.345, 670.035 817.398, 666.615 820.088" fill="white" stroke="none" fill-rule="evenodd"/>
  <path d="M 316 821.641 C 307.686 824.439, 305.234 830.356, 308.230 840.384 C 309.890 845.940, 316.688 852.663, 321.572 853.579 C 329.371 855.043, 335.892 848.037, 334.565 839.622 C 333.626 833.672, 330.275 827.306, 326.648 824.582 C 323.353 822.109, 318.552 820.783, 316 821.641" fill="white" stroke="none" fill-rule="evenodd"/>
  <path d="M 669.198 826.262 C 667.067 828.829, 667.304 837.161, 669.571 839.429 C 671.744 841.601, 675.712 841.406, 676.965 839.066 C 678.565 836.076, 678.234 828.377, 676.429 826.571 C 674.539 824.682, 670.647 824.515, 669.198 826.262" fill="white" stroke="none" fill-rule="evenodd"/>
  <path d="M 314.456 830.427 C 312.470 833.459, 313.640 838.528, 317.492 843.578 C 319.559 846.288, 320.807 847, 323.492 847 C 327.510 847, 328.108 846.247, 328.179 841.095 C 328.243 836.450, 325.765 831.883, 321.960 829.636 C 318.156 827.388, 316.320 827.582, 314.456 830.427" fill="white" stroke="none" fill-rule="evenodd"/>
  <path d="M 351.082 832.373 C 341.298 835.622, 340.438 849.701, 349.470 858.733 C 353.110 862.373, 354.341 863, 357.853 863 C 364.022 863, 368.102 858.995, 368.745 852.307 C 369.544 843.988, 365.575 835.187, 360.108 833.156 C 355.137 831.310, 354.459 831.251, 351.082 832.373" fill="white" stroke="none" fill-rule="evenodd"/>
  <path d="M 699.418 834.969 C 696.078 836.320, 692.242 841.610, 691.525 845.853 C 688.812 861.909, 706.049 870.579, 713.149 856.729 C 719.431 844.474, 710.583 830.452, 699.418 834.969" fill="white" stroke="none" fill-rule="evenodd"/>
  <path d="M 636.325 837.459 C 630.614 839.944, 627.908 847.232, 629.922 854.710 C 632.256 863.378, 639.308 867.570, 646.499 864.565 C 650.884 862.733, 653.003 858.236, 652.993 850.782 C 652.986 844.862, 650.963 840.933, 646.359 837.898 C 642.993 835.679, 640.654 835.576, 636.325 837.459" fill="white" stroke="none" fill-rule="evenodd"/>
  <path d="M 353 838.797 C 350.800 839.535, 350.032 841.090, 350.015 844.849 C 349.982 852.125, 355.598 858.356, 360.045 855.976 C 366.722 852.403, 360.158 836.399, 353 838.797" fill="white" stroke="none" fill-rule="evenodd"/>
  <path d="M 282.378 841.437 C 275.477 844.441, 273.978 852.550, 278.608 861.841 C 284.920 874.507, 299.827 875.783, 303.018 863.932 C 305.203 855.818, 300.549 845.896, 292.798 842.144 C 287.674 839.664, 286.617 839.592, 282.378 841.437" fill="white" stroke="none" fill-rule="evenodd"/>
  <path d="M 699.462 843.418 C 698.464 844.940, 697.993 847.431, 698.189 850.136 C 698.444 853.657, 699.009 854.714, 701.308 855.968 C 704.002 857.437, 704.217 857.385, 706.558 854.694 C 709.391 851.439, 709.769 846.543, 707.443 843.223 C 705.362 840.251, 701.475 840.346, 699.462 843.418" fill="white" stroke="none" fill-rule="evenodd"/>
  <path d="M 637.200 844.200 C 635.175 846.225, 635.705 854.705, 638 857 C 640.555 859.555, 644.614 859.589, 645.965 857.066 C 649.803 849.895, 642.389 839.011, 637.200 844.200" fill="white" stroke="none" fill-rule="evenodd"/>
  <path d="M 283.571 848.571 C 280.070 852.073, 283.694 861.933, 289.501 864.702 C 294.740 867.200, 296.514 865.745, 296.451 859.001 C 296.406 854.262, 296.046 853.430, 292.715 850.378 C 288.683 846.683, 285.992 846.151, 283.571 848.571" fill="white" stroke="none" fill-rule="evenodd"/>
  <path d="M 670.223 866.128 C 657.045 868.522, 643.594 882.787, 640.060 898.115 C 638.520 904.794, 638.789 917.025, 640.592 922.316 C 642.793 928.776, 649.740 936.212, 656.150 938.969 C 666.501 943.422, 680.466 939.996, 690.031 930.657 C 698.880 922.017, 702.929 911.938, 702.976 898.432 C 703.008 889.123, 700.857 882.263, 695.964 876.074 C 689.563 867.976, 680.123 864.329, 670.223 866.128" fill="white" stroke="none" fill-rule="evenodd"/>
  <path d="M 320.324 869.638 C 314.294 871.774, 307.543 878.158, 304.491 884.610 C 297.322 899.765, 301.743 919.743, 315.258 933.258 C 323.721 941.721, 330.113 944.507, 341 944.476 C 348.514 944.455, 350.134 944.107, 354.964 941.476 C 361.048 938.163, 366.376 931.907, 367.954 926.225 C 369.888 919.263, 369.203 906.195, 366.504 898.545 C 358.516 875.906, 338.317 863.262, 320.324 869.638" fill="white" stroke="none" fill-rule="evenodd"/>
  <path d="M 668.948 873.156 C 666.994 873.678, 663.169 875.785, 660.448 877.837 C 645.315 889.252, 640.637 916.584, 651.803 928.339 C 655.790 932.537, 659.272 934, 665.272 934 C 673.596 934, 679.711 931.420, 685.788 925.342 C 693.516 917.614, 696.435 910.691, 696.471 900 C 696.508 889.270, 694.448 883.590, 688.552 878.155 C 682.479 872.557, 676.702 871.084, 668.948 873.156" fill="white" stroke="none" fill-rule="evenodd"/>
  <path d="M 325.500 874.905 C 313.449 877.961, 307.236 888.188, 308.210 903.366 C 309.718 926.873, 333.289 944.816, 351.242 936.125 C 366.257 928.856, 366.584 904.555, 351.915 886.131 C 345.649 878.261, 333.173 872.959, 325.500 874.905" fill="white" stroke="none" fill-rule="evenodd"/>
</g>
<g id="colorRegions">
  <path id="body_outer" class="region" d="M 699 45.040 C 649.738 49.453, 604.116 83.094, 583.945 129.882 C 568.812 164.984, 569.081 206.950, 584.708 249 C 603.568 299.749, 645.580 344.039, 686.785 356.614 L 695.070 359.143 689.940 364.756 C 684.281 370.948, 683 373.483, 683 378.488 C 683 385.725, 691.399 390.821, 701.123 389.483 L 706 388.812 705.998 392.156 C 705.994 397.439, 703.179 423.597, 701.540 433.568 C 697.811 456.265, 689.094 488.164, 681.814 505.750 C 678.866 512.873, 678.749 513, 675.157 513.017 C 669.601 513.044, 658.947 515.547, 653.431 518.121 C 646.980 521.132, 638.655 529.459, 637.019 534.537 C 636.316 536.717, 633.830 541.425, 631.495 545 C 629.159 548.575, 626.550 552.850, 625.697 554.500 C 624.844 556.150, 622.787 559.075, 621.126 561 L 618.107 564.500 620.696 558 C 622.120 554.425, 624.347 546.325, 625.645 540 C 631.999 509.036, 626.194 473.781, 609.210 440.183 L 604.500 430.866 607.500 428.756 C 617.598 421.653, 626.120 408.776, 629.485 395.540 C 631.466 387.745, 631.422 371.788, 629.394 362.697 C 628.511 358.739, 626.019 351.689, 623.856 347.030 C 608.531 314.024, 573.684 296.173, 540.115 304.133 C 525.102 307.694, 510.539 318.550, 504.076 331 C 502.220 334.575, 500.628 337.603, 500.539 337.728 C 500.450 337.854, 496.353 336.880, 491.435 335.564 C 474.657 331.074, 465.885 329.834, 447 329.285 C 406.782 328.115, 375.582 335.167, 337.875 353.950 L 324.251 360.736 320.018 354.299 C 313.067 343.726, 301.402 335.692, 285.965 330.844 C 279.597 328.844, 276.517 328.512, 265 328.581 C 253.048 328.652, 250.583 328.974, 243.500 331.388 C 222.907 338.408, 208.367 352.275, 199.975 372.896 C 195.765 383.243, 194.683 390.284, 195.239 403.721 C 196.459 433.200, 211.119 453.631, 238.861 464.515 C 245.619 467.166, 246.136 467.576, 245.711 469.941 C 245.459 471.349, 244.431 477, 243.428 482.500 C 240.906 496.330, 240.856 524.958, 243.332 537.346 C 251.653 578.969, 275.559 611.821, 313 633.084 C 317.125 635.427, 320.704 637.508, 320.954 637.709 C 321.204 637.910, 314.937 644.245, 307.027 651.787 C 244.826 711.099, 202.425 791.877, 211.394 833.976 C 215.333 852.465, 226.718 864.775, 243.872 869.094 L 250.406 870.738 253.167 884.119 C 259.638 915.484, 271.542 938.138, 291.202 956.500 C 306.161 970.471, 323.348 977.613, 344.660 978.713 C 354.047 979.197, 357.351 978.934, 365.462 977.060 C 380.418 973.604, 389.262 968.665, 398.857 958.410 C 405.417 951.398, 408.314 949.144, 415.167 945.720 C 424.585 941.014, 426.066 940.870, 445 942.813 C 474.151 945.805, 511.674 942.643, 542.913 934.562 L 552.326 932.127 568.913 940.508 C 586.795 949.544, 603.620 956.634, 615.224 960.027 C 619.226 961.197, 624.317 963.013, 626.538 964.064 C 638.769 969.848, 660.354 971.754, 675.303 968.371 C 708.545 960.848, 730.478 929.028, 735.085 881.639 C 737.819 853.516, 733.065 824.580, 722.865 807.264 C 721.014 804.122, 716.085 798.098, 711.911 793.876 C 705.712 787.606, 702.601 785.370, 694.911 781.655 C 668.275 768.787, 642.679 772.446, 620.519 792.287 C 614.457 797.716, 614.026 797.932, 613.562 795.787 C 607.560 768.009, 602.032 749.106, 593.824 728.294 C 590.464 719.775, 588.132 712.519, 588.619 712.097 C 589.103 711.675, 591.750 710.511, 594.500 709.508 C 603.045 706.394, 625.645 695.362, 633.760 690.343 C 643.715 684.187, 653.746 677.136, 662.282 670.296 L 669.065 664.861 672.922 673.181 C 679.939 688.314, 681.569 701.179, 677.849 712.074 C 676.082 717.250, 670.465 725.710, 663.733 733.335 C 657.925 739.912, 654 746.085, 654 748.640 C 654 750.648, 656.982 753, 659.529 753 C 661.261 753, 663.432 751.150, 667.452 746.250 C 670.498 742.538, 675.186 736.878, 677.870 733.674 C 693.827 714.625, 695.251 693.846, 682.498 666.113 C 678.872 658.227, 678.298 656.218, 679.291 654.883 C 679.956 653.989, 683.135 650.162, 686.355 646.379 C 689.575 642.596, 693.770 637.185, 695.677 634.355 C 697.664 631.405, 701.200 627.931, 703.962 626.214 C 713.716 620.151, 722.400 605.595, 725.556 590.021 C 731.174 562.294, 719.157 532.940, 696.854 519.915 C 693.084 517.713, 690 515.723, 690 515.493 C 690 515.263, 690.956 512.695, 692.125 509.787 C 704.400 479.239, 713.565 437.275, 716.608 397.686 L 717.285 388.872 721.393 389.630 C 730.263 391.266, 734.797 389.447, 738.444 382.788 C 740.162 379.652, 740.244 378.757, 739.149 375.103 C 738.467 372.828, 735.905 368.506, 733.455 365.498 C 731.005 362.490, 729 359.834, 729 359.597 C 729 359.360, 731.306 358.671, 734.125 358.067 C 740.553 356.688, 753.076 351.238, 763.500 345.282 C 789.630 330.353, 816.058 301.014, 831.763 269.500 C 836.871 259.252, 843.896 240.495, 846.455 230.274 C 850.990 212.163, 852.303 199.376, 851.719 179 C 851.246 162.501, 850.854 159.234, 848.092 148.794 C 841.437 123.639, 830.562 104.448, 812.395 85.798 C 789.931 62.737, 759.951 48.351, 727.576 45.098 C 715.663 43.901, 711.810 43.893, 699 45.040" fill="white" fill-opacity="1" fill-rule="nonzero" stroke="none" onclick="fillRegion(this)"/>
  <path id="body_inner" class="region" d="M 689.500 61.010 C 661.431 67.190, 642.164 77.824, 622.759 97.846 C 597.127 124.292, 585.652 154.914, 587.307 192.447 C 589.671 246.043, 621.559 303.242, 665.500 332.703 C 677.332 340.636, 692.391 346.965, 704.422 349.060 C 724.382 352.536, 755.634 338.660, 779.735 315.622 C 809.014 287.635, 828.240 252.167, 835.636 212.500 C 838.483 197.230, 838.184 168.852, 835.042 156 C 823.578 109.115, 789.807 74.432, 744 62.499 C 734.947 60.141, 731.088 59.713, 716 59.396 C 701.301 59.087, 697.059 59.346, 689.500 61.010" fill="white" fill-opacity="1" fill-rule="evenodd" stroke="none" onclick="fillRegion(this)"/>
  <path id="head_outer" class="region" d="M 544.500 315.405 C 526.902 319.753, 514.917 330.634, 511.352 345.500 C 510.429 349.350, 509.555 352.654, 509.410 352.843 C 509.266 353.032, 504.165 351.578, 498.075 349.613 C 475.351 342.277, 453.264 339.541, 429.129 341.072 C 392.557 343.391, 360.595 353.603, 324.500 374.502 C 321.200 376.413, 318.198 377.982, 317.829 377.988 C 317.461 377.995, 316.842 376.538, 316.455 374.750 C 316.068 372.962, 314.416 368.843, 312.783 365.595 C 302.564 345.267, 273.288 335.053, 247.871 342.947 C 238.081 345.987, 232.344 349.543, 224.227 357.600 C 212.615 369.127, 207 383.058, 207 400.339 C 207 416.216, 212.292 429.361, 222.992 440.061 C 230.908 447.977, 242.896 454.420, 253 456.190 C 256.575 456.816, 259.868 457.645, 260.319 458.033 C 260.769 458.420, 260.219 461.834, 259.096 465.619 C 253.607 484.128, 252.009 513.451, 255.425 533 C 263.456 578.954, 293.549 613.860, 341.729 633.109 C 354.785 638.324, 369.494 642.195, 389 645.547 C 403.742 648.080, 438.329 648.624, 455 646.584 C 508.322 640.060, 552.103 621.993, 580.593 594.756 C 592.266 583.597, 598.684 575.189, 604.452 563.500 C 623.117 525.674, 618.389 477.928, 591.470 432.395 C 588.977 428.179, 587.064 424.662, 587.219 424.581 C 587.373 424.499, 589.300 423.835, 591.500 423.105 C 608.523 417.456, 619 400.783, 619 379.339 C 619 367.927, 617.587 362.019, 612.225 351 C 608.374 343.087, 606.166 340.060, 599.013 332.881 C 592.037 325.880, 588.837 323.501, 581.963 320.200 C 569.400 314.170, 556.293 312.492, 544.500 315.405" fill="white" fill-opacity="1" fill-rule="evenodd" stroke="none" onclick="fillRegion(this)"/>
  <path id="head_inner" class="region" d="M 548.296 345.399 C 539.713 348.182, 528 359.171, 528 364.441 C 528 367.420, 529.263 368.682, 537.795 374.233 C 545.436 379.204, 559.922 392.683, 567.005 401.413 C 569.864 404.937, 573.126 408.061, 574.255 408.356 C 579.146 409.635, 588.496 400.601, 592.065 391.147 C 597.933 375.606, 588.741 354.848, 572.500 346.960 C 566.473 344.033, 554.826 343.281, 548.296 345.399" fill="white" fill-opacity="1" fill-rule="evenodd" stroke="none" onclick="fillRegion(this)"/>
  <path id="head_detail" class="region" d="M 549.500 356.319 C 544.604 358.692, 539 362.912, 539 364.226 C 539 364.590, 543.711 368.762, 549.470 373.499 C 555.228 378.235, 563.330 385.794, 567.474 390.297 C 576.135 399.710, 576.693 399.740, 581.250 391.029 C 585.811 382.309, 584.364 372.290, 577.362 364.110 C 569.471 354.891, 558.674 351.872, 549.500 356.319" fill="white" fill-opacity="1" fill-rule="evenodd" stroke="none" onclick="fillRegion(this)"/>
  <path id="right_ear" class="region" d="M 703.315 365.006 C 697.163 371.360, 693.691 376.690, 694.670 378.275 C 695.007 378.820, 697.248 378.946, 699.880 378.568 C 712.170 376.805, 714.861 376.793, 719.932 378.478 C 728.932 381.467, 730.537 378.374, 724.156 370.340 C 713.278 356.643, 711.782 356.261, 703.315 365.006" fill="white" fill-opacity="1" fill-rule="evenodd" stroke="none" onclick="fillRegion(this)"/>
  <path id="left_ear_outer" class="region" d="M 258.929 370.305 C 248.158 373.356, 238.785 381.756, 234.886 391.853 C 233.308 395.941, 232.678 399.853, 232.603 406.020 C 232.510 413.742, 232.808 415.167, 235.787 421.218 C 241.027 431.864, 251.641 439.779, 262.015 440.776 C 267.422 441.295, 266.675 442.024, 275.619 427.500 C 282.835 415.783, 287.316 410.047, 295.931 401.500 C 300.088 397.376, 302.989 393.657, 302.993 392.447 C 303.011 387.186, 290.211 375.533, 280.101 371.606 C 274.186 369.308, 264.543 368.716, 258.929 370.305" fill="white" fill-opacity="1" fill-rule="evenodd" stroke="none" onclick="fillRegion(this)"/>
  <path id="left_ear_inner" class="region" d="M 259.239 381.335 C 253.611 383.376, 248.945 387.936, 245.900 394.373 C 239.397 408.119, 243.911 422.164, 257.021 428.977 C 263.282 432.231, 263.308 432.216, 270.715 421 C 274.530 415.225, 280.879 406.480, 284.825 401.568 C 288.771 396.655, 292 392.297, 292 391.884 C 292 390.279, 282.855 383.753, 278.045 381.925 C 272.401 379.780, 264.232 379.524, 259.239 381.335" fill="white" fill-opacity="1" fill-rule="evenodd" stroke="none" onclick="fillRegion(this)"/>
  <path id="beak_outer" class="region" d="M 508.176 435.059 C 506.727 435.639, 505.978 436.651, 506.186 437.745 C 506.467 439.215, 508.025 439.595, 515.785 440.086 C 524.345 440.628, 525.442 440.946, 530.212 444.271 C 534.229 447.071, 535.778 447.654, 537.188 446.900 C 538.184 446.366, 539 445.542, 539 445.068 C 539 443.587, 531.818 437.822, 527.565 435.890 C 523.151 433.885, 512.266 433.419, 508.176 435.059" fill="white" fill-opacity="1" fill-rule="evenodd" stroke="none" onclick="fillRegion(this)"/>
  <path id="left_eye_outer" class="region" d="M 349.909 465.554 C 344.159 467.325, 336.942 473.584, 334.561 478.865 C 331.283 486.134, 335.148 488.849, 339.380 482.250 C 340.703 480.188, 342.798 477.436, 344.037 476.136 C 346.474 473.579, 353.467 470.057, 356.179 470.022 C 358.923 469.986, 361.289 467.053, 359.912 465.394 C 358.486 463.676, 355.868 463.718, 349.909 465.554" fill="white" fill-opacity="1" fill-rule="evenodd" stroke="none" onclick="fillRegion(this)"/>
  <path id="beak_inner" class="region" d="M 507.500 470.573 C 499.895 474.528, 496.484 481.344, 496.527 492.500 C 496.570 503.557, 502.529 514.105, 510.718 517.619 C 514.596 519.283, 523.295 519.429, 526.316 517.880 C 534.335 513.768, 538.556 505.009, 537.775 494.100 C 536.982 483.016, 531.305 473.697, 523.312 470.357 C 518.969 468.542, 511.200 468.648, 507.500 470.573" fill="white" fill-opacity="1" fill-rule="evenodd" stroke="none" onclick="fillRegion(this)"/>
  <path id="beak_detail" class="region" d="M 504.939 481.061 C 502.292 483.708, 502.775 486.760, 506.250 489.345 L 509 491.391 511.750 489.345 C 515.225 486.760, 515.708 483.708, 513.061 481.061 C 510.439 478.439, 507.561 478.439, 504.939 481.061" fill="white" fill-opacity="1" fill-rule="evenodd" stroke="none" onclick="fillRegion(this)"/>
  <path id="left_eye_inner" class="region" d="M 363.500 496.490 C 357.943 498.439, 352.482 504.823, 350.966 511.141 C 346.859 528.260, 357.764 546, 372.395 546 C 380.582 546, 386.584 542.102, 390.104 534.500 C 392.493 529.340, 392.604 518.130, 390.333 511.463 C 388.029 504.702, 380.930 497.723, 374.779 496.175 C 369.039 494.729, 368.478 494.745, 363.500 496.490" fill="white" fill-opacity="1" fill-rule="evenodd" stroke="none" onclick="fillRegion(this)"/>
  <path id="left_eye_pupil" class="region" d="M 364.200 507.200 C 361.191 510.209, 363.873 517, 368.071 517 C 370.520 517, 374 513.569, 374 511.155 C 374 507.093, 367.094 504.306, 364.200 507.200" fill="white" fill-opacity="1" fill-rule="evenodd" stroke="none" onclick="fillRegion(this)"/>
  <path id="right_eye_outer" class="region" d="M 445.500 508.916 C 419.046 513.917, 398.558 526.775, 386.535 545.922 C 378.282 559.064, 376.086 577.129, 380.940 591.950 C 393.436 630.109, 443.986 647.467, 488.570 628.907 C 510.231 619.889, 527.252 601.485, 532.475 581.436 C 534.430 573.928, 534.428 561.062, 532.469 553.542 C 528.540 538.460, 515.950 523.605, 500.836 516.221 C 484.154 508.071, 464.026 505.414, 445.500 508.916" fill="white" fill-opacity="1" fill-rule="evenodd" stroke="none" onclick="fillRegion(this)"/>
  <path id="right_eye_inner" class="region" d="M 450.168 514.091 C 423.693 518.142, 399.133 534.110, 389.954 553.239 C 382.566 568.638, 382.565 581.480, 389.951 596.500 C 396.908 610.647, 408.128 619.915, 425.499 625.862 C 462.390 638.494, 507.426 621.563, 522.753 589.303 C 537.520 558.219, 519.182 525.469, 481.722 516.028 C 472.196 513.627, 458.640 512.795, 450.168 514.091" fill="white" fill-opacity="1" fill-rule="evenodd" stroke="none" onclick="fillRegion(this)"/>
  <path id="right_eye_pupil" class="region" d="M 448.355 517.039 C 439.211 518.849, 429.887 525.619, 428.405 531.524 C 426.290 539.948, 437.334 549.779, 451.121 551.747 L 456.500 552.514 457.414 561.385 C 458.019 567.259, 457.984 570.804, 457.309 571.878 C 455.701 574.436, 447.186 577.143, 439 577.699 C 429.381 578.352, 421.350 575.637, 417.337 570.375 C 415.321 567.732, 414.065 566.970, 412.101 567.199 C 410.533 567.382, 409.379 568.225, 409.167 569.345 C 408.655 572.044, 417.912 580.594, 422.993 582.116 C 426.599 583.196, 427.636 584.240, 431.243 590.415 C 439.689 604.878, 449.067 611.914, 461.035 612.770 C 466.830 613.185, 468.587 612.879, 473.635 610.574 C 485.289 605.252, 491.458 595.783, 492.663 581.369 C 493.310 573.634, 493.395 573.434, 497.702 569.628 C 504.455 563.661, 508.125 555.029, 504.500 553.638 C 502.144 552.734, 500.224 553.920, 499.176 556.924 C 495.770 566.695, 478.783 575.171, 468.516 572.222 C 465.286 571.294, 465.015 570.484, 463.521 557.322 L 462.820 551.144 466.025 549.487 C 470.295 547.279, 477.806 540.276, 479.577 536.852 C 480.360 535.338, 481 532.007, 481 529.450 C 481 525.524, 480.487 524.287, 477.703 521.503 C 475.890 519.690, 472.627 517.712, 470.453 517.109 C 465.950 515.858, 454.503 515.823, 448.355 517.039" fill="white" fill-opacity="1" fill-rule="evenodd" stroke="none" onclick="fillRegion(this)"/>
  <path id="right_cheek" class="region" d="M 662.183 527.843 C 652.658 531.238, 646.985 538.729, 647.015 547.872 C 647.038 554.856, 647.730 555.323, 653.692 552.372 C 663.148 547.692, 670 548.166, 670 553.500 C 670 556.289, 668.985 557.084, 661.782 559.939 C 658.095 561.401, 654.633 563.759, 652.032 566.581 C 648.632 570.270, 648.001 571.625, 648.004 575.228 C 648.009 580.981, 651.271 586.408, 654.300 585.700 C 665.062 583.188, 667.922 582.764, 670.221 583.341 C 673.700 584.214, 674.819 587.675, 672.355 589.939 C 671.335 590.876, 667.828 592.448, 664.563 593.431 C 657.219 595.644, 653 599.539, 653 604.107 C 653 611.282, 659.078 618.854, 667.315 621.944 C 668.863 622.525, 673.415 623, 677.431 623 C 683.799 623, 685.641 622.545, 691.848 619.440 C 703.521 613.600, 710.998 602.102, 713.755 585.750 C 715.123 577.632, 715.123 575.731, 713.754 567.354 C 710.921 550.019, 701.418 535.287, 689.218 529.318 C 681.839 525.708, 669.986 525.061, 662.183 527.843" fill="white" fill-opacity="1" fill-rule="evenodd" stroke="none" onclick="fillRegion(this)"/>
  <path id="right_wing" class="region" d="M 636 561.795 C 636 564.823, 616.810 582.656, 604 591.532 C 600.975 593.628, 594.598 598.915, 589.829 603.281 C 565.664 625.402, 537.387 640.197, 500.769 649.880 C 474.154 656.917, 455.069 659.344, 426 659.387 C 394.513 659.434, 373.431 656.217, 344.508 646.952 L 334.781 643.836 331.141 646.420 C 316.660 656.695, 293.602 681.075, 274.316 706.500 C 238.471 753.756, 218.275 802.220, 222.860 829.981 C 224.695 841.093, 228.638 847.475, 237.304 853.359 C 240.162 855.299, 244.167 857.184, 246.205 857.546 C 250.474 858.306, 250.457 858.343, 251.484 846.500 C 252.190 838.359, 254.201 829.767, 257.219 822 C 265.533 800.598, 286.880 783.196, 310 778.973 C 313.575 778.320, 317.175 777.484, 318 777.114 C 319.793 776.311, 327.232 761.641, 343.664 726.508 C 353.688 705.077, 356.273 700.338, 358.355 699.578 C 361.521 698.422, 364 700.235, 364 703.705 C 364 706.477, 362.586 709.832, 345.793 746.906 C 330.235 781.253, 331.370 777.660, 335.813 778.489 C 342.677 779.769, 355.082 785.167, 362.383 790.050 C 374.871 798.403, 390.830 817.076, 397.571 831.223 C 398.711 833.616, 401.336 836.258, 404.922 838.622 C 412.838 843.840, 423.803 855.394, 428.571 863.543 C 439.083 881.507, 443.359 900.627, 437.224 902.231 C 432.912 903.359, 431.419 901.525, 429.749 893.051 C 427.944 883.885, 424.072 874.926, 418.198 866.322 C 414.490 860.892, 409 854.884, 409 856.258 C 409 856.592, 410.330 862.022, 411.955 868.326 C 417.153 888.486, 418.081 909.522, 414.532 926.750 C 413.824 930.188, 413.398 933, 413.585 933 C 413.773 933, 416.305 932.052, 419.213 930.893 C 424.310 928.862, 424.984 928.833, 438 930.095 C 471.048 933.300, 506.236 930.718, 540.339 922.585 C 546.300 921.163, 551.968 920, 552.934 920 C 553.900 920, 560.048 922.733, 566.595 926.074 C 578.428 932.111, 601.212 942.096, 601.815 941.509 C 601.989 941.341, 600.779 938.524, 599.126 935.250 C 584.807 906.885, 585.014 860.463, 599.615 825.634 L 602.913 817.767 599.717 818.407 C 592.348 819.880, 578.105 830.882, 570.846 840.708 C 562.270 852.317, 555 872.023, 555 883.660 C 555 891.464, 550.563 895.420, 546.437 891.294 C 542.523 887.380, 546.988 861.892, 554.031 847.939 C 564.028 828.136, 580.142 812.894, 596.750 807.534 C 601.709 805.933, 602 805.653, 602 802.470 C 602 796.754, 598.112 778.584, 593.485 762.676 C 584.711 732.509, 573.984 707.734, 556.346 676.902 C 551.284 668.052, 550.825 664.492, 554.529 662.805 C 558.693 660.908, 561.491 664.127, 571.528 682.365 C 576.620 691.616, 581.171 699.567, 581.643 700.032 C 583.617 701.982, 609.026 690.664, 627.967 679.397 C 635.607 674.852, 652.778 662.441, 659.829 656.367 L 663.157 653.500 660.973 644.500 C 657.745 631.202, 657.858 631.439, 653.029 627.806 C 643.570 620.690, 639.735 610.991, 641.846 599.530 C 642.975 593.403, 642.920 592.971, 640.565 589.500 C 637.707 585.290, 636.563 579.169, 637.356 572.328 C 638.494 562.500, 638.486 561.690, 637.250 561.264 C 636.563 561.027, 636 561.266, 636 561.795" fill="white" fill-opacity="1" fill-rule="evenodd" stroke="none" onclick="fillRegion(this)"/>
  <path id="chest" class="region" d="M 463.119 590.978 C 455.193 592.209, 449.804 593.885, 447.020 595.985 C 444.553 597.846, 444.552 597.848, 446.526 600.030 C 449.418 603.228, 455.472 606.032, 460.865 606.670 C 464.457 607.096, 466.843 606.693, 470.788 604.996 C 475.459 602.987, 483 596.293, 483 594.158 C 483 591.378, 471.933 589.608, 463.119 590.978" fill="white" fill-opacity="1" fill-rule="evenodd" stroke="none" onclick="fillRegion(this)"/>
  <path id="right_leg" class="region" d="M 671.015 637.750 C 671.024 639.263, 671.487 641.175, 672.044 642 C 672.892 643.253, 673.546 642.931, 676.029 640.038 C 677.663 638.134, 679 636.221, 679 635.788 C 679 635.354, 677.200 635, 675 635 C 671.299 635, 671.001 635.206, 671.015 637.750" fill="white" fill-opacity="1" fill-rule="evenodd" stroke="none" onclick="fillRegion(this)"/>
  <path id="right_foot" class="region" d="M 658 786.910 C 631.847 790.640, 611.650 815.478, 602.540 855.112 C 600.141 865.548, 598.826 888.613, 600.020 899.302 C 603.587 931.244, 617.989 950.778, 642.176 956.480 C 665.274 961.925, 689.565 953.911, 702.689 936.515 C 724.656 907.398, 730.403 848.705, 714.322 817.700 C 709.289 807.996, 697.863 796.545, 689 792.324 C 679.317 787.712, 667.206 785.597, 658 786.910" fill="white" fill-opacity="1" fill-rule="evenodd" stroke="none" onclick="fillRegion(this)"/>
  <path id="left_foot" class="region" d="M 309.643 791.584 C 289.576 796.442, 273.333 811.736, 266.562 832.148 C 262.874 843.267, 261.952 863.380, 264.439 878.498 C 270.182 913.419, 290.278 945.661, 313.903 957.859 C 335.861 969.196, 365.696 968.877, 382.067 957.130 C 391.235 950.553, 397.576 940.753, 401.565 927 C 404.485 916.930, 404.279 892.142, 401.154 877.533 C 393.361 841.115, 372.713 809.009, 349.133 796.647 C 336.796 790.180, 322.837 788.391, 309.643 791.584" fill="white" fill-opacity="1" fill-rule="evenodd" stroke="none" onclick="fillRegion(this)"/>
  <path id="toe_r1" class="region" d="M 666.615 820.088 C 662.775 823.109, 661 827.190, 661 833 C 661 842.091, 665.942 848, 673.546 848 C 677.079 848, 678.265 847.474, 680.373 844.969 C 686.754 837.386, 686.212 825.459, 679.238 819.973 C 675.897 817.345, 670.035 817.398, 666.615 820.088" fill="white" fill-opacity="1" fill-rule="evenodd" stroke="none" onclick="fillRegion(this)"/>
  <path id="toe_l1" class="region" d="M 316 821.641 C 307.686 824.439, 305.234 830.356, 308.230 840.384 C 309.890 845.940, 316.688 852.663, 321.572 853.579 C 329.371 855.043, 335.892 848.037, 334.565 839.622 C 333.626 833.672, 330.275 827.306, 326.648 824.582 C 323.353 822.109, 318.552 820.783, 316 821.641" fill="white" fill-opacity="1" fill-rule="evenodd" stroke="none" onclick="fillRegion(this)"/>
  <path id="toe_r2" class="region" d="M 669.198 826.262 C 667.067 828.829, 667.304 837.161, 669.571 839.429 C 671.744 841.601, 675.712 841.406, 676.965 839.066 C 678.565 836.076, 678.234 828.377, 676.429 826.571 C 674.539 824.682, 670.647 824.515, 669.198 826.262" fill="white" fill-opacity="1" fill-rule="evenodd" stroke="none" onclick="fillRegion(this)"/>
  <path id="toe_l2" class="region" d="M 314.456 830.427 C 312.470 833.459, 313.640 838.528, 317.492 843.578 C 319.559 846.288, 320.807 847, 323.492 847 C 327.510 847, 328.108 846.247, 328.179 841.095 C 328.243 836.450, 325.765 831.883, 321.960 829.636 C 318.156 827.388, 316.320 827.582, 314.456 830.427" fill="white" fill-opacity="1" fill-rule="evenodd" stroke="none" onclick="fillRegion(this)"/>
  <path id="toe_l3" class="region" d="M 351.082 832.373 C 341.298 835.622, 340.438 849.701, 349.470 858.733 C 353.110 862.373, 354.341 863, 357.853 863 C 364.022 863, 368.102 858.995, 368.745 852.307 C 369.544 843.988, 365.575 835.187, 360.108 833.156 C 355.137 831.310, 354.459 831.251, 351.082 832.373" fill="white" fill-opacity="1" fill-rule="evenodd" stroke="none" onclick="fillRegion(this)"/>
  <path id="toe_r3" class="region" d="M 699.418 834.969 C 696.078 836.320, 692.242 841.610, 691.525 845.853 C 688.812 861.909, 706.049 870.579, 713.149 856.729 C 719.431 844.474, 710.583 830.452, 699.418 834.969" fill="white" fill-opacity="1" fill-rule="evenodd" stroke="none" onclick="fillRegion(this)"/>
  <path id="toe_r4" class="region" d="M 636.325 837.459 C 630.614 839.944, 627.908 847.232, 629.922 854.710 C 632.256 863.378, 639.308 867.570, 646.499 864.565 C 650.884 862.733, 653.003 858.236, 652.993 850.782 C 652.986 844.862, 650.963 840.933, 646.359 837.898 C 642.993 835.679, 640.654 835.576, 636.325 837.459" fill="white" fill-opacity="1" fill-rule="evenodd" stroke="none" onclick="fillRegion(this)"/>
  <path id="toe_l4" class="region" d="M 353 838.797 C 350.800 839.535, 350.032 841.090, 350.015 844.849 C 349.982 852.125, 355.598 858.356, 360.045 855.976 C 366.722 852.403, 360.158 836.399, 353 838.797" fill="white" fill-opacity="1" fill-rule="evenodd" stroke="none" onclick="fillRegion(this)"/>
  <path id="toe_l5" class="region" d="M 282.378 841.437 C 275.477 844.441, 273.978 852.550, 278.608 861.841 C 284.920 874.507, 299.827 875.783, 303.018 863.932 C 305.203 855.818, 300.549 845.896, 292.798 842.144 C 287.674 839.664, 286.617 839.592, 282.378 841.437" fill="white" fill-opacity="1" fill-rule="evenodd" stroke="none" onclick="fillRegion(this)"/>
  <path id="toe_r5" class="region" d="M 699.462 843.418 C 698.464 844.940, 697.993 847.431, 698.189 850.136 C 698.444 853.657, 699.009 854.714, 701.308 855.968 C 704.002 857.437, 704.217 857.385, 706.558 854.694 C 709.391 851.439, 709.769 846.543, 707.443 843.223 C 705.362 840.251, 701.475 840.346, 699.462 843.418" fill="white" fill-opacity="1" fill-rule="evenodd" stroke="none" onclick="fillRegion(this)"/>
  <path id="toe_r6" class="region" d="M 637.200 844.200 C 635.175 846.225, 635.705 854.705, 638 857 C 640.555 859.555, 644.614 859.589, 645.965 857.066 C 649.803 849.895, 642.389 839.011, 637.200 844.200" fill="white" fill-opacity="1" fill-rule="evenodd" stroke="none" onclick="fillRegion(this)"/>
  <path id="toe_l6" class="region" d="M 283.571 848.571 C 280.070 852.073, 283.694 861.933, 289.501 864.702 C 294.740 867.200, 296.514 865.745, 296.451 859.001 C 296.406 854.262, 296.046 853.430, 292.715 850.378 C 288.683 846.683, 285.992 846.151, 283.571 848.571" fill="white" fill-opacity="1" fill-rule="evenodd" stroke="none" onclick="fillRegion(this)"/>
  <path id="toe_r7" class="region" d="M 670.223 866.128 C 657.045 868.522, 643.594 882.787, 640.060 898.115 C 638.520 904.794, 638.789 917.025, 640.592 922.316 C 642.793 928.776, 649.740 936.212, 656.150 938.969 C 666.501 943.422, 680.466 939.996, 690.031 930.657 C 698.880 922.017, 702.929 911.938, 702.976 898.432 C 703.008 889.123, 700.857 882.263, 695.964 876.074 C 689.563 867.976, 680.123 864.329, 670.223 866.128" fill="white" fill-opacity="1" fill-rule="evenodd" stroke="none" onclick="fillRegion(this)"/>
  <path id="toe_l7" class="region" d="M 320.324 869.638 C 314.294 871.774, 307.543 878.158, 304.491 884.610 C 297.322 899.765, 301.743 919.743, 315.258 933.258 C 323.721 941.721, 330.113 944.507, 341 944.476 C 348.514 944.455, 350.134 944.107, 354.964 941.476 C 361.048 938.163, 366.376 931.907, 367.954 926.225 C 369.888 919.263, 369.203 906.195, 366.504 898.545 C 358.516 875.906, 338.317 863.262, 320.324 869.638" fill="white" fill-opacity="1" fill-rule="evenodd" stroke="none" onclick="fillRegion(this)"/>
  <path id="toe_r8" class="region" d="M 668.948 873.156 C 666.994 873.678, 663.169 875.785, 660.448 877.837 C 645.315 889.252, 640.637 916.584, 651.803 928.339 C 655.790 932.537, 659.272 934, 665.272 934 C 673.596 934, 679.711 931.420, 685.788 925.342 C 693.516 917.614, 696.435 910.691, 696.471 900 C 696.508 889.270, 694.448 883.590, 688.552 878.155 C 682.479 872.557, 676.702 871.084, 668.948 873.156" fill="white" fill-opacity="1" fill-rule="evenodd" stroke="none" onclick="fillRegion(this)"/>
  <path id="toe_l8" class="region" d="M 325.500 874.905 C 313.449 877.961, 307.236 888.188, 308.210 903.366 C 309.718 926.873, 333.289 944.816, 351.242 936.125 C 366.257 928.856, 366.584 904.555, 351.915 886.131 C 345.649 878.261, 333.173 872.959, 325.500 874.905" fill="white" fill-opacity="1" fill-rule="evenodd" stroke="none" onclick="fillRegion(this)"/>
</g>
<g id="outlines" pointer-events="none">
  <path d="M 699 45.040 C 649.738 49.453, 604.116 83.094, 583.945 129.882 C 568.812 164.984, 569.081 206.950, 584.708 249 C 603.568 299.749, 645.580 344.039, 686.785 356.614 L 695.070 359.143 689.940 364.756 C 684.281 370.948, 683 373.483, 683 378.488 C 683 385.725, 691.399 390.821, 701.123 389.483 L 706 388.812 705.998 392.156 C 705.994 397.439, 703.179 423.597, 701.540 433.568 C 697.811 456.265, 689.094 488.164, 681.814 505.750 C 678.866 512.873, 678.749 513, 675.157 513.017 C 669.601 513.044, 658.947 515.547, 653.431 518.121 C 646.980 521.132, 638.655 529.459, 637.019 534.537 C 636.316 536.717, 633.830 541.425, 631.495 545 C 629.159 548.575, 626.550 552.850, 625.697 554.500 C 624.844 556.150, 622.787 559.075, 621.126 561 L 618.107 564.500 620.696 558 C 622.120 554.425, 624.347 546.325, 625.645 540 C 631.999 509.036, 626.194 473.781, 609.210 440.183 L 604.500 430.866 607.500 428.756 C 617.598 421.653, 626.120 408.776, 629.485 395.540 C 631.466 387.745, 631.422 371.788, 629.394 362.697 C 628.511 358.739, 626.019 351.689, 623.856 347.030 C 608.531 314.024, 573.684 296.173, 540.115 304.133 C 525.102 307.694, 510.539 318.550, 504.076 331 C 502.220 334.575, 500.628 337.603, 500.539 337.728 C 500.450 337.854, 496.353 336.880, 491.435 335.564 C 474.657 331.074, 465.885 329.834, 447 329.285 C 406.782 328.115, 375.582 335.167, 337.875 353.950 L 324.251 360.736 320.018 354.299 C 313.067 343.726, 301.402 335.692, 285.965 330.844 C 279.597 328.844, 276.517 328.512, 265 328.581 C 253.048 328.652, 250.583 328.974, 243.500 331.388 C 222.907 338.408, 208.367 352.275, 199.975 372.896 C 195.765 383.243, 194.683 390.284, 195.239 403.721 C 196.459 433.200, 211.119 453.631, 238.861 464.515 C 245.619 467.166, 246.136 467.576, 245.711 469.941 C 245.459 471.349, 244.431 477, 243.428 482.500 C 240.906 496.330, 240.856 524.958, 243.332 537.346 C 251.653 578.969, 275.559 611.821, 313 633.084 C 317.125 635.427, 320.704 637.508, 320.954 637.709 C 321.204 637.910, 314.937 644.245, 307.027 651.787 C 244.826 711.099, 202.425 791.877, 211.394 833.976 C 215.333 852.465, 226.718 864.775, 243.872 869.094 L 250.406 870.738 253.167 884.119 C 259.638 915.484, 271.542 938.138, 291.202 956.500 C 306.161 970.471, 323.348 977.613, 344.660 978.713 C 354.047 979.197, 357.351 978.934, 365.462 977.060 C 380.418 973.604, 389.262 968.665, 398.857 958.410 C 405.417 951.398, 408.314 949.144, 415.167 945.720 C 424.585 941.014, 426.066 940.870, 445 942.813 C 474.151 945.805, 511.674 942.643, 542.913 934.562 L 552.326 932.127 568.913 940.508 C 586.795 949.544, 603.620 956.634, 615.224 960.027 C 619.226 961.197, 624.317 963.013, 626.538 964.064 C 638.769 969.848, 660.354 971.754, 675.303 968.371 C 708.545 960.848, 730.478 929.028, 735.085 881.639 C 737.819 853.516, 733.065 824.580, 722.865 807.264 C 721.014 804.122, 716.085 798.098, 711.911 793.876 C 705.712 787.606, 702.601 785.370, 694.911 781.655 C 668.275 768.787, 642.679 772.446, 620.519 792.287 C 614.457 797.716, 614.026 797.932, 613.562 795.787 C 607.560 768.009, 602.032 749.106, 593.824 728.294 C 590.464 719.775, 588.132 712.519, 588.619 712.097 C 589.103 711.675, 591.750 710.511, 594.500 709.508 C 603.045 706.394, 625.645 695.362, 633.760 690.343 C 643.715 684.187, 653.746 677.136, 662.282 670.296 L 669.065 664.861 672.922 673.181 C 679.939 688.314, 681.569 701.179, 677.849 712.074 C 676.082 717.250, 670.465 725.710, 663.733 733.335 C 657.925 739.912, 654 746.085, 654 748.640 C 654 750.648, 656.982 753, 659.529 753 C 661.261 753, 663.432 751.150, 667.452 746.250 C 670.498 742.538, 675.186 736.878, 677.870 733.674 C 693.827 714.625, 695.251 693.846, 682.498 666.113 C 678.872 658.227, 678.298 656.218, 679.291 654.883 C 679.956 653.989, 683.135 650.162, 686.355 646.379 C 689.575 642.596, 693.770 637.185, 695.677 634.355 C 697.664 631.405, 701.200 627.931, 703.962 626.214 C 713.716 620.151, 722.400 605.595, 725.556 590.021 C 731.174 562.294, 719.157 532.940, 696.854 519.915 C 693.084 517.713, 690 515.723, 690 515.493 C 690 515.263, 690.956 512.695, 692.125 509.787 C 704.400 479.239, 713.565 437.275, 716.608 397.686 L 717.285 388.872 721.393 389.630 C 730.263 391.266, 734.797 389.447, 738.444 382.788 C 740.162 379.652, 740.244 378.757, 739.149 375.103 C 738.467 372.828, 735.905 368.506, 733.455 365.498 C 731.005 362.490, 729 359.834, 729 359.597 C 729 359.360, 731.306 358.671, 734.125 358.067 C 740.553 356.688, 753.076 351.238, 763.500 345.282 C 789.630 330.353, 816.058 301.014, 831.763 269.500 C 836.871 259.252, 843.896 240.495, 846.455 230.274 C 850.990 212.163, 852.303 199.376, 851.719 179 C 851.246 162.501, 850.854 159.234, 848.092 148.794 C 841.437 123.639, 830.562 104.448, 812.395 85.798 C 789.931 62.737, 759.951 48.351, 727.576 45.098 C 715.663 43.901, 711.810 43.893, 699 45.040" fill="none" fill-rule="evenodd" stroke="#111" stroke-width="2.5" stroke-linejoin="round" stroke-linecap="round"/>
  <path d="M 689.500 61.010 C 661.431 67.190, 642.164 77.824, 622.759 97.846 C 597.127 124.292, 585.652 154.914, 587.307 192.447 C 589.671 246.043, 621.559 303.242, 665.500 332.703 C 677.332 340.636, 692.391 346.965, 704.422 349.060 C 724.382 352.536, 755.634 338.660, 779.735 315.622 C 809.014 287.635, 828.240 252.167, 835.636 212.500 C 838.483 197.230, 838.184 168.852, 835.042 156 C 823.578 109.115, 789.807 74.432, 744 62.499 C 734.947 60.141, 731.088 59.713, 716 59.396 C 701.301 59.087, 697.059 59.346, 689.500 61.010" fill="none" fill-rule="evenodd" stroke="#111" stroke-width="2.5" stroke-linejoin="round" stroke-linecap="round"/>
  <path d="M 544.500 315.405 C 526.902 319.753, 514.917 330.634, 511.352 345.500 C 510.429 349.350, 509.555 352.654, 509.410 352.843 C 509.266 353.032, 504.165 351.578, 498.075 349.613 C 475.351 342.277, 453.264 339.541, 429.129 341.072 C 392.557 343.391, 360.595 353.603, 324.500 374.502 C 321.200 376.413, 318.198 377.982, 317.829 377.988 C 317.461 377.995, 316.842 376.538, 316.455 374.750 C 316.068 372.962, 314.416 368.843, 312.783 365.595 C 302.564 345.267, 273.288 335.053, 247.871 342.947 C 238.081 345.987, 232.344 349.543, 224.227 357.600 C 212.615 369.127, 207 383.058, 207 400.339 C 207 416.216, 212.292 429.361, 222.992 440.061 C 230.908 447.977, 242.896 454.420, 253 456.190 C 256.575 456.816, 259.868 457.645, 260.319 458.033 C 260.769 458.420, 260.219 461.834, 259.096 465.619 C 253.607 484.128, 252.009 513.451, 255.425 533 C 263.456 578.954, 293.549 613.860, 341.729 633.109 C 354.785 638.324, 369.494 642.195, 389 645.547 C 403.742 648.080, 438.329 648.624, 455 646.584 C 508.322 640.060, 552.103 621.993, 580.593 594.756 C 592.266 583.597, 598.684 575.189, 604.452 563.500 C 623.117 525.674, 618.389 477.928, 591.470 432.395 C 588.977 428.179, 587.064 424.662, 587.219 424.581 C 587.373 424.499, 589.300 423.835, 591.500 423.105 C 608.523 417.456, 619 400.783, 619 379.339 C 619 367.927, 617.587 362.019, 612.225 351 C 608.374 343.087, 606.166 340.060, 599.013 332.881 C 592.037 325.880, 588.837 323.501, 581.963 320.200 C 569.400 314.170, 556.293 312.492, 544.500 315.405" fill="none" fill-rule="evenodd" stroke="#111" stroke-width="2.5" stroke-linejoin="round" stroke-linecap="round"/>
  <path d="M 548.296 345.399 C 539.713 348.182, 528 359.171, 528 364.441 C 528 367.420, 529.263 368.682, 537.795 374.233 C 545.436 379.204, 559.922 392.683, 567.005 401.413 C 569.864 404.937, 573.126 408.061, 574.255 408.356 C 579.146 409.635, 588.496 400.601, 592.065 391.147 C 597.933 375.606, 588.741 354.848, 572.500 346.960 C 566.473 344.033, 554.826 343.281, 548.296 345.399" fill="none" fill-rule="evenodd" stroke="#111" stroke-width="2.5" stroke-linejoin="round" stroke-linecap="round"/>
  <path d="M 549.500 356.319 C 544.604 358.692, 539 362.912, 539 364.226 C 539 364.590, 543.711 368.762, 549.470 373.499 C 555.228 378.235, 563.330 385.794, 567.474 390.297 C 576.135 399.710, 576.693 399.740, 581.250 391.029 C 585.811 382.309, 584.364 372.290, 577.362 364.110 C 569.471 354.891, 558.674 351.872, 549.500 356.319" fill="none" fill-rule="evenodd" stroke="#111" stroke-width="2.5" stroke-linejoin="round" stroke-linecap="round"/>
  <path d="M 703.315 365.006 C 697.163 371.360, 693.691 376.690, 694.670 378.275 C 695.007 378.820, 697.248 378.946, 699.880 378.568 C 712.170 376.805, 714.861 376.793, 719.932 378.478 C 728.932 381.467, 730.537 378.374, 724.156 370.340 C 713.278 356.643, 711.782 356.261, 703.315 365.006" fill="none" fill-rule="evenodd" stroke="#111" stroke-width="2.5" stroke-linejoin="round" stroke-linecap="round"/>
  <path d="M 258.929 370.305 C 248.158 373.356, 238.785 381.756, 234.886 391.853 C 233.308 395.941, 232.678 399.853, 232.603 406.020 C 232.510 413.742, 232.808 415.167, 235.787 421.218 C 241.027 431.864, 251.641 439.779, 262.015 440.776 C 267.422 441.295, 266.675 442.024, 275.619 427.500 C 282.835 415.783, 287.316 410.047, 295.931 401.500 C 300.088 397.376, 302.989 393.657, 302.993 392.447 C 303.011 387.186, 290.211 375.533, 280.101 371.606 C 274.186 369.308, 264.543 368.716, 258.929 370.305" fill="none" fill-rule="evenodd" stroke="#111" stroke-width="2.5" stroke-linejoin="round" stroke-linecap="round"/>
  <path d="M 259.239 381.335 C 253.611 383.376, 248.945 387.936, 245.900 394.373 C 239.397 408.119, 243.911 422.164, 257.021 428.977 C 263.282 432.231, 263.308 432.216, 270.715 421 C 274.530 415.225, 280.879 406.480, 284.825 401.568 C 288.771 396.655, 292 392.297, 292 391.884 C 292 390.279, 282.855 383.753, 278.045 381.925 C 272.401 379.780, 264.232 379.524, 259.239 381.335" fill="none" fill-rule="evenodd" stroke="#111" stroke-width="2.5" stroke-linejoin="round" stroke-linecap="round"/>
  <path d="M 508.176 435.059 C 506.727 435.639, 505.978 436.651, 506.186 437.745 C 506.467 439.215, 508.025 439.595, 515.785 440.086 C 524.345 440.628, 525.442 440.946, 530.212 444.271 C 534.229 447.071, 535.778 447.654, 537.188 446.900 C 538.184 446.366, 539 445.542, 539 445.068 C 539 443.587, 531.818 437.822, 527.565 435.890 C 523.151 433.885, 512.266 433.419, 508.176 435.059" fill="none" fill-rule="evenodd" stroke="#111" stroke-width="2.5" stroke-linejoin="round" stroke-linecap="round"/>
  <path d="M 349.909 465.554 C 344.159 467.325, 336.942 473.584, 334.561 478.865 C 331.283 486.134, 335.148 488.849, 339.380 482.250 C 340.703 480.188, 342.798 477.436, 344.037 476.136 C 346.474 473.579, 353.467 470.057, 356.179 470.022 C 358.923 469.986, 361.289 467.053, 359.912 465.394 C 358.486 463.676, 355.868 463.718, 349.909 465.554" fill="none" fill-rule="evenodd" stroke="#111" stroke-width="2.5" stroke-linejoin="round" stroke-linecap="round"/>
  <path d="M 507.500 470.573 C 499.895 474.528, 496.484 481.344, 496.527 492.500 C 496.570 503.557, 502.529 514.105, 510.718 517.619 C 514.596 519.283, 523.295 519.429, 526.316 517.880 C 534.335 513.768, 538.556 505.009, 537.775 494.100 C 536.982 483.016, 531.305 473.697, 523.312 470.357 C 518.969 468.542, 511.200 468.648, 507.500 470.573" fill="none" fill-rule="evenodd" stroke="#111" stroke-width="2.5" stroke-linejoin="round" stroke-linecap="round"/>
  <path d="M 504.939 481.061 C 502.292 483.708, 502.775 486.760, 506.250 489.345 L 509 491.391 511.750 489.345 C 515.225 486.760, 515.708 483.708, 513.061 481.061 C 510.439 478.439, 507.561 478.439, 504.939 481.061" fill="none" fill-rule="evenodd" stroke="#111" stroke-width="2.5" stroke-linejoin="round" stroke-linecap="round"/>
  <path d="M 363.500 496.490 C 357.943 498.439, 352.482 504.823, 350.966 511.141 C 346.859 528.260, 357.764 546, 372.395 546 C 380.582 546, 386.584 542.102, 390.104 534.500 C 392.493 529.340, 392.604 518.130, 390.333 511.463 C 388.029 504.702, 380.930 497.723, 374.779 496.175 C 369.039 494.729, 368.478 494.745, 363.500 496.490" fill="none" fill-rule="evenodd" stroke="#111" stroke-width="2.5" stroke-linejoin="round" stroke-linecap="round"/>
  <path d="M 364.200 507.200 C 361.191 510.209, 363.873 517, 368.071 517 C 370.520 517, 374 513.569, 374 511.155 C 374 507.093, 367.094 504.306, 364.200 507.200" fill="none" fill-rule="evenodd" stroke="#111" stroke-width="2.5" stroke-linejoin="round" stroke-linecap="round"/>
  <path d="M 445.500 508.916 C 419.046 513.917, 398.558 526.775, 386.535 545.922 C 378.282 559.064, 376.086 577.129, 380.940 591.950 C 393.436 630.109, 443.986 647.467, 488.570 628.907 C 510.231 619.889, 527.252 601.485, 532.475 581.436 C 534.430 573.928, 534.428 561.062, 532.469 553.542 C 528.540 538.460, 515.950 523.605, 500.836 516.221 C 484.154 508.071, 464.026 505.414, 445.500 508.916" fill="none" fill-rule="evenodd" stroke="#111" stroke-width="2.5" stroke-linejoin="round" stroke-linecap="round"/>
  <path d="M 450.168 514.091 C 423.693 518.142, 399.133 534.110, 389.954 553.239 C 382.566 568.638, 382.565 581.480, 389.951 596.500 C 396.908 610.647, 408.128 619.915, 425.499 625.862 C 462.390 638.494, 507.426 621.563, 522.753 589.303 C 537.520 558.219, 519.182 525.469, 481.722 516.028 C 472.196 513.627, 458.640 512.795, 450.168 514.091" fill="none" fill-rule="evenodd" stroke="#111" stroke-width="2.5" stroke-linejoin="round" stroke-linecap="round"/>
  <path d="M 448.355 517.039 C 439.211 518.849, 429.887 525.619, 428.405 531.524 C 426.290 539.948, 437.334 549.779, 451.121 551.747 L 456.500 552.514 457.414 561.385 C 458.019 567.259, 457.984 570.804, 457.309 571.878 C 455.701 574.436, 447.186 577.143, 439 577.699 C 429.381 578.352, 421.350 575.637, 417.337 570.375 C 415.321 567.732, 414.065 566.970, 412.101 567.199 C 410.533 567.382, 409.379 568.225, 409.167 569.345 C 408.655 572.044, 417.912 580.594, 422.993 582.116 C 426.599 583.196, 427.636 584.240, 431.243 590.415 C 439.689 604.878, 449.067 611.914, 461.035 612.770 C 466.830 613.185, 468.587 612.879, 473.635 610.574 C 485.289 605.252, 491.458 595.783, 492.663 581.369 C 493.310 573.634, 493.395 573.434, 497.702 569.628 C 504.455 563.661, 508.125 555.029, 504.500 553.638 C 502.144 552.734, 500.224 553.920, 499.176 556.924 C 495.770 566.695, 478.783 575.171, 468.516 572.222 C 465.286 571.294, 465.015 570.484, 463.521 557.322 L 462.820 551.144 466.025 549.487 C 470.295 547.279, 477.806 540.276, 479.577 536.852 C 480.360 535.338, 481 532.007, 481 529.450 C 481 525.524, 480.487 524.287, 477.703 521.503 C 475.890 519.690, 472.627 517.712, 470.453 517.109 C 465.950 515.858, 454.503 515.823, 448.355 517.039" fill="none" fill-rule="evenodd" stroke="#111" stroke-width="2.5" stroke-linejoin="round" stroke-linecap="round"/>
  <path d="M 662.183 527.843 C 652.658 531.238, 646.985 538.729, 647.015 547.872 C 647.038 554.856, 647.730 555.323, 653.692 552.372 C 663.148 547.692, 670 548.166, 670 553.500 C 670 556.289, 668.985 557.084, 661.782 559.939 C 658.095 561.401, 654.633 563.759, 652.032 566.581 C 648.632 570.270, 648.001 571.625, 648.004 575.228 C 648.009 580.981, 651.271 586.408, 654.300 585.700 C 665.062 583.188, 667.922 582.764, 670.221 583.341 C 673.700 584.214, 674.819 587.675, 672.355 589.939 C 671.335 590.876, 667.828 592.448, 664.563 593.431 C 657.219 595.644, 653 599.539, 653 604.107 C 653 611.282, 659.078 618.854, 667.315 621.944 C 668.863 622.525, 673.415 623, 677.431 623 C 683.799 623, 685.641 622.545, 691.848 619.440 C 703.521 613.600, 710.998 602.102, 713.755 585.750 C 715.123 577.632, 715.123 575.731, 713.754 567.354 C 710.921 550.019, 701.418 535.287, 689.218 529.318 C 681.839 525.708, 669.986 525.061, 662.183 527.843" fill="none" fill-rule="evenodd" stroke="#111" stroke-width="2.5" stroke-linejoin="round" stroke-linecap="round"/>
  <path d="M 636 561.795 C 636 564.823, 616.810 582.656, 604 591.532 C 600.975 593.628, 594.598 598.915, 589.829 603.281 C 565.664 625.402, 537.387 640.197, 500.769 649.880 C 474.154 656.917, 455.069 659.344, 426 659.387 C 394.513 659.434, 373.431 656.217, 344.508 646.952 L 334.781 643.836 331.141 646.420 C 316.660 656.695, 293.602 681.075, 274.316 706.500 C 238.471 753.756, 218.275 802.220, 222.860 829.981 C 224.695 841.093, 228.638 847.475, 237.304 853.359 C 240.162 855.299, 244.167 857.184, 246.205 857.546 C 250.474 858.306, 250.457 858.343, 251.484 846.500 C 252.190 838.359, 254.201 829.767, 257.219 822 C 265.533 800.598, 286.880 783.196, 310 778.973 C 313.575 778.320, 317.175 777.484, 318 777.114 C 319.793 776.311, 327.232 761.641, 343.664 726.508 C 353.688 705.077, 356.273 700.338, 358.355 699.578 C 361.521 698.422, 364 700.235, 364 703.705 C 364 706.477, 362.586 709.832, 345.793 746.906 C 330.235 781.253, 331.370 777.660, 335.813 778.489 C 342.677 779.769, 355.082 785.167, 362.383 790.050 C 374.871 798.403, 390.830 817.076, 397.571 831.223 C 398.711 833.616, 401.336 836.258, 404.922 838.622 C 412.838 843.840, 423.803 855.394, 428.571 863.543 C 439.083 881.507, 443.359 900.627, 437.224 902.231 C 432.912 903.359, 431.419 901.525, 429.749 893.051 C 427.944 883.885, 424.072 874.926, 418.198 866.322 C 414.490 860.892, 409 854.884, 409 856.258 C 409 856.592, 410.330 862.022, 411.955 868.326 C 417.153 888.486, 418.081 909.522, 414.532 926.750 C 413.824 930.188, 413.398 933, 413.585 933 C 413.773 933, 416.305 932.052, 419.213 930.893 C 424.310 928.862, 424.984 928.833, 438 930.095 C 471.048 933.300, 506.236 930.718, 540.339 922.585 C 546.300 921.163, 551.968 920, 552.934 920 C 553.900 920, 560.048 922.733, 566.595 926.074 C 578.428 932.111, 601.212 942.096, 601.815 941.509 C 601.989 941.341, 600.779 938.524, 599.126 935.250 C 584.807 906.885, 585.014 860.463, 599.615 825.634 L 602.913 817.767 599.717 818.407 C 592.348 819.880, 578.105 830.882, 570.846 840.708 C 562.270 852.317, 555 872.023, 555 883.660 C 555 891.464, 550.563 895.420, 546.437 891.294 C 542.523 887.380, 546.988 861.892, 554.031 847.939 C 564.028 828.136, 580.142 812.894, 596.750 807.534 C 601.709 805.933, 602 805.653, 602 802.470 C 602 796.754, 598.112 778.584, 593.485 762.676 C 584.711 732.509, 573.984 707.734, 556.346 676.902 C 551.284 668.052, 550.825 664.492, 554.529 662.805 C 558.693 660.908, 561.491 664.127, 571.528 682.365 C 576.620 691.616, 581.171 699.567, 581.643 700.032 C 583.617 701.982, 609.026 690.664, 627.967 679.397 C 635.607 674.852, 652.778 662.441, 659.829 656.367 L 663.157 653.500 660.973 644.500 C 657.745 631.202, 657.858 631.439, 653.029 627.806 C 643.570 620.690, 639.735 610.991, 641.846 599.530 C 642.975 593.403, 642.920 592.971, 640.565 589.500 C 637.707 585.290, 636.563 579.169, 637.356 572.328 C 638.494 562.500, 638.486 561.690, 637.250 561.264 C 636.563 561.027, 636 561.266, 636 561.795" fill="none" fill-rule="evenodd" stroke="#111" stroke-width="2.5" stroke-linejoin="round" stroke-linecap="round"/>
  <path d="M 463.119 590.978 C 455.193 592.209, 449.804 593.885, 447.020 595.985 C 444.553 597.846, 444.552 597.848, 446.526 600.030 C 449.418 603.228, 455.472 606.032, 460.865 606.670 C 464.457 607.096, 466.843 606.693, 470.788 604.996 C 475.459 602.987, 483 596.293, 483 594.158 C 483 591.378, 471.933 589.608, 463.119 590.978" fill="none" fill-rule="evenodd" stroke="#111" stroke-width="2.5" stroke-linejoin="round" stroke-linecap="round"/>
  <path d="M 671.015 637.750 C 671.024 639.263, 671.487 641.175, 672.044 642 C 672.892 643.253, 673.546 642.931, 676.029 640.038 C 677.663 638.134, 679 636.221, 679 635.788 C 679 635.354, 677.200 635, 675 635 C 671.299 635, 671.001 635.206, 671.015 637.750" fill="none" fill-rule="evenodd" stroke="#111" stroke-width="2.5" stroke-linejoin="round" stroke-linecap="round"/>
  <path d="M 658 786.910 C 631.847 790.640, 611.650 815.478, 602.540 855.112 C 600.141 865.548, 598.826 888.613, 600.020 899.302 C 603.587 931.244, 617.989 950.778, 642.176 956.480 C 665.274 961.925, 689.565 953.911, 702.689 936.515 C 724.656 907.398, 730.403 848.705, 714.322 817.700 C 709.289 807.996, 697.863 796.545, 689 792.324 C 679.317 787.712, 667.206 785.597, 658 786.910" fill="none" fill-rule="evenodd" stroke="#111" stroke-width="2.5" stroke-linejoin="round" stroke-linecap="round"/>
  <path d="M 309.643 791.584 C 289.576 796.442, 273.333 811.736, 266.562 832.148 C 262.874 843.267, 261.952 863.380, 264.439 878.498 C 270.182 913.419, 290.278 945.661, 313.903 957.859 C 335.861 969.196, 365.696 968.877, 382.067 957.130 C 391.235 950.553, 397.576 940.753, 401.565 927 C 404.485 916.930, 404.279 892.142, 401.154 877.533 C 393.361 841.115, 372.713 809.009, 349.133 796.647 C 336.796 790.180, 322.837 788.391, 309.643 791.584" fill="none" fill-rule="evenodd" stroke="#111" stroke-width="2.5" stroke-linejoin="round" stroke-linecap="round"/>
  <path d="M 666.615 820.088 C 662.775 823.109, 661 827.190, 661 833 C 661 842.091, 665.942 848, 673.546 848 C 677.079 848, 678.265 847.474, 680.373 844.969 C 686.754 837.386, 686.212 825.459, 679.238 819.973 C 675.897 817.345, 670.035 817.398, 666.615 820.088" fill="none" fill-rule="evenodd" stroke="#111" stroke-width="2.5" stroke-linejoin="round" stroke-linecap="round"/>
  <path d="M 316 821.641 C 307.686 824.439, 305.234 830.356, 308.230 840.384 C 309.890 845.940, 316.688 852.663, 321.572 853.579 C 329.371 855.043, 335.892 848.037, 334.565 839.622 C 333.626 833.672, 330.275 827.306, 326.648 824.582 C 323.353 822.109, 318.552 820.783, 316 821.641" fill="none" fill-rule="evenodd" stroke="#111" stroke-width="2.5" stroke-linejoin="round" stroke-linecap="round"/>
  <path d="M 669.198 826.262 C 667.067 828.829, 667.304 837.161, 669.571 839.429 C 671.744 841.601, 675.712 841.406, 676.965 839.066 C 678.565 836.076, 678.234 828.377, 676.429 826.571 C 674.539 824.682, 670.647 824.515, 669.198 826.262" fill="none" fill-rule="evenodd" stroke="#111" stroke-width="2.5" stroke-linejoin="round" stroke-linecap="round"/>
  <path d="M 314.456 830.427 C 312.470 833.459, 313.640 838.528, 317.492 843.578 C 319.559 846.288, 320.807 847, 323.492 847 C 327.510 847, 328.108 846.247, 328.179 841.095 C 328.243 836.450, 325.765 831.883, 321.960 829.636 C 318.156 827.388, 316.320 827.582, 314.456 830.427" fill="none" fill-rule="evenodd" stroke="#111" stroke-width="2.5" stroke-linejoin="round" stroke-linecap="round"/>
  <path d="M 351.082 832.373 C 341.298 835.622, 340.438 849.701, 349.470 858.733 C 353.110 862.373, 354.341 863, 357.853 863 C 364.022 863, 368.102 858.995, 368.745 852.307 C 369.544 843.988, 365.575 835.187, 360.108 833.156 C 355.137 831.310, 354.459 831.251, 351.082 832.373" fill="none" fill-rule="evenodd" stroke="#111" stroke-width="2.5" stroke-linejoin="round" stroke-linecap="round"/>
  <path d="M 699.418 834.969 C 696.078 836.320, 692.242 841.610, 691.525 845.853 C 688.812 861.909, 706.049 870.579, 713.149 856.729 C 719.431 844.474, 710.583 830.452, 699.418 834.969" fill="none" fill-rule="evenodd" stroke="#111" stroke-width="2.5" stroke-linejoin="round" stroke-linecap="round"/>
  <path d="M 636.325 837.459 C 630.614 839.944, 627.908 847.232, 629.922 854.710 C 632.256 863.378, 639.308 867.570, 646.499 864.565 C 650.884 862.733, 653.003 858.236, 652.993 850.782 C 652.986 844.862, 650.963 840.933, 646.359 837.898 C 642.993 835.679, 640.654 835.576, 636.325 837.459" fill="none" fill-rule="evenodd" stroke="#111" stroke-width="2.5" stroke-linejoin="round" stroke-linecap="round"/>
  <path d="M 353 838.797 C 350.800 839.535, 350.032 841.090, 350.015 844.849 C 349.982 852.125, 355.598 858.356, 360.045 855.976 C 366.722 852.403, 360.158 836.399, 353 838.797" fill="none" fill-rule="evenodd" stroke="#111" stroke-width="2.5" stroke-linejoin="round" stroke-linecap="round"/>
  <path d="M 282.378 841.437 C 275.477 844.441, 273.978 852.550, 278.608 861.841 C 284.920 874.507, 299.827 875.783, 303.018 863.932 C 305.203 855.818, 300.549 845.896, 292.798 842.144 C 287.674 839.664, 286.617 839.592, 282.378 841.437" fill="none" fill-rule="evenodd" stroke="#111" stroke-width="2.5" stroke-linejoin="round" stroke-linecap="round"/>
  <path d="M 699.462 843.418 C 698.464 844.940, 697.993 847.431, 698.189 850.136 C 698.444 853.657, 699.009 854.714, 701.308 855.968 C 704.002 857.437, 704.217 857.385, 706.558 854.694 C 709.391 851.439, 709.769 846.543, 707.443 843.223 C 705.362 840.251, 701.475 840.346, 699.462 843.418" fill="none" fill-rule="evenodd" stroke="#111" stroke-width="2.5" stroke-linejoin="round" stroke-linecap="round"/>
  <path d="M 637.200 844.200 C 635.175 846.225, 635.705 854.705, 638 857 C 640.555 859.555, 644.614 859.589, 645.965 857.066 C 649.803 849.895, 642.389 839.011, 637.200 844.200" fill="none" fill-rule="evenodd" stroke="#111" stroke-width="2.5" stroke-linejoin="round" stroke-linecap="round"/>
  <path d="M 283.571 848.571 C 280.070 852.073, 283.694 861.933, 289.501 864.702 C 294.740 867.200, 296.514 865.745, 296.451 859.001 C 296.406 854.262, 296.046 853.430, 292.715 850.378 C 288.683 846.683, 285.992 846.151, 283.571 848.571" fill="none" fill-rule="evenodd" stroke="#111" stroke-width="2.5" stroke-linejoin="round" stroke-linecap="round"/>
  <path d="M 670.223 866.128 C 657.045 868.522, 643.594 882.787, 640.060 898.115 C 638.520 904.794, 638.789 917.025, 640.592 922.316 C 642.793 928.776, 649.740 936.212, 656.150 938.969 C 666.501 943.422, 680.466 939.996, 690.031 930.657 C 698.880 922.017, 702.929 911.938, 702.976 898.432 C 703.008 889.123, 700.857 882.263, 695.964 876.074 C 689.563 867.976, 680.123 864.329, 670.223 866.128" fill="none" fill-rule="evenodd" stroke="#111" stroke-width="2.5" stroke-linejoin="round" stroke-linecap="round"/>
  <path d="M 320.324 869.638 C 314.294 871.774, 307.543 878.158, 304.491 884.610 C 297.322 899.765, 301.743 919.743, 315.258 933.258 C 323.721 941.721, 330.113 944.507, 341 944.476 C 348.514 944.455, 350.134 944.107, 354.964 941.476 C 361.048 938.163, 366.376 931.907, 367.954 926.225 C 369.888 919.263, 369.203 906.195, 366.504 898.545 C 358.516 875.906, 338.317 863.262, 320.324 869.638" fill="none" fill-rule="evenodd" stroke="#111" stroke-width="2.5" stroke-linejoin="round" stroke-linecap="round"/>
  <path d="M 668.948 873.156 C 666.994 873.678, 663.169 875.785, 660.448 877.837 C 645.315 889.252, 640.637 916.584, 651.803 928.339 C 655.790 932.537, 659.272 934, 665.272 934 C 673.596 934, 679.711 931.420, 685.788 925.342 C 693.516 917.614, 696.435 910.691, 696.471 900 C 696.508 889.270, 694.448 883.590, 688.552 878.155 C 682.479 872.557, 676.702 871.084, 668.948 873.156" fill="none" fill-rule="evenodd" stroke="#111" stroke-width="2.5" stroke-linejoin="round" stroke-linecap="round"/>
  <path d="M 325.500 874.905 C 313.449 877.961, 307.236 888.188, 308.210 903.366 C 309.718 926.873, 333.289 944.816, 351.242 936.125 C 366.257 928.856, 366.584 904.555, 351.915 886.131 C 345.649 878.261, 333.173 872.959, 325.500 874.905" fill="none" fill-rule="evenodd" stroke="#111" stroke-width="2.5" stroke-linejoin="round" stroke-linecap="round"/>
</g>
<g id="toolbar">
  <rect x="12" y="1038" width="1000" height="150" rx="18" fill="#1a1a2e" stroke="#0f3460" stroke-width="2"/>
  <rect class="swatch active" x="22"  y="1050" width="44" height="44" rx="8" fill="#e94560" onclick="setColor('#e94560',this)"/>
  <rect class="swatch" x="72"  y="1050" width="44" height="44" rx="8" fill="#ff7675" onclick="setColor('#ff7675',this)"/>
  <rect class="swatch" x="122" y="1050" width="44" height="44" rx="8" fill="#f5a623" onclick="setColor('#f5a623',this)"/>
  <rect class="swatch" x="172" y="1050" width="44" height="44" rx="8" fill="#fdcb6e" onclick="setColor('#fdcb6e',this)"/>
  <rect class="swatch" x="222" y="1050" width="44" height="44" rx="8" fill="#f7e94b" onclick="setColor('#f7e94b',this)"/>
  <rect class="swatch" x="272" y="1050" width="44" height="44" rx="8" fill="#a8e063" onclick="setColor('#a8e063',this)"/>
  <rect class="swatch" x="322" y="1050" width="44" height="44" rx="8" fill="#2ecc71" onclick="setColor('#2ecc71',this)"/>
  <rect class="swatch" x="372" y="1050" width="44" height="44" rx="8" fill="#1abc9c" onclick="setColor('#1abc9c',this)"/>
  <rect class="swatch" x="422" y="1050" width="44" height="44" rx="8" fill="#74b9ff" onclick="setColor('#74b9ff',this)"/>
  <rect class="swatch" x="472" y="1050" width="44" height="44" rx="8" fill="#0984e3" onclick="setColor('#0984e3',this)"/>
  <rect class="swatch" x="522" y="1050" width="44" height="44" rx="8" fill="#6c5ce7" onclick="setColor('#6c5ce7',this)"/>
  <rect class="swatch" x="572" y="1050" width="44" height="44" rx="8" fill="#a29bfe" onclick="setColor('#a29bfe',this)"/>
  <rect class="swatch" x="622" y="1050" width="44" height="44" rx="8" fill="#fd79a8" onclick="setColor('#fd79a8',this)"/>
  <rect class="swatch" x="672" y="1050" width="44" height="44" rx="8" fill="#e84393" onclick="setColor('#e84393',this)"/>
  <rect class="swatch" x="722" y="1050" width="44" height="44" rx="8" fill="#b8621f" onclick="setColor('#b8621f',this)"/>
  <rect class="swatch" x="772" y="1050" width="44" height="44" rx="8" fill="#f0c080" onclick="setColor('#f0c080',this)"/>
  <rect class="swatch" x="822" y="1050" width="44" height="44" rx="8" fill="#b2bec3" onclick="setColor('#b2bec3',this)"/>
  <rect class="swatch" x="872" y="1050" width="44" height="44" rx="8" fill="#636e72" onclick="setColor('#636e72',this)"/>
  <rect class="swatch" x="922" y="1050" width="44" height="44" rx="8" fill="#2d3436" onclick="setColor('#2d3436',this)"/>
  <rect class="swatch" x="972" y="1050" width="44" height="44" rx="8" fill="#ffffff" stroke="#888" stroke-width="1.5" onclick="setColor('#ffffff',this)"/>
  <rect class="swatch" x="22"  y="1102" width="44" height="44" rx="8" fill="#c0392b" onclick="setColor('#c0392b',this)"/>
  <rect class="swatch" x="72"  y="1102" width="44" height="44" rx="8" fill="#fab1a0" onclick="setColor('#fab1a0',this)"/>
  <rect class="swatch" x="122" y="1102" width="44" height="44" rx="8" fill="#e17055" onclick="setColor('#e17055',this)"/>
  <rect class="swatch" x="172" y="1102" width="44" height="44" rx="8" fill="#ffeaa7" onclick="setColor('#ffeaa7',this)"/>
  <rect class="swatch" x="222" y="1102" width="44" height="44" rx="8" fill="#55efc4" onclick="setColor('#55efc4',this)"/>
  <rect class="swatch" x="272" y="1102" width="44" height="44" rx="8" fill="#00b894" onclick="setColor('#00b894',this)"/>
  <rect class="swatch" x="322" y="1102" width="44" height="44" rx="8" fill="#81ecec" onclick="setColor('#81ecec',this)"/>
  <rect class="swatch" x="372" y="1102" width="44" height="44" rx="8" fill="#00cec9" onclick="setColor('#00cec9',this)"/>
  <rect class="swatch" x="422" y="1102" width="44" height="44" rx="8" fill="#0652DD" onclick="setColor('#0652DD',this)"/>
  <rect class="swatch" x="472" y="1102" width="44" height="44" rx="8" fill="#1289A7" onclick="setColor('#1289A7',this)"/>
  <rect class="swatch" x="522" y="1102" width="44" height="44" rx="8" fill="#d6a2e8" onclick="setColor('#d6a2e8',this)"/>
  <rect class="swatch" x="572" y="1102" width="44" height="44" rx="8" fill="#6d214f" onclick="setColor('#6d214f',this)"/>
  <rect class="swatch" x="622" y="1102" width="44" height="44" rx="8" fill="#ff6b81" onclick="setColor('#ff6b81',this)"/>
  <rect class="swatch" x="672" y="1102" width="44" height="44" rx="8" fill="#6d4c41" onclick="setColor('#6d4c41',this)"/>
  <rect class="swatch" x="722" y="1102" width="44" height="44" rx="8" fill="#f5cba7" onclick="setColor('#f5cba7',this)"/>
  <rect class="swatch" x="772" y="1102" width="44" height="44" rx="8" fill="#55713f" onclick="setColor('#55713f',this)"/>
  <rect class="swatch" x="822" y="1102" width="44" height="44" rx="8" fill="#27ae60" onclick="setColor('#27ae60',this)"/>
  <rect x="872" y="1102" width="58" height="20" rx="7" fill="#0f3460" stroke="#555" stroke-width="1.5" onclick="undo()" style="cursor:pointer"/>
  <text x="901" y="1116" font-family="sans-serif" font-size="11" fill="#eee" text-anchor="middle" pointer-events="none">&#8617; تراجع</text>
  <rect x="872" y="1126" width="58" height="20" rx="7" fill="#0f3460" stroke="#555" stroke-width="1.5" onclick="clearAll()" style="cursor:pointer"/>
  <text x="901" y="1140" font-family="sans-serif" font-size="11" fill="#eee" text-anchor="middle" pointer-events="none">مسح كل</text>
  <rect id="eraserBtn" x="936" y="1102" width="76" height="44" rx="8" fill="#0f3460" stroke="#444" stroke-width="1.5" onclick="toggleEraser()" style="cursor:pointer"/>
  <text x="974" y="1129" font-family="sans-serif" font-size="13" fill="#eee" text-anchor="middle" pointer-events="none">&#129529; ممحاة</text>
  <text x="82" y="1045" font-family="sans-serif" font-size="11" fill="#aaa" text-anchor="middle">شفافية</text>
  <rect x="22" y="1030" width="120" height="12" rx="6" fill="#2d3436"/>
  <rect id="opBar" x="22" y="1030" width="96" height="12" rx="6" fill="#e94560"/>
  <rect x="22" y="1028" width="120" height="16" rx="6" fill="transparent"
    onmousedown="startSlide(event)" onmousemove="slideMove(event)" onmouseup="endSlide()"
    ontouchstart="startSlide(event)" ontouchmove="slideMove(event)" ontouchend="endSlide()"/>
  <text id="opLabel" x="155" y="1040" font-family="sans-serif" font-size="11" fill="#ccc">80%</text>
</g>
<script type="text/javascript"><![CDATA[

  var activeColor = '#e94560';
  var opacity = 0.8;
  var eraseMode = false;
  var history = [];
  var sliding = false;

  function setColor(c, el) {
    activeColor = c; eraseMode = false;
    document.querySelectorAll('.swatch').forEach(function(s){ s.classList.remove('active'); });
    el.classList.add('active');
    document.getElementById('eraserBtn').setAttribute('fill','#0f3460');
    document.getElementById('eraserBtn').setAttribute('stroke','#444');
  }
  function toggleEraser() {
    eraseMode = !eraseMode;
    var el = document.getElementById('eraserBtn');
    el.setAttribute('fill', eraseMode ? '#fff0f0' : '#0f3460');
    el.setAttribute('stroke', eraseMode ? '#e94560' : '#444');
  }
  function fillRegion(el) {
    history.push({ el:el, fill:el.getAttribute('fill'), op:el.getAttribute('fill-opacity') });
    if (eraseMode) {
      el.setAttribute('fill','white'); el.setAttribute('fill-opacity','1');
    } else {
      el.setAttribute('fill', activeColor); el.setAttribute('fill-opacity', opacity);
    }
  }
  function undo() {
    if (!history.length) return;
    var last = history.pop();
    last.el.setAttribute('fill', last.fill || 'white');
    last.el.setAttribute('fill-opacity', last.op || '1');
  }
  function clearAll() {
    document.querySelectorAll('.region').forEach(function(r){
      r.setAttribute('fill','white'); r.setAttribute('fill-opacity','1');
    });
    history = [];
  }
  function startSlide(evt) { sliding = true; slideMove(evt); }
  function endSlide() { sliding = false; }
  function slideMove(evt) {
    if (!sliding) return;
    var svg = evt.target.ownerSVGElement;
    var pt = svg.createSVGPoint();
    pt.x = evt.clientX; pt.y = evt.clientY;
    var sp = pt.matrixTransform(svg.getScreenCTM().inverse());
    var pct = Math.max(0, Math.min(1, (sp.x - 22) / 120));
    opacity = pct;
    document.getElementById('opBar').setAttribute('width', Math.round(pct * 120));
    document.getElementById('opLabel').textContent = Math.round(pct * 100) + '%';
  }

]]></script>
</svg>