<svg xmlns="http://www.w3.org/2000/svg" width="1024" height="1084" viewBox="0 0 1024 1084">
<defs>
  <style>
    .region { cursor:pointer; }
    .region:hover { opacity:0.7; }
    .swatch { cursor:pointer; stroke:transparent; stroke-width:3; }
    .swatch:hover { stroke:#fff; stroke-width:3; }
    .swatch.active { stroke:#fff; stroke-width:3.5; }
  </style>
</defs>

<rect width="1024" height="860" fill="white"/>

<!-- مناطق التلوين -->
<g id="colorRegions">
    <path id="antenna_left" class="region" d="M 373.464 140.824 C 365.652 142.806, 356.916 148.054, 351.881 153.788 C 350.118 155.796, 347.290 160.378, 345.596 163.970 C 342.766 169.970, 342.516 171.357, 342.508 181.052 C 342.500 191.245, 342.628 191.863, 346.266 199.223 C 362.815 232.709, 411.492 229.195, 423.607 193.640 C 424.477 191.088, 425.555 189, 426.004 189 C 427.553 189, 437.520 197.367, 444.224 204.295 C 452.423 212.768, 461.229 225.467, 467.250 237.500 C 472.269 247.532, 478.485 265.847, 479.467 273.500 C 479.820 276.250, 480.296 279.423, 480.523 280.550 C 480.887 282.351, 479.604 283.065, 469.972 286.420 C 458.556 290.396, 445.403 297.358, 434.826 305.022 C 428.386 309.688, 413.329 323.975, 408.538 329.965 L 405.767 333.430 403.633 330.860 C 402.460 329.446, 399.475 325.428, 397 321.931 C 394.525 318.434, 388.161 310.382, 382.858 304.036 C 340.320 253.140, 287.030 216.332, 231.543 199.523 C 215.843 194.767, 204.531 192.962, 186.500 192.337 C 161.669 191.475, 142.584 194.703, 122.110 203.227 C 105.671 210.070, 85.844 226.399, 76.112 241.111 C 66.975 254.921, 59.543 273.654, 56.915 289.500 C 55.235 299.632, 55.480 322.801, 57.382 333.719 C 61.805 359.093, 74.338 384.791, 94.787 410.410 L 99.074 415.780 97.910 422.640 C 96.163 432.936, 96.378 456.873, 98.314 467.628 C 100.313 478.728, 105.802 495.799, 110.540 505.650 C 123.192 531.954, 148.488 557.044, 177.260 571.826 C 194.672 580.772, 215.805 587.710, 235.500 590.945 L 245.500 592.588 237.500 597.952 C 204.274 620.227, 183.057 646.389, 174.422 675.728 C 171.194 686.697, 170.093 705.076, 171.967 716.697 C 175.611 739.287, 186.758 762.451, 202.879 780.932 C 225.829 807.245, 264.276 821.776, 300.945 817.997 C 335.370 814.450, 363.936 800.282, 390.253 773.703 C 407.113 756.675, 418.911 740.115, 431.493 715.814 L 438.754 701.790 442.257 712.657 C 449.852 736.217, 457.965 752.532, 468.973 766.385 C 485.781 787.536, 505.933 795.993, 525.567 790.133 C 547.561 783.570, 568.883 756.813, 581.457 720 C 583.429 714.225, 585.293 708.825, 585.598 708 C 585.935 707.091, 588.688 711.533, 592.586 719.276 C 622.305 778.298, 663.783 814.065, 715.230 825.031 C 778.649 838.549, 836.521 802.656, 852.784 739.717 C 855.055 730.928, 855.428 727.403, 855.454 714.500 C 855.487 698.022, 854.110 689.919, 848.828 675.500 C 839.804 650.864, 819.895 626.162, 792.730 605.895 L 784.959 600.098 788.730 599.445 C 790.803 599.086, 798.125 597.719, 805 596.408 C 855.242 586.829, 894.583 560.381, 917.167 521 C 923.892 509.272, 930.631 489.510, 933.149 474.129 C 934.743 464.389, 934.718 440.798, 933.103 430.729 L 931.857 422.958 938.839 414.201 C 964.069 382.564, 977.568 342.929, 975.690 306 C 975.013 292.678, 973.987 287.077, 969.837 274.039 C 966.239 262.737, 964.451 259.040, 957.455 248.448 C 944.065 228.176, 922.486 213.687, 894.489 206.171 C 865.355 198.349, 842.042 198.292, 811.500 205.970 C 749.949 221.443, 683.170 269.114, 638 329.827 C 633.875 335.371, 630.275 339.907, 630 339.906 C 629.725 339.905, 627.700 337.362, 625.500 334.254 C 623.300 331.147, 617 324.078, 611.500 318.545 C 596.260 303.215, 578.761 292.324, 558.250 285.406 C 549.116 282.325, 547 281.248, 547 279.682 C 547 276.015, 553.888 257.187, 558.824 247.361 C 565.336 234.400, 573.201 223.501, 583.836 212.701 C 592.489 203.913, 601.878 195.985, 603.592 196.017 C 604.092 196.026, 605.582 198.533, 606.904 201.586 C 609.967 208.659, 618.760 217.639, 626.116 221.207 C 634.373 225.211, 642.982 226.313, 652.626 224.600 C 670.153 221.486, 682.375 209.330, 686.097 191.310 C 689.674 173.989, 679.730 154.448, 663.464 146.836 C 646.536 138.915, 628.488 141.808, 615.426 154.538 C 609.584 160.232, 606.668 165.338, 604.495 173.680 C 603.673 176.837, 602.437 179.744, 601.750 180.139 C 586.631 188.826, 565.405 210.690, 554.799 228.500 C 546.996 241.603, 539.891 258.768, 536.586 272.500 L 534.901 279.500 513.642 279.531 L 492.383 279.562 490.247 268.531 C 487.412 253.891, 484.120 244.165, 477.064 229.587 C 466.696 208.164, 452.674 191.172, 433.822 177.188 C 425.850 171.274, 424.181 169.547, 423.167 166.164 C 421.483 160.543, 414.051 151.117, 408.205 147.188 C 398.117 140.408, 384.750 137.959, 373.464 140.824" fill="none" fill-rule="evenodd" stroke="none" onclick="fillRegion(this)" />
    <path id="antenna_left_ball" class="region" d="M 378.132 150.102 C 368.385 151.962, 360.967 157.354, 355.432 166.601 C 352.767 171.055, 352.501 172.318, 352.509 180.500 C 352.517 188.391, 352.860 190.151, 355.293 194.784 C 361.206 206.043, 371.352 212.202, 384.089 212.263 C 395.909 212.319, 407.351 205.114, 412.654 194.274 C 416.528 186.356, 416.528 175.644, 412.654 167.726 C 409.704 161.695, 404.291 156.209, 398.249 153.127 C 394.855 151.395, 392.703 150.840, 384.500 149.577 C 383.400 149.407, 380.534 149.644, 378.132 150.102" fill="none" fill-rule="evenodd" stroke="none" onclick="fillRegion(this)" />
    <path id="antenna_right_ball" class="region" d="M 637.404 153.370 C 628.945 155.485, 620.489 162.317, 616.201 170.500 C 613.972 174.754, 613.581 176.768, 613.581 184 C 613.581 191.280, 613.968 193.244, 616.276 197.687 C 626.311 217.007, 650.479 221.468, 666.380 206.936 C 673.596 200.340, 676.379 193.964, 676.387 184 C 676.392 177.863, 675.894 175.464, 673.647 170.798 C 667.153 157.316, 651.575 149.825, 637.404 153.370" fill="none" fill-rule="evenodd" stroke="none" onclick="fillRegion(this)" />
    <path id="wing_top_left" class="region" d="M 166 205.639 C 164.625 205.841, 160.125 206.499, 156 207.102 C 146.839 208.441, 131.591 213.195, 123.500 217.237 C 96.356 230.794, 77.345 255.660, 70.910 286.020 C 68.135 299.113, 67.933 318.024, 70.417 332 C 74.779 356.539, 87.149 381.916, 105.022 402.990 C 113.024 412.426, 112.705 410.991, 110.038 425.500 C 108.560 433.545, 108.853 454.777, 110.586 465.074 C 118.854 514.227, 155.657 553.828, 209.560 571.572 C 233.567 579.475, 251.591 581.999, 284 581.997 C 316.910 581.995, 348.727 578.305, 417 566.569 C 431.575 564.064, 443.613 562.011, 443.750 562.007 C 444.552 561.985, 443.805 558.205, 442.800 557.200 C 441.901 556.301, 429.690 555.998, 394.050 555.991 C 312.988 555.977, 273.794 551.611, 240 538.832 C 192.633 520.920, 163.599 484.781, 163.810 444 C 163.864 433.720, 166.318 421.252, 170.038 412.368 C 171.336 409.267, 171.278 409.156, 164.222 401.368 C 144.077 379.131, 134.466 362.681, 130.584 343.792 C 128.646 334.361, 128.602 327.539, 130.426 318.937 C 134.695 298.797, 147.509 282.272, 165.318 273.938 C 187.706 263.462, 219.941 267.084, 256.256 284.158 C 299.914 304.684, 338.886 336.117, 372.145 377.628 L 381.318 389.076 384.700 377.311 C 386.560 370.840, 390.391 360.683, 393.213 354.739 L 398.345 343.931 393.994 337.716 C 373.923 309.045, 338.577 273.121, 310.500 252.858 C 301.600 246.435, 281.745 234.384, 272 229.490 C 237.206 212.017, 210.316 204.866, 180.500 205.156 C 173.900 205.220, 167.375 205.438, 166 205.639" fill="none" fill-rule="evenodd" stroke="none" onclick="fillRegion(this)" />
    <path id="wing_top_right" class="region" d="M 835.500 214.010 C 780.482 221, 714.910 259.783, 666.606 313.903 C 654.409 327.569, 639.345 346.230, 637.782 349.611 C 637.031 351.235, 637.491 353.311, 639.776 358.611 C 644.655 369.927, 645.948 373.972, 648.319 385.334 L 650.579 396.169 659.035 385.834 C 684.949 354.162, 713.930 328.360, 745.969 308.438 C 793.274 279.024, 835.620 269.236, 865.682 280.768 C 873.507 283.770, 884.390 291.454, 889.086 297.293 C 894.074 303.496, 899.351 314.220, 901.468 322.460 C 903.689 331.101, 903.480 347.803, 901.032 357.374 C 896.630 374.585, 885.388 393.227, 869.187 410.179 L 864.715 414.858 867.355 421.179 C 872.782 434.171, 874.755 448.481, 872.995 462.068 C 869.302 490.566, 854.445 513.920, 829.206 530.900 C 808.968 544.515, 778.334 553.695, 740.352 557.524 C 723.577 559.216, 662.229 559.971, 613.742 559.083 C 590.988 558.667, 590.983 558.667, 588.492 561.008 C 587.121 562.295, 586 563.650, 586 564.017 C 586 564.385, 590.388 565.480, 595.750 566.451 C 601.112 567.421, 608.200 568.809, 611.500 569.534 C 621.176 571.659, 655.924 577.706, 677 580.931 C 739.238 590.457, 773.491 590.987, 807.811 582.954 C 844.400 574.390, 876.829 554.344, 896.562 528.092 C 912.292 507.166, 920.645 483.522, 921.678 457 C 922.037 447.783, 921.790 439.221, 921 433.500 C 920.317 428.550, 919.546 422.876, 919.287 420.890 C 918.862 417.629, 919.368 416.665, 924.540 410.890 C 943.483 389.740, 957.296 360.692, 962.054 332 C 963.655 322.349, 963.679 300.225, 962.097 292.500 C 954.381 254.828, 933.721 231.943, 896.759 220.127 C 891.401 218.415, 883.076 216.307, 878.259 215.444 C 867.665 213.545, 845.111 212.789, 835.500 214.010" fill="none" fill-rule="evenodd" stroke="none" onclick="fillRegion(this)" />
    <path id="wing_top_left_mid" class="region" d="M 182.500 276.402 C 161.425 280.495, 144.898 295.757, 138.612 316.932 C 136.001 325.727, 136.433 340.459, 139.577 349.824 C 144.993 365.958, 154.542 380.453, 170.775 397.182 C 181.338 408.067, 181.055 407.051, 176.523 417.822 C 170.715 431.624, 169.568 448.831, 173.478 463.500 C 177.364 478.080, 188.402 495.658, 201.230 507.697 C 212.298 518.083, 231.013 528.621, 248.500 534.313 C 281.626 545.094, 308.954 548.017, 382.500 548.647 C 424.295 549.005, 433.229 548.851, 432 547.790 C 426.174 542.764, 396.021 520.997, 384.500 513.500 C 341.087 485.251, 295.805 464.584, 253.298 453.620 C 246.323 451.820, 240.450 449.850, 240.247 449.242 C 240.044 448.633, 240.743 447.673, 241.800 447.107 C 243.211 446.352, 246.858 446.729, 255.507 448.522 C 302.388 458.244, 356.875 484.185, 409.500 521.836 C 422.941 531.453, 438.788 543.833, 440.872 546.346 C 441.627 547.256, 443.655 548, 445.378 548 C 448.298 548, 448.672 547.577, 450.905 541.750 C 452.222 538.313, 455.034 531.959, 457.154 527.631 C 460.797 520.193, 460.944 519.535, 459.829 515.631 C 458.217 509.985, 457.788 509.556, 450.178 506.002 C 408.557 486.560, 381 448.323, 381 410.012 C 381 403.212, 380.667 401.866, 377.908 397.515 C 362.767 373.642, 331.353 341.268, 303.500 320.836 C 266.164 293.447, 228.008 276.797, 199.613 275.503 C 193.283 275.215, 186.882 275.551, 182.500 276.402" fill="none" fill-rule="evenodd" stroke="none" onclick="fillRegion(this)" />
    <path id="wing_top_right_mid" class="region" d="M 825.500 284.145 C 792.960 288.293, 750.454 309.981, 711.501 342.311 C 695.230 355.815, 672.055 380.325, 657.795 399.108 L 651.260 407.715 650.532 416.454 C 648.357 442.573, 639.933 461.625, 622.488 479.884 C 611.048 491.859, 588.966 506.563, 577.131 510.087 C 573.359 511.210, 572.499 512.003, 570.830 515.896 L 568.898 520.404 572.854 528.952 C 575.030 533.653, 577.864 540.538, 579.152 544.250 L 581.493 551 585.337 551 C 588.416 551, 590.208 550.134, 594.341 546.650 C 603.131 539.239, 623.981 523.698, 635.325 516.103 C 683.056 484.143, 729.175 463.944, 771.475 456.469 C 787.766 453.591, 794.522 453.312, 795.356 455.485 C 796.068 457.340, 793.826 458.558, 788 459.480 C 731.031 468.496, 671.068 496.470, 613 541.120 L 599.500 551.500 627 552.295 C 662.055 553.307, 718.647 552.382, 738.863 550.465 C 788.853 545.725, 821.016 532.938, 843.670 508.798 C 865.333 485.714, 872.269 449.405, 860.018 423.225 C 855.854 414.327, 856.045 412.345, 861.585 406.958 C 875.902 393.039, 888.205 373.915, 893.105 357.965 C 896.086 348.260, 896.335 331.544, 893.634 322.500 C 888.487 305.272, 875.800 291.798, 860.184 286.975 C 847.949 283.196, 838.802 282.450, 825.500 284.145" fill="none" fill-rule="evenodd" stroke="none" onclick="fillRegion(this)" />
    <path id="head" class="region" d="M 501.500 288.961 C 467.856 292.946, 435.405 311.859, 414.812 339.484 C 407.490 349.307, 398.927 366.450, 395.325 378.500 C 392.854 386.766, 392.630 388.968, 392.568 405.500 C 392.500 423.412, 392.516 423.546, 395.834 433 C 405.715 461.161, 428.776 484.928, 459.106 498.211 C 471.794 503.768, 488.575 508.599, 499.974 509.976 C 557.351 516.908, 616.889 486.878, 633.752 442.500 C 638.398 430.272, 639.426 423.975, 639.386 408 C 639.358 396.719, 638.883 391.605, 637.244 384.963 C 633.685 370.532, 627.185 355.881, 618.629 343 C 612.718 334.102, 596.199 317.333, 586.828 310.719 C 573.596 301.381, 556.293 294, 539.492 290.530 C 530.335 288.639, 510.970 287.839, 501.500 288.961" fill="none" fill-rule="evenodd" stroke="none" onclick="fillRegion(this)" />
    <path id="wing_top_left_in" class="region" d="M 221 319.652 C 219.625 319.930, 215.278 321.695, 211.340 323.573 C 183.326 336.936, 181.653 377.893, 208.416 395.190 C 217.291 400.927, 226.246 403.355, 236.329 402.761 C 248.583 402.038, 255.079 399.207, 263.009 391.130 C 271.502 382.481, 274.540 374.724, 274.420 362 C 274.193 337.998, 256.600 320.574, 231.500 319.492 C 227.100 319.302, 222.375 319.374, 221 319.652" fill="none" fill-rule="evenodd" stroke="none" onclick="fillRegion(this)" />
    <path id="eye_left_outer" class="region" d="M 794.773 327.555 C 777.046 331.852, 765.218 344.606, 761.938 362.962 C 758.730 380.908, 767.689 398.694, 783.775 406.314 C 790.181 409.349, 791.074 409.500, 802.593 409.500 C 814.656 409.500, 814.706 409.490, 822.314 405.628 C 831.731 400.847, 838.898 393.549, 843.299 384.259 C 846.297 377.929, 846.500 376.802, 846.500 366.500 C 846.500 356.353, 846.272 355.035, 843.558 349.500 C 834.733 331.499, 815.042 322.641, 794.773 327.555" fill="none" fill-rule="evenodd" stroke="none" onclick="fillRegion(this)" />
    <path id="wing_top_left_circle" class="region" d="M 219.332 328.793 C 205.951 333.568, 198 345.189, 198 359.973 C 198 369.340, 200.790 376.515, 207.131 383.452 C 224.773 402.756, 256.283 398.184, 265.075 375.045 C 267.730 368.058, 267.666 356.855, 264.929 349.541 C 262.185 342.207, 254.784 334.206, 247.337 330.523 C 239.668 326.732, 227.258 325.965, 219.332 328.793" fill="none" fill-rule="evenodd" stroke="none" onclick="fillRegion(this)" />
    <path id="wing_top_right_in" class="region" d="M 794.096 335.450 C 787.088 337.726, 779.404 343.643, 775.116 350.065 C 762.463 369.012, 770.486 393.954, 791.445 400.834 C 799.309 403.416, 804.740 403.562, 812.068 401.390 C 824.014 397.848, 831.325 391.756, 836.345 381.159 C 839.067 375.414, 839.500 373.402, 839.500 366.500 C 839.500 360.218, 839.016 357.517, 837.245 353.924 C 833.765 346.863, 828.754 341.681, 821.826 337.981 C 816.294 335.027, 814.433 334.566, 807 334.311 C 801.586 334.125, 796.901 334.538, 794.096 335.450" fill="none" fill-rule="evenodd" stroke="none" onclick="fillRegion(this)" />
    <path id="eye_left_white" class="region" d="M 443.219 369.578 C 429.961 376.185, 422.763 391.721, 426.395 405.895 C 429.903 419.590, 441.711 430, 453.735 430 C 461.362 430, 466.287 427.858, 472.174 421.979 C 476.996 417.163, 478.178 415.223, 480.052 409.053 C 487.992 382.914, 465.287 358.581, 443.219 369.578" fill="none" fill-rule="evenodd" stroke="none" onclick="fillRegion(this)" />
    <path id="eye_left_iris" class="region" d="M 568.909 369.495 C 562.648 371.503, 555.690 377.891, 552.369 384.677 C 548.464 392.659, 547.912 404.128, 551.034 412.407 C 553.623 419.272, 559.941 426.162, 566.291 429.045 C 579.125 434.872, 594.886 427.768, 601.890 413 C 604.027 408.494, 604.499 406.050, 604.499 399.479 C 604.500 392.427, 604.102 390.649, 601.205 384.765 C 594.693 371.536, 581.697 365.392, 568.909 369.495" fill="none" fill-rule="evenodd" stroke="none" onclick="fillRegion(this)" />
    <path id="wing_top_right_circle" class="region" d="M 481.975 426.530 C 480.965 427.747, 480.943 429.743, 481.867 436.280 C 484.823 457.198, 493.504 473.677, 504.327 478.916 C 509.829 481.580, 518.925 481.676, 524.500 479.129 C 529.409 476.887, 536.047 469.816, 539.324 463.340 C 543.527 455.032, 549.638 430.826, 548.368 427.516 C 547.303 424.741, 544.108 425.806, 542.589 429.441 C 537.674 441.205, 501.529 443.779, 489.649 433.212 C 488.590 432.270, 487.105 430.038, 486.349 428.250 C 484.821 424.640, 483.858 424.261, 481.975 426.530" fill="none" fill-rule="evenodd" stroke="none" onclick="fillRegion(this)" />
    <path id="mouth" class="region" d="M 513.764 453.996 C 509.431 455.300, 504.223 458.879, 501.892 462.151 C 500.025 464.773, 499.915 465.473, 501.038 467.571 C 504.225 473.526, 516.497 475.843, 523.137 471.745 C 531.648 466.491, 536.683 456.506, 532.066 454.035 C 529.806 452.826, 517.736 452.800, 513.764 453.996" fill="none" fill-rule="evenodd" stroke="none" onclick="fillRegion(this)" />
    <path id="body" class="region" d="M 473.266 517.250 C 468.212 523.702, 458.783 545.795, 454.583 561.023 L 451.969 570.500 454.735 572.747 C 458.720 575.986, 473.014 581.805, 483.756 584.562 C 511.862 591.776, 542.455 589.295, 567.207 577.795 L 576.238 573.599 575.697 568.550 C 574.480 557.198, 558.773 517, 555.554 517 C 554.817 517, 550.678 517.782, 546.357 518.737 C 534.030 521.462, 500.931 521.166, 487.343 518.210 C 475.543 515.643, 474.576 515.577, 473.266 517.250" fill="none" fill-rule="evenodd" stroke="none" onclick="fillRegion(this)" />
    <path id="wing_bot_left" class="region" d="M 418 575.583 C 355.199 588.425, 325.887 599.608, 297.500 621.554 C 273.390 640.194, 256.545 665.671, 253.551 688.026 C 252.712 694.291, 254.417 705.158, 257.124 710.790 C 260.563 717.948, 269.421 726.675, 277.257 730.625 C 298.727 741.450, 322.528 738.100, 349.004 720.527 C 376.475 702.294, 399.510 674.103, 419.298 634.500 C 429.197 614.686, 435.102 599.342, 438.138 585.542 C 439.712 578.385, 441 572.185, 441 571.765 C 441 570.800, 443.071 570.456, 418 575.583" fill="none" fill-rule="evenodd" stroke="none" onclick="fillRegion(this)" />
    <path id="wing_bot_right" class="region" d="M 588.329 575.136 C 588.672 576.436, 589.677 582.450, 590.563 588.500 C 593.018 605.263, 602.181 628.609, 616.106 653.584 C 628.437 675.700, 638.125 688.947, 653.931 705.307 C 680.437 732.743, 709.593 746.641, 733.002 743 C 748.933 740.521, 761.440 732.149, 767.181 720.121 C 769.850 714.528, 770.397 712.066, 770.792 703.882 C 771.193 695.538, 770.894 692.974, 768.579 684.901 C 759.489 653.212, 730.859 623.736, 689.500 603.483 C 669.150 593.518, 647.436 586.743, 603 576.491 C 596.675 575.032, 590.647 573.598, 589.604 573.305 C 588.021 572.860, 587.810 573.163, 588.329 575.136" fill="none" fill-rule="evenodd" stroke="none" onclick="fillRegion(this)" />
    <path id="body_stripe1" class="region" d="M 447.677 589.750 C 445.475 602.603, 444.215 614.627, 443.408 630.500 C 442.639 645.612, 442.034 644.450, 454 650.831 C 463.616 655.959, 476.431 660.422, 489.312 663.127 C 503.623 666.134, 527.246 666.125, 541.712 663.108 C 554.358 660.470, 566.304 656.150, 575.616 650.848 L 582.732 646.797 583.308 640.148 C 584.048 631.619, 582.700 609.865, 580.479 594.500 C 579.525 587.900, 578.595 582.331, 578.413 582.124 C 578.230 581.916, 573.884 583.588, 568.754 585.837 C 553.853 592.372, 541.293 595.052, 522.500 595.704 C 495.904 596.628, 477.983 593.054, 455.563 582.356 C 452.847 581.060, 450.338 580, 449.987 580 C 449.636 580, 448.596 584.388, 447.677 589.750" fill="none" fill-rule="evenodd" stroke="none" onclick="fillRegion(this)" />
    <path id="wing_bot_left_in" class="region" d="M 330.352 590.040 C 322.487 591.596, 290.113 594, 277.015 594 L 263.886 594 253.693 600.781 C 217.454 624.891, 198.823 646.204, 188.811 675 C 185.608 684.212, 185.508 684.985, 185.504 700.500 C 185.500 715.261, 185.717 717.181, 188.296 725.296 C 201.465 766.721, 228.276 792.467, 267.374 801.230 C 280.360 804.141, 301.116 804.301, 314 801.589 C 330.092 798.201, 349.272 789.566, 363.932 779.107 C 390.652 760.046, 411.615 733.100, 430.143 694 L 435.118 683.500 433.884 673 C 433.205 667.225, 432.616 654.064, 432.575 643.753 C 432.534 633.442, 432.410 625.004, 432.301 625.003 C 432.191 625.001, 428.418 632.219, 423.917 641.042 C 398.858 690.161, 367.233 723.484, 332.235 737.649 C 321.101 742.155, 312.592 743.961, 302.386 743.983 C 290.771 744.007, 284.714 742.618, 274.500 737.587 C 246.976 724.030, 238.650 696.684, 252.393 664.972 C 264.174 637.785, 290.163 613.371, 326.443 595.408 C 338.801 589.290, 339.585 588.213, 330.352 590.040" fill="none" fill-rule="evenodd" stroke="none" onclick="fillRegion(this)" />
    <path id="wing_bot_right_in" class="region" d="M 686.094 593.370 C 686.420 593.728, 690.889 596.065, 696.024 598.565 C 720.799 610.623, 745.534 630.854, 759.523 650.500 C 770.252 665.568, 775.951 679.152, 778.022 694.598 C 780.251 711.218, 775.829 725.180, 764.916 735.977 C 742.276 758.375, 704.887 755.410, 668.960 728.367 C 644.181 709.715, 621.245 680.295, 602.057 642.550 L 594.263 627.218 593.701 647.859 C 593.392 659.212, 592.419 673.225, 591.539 679 L 589.939 689.500 598.518 706.742 C 626.515 763.015, 664.006 797.191, 710.891 809.176 C 760.938 821.970, 809.017 801.245, 830.773 757.500 C 843.075 732.764, 845.334 707.033, 837.357 682.500 C 828.811 656.216, 810.377 633.349, 778.555 609.559 L 767.500 601.293 747 600.108 C 729.580 599.100, 696.457 595.280, 688 593.303 C 686.625 592.982, 685.767 593.012, 686.094 593.370" fill="none" fill-rule="evenodd" stroke="none" onclick="fillRegion(this)" />
    <path id="body_stripe2" class="region" d="M 444 655.394 C 444 658.523, 446.432 678.443, 447.554 684.500 C 449.165 693.203, 452.413 705.896, 454.134 710.218 C 455.608 713.919, 472.203 722.111, 485.500 725.701 C 494.760 728.202, 496.944 728.401, 515 728.398 C 532.002 728.395, 535.525 728.112, 542.500 726.192 C 550.115 724.095, 566.582 716.762, 570.192 713.860 C 572.476 712.023, 578.461 688.352, 580.966 671.245 C 582.062 663.755, 582.744 657.411, 582.480 657.147 C 582.217 656.883, 578.063 658.502, 573.251 660.744 C 554.985 669.253, 544.102 671.780, 522 672.641 C 494.525 673.712, 473.967 669.563, 452.043 658.522 C 445.176 655.063, 444 654.606, 444 655.394" fill="none" fill-rule="evenodd" stroke="none" onclick="fillRegion(this)" />
    <path id="body_stripe3" class="region" d="M 461.319 729.304 C 469.795 749.915, 485.547 769.066, 499.903 776.212 C 506.904 779.697, 519.388 779.489, 527.360 775.755 C 534.940 772.204, 547.508 760.030, 553.908 750.038 C 559.009 742.074, 566 728.761, 566 727.012 C 566 726.391, 564.490 726.612, 562.250 727.560 C 555.465 730.430, 543.952 733.948, 537.169 735.224 C 528.633 736.829, 501.457 736.846, 493 735.252 C 485.350 733.811, 469.637 728.838, 463.759 725.998 C 461.485 724.899, 459.515 724, 459.381 724 C 459.248 724, 460.120 726.387, 461.319 729.304" fill="none" fill-rule="evenodd" stroke="none" onclick="fillRegion(this)" />
</g>

<!-- الخطوط فوق المناطق -->
<g id="outlines" fill="none" stroke="#111111" stroke-width="3" stroke-linejoin="round" stroke-linecap="round" pointer-events="none">
    <path d="M 373.464 140.824 C 365.652 142.806, 356.916 148.054, 351.881 153.788 C 350.118 155.796, 347.290 160.378, 345.596 163.970 C 342.766 169.970, 342.516 171.357, 342.508 181.052 C 342.500 191.245, 342.628 191.863, 346.266 199.223 C 362.815 232.709, 411.492 229.195, 423.607 193.640 C 424.477 191.088, 425.555 189, 426.004 189 C 427.553 189, 437.520 197.367, 444.224 204.295 C 452.423 212.768, 461.229 225.467, 467.250 237.500 C 472.269 247.532, 478.485 265.847, 479.467 273.500 C 479.820 276.250, 480.296 279.423, 480.523 280.550 C 480.887 282.351, 479.604 283.065, 469.972 286.420 C 458.556 290.396, 445.403 297.358, 434.826 305.022 C 428.386 309.688, 413.329 323.975, 408.538 329.965 L 405.767 333.430 403.633 330.860 C 402.460 329.446, 399.475 325.428, 397 321.931 C 394.525 318.434, 388.161 310.382, 382.858 304.036 C 340.320 253.140, 287.030 216.332, 231.543 199.523 C 215.843 194.767, 204.531 192.962, 186.500 192.337 C 161.669 191.475, 142.584 194.703, 122.110 203.227 C 105.671 210.070, 85.844 226.399, 76.112 241.111 C 66.975 254.921, 59.543 273.654, 56.915 289.500 C 55.235 299.632, 55.480 322.801, 57.382 333.719 C 61.805 359.093, 74.338 384.791, 94.787 410.410 L 99.074 415.780 97.910 422.640 C 96.163 432.936, 96.378 456.873, 98.314 467.628 C 100.313 478.728, 105.802 495.799, 110.540 505.650 C 123.192 531.954, 148.488 557.044, 177.260 571.826 C 194.672 580.772, 215.805 587.710, 235.500 590.945 L 245.500 592.588 237.500 597.952 C 204.274 620.227, 183.057 646.389, 174.422 675.728 C 171.194 686.697, 170.093 705.076, 171.967 716.697 C 175.611 739.287, 186.758 762.451, 202.879 780.932 C 225.829 807.245, 264.276 821.776, 300.945 817.997 C 335.370 814.450, 363.936 800.282, 390.253 773.703 C 407.113 756.675, 418.911 740.115, 431.493 715.814 L 438.754 701.790 442.257 712.657 C 449.852 736.217, 457.965 752.532, 468.973 766.385 C 485.781 787.536, 505.933 795.993, 525.567 790.133 C 547.561 783.570, 568.883 756.813, 581.457 720 C 583.429 714.225, 585.293 708.825, 585.598 708 C 585.935 707.091, 588.688 711.533, 592.586 719.276 C 622.305 778.298, 663.783 814.065, 715.230 825.031 C 778.649 838.549, 836.521 802.656, 852.784 739.717 C 855.055 730.928, 855.428 727.403, 855.454 714.500 C 855.487 698.022, 854.110 689.919, 848.828 675.500 C 839.804 650.864, 819.895 626.162, 792.730 605.895 L 784.959 600.098 788.730 599.445 C 790.803 599.086, 798.125 597.719, 805 596.408 C 855.242 586.829, 894.583 560.381, 917.167 521 C 923.892 509.272, 930.631 489.510, 933.149 474.129 C 934.743 464.389, 934.718 440.798, 933.103 430.729 L 931.857 422.958 938.839 414.201 C 964.069 382.564, 977.568 342.929, 975.690 306 C 975.013 292.678, 973.987 287.077, 969.837 274.039 C 966.239 262.737, 964.451 259.040, 957.455 248.448 C 944.065 228.176, 922.486 213.687, 894.489 206.171 C 865.355 198.349, 842.042 198.292, 811.500 205.970 C 749.949 221.443, 683.170 269.114, 638 329.827 C 633.875 335.371, 630.275 339.907, 630 339.906 C 629.725 339.905, 627.700 337.362, 625.500 334.254 C 623.300 331.147, 617 324.078, 611.500 318.545 C 596.260 303.215, 578.761 292.324, 558.250 285.406 C 549.116 282.325, 547 281.248, 547 279.682 C 547 276.015, 553.888 257.187, 558.824 247.361 C 565.336 234.400, 573.201 223.501, 583.836 212.701 C 592.489 203.913, 601.878 195.985, 603.592 196.017 C 604.092 196.026, 605.582 198.533, 606.904 201.586 C 609.967 208.659, 618.760 217.639, 626.116 221.207 C 634.373 225.211, 642.982 226.313, 652.626 224.600 C 670.153 221.486, 682.375 209.330, 686.097 191.310 C 689.674 173.989, 679.730 154.448, 663.464 146.836 C 646.536 138.915, 628.488 141.808, 615.426 154.538 C 609.584 160.232, 606.668 165.338, 604.495 173.680 C 603.673 176.837, 602.437 179.744, 601.750 180.139 C 586.631 188.826, 565.405 210.690, 554.799 228.500 C 546.996 241.603, 539.891 258.768, 536.586 272.500 L 534.901 279.500 513.642 279.531 L 492.383 279.562 490.247 268.531 C 487.412 253.891, 484.120 244.165, 477.064 229.587 C 466.696 208.164, 452.674 191.172, 433.822 177.188 C 425.850 171.274, 424.181 169.547, 423.167 166.164 C 421.483 160.543, 414.051 151.117, 408.205 147.188 C 398.117 140.408, 384.750 137.959, 373.464 140.824" />
    <path d="M 378.132 150.102 C 368.385 151.962, 360.967 157.354, 355.432 166.601 C 352.767 171.055, 352.501 172.318, 352.509 180.500 C 352.517 188.391, 352.860 190.151, 355.293 194.784 C 361.206 206.043, 371.352 212.202, 384.089 212.263 C 395.909 212.319, 407.351 205.114, 412.654 194.274 C 416.528 186.356, 416.528 175.644, 412.654 167.726 C 409.704 161.695, 404.291 156.209, 398.249 153.127 C 394.855 151.395, 392.703 150.840, 384.500 149.577 C 383.400 149.407, 380.534 149.644, 378.132 150.102" />
    <path d="M 637.404 153.370 C 628.945 155.485, 620.489 162.317, 616.201 170.500 C 613.972 174.754, 613.581 176.768, 613.581 184 C 613.581 191.280, 613.968 193.244, 616.276 197.687 C 626.311 217.007, 650.479 221.468, 666.380 206.936 C 673.596 200.340, 676.379 193.964, 676.387 184 C 676.392 177.863, 675.894 175.464, 673.647 170.798 C 667.153 157.316, 651.575 149.825, 637.404 153.370" />
    <path d="M 166 205.639 C 164.625 205.841, 160.125 206.499, 156 207.102 C 146.839 208.441, 131.591 213.195, 123.500 217.237 C 96.356 230.794, 77.345 255.660, 70.910 286.020 C 68.135 299.113, 67.933 318.024, 70.417 332 C 74.779 356.539, 87.149 381.916, 105.022 402.990 C 113.024 412.426, 112.705 410.991, 110.038 425.500 C 108.560 433.545, 108.853 454.777, 110.586 465.074 C 118.854 514.227, 155.657 553.828, 209.560 571.572 C 233.567 579.475, 251.591 581.999, 284 581.997 C 316.910 581.995, 348.727 578.305, 417 566.569 C 431.575 564.064, 443.613 562.011, 443.750 562.007 C 444.552 561.985, 443.805 558.205, 442.800 557.200 C 441.901 556.301, 429.690 555.998, 394.050 555.991 C 312.988 555.977, 273.794 551.611, 240 538.832 C 192.633 520.920, 163.599 484.781, 163.810 444 C 163.864 433.720, 166.318 421.252, 170.038 412.368 C 171.336 409.267, 171.278 409.156, 164.222 401.368 C 144.077 379.131, 134.466 362.681, 130.584 343.792 C 128.646 334.361, 128.602 327.539, 130.426 318.937 C 134.695 298.797, 147.509 282.272, 165.318 273.938 C 187.706 263.462, 219.941 267.084, 256.256 284.158 C 299.914 304.684, 338.886 336.117, 372.145 377.628 L 381.318 389.076 384.700 377.311 C 386.560 370.840, 390.391 360.683, 393.213 354.739 L 398.345 343.931 393.994 337.716 C 373.923 309.045, 338.577 273.121, 310.500 252.858 C 301.600 246.435, 281.745 234.384, 272 229.490 C 237.206 212.017, 210.316 204.866, 180.500 205.156 C 173.900 205.220, 167.375 205.438, 166 205.639" />
    <path d="M 835.500 214.010 C 780.482 221, 714.910 259.783, 666.606 313.903 C 654.409 327.569, 639.345 346.230, 637.782 349.611 C 637.031 351.235, 637.491 353.311, 639.776 358.611 C 644.655 369.927, 645.948 373.972, 648.319 385.334 L 650.579 396.169 659.035 385.834 C 684.949 354.162, 713.930 328.360, 745.969 308.438 C 793.274 279.024, 835.620 269.236, 865.682 280.768 C 873.507 283.770, 884.390 291.454, 889.086 297.293 C 894.074 303.496, 899.351 314.220, 901.468 322.460 C 903.689 331.101, 903.480 347.803, 901.032 357.374 C 896.630 374.585, 885.388 393.227, 869.187 410.179 L 864.715 414.858 867.355 421.179 C 872.782 434.171, 874.755 448.481, 872.995 462.068 C 869.302 490.566, 854.445 513.920, 829.206 530.900 C 808.968 544.515, 778.334 553.695, 740.352 557.524 C 723.577 559.216, 662.229 559.971, 613.742 559.083 C 590.988 558.667, 590.983 558.667, 588.492 561.008 C 587.121 562.295, 586 563.650, 586 564.017 C 586 564.385, 590.388 565.480, 595.750 566.451 C 601.112 567.421, 608.200 568.809, 611.500 569.534 C 621.176 571.659, 655.924 577.706, 677 580.931 C 739.238 590.457, 773.491 590.987, 807.811 582.954 C 844.400 574.390, 876.829 554.344, 896.562 528.092 C 912.292 507.166, 920.645 483.522, 921.678 457 C 922.037 447.783, 921.790 439.221, 921 433.500 C 920.317 428.550, 919.546 422.876, 919.287 420.890 C 918.862 417.629, 919.368 416.665, 924.540 410.890 C 943.483 389.740, 957.296 360.692, 962.054 332 C 963.655 322.349, 963.679 300.225, 962.097 292.500 C 954.381 254.828, 933.721 231.943, 896.759 220.127 C 891.401 218.415, 883.076 216.307, 878.259 215.444 C 867.665 213.545, 845.111 212.789, 835.500 214.010" />
    <path d="M 182.500 276.402 C 161.425 280.495, 144.898 295.757, 138.612 316.932 C 136.001 325.727, 136.433 340.459, 139.577 349.824 C 144.993 365.958, 154.542 380.453, 170.775 397.182 C 181.338 408.067, 181.055 407.051, 176.523 417.822 C 170.715 431.624, 169.568 448.831, 173.478 463.500 C 177.364 478.080, 188.402 495.658, 201.230 507.697 C 212.298 518.083, 231.013 528.621, 248.500 534.313 C 281.626 545.094, 308.954 548.017, 382.500 548.647 C 424.295 549.005, 433.229 548.851, 432 547.790 C 426.174 542.764, 396.021 520.997, 384.500 513.500 C 341.087 485.251, 295.805 464.584, 253.298 453.620 C 246.323 451.820, 240.450 449.850, 240.247 449.242 C 240.044 448.633, 240.743 447.673, 241.800 447.107 C 243.211 446.352, 246.858 446.729, 255.507 448.522 C 302.388 458.244, 356.875 484.185, 409.500 521.836 C 422.941 531.453, 438.788 543.833, 440.872 546.346 C 441.627 547.256, 443.655 548, 445.378 548 C 448.298 548, 448.672 547.577, 450.905 541.750 C 452.222 538.313, 455.034 531.959, 457.154 527.631 C 460.797 520.193, 460.944 519.535, 459.829 515.631 C 458.217 509.985, 457.788 509.556, 450.178 506.002 C 408.557 486.560, 381 448.323, 381 410.012 C 381 403.212, 380.667 401.866, 377.908 397.515 C 362.767 373.642, 331.353 341.268, 303.500 320.836 C 266.164 293.447, 228.008 276.797, 199.613 275.503 C 193.283 275.215, 186.882 275.551, 182.500 276.402" />
    <path d="M 825.500 284.145 C 792.960 288.293, 750.454 309.981, 711.501 342.311 C 695.230 355.815, 672.055 380.325, 657.795 399.108 L 651.260 407.715 650.532 416.454 C 648.357 442.573, 639.933 461.625, 622.488 479.884 C 611.048 491.859, 588.966 506.563, 577.131 510.087 C 573.359 511.210, 572.499 512.003, 570.830 515.896 L 568.898 520.404 572.854 528.952 C 575.030 533.653, 577.864 540.538, 579.152 544.250 L 581.493 551 585.337 551 C 588.416 551, 590.208 550.134, 594.341 546.650 C 603.131 539.239, 623.981 523.698, 635.325 516.103 C 683.056 484.143, 729.175 463.944, 771.475 456.469 C 787.766 453.591, 794.522 453.312, 795.356 455.485 C 796.068 457.340, 793.826 458.558, 788 459.480 C 731.031 468.496, 671.068 496.470, 613 541.120 L 599.500 551.500 627 552.295 C 662.055 553.307, 718.647 552.382, 738.863 550.465 C 788.853 545.725, 821.016 532.938, 843.670 508.798 C 865.333 485.714, 872.269 449.405, 860.018 423.225 C 855.854 414.327, 856.045 412.345, 861.585 406.958 C 875.902 393.039, 888.205 373.915, 893.105 357.965 C 896.086 348.260, 896.335 331.544, 893.634 322.500 C 888.487 305.272, 875.800 291.798, 860.184 286.975 C 847.949 283.196, 838.802 282.450, 825.500 284.145" />
    <path d="M 501.500 288.961 C 467.856 292.946, 435.405 311.859, 414.812 339.484 C 407.490 349.307, 398.927 366.450, 395.325 378.500 C 392.854 386.766, 392.630 388.968, 392.568 405.500 C 392.500 423.412, 392.516 423.546, 395.834 433 C 405.715 461.161, 428.776 484.928, 459.106 498.211 C 471.794 503.768, 488.575 508.599, 499.974 509.976 C 557.351 516.908, 616.889 486.878, 633.752 442.500 C 638.398 430.272, 639.426 423.975, 639.386 408 C 639.358 396.719, 638.883 391.605, 637.244 384.963 C 633.685 370.532, 627.185 355.881, 618.629 343 C 612.718 334.102, 596.199 317.333, 586.828 310.719 C 573.596 301.381, 556.293 294, 539.492 290.530 C 530.335 288.639, 510.970 287.839, 501.500 288.961" />
    <path d="M 221 319.652 C 219.625 319.930, 215.278 321.695, 211.340 323.573 C 183.326 336.936, 181.653 377.893, 208.416 395.190 C 217.291 400.927, 226.246 403.355, 236.329 402.761 C 248.583 402.038, 255.079 399.207, 263.009 391.130 C 271.502 382.481, 274.540 374.724, 274.420 362 C 274.193 337.998, 256.600 320.574, 231.500 319.492 C 227.100 319.302, 222.375 319.374, 221 319.652" />
    <path d="M 794.773 327.555 C 777.046 331.852, 765.218 344.606, 761.938 362.962 C 758.730 380.908, 767.689 398.694, 783.775 406.314 C 790.181 409.349, 791.074 409.500, 802.593 409.500 C 814.656 409.500, 814.706 409.490, 822.314 405.628 C 831.731 400.847, 838.898 393.549, 843.299 384.259 C 846.297 377.929, 846.500 376.802, 846.500 366.500 C 846.500 356.353, 846.272 355.035, 843.558 349.500 C 834.733 331.499, 815.042 322.641, 794.773 327.555" />
    <path d="M 219.332 328.793 C 205.951 333.568, 198 345.189, 198 359.973 C 198 369.340, 200.790 376.515, 207.131 383.452 C 224.773 402.756, 256.283 398.184, 265.075 375.045 C 267.730 368.058, 267.666 356.855, 264.929 349.541 C 262.185 342.207, 254.784 334.206, 247.337 330.523 C 239.668 326.732, 227.258 325.965, 219.332 328.793" />
    <path d="M 794.096 335.450 C 787.088 337.726, 779.404 343.643, 775.116 350.065 C 762.463 369.012, 770.486 393.954, 791.445 400.834 C 799.309 403.416, 804.740 403.562, 812.068 401.390 C 824.014 397.848, 831.325 391.756, 836.345 381.159 C 839.067 375.414, 839.500 373.402, 839.500 366.500 C 839.500 360.218, 839.016 357.517, 837.245 353.924 C 833.765 346.863, 828.754 341.681, 821.826 337.981 C 816.294 335.027, 814.433 334.566, 807 334.311 C 801.586 334.125, 796.901 334.538, 794.096 335.450" />
    <path d="M 449.223 336.661 C 445.587 338.453, 441 343.399, 441 345.528 C 441 346.607, 441.914 346.487, 445.250 344.973 C 447.828 343.803, 451.748 343.035, 455.215 343.022 C 459.893 343.004, 461.124 342.637, 462 341 C 462.760 339.579, 462.760 338.421, 462 337 C 460.650 334.477, 454.011 334.301, 449.223 336.661" />
    <path d="M 568.046 336.445 C 567.386 337.240, 566.994 338.927, 567.173 340.195 C 567.457 342.199, 568.228 342.578, 573.072 343.099 C 576.136 343.429, 580.759 344.506, 583.344 345.494 C 585.929 346.481, 588.234 347.099, 588.465 346.868 C 589.700 345.633, 584.229 339.795, 579.743 337.559 C 573.982 334.688, 569.832 334.293, 568.046 336.445" />
    <path d="M 443.219 369.578 C 429.961 376.185, 422.763 391.721, 426.395 405.895 C 429.903 419.590, 441.711 430, 453.735 430 C 461.362 430, 466.287 427.858, 472.174 421.979 C 476.996 417.163, 478.178 415.223, 480.052 409.053 C 487.992 382.914, 465.287 358.581, 443.219 369.578" />
    <path d="M 568.909 369.495 C 562.648 371.503, 555.690 377.891, 552.369 384.677 C 548.464 392.659, 547.912 404.128, 551.034 412.407 C 553.623 419.272, 559.941 426.162, 566.291 429.045 C 579.125 434.872, 594.886 427.768, 601.890 413 C 604.027 408.494, 604.499 406.050, 604.499 399.479 C 604.500 392.427, 604.102 390.649, 601.205 384.765 C 594.693 371.536, 581.697 365.392, 568.909 369.495" />
    <path d="M 458.284 376.796 C 455.353 377.238, 451 382.515, 451 385.626 C 451 391.828, 456.984 396.974, 462.567 395.573 C 474.664 392.536, 470.648 374.932, 458.284 376.796" />
    <path d="M 568.885 378.876 C 567.447 380.007, 565.729 382.239, 565.068 383.836 C 562.566 389.876, 569.253 397.979, 575.454 396.422 C 579.696 395.357, 583 391.197, 583 386.919 C 583 379.268, 574.526 374.439, 568.885 378.876" />
    <path d="M 481.975 426.530 C 480.965 427.747, 480.943 429.743, 481.867 436.280 C 484.823 457.198, 493.504 473.677, 504.327 478.916 C 509.829 481.580, 518.925 481.676, 524.500 479.129 C 529.409 476.887, 536.047 469.816, 539.324 463.340 C 543.527 455.032, 549.638 430.826, 548.368 427.516 C 547.303 424.741, 544.108 425.806, 542.589 429.441 C 537.674 441.205, 501.529 443.779, 489.649 433.212 C 488.590 432.270, 487.105 430.038, 486.349 428.250 C 484.821 424.640, 483.858 424.261, 481.975 426.530" />
    <path d="M 513.764 453.996 C 509.431 455.300, 504.223 458.879, 501.892 462.151 C 500.025 464.773, 499.915 465.473, 501.038 467.571 C 504.225 473.526, 516.497 475.843, 523.137 471.745 C 531.648 466.491, 536.683 456.506, 532.066 454.035 C 529.806 452.826, 517.736 452.800, 513.764 453.996" />
    <path d="M 473.266 517.250 C 468.212 523.702, 458.783 545.795, 454.583 561.023 L 451.969 570.500 454.735 572.747 C 458.720 575.986, 473.014 581.805, 483.756 584.562 C 511.862 591.776, 542.455 589.295, 567.207 577.795 L 576.238 573.599 575.697 568.550 C 574.480 557.198, 558.773 517, 555.554 517 C 554.817 517, 550.678 517.782, 546.357 518.737 C 534.030 521.462, 500.931 521.166, 487.343 518.210 C 475.543 515.643, 474.576 515.577, 473.266 517.250" />
    <path d="M 418 575.583 C 355.199 588.425, 325.887 599.608, 297.500 621.554 C 273.390 640.194, 256.545 665.671, 253.551 688.026 C 252.712 694.291, 254.417 705.158, 257.124 710.790 C 260.563 717.948, 269.421 726.675, 277.257 730.625 C 298.727 741.450, 322.528 738.100, 349.004 720.527 C 376.475 702.294, 399.510 674.103, 419.298 634.500 C 429.197 614.686, 435.102 599.342, 438.138 585.542 C 439.712 578.385, 441 572.185, 441 571.765 C 441 570.800, 443.071 570.456, 418 575.583" />
    <path d="M 588.329 575.136 C 588.672 576.436, 589.677 582.450, 590.563 588.500 C 593.018 605.263, 602.181 628.609, 616.106 653.584 C 628.437 675.700, 638.125 688.947, 653.931 705.307 C 680.437 732.743, 709.593 746.641, 733.002 743 C 748.933 740.521, 761.440 732.149, 767.181 720.121 C 769.850 714.528, 770.397 712.066, 770.792 703.882 C 771.193 695.538, 770.894 692.974, 768.579 684.901 C 759.489 653.212, 730.859 623.736, 689.500 603.483 C 669.150 593.518, 647.436 586.743, 603 576.491 C 596.675 575.032, 590.647 573.598, 589.604 573.305 C 588.021 572.860, 587.810 573.163, 588.329 575.136" />
    <path d="M 447.677 589.750 C 445.475 602.603, 444.215 614.627, 443.408 630.500 C 442.639 645.612, 442.034 644.450, 454 650.831 C 463.616 655.959, 476.431 660.422, 489.312 663.127 C 503.623 666.134, 527.246 666.125, 541.712 663.108 C 554.358 660.470, 566.304 656.150, 575.616 650.848 L 582.732 646.797 583.308 640.148 C 584.048 631.619, 582.700 609.865, 580.479 594.500 C 579.525 587.900, 578.595 582.331, 578.413 582.124 C 578.230 581.916, 573.884 583.588, 568.754 585.837 C 553.853 592.372, 541.293 595.052, 522.500 595.704 C 495.904 596.628, 477.983 593.054, 455.563 582.356 C 452.847 581.060, 450.338 580, 449.987 580 C 449.636 580, 448.596 584.388, 447.677 589.750" />
    <path d="M 330.352 590.040 C 322.487 591.596, 290.113 594, 277.015 594 L 263.886 594 253.693 600.781 C 217.454 624.891, 198.823 646.204, 188.811 675 C 185.608 684.212, 185.508 684.985, 185.504 700.500 C 185.500 715.261, 185.717 717.181, 188.296 725.296 C 201.465 766.721, 228.276 792.467, 267.374 801.230 C 280.360 804.141, 301.116 804.301, 314 801.589 C 330.092 798.201, 349.272 789.566, 363.932 779.107 C 390.652 760.046, 411.615 733.100, 430.143 694 L 435.118 683.500 433.884 673 C 433.205 667.225, 432.616 654.064, 432.575 643.753 C 432.534 633.442, 432.410 625.004, 432.301 625.003 C 432.191 625.001, 428.418 632.219, 423.917 641.042 C 398.858 690.161, 367.233 723.484, 332.235 737.649 C 321.101 742.155, 312.592 743.961, 302.386 743.983 C 290.771 744.007, 284.714 742.618, 274.500 737.587 C 246.976 724.030, 238.650 696.684, 252.393 664.972 C 264.174 637.785, 290.163 613.371, 326.443 595.408 C 338.801 589.290, 339.585 588.213, 330.352 590.040" />
    <path d="M 686.094 593.370 C 686.420 593.728, 690.889 596.065, 696.024 598.565 C 720.799 610.623, 745.534 630.854, 759.523 650.500 C 770.252 665.568, 775.951 679.152, 778.022 694.598 C 780.251 711.218, 775.829 725.180, 764.916 735.977 C 742.276 758.375, 704.887 755.410, 668.960 728.367 C 644.181 709.715, 621.245 680.295, 602.057 642.550 L 594.263 627.218 593.701 647.859 C 593.392 659.212, 592.419 673.225, 591.539 679 L 589.939 689.500 598.518 706.742 C 626.515 763.015, 664.006 797.191, 710.891 809.176 C 760.938 821.970, 809.017 801.245, 830.773 757.500 C 843.075 732.764, 845.334 707.033, 837.357 682.500 C 828.811 656.216, 810.377 633.349, 778.555 609.559 L 767.500 601.293 747 600.108 C 729.580 599.100, 696.457 595.280, 688 593.303 C 686.625 592.982, 685.767 593.012, 686.094 593.370" />
    <path d="M 444 655.394 C 444 658.523, 446.432 678.443, 447.554 684.500 C 449.165 693.203, 452.413 705.896, 454.134 710.218 C 455.608 713.919, 472.203 722.111, 485.500 725.701 C 494.760 728.202, 496.944 728.401, 515 728.398 C 532.002 728.395, 535.525 728.112, 542.500 726.192 C 550.115 724.095, 566.582 716.762, 570.192 713.860 C 572.476 712.023, 578.461 688.352, 580.966 671.245 C 582.062 663.755, 582.744 657.411, 582.480 657.147 C 582.217 656.883, 578.063 658.502, 573.251 660.744 C 554.985 669.253, 544.102 671.780, 522 672.641 C 494.525 673.712, 473.967 669.563, 452.043 658.522 C 445.176 655.063, 444 654.606, 444 655.394" />
    <path d="M 461.319 729.304 C 469.795 749.915, 485.547 769.066, 499.903 776.212 C 506.904 779.697, 519.388 779.489, 527.360 775.755 C 534.940 772.204, 547.508 760.030, 553.908 750.038 C 559.009 742.074, 566 728.761, 566 727.012 C 566 726.391, 564.490 726.612, 562.250 727.560 C 555.465 730.430, 543.952 733.948, 537.169 735.224 C 528.633 736.829, 501.457 736.846, 493 735.252 C 485.350 733.811, 469.637 728.838, 463.759 725.998 C 461.485 724.899, 459.515 724, 459.381 724 C 459.248 724, 460.120 726.387, 461.319 729.304" />
</g>

<!-- التفاصيل الداكنة -->
<g id="dark_details" fill="#111111" stroke="none" pointer-events="none">
    <path d="M 449.223 336.661 C 445.587 338.453, 441 343.399, 441 345.528 C 441 346.607, 441.914 346.487, 445.250 344.973 C 447.828 343.803, 451.748 343.035, 455.215 343.022 C 459.893 343.004, 461.124 342.637, 462 341 C 462.760 339.579, 462.760 338.421, 462 337 C 460.650 334.477, 454.011 334.301, 449.223 336.661" fill-rule="evenodd" />
    <path d="M 568.046 336.445 C 567.386 337.240, 566.994 338.927, 567.173 340.195 C 567.457 342.199, 568.228 342.578, 573.072 343.099 C 576.136 343.429, 580.759 344.506, 583.344 345.494 C 585.929 346.481, 588.234 347.099, 588.465 346.868 C 589.700 345.633, 584.229 339.795, 579.743 337.559 C 573.982 334.688, 569.832 334.293, 568.046 336.445" fill-rule="evenodd" />
    <path d="M 458.284 376.796 C 455.353 377.238, 451 382.515, 451 385.626 C 451 391.828, 456.984 396.974, 462.567 395.573 C 474.664 392.536, 470.648 374.932, 458.284 376.796" fill-rule="evenodd" />
    <path d="M 568.885 378.876 C 567.447 380.007, 565.729 382.239, 565.068 383.836 C 562.566 389.876, 569.253 397.979, 575.454 396.422 C 579.696 395.357, 583 391.197, 583 386.919 C 583 379.268, 574.526 374.439, 568.885 378.876" fill-rule="evenodd" />
</g>

<!-- لوحة التحكم -->
<rect x="0" y="860" width="1024" height="224" fill="#1a1a2e"/>
<rect x="0" y="860" width="1024" height="5" fill="#e94560"/>
<text x="14" y="880" font-family="sans-serif" font-size="12" fill="#f5a623" font-weight="bold">🎨 اختر لون:</text>

  <rect class="swatch" x="20" y="870" width="32" height="28" rx="6" fill="#FF6B6B" onclick="pick('#FF6B6B', this)" />
  <rect class="swatch" x="62" y="870" width="32" height="28" rx="6" fill="#FF8E53" onclick="pick('#FF8E53', this)" />
  <rect class="swatch" x="104" y="870" width="32" height="28" rx="6" fill="#FFC107" onclick="pick('#FFC107', this)" />
  <rect class="swatch" x="146" y="870" width="32" height="28" rx="6" fill="#A8E063" onclick="pick('#A8E063', this)" />
  <rect class="swatch" x="188" y="870" width="32" height="28" rx="6" fill="#56CCF2" onclick="pick('#56CCF2', this)" />
  <rect class="swatch" x="20" y="906" width="32" height="28" rx="6" fill="#764BA2" onclick="pick('#764BA2', this)" />
  <rect class="swatch" x="62" y="906" width="32" height="28" rx="6" fill="#F093FB" onclick="pick('#F093FB', this)" />
  <rect class="swatch" x="104" y="906" width="32" height="28" rx="6" fill="#4ECDC4" onclick="pick('#4ECDC4', this)" />
  <rect class="swatch" x="146" y="906" width="32" height="28" rx="6" fill="#D62839" onclick="pick('#D62839', this)" />
  <rect class="swatch" x="188" y="906" width="32" height="28" rx="6" fill="#E84393" onclick="pick('#E84393', this)" />
  <rect class="swatch" x="20" y="942" width="32" height="28" rx="6" fill="#F7B731" onclick="pick('#F7B731', this)" />
  <rect class="swatch" x="62" y="942" width="32" height="28" rx="6" fill="#20BF6B" onclick="pick('#20BF6B', this)" />
  <rect class="swatch" x="104" y="942" width="32" height="28" rx="6" fill="#0652DD" onclick="pick('#0652DD', this)" />
  <rect class="swatch" x="146" y="942" width="32" height="28" rx="6" fill="#C0392B" onclick="pick('#C0392B', this)" />
  <rect class="swatch" x="188" y="942" width="32" height="28" rx="6" fill="#2C3E50" onclick="pick('#2C3E50', this)" />
  <rect class="swatch" x="20" y="978" width="32" height="28" rx="6" fill="#8E44AD" onclick="pick('#8E44AD', this)" />
  <rect class="swatch" x="62" y="978" width="32" height="28" rx="6" fill="#1ABC9C" onclick="pick('#1ABC9C', this)" />
  <rect class="swatch" x="104" y="978" width="32" height="28" rx="6" fill="#E67E22" onclick="pick('#E67E22', this)" />
  <rect class="swatch" x="146" y="978" width="32" height="28" rx="6" fill="#2980B9" onclick="pick('#2980B9', this)" />
  <rect class="swatch" x="188" y="978" width="32" height="28" rx="6" fill="#27AE60" onclick="pick('#27AE60', this)" />
  <rect class="swatch" x="20" y="1014" width="32" height="28" rx="6" fill="#FF5252" onclick="pick('#FF5252', this)" />
  <rect class="swatch" x="62" y="1014" width="32" height="28" rx="6" fill="#FF6F00" onclick="pick('#FF6F00', this)" />
  <rect class="swatch" x="104" y="1014" width="32" height="28" rx="6" fill="#E040FB" onclick="pick('#E040FB', this)" />
  <rect class="swatch" x="146" y="1014" width="32" height="28" rx="6" fill="#00BCD4" onclick="pick('#00BCD4', this)" />
  <rect class="swatch" x="188" y="1014" width="32" height="28" rx="6" fill="#8BC34A" onclick="pick('#8BC34A', this)" />


<rect id="eraserBtn" x="240" y="952" width="70" height="28" rx="7" fill="#0f3460" stroke="#444" stroke-width="1.5" onclick="toggleErase()" style="cursor:pointer"/>
<text x="275" y="971" font-family="sans-serif" font-size="12" fill="#eee" text-anchor="middle" pointer-events="none">🧹 محو</text>

<rect id="undoBtn" x="320" y="952" width="70" height="28" rx="7" fill="#0f3460" stroke="#444" stroke-width="1.5" onclick="undo()" style="cursor:pointer"/>
<text x="355" y="971" font-family="sans-serif" font-size="12" fill="#eee" text-anchor="middle" pointer-events="none">↩ تراجع</text>

<rect id="clearBtn" x="400" y="952" width="70" height="28" rx="7" fill="#0f3460" stroke="#444" stroke-width="1.5" onclick="clearAll()" style="cursor:pointer"/>
<text x="435" y="971" font-family="sans-serif" font-size="12" fill="#eee" text-anchor="middle" pointer-events="none">🗑 مسح</text>

<text x="490" y="967" font-family="sans-serif" font-size="11" fill="#aaa">اللون:</text>
<rect id="preview" x="525" y="952" width="28" height="28" rx="6" fill="#FF6B6B" stroke="#666" stroke-width="1.5"/>

<text x="570" y="964" font-family="sans-serif" font-size="11" fill="#aaa">شفافية:</text>
<text id="opLabel" x="570" y="978" font-family="sans-serif" font-size="11" fill="#f5a623">100%</text>
<rect x="620" y="957" width="100" height="7" rx="3" fill="#333"/>
<rect id="opBar" x="620" y="957" width="100" height="7" rx="3" fill="#f5a623"/>
<rect x="620" y="950" width="100" height="22" rx="3" fill="transparent" onmousedown="startSlide(evt)" onmousemove="slideMove(evt)" onmouseup="endSlide()" style="cursor:ew-resize"/>

<script type="text/javascript"><![CDATA[
  var activeColor = '#FF6B6B';
  var eraseMode = false;
  var opacity = 1.0;
  var sliding = false;
  var history = [];

  document.querySelectorAll('.swatch')[0].classList.add('active');

  function pick(c, el) {
    activeColor = c;
    eraseMode = false;
    document.getElementById('preview').setAttribute('fill', c);
    document.getElementById('eraserBtn').setAttribute('fill','#0f3460');
    document.getElementById('eraserBtn').setAttribute('stroke','#444');
    document.querySelectorAll('.swatch').forEach(function(s){s.classList.remove('active');});
    el.classList.add('active');
  }

  function toggleErase() {
    eraseMode = !eraseMode;
    var el = document.getElementById('eraserBtn');
    el.setAttribute('fill', eraseMode ? '#fff0f0' : '#0f3460');
    el.setAttribute('stroke', eraseMode ? '#e94560' : '#444');
  }

  function fillRegion(el) {
    history.push({ el:el, fill:el.getAttribute('fill'), op:el.getAttribute('fill-opacity') });
    if (eraseMode) {
      el.setAttribute('fill','none');
      el.setAttribute('fill-opacity','1');
    } else {
      el.setAttribute('fill', activeColor);
      el.setAttribute('fill-opacity', opacity);
    }
  }

  function undo() {
    if (!history.length) return;
    var last = history.pop();
    last.el.setAttribute('fill', last.fill || 'none');
    last.el.setAttribute('fill-opacity', last.op || '1');
  }

  function clearAll() {
    document.querySelectorAll('.region').forEach(function(r){
      r.setAttribute('fill','none');
      r.setAttribute('fill-opacity','1');
    });
    history = [];
  }

  function startSlide(evt) { sliding=true; slideMove(evt); }
  function endSlide() { sliding=false; }
  function slideMove(evt) {
    if (!sliding) return;
    var svg = evt.target.ownerSVGElement;
    var pt = svg.createSVGPoint();
    pt.x = evt.clientX; pt.y = evt.clientY;
    var sp = pt.matrixTransform(svg.getScreenCTM().inverse());
    var pct = Math.max(0, Math.min(1, (sp.x - 620) / 100));
    opacity = pct;
    document.getElementById('opBar').setAttribute('width', Math.round(pct*100));
    document.getElementById('opLabel').textContent = Math.round(pct*100) + '%';
  }
]]></script>
</svg>