<svg xmlns="http://www.w3.org/2000/svg" width="1024" height="1084" viewBox="0 0 1024 1084">
<defs>
  <style>
    .region { cursor:pointer; }
    .region:hover { opacity:0.7; }
    .swatch { cursor:pointer; stroke:transparent; stroke-width:3; }
    .swatch:hover { stroke:#fff; stroke-width:3; }
    .swatch.active { stroke:#fff; stroke-width:3.5; }
  </style>
</defs>

<rect width="1024" height="860" fill="white"/>

<g id="colorRegions">
    <path id="car_outer" class="region" d="M 549.500 211.641 C 519.568 213.570, 485.225 217.943, 460.591 222.963 C 426.078 229.996, 403.257 237.366, 378.500 249.476 C 355.332 260.808, 341.197 270.943, 320.650 290.957 C 300 311.071, 281.206 336.140, 264.015 366.500 C 259.966 373.650, 256.579 379.614, 256.489 379.754 C 256.399 379.894, 254.958 379.327, 253.287 378.494 C 248.539 376.125, 239.069 374.738, 232.614 375.466 C 211.378 377.862, 198.560 392.964, 198.848 415.247 C 198.904 419.572, 199.171 423.468, 199.442 423.906 C 199.712 424.344, 198.036 425.305, 195.717 426.043 C 188.089 428.469, 158.651 439.754, 151 443.186 C 123.605 455.473, 100.267 470.842, 86.212 485.853 C 78.697 493.879, 70.306 506.749, 66.010 516.839 C 58.122 535.361, 53 559.471, 53 578.074 C 53 586.570, 52.786 587.615, 50.572 589.945 C 44.186 596.663, 39.792 610.826, 39.695 625 C 39.556 645.155, 47.609 661.197, 63.586 672.599 C 69.872 677.084, 87.611 685.617, 95.619 688.008 C 99.522 689.174, 99.824 689.547, 101.377 695.131 C 105.546 710.128, 115.270 726.359, 126.080 736.368 C 143.475 752.472, 174.007 760.828, 208.509 758.925 C 235.111 757.458, 252.666 748.150, 269.537 726.567 L 272.574 722.682 291.537 724.832 C 337.862 730.085, 376.196 732.273, 424.204 732.403 L 459.908 732.500 460.530 735 C 461.791 740.070, 469.001 754.175, 474.110 761.564 C 484.986 777.298, 500.143 788.296, 520.393 795.147 C 552.467 805.999, 585.128 806.804, 613.979 797.454 C 627.216 793.165, 637.457 787.185, 647.280 778.012 C 664.942 761.518, 677.633 738.327, 683.458 711.905 L 685.132 704.309 701.816 702.098 C 722.523 699.354, 743.659 695.772, 764.500 691.476 C 773.300 689.662, 780.627 688.518, 780.781 688.933 C 780.936 689.348, 783.290 693.081, 786.012 697.227 C 792.986 707.850, 803.960 717.793, 814.268 722.830 C 837.445 734.153, 873.228 737.268, 900.904 730.373 C 936.177 721.585, 959.592 688.014, 966.083 636.928 L 967.299 627.356 973.067 623.622 C 982.864 617.278, 988.322 607.367, 990.001 592.874 C 991.107 583.321, 989.825 573.729, 986.356 565.614 C 984.020 560.149, 983.704 557.947, 983.377 544.880 C 982.751 519.909, 977.715 498.306, 968.037 479.084 C 960.274 463.664, 947.726 449.852, 932.904 440.411 L 924.309 434.936 923.059 427.940 C 917.193 395.116, 899.770 354.868, 877.632 323 C 864.681 304.356, 846.335 285.332, 828.749 272.310 C 816.592 263.309, 813.569 261.398, 799.424 253.778 C 766.136 235.844, 726.849 223.668, 680.867 217.036 C 650.746 212.691, 637.709 211.848, 596 211.547 C 573.725 211.386, 552.800 211.428, 549.500 211.641" fill="none" fill-rule="evenodd" stroke="none" onclick="fillRegion(this)" />
    <path id="car_body" class="region" d="M 556.884 225.060 C 486.451 228.711, 427.100 241.330, 385.500 261.500 C 338.532 284.273, 304.589 320.935, 266.995 389.500 C 256.123 409.328, 251.816 415.855, 245.609 421.916 C 243.122 424.344, 241.274 426.635, 241.503 427.005 C 241.732 427.376, 240.468 427.734, 238.694 427.800 C 233.404 427.999, 189.877 442.347, 170.500 450.278 C 137.163 463.925, 116.066 476.519, 99.428 492.705 C 84.604 507.127, 75.438 525.274, 69.984 551 C 67.297 563.673, 65.426 587.593, 66.841 591.181 C 68.083 594.332, 76.527 600.823, 83.550 604.025 C 94.161 608.863, 97.697 610.169, 110.376 613.935 C 140.631 622.922, 189.873 632.386, 230 636.926 C 234.675 637.455, 244.350 638.577, 251.500 639.420 C 331.936 648.896, 447.990 651.383, 495.424 644.645 L 503.489 643.500 507.215 633.500 C 523.330 590.246, 548.706 562.927, 580.327 554.790 C 601.465 549.351, 625.972 554.266, 644.115 567.585 C 654.918 575.514, 666.129 589.621, 672.412 603.190 C 679.244 617.943, 685 638.482, 685 648.107 L 685 651.144 690.750 650.484 C 710.851 648.175, 758.583 639.364, 791.500 631.886 C 798.650 630.261, 806.601 628.468, 809.169 627.901 L 813.839 626.869 815.513 617.184 C 817.904 603.347, 822.392 585.774, 826.042 575.954 C 829.136 567.630, 829.480 565.463, 831.984 538.500 C 834.767 508.537, 831.797 475.791, 824.551 456.540 C 821.679 448.910, 821.621 448.647, 822.972 449.482 C 826.462 451.640, 832.520 473.429, 834.097 489.500 C 835.579 504.603, 834.718 538.894, 832.518 552.370 C 831.632 557.799, 831.085 562.418, 831.302 562.636 C 831.519 562.853, 833.382 560.300, 835.442 556.963 C 848.833 535.267, 865.975 521.812, 885.858 517.388 C 898.171 514.649, 913.428 517.064, 924.390 523.489 C 937.668 531.270, 951.629 549.566, 956.067 565 C 956.778 567.475, 957.489 569.672, 957.646 569.882 C 957.803 570.093, 960.694 568.518, 964.070 566.382 L 970.210 562.500 969.618 546.424 C 968.248 509.196, 957.614 481.237, 937.592 462.218 C 929.580 454.607, 912.239 443.640, 905.509 441.927 C 899.658 440.438, 896 438.880, 896 437.879 C 896 436.631, 898.680 436.805, 904.890 438.458 L 910.279 439.893 909.672 433.386 C 909.337 429.807, 908.315 424.318, 907.400 421.189 C 895.555 380.681, 884.907 357.482, 865.777 330.500 C 818.554 263.896, 741.982 231.430, 617 225.019 C 595.392 223.911, 578.839 223.922, 556.884 225.060" fill="none" fill-rule="evenodd" stroke="none" onclick="fillRegion(this)" />
    <path id="windshield_outer" class="region" d="M 455 263.017 C 431.504 264.814, 416.377 266.808, 389.082 271.703 C 386.120 272.234, 385.754 272.084, 386.333 270.574 C 387.127 268.505, 386.810 268.612, 380.612 272.500 C 357.536 286.976, 354.330 289.472, 338.991 304.900 C 321.986 322.006, 309.863 337.330, 297.377 357.501 C 289.501 370.226, 279.672 388.580, 276.513 396.462 C 273.747 403.363, 273.467 411.007, 275.788 416.254 C 279.603 424.878, 284.771 426.299, 325.829 430.012 C 367.467 433.777, 383.134 435.235, 422.500 439.008 C 439.550 440.642, 460.925 442.676, 470 443.529 C 479.075 444.381, 495.725 446.156, 507 447.473 C 542.060 451.568, 551.117 452.288, 560.179 451.701 C 575.632 450.700, 585.175 444.556, 591.817 431.334 C 601.970 411.121, 621.376 356.396, 632.539 316.500 C 636.990 300.592, 636.948 294.994, 632.336 289.240 C 625.025 280.118, 601.769 272.953, 558.500 266.490 C 536.478 263.201, 478.171 261.244, 455 263.017" fill="none" fill-rule="evenodd" stroke="none" onclick="fillRegion(this)" />
    <path id="windshield_inner" class="region" d="M 456 274.676 C 434.762 276.216, 395.067 281.912, 383.500 285.079 C 358.925 291.809, 310.555 347.349, 290.673 391.668 C 285.967 402.158, 285.097 408.097, 287.862 410.862 C 291.495 414.495, 299.683 415.833, 340.500 419.466 C 385.792 423.497, 418.118 426.541, 468 431.473 C 562.552 440.821, 558.258 440.483, 564.610 439.083 C 572.683 437.303, 577.859 431.866, 585.204 417.446 C 598.425 391.493, 625.234 310.393, 623.554 301.435 C 622.814 297.493, 618.812 293.689, 612.622 291.045 C 597.789 284.709, 559.189 277.751, 523.605 274.998 C 511.899 274.092, 466.997 273.878, 456 274.676" fill="none" fill-rule="evenodd" stroke="none" onclick="fillRegion(this)" />
    <path id="side_window_outer" class="region" d="M 710 279.068 C 680.752 286.705, 662.318 306.043, 645.719 346.500 C 639.658 361.272, 631.845 383.944, 627.971 398 C 626.228 404.325, 623.987 412.231, 622.990 415.569 C 621.993 418.907, 620.865 423.857, 620.484 426.569 C 620.103 429.281, 618.736 433.075, 617.447 435 C 613.377 441.077, 611.795 453.123, 614.017 461.123 C 615.398 466.094, 621.691 472.931, 628.015 476.330 C 630.911 477.886, 639.180 480.640, 646.390 482.450 L 659.500 485.741 660.638 498.620 C 661.264 505.704, 662.924 516.450, 664.325 522.500 C 668.111 538.840, 671.607 557.861, 673.514 572.500 C 676.255 593.542, 676.994 596.106, 676.542 583 C 676.091 569.954, 672.835 546.920, 669.969 536.500 C 666.536 524.024, 663.221 505.733, 662.583 495.750 L 661.960 486 671.843 486 C 684.860 486, 690.741 484.781, 700.493 480.060 C 709.077 475.906, 717.760 468.407, 719.861 463.336 L 721.054 460.456 740.899 458.682 C 772.731 455.838, 806.125 451.304, 807.834 449.594 C 811.059 446.369, 807.680 412.737, 800.391 375.500 C 791.102 328.051, 777.902 295.909, 763.690 286.131 C 751.186 277.528, 727.721 274.441, 710 279.068" fill="none" fill-rule="evenodd" stroke="none" onclick="fillRegion(this)" />
    <path id="side_window_frame" class="region" d="M 768.190 284.091 C 768.680 285.582, 774.009 287.745, 780.250 288.986 C 786.360 290.201, 784.527 288.337, 777.250 285.935 C 773.538 284.710, 769.876 283.476, 769.114 283.194 C 768.245 282.873, 767.900 283.208, 768.190 284.091" fill="none" fill-rule="evenodd" stroke="none" onclick="fillRegion(this)" />
    <path id="side_window_inner" class="region" d="M 716.500 290.485 C 706.691 292.654, 700.911 294.931, 693.332 299.612 C 675.210 310.806, 662.002 332.735, 645.816 378.500 C 640.722 392.904, 633.875 416, 634.699 416 C 634.955 416, 637.039 414.481, 639.332 412.625 C 653.777 400.927, 678.716 396.754, 697 402.975 C 705.248 405.781, 715.026 412.724, 719.129 418.688 C 724.162 426.002, 726 431.975, 726 441.011 L 726 449 728.750 448.994 C 733.214 448.983, 770.433 445.196, 784.365 443.335 L 797.230 441.616 796.566 431.558 C 793.298 382.078, 776.428 317.499, 762.541 301.310 C 754.249 291.643, 733.418 286.746, 716.500 290.485" fill="none" fill-rule="evenodd" stroke="none" onclick="fillRegion(this)" />
    <path id="back_window_frame" class="region" d="M 794 299 C 791.059 301.941, 791.486 305.620, 796.536 320.834 C 808.376 356.503, 817.834 401.280, 820.609 434.804 C 821.519 445.796, 823.149 448.007, 830.323 447.982 C 836.142 447.962, 872.471 442.663, 878.242 440.993 C 883.113 439.584, 883.662 437.309, 882.220 424.500 C 879.876 403.667, 867.314 371.818, 852.250 348.512 C 839.257 328.413, 820.122 309.075, 803.912 299.664 C 798.420 296.475, 796.644 296.356, 794 299" fill="none" fill-rule="evenodd" stroke="none" onclick="fillRegion(this)" />
    <path id="back_window_inner" class="region" d="M 803 311.426 C 803 311.729, 804.319 316.144, 805.931 321.238 C 815.505 351.491, 824.850 392.097, 827.970 417 C 828.555 421.675, 829.512 428.504, 830.095 432.175 L 831.155 438.849 834.328 438.434 C 850.009 436.382, 867.916 433.580, 869.750 432.893 C 871.747 432.145, 872 431.360, 872 425.925 C 872 418.191, 868.438 404.757, 862.501 390.096 C 852.251 364.786, 837.918 342.668, 820.967 326 C 813.092 318.256, 803 310.070, 803 311.426" fill="none" fill-rule="evenodd" stroke="none" onclick="fillRegion(this)" />
    <path id="wiper_left" class="region" d="M 502.877 319.353 C 486.533 326.489, 466.597 338.470, 448 352.333 C 439.044 359.009, 429.109 366.820, 428 368.058 C 427.725 368.365, 422.775 372.918, 417 378.175 C 406.797 387.464, 398.701 397, 401.020 397 C 402.385 397, 407.046 393.307, 425 377.996 C 437.899 366.996, 441.953 363.796, 455.500 353.913 C 466.214 346.097, 487.522 332.747, 506.250 322.117 C 509.413 320.322, 512 318.211, 512 317.427 C 512 315.470, 511.553 315.565, 502.877 319.353" fill="none" fill-rule="evenodd" stroke="none" onclick="fillRegion(this)" />
    <path id="wiper_right" class="region" d="M 560 317.924 C 528.115 328.456, 468.272 365.646, 440.697 392.067 C 435.769 396.789, 433.152 399.937, 434.135 399.961 C 435.034 399.982, 440.434 396.618, 446.135 392.485 C 491.581 359.535, 514.553 345.297, 556.949 323.798 C 562.696 320.884, 567.571 317.938, 567.782 317.250 C 568.291 315.595, 566.612 315.740, 560 317.924" fill="none" fill-rule="evenodd" stroke="none" onclick="fillRegion(this)" />
    <path id="mirror_outer" class="region" d="M 227.591 390.573 C 217.189 394.384, 213.056 400.912, 213.022 413.583 C 213.010 418.029, 213.242 421.908, 213.537 422.204 C 213.833 422.499, 218.656 421.342, 224.256 419.632 C 233.615 416.774, 234.883 416.075, 239.968 410.981 C 243.011 407.932, 246.986 402.629, 248.803 399.194 L 252.106 392.950 247.803 390.997 C 242.662 388.663, 233.336 388.468, 227.591 390.573" fill="none" fill-rule="evenodd" stroke="none" onclick="fillRegion(this)" />
    <path id="mirror_inner" class="region" d="M 664 414.829 C 635.774 422.800, 619.829 448.797, 634.699 462.601 C 638.798 466.406, 642.442 468.052, 652.500 470.642 C 679.590 477.618, 706.414 468.248, 711.915 449.888 C 716.177 435.664, 708.675 421.543, 693.805 415.801 C 686.220 412.872, 672.513 412.425, 664 414.829" fill="none" fill-rule="evenodd" stroke="none" onclick="fillRegion(this)" />
    <path id="mirror_glass" class="region" d="M 248.813 427.683 C 249.534 427.972, 250.397 427.936, 250.729 427.604 C 251.061 427.272, 250.471 427.036, 249.417 427.079 C 248.252 427.127, 248.015 427.364, 248.813 427.683" fill="none" fill-rule="evenodd" stroke="none" onclick="fillRegion(this)" />
    <path id="door_handle_outer" class="region" d="M 789.081 478.588 C 776.571 481.952, 771.615 488.597, 774.993 497.480 C 776.442 501.292, 783.022 503.951, 791.068 503.978 C 804.549 504.023, 815 498.166, 815 490.566 C 815 483.753, 811.371 479.734, 803.701 478.052 C 797.635 476.722, 795.767 476.791, 789.081 478.588" fill="none" fill-rule="evenodd" stroke="none" onclick="fillRegion(this)" />
    <path id="door_handle_inner" class="region" d="M 792.414 484.467 C 785.258 485.767, 781.111 487.384, 779.765 489.400 C 778.558 491.208, 778.899 493.756, 780.571 495.429 C 783.661 498.518, 804.844 496.658, 808.826 492.947 C 812.836 489.211, 808.466 482.910, 802 483.105 C 800.625 483.147, 796.311 483.760, 792.414 484.467" fill="none" fill-rule="evenodd" stroke="none" onclick="fillRegion(this)" />
    <path id="headlight_outer" class="region" d="M 113.456 494.934 C 107.598 496.337, 97.857 502.376, 93.159 507.516 C 78.659 523.382, 75.667 546.332, 85.534 566 C 95.156 585.180, 117.850 592.610, 137.500 583.015 C 148.761 577.516, 155.987 569.229, 160.599 556.524 C 165.359 543.411, 164.697 530.604, 158.582 517.500 C 150.750 500.714, 130.856 490.766, 113.456 494.934" fill="none" fill-rule="evenodd" stroke="none" onclick="fillRegion(this)" />
    <path id="headlight_mid" class="region" d="M 114.324 503.383 C 108.019 505.440, 103.498 508.594, 98.645 514.322 C 93.230 520.712, 91.628 523.808, 89.471 532.044 C 86.060 545.075, 89.428 559.972, 97.799 568.878 C 106.624 578.268, 117.625 580.671, 126.097 575.059 C 128.538 573.442, 131.520 570.788, 132.722 569.162 L 134.908 566.205 130.876 563.536 C 125.639 560.071, 123.051 554.424, 123.022 546.399 C 123.010 543.044, 123.483 538.914, 124.073 537.222 C 125.132 534.184, 125.169 534.169, 127.073 536.073 C 129.668 538.668, 130.636 538.518, 134.186 534.968 C 137.230 531.924, 137.556 529.474, 135.543 524.773 C 134.996 523.495, 135.478 522.739, 137.402 521.863 C 140.520 520.442, 140.681 518.097, 138.057 512.316 C 134.412 504.288, 123.798 500.293, 114.324 503.383" fill="none" fill-rule="evenodd" stroke="none" onclick="fillRegion(this)" />
    <path id="fog_light_outer" class="region" d="M 407 511.750 C 387.173 517.129, 373.443 533.788, 369.974 556.674 C 366.585 579.029, 377.574 601.244, 396.695 610.694 C 403.263 613.940, 405.286 614.446, 413.225 614.825 C 418.420 615.073, 424.661 614.733, 427.886 614.025 C 442.231 610.876, 455.304 599.952, 462.261 585.302 C 466.330 576.732, 466.451 576.181, 466.818 564.432 C 467.159 553.541, 466.949 551.655, 464.669 545.097 C 460.964 534.445, 456.356 527.418, 449.152 521.433 C 437.395 511.666, 421.104 507.923, 407 511.750" fill="none" fill-rule="evenodd" stroke="none" onclick="fillRegion(this)" />
    <path id="fog_light_inner" class="region" d="M 409.033 520.601 C 396.483 523.973, 385.784 534.730, 381.137 548.644 C 378.195 557.453, 377.587 566.276, 379.345 574.639 C 381.331 584.086, 384.143 589.336, 390.582 595.623 C 403.188 607.930, 419.996 607.881, 430.863 595.503 C 432.588 593.538, 434 591.551, 434 591.087 C 434 590.622, 432.648 589.683, 430.995 588.998 C 427.072 587.373, 422.547 582.148, 420.895 577.336 C 419.063 571.999, 419.306 562.105, 421.404 556.612 C 423.295 551.661, 425 550.564, 425 554.300 C 425 559.077, 429.932 560.575, 433.799 556.972 C 436.647 554.319, 437.543 550.488, 436.072 547.258 C 435.011 544.930, 435.170 544.439, 437.618 542.487 C 440.291 540.356, 440.320 540.216, 439.041 535.646 C 437.120 528.786, 431.088 522.401, 424.750 520.518 C 418.562 518.681, 416.131 518.693, 409.033 520.601" fill="none" fill-rule="evenodd" stroke="none" onclick="fillRegion(this)" />
    <path id="rear_outer" class="region" d="M 884.688 531.502 C 858.100 538.811, 836.159 571.777, 829.034 615.122 L 827.124 626.744 829.265 631.072 C 830.967 634.510, 831.413 637.259, 831.438 644.450 C 831.483 657.177, 829.112 664.622, 822.822 671.505 C 818.664 676.054, 816.721 677.274, 809.427 679.913 C 804.735 681.611, 800.131 683.007, 799.198 683.015 C 798.264 683.024, 796.864 683.433, 796.088 683.925 C 792.771 686.024, 807.783 703.167, 818.374 709.374 C 828.955 715.574, 843.299 718.984, 861.500 719.625 L 874.500 720.083 870.970 718.131 C 866.410 715.608, 859.088 707.751, 854.088 700.015 C 836.858 673.356, 835.385 627.230, 850.552 589.270 C 859.620 566.573, 874.667 549.455, 891.218 543.007 C 897.736 540.467, 900.319 540, 907.842 540 C 913.231 540, 918.440 540.597, 921.030 541.511 C 923.385 542.342, 925.486 542.848, 925.698 542.635 C 926.343 541.990, 919.989 537.035, 915.735 534.865 C 906.164 529.982, 894.723 528.743, 884.688 531.502" fill="none" fill-rule="evenodd" stroke="none" onclick="fillRegion(this)" />
    <path id="rear_body" class="region" d="M 895.452 551.748 C 883.555 556.897, 874.095 565.626, 866.164 578.773 C 853.196 600.267, 846.674 633.389, 850.413 658.762 C 854.117 683.895, 862.425 700.316, 876.251 709.829 C 881.185 713.223, 889.656 716, 895.076 716 C 905.728 716, 920.683 707.432, 929.481 696.287 C 935.460 688.715, 944.306 670.736, 947.411 659.850 C 954.348 635.523, 954.023 605.119, 946.594 583.275 C 942.138 570.176, 932.133 557.666, 922.300 552.900 C 915.819 549.760, 901.468 549.144, 895.452 551.748" fill="none" fill-rule="evenodd" stroke="none" onclick="fillRegion(this)" />
    <path id="grille_outer" class="region" d="M 180.801 560.250 C 180.016 561.641, 179.561 565.936, 179.609 571.500 C 179.825 596.434, 192.933 613.815, 219.214 624.013 C 232.149 629.033, 241.599 630.500, 261 630.500 C 276.507 630.500, 279.354 630.235, 286 628.172 C 294.506 625.532, 304.412 620.415, 310.147 615.698 C 319.444 608.050, 327.156 594.321, 329.065 582.017 C 330.025 575.834, 329.950 574.573, 328.496 572.353 C 327.173 570.334, 326.267 569.921, 324.162 570.377 C 306.358 574.230, 303.217 574.500, 276.500 574.468 C 247.549 574.433, 235.841 573.283, 215.518 568.481 C 203.796 565.712, 191.224 561.413, 188.921 559.388 C 186.455 557.220, 182.260 557.665, 180.801 560.250" fill="none" fill-rule="evenodd" stroke="none" onclick="fillRegion(this)" />
    <path id="front_wheel_outer" class="region" d="M 585.500 567.411 C 557.491 573.836, 535.185 597.941, 520.117 638.066 L 516.206 648.483 518.008 652.016 C 523.018 661.836, 523.327 684.586, 518.630 697.894 C 511.766 717.346, 502.145 725.475, 481.373 729.369 C 473.427 730.860, 473.436 730.828, 477.978 740.678 C 488.349 763.167, 507.542 778.056, 535 784.914 C 547.741 788.096, 565.546 790.341, 574 789.831 L 579.500 789.500 573.500 786.049 C 554.153 774.920, 541.179 752.768, 535.862 721.790 C 534.092 711.476, 533.851 707.169, 534.369 695 C 535.382 671.153, 540.434 651.076, 550.596 630.500 C 556.971 617.593, 563.449 608.616, 572.491 600.157 C 586.491 587.061, 600.416 581.005, 616.500 581.017 C 625.367 581.024, 631.901 582.472, 640.661 586.370 L 646.500 588.969 641 583.909 C 626.567 570.633, 602.563 563.497, 585.500 567.411" fill="none" fill-rule="evenodd" stroke="none" onclick="fillRegion(this)" />
    <path id="grille_inner" class="region" d="M 188.014 573.850 C 188.037 581.944, 188.404 582.417, 196.823 585.242 C 205.925 588.296, 223.401 592.246, 238 594.549 C 252.087 596.772, 295.566 597.694, 307.359 596.020 L 315.930 594.803 317.965 589.364 C 321.505 579.904, 321.715 580.080, 309.250 582.064 C 285.923 585.779, 263.581 585.441, 232.642 580.904 C 219.117 578.921, 208.420 576.278, 194.750 571.540 L 188 569.200 188.014 573.850" fill="none" fill-rule="evenodd" stroke="none" onclick="fillRegion(this)" />
    <path id="rear_wheel_outer" class="region" d="M 967.500 572.665 C 964.750 574.558, 961.903 576.457, 961.173 576.886 C 960.083 577.527, 960.129 578.637, 961.436 583.132 C 962.310 586.138, 963.585 593.927, 964.269 600.440 L 965.512 612.281 968.700 609.599 C 972.478 606.420, 975.796 598.245, 976.659 589.991 C 977.318 583.687, 975.486 571.631, 973.643 570.146 C 972.892 569.540, 970.786 570.404, 967.500 572.665" fill="none" fill-rule="evenodd" stroke="none" onclick="fillRegion(this)" />
    <path id="rear_wheel_mid1" class="region" d="M 898.625 586.469 C 888.900 589.936, 880.122 603.667, 875.910 622 C 874.262 629.177, 874.291 648.009, 875.961 655 C 881.705 679.038, 899.296 687.082, 913.323 672.085 C 922.637 662.129, 926.971 649.445, 927.703 630 C 928.425 610.855, 925.755 600.485, 917.759 591.379 C 912.376 585.248, 906.373 583.707, 898.625 586.469" fill="none" fill-rule="evenodd" stroke="none" onclick="fillRegion(this)" />
    <path id="grille_teeth" class="region" d="M 192.032 590.643 C 192.050 591.114, 193.789 593.883, 195.896 596.797 C 203.094 606.746, 219.071 615.936, 235.474 619.564 C 246.435 621.987, 268.818 622.560, 278.773 620.671 C 289.404 618.654, 300.602 613.214, 306.583 607.161 L 311.189 602.500 306.892 602.183 C 304.529 602.008, 299.837 602.346, 296.466 602.933 C 281.885 605.472, 246.607 603.283, 224.040 598.440 C 214.317 596.353, 197.792 591.960, 193.250 590.255 C 192.563 589.997, 192.015 590.172, 192.032 590.643" fill="none" fill-rule="evenodd" stroke="none" onclick="fillRegion(this)" />
    <path id="front_wheel_mid1" class="region" d="M 605.265 592.484 C 579.828 599.615, 558.132 627.160, 548.934 664 C 542.891 688.205, 542.760 710.405, 548.532 732 C 554.540 754.475, 567.130 772, 582.849 779.771 C 590.184 783.396, 590.700 783.500, 601.447 783.500 C 612.138 783.500, 612.755 783.378, 620.281 779.785 C 638.515 771.078, 651.623 756.293, 661.507 733.283 C 670.339 712.726, 673.512 694.819, 672.721 670 C 672.089 650.176, 669.451 638.425, 662.506 624.495 C 654.540 608.521, 644.299 598.117, 632.275 593.786 C 624.844 591.109, 612.322 590.505, 605.265 592.484" fill="none" fill-rule="evenodd" stroke="none" onclick="fillRegion(this)" />
    <path id="rear_wheel_mid2" class="region" d="M 899.371 596.038 C 890.513 601.714, 883 621.408, 883 638.951 C 883 653.830, 887.553 666.047, 894.335 669.368 C 898.005 671.165, 898.299 671.169, 902.071 669.468 C 917.380 662.564, 924.993 623.870, 915.049 603.500 C 910.672 594.534, 905.535 592.089, 899.371 596.038" fill="none" fill-rule="evenodd" stroke="none" onclick="fillRegion(this)" />
    <path id="bumper_rear" class="region" d="M 58.027 604.250 C 55.111 610.908, 53.714 620.157, 54.180 629.718 C 55.479 656.437, 73.133 668.301, 135.816 684.580 C 234.632 710.242, 423.749 726.898, 481.759 715.048 C 496.261 712.085, 500.514 708.215, 505.693 693.272 C 507.974 686.691, 508.390 683.814, 508.411 674.500 C 508.436 663.009, 507.231 657.424, 504.120 654.609 C 502.570 653.206, 501.273 653.114, 494.908 653.958 C 435.158 661.875, 300.763 657.159, 210.500 643.979 C 134.382 632.864, 83.409 618.675, 66.673 603.944 C 64.209 601.775, 61.674 600, 61.040 600 C 60.406 600, 59.050 601.913, 58.027 604.250" fill="none" fill-rule="evenodd" stroke="none" onclick="fillRegion(this)" />
    <path id="rear_wheel_inner" class="region" d="M 894.369 618.560 C 893.344 620.123, 892.508 623.985, 892.219 628.486 C 891.811 634.843, 892.049 636.344, 893.955 639.427 C 896.822 644.066, 899.270 644.009, 901.636 639.250 C 904.167 634.158, 904.219 622.508, 901.727 618.706 C 899.497 615.303, 896.541 615.244, 894.369 618.560" fill="none" fill-rule="evenodd" stroke="none" onclick="fillRegion(this)" />
    <path id="front_wheel_mid2" class="region" d="M 607.764 633.996 C 590.851 639.088, 577 666.046, 577 693.870 C 577 729.060, 595.949 750.456, 616.534 738.510 C 626.882 732.504, 634.885 719.645, 639.572 701.491 C 641.909 692.443, 642.109 690.179, 641.693 677.500 C 641.100 659.437, 638.702 651.424, 631.095 642.089 C 625.178 634.830, 615.799 631.576, 607.764 633.996" fill="none" fill-rule="evenodd" stroke="none" onclick="fillRegion(this)" />
    <path id="underside" class="region" d="M 800.035 639.105 C 773.658 645.754, 717.707 656.408, 689.250 660.200 C 687.046 660.494, 686.995 660.798, 686.745 675.252 L 686.489 690.004 691.494 689.414 C 736.998 684.053, 808.421 668.613, 813.457 663.048 C 816.355 659.846, 817.910 653.894, 817.956 645.832 C 817.999 638.311, 817.422 634.898, 816.143 635.103 C 815.789 635.160, 808.541 636.961, 800.035 639.105" fill="none" fill-rule="evenodd" stroke="none" onclick="fillRegion(this)" />
    <path id="front_wheel_mid3" class="region" d="M 608.297 644.014 C 601.131 646.899, 591.465 662.930, 588.408 677 C 586.232 687.014, 586.217 703.647, 588.377 712 C 592.855 729.315, 603.203 735.977, 614.005 728.500 C 632.222 715.892, 638.703 668.189, 624.696 649.823 C 619.821 643.432, 614.459 641.533, 608.297 644.014" fill="none" fill-rule="evenodd" stroke="none" onclick="fillRegion(this)" />
    <path id="front_wheel_inner" class="region" d="M 602.722 670.301 C 598.113 677.335, 596.719 688.929, 599.752 695 C 601.145 697.790, 602.087 698.500, 604.392 698.500 C 609.163 698.500, 611.422 694.382, 611.853 684.899 C 612.247 676.222, 611.055 671.852, 607.640 669.460 C 604.884 667.530, 604.494 667.597, 602.722 670.301" fill="none" fill-rule="evenodd" stroke="none" onclick="fillRegion(this)" />
    <path id="bumper_front" class="region" d="M 116.448 696.112 C 116.817 697.425, 118.915 702.215, 121.110 706.755 C 124.127 712.994, 126.981 716.931, 132.801 722.884 C 143.634 733.965, 154.622 739.298, 174 742.880 C 191.861 746.180, 200.461 746.354, 193.707 743.276 C 186.126 739.822, 172.386 722.731, 167.910 711.189 L 165.607 705.250 158.554 703.994 C 154.674 703.303, 144.525 700.962, 136 698.791 C 127.475 696.621, 119.437 694.592, 118.139 694.284 C 116.043 693.787, 115.853 693.993, 116.448 696.112" fill="none" fill-rule="evenodd" stroke="none" onclick="fillRegion(this)" />
    <path id="front_plate" class="region" d="M 180.601 714.990 C 186.100 725.258, 194.652 733.774, 204.158 738.448 C 211.481 742.049, 212.183 742.197, 220.252 741.856 C 227.728 741.541, 229.577 741.049, 236.495 737.536 C 241.821 734.832, 246.361 731.495, 250.777 727.036 L 257.250 720.500 244.375 718.797 C 224.159 716.123, 190.498 710.686, 179.601 708.335 L 176.703 707.710 180.601 714.990" fill="none" fill-rule="evenodd" stroke="none" onclick="fillRegion(this)" />
</g>

<g id="outlines" fill="none" stroke="#111111" stroke-width="3" stroke-linejoin="round" stroke-linecap="round" pointer-events="none">
    <path d="M 549.500 211.641 C 519.568 213.570, 485.225 217.943, 460.591 222.963 C 426.078 229.996, 403.257 237.366, 378.500 249.476 C 355.332 260.808, 341.197 270.943, 320.650 290.957 C 300 311.071, 281.206 336.140, 264.015 366.500 C 259.966 373.650, 256.579 379.614, 256.489 379.754 C 256.399 379.894, 254.958 379.327, 253.287 378.494 C 248.539 376.125, 239.069 374.738, 232.614 375.466 C 211.378 377.862, 198.560 392.964, 198.848 415.247 C 198.904 419.572, 199.171 423.468, 199.442 423.906 C 199.712 424.344, 198.036 425.305, 195.717 426.043 C 188.089 428.469, 158.651 439.754, 151 443.186 C 123.605 455.473, 100.267 470.842, 86.212 485.853 C 78.697 493.879, 70.306 506.749, 66.010 516.839 C 58.122 535.361, 53 559.471, 53 578.074 C 53 586.570, 52.786 587.615, 50.572 589.945 C 44.186 596.663, 39.792 610.826, 39.695 625 C 39.556 645.155, 47.609 661.197, 63.586 672.599 C 69.872 677.084, 87.611 685.617, 95.619 688.008 C 99.522 689.174, 99.824 689.547, 101.377 695.131 C 105.546 710.128, 115.270 726.359, 126.080 736.368 C 143.475 752.472, 174.007 760.828, 208.509 758.925 C 235.111 757.458, 252.666 748.150, 269.537 726.567 L 272.574 722.682 291.537 724.832 C 337.862 730.085, 376.196 732.273, 424.204 732.403 L 459.908 732.500 460.530 735 C 461.791 740.070, 469.001 754.175, 474.110 761.564 C 484.986 777.298, 500.143 788.296, 520.393 795.147 C 552.467 805.999, 585.128 806.804, 613.979 797.454 C 627.216 793.165, 637.457 787.185, 647.280 778.012 C 664.942 761.518, 677.633 738.327, 683.458 711.905 L 685.132 704.309 701.816 702.098 C 722.523 699.354, 743.659 695.772, 764.500 691.476 C 773.300 689.662, 780.627 688.518, 780.781 688.933 C 780.936 689.348, 783.290 693.081, 786.012 697.227 C 792.986 707.850, 803.960 717.793, 814.268 722.830 C 837.445 734.153, 873.228 737.268, 900.904 730.373 C 936.177 721.585, 959.592 688.014, 966.083 636.928 L 967.299 627.356 973.067 623.622 C 982.864 617.278, 988.322 607.367, 990.001 592.874 C 991.107 583.321, 989.825 573.729, 986.356 565.614 C 984.020 560.149, 983.704 557.947, 983.377 544.880 C 982.751 519.909, 977.715 498.306, 968.037 479.084 C 960.274 463.664, 947.726 449.852, 932.904 440.411 L 924.309 434.936 923.059 427.940 C 917.193 395.116, 899.770 354.868, 877.632 323 C 864.681 304.356, 846.335 285.332, 828.749 272.310 C 816.592 263.309, 813.569 261.398, 799.424 253.778 C 766.136 235.844, 726.849 223.668, 680.867 217.036 C 650.746 212.691, 637.709 211.848, 596 211.547 C 573.725 211.386, 552.800 211.428, 549.500 211.641" />
    <path d="M 556.884 225.060 C 486.451 228.711, 427.100 241.330, 385.500 261.500 C 338.532 284.273, 304.589 320.935, 266.995 389.500 C 256.123 409.328, 251.816 415.855, 245.609 421.916 C 243.122 424.344, 241.274 426.635, 241.503 427.005 C 241.732 427.376, 240.468 427.734, 238.694 427.800 C 233.404 427.999, 189.877 442.347, 170.500 450.278 C 137.163 463.925, 116.066 476.519, 99.428 492.705 C 84.604 507.127, 75.438 525.274, 69.984 551 C 67.297 563.673, 65.426 587.593, 66.841 591.181 C 68.083 594.332, 76.527 600.823, 83.550 604.025 C 94.161 608.863, 97.697 610.169, 110.376 613.935 C 140.631 622.922, 189.873 632.386, 230 636.926 C 234.675 637.455, 244.350 638.577, 251.500 639.420 C 331.936 648.896, 447.990 651.383, 495.424 644.645 L 503.489 643.500 507.215 633.500 C 523.330 590.246, 548.706 562.927, 580.327 554.790 C 601.465 549.351, 625.972 554.266, 644.115 567.585 C 654.918 575.514, 666.129 589.621, 672.412 603.190 C 679.244 617.943, 685 638.482, 685 648.107 L 685 651.144 690.750 650.484 C 710.851 648.175, 758.583 639.364, 791.500 631.886 C 798.650 630.261, 806.601 628.468, 809.169 627.901 L 813.839 626.869 815.513 617.184 C 817.904 603.347, 822.392 585.774, 826.042 575.954 C 829.136 567.630, 829.480 565.463, 831.984 538.500 C 834.767 508.537, 831.797 475.791, 824.551 456.540 C 821.679 448.910, 821.621 448.647, 822.972 449.482 C 826.462 451.640, 832.520 473.429, 834.097 489.500 C 835.579 504.603, 834.718 538.894, 832.518 552.370 C 831.632 557.799, 831.085 562.418, 831.302 562.636 C 831.519 562.853, 833.382 560.300, 835.442 556.963 C 848.833 535.267, 865.975 521.812, 885.858 517.388 C 898.171 514.649, 913.428 517.064, 924.390 523.489 C 937.668 531.270, 951.629 549.566, 956.067 565 C 956.778 567.475, 957.489 569.672, 957.646 569.882 C 957.803 570.093, 960.694 568.518, 964.070 566.382 L 970.210 562.500 969.618 546.424 C 968.248 509.196, 957.614 481.237, 937.592 462.218 C 929.580 454.607, 912.239 443.640, 905.509 441.927 C 899.658 440.438, 896 438.880, 896 437.879 C 896 436.631, 898.680 436.805, 904.890 438.458 L 910.279 439.893 909.672 433.386 C 909.337 429.807, 908.315 424.318, 907.400 421.189 C 895.555 380.681, 884.907 357.482, 865.777 330.500 C 818.554 263.896, 741.982 231.430, 617 225.019 C 595.392 223.911, 578.839 223.922, 556.884 225.060" />
    <path d="M 455 263.017 C 431.504 264.814, 416.377 266.808, 389.082 271.703 C 386.120 272.234, 385.754 272.084, 386.333 270.574 C 387.127 268.505, 386.810 268.612, 380.612 272.500 C 357.536 286.976, 354.330 289.472, 338.991 304.900 C 321.986 322.006, 309.863 337.330, 297.377 357.501 C 289.501 370.226, 279.672 388.580, 276.513 396.462 C 273.747 403.363, 273.467 411.007, 275.788 416.254 C 279.603 424.878, 284.771 426.299, 325.829 430.012 C 367.467 433.777, 383.134 435.235, 422.500 439.008 C 439.550 440.642, 460.925 442.676, 470 443.529 C 479.075 444.381, 495.725 446.156, 507 447.473 C 542.060 451.568, 551.117 452.288, 560.179 451.701 C 575.632 450.700, 585.175 444.556, 591.817 431.334 C 601.970 411.121, 621.376 356.396, 632.539 316.500 C 636.990 300.592, 636.948 294.994, 632.336 289.240 C 625.025 280.118, 601.769 272.953, 558.500 266.490 C 536.478 263.201, 478.171 261.244, 455 263.017" />
    <path d="M 456 274.676 C 434.762 276.216, 395.067 281.912, 383.500 285.079 C 358.925 291.809, 310.555 347.349, 290.673 391.668 C 285.967 402.158, 285.097 408.097, 287.862 410.862 C 291.495 414.495, 299.683 415.833, 340.500 419.466 C 385.792 423.497, 418.118 426.541, 468 431.473 C 562.552 440.821, 558.258 440.483, 564.610 439.083 C 572.683 437.303, 577.859 431.866, 585.204 417.446 C 598.425 391.493, 625.234 310.393, 623.554 301.435 C 622.814 297.493, 618.812 293.689, 612.622 291.045 C 597.789 284.709, 559.189 277.751, 523.605 274.998 C 511.899 274.092, 466.997 273.878, 456 274.676" />
    <path d="M 710 279.068 C 680.752 286.705, 662.318 306.043, 645.719 346.500 C 639.658 361.272, 631.845 383.944, 627.971 398 C 626.228 404.325, 623.987 412.231, 622.990 415.569 C 621.993 418.907, 620.865 423.857, 620.484 426.569 C 620.103 429.281, 618.736 433.075, 617.447 435 C 613.377 441.077, 611.795 453.123, 614.017 461.123 C 615.398 466.094, 621.691 472.931, 628.015 476.330 C 630.911 477.886, 639.180 480.640, 646.390 482.450 L 659.500 485.741 660.638 498.620 C 661.264 505.704, 662.924 516.450, 664.325 522.500 C 668.111 538.840, 671.607 557.861, 673.514 572.500 C 676.255 593.542, 676.994 596.106, 676.542 583 C 676.091 569.954, 672.835 546.920, 669.969 536.500 C 666.536 524.024, 663.221 505.733, 662.583 495.750 L 661.960 486 671.843 486 C 684.860 486, 690.741 484.781, 700.493 480.060 C 709.077 475.906, 717.760 468.407, 719.861 463.336 L 721.054 460.456 740.899 458.682 C 772.731 455.838, 806.125 451.304, 807.834 449.594 C 811.059 446.369, 807.680 412.737, 800.391 375.500 C 791.102 328.051, 777.902 295.909, 763.690 286.131 C 751.186 277.528, 727.721 274.441, 710 279.068" />
    <path d="M 768.190 284.091 C 768.680 285.582, 774.009 287.745, 780.250 288.986 C 786.360 290.201, 784.527 288.337, 777.250 285.935 C 773.538 284.710, 769.876 283.476, 769.114 283.194 C 768.245 282.873, 767.900 283.208, 768.190 284.091" />
    <path d="M 716.500 290.485 C 706.691 292.654, 700.911 294.931, 693.332 299.612 C 675.210 310.806, 662.002 332.735, 645.816 378.500 C 640.722 392.904, 633.875 416, 634.699 416 C 634.955 416, 637.039 414.481, 639.332 412.625 C 653.777 400.927, 678.716 396.754, 697 402.975 C 705.248 405.781, 715.026 412.724, 719.129 418.688 C 724.162 426.002, 726 431.975, 726 441.011 L 726 449 728.750 448.994 C 733.214 448.983, 770.433 445.196, 784.365 443.335 L 797.230 441.616 796.566 431.558 C 793.298 382.078, 776.428 317.499, 762.541 301.310 C 754.249 291.643, 733.418 286.746, 716.500 290.485" />
    <path d="M 794 299 C 791.059 301.941, 791.486 305.620, 796.536 320.834 C 808.376 356.503, 817.834 401.280, 820.609 434.804 C 821.519 445.796, 823.149 448.007, 830.323 447.982 C 836.142 447.962, 872.471 442.663, 878.242 440.993 C 883.113 439.584, 883.662 437.309, 882.220 424.500 C 879.876 403.667, 867.314 371.818, 852.250 348.512 C 839.257 328.413, 820.122 309.075, 803.912 299.664 C 798.420 296.475, 796.644 296.356, 794 299" />
    <path d="M 803 311.426 C 803 311.729, 804.319 316.144, 805.931 321.238 C 815.505 351.491, 824.850 392.097, 827.970 417 C 828.555 421.675, 829.512 428.504, 830.095 432.175 L 831.155 438.849 834.328 438.434 C 850.009 436.382, 867.916 433.580, 869.750 432.893 C 871.747 432.145, 872 431.360, 872 425.925 C 872 418.191, 868.438 404.757, 862.501 390.096 C 852.251 364.786, 837.918 342.668, 820.967 326 C 813.092 318.256, 803 310.070, 803 311.426" />
    <path d="M 502.877 319.353 C 486.533 326.489, 466.597 338.470, 448 352.333 C 439.044 359.009, 429.109 366.820, 428 368.058 C 427.725 368.365, 422.775 372.918, 417 378.175 C 406.797 387.464, 398.701 397, 401.020 397 C 402.385 397, 407.046 393.307, 425 377.996 C 437.899 366.996, 441.953 363.796, 455.500 353.913 C 466.214 346.097, 487.522 332.747, 506.250 322.117 C 509.413 320.322, 512 318.211, 512 317.427 C 512 315.470, 511.553 315.565, 502.877 319.353" />
    <path d="M 560 317.924 C 528.115 328.456, 468.272 365.646, 440.697 392.067 C 435.769 396.789, 433.152 399.937, 434.135 399.961 C 435.034 399.982, 440.434 396.618, 446.135 392.485 C 491.581 359.535, 514.553 345.297, 556.949 323.798 C 562.696 320.884, 567.571 317.938, 567.782 317.250 C 568.291 315.595, 566.612 315.740, 560 317.924" />
    <path d="M 227.591 390.573 C 217.189 394.384, 213.056 400.912, 213.022 413.583 C 213.010 418.029, 213.242 421.908, 213.537 422.204 C 213.833 422.499, 218.656 421.342, 224.256 419.632 C 233.615 416.774, 234.883 416.075, 239.968 410.981 C 243.011 407.932, 246.986 402.629, 248.803 399.194 L 252.106 392.950 247.803 390.997 C 242.662 388.663, 233.336 388.468, 227.591 390.573" />
    <path d="M 664 414.829 C 635.774 422.800, 619.829 448.797, 634.699 462.601 C 638.798 466.406, 642.442 468.052, 652.500 470.642 C 679.590 477.618, 706.414 468.248, 711.915 449.888 C 716.177 435.664, 708.675 421.543, 693.805 415.801 C 686.220 412.872, 672.513 412.425, 664 414.829" />
    <path d="M 248.813 427.683 C 249.534 427.972, 250.397 427.936, 250.729 427.604 C 251.061 427.272, 250.471 427.036, 249.417 427.079 C 248.252 427.127, 248.015 427.364, 248.813 427.683" />
    <path d="M 789.081 478.588 C 776.571 481.952, 771.615 488.597, 774.993 497.480 C 776.442 501.292, 783.022 503.951, 791.068 503.978 C 804.549 504.023, 815 498.166, 815 490.566 C 815 483.753, 811.371 479.734, 803.701 478.052 C 797.635 476.722, 795.767 476.791, 789.081 478.588" />
    <path d="M 792.414 484.467 C 785.258 485.767, 781.111 487.384, 779.765 489.400 C 778.558 491.208, 778.899 493.756, 780.571 495.429 C 783.661 498.518, 804.844 496.658, 808.826 492.947 C 812.836 489.211, 808.466 482.910, 802 483.105 C 800.625 483.147, 796.311 483.760, 792.414 484.467" />
    <path d="M 113.456 494.934 C 107.598 496.337, 97.857 502.376, 93.159 507.516 C 78.659 523.382, 75.667 546.332, 85.534 566 C 95.156 585.180, 117.850 592.610, 137.500 583.015 C 148.761 577.516, 155.987 569.229, 160.599 556.524 C 165.359 543.411, 164.697 530.604, 158.582 517.500 C 150.750 500.714, 130.856 490.766, 113.456 494.934" />
    <path d="M 114.324 503.383 C 108.019 505.440, 103.498 508.594, 98.645 514.322 C 93.230 520.712, 91.628 523.808, 89.471 532.044 C 86.060 545.075, 89.428 559.972, 97.799 568.878 C 106.624 578.268, 117.625 580.671, 126.097 575.059 C 128.538 573.442, 131.520 570.788, 132.722 569.162 L 134.908 566.205 130.876 563.536 C 125.639 560.071, 123.051 554.424, 123.022 546.399 C 123.010 543.044, 123.483 538.914, 124.073 537.222 C 125.132 534.184, 125.169 534.169, 127.073 536.073 C 129.668 538.668, 130.636 538.518, 134.186 534.968 C 137.230 531.924, 137.556 529.474, 135.543 524.773 C 134.996 523.495, 135.478 522.739, 137.402 521.863 C 140.520 520.442, 140.681 518.097, 138.057 512.316 C 134.412 504.288, 123.798 500.293, 114.324 503.383" />
    <path d="M 407 511.750 C 387.173 517.129, 373.443 533.788, 369.974 556.674 C 366.585 579.029, 377.574 601.244, 396.695 610.694 C 403.263 613.940, 405.286 614.446, 413.225 614.825 C 418.420 615.073, 424.661 614.733, 427.886 614.025 C 442.231 610.876, 455.304 599.952, 462.261 585.302 C 466.330 576.732, 466.451 576.181, 466.818 564.432 C 467.159 553.541, 466.949 551.655, 464.669 545.097 C 460.964 534.445, 456.356 527.418, 449.152 521.433 C 437.395 511.666, 421.104 507.923, 407 511.750" />
    <path d="M 409.033 520.601 C 396.483 523.973, 385.784 534.730, 381.137 548.644 C 378.195 557.453, 377.587 566.276, 379.345 574.639 C 381.331 584.086, 384.143 589.336, 390.582 595.623 C 403.188 607.930, 419.996 607.881, 430.863 595.503 C 432.588 593.538, 434 591.551, 434 591.087 C 434 590.622, 432.648 589.683, 430.995 588.998 C 427.072 587.373, 422.547 582.148, 420.895 577.336 C 419.063 571.999, 419.306 562.105, 421.404 556.612 C 423.295 551.661, 425 550.564, 425 554.300 C 425 559.077, 429.932 560.575, 433.799 556.972 C 436.647 554.319, 437.543 550.488, 436.072 547.258 C 435.011 544.930, 435.170 544.439, 437.618 542.487 C 440.291 540.356, 440.320 540.216, 439.041 535.646 C 437.120 528.786, 431.088 522.401, 424.750 520.518 C 418.562 518.681, 416.131 518.693, 409.033 520.601" />
    <path d="M 884.688 531.502 C 858.100 538.811, 836.159 571.777, 829.034 615.122 L 827.124 626.744 829.265 631.072 C 830.967 634.510, 831.413 637.259, 831.438 644.450 C 831.483 657.177, 829.112 664.622, 822.822 671.505 C 818.664 676.054, 816.721 677.274, 809.427 679.913 C 804.735 681.611, 800.131 683.007, 799.198 683.015 C 798.264 683.024, 796.864 683.433, 796.088 683.925 C 792.771 686.024, 807.783 703.167, 818.374 709.374 C 828.955 715.574, 843.299 718.984, 861.500 719.625 L 874.500 720.083 870.970 718.131 C 866.410 715.608, 859.088 707.751, 854.088 700.015 C 836.858 673.356, 835.385 627.230, 850.552 589.270 C 859.620 566.573, 874.667 549.455, 891.218 543.007 C 897.736 540.467, 900.319 540, 907.842 540 C 913.231 540, 918.440 540.597, 921.030 541.511 C 923.385 542.342, 925.486 542.848, 925.698 542.635 C 926.343 541.990, 919.989 537.035, 915.735 534.865 C 906.164 529.982, 894.723 528.743, 884.688 531.502" />
    <path d="M 895.452 551.748 C 883.555 556.897, 874.095 565.626, 866.164 578.773 C 853.196 600.267, 846.674 633.389, 850.413 658.762 C 854.117 683.895, 862.425 700.316, 876.251 709.829 C 881.185 713.223, 889.656 716, 895.076 716 C 905.728 716, 920.683 707.432, 929.481 696.287 C 935.460 688.715, 944.306 670.736, 947.411 659.850 C 954.348 635.523, 954.023 605.119, 946.594 583.275 C 942.138 570.176, 932.133 557.666, 922.300 552.900 C 915.819 549.760, 901.468 549.144, 895.452 551.748" />
    <path d="M 180.801 560.250 C 180.016 561.641, 179.561 565.936, 179.609 571.500 C 179.825 596.434, 192.933 613.815, 219.214 624.013 C 232.149 629.033, 241.599 630.500, 261 630.500 C 276.507 630.500, 279.354 630.235, 286 628.172 C 294.506 625.532, 304.412 620.415, 310.147 615.698 C 319.444 608.050, 327.156 594.321, 329.065 582.017 C 330.025 575.834, 329.950 574.573, 328.496 572.353 C 327.173 570.334, 326.267 569.921, 324.162 570.377 C 306.358 574.230, 303.217 574.500, 276.500 574.468 C 247.549 574.433, 235.841 573.283, 215.518 568.481 C 203.796 565.712, 191.224 561.413, 188.921 559.388 C 186.455 557.220, 182.260 557.665, 180.801 560.250" />
    <path d="M 585.500 567.411 C 557.491 573.836, 535.185 597.941, 520.117 638.066 L 516.206 648.483 518.008 652.016 C 523.018 661.836, 523.327 684.586, 518.630 697.894 C 511.766 717.346, 502.145 725.475, 481.373 729.369 C 473.427 730.860, 473.436 730.828, 477.978 740.678 C 488.349 763.167, 507.542 778.056, 535 784.914 C 547.741 788.096, 565.546 790.341, 574 789.831 L 579.500 789.500 573.500 786.049 C 554.153 774.920, 541.179 752.768, 535.862 721.790 C 534.092 711.476, 533.851 707.169, 534.369 695 C 535.382 671.153, 540.434 651.076, 550.596 630.500 C 556.971 617.593, 563.449 608.616, 572.491 600.157 C 586.491 587.061, 600.416 581.005, 616.500 581.017 C 625.367 581.024, 631.901 582.472, 640.661 586.370 L 646.500 588.969 641 583.909 C 626.567 570.633, 602.563 563.497, 585.500 567.411" />
    <path d="M 188.014 573.850 C 188.037 581.944, 188.404 582.417, 196.823 585.242 C 205.925 588.296, 223.401 592.246, 238 594.549 C 252.087 596.772, 295.566 597.694, 307.359 596.020 L 315.930 594.803 317.965 589.364 C 321.505 579.904, 321.715 580.080, 309.250 582.064 C 285.923 585.779, 263.581 585.441, 232.642 580.904 C 219.117 578.921, 208.420 576.278, 194.750 571.540 L 188 569.200 188.014 573.850" />
    <path d="M 967.500 572.665 C 964.750 574.558, 961.903 576.457, 961.173 576.886 C 960.083 577.527, 960.129 578.637, 961.436 583.132 C 962.310 586.138, 963.585 593.927, 964.269 600.440 L 965.512 612.281 968.700 609.599 C 972.478 606.420, 975.796 598.245, 976.659 589.991 C 977.318 583.687, 975.486 571.631, 973.643 570.146 C 972.892 569.540, 970.786 570.404, 967.500 572.665" />
    <path d="M 898.625 586.469 C 888.900 589.936, 880.122 603.667, 875.910 622 C 874.262 629.177, 874.291 648.009, 875.961 655 C 881.705 679.038, 899.296 687.082, 913.323 672.085 C 922.637 662.129, 926.971 649.445, 927.703 630 C 928.425 610.855, 925.755 600.485, 917.759 591.379 C 912.376 585.248, 906.373 583.707, 898.625 586.469" />
    <path d="M 192.032 590.643 C 192.050 591.114, 193.789 593.883, 195.896 596.797 C 203.094 606.746, 219.071 615.936, 235.474 619.564 C 246.435 621.987, 268.818 622.560, 278.773 620.671 C 289.404 618.654, 300.602 613.214, 306.583 607.161 L 311.189 602.500 306.892 602.183 C 304.529 602.008, 299.837 602.346, 296.466 602.933 C 281.885 605.472, 246.607 603.283, 224.040 598.440 C 214.317 596.353, 197.792 591.960, 193.250 590.255 C 192.563 589.997, 192.015 590.172, 192.032 590.643" />
    <path d="M 605.265 592.484 C 579.828 599.615, 558.132 627.160, 548.934 664 C 542.891 688.205, 542.760 710.405, 548.532 732 C 554.540 754.475, 567.130 772, 582.849 779.771 C 590.184 783.396, 590.700 783.500, 601.447 783.500 C 612.138 783.500, 612.755 783.378, 620.281 779.785 C 638.515 771.078, 651.623 756.293, 661.507 733.283 C 670.339 712.726, 673.512 694.819, 672.721 670 C 672.089 650.176, 669.451 638.425, 662.506 624.495 C 654.540 608.521, 644.299 598.117, 632.275 593.786 C 624.844 591.109, 612.322 590.505, 605.265 592.484" />
    <path d="M 899.371 596.038 C 890.513 601.714, 883 621.408, 883 638.951 C 883 653.830, 887.553 666.047, 894.335 669.368 C 898.005 671.165, 898.299 671.169, 902.071 669.468 C 917.380 662.564, 924.993 623.870, 915.049 603.500 C 910.672 594.534, 905.535 592.089, 899.371 596.038" />
    <path d="M 58.027 604.250 C 55.111 610.908, 53.714 620.157, 54.180 629.718 C 55.479 656.437, 73.133 668.301, 135.816 684.580 C 234.632 710.242, 423.749 726.898, 481.759 715.048 C 496.261 712.085, 500.514 708.215, 505.693 693.272 C 507.974 686.691, 508.390 683.814, 508.411 674.500 C 508.436 663.009, 507.231 657.424, 504.120 654.609 C 502.570 653.206, 501.273 653.114, 494.908 653.958 C 435.158 661.875, 300.763 657.159, 210.500 643.979 C 134.382 632.864, 83.409 618.675, 66.673 603.944 C 64.209 601.775, 61.674 600, 61.040 600 C 60.406 600, 59.050 601.913, 58.027 604.250" />
    <path d="M 894.369 618.560 C 893.344 620.123, 892.508 623.985, 892.219 628.486 C 891.811 634.843, 892.049 636.344, 893.955 639.427 C 896.822 644.066, 899.270 644.009, 901.636 639.250 C 904.167 634.158, 904.219 622.508, 901.727 618.706 C 899.497 615.303, 896.541 615.244, 894.369 618.560" />
    <path d="M 607.764 633.996 C 590.851 639.088, 577 666.046, 577 693.870 C 577 729.060, 595.949 750.456, 616.534 738.510 C 626.882 732.504, 634.885 719.645, 639.572 701.491 C 641.909 692.443, 642.109 690.179, 641.693 677.500 C 641.100 659.437, 638.702 651.424, 631.095 642.089 C 625.178 634.830, 615.799 631.576, 607.764 633.996" />
    <path d="M 800.035 639.105 C 773.658 645.754, 717.707 656.408, 689.250 660.200 C 687.046 660.494, 686.995 660.798, 686.745 675.252 L 686.489 690.004 691.494 689.414 C 736.998 684.053, 808.421 668.613, 813.457 663.048 C 816.355 659.846, 817.910 653.894, 817.956 645.832 C 817.999 638.311, 817.422 634.898, 816.143 635.103 C 815.789 635.160, 808.541 636.961, 800.035 639.105" />
    <path d="M 608.297 644.014 C 601.131 646.899, 591.465 662.930, 588.408 677 C 586.232 687.014, 586.217 703.647, 588.377 712 C 592.855 729.315, 603.203 735.977, 614.005 728.500 C 632.222 715.892, 638.703 668.189, 624.696 649.823 C 619.821 643.432, 614.459 641.533, 608.297 644.014" />
    <path d="M 602.722 670.301 C 598.113 677.335, 596.719 688.929, 599.752 695 C 601.145 697.790, 602.087 698.500, 604.392 698.500 C 609.163 698.500, 611.422 694.382, 611.853 684.899 C 612.247 676.222, 611.055 671.852, 607.640 669.460 C 604.884 667.530, 604.494 667.597, 602.722 670.301" />
    <path d="M 116.448 696.112 C 116.817 697.425, 118.915 702.215, 121.110 706.755 C 124.127 712.994, 126.981 716.931, 132.801 722.884 C 143.634 733.965, 154.622 739.298, 174 742.880 C 191.861 746.180, 200.461 746.354, 193.707 743.276 C 186.126 739.822, 172.386 722.731, 167.910 711.189 L 165.607 705.250 158.554 703.994 C 154.674 703.303, 144.525 700.962, 136 698.791 C 127.475 696.621, 119.437 694.592, 118.139 694.284 C 116.043 693.787, 115.853 693.993, 116.448 696.112" />
    <path d="M 180.601 714.990 C 186.100 725.258, 194.652 733.774, 204.158 738.448 C 211.481 742.049, 212.183 742.197, 220.252 741.856 C 227.728 741.541, 229.577 741.049, 236.495 737.536 C 241.821 734.832, 246.361 731.495, 250.777 727.036 L 257.250 720.500 244.375 718.797 C 224.159 716.123, 190.498 710.686, 179.601 708.335 L 176.703 707.710 180.601 714.990" />
</g>

<rect x="0" y="860" width="1024" height="224" fill="#1a1a2e"/>
<rect x="0" y="860" width="1024" height="5" fill="#e94560"/>
<text x="14" y="880" font-family="sans-serif" font-size="12" fill="#f5a623" font-weight="bold">🎨 اختر لون:</text>

  <rect class="swatch" x="20" y="870" width="32" height="28" rx="6" fill="#FF6B6B" onclick="pick('#FF6B6B', this)" />
  <rect class="swatch" x="62" y="870" width="32" height="28" rx="6" fill="#FF8E53" onclick="pick('#FF8E53', this)" />
  <rect class="swatch" x="104" y="870" width="32" height="28" rx="6" fill="#FFC107" onclick="pick('#FFC107', this)" />
  <rect class="swatch" x="146" y="870" width="32" height="28" rx="6" fill="#A8E063" onclick="pick('#A8E063', this)" />
  <rect class="swatch" x="188" y="870" width="32" height="28" rx="6" fill="#56CCF2" onclick="pick('#56CCF2', this)" />
  <rect class="swatch" x="20" y="906" width="32" height="28" rx="6" fill="#764BA2" onclick="pick('#764BA2', this)" />
  <rect class="swatch" x="62" y="906" width="32" height="28" rx="6" fill="#F093FB" onclick="pick('#F093FB', this)" />
  <rect class="swatch" x="104" y="906" width="32" height="28" rx="6" fill="#4ECDC4" onclick="pick('#4ECDC4', this)" />
  <rect class="swatch" x="146" y="906" width="32" height="28" rx="6" fill="#D62839" onclick="pick('#D62839', this)" />
  <rect class="swatch" x="188" y="906" width="32" height="28" rx="6" fill="#E84393" onclick="pick('#E84393', this)" />
  <rect class="swatch" x="20" y="942" width="32" height="28" rx="6" fill="#F7B731" onclick="pick('#F7B731', this)" />
  <rect class="swatch" x="62" y="942" width="32" height="28" rx="6" fill="#20BF6B" onclick="pick('#20BF6B', this)" />
  <rect class="swatch" x="104" y="942" width="32" height="28" rx="6" fill="#0652DD" onclick="pick('#0652DD', this)" />
  <rect class="swatch" x="146" y="942" width="32" height="28" rx="6" fill="#C0392B" onclick="pick('#C0392B', this)" />
  <rect class="swatch" x="188" y="942" width="32" height="28" rx="6" fill="#2C3E50" onclick="pick('#2C3E50', this)" />
  <rect class="swatch" x="20" y="978" width="32" height="28" rx="6" fill="#8E44AD" onclick="pick('#8E44AD', this)" />
  <rect class="swatch" x="62" y="978" width="32" height="28" rx="6" fill="#1ABC9C" onclick="pick('#1ABC9C', this)" />
  <rect class="swatch" x="104" y="978" width="32" height="28" rx="6" fill="#E67E22" onclick="pick('#E67E22', this)" />
  <rect class="swatch" x="146" y="978" width="32" height="28" rx="6" fill="#2980B9" onclick="pick('#2980B9', this)" />
  <rect class="swatch" x="188" y="978" width="32" height="28" rx="6" fill="#27AE60" onclick="pick('#27AE60', this)" />
  <rect class="swatch" x="20" y="1014" width="32" height="28" rx="6" fill="#FF5252" onclick="pick('#FF5252', this)" />
  <rect class="swatch" x="62" y="1014" width="32" height="28" rx="6" fill="#FF6F00" onclick="pick('#FF6F00', this)" />
  <rect class="swatch" x="104" y="1014" width="32" height="28" rx="6" fill="#E040FB" onclick="pick('#E040FB', this)" />
  <rect class="swatch" x="146" y="1014" width="32" height="28" rx="6" fill="#00BCD4" onclick="pick('#00BCD4', this)" />
  <rect class="swatch" x="188" y="1014" width="32" height="28" rx="6" fill="#8BC34A" onclick="pick('#8BC34A', this)" />

<rect id="eraserBtn" x="240" y="952" width="70" height="28" rx="7" fill="#0f3460" stroke="#444" stroke-width="1.5" onclick="toggleErase()" style="cursor:pointer"/>
<text x="275" y="971" font-family="sans-serif" font-size="12" fill="#eee" text-anchor="middle" pointer-events="none">🧹 محو</text>

<rect id="undoBtn" x="320" y="952" width="70" height="28" rx="7" fill="#0f3460" stroke="#444" stroke-width="1.5" onclick="undo()" style="cursor:pointer"/>
<text x="355" y="971" font-family="sans-serif" font-size="12" fill="#eee" text-anchor="middle" pointer-events="none">↩ تراجع</text>

<rect id="clearBtn" x="400" y="952" width="70" height="28" rx="7" fill="#0f3460" stroke="#444" stroke-width="1.5" onclick="clearAll()" style="cursor:pointer"/>
<text x="435" y="971" font-family="sans-serif" font-size="12" fill="#eee" text-anchor="middle" pointer-events="none">🗑 مسح</text>

<text x="490" y="967" font-family="sans-serif" font-size="11" fill="#aaa">اللون:</text>
<rect id="preview" x="525" y="952" width="28" height="28" rx="6" fill="#FF6B6B" stroke="#666" stroke-width="1.5"/>

<text x="570" y="964" font-family="sans-serif" font-size="11" fill="#aaa">شفافية:</text>
<text id="opLabel" x="570" y="978" font-family="sans-serif" font-size="11" fill="#f5a623">100%</text>
<rect x="620" y="957" width="100" height="7" rx="3" fill="#333"/>
<rect id="opBar" x="620" y="957" width="100" height="7" rx="3" fill="#f5a623"/>
<rect x="620" y="950" width="100" height="22" rx="3" fill="transparent" onmousedown="startSlide(evt)" onmousemove="slideMove(evt)" onmouseup="endSlide()" style="cursor:ew-resize"/>

<script type="text/javascript"><![CDATA[
  var activeColor = '#FF6B6B';
  var eraseMode = false;
  var opacity = 1.0;
  var sliding = false;
  var history = [];

  document.querySelectorAll('.swatch')[0].classList.add('active');

  function pick(c, el) {
    activeColor = c;
    eraseMode = false;
    document.getElementById('preview').setAttribute('fill', c);
    document.getElementById('eraserBtn').setAttribute('fill','#0f3460');
    document.getElementById('eraserBtn').setAttribute('stroke','#444');
    document.querySelectorAll('.swatch').forEach(function(s){s.classList.remove('active');});
    el.classList.add('active');
  }

  function toggleErase() {
    eraseMode = !eraseMode;
    var el = document.getElementById('eraserBtn');
    el.setAttribute('fill', eraseMode ? '#fff0f0' : '#0f3460');
    el.setAttribute('stroke', eraseMode ? '#e94560' : '#444');
  }

  function fillRegion(el) {
    history.push({ el:el, fill:el.getAttribute('fill'), op:el.getAttribute('fill-opacity') });
    if (eraseMode) {
      el.setAttribute('fill','none');
      el.setAttribute('fill-opacity','1');
    } else {
      el.setAttribute('fill', activeColor);
      el.setAttribute('fill-opacity', opacity);
    }
  }

  function undo() {
    if (!history.length) return;
    var last = history.pop();
    last.el.setAttribute('fill', last.fill || 'none');
    last.el.setAttribute('fill-opacity', last.op || '1');
  }

  function clearAll() {
    document.querySelectorAll('.region').forEach(function(r){
      r.setAttribute('fill','none');
      r.setAttribute('fill-opacity','1');
    });
    history = [];
  }

  function startSlide(evt) { sliding=true; slideMove(evt); }
  function endSlide() { sliding=false; }
  function slideMove(evt) {
    if (!sliding) return;
    var svg = evt.target.ownerSVGElement;
    var pt = svg.createSVGPoint();
    pt.x = evt.clientX; pt.y = evt.clientY;
    var sp = pt.matrixTransform(svg.getScreenCTM().inverse());
    var pct = Math.max(0, Math.min(1, (sp.x - 620) / 100));
    opacity = pct;
    document.getElementById('opBar').setAttribute('width', Math.round(pct*100));
    document.getElementById('opLabel').textContent = Math.round(pct*100) + '%';
  }
]]></script>
</svg>