<svg xmlns="http://www.w3.org/2000/svg" width="1024" height="1200" viewBox="0 0 1024 1024">
<defs>
  <style>
    .region { cursor:pointer; transition: opacity 0.1s; }
    .region:hover { opacity:0.75; }
    .swatch { cursor:pointer; stroke:transparent; stroke-width:3; }
    .swatch:hover { stroke:#fff; stroke-width:3; }
    .swatch.active { stroke:#fff; stroke-width:3.5; }
  </style>
</defs>

<rect width="1024" height="1024" fill="white"/>

<!-- White base fills -->
<g pointer-events="none" fill-rule="evenodd">
  <path d="M 550.500 211.682 C 462.008 217.377, 396.588 234.579, 353.494 263.484 C 332.814 277.355, 308.839 300.940, 290.328 325.622 C 280.174 339.161, 260.220 371.331, 257.729 378.177 C 257.170 379.714, 256.679 379.677, 251.810 377.728 C 244.260 374.707, 229.805 374.787, 221.798 377.895 C 214.241 380.828, 206.656 387.791, 202.733 395.396 C 199.742 401.194, 199.582 402.083, 199.542 413.147 L 199.500 424.793 187.500 428.995 C 147.674 442.938, 121.265 456.363, 100 473.475 C 78.642 490.662, 67.573 507.634, 59.390 535.741 C 55.584 548.817, 53.971 558.998, 53.330 574 C 52.809 586.190, 52.533 587.743, 50.484 590 C 49.236 591.375, 47.030 594.869, 45.583 597.765 C 35.480 617.976, 38.490 646.532, 52.425 662.677 C 60.009 671.463, 76.264 681.209, 93.180 687.113 L 99.789 689.420 101.421 695.291 C 108.968 722.437, 127.653 743.168, 152.298 751.738 C 170.420 758.041, 180.344 759.392, 203.717 758.740 C 220.460 758.273, 223.283 757.941, 229.707 755.682 C 247.172 749.542, 258.499 741.207, 270.059 725.991 L 272.617 722.623 286.559 724.319 C 329.427 729.534, 376.478 732.301, 424.250 732.415 C 448.029 732.471, 459.999 732.845, 460 733.529 C 460 735.252, 465.295 747.144, 468.893 753.503 C 483.697 779.671, 506.283 794.063, 544.500 801.679 C 556.942 804.159, 585.866 804.149, 598.354 801.661 C 610.268 799.287, 624.656 794.026, 633.351 788.863 C 641.684 783.917, 656.820 769.292, 662.709 760.500 C 672.659 745.642, 679.647 729.283, 683.461 711.918 L 685.126 704.337 705.313 701.594 C 724.489 698.988, 750.159 694.482, 771 690.063 C 776.225 688.955, 780.627 688.417, 780.781 688.868 C 782.121 692.773, 792.382 706.093, 798.324 711.642 C 815.179 727.383, 843.063 735.261, 876.303 733.673 C 896.405 732.713, 910.228 728.831, 923.027 720.551 C 946.037 705.666, 960.924 676.675, 965.998 636.868 L 967.226 627.237 972.863 623.579 C 984.374 616.110, 990.084 604.005, 990.116 587 C 990.135 576.896, 988.450 568.763, 984.893 561.791 C 983.301 558.670, 982.921 556.592, 983.359 553.400 C 984.159 547.564, 982.389 524.259, 980.408 514.547 C 979.511 510.151, 977.220 502.080, 975.317 496.611 C 965.389 468.091, 952.353 452.070, 926.250 436.312 C 925.013 435.565, 923.996 434.177, 923.991 433.227 C 923.960 427.403, 916.806 401.475, 910.544 384.500 C 907.108 375.182, 894.336 349.070, 888.443 339.315 C 868.032 305.523, 840.863 278.019, 809.500 259.400 C 785.010 244.861, 762.158 235.640, 727 226.108 C 703.568 219.756, 666.739 214.273, 632.517 212.042 C 618.173 211.107, 563.187 210.866, 550.500 211.682" fill="white" stroke="none" fill-rule="evenodd"/>
  <path d="M 456 263.005 C 430.209 264.955, 410.709 267.407, 395.803 270.576 C 392.119 271.359, 387.844 272.004, 386.303 272.009 C 380.657 272.027, 351.616 290.932, 347.121 297.516 C 345.813 299.432, 344.160 301, 343.449 301 C 341.584 301, 323.325 320.811, 314.466 332.445 C 301.237 349.819, 282.397 381.450, 276.910 395.500 C 272.060 407.916, 273.974 418.910, 281.666 422.825 C 283.775 423.898, 287.300 425.288, 289.500 425.914 C 293.111 426.942, 324.209 430.120, 358.500 432.967 C 365.650 433.560, 382.750 435.157, 396.500 436.516 C 410.250 437.874, 436.125 440.358, 454 442.037 C 471.875 443.715, 493.925 445.962, 503 447.029 C 549.386 452.485, 558.318 452.956, 568.752 450.496 C 587.507 446.074, 593.316 435.748, 617.698 363.500 C 629.636 328.126, 635.178 308.937, 635.754 300.979 C 636.113 296.038, 635.805 294.939, 632.827 290.525 C 630.280 286.750, 627.858 284.728, 622.500 281.903 C 610.171 275.404, 574.774 267.932, 540 264.487 C 521.508 262.656, 472.149 261.785, 456 263.005" fill="white" stroke="none" fill-rule="evenodd"/>
  <path d="M 456 274.676 C 431.949 276.420, 391.451 282.470, 381.663 285.781 C 372.928 288.737, 362.200 296.772, 348 310.997 C 324.775 334.263, 307.825 357.493, 293.271 386 C 286.069 400.107, 284.497 407.497, 287.961 410.961 C 291.480 414.480, 299.926 415.849, 340.500 419.476 C 388.219 423.741, 426.061 427.275, 454 430.078 C 465.275 431.209, 485.750 433.236, 499.500 434.582 C 513.250 435.928, 531.475 437.733, 540 438.593 C 556.421 440.249, 565.266 439.948, 569.850 437.577 C 580.279 432.184, 591.572 408.241, 610.455 351.489 C 619.262 325.021, 624.347 305.663, 623.574 301.545 C 622.318 294.848, 615.145 290.797, 596.056 286.003 C 576.445 281.079, 550.432 277.134, 523.605 275.017 C 511.934 274.097, 467.110 273.870, 456 274.676" fill="white" stroke="none" fill-rule="evenodd"/>
  <path d="M 710 279.006 C 675.577 288.282, 657.336 311.242, 636.117 372 C 630.927 386.864, 621.816 419.034, 620.533 427.027 C 620.139 429.487, 618.755 433.075, 617.459 435 C 612.730 442.024, 611.602 455.319, 615.084 463 C 619.481 472.698, 627.519 477.713, 646.172 482.395 L 659.500 485.741 660.636 498.620 C 661.260 505.704, 662.525 514.650, 663.447 518.500 C 666.667 531.949, 671.819 559.604, 673.506 572.500 C 674.442 579.650, 675.560 587.525, 675.992 590 L 676.776 594.500 676.888 588.211 C 677.094 576.646, 673.012 547.141, 669.458 534.500 C 666.549 524.155, 663.151 505.157, 662.527 495.750 L 661.879 486 671.803 486 C 685.037 486, 690.941 484.779, 700.563 480.051 C 709.045 475.883, 717.846 468.201, 719.945 463.133 C 721.095 460.357, 721.185 460.333, 734.801 459.186 C 774.175 455.871, 806.020 451.538, 807.750 449.262 C 812.969 442.396, 801.333 368.734, 789.147 331.500 C 778.254 298.214, 769.285 286.150, 751 280.191 C 740.246 276.686, 720.705 276.121, 710 279.006" fill="white" stroke="none" fill-rule="evenodd"/>
  <path d="M 718.327 290.044 C 702.730 293.128, 689.564 300.130, 680.588 310.113 C 664.972 327.482, 651.412 357.781, 635.540 410.771 C 634.179 415.313, 634.911 417.017, 637.093 414.388 C 639.426 411.577, 648.379 406.370, 654.527 404.249 C 664.298 400.877, 672.402 399.687, 681.784 400.245 C 692.786 400.899, 701.672 403.882, 709.724 409.625 C 720.766 417.500, 726 427.639, 726 441.155 L 726 449.288 733.750 448.631 C 752.207 447.066, 773.386 444.878, 784.750 443.362 C 798.988 441.462, 797.606 443.790, 795.949 424.500 C 792.627 385.831, 781.127 336.976, 769.689 312.943 C 765.065 303.228, 759.460 296.875, 753.102 294.139 C 742.766 289.693, 728.563 288.020, 718.327 290.044" fill="white" stroke="none" fill-rule="evenodd"/>
  <path d="M 795.500 298.195 C 790.800 300.860, 790.880 304.412, 795.976 319.307 C 798.162 325.698, 801.777 337.444, 804.008 345.409 C 809.226 364.038, 811.433 374.021, 816.073 400 C 817.713 409.182, 820.998 435.265, 820.999 439.115 C 821 441.257, 821.845 443.804, 823.073 445.365 C 825.828 448.868, 829.616 448.827, 854.794 445.023 C 879.796 441.245, 881.789 440.686, 882.665 437.205 C 883.816 432.632, 881.261 414.844, 877.954 404.408 C 863.250 358.001, 835.945 318.882, 805.500 300.607 C 798.921 296.658, 798.423 296.538, 795.500 298.195" fill="white" stroke="none" fill-rule="evenodd"/>
  <path d="M 803 311.845 C 803 312.308, 803.919 315.345, 805.042 318.593 C 813.306 342.500, 824.737 391.369, 827.943 416.500 C 828.575 421.450, 829.558 428.519, 830.129 432.208 C 831.137 438.726, 831.243 438.904, 833.833 438.466 C 835.300 438.218, 843.475 437.057, 852 435.887 C 872.827 433.028, 872 433.440, 872 425.925 C 872 418.179, 868.438 404.758, 862.465 390 C 852.459 365.276, 837.797 342.577, 821.387 326.406 C 813.178 318.317, 803 310.257, 803 311.845" fill="white" stroke="none" fill-rule="evenodd"/>
  <path d="M 226.611 391.003 C 216.678 394.882, 213.056 400.944, 213.022 413.750 C 213.004 420.551, 213.273 422, 214.553 422 C 215.407 422, 220.245 420.774, 225.303 419.276 C 233.678 416.796, 234.992 416.054, 240 410.981 C 243.025 407.916, 246.986 402.606, 248.803 399.179 L 252.106 392.950 247.803 390.997 C 242.216 388.461, 233.113 388.464, 226.611 391.003" fill="white" stroke="none" fill-rule="evenodd"/>
  <path d="M 666 414.024 C 663.525 414.535, 657.900 416.744, 653.500 418.932 C 634.488 428.387, 624.404 446.327, 631.278 458.465 C 634.364 463.912, 640.697 467.523, 652.513 470.572 C 661.131 472.796, 664.008 473.089, 673.500 472.707 C 682.877 472.330, 685.574 471.817, 691.777 469.231 C 700.488 465.599, 705.277 462.118, 708.370 457.170 C 718.360 441.193, 711.878 422.780, 693.805 415.801 C 687.739 413.459, 673.227 412.531, 666 414.024" fill="white" stroke="none" fill-rule="evenodd"/>
  <path d="M 792.500 477.626 C 780.675 480.594, 774 485.594, 774 491.483 C 774 500.164, 779.310 503.940, 791.572 503.978 C 804.630 504.019, 815 498.132, 815 490.679 C 815 485.527, 813.319 482.547, 809.061 480.154 C 805.332 478.059, 796.281 476.677, 792.500 477.626" fill="white" stroke="none" fill-rule="evenodd"/>
  <path d="M 794.500 484.100 C 782.523 485.810, 777.874 488.877, 779.499 493.998 C 780.364 496.722, 783.779 497.383, 793.452 496.701 C 802.131 496.088, 809.481 493.794, 810.395 491.414 C 811.312 489.023, 809.191 485.023, 806.453 483.982 C 803.566 482.885, 802.975 482.891, 794.500 484.100" fill="white" stroke="none" fill-rule="evenodd"/>
  <path d="M 113.500 494.950 C 102.620 497.654, 90.639 507.939, 85.118 519.315 C 73.584 543.082, 81.438 572.510, 102.134 583.068 C 122.462 593.439, 148.476 583.402, 158.717 561.237 C 163.542 550.793, 165.020 538.968, 162.683 529.497 C 160.078 518.942, 156.646 512.483, 150.284 506.160 C 140.201 496.140, 126.059 491.830, 113.500 494.950" fill="white" stroke="none" fill-rule="evenodd"/>
  <path d="M 113.332 503.801 C 110.490 504.811, 106.512 506.897, 104.492 508.438 C 99.423 512.305, 92.525 521.955, 90.330 528.252 C 87.874 535.295, 87.896 549.519, 90.373 556.770 C 92.692 563.555, 98.745 571.180, 104.481 574.542 C 110.354 577.983, 119.287 578.937, 123.798 576.605 C 127.598 574.640, 134.005 568.422, 133.988 566.717 C 133.981 566.048, 132.372 564.461, 130.413 563.192 C 125.671 560.119, 123.050 554.164, 123.022 546.399 C 122.996 539.065, 124.780 532.856, 126.191 535.376 C 127.457 537.639, 132.323 537.406, 134.521 534.977 C 136.427 532.870, 136.967 527.752, 135.598 524.773 C 134.996 523.464, 135.455 522.750, 137.497 521.819 C 139.948 520.703, 140.134 520.237, 139.560 516.651 C 137.781 505.525, 125.467 499.491, 113.332 503.801" fill="white" stroke="none" fill-rule="evenodd"/>
  <path d="M 407 511.814 C 399.477 513.781, 393.407 517.117, 386.864 522.884 C 380.820 528.210, 376.672 534.798, 372.860 545.126 C 367.677 559.168, 368.537 576.025, 375.106 589.159 C 379.494 597.931, 387.915 606.355, 396.577 610.635 C 403.045 613.832, 405.089 614.336, 413.346 614.768 C 419.189 615.073, 424.786 614.779, 428.125 613.992 C 442.764 610.540, 455.225 600.076, 462.290 585.302 L 466.500 576.500 466.498 563 C 466.496 551.420, 466.168 548.591, 464.190 543.110 C 459.517 530.159, 450.956 520.682, 438.787 514.987 C 427.770 509.832, 418.228 508.879, 407 511.814" fill="white" stroke="none" fill-rule="evenodd"/>
  <path d="M 409 520.605 C 400.044 523.003, 393.935 527.558, 387.291 536.792 C 370.611 559.976, 378.181 594.110, 402 603.118 C 412.395 607.049, 423.760 603.967, 430.926 595.273 C 432.617 593.222, 434 591.251, 434 590.893 C 434 590.536, 432.632 589.676, 430.960 588.983 C 420.500 584.651, 416.464 568.978, 422.145 554.750 C 423.481 551.403, 425 551.164, 425 554.300 C 425 559.077, 429.932 560.575, 433.799 556.972 C 436.659 554.309, 437.542 550.485, 436.053 547.217 C 435.031 544.975, 435.116 544.389, 436.617 543.291 C 437.588 542.581, 438.746 542, 439.191 542 C 440.628 542, 440.010 537.618, 437.921 533 C 434.992 526.521, 430.388 522.193, 424.596 520.473 C 418.564 518.681, 416.104 518.702, 409 520.605" fill="white" stroke="none" fill-rule="evenodd"/>
  <path d="M 884.270 531.530 C 871.745 535.473, 858.935 545.531, 850.583 557.981 C 840.782 572.588, 832.532 594.301, 828.994 614.799 L 826.966 626.553 828.969 630.699 C 831.895 636.756, 832.554 646.998, 830.562 655.478 C 827.427 668.825, 821.658 675.440, 809.180 679.994 C 804.649 681.647, 800.168 683.007, 799.221 683.015 C 798.275 683.024, 796.864 683.433, 796.088 683.925 C 792.617 686.122, 808.227 703.604, 819.142 709.744 C 830.449 716.105, 848.157 720.040, 865 719.935 C 872.032 719.892, 873.155 719.677, 871.500 718.695 C 867.278 716.189, 856.334 704.085, 852.727 697.935 C 844.979 684.721, 839.999 663.595, 840.011 644 C 840.033 609.807, 852.481 575.169, 871.394 556.673 C 879.743 548.509, 883.961 545.678, 892.649 542.408 C 900.390 539.494, 914.741 539.029, 920.654 541.500 C 925.715 543.615, 926.695 543.369, 924.123 540.631 C 921.272 537.596, 913.469 533.350, 907.310 531.481 C 901.443 529.701, 890.001 529.725, 884.270 531.530" fill="white" stroke="none" fill-rule="evenodd"/>
  <path d="M 895.824 551.435 C 880.624 557.260, 866.188 574.115, 858.206 595.357 C 845.818 628.323, 846.546 664.848, 860.114 691.064 C 867.915 706.136, 881.495 716, 894.446 716 C 904.438 716, 918.839 708.642, 926.969 699.382 C 933.386 692.074, 940.758 679.101, 945.056 667.553 C 952.448 647.695, 954.658 615.113, 950.007 594.574 C 945.682 575.475, 934.702 558.911, 922.423 552.960 C 916.324 550.004, 901.740 549.168, 895.824 551.435" fill="white" stroke="none" fill-rule="evenodd"/>
  <path d="M 180.959 559.550 C 180.099 560.585, 179.664 564.488, 179.648 571.300 C 179.579 600.779, 198.942 620.829, 235 628.615 C 247.169 631.243, 274.676 631.252, 284.500 628.632 C 309.094 622.071, 326.597 603.056, 329.434 579.814 C 330.046 574.800, 329.874 573.874, 327.977 571.977 C 326.357 570.357, 325.171 569.997, 323.163 570.518 C 302.901 575.777, 260.131 576.408, 232 571.863 C 215.597 569.212, 191.191 562.140, 188.894 559.372 C 187.360 557.524, 182.551 557.632, 180.959 559.550" fill="white" stroke="none" fill-rule="evenodd"/>
  <path d="M 586 567.442 C 577.317 569.278, 571.124 572.067, 561.511 578.468 C 544.969 589.483, 531.681 608.168, 521.347 634.945 L 516.158 648.389 517.984 651.969 C 522.802 661.413, 523.319 684.434, 518.995 697 C 512.321 716.394, 502.747 724.994, 483.489 728.893 C 478.858 729.830, 474.771 730.896, 474.406 731.261 C 473.395 732.272, 480.491 746.533, 485.491 753.539 C 496.448 768.895, 513.249 779.514, 535.300 785.023 C 547.695 788.120, 566.047 790.367, 574.496 789.822 L 579.493 789.500 572.363 785.274 C 554.034 774.412, 540.991 751.885, 535.961 722.402 C 530.960 693.094, 536.757 657.321, 550.997 629.604 C 558.073 615.831, 561.052 611.742, 571.630 601.284 C 579.528 593.476, 582.369 591.392, 590.226 587.642 C 601.508 582.258, 606.543 580.996, 616.693 581.012 C 625.378 581.025, 631.950 582.494, 640.661 586.370 L 646.500 588.967 640.500 583.475 C 626.517 570.675, 603.178 563.808, 586 567.442" fill="white" stroke="none" fill-rule="evenodd"/>
  <path d="M 188.014 573.910 C 188.038 581.937, 188.414 582.421, 196.823 585.242 C 206.255 588.406, 223.696 592.311, 239 594.685 C 247.971 596.077, 256.657 596.472, 278.500 596.484 C 293.900 596.493, 308.614 596.138, 311.198 595.696 C 315.769 594.915, 315.952 594.745, 317.948 589.409 C 321.503 579.907, 321.403 579.851, 305.750 582.660 C 299.194 583.836, 290.820 584.316, 277 584.310 C 248.281 584.296, 221.579 580.429, 199.288 573.055 L 188 569.320 188.014 573.910" fill="white" stroke="none" fill-rule="evenodd"/>
  <path d="M 967.500 572.647 C 964.750 574.550, 961.930 576.442, 961.234 576.852 C 960.234 577.441, 960.385 579.270, 961.949 585.555 C 963.038 589.932, 964.283 597.740, 964.715 602.906 L 965.500 612.300 968.694 609.608 C 974.866 604.407, 978.326 589.424, 976.102 577.529 C 974.508 569, 973.553 568.458, 967.500 572.647" fill="white" stroke="none" fill-rule="evenodd"/>
  <path d="M 898.608 586.422 C 889.862 589.658, 882.239 600.493, 877.428 616.527 C 872.574 632.706, 874.023 655.632, 880.648 667.486 C 883.349 672.318, 888.846 677.611, 892.676 679.067 C 905.052 683.772, 919.187 670.967, 924.972 649.809 C 928.950 635.261, 929.177 616.070, 925.501 605.004 C 920.448 589.789, 909.657 582.333, 898.608 586.422" fill="white" stroke="none" fill-rule="evenodd"/>
  <path d="M 192.032 590.750 C 192.122 592.846, 200.444 602.673, 205.143 606.233 C 217.978 615.955, 233.985 620.817, 256 621.680 C 279.734 622.610, 295.870 618.003, 306.478 607.269 C 310.937 602.757, 311.064 602.480, 308.845 602.132 C 307.555 601.930, 301.472 602.336, 295.327 603.036 C 268.915 606.041, 226.749 601.213, 199.500 592.064 C 192.804 589.815, 191.986 589.672, 192.032 590.750" fill="white" stroke="none" fill-rule="evenodd"/>
  <path d="M 607.300 591.909 C 595.289 594.980, 587.140 600.055, 576.394 611.158 C 561.956 626.076, 552.833 644.916, 547.419 671 C 542.865 692.935, 543.218 712.064, 548.541 731.957 C 553.019 748.689, 559.572 760.585, 569.735 770.428 C 597.415 797.239, 636.651 783.475, 658.946 739.133 C 664.106 728.869, 669.745 710.493, 671.568 698 C 674.018 681.216, 673.148 657.167, 669.597 643.500 C 663.247 619.055, 648.755 599.720, 632.360 593.816 C 626.012 591.530, 612.734 590.519, 607.300 591.909" fill="white" stroke="none" fill-rule="evenodd"/>
  <path d="M 900.180 595.682 C 891.149 600.132, 883 620.657, 883 638.951 C 883 653.830, 887.553 666.047, 894.335 669.368 C 898.005 671.165, 898.299 671.169, 902.071 669.468 C 910.896 665.489, 917.720 650.419, 919.492 631 C 920.785 616.830, 915.744 599.640, 909.156 595.750 C 905.526 593.607, 904.407 593.599, 900.180 595.682" fill="white" stroke="none" fill-rule="evenodd"/>
  <path d="M 58.606 602.794 C 53.021 613.594, 52.463 633.816, 57.447 644.782 C 63.236 657.520, 77.282 666.699, 104.500 675.528 C 144.042 688.355, 200.784 699.643, 267.500 707.954 C 364.142 719.992, 458.396 722.384, 488.135 713.552 C 497.055 710.904, 501.223 706.103, 505.681 693.349 C 508.078 686.488, 508.416 684.053, 508.366 674 C 508.306 661.771, 506.808 656.038, 503.165 654.088 C 502.004 653.467, 498.963 653.430, 494.913 653.988 C 468.670 657.602, 384.394 658.807, 341 656.190 C 257.609 651.159, 200.949 644.286, 145.500 632.475 C 106.471 624.162, 76.887 613.467, 66.540 603.930 C 64.195 601.768, 61.776 600, 61.164 600 C 60.552 600, 59.401 601.257, 58.606 602.794" fill="white" stroke="none" fill-rule="evenodd"/>
  <path d="M 608.500 633.935 C 601.274 635.694, 593.151 642.768, 587.725 652.025 C 571.243 680.150, 574.299 725.074, 593.561 737.833 C 599.187 741.559, 603.716 742.408, 610.478 741.005 C 614.863 740.094, 616.986 738.832, 622.264 733.995 C 629.793 727.096, 634.528 718.845, 638.638 705.463 C 641.162 697.240, 641.391 695.137, 641.408 680 C 641.425 663.757, 641.375 663.365, 638.139 654.807 C 635.555 647.972, 633.747 644.973, 629.676 640.769 C 622.930 633.802, 616.960 631.875, 608.500 633.935" fill="white" stroke="none" fill-rule="evenodd"/>
  <path d="M 798 639.596 C 773.733 645.764, 734.846 653.155, 692.253 659.694 L 687.006 660.500 686.747 675.252 L 686.489 690.004 691.494 689.410 C 724.670 685.476, 780.680 674.423, 805.204 666.970 C 815.507 663.839, 818.338 658.727, 817.792 644.238 L 817.500 636.500 814.500 636.332 C 812.850 636.240, 805.425 637.708, 798 639.596" fill="white" stroke="none" fill-rule="evenodd"/>
  <path d="M 611.171 643.255 C 605.149 644.499, 598.770 651.202, 593.852 661.456 C 588.934 671.709, 586.804 681.764, 586.745 695 C 586.621 722.669, 598.974 738.197, 613.621 728.785 C 625.963 720.856, 634.364 694.227, 631.866 670.955 C 630.853 661.517, 628.925 655.932, 624.401 649.323 C 620.301 643.334, 617.347 641.979, 611.171 643.255" fill="white" stroke="none" fill-rule="evenodd"/>
  <path d="M 116.448 696.112 C 116.817 697.425, 118.950 702.286, 121.189 706.913 C 124.309 713.364, 127.037 717.126, 132.879 723.039 C 143.708 733.997, 156.013 739.793, 176 743.348 C 192.740 746.326, 200.335 746.302, 193.750 743.293 C 186.223 739.853, 171.939 721.885, 167.604 710.402 L 165.707 705.380 158.641 704.073 C 154.755 703.354, 144.584 700.984, 136.038 698.805 C 127.492 696.627, 119.437 694.592, 118.139 694.284 C 116.043 693.787, 115.853 693.993, 116.448 696.112" fill="white" stroke="none" fill-rule="evenodd"/>
  <path d="M 178 709.087 C 178 709.758, 179.611 713.189, 181.581 716.711 C 186.795 726.034, 194.990 733.921, 204.158 738.439 C 211.486 742.051, 212.178 742.198, 220.252 741.856 C 227.734 741.540, 229.574 741.050, 236.525 737.521 C 241.907 734.788, 246.377 731.499, 250.790 727.021 L 257.218 720.500 244.359 718.785 C 223.059 715.945, 183.632 709.612, 179.750 708.408 C 178.742 708.095, 178 708.383, 178 709.087" fill="white" stroke="none" fill-rule="evenodd"/>
</g>

<!-- Clickable color regions -->
<g id="colorRegions">
  <path id="body_main" class="region" d="M 550.500 211.682 C 462.008 217.377, 396.588 234.579, 353.494 263.484 C 332.814 277.355, 308.839 300.940, 290.328 325.622 C 280.174 339.161, 260.220 371.331, 257.729 378.177 C 257.170 379.714, 256.679 379.677, 251.810 377.728 C 244.260 374.707, 229.805 374.787, 221.798 377.895 C 214.241 380.828, 206.656 387.791, 202.733 395.396 C 199.742 401.194, 199.582 402.083, 199.542 413.147 L 199.500 424.793 187.500 428.995 C 147.674 442.938, 121.265 456.363, 100 473.475 C 78.642 490.662, 67.573 507.634, 59.390 535.741 C 55.584 548.817, 53.971 558.998, 53.330 574 C 52.809 586.190, 52.533 587.743, 50.484 590 C 49.236 591.375, 47.030 594.869, 45.583 597.765 C 35.480 617.976, 38.490 646.532, 52.425 662.677 C 60.009 671.463, 76.264 681.209, 93.180 687.113 L 99.789 689.420 101.421 695.291 C 108.968 722.437, 127.653 743.168, 152.298 751.738 C 170.420 758.041, 180.344 759.392, 203.717 758.740 C 220.460 758.273, 223.283 757.941, 229.707 755.682 C 247.172 749.542, 258.499 741.207, 270.059 725.991 L 272.617 722.623 286.559 724.319 C 329.427 729.534, 376.478 732.301, 424.250 732.415 C 448.029 732.471, 459.999 732.845, 460 733.529 C 460 735.252, 465.295 747.144, 468.893 753.503 C 483.697 779.671, 506.283 794.063, 544.500 801.679 C 556.942 804.159, 585.866 804.149, 598.354 801.661 C 610.268 799.287, 624.656 794.026, 633.351 788.863 C 641.684 783.917, 656.820 769.292, 662.709 760.500 C 672.659 745.642, 679.647 729.283, 683.461 711.918 L 685.126 704.337 705.313 701.594 C 724.489 698.988, 750.159 694.482, 771 690.063 C 776.225 688.955, 780.627 688.417, 780.781 688.868 C 782.121 692.773, 792.382 706.093, 798.324 711.642 C 815.179 727.383, 843.063 735.261, 876.303 733.673 C 896.405 732.713, 910.228 728.831, 923.027 720.551 C 946.037 705.666, 960.924 676.675, 965.998 636.868 L 967.226 627.237 972.863 623.579 C 984.374 616.110, 990.084 604.005, 990.116 587 C 990.135 576.896, 988.450 568.763, 984.893 561.791 C 983.301 558.670, 982.921 556.592, 983.359 553.400 C 984.159 547.564, 982.389 524.259, 980.408 514.547 C 979.511 510.151, 977.220 502.080, 975.317 496.611 C 965.389 468.091, 952.353 452.070, 926.250 436.312 C 925.013 435.565, 923.996 434.177, 923.991 433.227 C 923.960 427.403, 916.806 401.475, 910.544 384.500 C 907.108 375.182, 894.336 349.070, 888.443 339.315 C 868.032 305.523, 840.863 278.019, 809.500 259.400 C 785.010 244.861, 762.158 235.640, 727 226.108 C 703.568 219.756, 666.739 214.273, 632.517 212.042 C 618.173 211.107, 563.187 210.866, 550.500 211.682 M 564 224.695 C 550.269 225.161, 519.957 227.888, 499.500 230.498 C 465.067 234.892, 432.404 242.635, 405.500 252.783 C 374.810 264.359, 372.732 265.445, 354.485 279.435 C 321.479 304.741, 295.646 337.238, 266.994 389.500 C 261.867 398.850, 255.890 409.113, 253.710 412.307 C 249.885 417.912, 238.741 428, 236.376 428 C 233.225 428, 189.951 442.565, 172.113 449.629 C 157.848 455.278, 131.934 468.093, 122.500 474.164 C 109.030 482.831, 94.918 495.809, 88.206 505.702 C 75.423 524.540, 68.240 548.795, 66.428 579.235 C 65.638 592.511, 65.486 592.107, 73.499 597.954 C 85.174 606.474, 103.911 613.232, 138.593 621.432 C 176.423 630.378, 247.865 640.319, 304 644.449 C 374.157 649.611, 450.957 649.773, 493.549 644.848 L 503.597 643.687 506.955 634.184 C 525.074 582.911, 559.330 552.573, 599 552.667 C 628.513 552.737, 655.173 570.057, 670.090 598.853 C 677.962 614.048, 685 637.355, 685 648.226 L 685 651.230 690.750 650.557 C 699.621 649.517, 749.303 641.183, 756.286 639.563 C 759.704 638.770, 768.125 636.940, 775 635.497 C 788.225 632.720, 813.364 626.962, 813.698 626.633 C 813.806 626.526, 814.843 621.052, 816.001 614.469 C 818.385 600.924, 822.624 584.849, 826.541 574.500 C 829.097 567.749, 829.539 564.823, 831.984 538.500 C 834.764 508.571, 831.457 473.246, 824.201 455.359 C 821.531 448.778, 822.661 447.426, 825.559 453.732 C 829.249 461.760, 832.859 476.887, 834.097 489.500 C 835.536 504.176, 834.670 539.443, 832.538 552.940 C 831.718 558.132, 831.193 562.526, 831.372 562.705 C 831.551 562.884, 833.388 560.291, 835.454 556.943 C 850.784 532.107, 870.821 518.219, 894 516.362 C 902.943 515.646, 912.172 517.615, 922 522.336 C 935.073 528.616, 950.852 548.116, 955.713 564 C 956.639 567.025, 957.517 569.672, 957.664 569.882 C 957.811 570.093, 960.694 568.518, 964.070 566.382 L 970.210 562.500 969.613 546.500 C 967.843 499.007, 951.333 466.967, 919.161 448.592 C 913.666 445.454, 907.445 442.438, 905.335 441.891 C 899.571 440.396, 896 438.861, 896 437.879 C 896 436.760, 899.185 436.747, 902.185 437.854 C 903.458 438.323, 905.804 439.023, 907.398 439.410 L 910.297 440.113 909.656 433.987 C 908.079 418.890, 897.028 386.005, 886.392 364.753 C 859.145 310.310, 820.112 274.598, 763.500 252.316 C 712.592 232.280, 639.355 222.140, 564 224.695" fill="white" fill-opacity="1" fill-rule="evenodd" stroke="none" onclick="fillRegion(this)"/>
  <path id="left_wing_outer" class="region" d="M 456 263.005 C 430.209 264.955, 410.709 267.407, 395.803 270.576 C 392.119 271.359, 387.844 272.004, 386.303 272.009 C 380.657 272.027, 351.616 290.932, 347.121 297.516 C 345.813 299.432, 344.160 301, 343.449 301 C 341.584 301, 323.325 320.811, 314.466 332.445 C 301.237 349.819, 282.397 381.450, 276.910 395.500 C 272.060 407.916, 273.974 418.910, 281.666 422.825 C 283.775 423.898, 287.300 425.288, 289.500 425.914 C 293.111 426.942, 324.209 430.120, 358.500 432.967 C 365.650 433.560, 382.750 435.157, 396.500 436.516 C 410.250 437.874, 436.125 440.358, 454 442.037 C 471.875 443.715, 493.925 445.962, 503 447.029 C 549.386 452.485, 558.318 452.956, 568.752 450.496 C 587.507 446.074, 593.316 435.748, 617.698 363.500 C 629.636 328.126, 635.178 308.937, 635.754 300.979 C 636.113 296.038, 635.805 294.939, 632.827 290.525 C 630.280 286.750, 627.858 284.728, 622.500 281.903 C 610.171 275.404, 574.774 267.932, 540 264.487 C 521.508 262.656, 472.149 261.785, 456 263.005" fill="white" fill-opacity="1" fill-rule="evenodd" stroke="none" onclick="fillRegion(this)"/>
  <path id="left_wing_inner" class="region" d="M 456 274.676 C 431.949 276.420, 391.451 282.470, 381.663 285.781 C 372.928 288.737, 362.200 296.772, 348 310.997 C 324.775 334.263, 307.825 357.493, 293.271 386 C 286.069 400.107, 284.497 407.497, 287.961 410.961 C 291.480 414.480, 299.926 415.849, 340.500 419.476 C 388.219 423.741, 426.061 427.275, 454 430.078 C 465.275 431.209, 485.750 433.236, 499.500 434.582 C 513.250 435.928, 531.475 437.733, 540 438.593 C 556.421 440.249, 565.266 439.948, 569.850 437.577 C 580.279 432.184, 591.572 408.241, 610.455 351.489 C 619.262 325.021, 624.347 305.663, 623.574 301.545 C 622.318 294.848, 615.145 290.797, 596.056 286.003 C 576.445 281.079, 550.432 277.134, 523.605 275.017 C 511.934 274.097, 467.110 273.870, 456 274.676" fill="white" fill-opacity="1" fill-rule="evenodd" stroke="none" onclick="fillRegion(this)"/>
  <path id="right_wing_outer" class="region" d="M 710 279.006 C 675.577 288.282, 657.336 311.242, 636.117 372 C 630.927 386.864, 621.816 419.034, 620.533 427.027 C 620.139 429.487, 618.755 433.075, 617.459 435 C 612.730 442.024, 611.602 455.319, 615.084 463 C 619.481 472.698, 627.519 477.713, 646.172 482.395 L 659.500 485.741 660.636 498.620 C 661.260 505.704, 662.525 514.650, 663.447 518.500 C 666.667 531.949, 671.819 559.604, 673.506 572.500 C 674.442 579.650, 675.560 587.525, 675.992 590 L 676.776 594.500 676.888 588.211 C 677.094 576.646, 673.012 547.141, 669.458 534.500 C 666.549 524.155, 663.151 505.157, 662.527 495.750 L 661.879 486 671.803 486 C 685.037 486, 690.941 484.779, 700.563 480.051 C 709.045 475.883, 717.846 468.201, 719.945 463.133 C 721.095 460.357, 721.185 460.333, 734.801 459.186 C 774.175 455.871, 806.020 451.538, 807.750 449.262 C 812.969 442.396, 801.333 368.734, 789.147 331.500 C 778.254 298.214, 769.285 286.150, 751 280.191 C 740.246 276.686, 720.705 276.121, 710 279.006" fill="white" fill-opacity="1" fill-rule="evenodd" stroke="none" onclick="fillRegion(this)"/>
  <path id="right_wing_inner" class="region" d="M 718.327 290.044 C 702.730 293.128, 689.564 300.130, 680.588 310.113 C 664.972 327.482, 651.412 357.781, 635.540 410.771 C 634.179 415.313, 634.911 417.017, 637.093 414.388 C 639.426 411.577, 648.379 406.370, 654.527 404.249 C 664.298 400.877, 672.402 399.687, 681.784 400.245 C 692.786 400.899, 701.672 403.882, 709.724 409.625 C 720.766 417.500, 726 427.639, 726 441.155 L 726 449.288 733.750 448.631 C 752.207 447.066, 773.386 444.878, 784.750 443.362 C 798.988 441.462, 797.606 443.790, 795.949 424.500 C 792.627 385.831, 781.127 336.976, 769.689 312.943 C 765.065 303.228, 759.460 296.875, 753.102 294.139 C 742.766 289.693, 728.563 288.020, 718.327 290.044" fill="white" fill-opacity="1" fill-rule="evenodd" stroke="none" onclick="fillRegion(this)"/>
  <path id="right_back_outer" class="region" d="M 795.500 298.195 C 790.800 300.860, 790.880 304.412, 795.976 319.307 C 798.162 325.698, 801.777 337.444, 804.008 345.409 C 809.226 364.038, 811.433 374.021, 816.073 400 C 817.713 409.182, 820.998 435.265, 820.999 439.115 C 821 441.257, 821.845 443.804, 823.073 445.365 C 825.828 448.868, 829.616 448.827, 854.794 445.023 C 879.796 441.245, 881.789 440.686, 882.665 437.205 C 883.816 432.632, 881.261 414.844, 877.954 404.408 C 863.250 358.001, 835.945 318.882, 805.500 300.607 C 798.921 296.658, 798.423 296.538, 795.500 298.195" fill="white" fill-opacity="1" fill-rule="evenodd" stroke="none" onclick="fillRegion(this)"/>
  <path id="right_back_inner" class="region" d="M 803 311.845 C 803 312.308, 803.919 315.345, 805.042 318.593 C 813.306 342.500, 824.737 391.369, 827.943 416.500 C 828.575 421.450, 829.558 428.519, 830.129 432.208 C 831.137 438.726, 831.243 438.904, 833.833 438.466 C 835.300 438.218, 843.475 437.057, 852 435.887 C 872.827 433.028, 872 433.440, 872 425.925 C 872 418.179, 868.438 404.758, 862.465 390 C 852.459 365.276, 837.797 342.577, 821.387 326.406 C 813.178 318.317, 803 310.257, 803 311.845" fill="white" fill-opacity="1" fill-rule="evenodd" stroke="none" onclick="fillRegion(this)"/>
  <path id="left_antenna" class="region" d="M 226.611 391.003 C 216.678 394.882, 213.056 400.944, 213.022 413.750 C 213.004 420.551, 213.273 422, 214.553 422 C 215.407 422, 220.245 420.774, 225.303 419.276 C 233.678 416.796, 234.992 416.054, 240 410.981 C 243.025 407.916, 246.986 402.606, 248.803 399.179 L 252.106 392.950 247.803 390.997 C 242.216 388.461, 233.113 388.464, 226.611 391.003" fill="white" fill-opacity="1" fill-rule="evenodd" stroke="none" onclick="fillRegion(this)"/>
  <path id="neck_spot" class="region" d="M 666 414.024 C 663.525 414.535, 657.900 416.744, 653.500 418.932 C 634.488 428.387, 624.404 446.327, 631.278 458.465 C 634.364 463.912, 640.697 467.523, 652.513 470.572 C 661.131 472.796, 664.008 473.089, 673.500 472.707 C 682.877 472.330, 685.574 471.817, 691.777 469.231 C 700.488 465.599, 705.277 462.118, 708.370 457.170 C 718.360 441.193, 711.878 422.780, 693.805 415.801 C 687.739 413.459, 673.227 412.531, 666 414.024" fill="white" fill-opacity="1" fill-rule="evenodd" stroke="none" onclick="fillRegion(this)"/>
  <path id="right_paw_outer" class="region" d="M 792.500 477.626 C 780.675 480.594, 774 485.594, 774 491.483 C 774 500.164, 779.310 503.940, 791.572 503.978 C 804.630 504.019, 815 498.132, 815 490.679 C 815 485.527, 813.319 482.547, 809.061 480.154 C 805.332 478.059, 796.281 476.677, 792.500 477.626" fill="white" fill-opacity="1" fill-rule="evenodd" stroke="none" onclick="fillRegion(this)"/>
  <path id="right_paw_inner" class="region" d="M 794.500 484.100 C 782.523 485.810, 777.874 488.877, 779.499 493.998 C 780.364 496.722, 783.779 497.383, 793.452 496.701 C 802.131 496.088, 809.481 493.794, 810.395 491.414 C 811.312 489.023, 809.191 485.023, 806.453 483.982 C 803.566 482.885, 802.975 482.891, 794.500 484.100" fill="white" fill-opacity="1" fill-rule="evenodd" stroke="none" onclick="fillRegion(this)"/>
  <path id="left_eye_outer" class="region" d="M 113.500 494.950 C 102.620 497.654, 90.639 507.939, 85.118 519.315 C 73.584 543.082, 81.438 572.510, 102.134 583.068 C 122.462 593.439, 148.476 583.402, 158.717 561.237 C 163.542 550.793, 165.020 538.968, 162.683 529.497 C 160.078 518.942, 156.646 512.483, 150.284 506.160 C 140.201 496.140, 126.059 491.830, 113.500 494.950" fill="white" fill-opacity="1" fill-rule="evenodd" stroke="none" onclick="fillRegion(this)"/>
  <path id="left_eye_inner" class="region" d="M 113.332 503.801 C 110.490 504.811, 106.512 506.897, 104.492 508.438 C 99.423 512.305, 92.525 521.955, 90.330 528.252 C 87.874 535.295, 87.896 549.519, 90.373 556.770 C 92.692 563.555, 98.745 571.180, 104.481 574.542 C 110.354 577.983, 119.287 578.937, 123.798 576.605 C 127.598 574.640, 134.005 568.422, 133.988 566.717 C 133.981 566.048, 132.372 564.461, 130.413 563.192 C 125.671 560.119, 123.050 554.164, 123.022 546.399 C 122.996 539.065, 124.780 532.856, 126.191 535.376 C 127.457 537.639, 132.323 537.406, 134.521 534.977 C 136.427 532.870, 136.967 527.752, 135.598 524.773 C 134.996 523.464, 135.455 522.750, 137.497 521.819 C 139.948 520.703, 140.134 520.237, 139.560 516.651 C 137.781 505.525, 125.467 499.491, 113.332 503.801" fill="white" fill-opacity="1" fill-rule="evenodd" stroke="none" onclick="fillRegion(this)"/>
  <path id="left_paw_outer" class="region" d="M 407 511.814 C 399.477 513.781, 393.407 517.117, 386.864 522.884 C 380.820 528.210, 376.672 534.798, 372.860 545.126 C 367.677 559.168, 368.537 576.025, 375.106 589.159 C 379.494 597.931, 387.915 606.355, 396.577 610.635 C 403.045 613.832, 405.089 614.336, 413.346 614.768 C 419.189 615.073, 424.786 614.779, 428.125 613.992 C 442.764 610.540, 455.225 600.076, 462.290 585.302 L 466.500 576.500 466.498 563 C 466.496 551.420, 466.168 548.591, 464.190 543.110 C 459.517 530.159, 450.956 520.682, 438.787 514.987 C 427.770 509.832, 418.228 508.879, 407 511.814" fill="white" fill-opacity="1" fill-rule="evenodd" stroke="none" onclick="fillRegion(this)"/>
  <path id="left_paw_inner" class="region" d="M 409 520.605 C 400.044 523.003, 393.935 527.558, 387.291 536.792 C 370.611 559.976, 378.181 594.110, 402 603.118 C 412.395 607.049, 423.760 603.967, 430.926 595.273 C 432.617 593.222, 434 591.251, 434 590.893 C 434 590.536, 432.632 589.676, 430.960 588.983 C 420.500 584.651, 416.464 568.978, 422.145 554.750 C 423.481 551.403, 425 551.164, 425 554.300 C 425 559.077, 429.932 560.575, 433.799 556.972 C 436.659 554.309, 437.542 550.485, 436.053 547.217 C 435.031 544.975, 435.116 544.389, 436.617 543.291 C 437.588 542.581, 438.746 542, 439.191 542 C 440.628 542, 440.010 537.618, 437.921 533 C 434.992 526.521, 430.388 522.193, 424.596 520.473 C 418.564 518.681, 416.104 518.702, 409 520.605" fill="white" fill-opacity="1" fill-rule="evenodd" stroke="none" onclick="fillRegion(this)"/>
  <path id="right_eye_outer" class="region" d="M 884.270 531.530 C 871.745 535.473, 858.935 545.531, 850.583 557.981 C 840.782 572.588, 832.532 594.301, 828.994 614.799 L 826.966 626.553 828.969 630.699 C 831.895 636.756, 832.554 646.998, 830.562 655.478 C 827.427 668.825, 821.658 675.440, 809.180 679.994 C 804.649 681.647, 800.168 683.007, 799.221 683.015 C 798.275 683.024, 796.864 683.433, 796.088 683.925 C 792.617 686.122, 808.227 703.604, 819.142 709.744 C 830.449 716.105, 848.157 720.040, 865 719.935 C 872.032 719.892, 873.155 719.677, 871.500 718.695 C 867.278 716.189, 856.334 704.085, 852.727 697.935 C 844.979 684.721, 839.999 663.595, 840.011 644 C 840.033 609.807, 852.481 575.169, 871.394 556.673 C 879.743 548.509, 883.961 545.678, 892.649 542.408 C 900.390 539.494, 914.741 539.029, 920.654 541.500 C 925.715 543.615, 926.695 543.369, 924.123 540.631 C 921.272 537.596, 913.469 533.350, 907.310 531.481 C 901.443 529.701, 890.001 529.725, 884.270 531.530" fill="white" fill-opacity="1" fill-rule="evenodd" stroke="none" onclick="fillRegion(this)"/>
  <path id="right_eye_inner" class="region" d="M 895.824 551.435 C 880.624 557.260, 866.188 574.115, 858.206 595.357 C 845.818 628.323, 846.546 664.848, 860.114 691.064 C 867.915 706.136, 881.495 716, 894.446 716 C 904.438 716, 918.839 708.642, 926.969 699.382 C 933.386 692.074, 940.758 679.101, 945.056 667.553 C 952.448 647.695, 954.658 615.113, 950.007 594.574 C 945.682 575.475, 934.702 558.911, 922.423 552.960 C 916.324 550.004, 901.740 549.168, 895.824 551.435" fill="white" fill-opacity="1" fill-rule="evenodd" stroke="none" onclick="fillRegion(this)"/>
  <path id="belly_outer" class="region" d="M 180.959 559.550 C 180.099 560.585, 179.664 564.488, 179.648 571.300 C 179.579 600.779, 198.942 620.829, 235 628.615 C 247.169 631.243, 274.676 631.252, 284.500 628.632 C 309.094 622.071, 326.597 603.056, 329.434 579.814 C 330.046 574.800, 329.874 573.874, 327.977 571.977 C 326.357 570.357, 325.171 569.997, 323.163 570.518 C 302.901 575.777, 260.131 576.408, 232 571.863 C 215.597 569.212, 191.191 562.140, 188.894 559.372 C 187.360 557.524, 182.551 557.632, 180.959 559.550" fill="white" fill-opacity="1" fill-rule="evenodd" stroke="none" onclick="fillRegion(this)"/>
  <path id="tail_outer" class="region" d="M 586 567.442 C 577.317 569.278, 571.124 572.067, 561.511 578.468 C 544.969 589.483, 531.681 608.168, 521.347 634.945 L 516.158 648.389 517.984 651.969 C 522.802 661.413, 523.319 684.434, 518.995 697 C 512.321 716.394, 502.747 724.994, 483.489 728.893 C 478.858 729.830, 474.771 730.896, 474.406 731.261 C 473.395 732.272, 480.491 746.533, 485.491 753.539 C 496.448 768.895, 513.249 779.514, 535.300 785.023 C 547.695 788.120, 566.047 790.367, 574.496 789.822 L 579.493 789.500 572.363 785.274 C 554.034 774.412, 540.991 751.885, 535.961 722.402 C 530.960 693.094, 536.757 657.321, 550.997 629.604 C 558.073 615.831, 561.052 611.742, 571.630 601.284 C 579.528 593.476, 582.369 591.392, 590.226 587.642 C 601.508 582.258, 606.543 580.996, 616.693 581.012 C 625.378 581.025, 631.950 582.494, 640.661 586.370 L 646.500 588.967 640.500 583.475 C 626.517 570.675, 603.178 563.808, 586 567.442" fill="white" fill-opacity="1" fill-rule="evenodd" stroke="none" onclick="fillRegion(this)"/>
  <path id="belly_stripe" class="region" d="M 188.014 573.910 C 188.038 581.937, 188.414 582.421, 196.823 585.242 C 206.255 588.406, 223.696 592.311, 239 594.685 C 247.971 596.077, 256.657 596.472, 278.500 596.484 C 293.900 596.493, 308.614 596.138, 311.198 595.696 C 315.769 594.915, 315.952 594.745, 317.948 589.409 C 321.503 579.907, 321.403 579.851, 305.750 582.660 C 299.194 583.836, 290.820 584.316, 277 584.310 C 248.281 584.296, 221.579 580.429, 199.288 573.055 L 188 569.320 188.014 573.910" fill="white" fill-opacity="1" fill-rule="evenodd" stroke="none" onclick="fillRegion(this)"/>
  <path id="right_antenna" class="region" d="M 967.500 572.647 C 964.750 574.550, 961.930 576.442, 961.234 576.852 C 960.234 577.441, 960.385 579.270, 961.949 585.555 C 963.038 589.932, 964.283 597.740, 964.715 602.906 L 965.500 612.300 968.694 609.608 C 974.866 604.407, 978.326 589.424, 976.102 577.529 C 974.508 569, 973.553 568.458, 967.500 572.647" fill="white" fill-opacity="1" fill-rule="evenodd" stroke="none" onclick="fillRegion(this)"/>
  <path id="right_eye_pupil" class="region" d="M 898.608 586.422 C 889.862 589.658, 882.239 600.493, 877.428 616.527 C 872.574 632.706, 874.023 655.632, 880.648 667.486 C 883.349 672.318, 888.846 677.611, 892.676 679.067 C 905.052 683.772, 919.187 670.967, 924.972 649.809 C 928.950 635.261, 929.177 616.070, 925.501 605.004 C 920.448 589.789, 909.657 582.333, 898.608 586.422" fill="white" fill-opacity="1" fill-rule="evenodd" stroke="none" onclick="fillRegion(this)"/>
  <path id="belly_lower" class="region" d="M 192.032 590.750 C 192.122 592.846, 200.444 602.673, 205.143 606.233 C 217.978 615.955, 233.985 620.817, 256 621.680 C 279.734 622.610, 295.870 618.003, 306.478 607.269 C 310.937 602.757, 311.064 602.480, 308.845 602.132 C 307.555 601.930, 301.472 602.336, 295.327 603.036 C 268.915 606.041, 226.749 601.213, 199.500 592.064 C 192.804 589.815, 191.986 589.672, 192.032 590.750" fill="white" fill-opacity="1" fill-rule="evenodd" stroke="none" onclick="fillRegion(this)"/>
  <path id="tail_inner" class="region" d="M 607.300 591.909 C 595.289 594.980, 587.140 600.055, 576.394 611.158 C 561.956 626.076, 552.833 644.916, 547.419 671 C 542.865 692.935, 543.218 712.064, 548.541 731.957 C 553.019 748.689, 559.572 760.585, 569.735 770.428 C 597.415 797.239, 636.651 783.475, 658.946 739.133 C 664.106 728.869, 669.745 710.493, 671.568 698 C 674.018 681.216, 673.148 657.167, 669.597 643.500 C 663.247 619.055, 648.755 599.720, 632.360 593.816 C 626.012 591.530, 612.734 590.519, 607.300 591.909" fill="white" fill-opacity="1" fill-rule="evenodd" stroke="none" onclick="fillRegion(this)"/>
  <path id="right_eye_center" class="region" d="M 900.180 595.682 C 891.149 600.132, 883 620.657, 883 638.951 C 883 653.830, 887.553 666.047, 894.335 669.368 C 898.005 671.165, 898.299 671.169, 902.071 669.468 C 910.896 665.489, 917.720 650.419, 919.492 631 C 920.785 616.830, 915.744 599.640, 909.156 595.750 C 905.526 593.607, 904.407 593.599, 900.180 595.682" fill="white" fill-opacity="1" fill-rule="evenodd" stroke="none" onclick="fillRegion(this)"/>
  <path id="ground_body" class="region" d="M 58.606 602.794 C 53.021 613.594, 52.463 633.816, 57.447 644.782 C 63.236 657.520, 77.282 666.699, 104.500 675.528 C 144.042 688.355, 200.784 699.643, 267.500 707.954 C 364.142 719.992, 458.396 722.384, 488.135 713.552 C 497.055 710.904, 501.223 706.103, 505.681 693.349 C 508.078 686.488, 508.416 684.053, 508.366 674 C 508.306 661.771, 506.808 656.038, 503.165 654.088 C 502.004 653.467, 498.963 653.430, 494.913 653.988 C 468.670 657.602, 384.394 658.807, 341 656.190 C 257.609 651.159, 200.949 644.286, 145.500 632.475 C 106.471 624.162, 76.887 613.467, 66.540 603.930 C 64.195 601.768, 61.776 600, 61.164 600 C 60.552 600, 59.401 601.257, 58.606 602.794" fill="white" fill-opacity="1" fill-rule="evenodd" stroke="none" onclick="fillRegion(this)"/>
  <path id="tail_detail" class="region" d="M 608.500 633.935 C 601.274 635.694, 593.151 642.768, 587.725 652.025 C 571.243 680.150, 574.299 725.074, 593.561 737.833 C 599.187 741.559, 603.716 742.408, 610.478 741.005 C 614.863 740.094, 616.986 738.832, 622.264 733.995 C 629.793 727.096, 634.528 718.845, 638.638 705.463 C 641.162 697.240, 641.391 695.137, 641.408 680 C 641.425 663.757, 641.375 663.365, 638.139 654.807 C 635.555 647.972, 633.747 644.973, 629.676 640.769 C 622.930 633.802, 616.960 631.875, 608.500 633.935" fill="white" fill-opacity="1" fill-rule="evenodd" stroke="none" onclick="fillRegion(this)"/>
  <path id="right_leg" class="region" d="M 798 639.596 C 773.733 645.764, 734.846 653.155, 692.253 659.694 L 687.006 660.500 686.747 675.252 L 686.489 690.004 691.494 689.410 C 724.670 685.476, 780.680 674.423, 805.204 666.970 C 815.507 663.839, 818.338 658.727, 817.792 644.238 L 817.500 636.500 814.500 636.332 C 812.850 636.240, 805.425 637.708, 798 639.596" fill="white" fill-opacity="1" fill-rule="evenodd" stroke="none" onclick="fillRegion(this)"/>
  <path id="tail_center" class="region" d="M 611.171 643.255 C 605.149 644.499, 598.770 651.202, 593.852 661.456 C 588.934 671.709, 586.804 681.764, 586.745 695 C 586.621 722.669, 598.974 738.197, 613.621 728.785 C 625.963 720.856, 634.364 694.227, 631.866 670.955 C 630.853 661.517, 628.925 655.932, 624.401 649.323 C 620.301 643.334, 617.347 641.979, 611.171 643.255" fill="white" fill-opacity="1" fill-rule="evenodd" stroke="none" onclick="fillRegion(this)"/>
  <path id="left_foot_outer" class="region" d="M 116.448 696.112 C 116.817 697.425, 118.950 702.286, 121.189 706.913 C 124.309 713.364, 127.037 717.126, 132.879 723.039 C 143.708 733.997, 156.013 739.793, 176 743.348 C 192.740 746.326, 200.335 746.302, 193.750 743.293 C 186.223 739.853, 171.939 721.885, 167.604 710.402 L 165.707 705.380 158.641 704.073 C 154.755 703.354, 144.584 700.984, 136.038 698.805 C 127.492 696.627, 119.437 694.592, 118.139 694.284 C 116.043 693.787, 115.853 693.993, 116.448 696.112" fill="white" fill-opacity="1" fill-rule="evenodd" stroke="none" onclick="fillRegion(this)"/>
  <path id="left_foot_inner" class="region" d="M 178 709.087 C 178 709.758, 179.611 713.189, 181.581 716.711 C 186.795 726.034, 194.990 733.921, 204.158 738.439 C 211.486 742.051, 212.178 742.198, 220.252 741.856 C 227.734 741.540, 229.574 741.050, 236.525 737.521 C 241.907 734.788, 246.377 731.499, 250.790 727.021 L 257.218 720.500 244.359 718.785 C 223.059 715.945, 183.632 709.612, 179.750 708.408 C 178.742 708.095, 178 708.383, 178 709.087" fill="white" fill-opacity="1" fill-rule="evenodd" stroke="none" onclick="fillRegion(this)"/>
</g>

<!-- Black outlines on top -->
<g id="outlines" pointer-events="none">
  <path d="M 550.500 211.682 C 462.008 217.377, 396.588 234.579, 353.494 263.484 C 332.814 277.355, 308.839 300.940, 290.328 325.622 C 280.174 339.161, 260.220 371.331, 257.729 378.177 C 257.170 379.714, 256.679 379.677, 251.810 377.728 C 244.260 374.707, 229.805 374.787, 221.798 377.895 C 214.241 380.828, 206.656 387.791, 202.733 395.396 C 199.742 401.194, 199.582 402.083, 199.542 413.147 L 199.500 424.793 187.500 428.995 C 147.674 442.938, 121.265 456.363, 100 473.475 C 78.642 490.662, 67.573 507.634, 59.390 535.741 C 55.584 548.817, 53.971 558.998, 53.330 574 C 52.809 586.190, 52.533 587.743, 50.484 590 C 49.236 591.375, 47.030 594.869, 45.583 597.765 C 35.480 617.976, 38.490 646.532, 52.425 662.677 C 60.009 671.463, 76.264 681.209, 93.180 687.113 L 99.789 689.420 101.421 695.291 C 108.968 722.437, 127.653 743.168, 152.298 751.738 C 170.420 758.041, 180.344 759.392, 203.717 758.740 C 220.460 758.273, 223.283 757.941, 229.707 755.682 C 247.172 749.542, 258.499 741.207, 270.059 725.991 L 272.617 722.623 286.559 724.319 C 329.427 729.534, 376.478 732.301, 424.250 732.415 C 448.029 732.471, 459.999 732.845, 460 733.529 C 460 735.252, 465.295 747.144, 468.893 753.503 C 483.697 779.671, 506.283 794.063, 544.500 801.679 C 556.942 804.159, 585.866 804.149, 598.354 801.661 C 610.268 799.287, 624.656 794.026, 633.351 788.863 C 641.684 783.917, 656.820 769.292, 662.709 760.500 C 672.659 745.642, 679.647 729.283, 683.461 711.918 L 685.126 704.337 705.313 701.594 C 724.489 698.988, 750.159 694.482, 771 690.063 C 776.225 688.955, 780.627 688.417, 780.781 688.868 C 782.121 692.773, 792.382 706.093, 798.324 711.642 C 815.179 727.383, 843.063 735.261, 876.303 733.673 C 896.405 732.713, 910.228 728.831, 923.027 720.551 C 946.037 705.666, 960.924 676.675, 965.998 636.868 L 967.226 627.237 972.863 623.579 C 984.374 616.110, 990.084 604.005, 990.116 587 C 990.135 576.896, 988.450 568.763, 984.893 561.791 C 983.301 558.670, 982.921 556.592, 983.359 553.400 C 984.159 547.564, 982.389 524.259, 980.408 514.547 C 979.511 510.151, 977.220 502.080, 975.317 496.611 C 965.389 468.091, 952.353 452.070, 926.250 436.312 C 925.013 435.565, 923.996 434.177, 923.991 433.227 C 923.960 427.403, 916.806 401.475, 910.544 384.500 C 907.108 375.182, 894.336 349.070, 888.443 339.315 C 868.032 305.523, 840.863 278.019, 809.500 259.400 C 785.010 244.861, 762.158 235.640, 727 226.108 C 703.568 219.756, 666.739 214.273, 632.517 212.042 C 618.173 211.107, 563.187 210.866, 550.500 211.682" fill="none" fill-rule="evenodd" stroke="#1a1a1a" stroke-width="2.8" stroke-linejoin="round" stroke-linecap="round"/>
  <path d="M 456 263.005 C 430.209 264.955, 410.709 267.407, 395.803 270.576 C 392.119 271.359, 387.844 272.004, 386.303 272.009 C 380.657 272.027, 351.616 290.932, 347.121 297.516 C 345.813 299.432, 344.160 301, 343.449 301 C 341.584 301, 323.325 320.811, 314.466 332.445 C 301.237 349.819, 282.397 381.450, 276.910 395.500 C 272.060 407.916, 273.974 418.910, 281.666 422.825 C 283.775 423.898, 287.300 425.288, 289.500 425.914 C 293.111 426.942, 324.209 430.120, 358.500 432.967 C 365.650 433.560, 382.750 435.157, 396.500 436.516 C 410.250 437.874, 436.125 440.358, 454 442.037 C 471.875 443.715, 493.925 445.962, 503 447.029 C 549.386 452.485, 558.318 452.956, 568.752 450.496 C 587.507 446.074, 593.316 435.748, 617.698 363.500 C 629.636 328.126, 635.178 308.937, 635.754 300.979 C 636.113 296.038, 635.805 294.939, 632.827 290.525 C 630.280 286.750, 627.858 284.728, 622.500 281.903 C 610.171 275.404, 574.774 267.932, 540 264.487 C 521.508 262.656, 472.149 261.785, 456 263.005" fill="none" fill-rule="evenodd" stroke="#1a1a1a" stroke-width="2.8" stroke-linejoin="round" stroke-linecap="round"/>
  <path d="M 456 274.676 C 431.949 276.420, 391.451 282.470, 381.663 285.781 C 372.928 288.737, 362.200 296.772, 348 310.997 C 324.775 334.263, 307.825 357.493, 293.271 386 C 286.069 400.107, 284.497 407.497, 287.961 410.961 C 291.480 414.480, 299.926 415.849, 340.500 419.476 C 388.219 423.741, 426.061 427.275, 454 430.078 C 465.275 431.209, 485.750 433.236, 499.500 434.582 C 513.250 435.928, 531.475 437.733, 540 438.593 C 556.421 440.249, 565.266 439.948, 569.850 437.577 C 580.279 432.184, 591.572 408.241, 610.455 351.489 C 619.262 325.021, 624.347 305.663, 623.574 301.545 C 622.318 294.848, 615.145 290.797, 596.056 286.003 C 576.445 281.079, 550.432 277.134, 523.605 275.017 C 511.934 274.097, 467.110 273.870, 456 274.676" fill="none" fill-rule="evenodd" stroke="#1a1a1a" stroke-width="2.8" stroke-linejoin="round" stroke-linecap="round"/>
  <path d="M 710 279.006 C 675.577 288.282, 657.336 311.242, 636.117 372 C 630.927 386.864, 621.816 419.034, 620.533 427.027 C 620.139 429.487, 618.755 433.075, 617.459 435 C 612.730 442.024, 611.602 455.319, 615.084 463 C 619.481 472.698, 627.519 477.713, 646.172 482.395 L 659.500 485.741 660.636 498.620 C 661.260 505.704, 662.525 514.650, 663.447 518.500 C 666.667 531.949, 671.819 559.604, 673.506 572.500 C 674.442 579.650, 675.560 587.525, 675.992 590 L 676.776 594.500 676.888 588.211 C 677.094 576.646, 673.012 547.141, 669.458 534.500 C 666.549 524.155, 663.151 505.157, 662.527 495.750 L 661.879 486 671.803 486 C 685.037 486, 690.941 484.779, 700.563 480.051 C 709.045 475.883, 717.846 468.201, 719.945 463.133 C 721.095 460.357, 721.185 460.333, 734.801 459.186 C 774.175 455.871, 806.020 451.538, 807.750 449.262 C 812.969 442.396, 801.333 368.734, 789.147 331.500 C 778.254 298.214, 769.285 286.150, 751 280.191 C 740.246 276.686, 720.705 276.121, 710 279.006" fill="none" fill-rule="evenodd" stroke="#1a1a1a" stroke-width="2.8" stroke-linejoin="round" stroke-linecap="round"/>
  <path d="M 718.327 290.044 C 702.730 293.128, 689.564 300.130, 680.588 310.113 C 664.972 327.482, 651.412 357.781, 635.540 410.771 C 634.179 415.313, 634.911 417.017, 637.093 414.388 C 639.426 411.577, 648.379 406.370, 654.527 404.249 C 664.298 400.877, 672.402 399.687, 681.784 400.245 C 692.786 400.899, 701.672 403.882, 709.724 409.625 C 720.766 417.500, 726 427.639, 726 441.155 L 726 449.288 733.750 448.631 C 752.207 447.066, 773.386 444.878, 784.750 443.362 C 798.988 441.462, 797.606 443.790, 795.949 424.500 C 792.627 385.831, 781.127 336.976, 769.689 312.943 C 765.065 303.228, 759.460 296.875, 753.102 294.139 C 742.766 289.693, 728.563 288.020, 718.327 290.044" fill="none" fill-rule="evenodd" stroke="#1a1a1a" stroke-width="2.8" stroke-linejoin="round" stroke-linecap="round"/>
  <path d="M 795.500 298.195 C 790.800 300.860, 790.880 304.412, 795.976 319.307 C 798.162 325.698, 801.777 337.444, 804.008 345.409 C 809.226 364.038, 811.433 374.021, 816.073 400 C 817.713 409.182, 820.998 435.265, 820.999 439.115 C 821 441.257, 821.845 443.804, 823.073 445.365 C 825.828 448.868, 829.616 448.827, 854.794 445.023 C 879.796 441.245, 881.789 440.686, 882.665 437.205 C 883.816 432.632, 881.261 414.844, 877.954 404.408 C 863.250 358.001, 835.945 318.882, 805.500 300.607 C 798.921 296.658, 798.423 296.538, 795.500 298.195" fill="none" fill-rule="evenodd" stroke="#1a1a1a" stroke-width="2.8" stroke-linejoin="round" stroke-linecap="round"/>
  <path d="M 803 311.845 C 803 312.308, 803.919 315.345, 805.042 318.593 C 813.306 342.500, 824.737 391.369, 827.943 416.500 C 828.575 421.450, 829.558 428.519, 830.129 432.208 C 831.137 438.726, 831.243 438.904, 833.833 438.466 C 835.300 438.218, 843.475 437.057, 852 435.887 C 872.827 433.028, 872 433.440, 872 425.925 C 872 418.179, 868.438 404.758, 862.465 390 C 852.459 365.276, 837.797 342.577, 821.387 326.406 C 813.178 318.317, 803 310.257, 803 311.845" fill="none" fill-rule="evenodd" stroke="#1a1a1a" stroke-width="2.8" stroke-linejoin="round" stroke-linecap="round"/>
  <path d="M 226.611 391.003 C 216.678 394.882, 213.056 400.944, 213.022 413.750 C 213.004 420.551, 213.273 422, 214.553 422 C 215.407 422, 220.245 420.774, 225.303 419.276 C 233.678 416.796, 234.992 416.054, 240 410.981 C 243.025 407.916, 246.986 402.606, 248.803 399.179 L 252.106 392.950 247.803 390.997 C 242.216 388.461, 233.113 388.464, 226.611 391.003" fill="none" fill-rule="evenodd" stroke="#1a1a1a" stroke-width="2.8" stroke-linejoin="round" stroke-linecap="round"/>
  <path d="M 666 414.024 C 663.525 414.535, 657.900 416.744, 653.500 418.932 C 634.488 428.387, 624.404 446.327, 631.278 458.465 C 634.364 463.912, 640.697 467.523, 652.513 470.572 C 661.131 472.796, 664.008 473.089, 673.500 472.707 C 682.877 472.330, 685.574 471.817, 691.777 469.231 C 700.488 465.599, 705.277 462.118, 708.370 457.170 C 718.360 441.193, 711.878 422.780, 693.805 415.801 C 687.739 413.459, 673.227 412.531, 666 414.024" fill="none" fill-rule="evenodd" stroke="#1a1a1a" stroke-width="2.8" stroke-linejoin="round" stroke-linecap="round"/>
  <path d="M 792.500 477.626 C 780.675 480.594, 774 485.594, 774 491.483 C 774 500.164, 779.310 503.940, 791.572 503.978 C 804.630 504.019, 815 498.132, 815 490.679 C 815 485.527, 813.319 482.547, 809.061 480.154 C 805.332 478.059, 796.281 476.677, 792.500 477.626" fill="none" fill-rule="evenodd" stroke="#1a1a1a" stroke-width="2.8" stroke-linejoin="round" stroke-linecap="round"/>
  <path d="M 794.500 484.100 C 782.523 485.810, 777.874 488.877, 779.499 493.998 C 780.364 496.722, 783.779 497.383, 793.452 496.701 C 802.131 496.088, 809.481 493.794, 810.395 491.414 C 811.312 489.023, 809.191 485.023, 806.453 483.982 C 803.566 482.885, 802.975 482.891, 794.500 484.100" fill="none" fill-rule="evenodd" stroke="#1a1a1a" stroke-width="2.8" stroke-linejoin="round" stroke-linecap="round"/>
  <path d="M 113.500 494.950 C 102.620 497.654, 90.639 507.939, 85.118 519.315 C 73.584 543.082, 81.438 572.510, 102.134 583.068 C 122.462 593.439, 148.476 583.402, 158.717 561.237 C 163.542 550.793, 165.020 538.968, 162.683 529.497 C 160.078 518.942, 156.646 512.483, 150.284 506.160 C 140.201 496.140, 126.059 491.830, 113.500 494.950" fill="none" fill-rule="evenodd" stroke="#1a1a1a" stroke-width="2.8" stroke-linejoin="round" stroke-linecap="round"/>
  <path d="M 113.332 503.801 C 110.490 504.811, 106.512 506.897, 104.492 508.438 C 99.423 512.305, 92.525 521.955, 90.330 528.252 C 87.874 535.295, 87.896 549.519, 90.373 556.770 C 92.692 563.555, 98.745 571.180, 104.481 574.542 C 110.354 577.983, 119.287 578.937, 123.798 576.605 C 127.598 574.640, 134.005 568.422, 133.988 566.717 C 133.981 566.048, 132.372 564.461, 130.413 563.192 C 125.671 560.119, 123.050 554.164, 123.022 546.399 C 122.996 539.065, 124.780 532.856, 126.191 535.376 C 127.457 537.639, 132.323 537.406, 134.521 534.977 C 136.427 532.870, 136.967 527.752, 135.598 524.773 C 134.996 523.464, 135.455 522.750, 137.497 521.819 C 139.948 520.703, 140.134 520.237, 139.560 516.651 C 137.781 505.525, 125.467 499.491, 113.332 503.801" fill="none" fill-rule="evenodd" stroke="#1a1a1a" stroke-width="2.8" stroke-linejoin="round" stroke-linecap="round"/>
  <path d="M 407 511.814 C 399.477 513.781, 393.407 517.117, 386.864 522.884 C 380.820 528.210, 376.672 534.798, 372.860 545.126 C 367.677 559.168, 368.537 576.025, 375.106 589.159 C 379.494 597.931, 387.915 606.355, 396.577 610.635 C 403.045 613.832, 405.089 614.336, 413.346 614.768 C 419.189 615.073, 424.786 614.779, 428.125 613.992 C 442.764 610.540, 455.225 600.076, 462.290 585.302 L 466.500 576.500 466.498 563 C 466.496 551.420, 466.168 548.591, 464.190 543.110 C 459.517 530.159, 450.956 520.682, 438.787 514.987 C 427.770 509.832, 418.228 508.879, 407 511.814" fill="none" fill-rule="evenodd" stroke="#1a1a1a" stroke-width="2.8" stroke-linejoin="round" stroke-linecap="round"/>
  <path d="M 409 520.605 C 400.044 523.003, 393.935 527.558, 387.291 536.792 C 370.611 559.976, 378.181 594.110, 402 603.118 C 412.395 607.049, 423.760 603.967, 430.926 595.273 C 432.617 593.222, 434 591.251, 434 590.893 C 434 590.536, 432.632 589.676, 430.960 588.983 C 420.500 584.651, 416.464 568.978, 422.145 554.750 C 423.481 551.403, 425 551.164, 425 554.300 C 425 559.077, 429.932 560.575, 433.799 556.972 C 436.659 554.309, 437.542 550.485, 436.053 547.217 C 435.031 544.975, 435.116 544.389, 436.617 543.291 C 437.588 542.581, 438.746 542, 439.191 542 C 440.628 542, 440.010 537.618, 437.921 533 C 434.992 526.521, 430.388 522.193, 424.596 520.473 C 418.564 518.681, 416.104 518.702, 409 520.605" fill="none" fill-rule="evenodd" stroke="#1a1a1a" stroke-width="2.8" stroke-linejoin="round" stroke-linecap="round"/>
  <path d="M 884.270 531.530 C 871.745 535.473, 858.935 545.531, 850.583 557.981 C 840.782 572.588, 832.532 594.301, 828.994 614.799 L 826.966 626.553 828.969 630.699 C 831.895 636.756, 832.554 646.998, 830.562 655.478 C 827.427 668.825, 821.658 675.440, 809.180 679.994 C 804.649 681.647, 800.168 683.007, 799.221 683.015 C 798.275 683.024, 796.864 683.433, 796.088 683.925 C 792.617 686.122, 808.227 703.604, 819.142 709.744 C 830.449 716.105, 848.157 720.040, 865 719.935 C 872.032 719.892, 873.155 719.677, 871.500 718.695 C 867.278 716.189, 856.334 704.085, 852.727 697.935 C 844.979 684.721, 839.999 663.595, 840.011 644 C 840.033 609.807, 852.481 575.169, 871.394 556.673 C 879.743 548.509, 883.961 545.678, 892.649 542.408 C 900.390 539.494, 914.741 539.029, 920.654 541.500 C 925.715 543.615, 926.695 543.369, 924.123 540.631 C 921.272 537.596, 913.469 533.350, 907.310 531.481 C 901.443 529.701, 890.001 529.725, 884.270 531.530" fill="none" fill-rule="evenodd" stroke="#1a1a1a" stroke-width="2.8" stroke-linejoin="round" stroke-linecap="round"/>
  <path d="M 895.824 551.435 C 880.624 557.260, 866.188 574.115, 858.206 595.357 C 845.818 628.323, 846.546 664.848, 860.114 691.064 C 867.915 706.136, 881.495 716, 894.446 716 C 904.438 716, 918.839 708.642, 926.969 699.382 C 933.386 692.074, 940.758 679.101, 945.056 667.553 C 952.448 647.695, 954.658 615.113, 950.007 594.574 C 945.682 575.475, 934.702 558.911, 922.423 552.960 C 916.324 550.004, 901.740 549.168, 895.824 551.435" fill="none" fill-rule="evenodd" stroke="#1a1a1a" stroke-width="2.8" stroke-linejoin="round" stroke-linecap="round"/>
  <path d="M 180.959 559.550 C 180.099 560.585, 179.664 564.488, 179.648 571.300 C 179.579 600.779, 198.942 620.829, 235 628.615 C 247.169 631.243, 274.676 631.252, 284.500 628.632 C 309.094 622.071, 326.597 603.056, 329.434 579.814 C 330.046 574.800, 329.874 573.874, 327.977 571.977 C 326.357 570.357, 325.171 569.997, 323.163 570.518 C 302.901 575.777, 260.131 576.408, 232 571.863 C 215.597 569.212, 191.191 562.140, 188.894 559.372 C 187.360 557.524, 182.551 557.632, 180.959 559.550" fill="none" fill-rule="evenodd" stroke="#1a1a1a" stroke-width="2.8" stroke-linejoin="round" stroke-linecap="round"/>
  <path d="M 586 567.442 C 577.317 569.278, 571.124 572.067, 561.511 578.468 C 544.969 589.483, 531.681 608.168, 521.347 634.945 L 516.158 648.389 517.984 651.969 C 522.802 661.413, 523.319 684.434, 518.995 697 C 512.321 716.394, 502.747 724.994, 483.489 728.893 C 478.858 729.830, 474.771 730.896, 474.406 731.261 C 473.395 732.272, 480.491 746.533, 485.491 753.539 C 496.448 768.895, 513.249 779.514, 535.300 785.023 C 547.695 788.120, 566.047 790.367, 574.496 789.822 L 579.493 789.500 572.363 785.274 C 554.034 774.412, 540.991 751.885, 535.961 722.402 C 530.960 693.094, 536.757 657.321, 550.997 629.604 C 558.073 615.831, 561.052 611.742, 571.630 601.284 C 579.528 593.476, 582.369 591.392, 590.226 587.642 C 601.508 582.258, 606.543 580.996, 616.693 581.012 C 625.378 581.025, 631.950 582.494, 640.661 586.370 L 646.500 588.967 640.500 583.475 C 626.517 570.675, 603.178 563.808, 586 567.442" fill="none" fill-rule="evenodd" stroke="#1a1a1a" stroke-width="2.8" stroke-linejoin="round" stroke-linecap="round"/>
  <path d="M 188.014 573.910 C 188.038 581.937, 188.414 582.421, 196.823 585.242 C 206.255 588.406, 223.696 592.311, 239 594.685 C 247.971 596.077, 256.657 596.472, 278.500 596.484 C 293.900 596.493, 308.614 596.138, 311.198 595.696 C 315.769 594.915, 315.952 594.745, 317.948 589.409 C 321.503 579.907, 321.403 579.851, 305.750 582.660 C 299.194 583.836, 290.820 584.316, 277 584.310 C 248.281 584.296, 221.579 580.429, 199.288 573.055 L 188 569.320 188.014 573.910" fill="none" fill-rule="evenodd" stroke="#1a1a1a" stroke-width="2.8" stroke-linejoin="round" stroke-linecap="round"/>
  <path d="M 967.500 572.647 C 964.750 574.550, 961.930 576.442, 961.234 576.852 C 960.234 577.441, 960.385 579.270, 961.949 585.555 C 963.038 589.932, 964.283 597.740, 964.715 602.906 L 965.500 612.300 968.694 609.608 C 974.866 604.407, 978.326 589.424, 976.102 577.529 C 974.508 569, 973.553 568.458, 967.500 572.647" fill="none" fill-rule="evenodd" stroke="#1a1a1a" stroke-width="2.8" stroke-linejoin="round" stroke-linecap="round"/>
  <path d="M 898.608 586.422 C 889.862 589.658, 882.239 600.493, 877.428 616.527 C 872.574 632.706, 874.023 655.632, 880.648 667.486 C 883.349 672.318, 888.846 677.611, 892.676 679.067 C 905.052 683.772, 919.187 670.967, 924.972 649.809 C 928.950 635.261, 929.177 616.070, 925.501 605.004 C 920.448 589.789, 909.657 582.333, 898.608 586.422" fill="none" fill-rule="evenodd" stroke="#1a1a1a" stroke-width="2.8" stroke-linejoin="round" stroke-linecap="round"/>
  <path d="M 192.032 590.750 C 192.122 592.846, 200.444 602.673, 205.143 606.233 C 217.978 615.955, 233.985 620.817, 256 621.680 C 279.734 622.610, 295.870 618.003, 306.478 607.269 C 310.937 602.757, 311.064 602.480, 308.845 602.132 C 307.555 601.930, 301.472 602.336, 295.327 603.036 C 268.915 606.041, 226.749 601.213, 199.500 592.064 C 192.804 589.815, 191.986 589.672, 192.032 590.750" fill="none" fill-rule="evenodd" stroke="#1a1a1a" stroke-width="2.8" stroke-linejoin="round" stroke-linecap="round"/>
  <path d="M 607.300 591.909 C 595.289 594.980, 587.140 600.055, 576.394 611.158 C 561.956 626.076, 552.833 644.916, 547.419 671 C 542.865 692.935, 543.218 712.064, 548.541 731.957 C 553.019 748.689, 559.572 760.585, 569.735 770.428 C 597.415 797.239, 636.651 783.475, 658.946 739.133 C 664.106 728.869, 669.745 710.493, 671.568 698 C 674.018 681.216, 673.148 657.167, 669.597 643.500 C 663.247 619.055, 648.755 599.720, 632.360 593.816 C 626.012 591.530, 612.734 590.519, 607.300 591.909" fill="none" fill-rule="evenodd" stroke="#1a1a1a" stroke-width="2.8" stroke-linejoin="round" stroke-linecap="round"/>
  <path d="M 900.180 595.682 C 891.149 600.132, 883 620.657, 883 638.951 C 883 653.830, 887.553 666.047, 894.335 669.368 C 898.005 671.165, 898.299 671.169, 902.071 669.468 C 910.896 665.489, 917.720 650.419, 919.492 631 C 920.785 616.830, 915.744 599.640, 909.156 595.750 C 905.526 593.607, 904.407 593.599, 900.180 595.682" fill="none" fill-rule="evenodd" stroke="#1a1a1a" stroke-width="2.8" stroke-linejoin="round" stroke-linecap="round"/>
  <path d="M 58.606 602.794 C 53.021 613.594, 52.463 633.816, 57.447 644.782 C 63.236 657.520, 77.282 666.699, 104.500 675.528 C 144.042 688.355, 200.784 699.643, 267.500 707.954 C 364.142 719.992, 458.396 722.384, 488.135 713.552 C 497.055 710.904, 501.223 706.103, 505.681 693.349 C 508.078 686.488, 508.416 684.053, 508.366 674 C 508.306 661.771, 506.808 656.038, 503.165 654.088 C 502.004 653.467, 498.963 653.430, 494.913 653.988 C 468.670 657.602, 384.394 658.807, 341 656.190 C 257.609 651.159, 200.949 644.286, 145.500 632.475 C 106.471 624.162, 76.887 613.467, 66.540 603.930 C 64.195 601.768, 61.776 600, 61.164 600 C 60.552 600, 59.401 601.257, 58.606 602.794" fill="none" fill-rule="evenodd" stroke="#1a1a1a" stroke-width="2.8" stroke-linejoin="round" stroke-linecap="round"/>
  <path d="M 608.500 633.935 C 601.274 635.694, 593.151 642.768, 587.725 652.025 C 571.243 680.150, 574.299 725.074, 593.561 737.833 C 599.187 741.559, 603.716 742.408, 610.478 741.005 C 614.863 740.094, 616.986 738.832, 622.264 733.995 C 629.793 727.096, 634.528 718.845, 638.638 705.463 C 641.162 697.240, 641.391 695.137, 641.408 680 C 641.425 663.757, 641.375 663.365, 638.139 654.807 C 635.555 647.972, 633.747 644.973, 629.676 640.769 C 622.930 633.802, 616.960 631.875, 608.500 633.935" fill="none" fill-rule="evenodd" stroke="#1a1a1a" stroke-width="2.8" stroke-linejoin="round" stroke-linecap="round"/>
  <path d="M 798 639.596 C 773.733 645.764, 734.846 653.155, 692.253 659.694 L 687.006 660.500 686.747 675.252 L 686.489 690.004 691.494 689.410 C 724.670 685.476, 780.680 674.423, 805.204 666.970 C 815.507 663.839, 818.338 658.727, 817.792 644.238 L 817.500 636.500 814.500 636.332 C 812.850 636.240, 805.425 637.708, 798 639.596" fill="none" fill-rule="evenodd" stroke="#1a1a1a" stroke-width="2.8" stroke-linejoin="round" stroke-linecap="round"/>
  <path d="M 611.171 643.255 C 605.149 644.499, 598.770 651.202, 593.852 661.456 C 588.934 671.709, 586.804 681.764, 586.745 695 C 586.621 722.669, 598.974 738.197, 613.621 728.785 C 625.963 720.856, 634.364 694.227, 631.866 670.955 C 630.853 661.517, 628.925 655.932, 624.401 649.323 C 620.301 643.334, 617.347 641.979, 611.171 643.255" fill="none" fill-rule="evenodd" stroke="#1a1a1a" stroke-width="2.8" stroke-linejoin="round" stroke-linecap="round"/>
  <path d="M 116.448 696.112 C 116.817 697.425, 118.950 702.286, 121.189 706.913 C 124.309 713.364, 127.037 717.126, 132.879 723.039 C 143.708 733.997, 156.013 739.793, 176 743.348 C 192.740 746.326, 200.335 746.302, 193.750 743.293 C 186.223 739.853, 171.939 721.885, 167.604 710.402 L 165.707 705.380 158.641 704.073 C 154.755 703.354, 144.584 700.984, 136.038 698.805 C 127.492 696.627, 119.437 694.592, 118.139 694.284 C 116.043 693.787, 115.853 693.993, 116.448 696.112" fill="none" fill-rule="evenodd" stroke="#1a1a1a" stroke-width="2.8" stroke-linejoin="round" stroke-linecap="round"/>
  <path d="M 178 709.087 C 178 709.758, 179.611 713.189, 181.581 716.711 C 186.795 726.034, 194.990 733.921, 204.158 738.439 C 211.486 742.051, 212.178 742.198, 220.252 741.856 C 227.734 741.540, 229.574 741.050, 236.525 737.521 C 241.907 734.788, 246.377 731.499, 250.790 727.021 L 257.218 720.500 244.359 718.785 C 223.059 715.945, 183.632 709.612, 179.750 708.408 C 178.742 708.095, 178 708.383, 178 709.087" fill="none" fill-rule="evenodd" stroke="#1a1a1a" stroke-width="2.8" stroke-linejoin="round" stroke-linecap="round"/>
</g>

<!-- ==================== TOOLBAR ==================== -->
<g id="toolbar">
  <rect x="12" y="1038" width="1000" height="150" rx="18" fill="#1a1a2e" stroke="#0f3460" stroke-width="2"/>

  <!-- ROW 1 -->
  <rect class="swatch active" x="22"  y="1050" width="44" height="44" rx="8" fill="#e94560" onclick="setColor('#e94560',this)"/>
  <rect class="swatch" x="72"  y="1050" width="44" height="44" rx="8" fill="#ff7675" onclick="setColor('#ff7675',this)"/>
  <rect class="swatch" x="122" y="1050" width="44" height="44" rx="8" fill="#f5a623" onclick="setColor('#f5a623',this)"/>
  <rect class="swatch" x="172" y="1050" width="44" height="44" rx="8" fill="#fdcb6e" onclick="setColor('#fdcb6e',this)"/>
  <rect class="swatch" x="222" y="1050" width="44" height="44" rx="8" fill="#f7e94b" onclick="setColor('#f7e94b',this)"/>
  <rect class="swatch" x="272" y="1050" width="44" height="44" rx="8" fill="#a8e063" onclick="setColor('#a8e063',this)"/>
  <rect class="swatch" x="322" y="1050" width="44" height="44" rx="8" fill="#2ecc71" onclick="setColor('#2ecc71',this)"/>
  <rect class="swatch" x="372" y="1050" width="44" height="44" rx="8" fill="#1abc9c" onclick="setColor('#1abc9c',this)"/>
  <rect class="swatch" x="422" y="1050" width="44" height="44" rx="8" fill="#74b9ff" onclick="setColor('#74b9ff',this)"/>
  <rect class="swatch" x="472" y="1050" width="44" height="44" rx="8" fill="#0984e3" onclick="setColor('#0984e3',this)"/>
  <rect class="swatch" x="522" y="1050" width="44" height="44" rx="8" fill="#6c5ce7" onclick="setColor('#6c5ce7',this)"/>
  <rect class="swatch" x="572" y="1050" width="44" height="44" rx="8" fill="#a29bfe" onclick="setColor('#a29bfe',this)"/>
  <rect class="swatch" x="622" y="1050" width="44" height="44" rx="8" fill="#fd79a8" onclick="setColor('#fd79a8',this)"/>
  <rect class="swatch" x="672" y="1050" width="44" height="44" rx="8" fill="#e84393" onclick="setColor('#e84393',this)"/>
  <rect class="swatch" x="722" y="1050" width="44" height="44" rx="8" fill="#b8621f" onclick="setColor('#b8621f',this)"/>
  <rect class="swatch" x="772" y="1050" width="44" height="44" rx="8" fill="#f0c080" onclick="setColor('#f0c080',this)"/>
  <rect class="swatch" x="822" y="1050" width="44" height="44" rx="8" fill="#dfe6e9" onclick="setColor('#dfe6e9',this)"/>
  <rect class="swatch" x="872" y="1050" width="44" height="44" rx="8" fill="#b2bec3" onclick="setColor('#b2bec3',this)"/>
  <rect class="swatch" x="922" y="1050" width="44" height="44" rx="8" fill="#636e72" onclick="setColor('#636e72',this)"/>
  <rect class="swatch" x="972" y="1050" width="44" height="44" rx="8" fill="#2d3436" onclick="setColor('#2d3436',this)"/>

  <!-- ROW 2 -->
  <rect class="swatch" x="22"  y="1102" width="44" height="44" rx="8" fill="#c0392b" onclick="setColor('#c0392b',this)"/>
  <rect class="swatch" x="72"  y="1102" width="44" height="44" rx="8" fill="#fab1a0" onclick="setColor('#fab1a0',this)"/>
  <rect class="swatch" x="122" y="1102" width="44" height="44" rx="8" fill="#e17055" onclick="setColor('#e17055',this)"/>
  <rect class="swatch" x="172" y="1102" width="44" height="44" rx="8" fill="#ffeaa7" onclick="setColor('#ffeaa7',this)"/>
  <rect class="swatch" x="222" y="1102" width="44" height="44" rx="8" fill="#55efc4" onclick="setColor('#55efc4',this)"/>
  <rect class="swatch" x="272" y="1102" width="44" height="44" rx="8" fill="#00b894" onclick="setColor('#00b894',this)"/>
  <rect class="swatch" x="322" y="1102" width="44" height="44" rx="8" fill="#81ecec" onclick="setColor('#81ecec',this)"/>
  <rect class="swatch" x="372" y="1102" width="44" height="44" rx="8" fill="#00cec9" onclick="setColor('#00cec9',this)"/>
  <rect class="swatch" x="422" y="1102" width="44" height="44" rx="8" fill="#0652DD" onclick="setColor('#0652DD',this)"/>
  <rect class="swatch" x="472" y="1102" width="44" height="44" rx="8" fill="#1289A7" onclick="setColor('#1289A7',this)"/>
  <rect class="swatch" x="522" y="1102" width="44" height="44" rx="8" fill="#d6a2e8" onclick="setColor('#d6a2e8',this)"/>
  <rect class="swatch" x="572" y="1102" width="44" height="44" rx="8" fill="#6d214f" onclick="setColor('#6d214f',this)"/>
  <rect class="swatch" x="622" y="1102" width="44" height="44" rx="8" fill="#ff6b81" onclick="setColor('#ff6b81',this)"/>
  <rect class="swatch" x="672" y="1102" width="44" height="44" rx="8" fill="#6d4c41" onclick="setColor('#6d4c41',this)"/>
  <rect class="swatch" x="722" y="1102" width="44" height="44" rx="8" fill="#f5cba7" onclick="setColor('#f5cba7',this)"/>
  <rect class="swatch" x="772" y="1102" width="44" height="44" rx="8" fill="#ffffff" stroke="#999" stroke-width="1.5" onclick="setColor('#ffffff',this)"/>
  <rect class="swatch" x="822" y="1102" width="44" height="44" rx="8" fill="#55713f" onclick="setColor('#55713f',this)"/>
  <rect class="swatch" x="872" y="1102" width="44" height="44" rx="8" fill="#27ae60" onclick="setColor('#27ae60',this)"/>

  <!-- Undo -->
  <rect x="922" y="1102" width="46" height="20" rx="7" fill="#0f3460" stroke="#555" stroke-width="1.5" onclick="undo()" style="cursor:pointer"/>
  <text x="945" y="1116" font-family="sans-serif" font-size="11" fill="#eee" text-anchor="middle" pointer-events="none">↩ تراجع</text>

  <!-- Clear -->
  <rect x="922" y="1126" width="46" height="20" rx="7" fill="#0f3460" stroke="#555" stroke-width="1.5" onclick="clearAll()" style="cursor:pointer"/>
  <text x="945" y="1140" font-family="sans-serif" font-size="11" fill="#eee" text-anchor="middle" pointer-events="none">مسح كل</text>

  <!-- Eraser -->
  <rect id="eraserBtn" x="972" y="1102" width="44" height="44" rx="8" fill="#0f3460" stroke="#444" stroke-width="1.5" onclick="toggleEraser()" style="cursor:pointer"/>
  <text x="994" y="1128" font-family="sans-serif" font-size="22" text-anchor="middle" pointer-events="none">🧹</text>

  <!-- Opacity slider -->
  <text x="82" y="1045" font-family="sans-serif" font-size="11" fill="#aaa" text-anchor="middle">شفافية اللون</text>
  <rect x="22" y="1030" width="120" height="12" rx="6" fill="#2d3436"/>
  <rect id="opBar" x="22" y="1030" width="96" height="12" rx="6" fill="#e94560"/>
  <rect x="22" y="1028" width="120" height="16" rx="6" fill="transparent"
    onmousedown="startSlide(event)" onmousemove="slideMove(event)" onmouseup="endSlide()"
    ontouchstart="startSlide(event)" ontouchmove="slideMove(event)" ontouchend="endSlide()"/>
  <text id="opLabel" x="152" y="1040" font-family="sans-serif" font-size="11" fill="#ccc">80%</text>
</g>

<script type="text/javascript"><![CDATA[
  var activeColor = '#e94560';
  var opacity = 0.8;
  var eraseMode = false;
  var history = [];
  var sliding = false;

  function setColor(c, el) {
    activeColor = c;
    eraseMode = false;
    document.querySelectorAll('.swatch').forEach(function(s){ s.classList.remove('active'); });
    el.classList.add('active');
    document.getElementById('eraserBtn').setAttribute('fill','#0f3460');
    document.getElementById('eraserBtn').setAttribute('stroke','#444');
  }

  function toggleEraser() {
    eraseMode = !eraseMode;
    var el = document.getElementById('eraserBtn');
    el.setAttribute('fill', eraseMode ? '#fff0f0' : '#0f3460');
    el.setAttribute('stroke', eraseMode ? '#e94560' : '#444');
  }

  function fillRegion(el) {
    history.push({ el:el, fill:el.getAttribute('fill'), op:el.getAttribute('fill-opacity') });
    if (eraseMode) {
      el.setAttribute('fill','white');
      el.setAttribute('fill-opacity','1');
    } else {
      el.setAttribute('fill', activeColor);
      el.setAttribute('fill-opacity', opacity);
    }
  }

  function undo() {
    if (!history.length) return;
    var last = history.pop();
    last.el.setAttribute('fill', last.fill || 'white');
    last.el.setAttribute('fill-opacity', last.op || '1');
  }

  function clearAll() {
    document.querySelectorAll('.region').forEach(function(r){
      r.setAttribute('fill','white');
      r.setAttribute('fill-opacity','1');
    });
    history = [];
  }

  function startSlide(evt) { sliding = true; slideMove(evt); }
  function endSlide() { sliding = false; }
  function slideMove(evt) {
    if (!sliding) return;
    var svg = evt.target.ownerSVGElement;
    var pt = svg.createSVGPoint();
    pt.x = evt.clientX; pt.y = evt.clientY;
    var sp = pt.matrixTransform(svg.getScreenCTM().inverse());
    var pct = Math.max(0, Math.min(1, (sp.x - 22) / 120));
    opacity = pct;
    document.getElementById('opBar').setAttribute('width', Math.round(pct * 120));
    document.getElementById('opLabel').textContent = Math.round(pct * 100) + '%';
  }
]]></script>
</svg>