<?xml version="1.0" encoding="UTF-8"?>
<svg xmlns="http://www.w3.org/2000/svg" width="1024" height="1024" viewBox="0 0 1024 1024">
  <g id="outline">
    <rect width="1024" height="1024" fill="#FFFEF0"/>

    <!-- Sun -->
    <circle cx="620" cy="420" r="190" fill="none" stroke="#000000" stroke-width="10"/>

    <!-- Sun rays -->
    <path d="M608 170 L632 170 L632 230 L608 230 Z" fill="none" stroke="#000" stroke-width="8"/>
    <path d="M760 210 L798 176 L814 194 L776 228 Z" fill="none" stroke="#000" stroke-width="8"/>
    <path d="M840 340 L905 340 L905 364 L840 364 Z" fill="none" stroke="#000" stroke-width="8"/>
    <path d="M760 520 L798 554 L782 572 L744 538 Z" fill="none" stroke="#000" stroke-width="8"/>
    <path d="M480 210 L442 176 L426 194 L464 228 Z" fill="none" stroke="#000" stroke-width="8"/>
    <path d="M480 520 L442 554 L458 572 L496 538 Z" fill="none" stroke="#000" stroke-width="8"/>
    <path d="M410 340 L345 340 L345 364 L410 364 Z" fill="none" stroke="#000" stroke-width="8"/>

    <!-- Cloud -->
    <path d="M200 565
             C165 565, 138 592, 138 627
             C138 654, 155 678, 182 688
             C197 694, 216 695, 233 690
             C252 723, 290 744, 332 744
             C367 744, 401 730, 423 707
             C439 728, 468 742, 501 742
             C537 742, 570 725, 591 697
             C624 703, 656 689, 674 662
             C694 632, 690 594, 664 569
             C647 553, 624 545, 603 548
             C594 509, 560 482, 521 482
             C487 482, 455 500, 439 529
             C420 512, 394 503, 367 503
             C327 503, 291 523, 275 556
             C270 555, 265 555, 260 555
             C232 555, 211 558, 200 565 Z"
          fill="none" stroke="#000000" stroke-width="10" stroke-linejoin="round"/>

    <!-- Face lines -->
    <circle cx="555" cy="378" r="12" fill="none" stroke="#000" stroke-width="5"/>
    <circle cx="680" cy="378" r="12" fill="none" stroke="#000" stroke-width="5"/>
    <path d="M548 458 Q618 510 688 458" fill="none" stroke="#000" stroke-width="6" stroke-linecap="round"/>
  </g>

  <g id="color_areas">
    <!-- Main bodies -->
    <circle id="sun_body" cx="620" cy="420" r="184" fill="#ffffff"/>
    <path id="cloud_body" d="M206 572
             C174 572, 146 597, 146 626
             C146 651, 162 672, 188 682
             C202 688, 219 688, 234 684
             C251 715, 288 734, 329 734
             C364 734, 397 720, 417 698
             C433 718, 461 731, 494 731
             C528 731, 560 715, 580 689
             C612 694, 642 681, 658 656
             C676 627, 672 596, 649 573
             C633 558, 612 551, 591 554
             C584 518, 552 492, 517 492
             C487 492, 456 509, 442 536
             C422 519, 395 513, 369 513
             C332 513, 298 531, 283 562
             C277 562, 272 562, 266 562
             C238 562, 217 564, 206 572 Z"
          fill="#ffffff"/>

    <!-- Rays -->
    <path id="ray_top" d="M610 173 L630 173 L630 227 L610 227 Z" fill="#ffffff"/>
    <path id="ray_top_right" d="M761 211 L797 179 L810 194 L774 226 Z" fill="#ffffff"/>
    <path id="ray_right" d="M843 343 L902 343 L902 361 L843 361 Z" fill="#ffffff"/>
    <path id="ray_bottom_right" d="M761 521 L797 553 L783 568 L747 536 Z" fill="#ffffff"/>
    <path id="ray_top_left" d="M479 226 L443 194 L457 179 L493 211 Z" fill="#ffffff"/>
    <path id="ray_bottom_left" d="M479 536 L443 568 L457 553 L493 521 Z" fill="#ffffff"/>
    <path id="ray_left" d="M407 343 L348 343 L348 361 L407 361 Z" fill="#ffffff"/>
  </g>
</svg>
