<svg xmlns="http://www.w3.org/2000/svg" width="1048" height="1174" viewBox="0 0 1048 1174">
<defs>
  <style>
    .region { cursor:pointer; transition: opacity 0.1s; }
    .region:hover { opacity:0.75; }
    .swatch { cursor:pointer; stroke:transparent; stroke-width:3; }
    .swatch:hover { stroke:#fff; stroke-width:3; }
    .swatch.active { stroke:#fff; stroke-width:3.5; }
  </style>
</defs>
<rect width="1048" height="1004" fill="white"/>
<g pointer-events="none">
  <path d="M 657.500 57.975 C 623.507 67.031, 596.501 88.521, 574.584 123.952 C 571.482 128.966, 567.817 135.618, 566.439 138.734 C 565.061 141.851, 563.818 144.515, 563.678 144.655 C 563.538 144.795, 560.066 143.990, 555.962 142.866 C 544.504 139.729, 522.397 139.209, 510 141.785 C 478.785 148.272, 455.282 166.850, 443.147 194.631 C 439.281 203.481, 437.210 212.059, 436.362 222.732 L 435.708 230.964 432.104 231.590 C 409.767 235.471, 386.767 243.093, 365.500 253.663 C 346.546 263.083, 333.584 272.317, 320.866 285.459 C 303.677 303.221, 295.396 321.382, 296.154 339.651 C 296.344 344.243, 296.143 348, 295.706 348 C 294.287 348, 271.678 361.115, 265 365.812 C 242.154 381.882, 223.186 403.820, 213.855 424.966 C 208.562 436.961, 206.595 447.673, 207.312 460.611 L 207.872 470.722 200.237 476.053 C 179.412 490.593, 165.539 508.648, 159.779 528.709 C 156.542 539.986, 156.570 557.539, 159.844 567.965 C 164.681 583.369, 173.542 596.858, 186.725 608.887 L 194.274 615.774 191.677 619.179 C 186.337 626.180, 183.638 633.866, 183.175 643.386 C 182.617 654.840, 184.136 661.401, 189.667 671.445 C 194.099 679.493, 206.349 693.236, 212.250 696.780 C 213.762 697.688, 215 699.154, 215 700.038 C 215 700.922, 216.544 707.012, 218.430 713.572 C 220.317 720.133, 226.442 741.925, 232.043 762 C 244.348 806.111, 258.498 854.464, 264.672 873.500 C 271.239 893.748, 276.758 902.121, 290.015 911.951 C 329.695 941.372, 421.873 961.886, 522.500 963.691 C 603.696 965.147, 671.948 955.894, 719.254 937.017 C 728.970 933.140, 742.541 925.963, 748 921.814 C 755.993 915.740, 763.352 907.108, 767.023 899.500 C 773.117 886.872, 799.126 808.595, 809.054 773 C 810.818 766.675, 814.513 753.850, 817.265 744.500 C 820.017 735.150, 823.712 722.012, 825.476 715.304 L 828.683 703.109 833.771 699.087 C 860.276 678.136, 868.104 649.031, 853.614 625.317 L 849.224 618.133 855.862 614.316 C 864.770 609.195, 879.553 594.382, 883.783 586.338 C 890.615 573.346, 892.181 567.591, 892.749 553.395 C 893.370 537.859, 892.048 527.340, 887.798 514 C 878.825 485.834, 860.150 460.265, 832.419 438.175 C 830.813 436.896, 827.798 434.871, 825.718 433.675 C 822.810 432.003, 822.061 431.037, 822.480 429.500 C 827.678 410.432, 823.613 388.942, 810.919 368.385 C 807.195 362.354, 801.746 355.811, 793.500 347.472 C 780.298 334.120, 771.148 326.879, 760.500 321.360 L 753.500 317.731 753.438 305.616 C 753.361 290.628, 750.994 280.720, 744.091 266.500 C 733.150 243.963, 714.015 223.351, 689 207.158 C 678.891 200.615, 657.539 190.218, 646.868 186.644 C 638.215 183.746, 618.323 179, 614.822 178.999 C 613.229 178.999, 610.686 176.970, 606.718 172.533 C 600.715 165.821, 591.865 158.508, 586.250 155.620 C 584.462 154.701, 583 153.537, 583 153.034 C 583 150.839, 596.182 132.890, 603.384 125.279 C 623.470 104.051, 642.911 93.211, 670.348 87.941 C 684.020 85.315, 690.337 71.496, 682.257 61.893 C 677.097 55.761, 670.017 54.640, 657.500 57.975" fill="white" stroke="none" fill-rule="nonzero"/>
  <path d="M 658.500 68.958 C 625.909 77.563, 602.114 97.519, 580.350 134.500 C 570.928 150.509, 555.779 179.836, 556.230 181.190 C 556.742 182.725, 559.431 178.345, 566.786 164 C 580.313 137.614, 584.422 131.182, 596.416 117.620 C 612.544 99.381, 636.009 85.391, 660.431 79.453 C 665.892 78.125, 670.786 76.614, 671.306 76.094 C 672.652 74.748, 672.473 70.275, 671.003 68.503 C 669.414 66.589, 667.163 66.671, 658.500 68.958" fill="white" stroke="none" fill-rule="evenodd"/>
  <path d="M 511.897 152.445 C 485.425 157.955, 463.461 176.993, 454.006 202.624 C 451.071 210.582, 450.682 212.897, 450.246 225.006 C 449.865 235.570, 450.121 239.926, 451.422 245.006 C 457.646 269.314, 476.592 286.474, 505.712 294.176 C 518.495 297.557, 538.397 297.336, 552.351 293.660 C 576.576 287.276, 593.951 274.270, 603.864 255.097 C 609.319 244.547, 611.391 234.437, 610.722 221.635 C 609.896 205.822, 604.950 193.357, 594.288 180.217 C 590.697 175.792, 577.961 164.981, 576.389 165.025 C 575.900 165.038, 574.743 166.572, 573.818 168.433 L 572.136 171.818 576.068 175.951 C 579.238 179.283, 580 180.826, 580 183.907 C 580 192.416, 572.295 196.179, 558.874 194.223 C 550.036 192.935, 544.724 190.549, 538.799 185.207 C 530.943 178.124, 528.910 169.371, 533.838 163.855 C 536.261 161.143, 537.337 160.688, 541.195 160.747 C 543.680 160.784, 547.656 161.753, 550.030 162.901 C 552.405 164.048, 554.447 164.877, 554.568 164.743 C 555.066 164.196, 558 156.698, 558 155.972 C 558 155.541, 555.862 154.415, 553.250 153.471 C 546.797 151.138, 521.227 150.504, 511.897 152.445" fill="white" stroke="none" fill-rule="evenodd"/>
  <path d="M 541.667 169.667 C 541.300 170.033, 541 170.693, 541 171.132 C 541 172.236, 547.023 179, 548.006 179 C 548.742 179, 551 173.682, 551 171.949 C 551 171.154, 545.533 169, 543.517 169 C 542.866 169, 542.033 169.300, 541.667 169.667" fill="white" stroke="none" fill-rule="evenodd"/>
  <path d="M 565.994 180.509 C 563.396 184.713, 563.744 185.435, 567.928 184.516 C 571.279 183.780, 571.863 181.721, 569.576 178.707 C 568.313 177.041, 568.058 177.170, 565.994 180.509" fill="white" stroke="none" fill-rule="evenodd"/>
  <path d="M 620.631 194.702 C 620.366 194.967, 620.957 197.068, 621.945 199.371 C 623.953 204.057, 626 212.774, 626 216.642 C 626 218.324, 627.878 221.261, 631.547 225.315 C 641.201 235.983, 645.768 248.626, 644.438 261 C 640.599 296.722, 607.302 324.070, 550.113 338.471 C 521.005 345.802, 498.789 347.796, 433 348.985 C 372.404 350.081, 359.035 351.680, 331.933 361.071 C 322.608 364.302, 311.905 363.210, 308.116 358.641 C 306.843 357.107, 306.114 357.303, 299.116 361.065 C 256.309 384.075, 225.238 420.308, 222.324 450.615 C 220.844 466.009, 228.876 481.104, 240.363 484.515 C 247.796 486.723, 249.796 486.449, 265.470 481.077 C 288.289 473.258, 309.192 469.636, 352.500 465.998 C 419.965 460.330, 448.527 456.634, 499.500 446.973 C 540.620 439.180, 587.637 426.636, 618.683 415.174 C 674.602 394.530, 711.840 369.596, 728.008 341.971 C 733.757 332.150, 736.184 324.022, 736.771 312.633 C 737.913 290.442, 729.793 269.007, 712.543 248.680 C 697.962 231.497, 672.510 213.346, 649.500 203.720 C 641.755 200.480, 621.256 194.077, 620.631 194.702" fill="white" stroke="none" fill-rule="evenodd"/>
  <path d="M 626 235.044 C 626 241.016, 622.731 251.660, 617.722 262 C 613.109 271.522, 611.650 273.482, 602.067 283.037 C 590.745 294.328, 582.762 299.732, 569.798 304.882 C 554.589 310.923, 551.341 311.438, 528.500 311.426 C 506.242 311.414, 502.024 310.771, 486.928 305.088 C 480.712 302.747, 469.537 296.273, 463.612 291.580 C 452.884 283.082, 441.648 265.635, 438.431 252.480 C 437.492 248.641, 436.425 245.161, 436.060 244.747 C 434.353 242.816, 408.327 249.807, 391.500 256.716 C 350.363 273.608, 324.031 295.551, 313.825 321.445 C 308.291 335.484, 310.111 348.103, 318.334 352.715 C 321.862 354.693, 326.011 354.201, 337.001 350.500 C 360.243 342.673, 374.572 341.130, 434.500 340.003 C 498.002 338.808, 515.873 337.202, 545.500 330.025 C 581.063 321.410, 602.497 310.698, 619.208 293.187 C 635.798 275.802, 640.056 257.222, 631.518 239.471 C 627.678 231.487, 626 230.141, 626 235.044" fill="white" stroke="none" fill-rule="evenodd"/>
  <path d="M 742.959 333.626 C 741.280 338.713, 734.466 350.512, 729.462 357 C 719.376 370.076, 702.212 384.352, 682.088 396.403 C 655.576 412.279, 616.797 427.645, 572 440.022 C 555.343 444.625, 512.030 454.545, 494 457.888 C 462.719 463.687, 400.580 471.856, 371.500 473.991 C 305.651 478.828, 288.525 481.682, 258 492.911 C 251.146 495.433, 241.707 495.582, 233.566 493.298 C 228.833 491.970, 226.448 490.543, 222.703 486.798 C 220.064 484.159, 217.676 482, 217.398 482 C 216.168 482, 204.255 490.694, 199.155 495.313 C 179.929 512.723, 170.974 535.956, 175.377 557 C 176.242 561.136, 178.857 568.312, 181.207 573 C 184.731 580.031, 187.284 583.320, 195.983 592.030 C 206.090 602.150, 211.694 606.320, 234.500 620.690 C 238.900 623.462, 244.846 626.916, 247.714 628.364 C 253.254 631.162, 255 633.322, 255 637.378 C 255 640.940, 251.517 643.002, 245.527 642.988 C 239.303 642.973, 229.295 638.737, 216.085 630.527 L 206.671 624.675 204.333 627.588 C 197.687 635.869, 197.126 649.720, 202.958 661.566 C 212.276 680.493, 240.014 699.177, 263.091 702.071 L 270.860 703.045 277.230 709.415 C 285.502 717.687, 294.334 723.327, 302.462 725.527 C 307.732 726.954, 311.330 727.182, 321.241 726.720 C 327.983 726.405, 335.750 725.444, 338.500 724.585 C 341.250 723.725, 344.501 723.017, 345.724 723.011 C 346.981 723.005, 351.447 725.824, 355.987 729.490 C 370.630 741.312, 379.285 744.451, 395.373 743.775 C 405.528 743.348, 407.404 742.944, 416.856 739.153 C 422.552 736.869, 428.158 735, 429.313 735 C 430.468 735, 434.022 736.830, 437.212 739.067 C 449.106 747.411, 464.593 752.955, 476.090 752.985 C 484.111 753.006, 495.587 749.781, 506.130 744.542 C 511.158 742.044, 516.502 740, 518.007 740 C 519.512 740, 525.413 742.231, 531.121 744.957 C 545.567 751.857, 552.104 753.379, 564.500 752.728 C 577.710 752.034, 587.201 748.516, 599.400 739.790 C 604.537 736.115, 608.102 736.230, 618.238 740.395 C 629.835 745.160, 636.105 746.331, 647.101 745.785 C 661.011 745.094, 668.625 741.859, 682 730.955 C 684.475 728.937, 687.236 727.031, 688.136 726.719 C 689.035 726.406, 693.535 727.461, 698.136 729.062 C 705.228 731.531, 708.021 731.972, 716.500 731.962 C 722 731.956, 728.512 731.487, 730.972 730.921 C 738.686 729.143, 747.238 724.366, 754.625 717.708 L 761.749 711.286 771.125 710.763 C 783.848 710.055, 798.221 704.833, 803.498 699.002 C 804.495 697.901, 805.836 697, 806.479 697 C 809.065 697, 826.011 684.756, 831.237 679.111 C 839.415 670.278, 844 659.220, 844 648.332 C 844 643.516, 840.400 633.442, 836.820 628.238 C 833.487 623.394, 834.165 623.488, 823.500 626.394 C 809.827 630.119, 785.162 630.392, 774.397 626.938 C 767.863 624.841, 764.630 617.938, 768.413 614.161 C 769.851 612.726, 772.822 612.495, 790.288 612.461 C 809.013 612.424, 811.200 612.227, 820.011 609.776 C 850.458 601.307, 868.520 584.742, 873.422 560.792 C 879.266 532.243, 868.016 498.873, 842.886 470.216 C 835.721 462.044, 822.750 450.475, 815.107 445.440 L 810.714 442.545 809.107 444.997 C 802.759 454.684, 790.192 466.435, 777.520 474.534 C 756.052 488.254, 715.468 501.769, 668 511.005 C 665.525 511.487, 661.018 511.908, 657.985 511.940 C 654.460 511.978, 651.111 512.729, 648.702 514.020 C 646.629 515.131, 642.360 516.274, 639.216 516.559 C 629.941 517.402, 572.112 525.848, 564.500 527.472 C 560.650 528.293, 556.675 528.973, 555.667 528.983 C 552.201 529.015, 554.653 526.562, 560.392 524.255 C 569.388 520.638, 583.258 517.556, 613 512.562 C 628.125 510.023, 642.525 507.457, 645 506.861 C 647.475 506.265, 653.100 505.136, 657.500 504.352 C 681.377 500.096, 717.317 490.464, 738 482.777 C 761.501 474.042, 775.433 466.053, 788.468 453.837 C 802.590 440.601, 807.270 430.198, 807.290 412 C 807.300 402.705, 806.948 400.552, 804.217 393.239 C 798.162 377.026, 787.346 362.183, 771.500 348.341 C 764.818 342.503, 754.138 335.129, 747.323 331.648 L 744.147 330.025 742.959 333.626" fill="white" stroke="none" fill-rule="evenodd"/>
  <path d="M 375.915 551.945 C 369.153 553.187, 357.286 559.038, 350.882 564.288 C 340.287 572.976, 333.318 586.925, 332.324 601.437 C 331.589 612.161, 333.131 619.780, 338.063 629.802 C 346.920 647.801, 364.705 659.034, 384.254 658.976 C 394.819 658.944, 399.612 657.812, 409.628 652.981 C 423.218 646.427, 433.610 633.571, 437.470 618.540 C 445.802 586.092, 421.799 553.097, 388.699 551.500 C 384.189 551.282, 378.437 551.483, 375.915 551.945" fill="white" stroke="none" fill-rule="evenodd"/>
  <path d="M 640.645 552.584 C 616.911 558.329, 599 581.126, 599 605.587 C 599 625.714, 611.363 644.921, 630 653.747 C 647.207 661.897, 660.694 661.613, 678.500 652.727 C 686.383 648.793, 696.508 638.456, 700.768 629.992 C 708.359 614.909, 708.646 597.211, 701.542 582.250 C 698.890 576.667, 696.138 572.936, 690.742 567.612 C 682.305 559.287, 676.130 555.719, 665.415 552.978 C 656.487 550.695, 648.944 550.575, 640.645 552.584" fill="white" stroke="none" fill-rule="evenodd"/>
  <path d="M 392.643 570.028 C 381.573 573.346, 379.494 590.036, 389.346 596.491 C 396.455 601.149, 406.244 598.259, 410.060 590.375 C 413.863 582.521, 411.256 575.479, 402.980 571.250 C 398.259 568.838, 397.080 568.698, 392.643 570.028" fill="white" stroke="none" fill-rule="evenodd"/>
  <path d="M 635.059 571.228 C 628.930 574.363, 626.500 577.989, 626.500 584 C 626.500 594.617, 637.886 602.012, 646.980 597.302 C 656.788 592.223, 657.770 578.336, 648.745 572.346 C 643.586 568.922, 640.121 568.639, 635.059 571.228" fill="white" stroke="none" fill-rule="evenodd"/>
  <path d="M 459.411 632.867 C 455.223 635.453, 451.848 639.939, 452.206 642.441 C 452.449 644.146, 453.119 644.453, 456.097 644.226 L 459.694 643.952 461.897 651.726 C 469.938 680.111, 477.215 696.414, 486.231 706.245 C 501.673 723.082, 524.163 725.593, 542.032 712.476 C 554.463 703.351, 564.186 686.582, 571.856 661.041 C 576.732 644.802, 576.836 644.582, 579.649 644.541 C 582.011 644.507, 582.555 644.023, 582.819 641.719 C 583.058 639.639, 582.279 638.079, 579.728 635.528 C 573.843 629.643, 567.500 629.684, 567.500 635.606 C 567.500 638.331, 567.101 638.599, 560 640.624 C 534.737 647.832, 497.491 647.541, 473.862 639.953 C 467.465 637.899, 467.230 637.707, 467.362 634.661 C 467.479 631.984, 467.117 631.459, 465 631.229 C 463.625 631.081, 461.110 631.817, 459.411 632.867" fill="white" stroke="none" fill-rule="evenodd"/>
  <path d="M 310 655.098 C 302.422 656.578, 293.225 661.710, 289.848 666.343 C 287.266 669.886, 286.882 671.181, 287.248 675.106 C 287.858 681.634, 291.700 686.211, 300.094 690.411 C 309.085 694.909, 316.468 696.370, 327 695.735 C 344.440 694.685, 358 686.102, 358 676.115 C 358 666.736, 349.774 659.260, 335.307 655.492 C 329.107 653.877, 317.201 653.692, 310 655.098" fill="white" stroke="none" fill-rule="evenodd"/>
  <path d="M 705.712 655.075 C 694.552 657.369, 683.745 664.374, 680.948 671.125 C 677.042 680.556, 688.089 691.593, 704.935 695.091 C 712.540 696.670, 727.221 695.742, 733.594 693.279 C 744.616 689.020, 752 681.457, 752 674.426 C 752 670.558, 748.192 664.405, 744 661.500 C 735.435 655.565, 717.758 652.598, 705.712 655.075" fill="white" stroke="none" fill-rule="evenodd"/>
  <path d="M 314.547 660.101 C 300.468 662.176, 292 667.636, 292 674.638 C 292 680.195, 301.068 686.692, 312.128 689.059 C 319.064 690.544, 332.606 689.815, 339.748 687.572 C 346.612 685.416, 353 679.496, 353 675.290 C 353 665.089, 333.354 657.330, 314.547 660.101" fill="white" stroke="none" fill-rule="evenodd"/>
  <path d="M 702.776 661.429 C 684.297 666.713, 680.333 678.548, 694.616 685.793 C 708.502 692.837, 732.846 690.666, 742.859 681.490 C 745.762 678.830, 746.384 677.572, 746.298 674.538 C 746.166 669.884, 743.410 666.840, 736.055 663.228 C 731.100 660.795, 729.258 660.477, 719 660.289 C 711.719 660.155, 705.767 660.574, 702.776 661.429" fill="white" stroke="none" fill-rule="evenodd"/>
  <path d="M 525.827 674.804 C 523.254 675.106, 518 679.357, 518 681.136 C 518 683.503, 514.839 681.551, 513.506 678.361 L 511.986 674.722 506.289 675.310 C 500.239 675.934, 487.727 681.434, 484.669 684.813 C 483.036 686.618, 483.146 686.991, 487.018 692.790 C 492.618 701.175, 500.828 708.450, 507.008 710.503 C 518.966 714.474, 530.014 711.707, 540.291 702.166 C 545.465 697.363, 553 686.767, 553 684.296 C 553 680.862, 533.186 673.941, 525.827 674.804" fill="white" stroke="none" fill-rule="evenodd"/>
  <path d="M 234 708.332 C 234 708.643, 235.144 712.632, 236.542 717.198 C 240.988 731.715, 243.761 741.185, 247.025 753 C 248.773 759.325, 252.356 771.700, 254.987 780.500 C 257.618 789.300, 262.551 805.950, 265.950 817.500 C 269.349 829.050, 272.526 839.625, 273.009 841 C 273.493 842.375, 276.671 852.275, 280.073 863 C 286.808 884.234, 289.292 888.818, 297.794 895.693 C 304.720 901.296, 309.092 904.241, 309.651 903.682 C 310.076 903.258, 303.289 873.357, 291.907 825.500 C 286.035 800.814, 267.053 724.486, 265.670 720 L 264.282 715.500 257.934 714.704 C 254.442 714.267, 248.416 712.788, 244.542 711.419 C 234.336 707.810, 234 707.711, 234 708.332" fill="white" stroke="none" fill-rule="evenodd"/>
  <path d="M 803 715.049 C 796.342 718.504, 789.342 720.980, 782.070 722.454 L 776.640 723.554 772.297 739.027 C 768.375 752.997, 764.825 766.359, 747.460 832.500 C 744.572 843.500, 740.521 858.800, 738.458 866.500 C 730.875 894.808, 726.391 913, 726.996 913 C 728.557 913, 739.888 905.502, 743.336 902.187 C 745.446 900.159, 748.268 896.360, 749.606 893.745 C 754.211 884.745, 767.386 847.807, 776.980 817 C 779.806 807.925, 782.536 799.375, 783.046 798 C 783.557 796.625, 787.847 782.675, 792.580 767 C 797.312 751.325, 802.943 732.687, 805.092 725.583 C 807.240 718.478, 808.887 712.560, 808.749 712.430 C 808.612 712.301, 806.025 713.479, 803 715.049" fill="white" stroke="none" fill-rule="evenodd"/>
  <path d="M 274 723.758 C 274 724.315, 278.023 740.910, 282.940 760.636 C 294.386 806.558, 303.816 845.231, 308.510 865.500 C 310.547 874.300, 313.245 885.775, 314.504 891 C 315.764 896.225, 317.076 902.132, 317.419 904.126 C 317.994 907.460, 318.585 907.993, 324.772 910.750 C 334.125 914.918, 350.497 920.966, 353.215 921.258 C 355.227 921.473, 355.443 921.115, 355.172 918 C 354.799 913.705, 352.452 900.305, 347.025 871.500 C 344.746 859.400, 342.485 847.025, 342.001 844 C 341.096 838.345, 339.065 827.322, 332.048 790 C 329.825 778.175, 327.083 762.875, 325.956 756 C 324.828 749.125, 323.716 742.578, 323.484 741.451 C 323.103 739.595, 322.467 739.437, 316.781 739.784 C 303.918 740.568, 287.274 734.981, 278.570 726.958 C 276.057 724.641, 274 723.201, 274 723.758" fill="white" stroke="none" fill-rule="evenodd"/>
  <path d="M 760.500 728.328 C 752.217 736.669, 737.301 743.525, 724.700 744.782 L 717.500 745.500 714.894 756.500 C 713.461 762.550, 711.305 772.675, 710.103 779 C 708.902 785.325, 705.676 800.850, 702.934 813.500 C 700.193 826.150, 696.630 843.025, 695.017 851 C 692.104 865.400, 689.439 878.096, 682.577 910.271 C 680.610 919.494, 679 927.890, 679 928.927 C 679 930.680, 679.799 930.565, 690.250 927.306 C 709.251 921.382, 717.018 918.084, 717.990 915.525 C 718.468 914.270, 721.182 904.301, 724.023 893.372 C 731.043 866.362, 745.316 812.860, 748.933 800 C 750.557 794.225, 754.421 779.600, 757.521 767.500 C 760.620 755.400, 764.471 741.155, 766.078 735.844 C 767.685 730.533, 769 725.695, 769 725.094 C 769 722.719, 764.289 724.512, 760.500 728.328" fill="white" stroke="none" fill-rule="evenodd"/>
  <path d="M 335.825 737.378 C 332.703 737.995, 329.889 738.765, 329.570 739.088 C 329.251 739.411, 329.875 744.136, 330.955 749.588 C 332.036 755.040, 334.268 766.700, 335.915 775.500 C 337.563 784.300, 341.655 805.900, 345.010 823.500 C 348.365 841.100, 351.747 858.875, 352.527 863 C 355.292 877.637, 361.870 914.571, 362.537 919.208 C 363.321 924.655, 362.277 924.138, 382 928.853 C 398.546 932.809, 406.052 934.281, 406.646 933.687 C 407.124 933.209, 405.863 922.129, 397.972 857.500 C 394.659 830.361, 392.636 812.615, 387.207 763.044 L 386.500 756.587 380.500 755.356 C 368.526 752.901, 360.784 749.028, 350.392 740.293 C 344.952 735.721, 344.583 735.647, 335.825 737.378" fill="white" stroke="none" fill-rule="evenodd"/>
  <path d="M 685 743.583 C 678.312 749.071, 665.552 755.385, 657.728 757.079 C 653.220 758.054, 651.862 758.785, 651.528 760.414 C 651.091 762.549, 645.901 800.281, 641.613 832.500 C 640.296 842.400, 636.380 870.399, 632.911 894.719 C 629.442 919.039, 626.897 939.230, 627.254 939.587 C 628.413 940.746, 668.682 933.598, 670.436 931.923 C 670.950 931.431, 672.663 924.610, 674.243 916.764 C 681.767 879.387, 708.851 752.786, 710.603 746.805 C 710.988 745.493, 710.240 744.950, 707.300 744.405 C 704.076 743.808, 698.090 741.943, 692 739.638 C 691.106 739.299, 688.276 740.895, 685 743.583" fill="white" stroke="none" fill-rule="evenodd"/>
  <path d="M 422.500 749.620 C 413.716 752.986, 406.821 754.950, 401.788 755.521 C 391.630 756.673, 392.235 756.136, 393.107 763.227 C 393.531 766.677, 395.462 782.100, 397.397 797.500 C 399.333 812.900, 403.641 848.450, 406.971 876.500 C 410.301 904.550, 413.358 929.274, 413.763 931.443 L 414.500 935.385 421.500 936.690 C 431.302 938.516, 458.342 941.992, 458.843 941.490 C 459.475 940.859, 459.042 922.408, 457.975 904.500 C 457.010 888.281, 456.517 879.122, 452.996 812 C 451.914 791.375, 450.748 771.350, 450.405 767.500 L 449.780 760.500 439.501 754.250 C 433.848 750.813, 428.610 748.020, 427.861 748.044 C 427.112 748.068, 424.700 748.777, 422.500 749.620" fill="white" stroke="none" fill-rule="evenodd"/>
  <path d="M 599 754.107 C 594.875 756.824, 590.536 759.298, 589.358 759.605 C 586.811 760.268, 586.871 759.803, 583.972 801 C 582.869 816.675, 581.304 837.375, 580.495 847 C 579.686 856.625, 577.897 880.700, 576.520 900.500 C 575.143 920.300, 573.752 938.469, 573.428 940.875 L 572.840 945.250 580.170 944.645 C 584.201 944.313, 594.404 943.512, 602.842 942.865 C 616.897 941.788, 618.257 941.514, 619.049 939.595 C 619.525 938.443, 622.883 916.575, 626.511 891 C 630.139 865.425, 634.447 835.500, 636.084 824.500 C 637.721 813.500, 640.390 795.379, 642.016 784.232 C 643.641 773.085, 645.251 762.847, 645.594 761.482 C 646.183 759.135, 645.989 759, 642.025 759 C 636.676 759, 623.969 755.762, 614.397 751.959 C 610.300 750.332, 606.847 749.037, 606.724 749.083 C 606.601 749.129, 603.125 751.389, 599 754.107" fill="white" stroke="none" fill-rule="evenodd"/>
  <path d="M 504.722 758.429 C 499.526 760.951, 493.013 763.214, 488.762 763.973 C 480.458 765.457, 467.071 765.476, 462.007 764.011 C 454.899 761.954, 455.186 759.328, 458.025 800.500 C 461.319 848.281, 465.097 911.001, 466.277 937.500 L 466.500 942.500 476 943.253 C 497.105 944.927, 512.534 945.702, 513.127 945.118 C 514.068 944.190, 515.244 753.987, 514.308 754.084 C 513.864 754.130, 509.550 756.085, 504.722 758.429" fill="white" stroke="none" fill-rule="evenodd"/>
  <path d="M 521 849 C 521 901.250, 521 944.337, 521 944.750 C 521 945.163, 531.237 945.500, 543.750 945.500 L 566.500 945.500 568.206 921 C 570.256 891.540, 575.018 833.370, 578.663 793.244 C 580.125 777.153, 581.136 763.810, 580.910 763.592 C 580.685 763.375, 577.125 763.864, 573 764.678 C 558.816 767.477, 541.400 764.632, 528.404 757.395 C 525.051 755.528, 522.014 754, 521.654 754 C 521.294 754, 521 796.750, 521 849" fill="white" stroke="none" fill-rule="evenodd"/>
</g>
<g id="colorRegions">
  <path id="body_outer" class="region" d="M 657.500 57.975 C 623.507 67.031, 596.501 88.521, 574.584 123.952 C 571.482 128.966, 567.817 135.618, 566.439 138.734 C 565.061 141.851, 563.818 144.515, 563.678 144.655 C 563.538 144.795, 560.066 143.990, 555.962 142.866 C 544.504 139.729, 522.397 139.209, 510 141.785 C 478.785 148.272, 455.282 166.850, 443.147 194.631 C 439.281 203.481, 437.210 212.059, 436.362 222.732 L 435.708 230.964 432.104 231.590 C 409.767 235.471, 386.767 243.093, 365.500 253.663 C 346.546 263.083, 333.584 272.317, 320.866 285.459 C 303.677 303.221, 295.396 321.382, 296.154 339.651 C 296.344 344.243, 296.143 348, 295.706 348 C 294.287 348, 271.678 361.115, 265 365.812 C 242.154 381.882, 223.186 403.820, 213.855 424.966 C 208.562 436.961, 206.595 447.673, 207.312 460.611 L 207.872 470.722 200.237 476.053 C 179.412 490.593, 165.539 508.648, 159.779 528.709 C 156.542 539.986, 156.570 557.539, 159.844 567.965 C 164.681 583.369, 173.542 596.858, 186.725 608.887 L 194.274 615.774 191.677 619.179 C 186.337 626.180, 183.638 633.866, 183.175 643.386 C 182.617 654.840, 184.136 661.401, 189.667 671.445 C 194.099 679.493, 206.349 693.236, 212.250 696.780 C 213.762 697.688, 215 699.154, 215 700.038 C 215 700.922, 216.544 707.012, 218.430 713.572 C 220.317 720.133, 226.442 741.925, 232.043 762 C 244.348 806.111, 258.498 854.464, 264.672 873.500 C 271.239 893.748, 276.758 902.121, 290.015 911.951 C 329.695 941.372, 421.873 961.886, 522.500 963.691 C 603.696 965.147, 671.948 955.894, 719.254 937.017 C 728.970 933.140, 742.541 925.963, 748 921.814 C 755.993 915.740, 763.352 907.108, 767.023 899.500 C 773.117 886.872, 799.126 808.595, 809.054 773 C 810.818 766.675, 814.513 753.850, 817.265 744.500 C 820.017 735.150, 823.712 722.012, 825.476 715.304 L 828.683 703.109 833.771 699.087 C 860.276 678.136, 868.104 649.031, 853.614 625.317 L 849.224 618.133 855.862 614.316 C 864.770 609.195, 879.553 594.382, 883.783 586.338 C 890.615 573.346, 892.181 567.591, 892.749 553.395 C 893.370 537.859, 892.048 527.340, 887.798 514 C 878.825 485.834, 860.150 460.265, 832.419 438.175 C 830.813 436.896, 827.798 434.871, 825.718 433.675 C 822.810 432.003, 822.061 431.037, 822.480 429.500 C 827.678 410.432, 823.613 388.942, 810.919 368.385 C 807.195 362.354, 801.746 355.811, 793.500 347.472 C 780.298 334.120, 771.148 326.879, 760.500 321.360 L 753.500 317.731 753.438 305.616 C 753.361 290.628, 750.994 280.720, 744.091 266.500 C 733.150 243.963, 714.015 223.351, 689 207.158 C 678.891 200.615, 657.539 190.218, 646.868 186.644 C 638.215 183.746, 618.323 179, 614.822 178.999 C 613.229 178.999, 610.686 176.970, 606.718 172.533 C 600.715 165.821, 591.865 158.508, 586.250 155.620 C 584.462 154.701, 583 153.537, 583 153.034 C 583 150.839, 596.182 132.890, 603.384 125.279 C 623.470 104.051, 642.911 93.211, 670.348 87.941 C 684.020 85.315, 690.337 71.496, 682.257 61.893 C 677.097 55.761, 670.017 54.640, 657.500 57.975" fill="white" fill-opacity="1" fill-rule="nonzero" stroke="none" onclick="fillRegion(this)"/>
  <path id="body_inner" class="region" d="M 658.500 68.958 C 625.909 77.563, 602.114 97.519, 580.350 134.500 C 570.928 150.509, 555.779 179.836, 556.230 181.190 C 556.742 182.725, 559.431 178.345, 566.786 164 C 580.313 137.614, 584.422 131.182, 596.416 117.620 C 612.544 99.381, 636.009 85.391, 660.431 79.453 C 665.892 78.125, 670.786 76.614, 671.306 76.094 C 672.652 74.748, 672.473 70.275, 671.003 68.503 C 669.414 66.589, 667.163 66.671, 658.500 68.958" fill="white" fill-opacity="1" fill-rule="evenodd" stroke="none" onclick="fillRegion(this)"/>
  <path id="head_outer" class="region" d="M 511.897 152.445 C 485.425 157.955, 463.461 176.993, 454.006 202.624 C 451.071 210.582, 450.682 212.897, 450.246 225.006 C 449.865 235.570, 450.121 239.926, 451.422 245.006 C 457.646 269.314, 476.592 286.474, 505.712 294.176 C 518.495 297.557, 538.397 297.336, 552.351 293.660 C 576.576 287.276, 593.951 274.270, 603.864 255.097 C 609.319 244.547, 611.391 234.437, 610.722 221.635 C 609.896 205.822, 604.950 193.357, 594.288 180.217 C 590.697 175.792, 577.961 164.981, 576.389 165.025 C 575.900 165.038, 574.743 166.572, 573.818 168.433 L 572.136 171.818 576.068 175.951 C 579.238 179.283, 580 180.826, 580 183.907 C 580 192.416, 572.295 196.179, 558.874 194.223 C 550.036 192.935, 544.724 190.549, 538.799 185.207 C 530.943 178.124, 528.910 169.371, 533.838 163.855 C 536.261 161.143, 537.337 160.688, 541.195 160.747 C 543.680 160.784, 547.656 161.753, 550.030 162.901 C 552.405 164.048, 554.447 164.877, 554.568 164.743 C 555.066 164.196, 558 156.698, 558 155.972 C 558 155.541, 555.862 154.415, 553.250 153.471 C 546.797 151.138, 521.227 150.504, 511.897 152.445" fill="white" fill-opacity="1" fill-rule="evenodd" stroke="none" onclick="fillRegion(this)"/>
  <path id="head_inner1" class="region" d="M 541.667 169.667 C 541.300 170.033, 541 170.693, 541 171.132 C 541 172.236, 547.023 179, 548.006 179 C 548.742 179, 551 173.682, 551 171.949 C 551 171.154, 545.533 169, 543.517 169 C 542.866 169, 542.033 169.300, 541.667 169.667" fill="white" fill-opacity="1" fill-rule="evenodd" stroke="none" onclick="fillRegion(this)"/>
  <path id="head_inner2" class="region" d="M 565.994 180.509 C 563.396 184.713, 563.744 185.435, 567.928 184.516 C 571.279 183.780, 571.863 181.721, 569.576 178.707 C 568.313 177.041, 568.058 177.170, 565.994 180.509" fill="white" fill-opacity="1" fill-rule="evenodd" stroke="none" onclick="fillRegion(this)"/>
  <path id="ear_top" class="region" d="M 620.631 194.702 C 620.366 194.967, 620.957 197.068, 621.945 199.371 C 623.953 204.057, 626 212.774, 626 216.642 C 626 218.324, 627.878 221.261, 631.547 225.315 C 641.201 235.983, 645.768 248.626, 644.438 261 C 640.599 296.722, 607.302 324.070, 550.113 338.471 C 521.005 345.802, 498.789 347.796, 433 348.985 C 372.404 350.081, 359.035 351.680, 331.933 361.071 C 322.608 364.302, 311.905 363.210, 308.116 358.641 C 306.843 357.107, 306.114 357.303, 299.116 361.065 C 256.309 384.075, 225.238 420.308, 222.324 450.615 C 220.844 466.009, 228.876 481.104, 240.363 484.515 C 247.796 486.723, 249.796 486.449, 265.470 481.077 C 288.289 473.258, 309.192 469.636, 352.500 465.998 C 419.965 460.330, 448.527 456.634, 499.500 446.973 C 540.620 439.180, 587.637 426.636, 618.683 415.174 C 674.602 394.530, 711.840 369.596, 728.008 341.971 C 733.757 332.150, 736.184 324.022, 736.771 312.633 C 737.913 290.442, 729.793 269.007, 712.543 248.680 C 697.962 231.497, 672.510 213.346, 649.500 203.720 C 641.755 200.480, 621.256 194.077, 620.631 194.702" fill="white" fill-opacity="1" fill-rule="evenodd" stroke="none" onclick="fillRegion(this)"/>
  <path id="ear_detail" class="region" d="M 626 235.044 C 626 241.016, 622.731 251.660, 617.722 262 C 613.109 271.522, 611.650 273.482, 602.067 283.037 C 590.745 294.328, 582.762 299.732, 569.798 304.882 C 554.589 310.923, 551.341 311.438, 528.500 311.426 C 506.242 311.414, 502.024 310.771, 486.928 305.088 C 480.712 302.747, 469.537 296.273, 463.612 291.580 C 452.884 283.082, 441.648 265.635, 438.431 252.480 C 437.492 248.641, 436.425 245.161, 436.060 244.747 C 434.353 242.816, 408.327 249.807, 391.500 256.716 C 350.363 273.608, 324.031 295.551, 313.825 321.445 C 308.291 335.484, 310.111 348.103, 318.334 352.715 C 321.862 354.693, 326.011 354.201, 337.001 350.500 C 360.243 342.673, 374.572 341.130, 434.500 340.003 C 498.002 338.808, 515.873 337.202, 545.500 330.025 C 581.063 321.410, 602.497 310.698, 619.208 293.187 C 635.798 275.802, 640.056 257.222, 631.518 239.471 C 627.678 231.487, 626 230.141, 626 235.044" fill="white" fill-opacity="1" fill-rule="evenodd" stroke="none" onclick="fillRegion(this)"/>
  <path id="right_ear" class="region" d="M 742.959 333.626 C 741.280 338.713, 734.466 350.512, 729.462 357 C 719.376 370.076, 702.212 384.352, 682.088 396.403 C 655.576 412.279, 616.797 427.645, 572 440.022 C 555.343 444.625, 512.030 454.545, 494 457.888 C 462.719 463.687, 400.580 471.856, 371.500 473.991 C 305.651 478.828, 288.525 481.682, 258 492.911 C 251.146 495.433, 241.707 495.582, 233.566 493.298 C 228.833 491.970, 226.448 490.543, 222.703 486.798 C 220.064 484.159, 217.676 482, 217.398 482 C 216.168 482, 204.255 490.694, 199.155 495.313 C 179.929 512.723, 170.974 535.956, 175.377 557 C 176.242 561.136, 178.857 568.312, 181.207 573 C 184.731 580.031, 187.284 583.320, 195.983 592.030 C 206.090 602.150, 211.694 606.320, 234.500 620.690 C 238.900 623.462, 244.846 626.916, 247.714 628.364 C 253.254 631.162, 255 633.322, 255 637.378 C 255 640.940, 251.517 643.002, 245.527 642.988 C 239.303 642.973, 229.295 638.737, 216.085 630.527 L 206.671 624.675 204.333 627.588 C 197.687 635.869, 197.126 649.720, 202.958 661.566 C 212.276 680.493, 240.014 699.177, 263.091 702.071 L 270.860 703.045 277.230 709.415 C 285.502 717.687, 294.334 723.327, 302.462 725.527 C 307.732 726.954, 311.330 727.182, 321.241 726.720 C 327.983 726.405, 335.750 725.444, 338.500 724.585 C 341.250 723.725, 344.501 723.017, 345.724 723.011 C 346.981 723.005, 351.447 725.824, 355.987 729.490 C 370.630 741.312, 379.285 744.451, 395.373 743.775 C 405.528 743.348, 407.404 742.944, 416.856 739.153 C 422.552 736.869, 428.158 735, 429.313 735 C 430.468 735, 434.022 736.830, 437.212 739.067 C 449.106 747.411, 464.593 752.955, 476.090 752.985 C 484.111 753.006, 495.587 749.781, 506.130 744.542 C 511.158 742.044, 516.502 740, 518.007 740 C 519.512 740, 525.413 742.231, 531.121 744.957 C 545.567 751.857, 552.104 753.379, 564.500 752.728 C 577.710 752.034, 587.201 748.516, 599.400 739.790 C 604.537 736.115, 608.102 736.230, 618.238 740.395 C 629.835 745.160, 636.105 746.331, 647.101 745.785 C 661.011 745.094, 668.625 741.859, 682 730.955 C 684.475 728.937, 687.236 727.031, 688.136 726.719 C 689.035 726.406, 693.535 727.461, 698.136 729.062 C 705.228 731.531, 708.021 731.972, 716.500 731.962 C 722 731.956, 728.512 731.487, 730.972 730.921 C 738.686 729.143, 747.238 724.366, 754.625 717.708 L 761.749 711.286 771.125 710.763 C 783.848 710.055, 798.221 704.833, 803.498 699.002 C 804.495 697.901, 805.836 697, 806.479 697 C 809.065 697, 826.011 684.756, 831.237 679.111 C 839.415 670.278, 844 659.220, 844 648.332 C 844 643.516, 840.400 633.442, 836.820 628.238 C 833.487 623.394, 834.165 623.488, 823.500 626.394 C 809.827 630.119, 785.162 630.392, 774.397 626.938 C 767.863 624.841, 764.630 617.938, 768.413 614.161 C 769.851 612.726, 772.822 612.495, 790.288 612.461 C 809.013 612.424, 811.200 612.227, 820.011 609.776 C 850.458 601.307, 868.520 584.742, 873.422 560.792 C 879.266 532.243, 868.016 498.873, 842.886 470.216 C 835.721 462.044, 822.750 450.475, 815.107 445.440 L 810.714 442.545 809.107 444.997 C 802.759 454.684, 790.192 466.435, 777.520 474.534 C 756.052 488.254, 715.468 501.769, 668 511.005 C 665.525 511.487, 661.018 511.908, 657.985 511.940 C 654.460 511.978, 651.111 512.729, 648.702 514.020 C 646.629 515.131, 642.360 516.274, 639.216 516.559 C 629.941 517.402, 572.112 525.848, 564.500 527.472 C 560.650 528.293, 556.675 528.973, 555.667 528.983 C 552.201 529.015, 554.653 526.562, 560.392 524.255 C 569.388 520.638, 583.258 517.556, 613 512.562 C 628.125 510.023, 642.525 507.457, 645 506.861 C 647.475 506.265, 653.100 505.136, 657.500 504.352 C 681.377 500.096, 717.317 490.464, 738 482.777 C 761.501 474.042, 775.433 466.053, 788.468 453.837 C 802.590 440.601, 807.270 430.198, 807.290 412 C 807.300 402.705, 806.948 400.552, 804.217 393.239 C 798.162 377.026, 787.346 362.183, 771.500 348.341 C 764.818 342.503, 754.138 335.129, 747.323 331.648 L 744.147 330.025 742.959 333.626" fill="white" fill-opacity="1" fill-rule="evenodd" stroke="none" onclick="fillRegion(this)"/>
  <path id="left_eye_outer" class="region" d="M 375.915 551.945 C 369.153 553.187, 357.286 559.038, 350.882 564.288 C 340.287 572.976, 333.318 586.925, 332.324 601.437 C 331.589 612.161, 333.131 619.780, 338.063 629.802 C 346.920 647.801, 364.705 659.034, 384.254 658.976 C 394.819 658.944, 399.612 657.812, 409.628 652.981 C 423.218 646.427, 433.610 633.571, 437.470 618.540 C 445.802 586.092, 421.799 553.097, 388.699 551.500 C 384.189 551.282, 378.437 551.483, 375.915 551.945" fill="white" fill-opacity="1" fill-rule="evenodd" stroke="none" onclick="fillRegion(this)"/>
  <path id="right_eye_outer" class="region" d="M 640.645 552.584 C 616.911 558.329, 599 581.126, 599 605.587 C 599 625.714, 611.363 644.921, 630 653.747 C 647.207 661.897, 660.694 661.613, 678.500 652.727 C 686.383 648.793, 696.508 638.456, 700.768 629.992 C 708.359 614.909, 708.646 597.211, 701.542 582.250 C 698.890 576.667, 696.138 572.936, 690.742 567.612 C 682.305 559.287, 676.130 555.719, 665.415 552.978 C 656.487 550.695, 648.944 550.575, 640.645 552.584" fill="white" fill-opacity="1" fill-rule="evenodd" stroke="none" onclick="fillRegion(this)"/>
  <path id="left_eye_iris" class="region" d="M 392.643 570.028 C 381.573 573.346, 379.494 590.036, 389.346 596.491 C 396.455 601.149, 406.244 598.259, 410.060 590.375 C 413.863 582.521, 411.256 575.479, 402.980 571.250 C 398.259 568.838, 397.080 568.698, 392.643 570.028" fill="white" fill-opacity="1" fill-rule="evenodd" stroke="none" onclick="fillRegion(this)"/>
  <path id="right_eye_iris" class="region" d="M 635.059 571.228 C 628.930 574.363, 626.500 577.989, 626.500 584 C 626.500 594.617, 637.886 602.012, 646.980 597.302 C 656.788 592.223, 657.770 578.336, 648.745 572.346 C 643.586 568.922, 640.121 568.639, 635.059 571.228" fill="white" fill-opacity="1" fill-rule="evenodd" stroke="none" onclick="fillRegion(this)"/>
  <path id="nose" class="region" d="M 459.411 632.867 C 455.223 635.453, 451.848 639.939, 452.206 642.441 C 452.449 644.146, 453.119 644.453, 456.097 644.226 L 459.694 643.952 461.897 651.726 C 469.938 680.111, 477.215 696.414, 486.231 706.245 C 501.673 723.082, 524.163 725.593, 542.032 712.476 C 554.463 703.351, 564.186 686.582, 571.856 661.041 C 576.732 644.802, 576.836 644.582, 579.649 644.541 C 582.011 644.507, 582.555 644.023, 582.819 641.719 C 583.058 639.639, 582.279 638.079, 579.728 635.528 C 573.843 629.643, 567.500 629.684, 567.500 635.606 C 567.500 638.331, 567.101 638.599, 560 640.624 C 534.737 647.832, 497.491 647.541, 473.862 639.953 C 467.465 637.899, 467.230 637.707, 467.362 634.661 C 467.479 631.984, 467.117 631.459, 465 631.229 C 463.625 631.081, 461.110 631.817, 459.411 632.867" fill="white" fill-opacity="1" fill-rule="evenodd" stroke="none" onclick="fillRegion(this)"/>
  <path id="left_cheek_outer" class="region" d="M 310 655.098 C 302.422 656.578, 293.225 661.710, 289.848 666.343 C 287.266 669.886, 286.882 671.181, 287.248 675.106 C 287.858 681.634, 291.700 686.211, 300.094 690.411 C 309.085 694.909, 316.468 696.370, 327 695.735 C 344.440 694.685, 358 686.102, 358 676.115 C 358 666.736, 349.774 659.260, 335.307 655.492 C 329.107 653.877, 317.201 653.692, 310 655.098" fill="white" fill-opacity="1" fill-rule="evenodd" stroke="none" onclick="fillRegion(this)"/>
  <path id="right_cheek_outer" class="region" d="M 705.712 655.075 C 694.552 657.369, 683.745 664.374, 680.948 671.125 C 677.042 680.556, 688.089 691.593, 704.935 695.091 C 712.540 696.670, 727.221 695.742, 733.594 693.279 C 744.616 689.020, 752 681.457, 752 674.426 C 752 670.558, 748.192 664.405, 744 661.500 C 735.435 655.565, 717.758 652.598, 705.712 655.075" fill="white" fill-opacity="1" fill-rule="evenodd" stroke="none" onclick="fillRegion(this)"/>
  <path id="left_cheek_inner" class="region" d="M 314.547 660.101 C 300.468 662.176, 292 667.636, 292 674.638 C 292 680.195, 301.068 686.692, 312.128 689.059 C 319.064 690.544, 332.606 689.815, 339.748 687.572 C 346.612 685.416, 353 679.496, 353 675.290 C 353 665.089, 333.354 657.330, 314.547 660.101" fill="white" fill-opacity="1" fill-rule="evenodd" stroke="none" onclick="fillRegion(this)"/>
  <path id="right_cheek_inner" class="region" d="M 702.776 661.429 C 684.297 666.713, 680.333 678.548, 694.616 685.793 C 708.502 692.837, 732.846 690.666, 742.859 681.490 C 745.762 678.830, 746.384 677.572, 746.298 674.538 C 746.166 669.884, 743.410 666.840, 736.055 663.228 C 731.100 660.795, 729.258 660.477, 719 660.289 C 711.719 660.155, 705.767 660.574, 702.776 661.429" fill="white" fill-opacity="1" fill-rule="evenodd" stroke="none" onclick="fillRegion(this)"/>
  <path id="mouth" class="region" d="M 525.827 674.804 C 523.254 675.106, 518 679.357, 518 681.136 C 518 683.503, 514.839 681.551, 513.506 678.361 L 511.986 674.722 506.289 675.310 C 500.239 675.934, 487.727 681.434, 484.669 684.813 C 483.036 686.618, 483.146 686.991, 487.018 692.790 C 492.618 701.175, 500.828 708.450, 507.008 710.503 C 518.966 714.474, 530.014 711.707, 540.291 702.166 C 545.465 697.363, 553 686.767, 553 684.296 C 553 680.862, 533.186 673.941, 525.827 674.804" fill="white" fill-opacity="1" fill-rule="evenodd" stroke="none" onclick="fillRegion(this)"/>
  <path id="left_arm_outer" class="region" d="M 234 708.332 C 234 708.643, 235.144 712.632, 236.542 717.198 C 240.988 731.715, 243.761 741.185, 247.025 753 C 248.773 759.325, 252.356 771.700, 254.987 780.500 C 257.618 789.300, 262.551 805.950, 265.950 817.500 C 269.349 829.050, 272.526 839.625, 273.009 841 C 273.493 842.375, 276.671 852.275, 280.073 863 C 286.808 884.234, 289.292 888.818, 297.794 895.693 C 304.720 901.296, 309.092 904.241, 309.651 903.682 C 310.076 903.258, 303.289 873.357, 291.907 825.500 C 286.035 800.814, 267.053 724.486, 265.670 720 L 264.282 715.500 257.934 714.704 C 254.442 714.267, 248.416 712.788, 244.542 711.419 C 234.336 707.810, 234 707.711, 234 708.332" fill="white" fill-opacity="1" fill-rule="evenodd" stroke="none" onclick="fillRegion(this)"/>
  <path id="right_arm_outer" class="region" d="M 803 715.049 C 796.342 718.504, 789.342 720.980, 782.070 722.454 L 776.640 723.554 772.297 739.027 C 768.375 752.997, 764.825 766.359, 747.460 832.500 C 744.572 843.500, 740.521 858.800, 738.458 866.500 C 730.875 894.808, 726.391 913, 726.996 913 C 728.557 913, 739.888 905.502, 743.336 902.187 C 745.446 900.159, 748.268 896.360, 749.606 893.745 C 754.211 884.745, 767.386 847.807, 776.980 817 C 779.806 807.925, 782.536 799.375, 783.046 798 C 783.557 796.625, 787.847 782.675, 792.580 767 C 797.312 751.325, 802.943 732.687, 805.092 725.583 C 807.240 718.478, 808.887 712.560, 808.749 712.430 C 808.612 712.301, 806.025 713.479, 803 715.049" fill="white" fill-opacity="1" fill-rule="evenodd" stroke="none" onclick="fillRegion(this)"/>
  <path id="left_arm_inner" class="region" d="M 274 723.758 C 274 724.315, 278.023 740.910, 282.940 760.636 C 294.386 806.558, 303.816 845.231, 308.510 865.500 C 310.547 874.300, 313.245 885.775, 314.504 891 C 315.764 896.225, 317.076 902.132, 317.419 904.126 C 317.994 907.460, 318.585 907.993, 324.772 910.750 C 334.125 914.918, 350.497 920.966, 353.215 921.258 C 355.227 921.473, 355.443 921.115, 355.172 918 C 354.799 913.705, 352.452 900.305, 347.025 871.500 C 344.746 859.400, 342.485 847.025, 342.001 844 C 341.096 838.345, 339.065 827.322, 332.048 790 C 329.825 778.175, 327.083 762.875, 325.956 756 C 324.828 749.125, 323.716 742.578, 323.484 741.451 C 323.103 739.595, 322.467 739.437, 316.781 739.784 C 303.918 740.568, 287.274 734.981, 278.570 726.958 C 276.057 724.641, 274 723.201, 274 723.758" fill="white" fill-opacity="1" fill-rule="evenodd" stroke="none" onclick="fillRegion(this)"/>
  <path id="right_arm_inner" class="region" d="M 760.500 728.328 C 752.217 736.669, 737.301 743.525, 724.700 744.782 L 717.500 745.500 714.894 756.500 C 713.461 762.550, 711.305 772.675, 710.103 779 C 708.902 785.325, 705.676 800.850, 702.934 813.500 C 700.193 826.150, 696.630 843.025, 695.017 851 C 692.104 865.400, 689.439 878.096, 682.577 910.271 C 680.610 919.494, 679 927.890, 679 928.927 C 679 930.680, 679.799 930.565, 690.250 927.306 C 709.251 921.382, 717.018 918.084, 717.990 915.525 C 718.468 914.270, 721.182 904.301, 724.023 893.372 C 731.043 866.362, 745.316 812.860, 748.933 800 C 750.557 794.225, 754.421 779.600, 757.521 767.500 C 760.620 755.400, 764.471 741.155, 766.078 735.844 C 767.685 730.533, 769 725.695, 769 725.094 C 769 722.719, 764.289 724.512, 760.500 728.328" fill="white" fill-opacity="1" fill-rule="evenodd" stroke="none" onclick="fillRegion(this)"/>
  <path id="left_leg" class="region" d="M 335.825 737.378 C 332.703 737.995, 329.889 738.765, 329.570 739.088 C 329.251 739.411, 329.875 744.136, 330.955 749.588 C 332.036 755.040, 334.268 766.700, 335.915 775.500 C 337.563 784.300, 341.655 805.900, 345.010 823.500 C 348.365 841.100, 351.747 858.875, 352.527 863 C 355.292 877.637, 361.870 914.571, 362.537 919.208 C 363.321 924.655, 362.277 924.138, 382 928.853 C 398.546 932.809, 406.052 934.281, 406.646 933.687 C 407.124 933.209, 405.863 922.129, 397.972 857.500 C 394.659 830.361, 392.636 812.615, 387.207 763.044 L 386.500 756.587 380.500 755.356 C 368.526 752.901, 360.784 749.028, 350.392 740.293 C 344.952 735.721, 344.583 735.647, 335.825 737.378" fill="white" fill-opacity="1" fill-rule="evenodd" stroke="none" onclick="fillRegion(this)"/>
  <path id="right_leg" class="region" d="M 685 743.583 C 678.312 749.071, 665.552 755.385, 657.728 757.079 C 653.220 758.054, 651.862 758.785, 651.528 760.414 C 651.091 762.549, 645.901 800.281, 641.613 832.500 C 640.296 842.400, 636.380 870.399, 632.911 894.719 C 629.442 919.039, 626.897 939.230, 627.254 939.587 C 628.413 940.746, 668.682 933.598, 670.436 931.923 C 670.950 931.431, 672.663 924.610, 674.243 916.764 C 681.767 879.387, 708.851 752.786, 710.603 746.805 C 710.988 745.493, 710.240 744.950, 707.300 744.405 C 704.076 743.808, 698.090 741.943, 692 739.638 C 691.106 739.299, 688.276 740.895, 685 743.583" fill="white" fill-opacity="1" fill-rule="evenodd" stroke="none" onclick="fillRegion(this)"/>
  <path id="left_foot" class="region" d="M 422.500 749.620 C 413.716 752.986, 406.821 754.950, 401.788 755.521 C 391.630 756.673, 392.235 756.136, 393.107 763.227 C 393.531 766.677, 395.462 782.100, 397.397 797.500 C 399.333 812.900, 403.641 848.450, 406.971 876.500 C 410.301 904.550, 413.358 929.274, 413.763 931.443 L 414.500 935.385 421.500 936.690 C 431.302 938.516, 458.342 941.992, 458.843 941.490 C 459.475 940.859, 459.042 922.408, 457.975 904.500 C 457.010 888.281, 456.517 879.122, 452.996 812 C 451.914 791.375, 450.748 771.350, 450.405 767.500 L 449.780 760.500 439.501 754.250 C 433.848 750.813, 428.610 748.020, 427.861 748.044 C 427.112 748.068, 424.700 748.777, 422.500 749.620" fill="white" fill-opacity="1" fill-rule="evenodd" stroke="none" onclick="fillRegion(this)"/>
  <path id="right_foot" class="region" d="M 599 754.107 C 594.875 756.824, 590.536 759.298, 589.358 759.605 C 586.811 760.268, 586.871 759.803, 583.972 801 C 582.869 816.675, 581.304 837.375, 580.495 847 C 579.686 856.625, 577.897 880.700, 576.520 900.500 C 575.143 920.300, 573.752 938.469, 573.428 940.875 L 572.840 945.250 580.170 944.645 C 584.201 944.313, 594.404 943.512, 602.842 942.865 C 616.897 941.788, 618.257 941.514, 619.049 939.595 C 619.525 938.443, 622.883 916.575, 626.511 891 C 630.139 865.425, 634.447 835.500, 636.084 824.500 C 637.721 813.500, 640.390 795.379, 642.016 784.232 C 643.641 773.085, 645.251 762.847, 645.594 761.482 C 646.183 759.135, 645.989 759, 642.025 759 C 636.676 759, 623.969 755.762, 614.397 751.959 C 610.300 750.332, 606.847 749.037, 606.724 749.083 C 606.601 749.129, 603.125 751.389, 599 754.107" fill="white" fill-opacity="1" fill-rule="evenodd" stroke="none" onclick="fillRegion(this)"/>
  <path id="belly" class="region" d="M 504.722 758.429 C 499.526 760.951, 493.013 763.214, 488.762 763.973 C 480.458 765.457, 467.071 765.476, 462.007 764.011 C 454.899 761.954, 455.186 759.328, 458.025 800.500 C 461.319 848.281, 465.097 911.001, 466.277 937.500 L 466.500 942.500 476 943.253 C 497.105 944.927, 512.534 945.702, 513.127 945.118 C 514.068 944.190, 515.244 753.987, 514.308 754.084 C 513.864 754.130, 509.550 756.085, 504.722 758.429" fill="white" fill-opacity="1" fill-rule="evenodd" stroke="none" onclick="fillRegion(this)"/>
  <path id="tail" class="region" d="M 521 849 C 521 901.250, 521 944.337, 521 944.750 C 521 945.163, 531.237 945.500, 543.750 945.500 L 566.500 945.500 568.206 921 C 570.256 891.540, 575.018 833.370, 578.663 793.244 C 580.125 777.153, 581.136 763.810, 580.910 763.592 C 580.685 763.375, 577.125 763.864, 573 764.678 C 558.816 767.477, 541.400 764.632, 528.404 757.395 C 525.051 755.528, 522.014 754, 521.654 754 C 521.294 754, 521 796.750, 521 849" fill="white" fill-opacity="1" fill-rule="evenodd" stroke="none" onclick="fillRegion(this)"/>
</g>
<g id="outlines" pointer-events="none">
  <path d="M 657.500 57.975 C 623.507 67.031, 596.501 88.521, 574.584 123.952 C 571.482 128.966, 567.817 135.618, 566.439 138.734 C 565.061 141.851, 563.818 144.515, 563.678 144.655 C 563.538 144.795, 560.066 143.990, 555.962 142.866 C 544.504 139.729, 522.397 139.209, 510 141.785 C 478.785 148.272, 455.282 166.850, 443.147 194.631 C 439.281 203.481, 437.210 212.059, 436.362 222.732 L 435.708 230.964 432.104 231.590 C 409.767 235.471, 386.767 243.093, 365.500 253.663 C 346.546 263.083, 333.584 272.317, 320.866 285.459 C 303.677 303.221, 295.396 321.382, 296.154 339.651 C 296.344 344.243, 296.143 348, 295.706 348 C 294.287 348, 271.678 361.115, 265 365.812 C 242.154 381.882, 223.186 403.820, 213.855 424.966 C 208.562 436.961, 206.595 447.673, 207.312 460.611 L 207.872 470.722 200.237 476.053 C 179.412 490.593, 165.539 508.648, 159.779 528.709 C 156.542 539.986, 156.570 557.539, 159.844 567.965 C 164.681 583.369, 173.542 596.858, 186.725 608.887 L 194.274 615.774 191.677 619.179 C 186.337 626.180, 183.638 633.866, 183.175 643.386 C 182.617 654.840, 184.136 661.401, 189.667 671.445 C 194.099 679.493, 206.349 693.236, 212.250 696.780 C 213.762 697.688, 215 699.154, 215 700.038 C 215 700.922, 216.544 707.012, 218.430 713.572 C 220.317 720.133, 226.442 741.925, 232.043 762 C 244.348 806.111, 258.498 854.464, 264.672 873.500 C 271.239 893.748, 276.758 902.121, 290.015 911.951 C 329.695 941.372, 421.873 961.886, 522.500 963.691 C 603.696 965.147, 671.948 955.894, 719.254 937.017 C 728.970 933.140, 742.541 925.963, 748 921.814 C 755.993 915.740, 763.352 907.108, 767.023 899.500 C 773.117 886.872, 799.126 808.595, 809.054 773 C 810.818 766.675, 814.513 753.850, 817.265 744.500 C 820.017 735.150, 823.712 722.012, 825.476 715.304 L 828.683 703.109 833.771 699.087 C 860.276 678.136, 868.104 649.031, 853.614 625.317 L 849.224 618.133 855.862 614.316 C 864.770 609.195, 879.553 594.382, 883.783 586.338 C 890.615 573.346, 892.181 567.591, 892.749 553.395 C 893.370 537.859, 892.048 527.340, 887.798 514 C 878.825 485.834, 860.150 460.265, 832.419 438.175 C 830.813 436.896, 827.798 434.871, 825.718 433.675 C 822.810 432.003, 822.061 431.037, 822.480 429.500 C 827.678 410.432, 823.613 388.942, 810.919 368.385 C 807.195 362.354, 801.746 355.811, 793.500 347.472 C 780.298 334.120, 771.148 326.879, 760.500 321.360 L 753.500 317.731 753.438 305.616 C 753.361 290.628, 750.994 280.720, 744.091 266.500 C 733.150 243.963, 714.015 223.351, 689 207.158 C 678.891 200.615, 657.539 190.218, 646.868 186.644 C 638.215 183.746, 618.323 179, 614.822 178.999 C 613.229 178.999, 610.686 176.970, 606.718 172.533 C 600.715 165.821, 591.865 158.508, 586.250 155.620 C 584.462 154.701, 583 153.537, 583 153.034 C 583 150.839, 596.182 132.890, 603.384 125.279 C 623.470 104.051, 642.911 93.211, 670.348 87.941 C 684.020 85.315, 690.337 71.496, 682.257 61.893 C 677.097 55.761, 670.017 54.640, 657.500 57.975" fill="none" fill-rule="evenodd" stroke="#111" stroke-width="2.5" stroke-linejoin="round" stroke-linecap="round"/>
  <path d="M 658.500 68.958 C 625.909 77.563, 602.114 97.519, 580.350 134.500 C 570.928 150.509, 555.779 179.836, 556.230 181.190 C 556.742 182.725, 559.431 178.345, 566.786 164 C 580.313 137.614, 584.422 131.182, 596.416 117.620 C 612.544 99.381, 636.009 85.391, 660.431 79.453 C 665.892 78.125, 670.786 76.614, 671.306 76.094 C 672.652 74.748, 672.473 70.275, 671.003 68.503 C 669.414 66.589, 667.163 66.671, 658.500 68.958" fill="none" fill-rule="evenodd" stroke="#111" stroke-width="2.5" stroke-linejoin="round" stroke-linecap="round"/>
  <path d="M 511.897 152.445 C 485.425 157.955, 463.461 176.993, 454.006 202.624 C 451.071 210.582, 450.682 212.897, 450.246 225.006 C 449.865 235.570, 450.121 239.926, 451.422 245.006 C 457.646 269.314, 476.592 286.474, 505.712 294.176 C 518.495 297.557, 538.397 297.336, 552.351 293.660 C 576.576 287.276, 593.951 274.270, 603.864 255.097 C 609.319 244.547, 611.391 234.437, 610.722 221.635 C 609.896 205.822, 604.950 193.357, 594.288 180.217 C 590.697 175.792, 577.961 164.981, 576.389 165.025 C 575.900 165.038, 574.743 166.572, 573.818 168.433 L 572.136 171.818 576.068 175.951 C 579.238 179.283, 580 180.826, 580 183.907 C 580 192.416, 572.295 196.179, 558.874 194.223 C 550.036 192.935, 544.724 190.549, 538.799 185.207 C 530.943 178.124, 528.910 169.371, 533.838 163.855 C 536.261 161.143, 537.337 160.688, 541.195 160.747 C 543.680 160.784, 547.656 161.753, 550.030 162.901 C 552.405 164.048, 554.447 164.877, 554.568 164.743 C 555.066 164.196, 558 156.698, 558 155.972 C 558 155.541, 555.862 154.415, 553.250 153.471 C 546.797 151.138, 521.227 150.504, 511.897 152.445" fill="none" fill-rule="evenodd" stroke="#111" stroke-width="2.5" stroke-linejoin="round" stroke-linecap="round"/>
  <path d="M 541.667 169.667 C 541.300 170.033, 541 170.693, 541 171.132 C 541 172.236, 547.023 179, 548.006 179 C 548.742 179, 551 173.682, 551 171.949 C 551 171.154, 545.533 169, 543.517 169 C 542.866 169, 542.033 169.300, 541.667 169.667" fill="none" fill-rule="evenodd" stroke="#111" stroke-width="2.5" stroke-linejoin="round" stroke-linecap="round"/>
  <path d="M 565.994 180.509 C 563.396 184.713, 563.744 185.435, 567.928 184.516 C 571.279 183.780, 571.863 181.721, 569.576 178.707 C 568.313 177.041, 568.058 177.170, 565.994 180.509" fill="none" fill-rule="evenodd" stroke="#111" stroke-width="2.5" stroke-linejoin="round" stroke-linecap="round"/>
  <path d="M 620.631 194.702 C 620.366 194.967, 620.957 197.068, 621.945 199.371 C 623.953 204.057, 626 212.774, 626 216.642 C 626 218.324, 627.878 221.261, 631.547 225.315 C 641.201 235.983, 645.768 248.626, 644.438 261 C 640.599 296.722, 607.302 324.070, 550.113 338.471 C 521.005 345.802, 498.789 347.796, 433 348.985 C 372.404 350.081, 359.035 351.680, 331.933 361.071 C 322.608 364.302, 311.905 363.210, 308.116 358.641 C 306.843 357.107, 306.114 357.303, 299.116 361.065 C 256.309 384.075, 225.238 420.308, 222.324 450.615 C 220.844 466.009, 228.876 481.104, 240.363 484.515 C 247.796 486.723, 249.796 486.449, 265.470 481.077 C 288.289 473.258, 309.192 469.636, 352.500 465.998 C 419.965 460.330, 448.527 456.634, 499.500 446.973 C 540.620 439.180, 587.637 426.636, 618.683 415.174 C 674.602 394.530, 711.840 369.596, 728.008 341.971 C 733.757 332.150, 736.184 324.022, 736.771 312.633 C 737.913 290.442, 729.793 269.007, 712.543 248.680 C 697.962 231.497, 672.510 213.346, 649.500 203.720 C 641.755 200.480, 621.256 194.077, 620.631 194.702" fill="none" fill-rule="evenodd" stroke="#111" stroke-width="2.5" stroke-linejoin="round" stroke-linecap="round"/>
  <path d="M 626 235.044 C 626 241.016, 622.731 251.660, 617.722 262 C 613.109 271.522, 611.650 273.482, 602.067 283.037 C 590.745 294.328, 582.762 299.732, 569.798 304.882 C 554.589 310.923, 551.341 311.438, 528.500 311.426 C 506.242 311.414, 502.024 310.771, 486.928 305.088 C 480.712 302.747, 469.537 296.273, 463.612 291.580 C 452.884 283.082, 441.648 265.635, 438.431 252.480 C 437.492 248.641, 436.425 245.161, 436.060 244.747 C 434.353 242.816, 408.327 249.807, 391.500 256.716 C 350.363 273.608, 324.031 295.551, 313.825 321.445 C 308.291 335.484, 310.111 348.103, 318.334 352.715 C 321.862 354.693, 326.011 354.201, 337.001 350.500 C 360.243 342.673, 374.572 341.130, 434.500 340.003 C 498.002 338.808, 515.873 337.202, 545.500 330.025 C 581.063 321.410, 602.497 310.698, 619.208 293.187 C 635.798 275.802, 640.056 257.222, 631.518 239.471 C 627.678 231.487, 626 230.141, 626 235.044" fill="none" fill-rule="evenodd" stroke="#111" stroke-width="2.5" stroke-linejoin="round" stroke-linecap="round"/>
  <path d="M 742.959 333.626 C 741.280 338.713, 734.466 350.512, 729.462 357 C 719.376 370.076, 702.212 384.352, 682.088 396.403 C 655.576 412.279, 616.797 427.645, 572 440.022 C 555.343 444.625, 512.030 454.545, 494 457.888 C 462.719 463.687, 400.580 471.856, 371.500 473.991 C 305.651 478.828, 288.525 481.682, 258 492.911 C 251.146 495.433, 241.707 495.582, 233.566 493.298 C 228.833 491.970, 226.448 490.543, 222.703 486.798 C 220.064 484.159, 217.676 482, 217.398 482 C 216.168 482, 204.255 490.694, 199.155 495.313 C 179.929 512.723, 170.974 535.956, 175.377 557 C 176.242 561.136, 178.857 568.312, 181.207 573 C 184.731 580.031, 187.284 583.320, 195.983 592.030 C 206.090 602.150, 211.694 606.320, 234.500 620.690 C 238.900 623.462, 244.846 626.916, 247.714 628.364 C 253.254 631.162, 255 633.322, 255 637.378 C 255 640.940, 251.517 643.002, 245.527 642.988 C 239.303 642.973, 229.295 638.737, 216.085 630.527 L 206.671 624.675 204.333 627.588 C 197.687 635.869, 197.126 649.720, 202.958 661.566 C 212.276 680.493, 240.014 699.177, 263.091 702.071 L 270.860 703.045 277.230 709.415 C 285.502 717.687, 294.334 723.327, 302.462 725.527 C 307.732 726.954, 311.330 727.182, 321.241 726.720 C 327.983 726.405, 335.750 725.444, 338.500 724.585 C 341.250 723.725, 344.501 723.017, 345.724 723.011 C 346.981 723.005, 351.447 725.824, 355.987 729.490 C 370.630 741.312, 379.285 744.451, 395.373 743.775 C 405.528 743.348, 407.404 742.944, 416.856 739.153 C 422.552 736.869, 428.158 735, 429.313 735 C 430.468 735, 434.022 736.830, 437.212 739.067 C 449.106 747.411, 464.593 752.955, 476.090 752.985 C 484.111 753.006, 495.587 749.781, 506.130 744.542 C 511.158 742.044, 516.502 740, 518.007 740 C 519.512 740, 525.413 742.231, 531.121 744.957 C 545.567 751.857, 552.104 753.379, 564.500 752.728 C 577.710 752.034, 587.201 748.516, 599.400 739.790 C 604.537 736.115, 608.102 736.230, 618.238 740.395 C 629.835 745.160, 636.105 746.331, 647.101 745.785 C 661.011 745.094, 668.625 741.859, 682 730.955 C 684.475 728.937, 687.236 727.031, 688.136 726.719 C 689.035 726.406, 693.535 727.461, 698.136 729.062 C 705.228 731.531, 708.021 731.972, 716.500 731.962 C 722 731.956, 728.512 731.487, 730.972 730.921 C 738.686 729.143, 747.238 724.366, 754.625 717.708 L 761.749 711.286 771.125 710.763 C 783.848 710.055, 798.221 704.833, 803.498 699.002 C 804.495 697.901, 805.836 697, 806.479 697 C 809.065 697, 826.011 684.756, 831.237 679.111 C 839.415 670.278, 844 659.220, 844 648.332 C 844 643.516, 840.400 633.442, 836.820 628.238 C 833.487 623.394, 834.165 623.488, 823.500 626.394 C 809.827 630.119, 785.162 630.392, 774.397 626.938 C 767.863 624.841, 764.630 617.938, 768.413 614.161 C 769.851 612.726, 772.822 612.495, 790.288 612.461 C 809.013 612.424, 811.200 612.227, 820.011 609.776 C 850.458 601.307, 868.520 584.742, 873.422 560.792 C 879.266 532.243, 868.016 498.873, 842.886 470.216 C 835.721 462.044, 822.750 450.475, 815.107 445.440 L 810.714 442.545 809.107 444.997 C 802.759 454.684, 790.192 466.435, 777.520 474.534 C 756.052 488.254, 715.468 501.769, 668 511.005 C 665.525 511.487, 661.018 511.908, 657.985 511.940 C 654.460 511.978, 651.111 512.729, 648.702 514.020 C 646.629 515.131, 642.360 516.274, 639.216 516.559 C 629.941 517.402, 572.112 525.848, 564.500 527.472 C 560.650 528.293, 556.675 528.973, 555.667 528.983 C 552.201 529.015, 554.653 526.562, 560.392 524.255 C 569.388 520.638, 583.258 517.556, 613 512.562 C 628.125 510.023, 642.525 507.457, 645 506.861 C 647.475 506.265, 653.100 505.136, 657.500 504.352 C 681.377 500.096, 717.317 490.464, 738 482.777 C 761.501 474.042, 775.433 466.053, 788.468 453.837 C 802.590 440.601, 807.270 430.198, 807.290 412 C 807.300 402.705, 806.948 400.552, 804.217 393.239 C 798.162 377.026, 787.346 362.183, 771.500 348.341 C 764.818 342.503, 754.138 335.129, 747.323 331.648 L 744.147 330.025 742.959 333.626" fill="none" fill-rule="evenodd" stroke="#111" stroke-width="2.5" stroke-linejoin="round" stroke-linecap="round"/>
  <path d="M 375.915 551.945 C 369.153 553.187, 357.286 559.038, 350.882 564.288 C 340.287 572.976, 333.318 586.925, 332.324 601.437 C 331.589 612.161, 333.131 619.780, 338.063 629.802 C 346.920 647.801, 364.705 659.034, 384.254 658.976 C 394.819 658.944, 399.612 657.812, 409.628 652.981 C 423.218 646.427, 433.610 633.571, 437.470 618.540 C 445.802 586.092, 421.799 553.097, 388.699 551.500 C 384.189 551.282, 378.437 551.483, 375.915 551.945" fill="none" fill-rule="evenodd" stroke="#111" stroke-width="2.5" stroke-linejoin="round" stroke-linecap="round"/>
  <path d="M 640.645 552.584 C 616.911 558.329, 599 581.126, 599 605.587 C 599 625.714, 611.363 644.921, 630 653.747 C 647.207 661.897, 660.694 661.613, 678.500 652.727 C 686.383 648.793, 696.508 638.456, 700.768 629.992 C 708.359 614.909, 708.646 597.211, 701.542 582.250 C 698.890 576.667, 696.138 572.936, 690.742 567.612 C 682.305 559.287, 676.130 555.719, 665.415 552.978 C 656.487 550.695, 648.944 550.575, 640.645 552.584" fill="none" fill-rule="evenodd" stroke="#111" stroke-width="2.5" stroke-linejoin="round" stroke-linecap="round"/>
  <path d="M 392.643 570.028 C 381.573 573.346, 379.494 590.036, 389.346 596.491 C 396.455 601.149, 406.244 598.259, 410.060 590.375 C 413.863 582.521, 411.256 575.479, 402.980 571.250 C 398.259 568.838, 397.080 568.698, 392.643 570.028" fill="none" fill-rule="evenodd" stroke="#111" stroke-width="2.5" stroke-linejoin="round" stroke-linecap="round"/>
  <path d="M 635.059 571.228 C 628.930 574.363, 626.500 577.989, 626.500 584 C 626.500 594.617, 637.886 602.012, 646.980 597.302 C 656.788 592.223, 657.770 578.336, 648.745 572.346 C 643.586 568.922, 640.121 568.639, 635.059 571.228" fill="none" fill-rule="evenodd" stroke="#111" stroke-width="2.5" stroke-linejoin="round" stroke-linecap="round"/>
  <path d="M 459.411 632.867 C 455.223 635.453, 451.848 639.939, 452.206 642.441 C 452.449 644.146, 453.119 644.453, 456.097 644.226 L 459.694 643.952 461.897 651.726 C 469.938 680.111, 477.215 696.414, 486.231 706.245 C 501.673 723.082, 524.163 725.593, 542.032 712.476 C 554.463 703.351, 564.186 686.582, 571.856 661.041 C 576.732 644.802, 576.836 644.582, 579.649 644.541 C 582.011 644.507, 582.555 644.023, 582.819 641.719 C 583.058 639.639, 582.279 638.079, 579.728 635.528 C 573.843 629.643, 567.500 629.684, 567.500 635.606 C 567.500 638.331, 567.101 638.599, 560 640.624 C 534.737 647.832, 497.491 647.541, 473.862 639.953 C 467.465 637.899, 467.230 637.707, 467.362 634.661 C 467.479 631.984, 467.117 631.459, 465 631.229 C 463.625 631.081, 461.110 631.817, 459.411 632.867" fill="none" fill-rule="evenodd" stroke="#111" stroke-width="2.5" stroke-linejoin="round" stroke-linecap="round"/>
  <path d="M 310 655.098 C 302.422 656.578, 293.225 661.710, 289.848 666.343 C 287.266 669.886, 286.882 671.181, 287.248 675.106 C 287.858 681.634, 291.700 686.211, 300.094 690.411 C 309.085 694.909, 316.468 696.370, 327 695.735 C 344.440 694.685, 358 686.102, 358 676.115 C 358 666.736, 349.774 659.260, 335.307 655.492 C 329.107 653.877, 317.201 653.692, 310 655.098" fill="none" fill-rule="evenodd" stroke="#111" stroke-width="2.5" stroke-linejoin="round" stroke-linecap="round"/>
  <path d="M 705.712 655.075 C 694.552 657.369, 683.745 664.374, 680.948 671.125 C 677.042 680.556, 688.089 691.593, 704.935 695.091 C 712.540 696.670, 727.221 695.742, 733.594 693.279 C 744.616 689.020, 752 681.457, 752 674.426 C 752 670.558, 748.192 664.405, 744 661.500 C 735.435 655.565, 717.758 652.598, 705.712 655.075" fill="none" fill-rule="evenodd" stroke="#111" stroke-width="2.5" stroke-linejoin="round" stroke-linecap="round"/>
  <path d="M 314.547 660.101 C 300.468 662.176, 292 667.636, 292 674.638 C 292 680.195, 301.068 686.692, 312.128 689.059 C 319.064 690.544, 332.606 689.815, 339.748 687.572 C 346.612 685.416, 353 679.496, 353 675.290 C 353 665.089, 333.354 657.330, 314.547 660.101" fill="none" fill-rule="evenodd" stroke="#111" stroke-width="2.5" stroke-linejoin="round" stroke-linecap="round"/>
  <path d="M 702.776 661.429 C 684.297 666.713, 680.333 678.548, 694.616 685.793 C 708.502 692.837, 732.846 690.666, 742.859 681.490 C 745.762 678.830, 746.384 677.572, 746.298 674.538 C 746.166 669.884, 743.410 666.840, 736.055 663.228 C 731.100 660.795, 729.258 660.477, 719 660.289 C 711.719 660.155, 705.767 660.574, 702.776 661.429" fill="none" fill-rule="evenodd" stroke="#111" stroke-width="2.5" stroke-linejoin="round" stroke-linecap="round"/>
  <path d="M 525.827 674.804 C 523.254 675.106, 518 679.357, 518 681.136 C 518 683.503, 514.839 681.551, 513.506 678.361 L 511.986 674.722 506.289 675.310 C 500.239 675.934, 487.727 681.434, 484.669 684.813 C 483.036 686.618, 483.146 686.991, 487.018 692.790 C 492.618 701.175, 500.828 708.450, 507.008 710.503 C 518.966 714.474, 530.014 711.707, 540.291 702.166 C 545.465 697.363, 553 686.767, 553 684.296 C 553 680.862, 533.186 673.941, 525.827 674.804" fill="none" fill-rule="evenodd" stroke="#111" stroke-width="2.5" stroke-linejoin="round" stroke-linecap="round"/>
  <path d="M 234 708.332 C 234 708.643, 235.144 712.632, 236.542 717.198 C 240.988 731.715, 243.761 741.185, 247.025 753 C 248.773 759.325, 252.356 771.700, 254.987 780.500 C 257.618 789.300, 262.551 805.950, 265.950 817.500 C 269.349 829.050, 272.526 839.625, 273.009 841 C 273.493 842.375, 276.671 852.275, 280.073 863 C 286.808 884.234, 289.292 888.818, 297.794 895.693 C 304.720 901.296, 309.092 904.241, 309.651 903.682 C 310.076 903.258, 303.289 873.357, 291.907 825.500 C 286.035 800.814, 267.053 724.486, 265.670 720 L 264.282 715.500 257.934 714.704 C 254.442 714.267, 248.416 712.788, 244.542 711.419 C 234.336 707.810, 234 707.711, 234 708.332" fill="none" fill-rule="evenodd" stroke="#111" stroke-width="2.5" stroke-linejoin="round" stroke-linecap="round"/>
  <path d="M 803 715.049 C 796.342 718.504, 789.342 720.980, 782.070 722.454 L 776.640 723.554 772.297 739.027 C 768.375 752.997, 764.825 766.359, 747.460 832.500 C 744.572 843.500, 740.521 858.800, 738.458 866.500 C 730.875 894.808, 726.391 913, 726.996 913 C 728.557 913, 739.888 905.502, 743.336 902.187 C 745.446 900.159, 748.268 896.360, 749.606 893.745 C 754.211 884.745, 767.386 847.807, 776.980 817 C 779.806 807.925, 782.536 799.375, 783.046 798 C 783.557 796.625, 787.847 782.675, 792.580 767 C 797.312 751.325, 802.943 732.687, 805.092 725.583 C 807.240 718.478, 808.887 712.560, 808.749 712.430 C 808.612 712.301, 806.025 713.479, 803 715.049" fill="none" fill-rule="evenodd" stroke="#111" stroke-width="2.5" stroke-linejoin="round" stroke-linecap="round"/>
  <path d="M 274 723.758 C 274 724.315, 278.023 740.910, 282.940 760.636 C 294.386 806.558, 303.816 845.231, 308.510 865.500 C 310.547 874.300, 313.245 885.775, 314.504 891 C 315.764 896.225, 317.076 902.132, 317.419 904.126 C 317.994 907.460, 318.585 907.993, 324.772 910.750 C 334.125 914.918, 350.497 920.966, 353.215 921.258 C 355.227 921.473, 355.443 921.115, 355.172 918 C 354.799 913.705, 352.452 900.305, 347.025 871.500 C 344.746 859.400, 342.485 847.025, 342.001 844 C 341.096 838.345, 339.065 827.322, 332.048 790 C 329.825 778.175, 327.083 762.875, 325.956 756 C 324.828 749.125, 323.716 742.578, 323.484 741.451 C 323.103 739.595, 322.467 739.437, 316.781 739.784 C 303.918 740.568, 287.274 734.981, 278.570 726.958 C 276.057 724.641, 274 723.201, 274 723.758" fill="none" fill-rule="evenodd" stroke="#111" stroke-width="2.5" stroke-linejoin="round" stroke-linecap="round"/>
  <path d="M 760.500 728.328 C 752.217 736.669, 737.301 743.525, 724.700 744.782 L 717.500 745.500 714.894 756.500 C 713.461 762.550, 711.305 772.675, 710.103 779 C 708.902 785.325, 705.676 800.850, 702.934 813.500 C 700.193 826.150, 696.630 843.025, 695.017 851 C 692.104 865.400, 689.439 878.096, 682.577 910.271 C 680.610 919.494, 679 927.890, 679 928.927 C 679 930.680, 679.799 930.565, 690.250 927.306 C 709.251 921.382, 717.018 918.084, 717.990 915.525 C 718.468 914.270, 721.182 904.301, 724.023 893.372 C 731.043 866.362, 745.316 812.860, 748.933 800 C 750.557 794.225, 754.421 779.600, 757.521 767.500 C 760.620 755.400, 764.471 741.155, 766.078 735.844 C 767.685 730.533, 769 725.695, 769 725.094 C 769 722.719, 764.289 724.512, 760.500 728.328" fill="none" fill-rule="evenodd" stroke="#111" stroke-width="2.5" stroke-linejoin="round" stroke-linecap="round"/>
  <path d="M 335.825 737.378 C 332.703 737.995, 329.889 738.765, 329.570 739.088 C 329.251 739.411, 329.875 744.136, 330.955 749.588 C 332.036 755.040, 334.268 766.700, 335.915 775.500 C 337.563 784.300, 341.655 805.900, 345.010 823.500 C 348.365 841.100, 351.747 858.875, 352.527 863 C 355.292 877.637, 361.870 914.571, 362.537 919.208 C 363.321 924.655, 362.277 924.138, 382 928.853 C 398.546 932.809, 406.052 934.281, 406.646 933.687 C 407.124 933.209, 405.863 922.129, 397.972 857.500 C 394.659 830.361, 392.636 812.615, 387.207 763.044 L 386.500 756.587 380.500 755.356 C 368.526 752.901, 360.784 749.028, 350.392 740.293 C 344.952 735.721, 344.583 735.647, 335.825 737.378" fill="none" fill-rule="evenodd" stroke="#111" stroke-width="2.5" stroke-linejoin="round" stroke-linecap="round"/>
  <path d="M 685 743.583 C 678.312 749.071, 665.552 755.385, 657.728 757.079 C 653.220 758.054, 651.862 758.785, 651.528 760.414 C 651.091 762.549, 645.901 800.281, 641.613 832.500 C 640.296 842.400, 636.380 870.399, 632.911 894.719 C 629.442 919.039, 626.897 939.230, 627.254 939.587 C 628.413 940.746, 668.682 933.598, 670.436 931.923 C 670.950 931.431, 672.663 924.610, 674.243 916.764 C 681.767 879.387, 708.851 752.786, 710.603 746.805 C 710.988 745.493, 710.240 744.950, 707.300 744.405 C 704.076 743.808, 698.090 741.943, 692 739.638 C 691.106 739.299, 688.276 740.895, 685 743.583" fill="none" fill-rule="evenodd" stroke="#111" stroke-width="2.5" stroke-linejoin="round" stroke-linecap="round"/>
  <path d="M 422.500 749.620 C 413.716 752.986, 406.821 754.950, 401.788 755.521 C 391.630 756.673, 392.235 756.136, 393.107 763.227 C 393.531 766.677, 395.462 782.100, 397.397 797.500 C 399.333 812.900, 403.641 848.450, 406.971 876.500 C 410.301 904.550, 413.358 929.274, 413.763 931.443 L 414.500 935.385 421.500 936.690 C 431.302 938.516, 458.342 941.992, 458.843 941.490 C 459.475 940.859, 459.042 922.408, 457.975 904.500 C 457.010 888.281, 456.517 879.122, 452.996 812 C 451.914 791.375, 450.748 771.350, 450.405 767.500 L 449.780 760.500 439.501 754.250 C 433.848 750.813, 428.610 748.020, 427.861 748.044 C 427.112 748.068, 424.700 748.777, 422.500 749.620" fill="none" fill-rule="evenodd" stroke="#111" stroke-width="2.5" stroke-linejoin="round" stroke-linecap="round"/>
  <path d="M 599 754.107 C 594.875 756.824, 590.536 759.298, 589.358 759.605 C 586.811 760.268, 586.871 759.803, 583.972 801 C 582.869 816.675, 581.304 837.375, 580.495 847 C 579.686 856.625, 577.897 880.700, 576.520 900.500 C 575.143 920.300, 573.752 938.469, 573.428 940.875 L 572.840 945.250 580.170 944.645 C 584.201 944.313, 594.404 943.512, 602.842 942.865 C 616.897 941.788, 618.257 941.514, 619.049 939.595 C 619.525 938.443, 622.883 916.575, 626.511 891 C 630.139 865.425, 634.447 835.500, 636.084 824.500 C 637.721 813.500, 640.390 795.379, 642.016 784.232 C 643.641 773.085, 645.251 762.847, 645.594 761.482 C 646.183 759.135, 645.989 759, 642.025 759 C 636.676 759, 623.969 755.762, 614.397 751.959 C 610.300 750.332, 606.847 749.037, 606.724 749.083 C 606.601 749.129, 603.125 751.389, 599 754.107" fill="none" fill-rule="evenodd" stroke="#111" stroke-width="2.5" stroke-linejoin="round" stroke-linecap="round"/>
  <path d="M 504.722 758.429 C 499.526 760.951, 493.013 763.214, 488.762 763.973 C 480.458 765.457, 467.071 765.476, 462.007 764.011 C 454.899 761.954, 455.186 759.328, 458.025 800.500 C 461.319 848.281, 465.097 911.001, 466.277 937.500 L 466.500 942.500 476 943.253 C 497.105 944.927, 512.534 945.702, 513.127 945.118 C 514.068 944.190, 515.244 753.987, 514.308 754.084 C 513.864 754.130, 509.550 756.085, 504.722 758.429" fill="none" fill-rule="evenodd" stroke="#111" stroke-width="2.5" stroke-linejoin="round" stroke-linecap="round"/>
  <path d="M 521 849 C 521 901.250, 521 944.337, 521 944.750 C 521 945.163, 531.237 945.500, 543.750 945.500 L 566.500 945.500 568.206 921 C 570.256 891.540, 575.018 833.370, 578.663 793.244 C 580.125 777.153, 581.136 763.810, 580.910 763.592 C 580.685 763.375, 577.125 763.864, 573 764.678 C 558.816 767.477, 541.400 764.632, 528.404 757.395 C 525.051 755.528, 522.014 754, 521.654 754 C 521.294 754, 521 796.750, 521 849" fill="none" fill-rule="evenodd" stroke="#111" stroke-width="2.5" stroke-linejoin="round" stroke-linecap="round"/>
</g>

<g id="toolbar">
  <rect x="12" y="1018" width="1024" height="150" rx="18" fill="#1a1a2e" stroke="#0f3460" stroke-width="2"/>
  <rect class="swatch active" x="22"  y="1030" width="44" height="44" rx="8" fill="#e94560" onclick="setColor('#e94560',this)"/>
  <rect class="swatch" x="72"  y="1030" width="44" height="44" rx="8" fill="#ff7675" onclick="setColor('#ff7675',this)"/>
  <rect class="swatch" x="122" y="1030" width="44" height="44" rx="8" fill="#f5a623" onclick="setColor('#f5a623',this)"/>
  <rect class="swatch" x="172" y="1030" width="44" height="44" rx="8" fill="#fdcb6e" onclick="setColor('#fdcb6e',this)"/>
  <rect class="swatch" x="222" y="1030" width="44" height="44" rx="8" fill="#f7e94b" onclick="setColor('#f7e94b',this)"/>
  <rect class="swatch" x="272" y="1030" width="44" height="44" rx="8" fill="#a8e063" onclick="setColor('#a8e063',this)"/>
  <rect class="swatch" x="322" y="1030" width="44" height="44" rx="8" fill="#2ecc71" onclick="setColor('#2ecc71',this)"/>
  <rect class="swatch" x="372" y="1030" width="44" height="44" rx="8" fill="#1abc9c" onclick="setColor('#1abc9c',this)"/>
  <rect class="swatch" x="422" y="1030" width="44" height="44" rx="8" fill="#74b9ff" onclick="setColor('#74b9ff',this)"/>
  <rect class="swatch" x="472" y="1030" width="44" height="44" rx="8" fill="#0984e3" onclick="setColor('#0984e3',this)"/>
  <rect class="swatch" x="522" y="1030" width="44" height="44" rx="8" fill="#6c5ce7" onclick="setColor('#6c5ce7',this)"/>
  <rect class="swatch" x="572" y="1030" width="44" height="44" rx="8" fill="#a29bfe" onclick="setColor('#a29bfe',this)"/>
  <rect class="swatch" x="622" y="1030" width="44" height="44" rx="8" fill="#fd79a8" onclick="setColor('#fd79a8',this)"/>
  <rect class="swatch" x="672" y="1030" width="44" height="44" rx="8" fill="#e84393" onclick="setColor('#e84393',this)"/>
  <rect class="swatch" x="722" y="1030" width="44" height="44" rx="8" fill="#b8621f" onclick="setColor('#b8621f',this)"/>
  <rect class="swatch" x="772" y="1030" width="44" height="44" rx="8" fill="#f0c080" onclick="setColor('#f0c080',this)"/>
  <rect class="swatch" x="822" y="1030" width="44" height="44" rx="8" fill="#b2bec3" onclick="setColor('#b2bec3',this)"/>
  <rect class="swatch" x="872" y="1030" width="44" height="44" rx="8" fill="#636e72" onclick="setColor('#636e72',this)"/>
  <rect class="swatch" x="922" y="1030" width="44" height="44" rx="8" fill="#2d3436" onclick="setColor('#2d3436',this)"/>
  <rect class="swatch" x="972" y="1030" width="44" height="44" rx="8" fill="#ffffff" stroke="#888" stroke-width="1.5" onclick="setColor('#ffffff',this)"/>
  <rect class="swatch" x="22"  y="1082" width="44" height="44" rx="8" fill="#c0392b" onclick="setColor('#c0392b',this)"/>
  <rect class="swatch" x="72"  y="1082" width="44" height="44" rx="8" fill="#fab1a0" onclick="setColor('#fab1a0',this)"/>
  <rect class="swatch" x="122" y="1082" width="44" height="44" rx="8" fill="#e17055" onclick="setColor('#e17055',this)"/>
  <rect class="swatch" x="172" y="1082" width="44" height="44" rx="8" fill="#ffeaa7" onclick="setColor('#ffeaa7',this)"/>
  <rect class="swatch" x="222" y="1082" width="44" height="44" rx="8" fill="#55efc4" onclick="setColor('#55efc4',this)"/>
  <rect class="swatch" x="272" y="1082" width="44" height="44" rx="8" fill="#00b894" onclick="setColor('#00b894',this)"/>
  <rect class="swatch" x="322" y="1082" width="44" height="44" rx="8" fill="#81ecec" onclick="setColor('#81ecec',this)"/>
  <rect class="swatch" x="372" y="1082" width="44" height="44" rx="8" fill="#00cec9" onclick="setColor('#00cec9',this)"/>
  <rect class="swatch" x="422" y="1082" width="44" height="44" rx="8" fill="#0652DD" onclick="setColor('#0652DD',this)"/>
  <rect class="swatch" x="472" y="1082" width="44" height="44" rx="8" fill="#d6a2e8" onclick="setColor('#d6a2e8',this)"/>
  <rect class="swatch" x="522" y="1082" width="44" height="44" rx="8" fill="#6d214f" onclick="setColor('#6d214f',this)"/>
  <rect class="swatch" x="572" y="1082" width="44" height="44" rx="8" fill="#ff6b81" onclick="setColor('#ff6b81',this)"/>
  <rect class="swatch" x="622" y="1082" width="44" height="44" rx="8" fill="#6d4c41" onclick="setColor('#6d4c41',this)"/>
  <rect class="swatch" x="672" y="1082" width="44" height="44" rx="8" fill="#f5cba7" onclick="setColor('#f5cba7',this)"/>
  <rect class="swatch" x="722" y="1082" width="44" height="44" rx="8" fill="#55713f" onclick="setColor('#55713f',this)"/>
  <rect class="swatch" x="772" y="1082" width="44" height="44" rx="8" fill="#27ae60" onclick="setColor('#27ae60',this)"/>
  <rect class="swatch" x="822" y="1082" width="44" height="44" rx="8" fill="#f8c8d4" onclick="setColor('#f8c8d4',this)"/>
  <rect x="872" y="1082" width="58" height="20" rx="7" fill="#0f3460" stroke="#555" stroke-width="1.5" onclick="undo()" style="cursor:pointer"/>
  <text x="901" y="1096" font-family="sans-serif" font-size="11" fill="#eee" text-anchor="middle" pointer-events="none">&#8617; تراجع</text>
  <rect x="872" y="1106" width="58" height="20" rx="7" fill="#0f3460" stroke="#555" stroke-width="1.5" onclick="clearAll()" style="cursor:pointer"/>
  <text x="901" y="1120" font-family="sans-serif" font-size="11" fill="#eee" text-anchor="middle" pointer-events="none">مسح كل</text>
  <rect id="eraserBtn" x="936" y="1082" width="100" height="44" rx="8" fill="#0f3460" stroke="#444" stroke-width="1.5" onclick="toggleEraser()" style="cursor:pointer"/>
  <text x="986" y="1109" font-family="sans-serif" font-size="13" fill="#eee" text-anchor="middle" pointer-events="none">&#129529; ممحاة</text>
  <text x="82" y="1025" font-family="sans-serif" font-size="11" fill="#aaa" text-anchor="middle">شفافية</text>
  <rect x="22" y="1010" width="120" height="12" rx="6" fill="#2d3436"/>
  <rect id="opBar" x="22" y="1010" width="96" height="12" rx="6" fill="#e94560"/>
  <rect x="22" y="1008" width="120" height="16" rx="6" fill="transparent"
    onmousedown="startSlide(event)" onmousemove="slideMove(event)" onmouseup="endSlide()"
    ontouchstart="startSlide(event)" ontouchmove="slideMove(event)" ontouchend="endSlide()"/>
  <text id="opLabel" x="155" y="1020" font-family="sans-serif" font-size="11" fill="#ccc">80%</text>
</g>
<script type="text/javascript"><![CDATA[

  var activeColor = '#e94560';
  var opacity = 0.8;
  var eraseMode = false;
  var history = [];
  var sliding = false;

  function setColor(c, el) {
    activeColor = c; eraseMode = false;
    document.querySelectorAll('.swatch').forEach(function(s){ s.classList.remove('active'); });
    el.classList.add('active');
    document.getElementById('eraserBtn').setAttribute('fill','#0f3460');
    document.getElementById('eraserBtn').setAttribute('stroke','#444');
  }
  function toggleEraser() {
    eraseMode = !eraseMode;
    var el = document.getElementById('eraserBtn');
    el.setAttribute('fill', eraseMode ? '#fff0f0' : '#0f3460');
    el.setAttribute('stroke', eraseMode ? '#e94560' : '#444');
  }
  function fillRegion(el) {
    history.push({ el:el, fill:el.getAttribute('fill'), op:el.getAttribute('fill-opacity') });
    if (eraseMode) {
      el.setAttribute('fill','white'); el.setAttribute('fill-opacity','1');
    } else {
      el.setAttribute('fill', activeColor); el.setAttribute('fill-opacity', opacity);
    }
  }
  function undo() {
    if (!history.length) return;
    var last = history.pop();
    last.el.setAttribute('fill', last.fill || 'white');
    last.el.setAttribute('fill-opacity', last.op || '1');
  }
  function clearAll() {
    document.querySelectorAll('.region').forEach(function(r){
      r.setAttribute('fill','white'); r.setAttribute('fill-opacity','1');
    });
    history = [];
  }
  function startSlide(evt) { sliding = true; slideMove(evt); }
  function endSlide() { sliding = false; }
  function slideMove(evt) {
    if (!sliding) return;
    var svg = evt.target.ownerSVGElement;
    var pt = svg.createSVGPoint();
    pt.x = evt.clientX; pt.y = evt.clientY;
    var sp = pt.matrixTransform(svg.getScreenCTM().inverse());
    var pct = Math.max(0, Math.min(1, (sp.x - 22) / 120));
    opacity = pct;
    document.getElementById('opBar').setAttribute('width', Math.round(pct * 120));
    document.getElementById('opLabel').textContent = Math.round(pct * 100) + '%';
  }

]]></script>
</svg>