<svg xmlns="http://www.w3.org/2000/svg" width="1024" height="1024" viewBox="0 0 1024 1024">
<defs>
  <style>
    .region { cursor: pointer; transition: opacity 0.1s; }
    .region:hover { opacity: 0.75; stroke: #e94560 !important; stroke-width: 2 !important; }
    .swatch { cursor: pointer; stroke: transparent; stroke-width: 3; }
    .swatch:hover { stroke: #fff; }
    .swatch.active { stroke: #fff; stroke-width: 3; }
    #eraser.active { stroke: #e94560; stroke-width: 3; fill: #fff0f0; }
    #undoBtn:hover { opacity:0.8; }
    #clearBtn:hover { opacity:0.8; }
  </style>
</defs>

<!-- White background for drawing area -->
<rect x="0" y="0" width="1024" height="830" fill="white"/>

<!-- ── Drawing Regions ── -->
  <path id="r0" class="region" d="M 819.500 81.025 C 805.081 83.928, 789.638 92.525, 779.176 103.474 C 766.214 117.040, 761.042 129.361, 760.262 148.533 C 759.677 162.920, 761.010 169.394, 767.151 182 C 772.867 193.732, 786.666 207.654, 798.713 213.844 C 817.315 223.400, 839.783 225.254, 859.914 218.894 C 884.491 211.129, 904.097 190.799, 909.574 167.400 C 911.441 159.425, 911.681 143.779, 910.049 136.500 C 906.852 122.242, 897.591 107.135, 886.264 97.697 C 878.910 91.570, 864.742 84.544, 854.590 81.990 C 846.241 79.890, 827.674 79.379, 819.500 81.025" fill="none" fill-rule="evenodd" stroke="#222" stroke-width="0.8" onclick="fill(this)" />
  <path id="r1" class="region" d="M 820.293 94.443 C 787.510 101.909, 766.874 133.789, 774.879 164.601 C 781.217 188.998, 800.556 205.156, 828.172 209.130 C 836.008 210.258, 837.852 210.179, 847.306 208.315 C 862.459 205.326, 871.525 200.700, 881.034 191.103 C 892.955 179.072, 898 167.295, 898 151.500 C 898 125.762, 882.367 105.498, 855.004 95.766 C 847.696 93.166, 829.024 92.455, 820.293 94.443" fill="none" fill-rule="evenodd" stroke="#222" stroke-width="0.8" onclick="fill(this)" />
  <path id="r3" class="region" d="M 440 213.436 C 411.944 218.467, 386.731 228.861, 366.455 243.756 C 354.743 252.360, 339.137 268.213, 331 279.772 C 318.029 298.199, 308.106 321.606, 304.449 342.406 L 302.708 352.312 290.104 364.933 C 273.768 381.291, 266.941 392.473, 260.760 413 C 257.951 422.329, 257.229 444.073, 259.419 453.396 L 261.039 460.292 253.854 471.084 L 246.669 481.876 241.720 474.688 C 225.245 450.763, 200.348 428.035, 178.191 416.693 C 158.493 406.609, 143.357 402.668, 124.500 402.713 C 109.178 402.750, 99.957 404.813, 88.705 410.722 C 68.359 421.407, 57.042 441.152, 57.022 466 C 57.005 486.085, 65.106 507.318, 80.930 528.665 C 83.444 532.055, 90.128 540.277, 95.783 546.935 C 112.570 566.697, 118.083 576.615, 118.134 587.143 C 118.180 596.768, 116.255 600.934, 102.322 621.370 C 92.614 635.608, 86.040 648.030, 81.879 660 C 78.763 668.962, 78.573 670.293, 78.538 683.500 L 78.500 697.500 82.439 705.818 C 86.675 714.761, 94.384 723.115, 101.976 726.988 C 116.965 734.634, 139.913 734.969, 161.500 727.857 C 178.691 722.193, 200.892 707.840, 218.346 691.105 C 230.586 679.370, 246.865 657.784, 254.529 643.127 C 256.003 640.307, 257.500 638.009, 257.855 638.021 C 258.210 638.032, 262.550 641.692, 267.500 646.155 C 272.450 650.617, 279.550 656.712, 283.278 659.699 L 290.056 665.130 285.778 669.606 C 274.411 681.500, 269.860 691.831, 269.225 707.183 C 268.693 720.061, 270.701 727.596, 277.446 738.022 C 300.446 773.577, 350.744 780.727, 389.479 753.949 C 393.557 751.130, 400.535 745.031, 404.985 740.395 L 413.077 731.967 418.289 733.431 C 421.155 734.236, 427.446 735.657, 432.269 736.588 L 441.038 738.281 440.269 741.891 C 439.846 743.876, 439.563 749.109, 439.641 753.520 C 440.039 776.274, 459.833 798.202, 487.027 806.017 C 498.405 809.286, 514.982 809.750, 526.801 807.129 C 561.603 799.411, 585.668 774.988, 595.558 737.350 C 595.725 736.717, 597.805 735.889, 600.180 735.510 C 602.556 735.130, 609.900 733.478, 616.500 731.837 C 669.552 718.651, 707.654 700.824, 742.538 672.866 C 777.457 644.880, 798.412 612.149, 807.112 572 C 809.053 563.042, 809.387 558.562, 809.388 541.500 C 809.388 523.501, 809.118 520.249, 806.681 509 C 797.849 468.227, 780.331 436.494, 749.500 405.422 C 718.200 373.877, 681.812 352.038, 635.449 336.971 L 625.397 333.705 621.567 323.602 C 606.403 283.605, 580.218 251.466, 547.397 232.567 C 534.977 225.415, 521.845 220.108, 507 216.241 C 493.738 212.786, 493.095 212.718, 470.500 212.408 C 454.351 212.186, 445.266 212.492, 440 213.436" fill="none" fill-rule="evenodd" stroke="#222" stroke-width="0.8" onclick="fill(this)" />
  <path id="r4" class="region" d="M 441.500 229.079 C 428.677 231.262, 411.457 236.528, 401.500 241.311 L 394.500 244.674 398.500 245.976 C 400.700 246.692, 405.989 249.021, 410.253 251.152 C 440.160 266.095, 463.666 288.208, 480.251 317 C 484.359 324.132, 486.194 326.449, 487.611 326.296 C 488.650 326.183, 498.725 325.339, 510 324.420 C 521.275 323.500, 530.605 322.663, 530.733 322.558 C 530.861 322.453, 529.664 319.022, 528.073 314.933 C 520.147 294.568, 504.732 270.800, 488.644 254.137 C 478.635 243.772, 456.612 226.804, 453.554 227.103 C 452.974 227.160, 447.550 228.049, 441.500 229.079" fill="none" fill-rule="evenodd" stroke="#222" stroke-width="0.8" onclick="fill(this)" />
  <path id="r5" class="region" d="M 464.500 229.731 C 480.091 238.689, 490.711 246.843, 501.500 258.137 C 518.426 275.856, 533.219 299.089, 539.374 317.619 L 541.061 322.699 554.780 323.380 C 572.293 324.250, 585.050 325.662, 596.947 328.046 C 602.142 329.088, 606.517 329.817, 606.667 329.666 C 606.818 329.515, 605.668 326.266, 604.113 322.446 C 584.218 273.585, 544.901 239.608, 497 229.879 C 491.775 228.818, 481.200 227.704, 473.500 227.404 L 459.500 226.858 464.500 229.731" fill="none" fill-rule="evenodd" stroke="#222" stroke-width="0.8" onclick="fill(this)" />
  <path id="r6" class="region" d="M 738.223 229.552 C 735.321 230.333, 730.580 232.486, 727.688 234.336 C 718.424 240.263, 713.777 247.431, 711.826 258.806 C 710.284 267.800, 712.368 277.080, 717.659 284.782 C 722.149 291.319, 725.335 294.040, 732.728 297.659 C 738.015 300.246, 739.425 300.481, 749.500 300.453 C 759.552 300.425, 760.990 300.177, 766.184 297.581 C 784.110 288.621, 792.373 267.849, 784.712 251 C 776.701 233.382, 757.280 224.422, 738.223 229.552" fill="none" fill-rule="evenodd" stroke="#222" stroke-width="0.8" onclick="fill(this)" />
  <path id="r7" class="region" d="M 740.346 239.433 C 731.577 242.176, 725.083 248.752, 722.426 257.578 C 720.618 263.586, 720.637 265.415, 722.575 271.942 C 728.243 291.028, 754.154 297.239, 769.376 283.160 C 776.574 276.503, 779.290 262.410, 774.997 253.995 C 768.701 241.654, 753.573 235.296, 740.346 239.433" fill="none" fill-rule="evenodd" stroke="#222" stroke-width="0.8" onclick="fill(this)" />
  <path id="r8" class="region" d="M 382.279 251.825 C 371.593 259.201, 359.868 269.104, 355.483 274.455 C 353.567 276.793, 352 278.947, 352 279.242 C 352 279.536, 353.688 280.081, 355.750 280.452 C 369.522 282.928, 389.012 291.251, 402.466 300.402 C 413.153 307.670, 428.232 321.810, 434.720 330.646 C 437.808 334.851, 439.920 336.855, 440.947 336.552 C 445.280 335.274, 463.271 330.998, 468.750 329.943 C 472.188 329.281, 475 328.226, 475 327.599 C 475 326.007, 466.496 311.620, 461.642 305 C 449.421 288.332, 436.883 275.958, 418.558 262.479 C 411.054 256.960, 392.609 245.913, 391.166 246.075 C 390.800 246.116, 386.801 248.703, 382.279 251.825" fill="none" fill-rule="evenodd" stroke="#222" stroke-width="0.8" onclick="fill(this)" />
  <path id="r10" class="region" d="M 852.177 280.029 C 841.657 282.784, 833.343 287.214, 825.637 294.169 C 813.351 305.258, 807.009 318.312, 806.223 334.132 C 805.928 340.070, 806.226 345.823, 807 349.132 C 810.882 365.715, 823.573 381.405, 839.077 388.785 C 850.007 393.989, 856.368 395.450, 868 395.428 C 883.433 395.398, 896.207 390.953, 908.202 381.438 C 935.331 359.916, 937.294 321.262, 912.516 296.484 C 897.035 281.004, 873.234 274.513, 852.177 280.029" fill="none" fill-rule="evenodd" stroke="#222" stroke-width="0.8" onclick="fill(this)" />
  <path id="r11" class="region" d="M 346.501 284.781 C 341.080 292.154, 335.583 301.270, 331.626 309.451 C 324.737 323.693, 324.385 322.443, 335.699 323.923 C 341.046 324.623, 348.181 326.048, 351.555 327.090 C 365.367 331.356, 380.740 339.935, 389.863 348.469 L 394.588 352.889 404.044 349.095 C 409.245 347.009, 417.211 343.997, 421.747 342.401 C 426.283 340.806, 429.883 339.164, 429.747 338.754 C 429.611 338.344, 426.575 334.587, 423 330.406 C 407.270 312.011, 377.312 291.170, 356.093 283.862 C 349.209 281.491, 348.899 281.521, 346.501 284.781" fill="none" fill-rule="evenodd" stroke="#222" stroke-width="0.8" onclick="fill(this)" />
  <path id="r12" class="region" d="M 854.500 291.800 C 834.860 297.672, 822.294 311.181, 818.922 330.049 C 813.999 357.597, 837.456 383.346, 867.500 383.375 C 887.485 383.394, 905.487 372.752, 913.272 356.315 C 916.351 349.814, 916.500 348.947, 916.500 337.500 C 916.500 325.692, 916.441 325.380, 912.813 318 C 910.785 313.875, 908.059 309.339, 906.756 307.919 C 901.544 302.241, 893 296.212, 886.430 293.576 C 877.251 289.893, 863.448 289.125, 854.500 291.800" fill="none" fill-rule="evenodd" stroke="#222" stroke-width="0.8" onclick="fill(this)" />
  <path id="r14" class="region" d="M 323.901 327.750 C 322.473 331.490, 319.277 345.374, 318.433 351.500 C 317.624 357.375, 316.664 359.526, 313.191 363.250 L 310.626 366 318.153 366 C 327.727 366, 339.229 368.929, 345.988 373.088 C 350.138 375.641, 351.600 376.096, 352.878 375.231 C 357.017 372.430, 370.294 364.843, 377.804 360.986 L 386.107 356.721 383.304 353.790 C 374.658 344.750, 349.828 331.622, 331.846 326.584 C 324.692 324.580, 325.136 324.514, 323.901 327.750" fill="none" fill-rule="evenodd" stroke="#222" stroke-width="0.8" onclick="fill(this)" />
  <path id="r15" class="region" d="M 522.500 338.599 C 519.750 338.811, 510.750 339.693, 502.500 340.558 C 488.670 342.007, 486.876 342.436, 479.500 346.047 C 464.561 353.361, 442.855 370.605, 429.838 385.500 C 406.571 412.123, 391.486 447.605, 386.899 486.495 C 386.144 492.899, 385.940 503.450, 386.329 515.984 C 387.464 552.548, 395.021 580.694, 412.273 612.601 C 421.517 629.700, 438.210 650.714, 453.358 664.323 C 486.929 694.482, 522.452 712.263, 564.793 720.102 C 584.162 723.687, 583.470 723.740, 613 716.432 C 654.545 706.151, 685.881 692.939, 715.133 673.372 C 755.830 646.148, 779.699 614.888, 790.114 575.173 C 792.731 565.190, 793.254 561.094, 793.722 546.883 C 794.073 536.217, 793.834 527.263, 793.056 521.883 C 788.691 491.723, 773.521 457.534, 753.172 432 C 739.331 414.632, 714.313 393.208, 690.975 378.739 C 681.865 373.091, 655.692 360.514, 644 356.166 C 624.188 348.799, 596.705 342.426, 574.500 340.050 C 563.691 338.894, 530.625 337.971, 522.500 338.599" fill="none" fill-rule="evenodd" stroke="#222" stroke-width="0.8" onclick="fill(this)" />
  <path id="r16" class="region" d="M 450.500 349.947 C 417.985 358.632, 388.051 371.291, 364.820 386.181 C 355.204 392.343, 351.095 396.865, 346.654 406.167 C 342.172 415.557, 340.548 423.980, 341.311 433.876 C 342.259 446.164, 347.084 454.961, 355.126 459.064 C 359.082 461.082, 360.179 463.859, 357.750 465.705 C 357.063 466.228, 354.361 467.446, 351.746 468.412 C 345.070 470.879, 336.335 479.897, 331.676 489.134 C 325.042 502.288, 323.358 517.259, 326.938 531.259 C 330.346 544.583, 337.217 554.809, 345.601 559.032 C 351.073 561.789, 354 563.909, 354 565.116 C 354 565.559, 351.171 568.751, 347.714 572.211 C 333.463 586.470, 330.550 604.229, 338.981 625.452 C 343.031 635.646, 344.748 638.193, 346.852 637.122 C 349.806 635.618, 364.095 632.189, 385 627.967 C 396.275 625.691, 405.691 623.638, 405.924 623.407 C 406.157 623.176, 404.273 619.052, 401.738 614.243 C 391.351 594.538, 384.313 574.415, 379.443 550.500 C 376.241 534.777, 374.987 503.811, 376.888 487.422 C 381.654 446.335, 396.368 411.233, 420.261 383.951 C 430.877 371.829, 449.365 356.227, 460.750 349.781 C 469.227 344.982, 469.075 344.985, 450.500 349.947" fill="none" fill-rule="evenodd" stroke="#222" stroke-width="0.8" onclick="fill(this)" />
  <path id="r17" class="region" d="M 302.090 374.577 C 295.350 380.817, 288.925 388.749, 284.664 396.088 C 283.199 398.611, 282 400.868, 282 401.104 C 282 401.339, 286.837 401.372, 292.750 401.176 C 301.412 400.890, 304.466 401.182, 308.473 402.682 L 313.447 404.543 324.473 395.707 C 330.538 390.847, 337.412 385.662, 339.748 384.185 C 342.085 382.708, 343.997 381.258, 343.998 380.961 C 343.999 380.665, 341.637 379.013, 338.750 377.290 C 332.563 373.597, 322.531 370.386, 314.263 369.450 L 308.350 368.781 302.090 374.577" fill="none" fill-rule="evenodd" stroke="#222" stroke-width="0.8" onclick="fill(this)" />
  <path id="r18" class="region" d="M 278.959 408.080 C 275.957 413.964, 273.047 428.263, 273.022 437.250 C 273.010 441.512, 273.216 445, 273.479 445 C 273.743 445, 275.869 442.863, 278.204 440.250 C 280.539 437.637, 288.204 429.624, 295.238 422.441 L 308.026 409.383 304.305 407.608 C 301.323 406.186, 288.574 404.109, 282.270 404.018 C 281.594 404.008, 280.104 405.836, 278.959 408.080" fill="none" fill-rule="evenodd" stroke="#222" stroke-width="0.8" onclick="fill(this)" />
  <path id="r19" class="region" d="M 330 410.680 C 312.063 425.480, 288.219 450.455, 274.321 469 C 257.011 492.098, 241.200 525.995, 238.002 546.865 C 235.490 563.253, 238.531 581.344, 246.383 596.737 C 254.178 612.018, 277.061 635.927, 298.692 651.392 L 303.885 655.105 311.692 650.680 C 315.987 648.247, 323.100 644.778, 327.500 642.973 C 331.900 641.167, 335.650 639.572, 335.833 639.428 C 336.017 639.284, 334.314 636.095, 332.050 632.342 C 327.158 624.230, 325.146 617.978, 324.378 608.500 C 323.236 594.388, 327.742 580.467, 336.473 571.132 L 341.077 566.211 337.702 564.125 C 332.299 560.786, 324.447 551.829, 321.086 545.171 C 312.344 527.852, 312.946 503.314, 322.562 485.013 C 326.487 477.544, 335.948 467.096, 341.210 464.419 C 343.020 463.499, 344.668 462.597, 344.873 462.416 C 345.078 462.235, 343.437 460.031, 341.225 457.519 C 336.498 452.148, 334.611 448.445, 332.529 440.450 C 330.018 430.809, 331.057 417.924, 335.006 409.752 C 336.003 407.688, 336.522 406.032, 336.159 406.071 C 335.797 406.110, 333.025 408.185, 330 410.680" fill="none" fill-rule="evenodd" stroke="#222" stroke-width="0.8" onclick="fill(this)" />
  <path id="r20" class="region" d="M 699.095 409.813 C 695.769 410.826, 694.197 413.502, 695.609 415.750 C 696.461 417.107, 698.594 417.623, 705.104 418.049 C 715.245 418.711, 720.229 420.778, 728.706 427.834 C 735.615 433.585, 737 434.063, 737 430.700 C 737 424.807, 726.169 414.090, 717.500 411.406 C 711.580 409.574, 702.472 408.785, 699.095 409.813" fill="none" fill-rule="evenodd" stroke="#222" stroke-width="0.8" onclick="fill(this)" />
  <path id="r21" class="region" d="M 109 419.519 C 100.639 421.822, 91.056 426.868, 85.921 431.671 C 76.244 440.723, 70.886 457.432, 72.830 472.496 C 75.535 493.453, 83.789 508.824, 107.264 536.622 C 130.058 563.615, 133.383 570.077, 133.436 587.500 C 133.468 598.084, 133.334 598.783, 129.892 606 C 127.925 610.125, 122.029 620.025, 116.790 628 C 105.178 645.676, 102.003 651.307, 98.173 661.014 C 90.603 680.201, 92.363 697.561, 102.916 707.803 C 113.382 717.960, 128.904 720.324, 149.605 714.914 C 176.213 707.961, 207.721 684.059, 227.897 655.523 C 233.687 647.334, 241.492 634.375, 244.541 627.888 L 246.239 624.276 240.450 615.888 C 237.266 611.275, 234.317 607.103, 233.897 606.617 C 233.477 606.131, 229.048 609.480, 224.055 614.059 C 198.530 637.466, 168.400 654.133, 138.193 661.552 C 124.207 664.988, 122.657 663.363, 135.684 658.922 C 161.525 650.114, 196.563 628.092, 220.268 605.760 L 229.035 597.500 226.405 589.500 C 224.958 585.100, 223.615 580.938, 223.419 580.252 C 223.155 579.323, 221.713 579.540, 217.782 581.099 C 198 588.946, 171.976 593.696, 155.729 592.425 C 145.073 591.591, 144.490 589.788, 154.581 588.870 C 169.798 587.486, 192.372 581.620, 210.808 574.260 C 219.240 570.894, 221.974 569.375, 221.558 568.291 C 221.251 567.491, 221 563.929, 221 560.376 L 221 553.916 214.250 550.876 C 192.620 541.132, 164.291 534.379, 141 533.415 C 126.523 532.815, 122 532.251, 122 531.045 C 122 530.570, 125.226 529.637, 129.169 528.971 C 139.038 527.307, 162.585 528.247, 177.431 530.897 C 190.234 533.184, 210.786 539.592, 217.689 543.450 C 221.452 545.553, 221.973 545.632, 222.370 544.158 C 223.395 540.349, 226.474 527.455, 226.486 526.918 C 226.517 525.590, 213.728 515.312, 202.981 508.028 C 182.708 494.288, 162.583 484.646, 138.500 477.136 C 124.984 472.921, 107.437 469, 102.093 469 C 100.392 469, 99 468.486, 99 467.858 C 99 467.028, 102.024 466.907, 110.049 467.415 C 138.881 469.239, 165.104 476.519, 189 489.335 C 198.419 494.386, 218.167 507.634, 224.221 512.964 C 226.743 515.184, 229.091 517, 229.439 517 C 229.787 517, 230.895 515.087, 231.903 512.750 C 232.910 510.413, 234.714 506.426, 235.911 503.891 L 238.087 499.283 234.890 493.391 C 228.941 482.430, 221.543 472.541, 211.589 462.241 C 191.382 441.334, 170.944 428.184, 148 421.324 C 137.109 418.068, 117.555 417.163, 109 419.519" fill="none" fill-rule="evenodd" stroke="#222" stroke-width="0.8" onclick="fill(this)" />
  <path id="r22" class="region" d="M 503.163 421.072 C 497.664 422.154, 486.862 428.164, 481.449 433.154 C 476.660 437.568, 470.715 448.012, 471.183 451.188 C 471.633 454.249, 473.603 454.523, 475.702 451.817 C 486 438.544, 499.525 430.181, 512.500 429.065 C 520.713 428.358, 522 427.728, 522 424.416 C 522 420.255, 514.282 418.885, 503.163 421.072" fill="none" fill-rule="evenodd" stroke="#222" stroke-width="0.8" onclick="fill(this)" />
  <path id="r23" class="region" d="M 859.326 428.997 C 842.285 432.559, 833.385 450.941, 841.496 465.824 C 846.616 475.216, 855.013 480.001, 866.376 479.999 C 882.381 479.997, 894.230 467.403, 892.552 452.176 C 890.821 436.471, 875.317 425.655, 859.326 428.997" fill="none" fill-rule="evenodd" stroke="#222" stroke-width="0.8" onclick="fill(this)" />
  <path id="r24" class="region" d="M 857.280 439.548 C 854.468 440.949, 851.388 443.285, 850.435 444.739 C 846.436 450.843, 846.735 458.851, 851.175 464.495 C 853.485 467.433, 862.179 471.978, 865.500 471.985 C 872.718 472, 881.018 466.506, 883.041 460.375 C 886.729 449.202, 876.922 437, 864.254 437 C 863.230 437, 860.092 438.146, 857.280 439.548" fill="none" fill-rule="evenodd" stroke="#222" stroke-width="0.8" onclick="fill(this)" />
  <path id="r26" class="region" d="M 706.796 448.344 C 689.575 454.800, 680 470.522, 680 492.345 C 680 503.366, 681.370 509.764, 685.669 518.822 C 689.696 527.306, 694.630 532.658, 701.577 536.077 C 705.620 538.067, 708.023 538.500, 715.025 538.498 C 722.923 538.497, 723.917 538.260, 728.525 535.285 C 739.708 528.064, 745.964 514.871, 745.988 498.460 C 746.008 485.278, 742.042 473.236, 734.886 464.750 C 732.683 462.137, 731.253 460, 731.708 460 C 732.162 460, 734.964 462.125, 737.933 464.722 C 753.981 478.761, 759.701 501.804, 752.522 523.500 C 749.915 531.380, 748.836 533.215, 743.852 538.250 C 740.722 541.413, 738.731 544, 739.430 544 C 742.780 544, 756.697 530.937, 755.467 528.947 C 755.137 528.412, 755.964 525.618, 757.306 522.738 C 769.563 496.426, 758.648 463.403, 733.638 451.132 C 727.976 448.353, 725.354 447.694, 718.638 447.360 C 713.225 447.091, 709.260 447.421, 706.796 448.344" fill="none" fill-rule="evenodd" stroke="#222" stroke-width="0.8" onclick="fill(this)" />
  <path id="r27" class="region" d="M 512.500 463.041 C 493.375 465.857, 476.402 480.118, 469.831 498.894 C 467.265 506.226, 466.347 521.001, 467.950 529.151 C 469.988 539.509, 478.244 553.470, 487.019 561.398 C 491.025 565.018, 500.091 569.969, 502.750 569.990 C 505.355 570.011, 503.827 568.432, 499.532 566.666 C 496.753 565.523, 492.826 562.431, 489.113 558.462 C 469.669 537.676, 469.475 507.190, 488.652 485.963 C 493.111 481.028, 494.750 480.805, 491.514 485.575 C 485.137 494.971, 482.338 511.875, 484.956 525.180 C 489.659 549.087, 510.842 565.242, 532.022 561.075 C 554.458 556.662, 568.022 539.293, 567.988 515.022 C 567.967 500.098, 563.481 488.727, 553.393 478.034 C 542.149 466.114, 527.674 460.807, 512.500 463.041" fill="none" fill-rule="evenodd" stroke="#222" stroke-width="0.8" onclick="fill(this)" />
  <path id="r28" class="region" d="M 701.881 465.503 C 693.435 470.093, 695.418 484.247, 704.906 487.090 C 714.099 489.844, 722.027 479.755, 717.520 471.039 C 714.224 464.665, 707.684 462.350, 701.881 465.503" fill="none" fill-rule="evenodd" stroke="#222" stroke-width="0.8" onclick="fill(this)" />
  <path id="r29" class="region" d="M 528.397 479.652 C 527.241 479.899, 524.828 481.614, 523.034 483.465 C 516.850 489.845, 518.288 499.082, 526.241 504.057 C 534.049 508.941, 544.097 502.550, 544.247 492.603 C 544.378 483.971, 536.879 477.843, 528.397 479.652" fill="none" fill-rule="evenodd" stroke="#222" stroke-width="0.8" onclick="fill(this)" />
  <path id="r31" class="region" d="M 671.494 539.006 C 670.496 540.110, 669.864 541.122, 670.089 541.256 C 670.315 541.390, 671.318 541.950, 672.317 542.500 C 673.316 543.050, 674.842 544.669, 675.707 546.099 C 681.359 555.437, 664.754 570.107, 642.938 575.050 C 635.213 576.800, 631.504 577.092, 622.500 576.656 C 601.880 575.658, 578.045 567.326, 577.985 561.095 C 577.976 560.218, 579.851 557.881, 582.150 555.903 C 586.803 551.901, 586.943 549, 582.482 549 C 576.137 549, 568.603 556.798, 567.437 564.572 C 566.501 570.814, 567.753 572.058, 571.027 568.137 L 573.715 564.917 575.203 567.208 C 576.022 568.469, 576.989 572.445, 577.353 576.045 C 579.767 599.948, 593.469 623.181, 609.612 630.742 C 614.817 633.180, 616.660 633.499, 625.500 633.488 C 634.570 633.477, 636.107 633.190, 642.030 630.400 C 649.934 626.678, 654.934 622.429, 660.646 614.582 C 668.410 603.915, 674 586.959, 674 574.072 C 674 569.092, 674.437 567.727, 677.099 564.388 C 681.757 558.546, 684 553.541, 684 548.990 C 684 539.645, 676.404 533.581, 671.494 539.006" fill="none" fill-rule="evenodd" stroke="#222" stroke-width="0.8" onclick="fill(this)" />
  <path id="r32" class="region" d="M 608.659 600.033 C 600.674 602.379, 596 604.621, 596 606.105 C 596 608.762, 606.354 618.849, 612.149 621.838 C 624.691 628.306, 639.514 625.094, 649.428 613.761 C 654.972 607.423, 654.493 606.061, 645.182 601.704 C 639.131 598.873, 637.494 598.567, 627.016 598.308 C 617.807 598.081, 614.130 598.426, 608.659 600.033" fill="none" fill-rule="evenodd" stroke="#222" stroke-width="0.8" onclick="fill(this)" />
  <path id="r33" class="region" d="M 400.500 632.057 C 392.617 636.349, 379.550 641.333, 364 645.978 C 344.202 651.893, 333.240 656.059, 322.876 661.606 C 304.940 671.205, 293.615 681.305, 287.875 692.823 C 284.851 698.891, 284.545 700.326, 284.524 708.548 C 284.502 716.987, 284.749 718.099, 288.188 725.048 C 292.257 733.272, 297.732 739.410, 305.823 744.821 C 309.629 747.365, 311.359 748.036, 311.892 747.174 C 312.303 746.510, 316.241 744.448, 320.645 742.591 C 349.766 730.309, 380.749 705.241, 402.638 676.250 C 405.649 672.263, 408.517 669, 409.012 669 C 409.999 669, 408.103 674.967, 405.541 679.920 C 397.815 694.861, 379.447 714.638, 363.500 725.184 C 350.186 733.990, 341.025 738.493, 326 743.616 C 319.125 745.960, 313.562 748.243, 313.638 748.689 C 313.893 750.195, 327.937 753.948, 335.753 754.600 C 345.181 755.386, 355.733 753.436, 366.256 748.962 C 383.363 741.688, 396.188 730.187, 408.562 711.023 C 413.767 702.963, 425.038 681.471, 428.110 673.750 C 429.150 671.138, 430.870 666.808, 431.934 664.130 L 433.869 659.259 427.184 651.316 C 423.508 646.947, 418.067 639.914, 415.094 635.686 C 412.121 631.459, 409.196 628.055, 408.594 628.123 C 407.992 628.191, 404.350 629.961, 400.500 632.057" fill="none" fill-rule="evenodd" stroke="#222" stroke-width="0.8" onclick="fill(this)" />
  <path id="r34" class="region" d="M 389.844 657.780 C 369.461 673.112, 347.511 686.059, 326.858 694.934 C 317.056 699.146, 310.322 701.331, 288.500 707.382 C 287.400 707.687, 291 707.738, 296.500 707.496 C 315.410 706.664, 338.333 699.322, 358.915 687.505 C 378.049 676.520, 391.002 666.214, 398.481 656.026 C 404.746 647.492, 403.069 647.832, 389.844 657.780" fill="none" fill-rule="evenodd" stroke="#222" stroke-width="0.8" onclick="fill(this)" />
  <path id="r35" class="region" d="M 437 667.542 C 437 677.787, 432.590 693.483, 425.377 708.906 C 422.958 714.080, 421.096 718.379, 421.239 718.460 C 421.383 718.541, 428.025 719.842, 436 721.351 C 476.306 728.979, 519.292 730.762, 556.617 726.354 L 562.500 725.659 549 722.952 C 521.530 717.444, 497.104 707.553, 474.012 692.586 C 464.722 686.565, 450.120 674.823, 443.538 668.082 C 440.808 665.287, 438.221 663, 437.788 663 C 437.354 663, 437 665.044, 437 667.542" fill="none" fill-rule="evenodd" stroke="#222" stroke-width="0.8" onclick="fill(this)" />
  <path id="r36" class="region" d="M 567.500 740.173 C 564.200 740.677, 559.547 741.407, 557.160 741.795 L 552.821 742.500 549.910 751 C 544.775 765.997, 540.465 772.793, 528.803 784.283 C 519.111 793.832, 519.109 793.829, 531.500 789.804 C 549.976 783.803, 565.545 769.790, 574.057 751.500 C 579.598 739.594, 579.711 738.974, 576.317 739.128 C 574.768 739.199, 570.800 739.669, 567.500 740.173" fill="none" fill-rule="evenodd" stroke="#222" stroke-width="0.8" onclick="fill(this)" />
  <path id="r37" class="region" d="M 455.553 746.750 C 454.739 754.016, 456.236 761.825, 459.641 768.081 C 463.759 775.648, 464.833 776.323, 469.901 774.535 C 477.023 772.022, 488.040 763.992, 498 754.053 L 507.500 744.573 493 743.864 C 485.025 743.474, 474.225 742.678, 469 742.095 C 455.196 740.555, 456.289 740.176, 455.553 746.750" fill="none" fill-rule="evenodd" stroke="#222" stroke-width="0.8" onclick="fill(this)" />
  <path id="r38" class="region" d="M 525.895 743.744 C 517.111 744.041, 516.203 744.258, 515.274 746.284 C 513.292 750.606, 500.398 763.422, 493.498 767.928 C 487.585 771.789, 479.929 775.295, 470.507 778.455 C 468.596 779.096, 468.617 779.203, 471.007 781.033 C 479.760 787.735, 495.173 793, 506.036 793 C 512.405 793, 512.755 792.865, 517.091 788.750 C 527.883 778.507, 535.645 767.618, 543.998 751.003 L 548.022 743 541.761 743.209 C 538.318 743.324, 531.178 743.565, 525.895 743.744" fill="none" fill-rule="evenodd" stroke="#222" stroke-width="0.8" onclick="fill(this)" />


<!-- ── Bottom Panel ── -->
<rect x="0" y="830" width="1024" height="194" fill="#1a1a2e" rx="0"/>
<rect x="0" y="830" width="1024" height="6" fill="#e94560"/>

<!-- Panel title -->
<text x="20" y="858" font-family="sans-serif" font-size="13" fill="#f5a623" font-weight="bold" letter-spacing="2">🎨 اختر لون</text>

<!-- Color swatches (5 cols × 4 rows) -->
  <rect class="swatch" x="30" y="860" width="28" height="28" rx="6" fill="#FF6B6B" onclick="pick('#FF6B6B', this)" />
  <rect class="swatch" x="68" y="860" width="28" height="28" rx="6" fill="#FF8E53" onclick="pick('#FF8E53', this)" />
  <rect class="swatch" x="106" y="860" width="28" height="28" rx="6" fill="#FFC107" onclick="pick('#FFC107', this)" />
  <rect class="swatch" x="144" y="860" width="28" height="28" rx="6" fill="#A8E063" onclick="pick('#A8E063', this)" />
  <rect class="swatch" x="182" y="860" width="28" height="28" rx="6" fill="#56CCF2" onclick="pick('#56CCF2', this)" />
  <rect class="swatch" x="30" y="898" width="28" height="28" rx="6" fill="#764BA2" onclick="pick('#764BA2', this)" />
  <rect class="swatch" x="68" y="898" width="28" height="28" rx="6" fill="#F093FB" onclick="pick('#F093FB', this)" />
  <rect class="swatch" x="106" y="898" width="28" height="28" rx="6" fill="#4ECDC4" onclick="pick('#4ECDC4', this)" />
  <rect class="swatch" x="144" y="898" width="28" height="28" rx="6" fill="#D62839" onclick="pick('#D62839', this)" />
  <rect class="swatch" x="182" y="898" width="28" height="28" rx="6" fill="#E84393" onclick="pick('#E84393', this)" />
  <rect class="swatch" x="30" y="936" width="28" height="28" rx="6" fill="#F7B731" onclick="pick('#F7B731', this)" />
  <rect class="swatch" x="68" y="936" width="28" height="28" rx="6" fill="#20BF6B" onclick="pick('#20BF6B', this)" />
  <rect class="swatch" x="106" y="936" width="28" height="28" rx="6" fill="#0652DD" onclick="pick('#0652DD', this)" />
  <rect class="swatch" x="144" y="936" width="28" height="28" rx="6" fill="#C0392B" onclick="pick('#C0392B', this)" />
  <rect class="swatch" x="182" y="936" width="28" height="28" rx="6" fill="#2C3E50" onclick="pick('#2C3E50', this)" />
  <rect class="swatch" x="30" y="974" width="28" height="28" rx="6" fill="#8E44AD" onclick="pick('#8E44AD', this)" />
  <rect class="swatch" x="68" y="974" width="28" height="28" rx="6" fill="#1ABC9C" onclick="pick('#1ABC9C', this)" />
  <rect class="swatch" x="106" y="974" width="28" height="28" rx="6" fill="#E67E22" onclick="pick('#E67E22', this)" />
  <rect class="swatch" x="144" y="974" width="28" height="28" rx="6" fill="#2980B9" onclick="pick('#2980B9', this)" />
  <rect class="swatch" x="182" y="974" width="28" height="28" rx="6" fill="#27AE60" onclick="pick('#27AE60', this)" />


<!-- Eraser button -->
<rect id="eraser" x="240" y="858" width="70" height="32" rx="8" fill="#0f3460" stroke="#444" stroke-width="1.5" onclick="toggleErase()" style="cursor:pointer"/>
<text x="275" y="879" font-family="sans-serif" font-size="13" fill="#eee" text-anchor="middle" pointer-events="none">🧹 مسح</text>

<!-- Undo button -->
<rect id="undoBtn" x="320" y="858" width="70" height="32" rx="8" fill="#0f3460" stroke="#444" stroke-width="1.5" onclick="undo()" style="cursor:pointer"/>
<text x="355" y="879" font-family="sans-serif" font-size="13" fill="#eee" text-anchor="middle" pointer-events="none">↩️ تراجع</text>

<!-- Clear button -->
<rect id="clearBtn" x="400" y="858" width="70" height="32" rx="8" fill="#0f3460" stroke="#444" stroke-width="1.5" onclick="clearAll()" style="cursor:pointer"/>
<text x="435" y="879" font-family="sans-serif" font-size="13" fill="#eee" text-anchor="middle" pointer-events="none">🗑️ كل</text>

<!-- Current color preview -->
<text x="490" y="858" font-family="sans-serif" font-size="11" fill="#aaa">اللون الحالي:</text>
<rect id="preview" x="490" y="863" width="36" height="36" rx="8" fill="#FF6B6B" stroke="#555" stroke-width="1.5"/>

<!-- Opacity label -->
<text x="545" y="858" font-family="sans-serif" font-size="11" fill="#aaa">الشفافية:</text>
<text id="opLabel" x="545" y="874" font-family="sans-serif" font-size="12" fill="#f5a623">100%</text>

<!-- Opacity slider (fake — clickable rects) -->
<rect x="545" y="878" width="120" height="8" rx="4" fill="#333"/>
<rect id="opBar" x="545" y="878" width="120" height="8" rx="4" fill="#f5a623"/>
<rect x="545" y="870" width="120" height="24" rx="4" fill="transparent" 
  onmousedown="startSlide(evt)" onmousemove="slideMove(evt)" onmouseup="endSlide()" style="cursor:ew-resize"/>

<!-- Row 2 of swatches is already handled above -->

<!-- Script -->
<script type="text/javascript"><![CDATA[
  var activeColor = '#FF6B6B';
  var eraseMode = false;
  var opacity = 1.0;
  var sliding = false;
  var history = [];

  // highlight first swatch
  document.querySelectorAll('.swatch')[0].classList.add('active');

  function pick(c, el) {
    activeColor = c;
    eraseMode = false;
    document.getElementById('preview').setAttribute('fill', c);
    document.getElementById('eraser').setAttribute('fill','#0f3460');
    document.getElementById('eraser').setAttribute('stroke','#444');
    document.querySelectorAll('.swatch').forEach(function(s){s.classList.remove('active');});
    el.classList.add('active');
  }

  function toggleErase() {
    eraseMode = !eraseMode;
    var el = document.getElementById('eraser');
    if (eraseMode) {
      el.setAttribute('fill','#fff0f0');
      el.setAttribute('stroke','#e94560');
    } else {
      el.setAttribute('fill','#0f3460');
      el.setAttribute('stroke','#444');
    }
  }

  function fill(el) {
    var prev = { el: el, fill: el.getAttribute('fill'), op: el.getAttribute('fill-opacity') };
    history.push(prev);
    if (eraseMode) {
      el.setAttribute('fill','none');
      el.setAttribute('fill-opacity','1');
    } else {
      el.setAttribute('fill', activeColor);
      el.setAttribute('fill-opacity', opacity);
    }
  }

  function undo() {
    if (!history.length) return;
    var last = history.pop();
    last.el.setAttribute('fill', last.fill || 'none');
    last.el.setAttribute('fill-opacity', last.op || '1');
  }

  function clearAll() {
    document.querySelectorAll('.region').forEach(function(r){
      r.setAttribute('fill','none');
      r.setAttribute('fill-opacity','1');
    });
    history = [];
  }

  // Simple opacity slider
  function startSlide(evt) { sliding = true; slideMove(evt); }
  function endSlide() { sliding = false; }
  function slideMove(evt) {
    if (!sliding) return;
    var svg = evt.target.ownerSVGElement;
    var pt = svg.createSVGPoint();
    pt.x = evt.clientX; pt.y = evt.clientY;
    var sp = pt.matrixTransform(svg.getScreenCTM().inverse());
    var pct = Math.max(0, Math.min(1, (sp.x - 545) / 120));
    opacity = pct;
    document.getElementById('opBar').setAttribute('width', Math.round(pct*120));
    document.getElementById('opLabel').textContent = Math.round(pct*100) + '%';
  }
]]></script>
</svg>