<?xml version="1.0" encoding="UTF-8"?>
<svg xmlns="http://www.w3.org/2000/svg" viewBox="0 0 1024 1024">
  <g id="colorRegions">
    <path id="roof_outer" d="M 507.500 75.626 C 506.400 75.842, 503.025 76.506, 500 77.101 C 493.430 78.392, 483.734 83.476, 475.500 89.947 C 472.200 92.540, 463.650 99.092, 456.500 104.507 C 442.047 115.453, 419.174 132.888, 397.672 149.350 C 379.749 163.071, 356.808 180.398, 355.500 181.201 C 354.859 181.595, 354.618 179.365, 354.829 174.997 C 355.129 168.756, 355.361 168.126, 357.560 167.574 C 360.715 166.782, 366.662 161.506, 368.801 157.602 C 370.206 155.037, 370.500 151.642, 370.500 138 C 370.500 121.803, 370.450 121.414, 367.751 116.824 C 364.044 110.517, 357.615 107.399, 345.500 106.032 C 334.911 104.837, 271.870 104.766, 251 105.925 C 224.368 107.404, 220.077 112, 220.024 139.101 C 219.990 157.076, 222.038 161.915, 231.682 166.633 L 237.315 169.389 236.657 200.857 C 236.296 218.165, 236 241.146, 236 251.925 L 236 271.523 229.750 276.124 C 226.313 278.654, 207.240 293.048, 187.367 308.112 C 167.494 323.175, 144.994 340.225, 137.367 346 C 120.113 359.065, 115.011 364.200, 110.810 372.734 C 107.760 378.930, 107.501 380.206, 107.516 388.979 C 107.530 397.518, 107.849 399.170, 110.609 405 C 116.162 416.728, 127.175 426.841, 139.637 431.657 C 148.436 435.056, 160.478 435.302, 169.250 432.262 L 175 430.269 175 557.218 C 175 627.040, 174.662 683.995, 174.250 683.785 C 162.284 677.702, 161.589 677.499, 153 677.578 C 143.630 677.664, 136.666 679.867, 129.797 684.918 C 120.210 691.968, 114.243 704.717, 115.264 715.970 L 115.786 721.729 107.910 722.269 C 101.340 722.719, 98.989 723.393, 93.727 726.336 C 86.050 730.629, 78.045 738.866, 75.061 745.545 C 70.161 756.507, 71.489 770.582, 78.391 780.838 C 81.701 785.756, 81.739 785.927, 79.894 787.596 C 78.854 788.537, 76.652 792.011, 75.001 795.314 C 72.446 800.428, 72 802.463, 72 809.025 C 72 815.853, 72.405 817.540, 75.548 823.823 C 85.655 844.026, 112.401 852.864, 138.500 844.624 L 145.500 842.415 153.624 845.213 C 165.740 849.386, 178.567 851.037, 190.582 849.969 C 206.379 848.566, 218.756 844.787, 227.316 838.754 L 230.132 836.770 237.816 839.776 C 252.149 845.383, 249.265 845.245, 348 845.039 L 439.500 844.847 439.807 852.600 C 440.042 858.518, 440.609 861.047, 442.206 863.289 C 446.525 869.354, 435.257 869, 623.733 869 C 789.177 869, 796.676 868.922, 799.938 867.173 C 804.540 864.705, 807 859.814, 807 853.134 L 807 847.737 811.072 848.283 C 815.628 848.894, 825.592 847.700, 834.214 845.511 C 839.489 844.171, 840.398 844.210, 846.053 846.017 C 868.018 853.034, 896.822 854.504, 915.877 849.582 C 928.783 846.247, 936.774 842.272, 943.656 835.764 C 951.257 828.575, 954.402 821.671, 954.448 812.069 C 954.494 802.506, 952.977 797.501, 948.415 792.172 L 944.801 787.950 947.256 784.725 C 952.704 777.569, 954.351 772.923, 954.780 763.500 C 955.355 750.867, 953.019 744.836, 944.091 735.909 C 935.732 727.549, 929.020 724.644, 917.866 724.559 L 910.233 724.500 909.766 718 C 908.688 702.982, 896.822 690.020, 880.719 686.269 C 873.814 684.661, 864.841 685.204, 859.171 687.573 C 857.293 688.358, 855.586 689, 855.378 689 C 855.170 689, 855 630.319, 855 558.597 L 855 428.194 862.250 431.261 C 875.686 436.945, 892.024 434.968, 906.062 425.960 C 916.488 419.270, 923.949 409.410, 926.517 398.929 C 929.446 386.977, 927.153 376.898, 918.967 365.750 C 914.915 360.232, 908.368 354.919, 870.524 326.435 C 846.457 308.321, 823.106 290.816, 818.633 287.535 C 811.470 282.282, 782.896 260.935, 759.500 243.357 C 755.100 240.051, 737.333 226.806, 720.018 213.923 C 702.703 201.040, 674.069 179.700, 656.387 166.500 C 557.585 92.743, 547.014 85.046, 538.905 80.952 C 530.086 76.500, 515.566 74.038, 507.500 75.626" fill="#FFFFFF" stroke="#000000" stroke-width="2" />
    <path id="roof_tiles" d="M 512.595 174.846 C 512.307 175.312, 499.435 185.309, 483.989 197.062 L 455.905 218.432 464.703 222.855 C 483.218 232.165, 498.738 235.751, 515.924 234.689 C 528.768 233.896, 540.876 230.314, 555.764 222.902 C 562.685 219.457, 568.704 217.056, 569.578 217.392 C 570.640 217.799, 571.029 219.011, 570.814 221.243 C 570.541 224.076, 569.488 225.169, 562.722 229.641 C 553.508 235.732, 538.508 241.388, 525.605 243.637 C 504.033 247.396, 479.248 242.795, 461 231.642 C 457.425 229.457, 453.368 226.636, 451.985 225.372 L 449.469 223.075 444.996 226.615 C 442.536 228.562, 429.385 238.558, 415.772 248.828 C 391.116 267.429, 391.030 267.507, 393.261 269.240 C 398.043 272.956, 412.940 279.898, 422 282.633 C 430.703 285.260, 432.800 285.499, 447 285.492 C 460.284 285.485, 463.572 285.157, 470 283.196 C 481.260 279.761, 490.419 275.390, 501.308 268.256 C 506.702 264.722, 511.663 262.041, 512.333 262.298 C 513.003 262.555, 517.138 265.339, 521.523 268.485 C 530.290 274.774, 538.057 278.598, 550.390 282.696 C 557.754 285.143, 559.925 285.396, 574 285.445 C 587.205 285.492, 590.684 285.164, 597.500 283.231 C 606.936 280.554, 616.902 276.223, 626.243 270.739 C 633.713 266.354, 636 266.402, 636 270.945 C 636 274.905, 629.042 280.484, 616.590 286.510 C 600.864 294.120, 594.270 295.506, 574 295.461 C 557.014 295.423, 556.218 295.328, 546.907 292.215 C 536.230 288.644, 526.914 283.982, 517.285 277.390 L 510.866 272.995 504.683 277.381 C 496.588 283.125, 484.571 289.077, 474 292.578 C 465.934 295.249, 464.556 295.395, 447 295.429 L 428.500 295.465 417.400 291.731 C 406.852 288.183, 391.976 280.085, 386.318 274.813 L 384.137 272.780 355.711 294.139 L 327.286 315.498 330.393 317.863 C 334.864 321.266, 346.999 326.696, 356.929 329.737 C 364.487 332.051, 367.273 332.370, 380.500 332.431 C 393.288 332.490, 396.663 332.163, 403.384 330.216 C 417.774 326.048, 423.177 323.318, 441.900 310.755 C 445.601 308.272, 448.447 308.578, 452.215 311.866 C 460.531 319.123, 474.314 326.077, 488.549 330.197 C 495.295 332.150, 498.697 332.488, 511 332.427 C 523.759 332.365, 526.555 332.034, 534.284 329.673 C 546.443 325.958, 554.485 322.141, 565.071 315.060 C 570.054 311.727, 574.898 309, 575.835 309 C 576.772 309, 580.230 311.024, 583.520 313.498 C 591.750 319.689, 602.638 325.173, 614.500 329.104 C 624.116 332.290, 625.095 332.416, 640 332.390 C 653.834 332.367, 656.360 332.089, 663.500 329.805 C 674.325 326.342, 682.651 322.753, 689.654 318.530 C 696.833 314.201, 699.706 313.979, 700.635 317.682 C 701.207 319.959, 700.719 320.864, 697.404 323.676 C 692.200 328.089, 679.845 334.472, 669.722 337.976 C 640.782 347.994, 607.149 342.507, 582.425 323.735 L 575.350 318.363 570.925 322.194 C 565.917 326.531, 552.818 333.584, 542.716 337.384 C 518.354 346.548, 487.232 344.191, 464.500 331.460 C 459.300 328.548, 450.724 322.798, 447.824 320.279 C 446.327 318.979, 445.578 319.251, 440.824 322.816 C 429.044 331.649, 412.777 338.659, 397.289 341.576 C 385.589 343.779, 366.621 343.075, 356 340.043 C 346.506 337.332, 332.054 330.296, 325.270 325.081 L 320.040 321.061 313.770 325.828 C 310.321 328.449, 298.950 337.045, 288.500 344.930 C 263.475 363.811, 264.889 362.353, 269.103 364.918 C 275.245 368.658, 289.564 373.852, 298.612 375.624 C 321.602 380.125, 347.051 375.219, 367.096 362.422 C 376.075 356.689, 379.501 355, 382.149 355 C 383.385 355, 387.468 357.061, 391.222 359.579 C 419.185 378.341, 450.530 382.284, 480.365 370.795 C 487.338 368.109, 491.548 365.870, 505.800 357.266 C 507.835 356.038, 510.643 355.025, 512.041 355.016 C 513.438 355.007, 518.163 357.273, 522.541 360.050 C 533.332 366.897, 545.590 372.630, 553.198 374.389 C 571.484 378.616, 583.866 378.510, 601.590 373.977 C 609.357 371.991, 626.724 363.870, 634.427 358.624 C 641.887 353.543, 644.275 353.776, 654.500 360.585 C 682.822 379.445, 715.294 382.427, 747.074 369.087 C 751.158 367.373, 756.740 364.562, 759.477 362.842 L 764.454 359.714 762.010 358.107 C 757.787 355.331, 743.002 344.278, 691.191 305.164 C 683.661 299.479, 670.075 289.263, 661 282.462 C 651.925 275.660, 640 266.612, 634.500 262.355 C 629 258.098, 615.187 247.781, 603.805 239.429 C 592.423 231.077, 579.823 221.672, 575.805 218.528 C 571.787 215.384, 558.600 205.526, 546.500 196.622 C 514.517 173.086, 513.920 172.703, 512.595 174.846" fill="#FFFFFF" stroke="#000000" stroke-width="2" />
    <path id="chimney" d="M 242.863 119.736 C 234.234 120.283, 233.570 121.456, 233.175 136.872 C 232.876 148.538, 233.018 149.753, 234.971 152.235 C 236.137 153.718, 238.758 155.394, 240.795 155.960 C 245.697 157.321, 340.810 157.356, 348.114 155.999 C 356.397 154.461, 357 153.240, 357 138 C 357 123.074, 356.233 121.351, 348.964 119.948 C 344.771 119.139, 255.101 118.960, 242.863 119.736 M 250.001 215.372 C 250 251.930, 250.254 261.045, 251.250 260.258 C 261.085 252.493, 327.223 202.368, 335.223 196.615 L 340.947 192.500 340.973 180.622 L 341 168.743 295.501 169.122 L 250.002 169.500 250.001 215.372" fill="#FFFFFF" stroke="#000000" stroke-width="2" />
    <path id="walls" d="M 504.166 90.534 C 497.322 92.019, 491.640 94.952, 485.229 100.308 C 482.993 102.177, 473.364 109.617, 463.832 116.842 C 454.299 124.067, 439.975 134.966, 432 141.061 C 424.025 147.157, 401.610 164.149, 382.189 178.822 C 362.768 193.495, 340.943 210.013, 333.689 215.528 C 326.435 221.044, 302.950 238.790, 281.500 254.964 C 260.050 271.138, 233.275 291.357, 222 299.895 C 210.725 308.432, 188 325.579, 171.500 337.997 C 129.396 369.686, 129.259 369.794, 126.522 373.382 C 120.599 381.147, 119.232 391.716, 123.113 399.734 C 126.242 406.198, 133.588 413.158, 141.176 416.848 C 146.702 419.535, 149.029 420.097, 154.676 420.105 C 161.691 420.115, 167.729 418.511, 172.680 415.322 C 175.717 413.366, 186.230 405.474, 208.649 388.324 C 216.431 382.371, 229.027 372.775, 236.642 367 C 244.256 361.225, 261.974 347.725, 276.016 337 C 300.201 318.527, 313.452 308.504, 402.327 241.456 C 494.610 171.835, 505.887 163.263, 509.185 160.224 C 512.960 156.746, 515.805 157.118, 523.121 162.050 C 529.267 166.193, 701.704 295.426, 767.561 345.246 C 785.195 358.586, 810.620 377.788, 824.061 387.917 C 837.503 398.047, 850.525 408, 853 410.036 C 862.750 418.054, 873.666 421.569, 883.795 419.952 C 899.396 417.461, 914.024 402.430, 914.005 388.910 C 913.998 383.996, 908.749 373.884, 904.103 369.834 C 898.315 364.788, 890.452 358.787, 868.500 342.658 C 850.843 329.685, 818.889 305.797, 774.500 272.387 C 748.258 252.636, 677.682 199.996, 634.500 167.967 C 626.800 162.256, 604.454 145.639, 584.843 131.041 C 530.035 90.245, 534.099 92.943, 523.800 90.515 C 516.205 88.724, 512.486 88.728, 504.166 90.534 M 635.240 373.108 C 622.294 381.550, 603.907 387.922, 586.486 390.002 C 565.213 392.542, 541.909 386.998, 521.087 374.446 C 516.119 371.451, 511.785 369, 511.457 369 C 511.129 369, 508.979 370.291, 506.680 371.868 C 489.159 383.890, 460.119 392.067, 440.500 390.503 C 429.670 389.640, 419.347 387.447, 410.156 384.056 C 402.483 381.225, 400.238 380.092, 387.818 372.784 L 381.135 368.852 375.818 372.201 C 361.466 381.240, 346.011 387.008, 329.500 389.487 C 317.035 391.358, 312.982 391.362, 300.730 389.516 C 286.527 387.375, 266.806 379.911, 256.941 372.943 L 254.381 371.135 244.441 378.727 C 238.973 382.903, 229.775 389.937, 224 394.359 C 218.225 398.781, 208.438 406.182, 202.250 410.806 L 191 419.213 190.999 489.856 C 190.999 528.710, 190.699 587.216, 190.334 619.870 L 189.670 679.240 192.085 678.370 C 193.413 677.891, 199.225 677.500, 205 677.500 C 214.697 677.500, 215.948 677.729, 221.362 680.500 C 233.386 686.653, 241.675 699.087, 242.172 711.713 L 242.399 717.500 251.805 717.150 C 260.924 716.810, 261.434 716.910, 268.551 720.428 C 280.827 726.495, 287.064 735.726, 287.347 748.246 L 287.500 754.993 291.022 754.996 C 301.114 755.007, 316.289 762.527, 322.796 770.742 C 327.123 776.206, 330.707 783.304, 331.496 787.976 L 332.176 792 361.338 792.022 C 377.377 792.035, 406.896 792.066, 426.936 792.091 L 463.372 792.138 464.624 789.748 C 466.679 785.826, 473.487 781.756, 478.855 781.240 L 483.673 780.777 484.336 708.138 C 484.700 668.187, 485.038 599.725, 485.086 556 C 485.134 512.275, 485.490 470.875, 485.877 464 C 486.733 448.812, 488.336 445.522, 496.963 441.257 L 502.427 438.557 561.463 437.755 C 620.696 436.950, 726.659 437.462, 743.500 438.634 C 756.005 439.504, 761.157 442.393, 765.554 451 C 767.163 454.150, 767.414 459.205, 768.058 501.500 C 768.453 527.350, 768.938 594.873, 769.138 651.552 L 769.500 754.603 773.880 751.261 C 779.880 746.682, 784.359 744.964, 792 744.307 L 798.500 743.748 798.500 735.124 C 798.500 728.801, 798.984 725.528, 800.314 722.855 C 803.550 716.353, 808.818 711.215, 815.744 707.805 C 821.626 704.909, 823.345 704.530, 830.452 704.557 C 834.943 704.574, 838.825 704.126, 839.235 703.544 C 839.639 702.970, 839.968 638.375, 839.967 560 L 839.965 417.500 807.887 393.500 C 790.244 380.300, 775.427 369.358, 774.959 369.185 C 774.491 369.011, 771.624 370.459, 768.587 372.401 C 756.730 379.986, 739.818 386.614, 726 389.091 C 716.076 390.870, 696.354 390.653, 687.402 388.666 C 676.870 386.329, 661.683 380.092, 651.456 373.903 L 642.413 368.430 635.240 373.108" fill="#FFFFFF" stroke="#000000" stroke-width="2" />
    <path id="window_frame" d="M 236.883 451.310 C 232.319 452.493, 228.427 455.722, 226.575 459.864 C 225.102 463.156, 224.975 472.917, 225.224 563.177 C 225.500 662.732, 225.503 662.857, 227.605 665.677 C 228.762 667.230, 231.237 669.400, 233.105 670.500 C 236.440 672.465, 238.298 672.500, 339 672.500 L 441.500 672.500 445.179 670.212 C 447.339 668.869, 449.713 666.158, 450.929 663.647 C 452.980 659.409, 453 658.437, 453 562 C 453 464.822, 452.996 464.623, 450.879 460.250 C 449.665 457.742, 447.157 454.809, 445.016 453.392 L 441.275 450.916 340.642 450.708 C 285.294 450.594, 238.602 450.865, 236.883 451.310 M 517 449.897 C 509.195 450.246, 502.585 451.024, 501.330 451.742 C 500.137 452.426, 498.714 454.451, 498.168 456.242 C 497.538 458.308, 496.983 518.307, 496.649 620.250 L 496.122 781 503.061 781 L 510 781 510.004 626.250 C 510.007 474.784, 510.049 471.432, 511.950 468.314 C 513.019 466.561, 514.930 464.557, 516.196 463.858 C 519.400 462.094, 730.960 461.827, 735.500 463.583 C 737.150 464.220, 739.625 465.961, 741 467.452 L 743.500 470.161 743.759 625.580 L 744.019 781 750.759 781 L 757.500 781 757.282 654.250 C 756.998 489.662, 756.658 458.097, 755.135 455.252 C 754.478 454.025, 752.492 452.238, 750.720 451.281 C 747.721 449.661, 740.045 449.533, 639 449.418 C 579.325 449.350, 524.425 449.565, 517 449.897" fill="#FFFFFF" stroke="#000000" stroke-width="2" />
    <path id="window_inside" d="M 239.374 458.689 C 238.205 458.919, 236.180 460.244, 234.874 461.634 L 232.500 464.162 232.330 560.786 C 232.146 665.853, 231.943 661.887, 237.613 664.043 C 239.155 664.629, 278.699 665, 339.642 665 L 439.154 665 442.077 662.077 L 445 659.154 445 562.527 C 445 456.175, 445.306 461.348, 438.881 459.108 C 436.628 458.323, 407.413 458.040, 338.601 458.136 C 285.195 458.211, 240.543 458.460, 239.374 458.689 M 518.655 471.829 C 517.141 473.501, 517.006 480.866, 517.071 558.079 C 517.140 640.707, 517.180 642.415, 518.971 638.500 C 524.723 625.930, 540.681 619.493, 552.637 624.922 C 563.030 629.642, 569 638.470, 569 649.119 C 569 664.019, 557.835 675.031, 542.782 674.978 C 532.219 674.941, 524.569 669.822, 519.445 659.363 L 517.063 654.500 517.031 717.750 L 517 781 627.122 781 L 737.244 781 736.679 627.250 C 736.369 542.688, 736.089 473.420, 736.057 473.321 C 736.026 473.223, 735.293 472.436, 734.429 471.571 C 733.020 470.163, 721.863 470, 626.584 470 C 524.897 470, 520.239 470.079, 518.655 471.829" fill="#FFFFFF" stroke="#000000" stroke-width="2" />
    <path id="window_dividers" d="M 254.374 473.803 C 253.205 473.970, 251.180 475.244, 249.874 476.634 L 247.500 479.161 247.233 562.005 L 246.966 644.849 249.233 647.465 L 251.500 650.081 338.452 650.025 L 425.404 649.969 427.702 647.810 L 430 645.651 430 562.841 L 430 480.032 427.250 476.986 L 424.500 473.940 340.500 473.720 C 294.300 473.599, 255.543 473.636, 254.374 473.803 M 333 517 C 333 551.667, 332.926 553.074, 331 555 C 329.072 556.928, 327.667 557, 292 557 L 255 557 255 561.995 L 255 566.991 292.571 566.902 C 327.966 566.818, 330.224 566.920, 331.540 568.657 C 332.674 570.154, 332.942 577.264, 332.966 606.500 L 332.996 642.500 338.998 642.161 L 345 641.822 345 606.066 C 345 570.986, 345.040 570.274, 347.105 568.405 C 349.094 566.605, 351.218 566.500, 385.605 566.500 L 422 566.500 422 561.750 L 422 557 385.155 557 C 350.730 557, 348.201 556.880, 346.655 555.171 C 345.179 553.541, 345 549.426, 345 517.171 L 345 481 339 481 L 333 481 333 517 M 258.424 484.917 C 258.191 485.146, 258 498.983, 258 515.667 L 258 546 290 546 L 322 546 322 515.165 L 322 484.330 290.424 484.415 C 273.058 484.462, 258.658 484.688, 258.424 484.917 M 355 515.115 L 355 546 387 546 L 419 546 418.996 515.250 L 418.991 484.500 386.996 484.365 L 355 484.231 355 515.115 M 289.750 577.749 L 258 578.028 258 608.514 L 258 639 290 639 L 322 639 322 608 C 322 590.950, 321.887 577.106, 321.750 577.235 C 321.613 577.365, 307.212 577.596, 289.750 577.749 M 386.750 577.764 L 355 578.028 355 608.487 L 355 638.945 386.750 639.222 C 404.212 639.375, 418.619 639.456, 418.764 639.402 C 418.910 639.348, 418.910 625.398, 418.764 608.402 L 418.500 577.500 386.750 577.764" fill="#FFFFFF" stroke="#000000" stroke-width="2" />
    <path id="door" d="M 577.500 520.328 C 564.946 525.251, 557.574 535.045, 556.321 548.470 C 555.307 559.322, 560.341 573.389, 569.917 586.468 C 578.409 598.067, 607.508 625.457, 622.030 635.521 C 625.330 637.807, 626.447 638.118, 628.316 637.266 C 633.008 635.128, 653.980 617.158, 667.059 604.069 C 681.774 589.342, 688.593 580.380, 693.361 569.500 C 696.132 563.176, 696.431 561.487, 696.464 552 C 696.498 542.196, 696.303 541.145, 693.534 536.145 C 690.286 530.281, 684.035 524.241, 678.225 521.352 C 675.275 519.885, 672.213 519.502, 663.500 519.509 C 653.601 519.516, 651.849 519.803, 646 522.369 C 642.425 523.938, 636.564 527.353, 632.976 529.958 L 626.452 534.694 621.476 530.802 C 610.918 522.544, 600.861 518.960, 588.568 519.076 C 584.131 519.118, 579.150 519.681, 577.500 520.328" fill="#FFFFFF" stroke="#000000" stroke-width="2" />
    <path id="door_frame" d="M 577.500 520.328 C 564.946 525.251, 557.574 535.045, 556.321 548.470 C 555.307 559.322, 560.341 573.389, 569.917 586.468 C 578.409 598.067, 607.508 625.457, 622.030 635.521 C 625.330 637.807, 626.447 638.118, 628.316 637.266 C 633.008 635.128, 653.980 617.158, 667.059 604.069 C 681.774 589.342, 688.593 580.380, 693.361 569.500 C 696.132 563.176, 696.431 561.487, 696.464 552 C 696.498 542.196, 696.303 541.145, 693.534 536.145 C 690.286 530.281, 684.035 524.241, 678.225 521.352 C 675.275 519.885, 672.213 519.502, 663.500 519.509 C 653.601 519.516, 651.849 519.803, 646 522.369 C 642.425 523.938, 636.564 527.353, 632.976 529.958 L 626.452 534.694 621.476 530.802 C 610.918 522.544, 600.861 518.960, 588.568 519.076 C 584.131 519.118, 579.150 519.681, 577.500 520.328" fill="#FFFFFF" stroke="#000000" stroke-width="2" />
    <path id="door_heart" d="M 580.036 531.858 C 574.655 534.116, 569.270 540.046, 568.403 544.667 C 566.479 554.924, 570.264 567.669, 578.710 579.373 C 585.771 589.156, 606.249 608.946, 622.484 621.674 L 626.468 624.797 630.484 621.681 C 648.996 607.318, 669.454 586.962, 677.011 575.385 C 682.855 566.433, 686.499 555.757, 685.712 549.890 C 684.429 540.322, 678.453 533.277, 669.599 530.892 C 659.789 528.249, 643.824 534.192, 633.719 544.248 C 630.540 547.411, 627.239 550, 626.384 550 C 625.529 550, 623.405 548.370, 621.665 546.379 C 617.179 541.245, 608.469 534.986, 602.830 532.844 C 595.394 530.018, 585.444 529.588, 580.036 531.858" fill="#FFFFFF" stroke="#000000" stroke-width="2" />
    <path id="door_handle" d="M 541.500 633.501 C 540.950 633.679, 539.297 634.089, 537.827 634.412 C 530.958 635.921, 525.892 645.571, 528.101 652.943 C 532.396 667.278, 552.270 668.333, 557.551 654.506 C 561.111 645.183, 555.792 636.706, 544.500 633.709 C 543.400 633.417, 542.050 633.324, 541.500 633.501" fill="#FFFFFF" stroke="#000000" stroke-width="2" />
    <path id="step_upper" d="M 331.596 804.250 C 330.651 810.341, 326.258 818.542, 320.650 824.686 L 315.799 830 378.374 830 L 440.949 830 442.379 827.250 C 445.227 821.776, 452.483 817, 457.950 817 L 461 817 461 808.500 L 461 800 396.628 800 L 332.256 800 331.596 804.250" fill="#FFFFFF" stroke="#000000" stroke-width="2" />
    <path id="step_lower" d="M 459.139 828.993 C 453.165 830.415, 452.537 831.815, 452.164 844.533 L 451.828 856 622.914 856 L 794 856 794 846.649 C 794 841.506, 793.542 835.985, 792.982 834.379 C 790.783 828.071, 803.137 828.515, 625 828.346 C 535.625 828.262, 460.988 828.553, 459.139 828.993" fill="#FFFFFF" stroke="#000000" stroke-width="2" />
    <path id="ground" d="M 478.315 794.007 C 474.764 795.438, 474 798.257, 474 809.934 L 474 821 624.320 821 L 774.640 821 774.882 811.184 C 775.037 804.932, 774.668 800.366, 773.868 798.609 C 771.161 792.668, 780.002 792.994, 623.800 793.063 C 543.759 793.099, 479.536 793.515, 478.315 794.007" fill="#FFFFFF" stroke="#000000" stroke-width="2" />
    <path id="bush_right" d="M 860.249 699.563 C 854.247 702.554, 849 709.508, 849 714.471 C 849 719.951, 845.708 721.489, 841.337 718.051 C 833.197 711.647, 816.733 716.013, 811.079 726.074 C 806.960 733.402, 808.848 746.071, 814.855 751.405 C 817.378 753.646, 817.615 756.245, 815.459 758.034 C 814.183 759.093, 813.107 758.899, 809.209 756.907 C 802.881 753.672, 792.714 753.658, 785.500 756.874 C 776.301 760.974, 770.069 769.173, 770.022 777.237 C 770.003 780.515, 770.399 781.140, 773.250 782.335 C 778.217 784.416, 783.085 788.979, 785.120 793.459 C 786.488 796.469, 786.962 799.958, 786.978 807.139 L 787 816.777 790.337 817.403 C 795.083 818.294, 801.349 824.059, 803.824 829.813 C 805.886 834.605, 806.064 834.740, 811.969 835.993 C 816.659 836.989, 819.281 837.019, 823.712 836.129 C 828.819 835.103, 833.251 833, 830.304 833 C 828.774 833, 823.338 824.151, 822.549 820.374 C 822.079 818.126, 822.364 816.779, 823.564 815.579 C 825.971 813.172, 827.086 813.954, 830.332 820.328 C 836.293 832.035, 848.387 837.364, 875.148 840.073 C 906.326 843.230, 932.485 835.429, 940.232 820.664 C 943.445 814.539, 943.216 805.866, 939.694 800.298 C 936.907 795.894, 930.695 791, 927.890 791 C 926.985 791, 925.703 790.347, 925.040 789.548 C 922.854 786.915, 924.317 784.661, 929.386 782.847 C 938.753 779.496, 943.382 772.541, 943.326 761.903 C 943.298 756.592, 942.739 754.290, 940.458 750.100 C 937.412 744.504, 930.363 738.566, 924.784 736.898 C 916.615 734.454, 905.399 736.398, 900.362 741.130 C 899.107 742.309, 897.208 743.025, 895.848 742.832 C 892.593 742.372, 892.075 737.613, 894.947 734.556 C 899.255 729.971, 900.278 719.411, 897.094 712.399 C 890.982 698.941, 873.629 692.896, 860.249 699.563 M 854.667 751.667 C 852.825 753.508, 854.316 755.975, 858.493 757.997 C 863.173 760.262, 868.320 766.060, 866.260 766.747 C 862.869 767.877, 855.945 774.483, 854.052 778.393 C 851.965 782.705, 851.788 782.822, 848.914 781.820 C 839.460 778.524, 821.220 789.544, 822.204 797.957 C 822.656 801.817, 825.748 801.761, 828.985 797.834 C 830.506 795.989, 833.875 793.418, 836.471 792.121 C 842.244 789.238, 849.146 789.544, 853.846 792.890 C 856.332 794.661, 857.349 794.883, 858.974 794.014 C 860.588 793.150, 861 791.928, 861 788 C 861 783.868, 861.524 782.473, 864.234 779.386 C 870.220 772.568, 878.027 771.216, 886.634 775.505 C 889.399 776.883, 892.699 779.115, 893.968 780.466 C 895.785 782.400, 896.672 782.711, 898.138 781.926 C 900.964 780.414, 900.384 777.431, 896.411 773.033 C 891.690 767.807, 883.213 763.640, 878.439 764.197 C 875.393 764.553, 874.651 764.230, 873.512 762.058 C 869.896 755.161, 857.827 748.506, 854.667 751.667" fill="#FFFFFF" stroke="#000000" stroke-width="2" />
    <path id="bush_left" d="M 193.847 689.512 C 190.817 690.483, 188.200 692.241, 186.347 694.550 C 178.671 704.109, 177.660 704.422, 173.933 698.392 C 170.846 693.397, 164.173 689.863, 156.710 689.270 C 149.077 688.664, 143.850 690.002, 137.550 694.175 C 125.421 702.209, 122.620 717.681, 131.144 729.552 C 134.177 733.775, 134.226 734.005, 132.618 736.460 C 131.703 737.857, 130.731 739, 130.458 739 C 130.185 739, 127.432 737.650, 124.340 736 C 111.558 729.179, 95.123 734.429, 87.230 747.855 C 84.871 751.869, 84.500 753.587, 84.500 760.500 C 84.500 767.459, 84.864 769.119, 87.296 773.257 C 90.363 778.474, 93.475 780.955, 98.930 782.532 C 101.723 783.339, 102.500 784.078, 102.500 785.923 C 102.500 788.454, 101.121 789.539, 96.725 790.466 C 91.911 791.481, 86.333 797.445, 84.999 803.005 C 82.903 811.742, 85.018 818.782, 91.668 825.198 C 101.222 834.416, 116.871 837.709, 132.676 833.826 L 136.853 832.800 133.476 828.100 C 131.619 825.515, 129.639 821.398, 129.074 818.950 C 127.750 813.205, 127.737 813.406, 129.569 811.573 C 131.861 809.281, 134.706 811.195, 135.967 815.877 C 137.487 821.523, 144.073 828.423, 151.303 831.946 C 161.670 836.998, 168.869 838.405, 184.500 838.434 C 196.346 838.455, 199.654 838.104, 206 836.148 C 221.546 831.357, 232.406 822.951, 235.913 812.991 C 237.958 807.185, 239.198 806.090, 241.534 808.028 C 244.334 810.352, 242.999 818.108, 238.241 827.158 C 237.616 828.347, 248.958 831.993, 258.320 833.613 C 272.513 836.068, 284.694 834.449, 297.500 828.403 C 317.449 818.986, 326.293 800.507, 318.187 785.182 C 314.568 778.341, 309.457 773.118, 302.802 769.461 C 298.133 766.894, 296.485 766.544, 289 766.523 C 283.824 766.509, 279.173 767.060, 277.106 767.931 C 273.913 769.277, 273.603 769.229, 271.888 767.110 C 270.110 764.914, 270.125 764.768, 272.483 761.179 C 277.600 753.395, 277.526 745.055, 272.274 737.582 C 267.022 730.110, 254.746 725.646, 245.954 728.011 C 240.165 729.569, 236.140 731.630, 232.815 734.739 C 227.352 739.847, 222.237 734.823, 226.855 728.885 C 235.744 717.454, 230.455 697.978, 216.500 690.754 C 211.308 688.067, 200.244 687.460, 193.847 689.512 M 182.500 739.811 C 178.333 742.388, 173.416 748.207, 171.928 752.323 C 170.761 755.549, 170.339 755.808, 165.589 756.211 C 159.660 756.715, 154.947 758.771, 149.582 763.193 C 142.990 768.627, 138.774 780.907, 142.452 783.960 C 145.075 786.137, 147.231 784.711, 148.642 779.868 C 152.215 767.603, 167.926 761.493, 180.652 767.418 C 186.918 770.336, 191 775.757, 191 781.161 C 191 784.573, 192.992 788, 194.977 788 C 195.435 788, 197.665 786.451, 199.931 784.557 C 208.656 777.268, 224.367 779.281, 230.381 788.459 C 231.560 790.258, 232.836 791.022, 234.313 790.811 C 236.152 790.550, 236.481 789.892, 236.380 786.682 C 236.239 782.203, 231.929 777.082, 225.500 773.754 C 220.018 770.917, 208.814 770.215, 203.623 772.384 C 198.403 774.565, 198.316 774.540, 196.093 770.182 C 193.717 765.525, 187.295 759.568, 182.484 757.558 L 178.924 756.070 180.934 752.130 C 183.022 748.036, 186.738 744.535, 190.141 743.455 C 191.461 743.036, 192.014 742.110, 191.808 740.664 C 191.396 737.770, 186.523 737.323, 182.500 739.811" fill="#FFFFFF" stroke="#000000" stroke-width="2" />
  </g>
  <g id="outlines" pointer-events="none">
    <path d="M 507.500 75.626 C 506.400 75.842, 503.025 76.506, 500 77.101 C 493.430 78.392, 483.734 83.476, 475.500 89.947 C 472.200 92.540, 463.650 99.092, 456.500 104.507 C 442.047 115.453, 419.174 132.888, 397.672 149.350 C 379.749 163.071, 356.808 180.398, 355.500 181.201 C 354.859 181.595, 354.618 179.365, 354.829 174.997 C 355.129 168.756, 355.361 168.126, 357.560 167.574 C 360.715 166.782, 366.662 161.506, 368.801 157.602 C 370.206 155.037, 370.500 151.642, 370.500 138 C 370.500 121.803, 370.450 121.414, 367.751 116.824 C 364.044 110.517, 357.615 107.399, 345.500 106.032 C 334.911 104.837, 271.870 104.766, 251 105.925 C 224.368 107.404, 220.077 112, 220.024 139.101 C 219.990 157.076, 222.038 161.915, 231.682 166.633 L 237.315 169.389 236.657 200.857 C 236.296 218.165, 236 241.146, 236 251.925 L 236 271.523 229.750 276.124 C 226.313 278.654, 207.240 293.048, 187.367 308.112 C 167.494 323.175, 144.994 340.225, 137.367 346 C 120.113 359.065, 115.011 364.200, 110.810 372.734 C 107.760 378.930, 107.501 380.206, 107.516 388.979 C 107.530 397.518, 107.849 399.170, 110.609 405 C 116.162 416.728, 127.175 426.841, 139.637 431.657 C 148.436 435.056, 160.478 435.302, 169.250 432.262 L 175 430.269 175 557.218 C 175 627.040, 174.662 683.995, 174.250 683.785 C 162.284 677.702, 161.589 677.499, 153 677.578 C 143.630 677.664, 136.666 679.867, 129.797 684.918 C 120.210 691.968, 114.243 704.717, 115.264 715.970 L 115.786 721.729 107.910 722.269 C 101.340 722.719, 98.989 723.393, 93.727 726.336 C 86.050 730.629, 78.045 738.866, 75.061 745.545 C 70.161 756.507, 71.489 770.582, 78.391 780.838 C 81.701 785.756, 81.739 785.927, 79.894 787.596 C 78.854 788.537, 76.652 792.011, 75.001 795.314 C 72.446 800.428, 72 802.463, 72 809.025 C 72 815.853, 72.405 817.540, 75.548 823.823 C 85.655 844.026, 112.401 852.864, 138.500 844.624 L 145.500 842.415 153.624 845.213 C 165.740 849.386, 178.567 851.037, 190.582 849.969 C 206.379 848.566, 218.756 844.787, 227.316 838.754 L 230.132 836.770 237.816 839.776 C 252.149 845.383, 249.265 845.245, 348 845.039 L 439.500 844.847 439.807 852.600 C 440.042 858.518, 440.609 861.047, 442.206 863.289 C 446.525 869.354, 435.257 869, 623.733 869 C 789.177 869, 796.676 868.922, 799.938 867.173 C 804.540 864.705, 807 859.814, 807 853.134 L 807 847.737 811.072 848.283 C 815.628 848.894, 825.592 847.700, 834.214 845.511 C 839.489 844.171, 840.398 844.210, 846.053 846.017 C 868.018 853.034, 896.822 854.504, 915.877 849.582 C 928.783 846.247, 936.774 842.272, 943.656 835.764 C 951.257 828.575, 954.402 821.671, 954.448 812.069 C 954.494 802.506, 952.977 797.501, 948.415 792.172 L 944.801 787.950 947.256 784.725 C 952.704 777.569, 954.351 772.923, 954.780 763.500 C 955.355 750.867, 953.019 744.836, 944.091 735.909 C 935.732 727.549, 929.020 724.644, 917.866 724.559 L 910.233 724.500 909.766 718 C 908.688 702.982, 896.822 690.020, 880.719 686.269 C 873.814 684.661, 864.841 685.204, 859.171 687.573 C 857.293 688.358, 855.586 689, 855.378 689 C 855.170 689, 855 630.319, 855 558.597 L 855 428.194 862.250 431.261 C 875.686 436.945, 892.024 434.968, 906.062 425.960 C 916.488 419.270, 923.949 409.410, 926.517 398.929 C 929.446 386.977, 927.153 376.898, 918.967 365.750 C 914.915 360.232, 908.368 354.919, 870.524 326.435 C 846.457 308.321, 823.106 290.816, 818.633 287.535 C 811.470 282.282, 782.896 260.935, 759.500 243.357 C 755.100 240.051, 737.333 226.806, 720.018 213.923 C 702.703 201.040, 674.069 179.700, 656.387 166.500 C 557.585 92.743, 547.014 85.046, 538.905 80.952 C 530.086 76.500, 515.566 74.038, 507.500 75.626" fill="none" stroke="#000000" stroke-width="3" stroke-linecap="round" stroke-linejoin="round" />
    <path d="M 512.595 174.846 C 512.307 175.312, 499.435 185.309, 483.989 197.062 L 455.905 218.432 464.703 222.855 C 483.218 232.165, 498.738 235.751, 515.924 234.689 C 528.768 233.896, 540.876 230.314, 555.764 222.902 C 562.685 219.457, 568.704 217.056, 569.578 217.392 C 570.640 217.799, 571.029 219.011, 570.814 221.243 C 570.541 224.076, 569.488 225.169, 562.722 229.641 C 553.508 235.732, 538.508 241.388, 525.605 243.637 C 504.033 247.396, 479.248 242.795, 461 231.642 C 457.425 229.457, 453.368 226.636, 451.985 225.372 L 449.469 223.075 444.996 226.615 C 442.536 228.562, 429.385 238.558, 415.772 248.828 C 391.116 267.429, 391.030 267.507, 393.261 269.240 C 398.043 272.956, 412.940 279.898, 422 282.633 C 430.703 285.260, 432.800 285.499, 447 285.492 C 460.284 285.485, 463.572 285.157, 470 283.196 C 481.260 279.761, 490.419 275.390, 501.308 268.256 C 506.702 264.722, 511.663 262.041, 512.333 262.298 C 513.003 262.555, 517.138 265.339, 521.523 268.485 C 530.290 274.774, 538.057 278.598, 550.390 282.696 C 557.754 285.143, 559.925 285.396, 574 285.445 C 587.205 285.492, 590.684 285.164, 597.500 283.231 C 606.936 280.554, 616.902 276.223, 626.243 270.739 C 633.713 266.354, 636 266.402, 636 270.945 C 636 274.905, 629.042 280.484, 616.590 286.510 C 600.864 294.120, 594.270 295.506, 574 295.461 C 557.014 295.423, 556.218 295.328, 546.907 292.215 C 536.230 288.644, 526.914 283.982, 517.285 277.390 L 510.866 272.995 504.683 277.381 C 496.588 283.125, 484.571 289.077, 474 292.578 C 465.934 295.249, 464.556 295.395, 447 295.429 L 428.500 295.465 417.400 291.731 C 406.852 288.183, 391.976 280.085, 386.318 274.813 L 384.137 272.780 355.711 294.139 L 327.286 315.498 330.393 317.863 C 334.864 321.266, 346.999 326.696, 356.929 329.737 C 364.487 332.051, 367.273 332.370, 380.500 332.431 C 393.288 332.490, 396.663 332.163, 403.384 330.216 C 417.774 326.048, 423.177 323.318, 441.900 310.755 C 445.601 308.272, 448.447 308.578, 452.215 311.866 C 460.531 319.123, 474.314 326.077, 488.549 330.197 C 495.295 332.150, 498.697 332.488, 511 332.427 C 523.759 332.365, 526.555 332.034, 534.284 329.673 C 546.443 325.958, 554.485 322.141, 565.071 315.060 C 570.054 311.727, 574.898 309, 575.835 309 C 576.772 309, 580.230 311.024, 583.520 313.498 C 591.750 319.689, 602.638 325.173, 614.500 329.104 C 624.116 332.290, 625.095 332.416, 640 332.390 C 653.834 332.367, 656.360 332.089, 663.500 329.805 C 674.325 326.342, 682.651 322.753, 689.654 318.530 C 696.833 314.201, 699.706 313.979, 700.635 317.682 C 701.207 319.959, 700.719 320.864, 697.404 323.676 C 692.200 328.089, 679.845 334.472, 669.722 337.976 C 640.782 347.994, 607.149 342.507, 582.425 323.735 L 575.350 318.363 570.925 322.194 C 565.917 326.531, 552.818 333.584, 542.716 337.384 C 518.354 346.548, 487.232 344.191, 464.500 331.460 C 459.300 328.548, 450.724 322.798, 447.824 320.279 C 446.327 318.979, 445.578 319.251, 440.824 322.816 C 429.044 331.649, 412.777 338.659, 397.289 341.576 C 385.589 343.779, 366.621 343.075, 356 340.043 C 346.506 337.332, 332.054 330.296, 325.270 325.081 L 320.040 321.061 313.770 325.828 C 310.321 328.449, 298.950 337.045, 288.500 344.930 C 263.475 363.811, 264.889 362.353, 269.103 364.918 C 275.245 368.658, 289.564 373.852, 298.612 375.624 C 321.602 380.125, 347.051 375.219, 367.096 362.422 C 376.075 356.689, 379.501 355, 382.149 355 C 383.385 355, 387.468 357.061, 391.222 359.579 C 419.185 378.341, 450.530 382.284, 480.365 370.795 C 487.338 368.109, 491.548 365.870, 505.800 357.266 C 507.835 356.038, 510.643 355.025, 512.041 355.016 C 513.438 355.007, 518.163 357.273, 522.541 360.050 C 533.332 366.897, 545.590 372.630, 553.198 374.389 C 571.484 378.616, 583.866 378.510, 601.590 373.977 C 609.357 371.991, 626.724 363.870, 634.427 358.624 C 641.887 353.543, 644.275 353.776, 654.500 360.585 C 682.822 379.445, 715.294 382.427, 747.074 369.087 C 751.158 367.373, 756.740 364.562, 759.477 362.842 L 764.454 359.714 762.010 358.107 C 757.787 355.331, 743.002 344.278, 691.191 305.164 C 683.661 299.479, 670.075 289.263, 661 282.462 C 651.925 275.660, 640 266.612, 634.500 262.355 C 629 258.098, 615.187 247.781, 603.805 239.429 C 592.423 231.077, 579.823 221.672, 575.805 218.528 C 571.787 215.384, 558.600 205.526, 546.500 196.622 C 514.517 173.086, 513.920 172.703, 512.595 174.846" fill="none" stroke="#000000" stroke-width="3" stroke-linecap="round" stroke-linejoin="round" />
    <path d="M 242.863 119.736 C 234.234 120.283, 233.570 121.456, 233.175 136.872 C 232.876 148.538, 233.018 149.753, 234.971 152.235 C 236.137 153.718, 238.758 155.394, 240.795 155.960 C 245.697 157.321, 340.810 157.356, 348.114 155.999 C 356.397 154.461, 357 153.240, 357 138 C 357 123.074, 356.233 121.351, 348.964 119.948 C 344.771 119.139, 255.101 118.960, 242.863 119.736 M 250.001 215.372 C 250 251.930, 250.254 261.045, 251.250 260.258 C 261.085 252.493, 327.223 202.368, 335.223 196.615 L 340.947 192.500 340.973 180.622 L 341 168.743 295.501 169.122 L 250.002 169.500 250.001 215.372" fill="none" stroke="#000000" stroke-width="3" stroke-linecap="round" stroke-linejoin="round" />
    <path d="M 504.166 90.534 C 497.322 92.019, 491.640 94.952, 485.229 100.308 C 482.993 102.177, 473.364 109.617, 463.832 116.842 C 454.299 124.067, 439.975 134.966, 432 141.061 C 424.025 147.157, 401.610 164.149, 382.189 178.822 C 362.768 193.495, 340.943 210.013, 333.689 215.528 C 326.435 221.044, 302.950 238.790, 281.500 254.964 C 260.050 271.138, 233.275 291.357, 222 299.895 C 210.725 308.432, 188 325.579, 171.500 337.997 C 129.396 369.686, 129.259 369.794, 126.522 373.382 C 120.599 381.147, 119.232 391.716, 123.113 399.734 C 126.242 406.198, 133.588 413.158, 141.176 416.848 C 146.702 419.535, 149.029 420.097, 154.676 420.105 C 161.691 420.115, 167.729 418.511, 172.680 415.322 C 175.717 413.366, 186.230 405.474, 208.649 388.324 C 216.431 382.371, 229.027 372.775, 236.642 367 C 244.256 361.225, 261.974 347.725, 276.016 337 C 300.201 318.527, 313.452 308.504, 402.327 241.456 C 494.610 171.835, 505.887 163.263, 509.185 160.224 C 512.960 156.746, 515.805 157.118, 523.121 162.050 C 529.267 166.193, 701.704 295.426, 767.561 345.246 C 785.195 358.586, 810.620 377.788, 824.061 387.917 C 837.503 398.047, 850.525 408, 853 410.036 C 862.750 418.054, 873.666 421.569, 883.795 419.952 C 899.396 417.461, 914.024 402.430, 914.005 388.910 C 913.998 383.996, 908.749 373.884, 904.103 369.834 C 898.315 364.788, 890.452 358.787, 868.500 342.658 C 850.843 329.685, 818.889 305.797, 774.500 272.387 C 748.258 252.636, 677.682 199.996, 634.500 167.967 C 626.800 162.256, 604.454 145.639, 584.843 131.041 C 530.035 90.245, 534.099 92.943, 523.800 90.515 C 516.205 88.724, 512.486 88.728, 504.166 90.534 M 635.240 373.108 C 622.294 381.550, 603.907 387.922, 586.486 390.002 C 565.213 392.542, 541.909 386.998, 521.087 374.446 C 516.119 371.451, 511.785 369, 511.457 369 C 511.129 369, 508.979 370.291, 506.680 371.868 C 489.159 383.890, 460.119 392.067, 440.500 390.503 C 429.670 389.640, 419.347 387.447, 410.156 384.056 C 402.483 381.225, 400.238 380.092, 387.818 372.784 L 381.135 368.852 375.818 372.201 C 361.466 381.240, 346.011 387.008, 329.500 389.487 C 317.035 391.358, 312.982 391.362, 300.730 389.516 C 286.527 387.375, 266.806 379.911, 256.941 372.943 L 254.381 371.135 244.441 378.727 C 238.973 382.903, 229.775 389.937, 224 394.359 C 218.225 398.781, 208.438 406.182, 202.250 410.806 L 191 419.213 190.999 489.856 C 190.999 528.710, 190.699 587.216, 190.334 619.870 L 189.670 679.240 192.085 678.370 C 193.413 677.891, 199.225 677.500, 205 677.500 C 214.697 677.500, 215.948 677.729, 221.362 680.500 C 233.386 686.653, 241.675 699.087, 242.172 711.713 L 242.399 717.500 251.805 717.150 C 260.924 716.810, 261.434 716.910, 268.551 720.428 C 280.827 726.495, 287.064 735.726, 287.347 748.246 L 287.500 754.993 291.022 754.996 C 301.114 755.007, 316.289 762.527, 322.796 770.742 C 327.123 776.206, 330.707 783.304, 331.496 787.976 L 332.176 792 361.338 792.022 C 377.377 792.035, 406.896 792.066, 426.936 792.091 L 463.372 792.138 464.624 789.748 C 466.679 785.826, 473.487 781.756, 478.855 781.240 L 483.673 780.777 484.336 708.138 C 484.700 668.187, 485.038 599.725, 485.086 556 C 485.134 512.275, 485.490 470.875, 485.877 464 C 486.733 448.812, 488.336 445.522, 496.963 441.257 L 502.427 438.557 561.463 437.755 C 620.696 436.950, 726.659 437.462, 743.500 438.634 C 756.005 439.504, 761.157 442.393, 765.554 451 C 767.163 454.150, 767.414 459.205, 768.058 501.500 C 768.453 527.350, 768.938 594.873, 769.138 651.552 L 769.500 754.603 773.880 751.261 C 779.880 746.682, 784.359 744.964, 792 744.307 L 798.500 743.748 798.500 735.124 C 798.500 728.801, 798.984 725.528, 800.314 722.855 C 803.550 716.353, 808.818 711.215, 815.744 707.805 C 821.626 704.909, 823.345 704.530, 830.452 704.557 C 834.943 704.574, 838.825 704.126, 839.235 703.544 C 839.639 702.970, 839.968 638.375, 839.967 560 L 839.965 417.500 807.887 393.500 C 790.244 380.300, 775.427 369.358, 774.959 369.185 C 774.491 369.011, 771.624 370.459, 768.587 372.401 C 756.730 379.986, 739.818 386.614, 726 389.091 C 716.076 390.870, 696.354 390.653, 687.402 388.666 C 676.870 386.329, 661.683 380.092, 651.456 373.903 L 642.413 368.430 635.240 373.108" fill="none" stroke="#000000" stroke-width="3" stroke-linecap="round" stroke-linejoin="round" />
    <path d="M 236.883 451.310 C 232.319 452.493, 228.427 455.722, 226.575 459.864 C 225.102 463.156, 224.975 472.917, 225.224 563.177 C 225.500 662.732, 225.503 662.857, 227.605 665.677 C 228.762 667.230, 231.237 669.400, 233.105 670.500 C 236.440 672.465, 238.298 672.500, 339 672.500 L 441.500 672.500 445.179 670.212 C 447.339 668.869, 449.713 666.158, 450.929 663.647 C 452.980 659.409, 453 658.437, 453 562 C 453 464.822, 452.996 464.623, 450.879 460.250 C 449.665 457.742, 447.157 454.809, 445.016 453.392 L 441.275 450.916 340.642 450.708 C 285.294 450.594, 238.602 450.865, 236.883 451.310 M 517 449.897 C 509.195 450.246, 502.585 451.024, 501.330 451.742 C 500.137 452.426, 498.714 454.451, 498.168 456.242 C 497.538 458.308, 496.983 518.307, 496.649 620.250 L 496.122 781 503.061 781 L 510 781 510.004 626.250 C 510.007 474.784, 510.049 471.432, 511.950 468.314 C 513.019 466.561, 514.930 464.557, 516.196 463.858 C 519.400 462.094, 730.960 461.827, 735.500 463.583 C 737.150 464.220, 739.625 465.961, 741 467.452 L 743.500 470.161 743.759 625.580 L 744.019 781 750.759 781 L 757.500 781 757.282 654.250 C 756.998 489.662, 756.658 458.097, 755.135 455.252 C 754.478 454.025, 752.492 452.238, 750.720 451.281 C 747.721 449.661, 740.045 449.533, 639 449.418 C 579.325 449.350, 524.425 449.565, 517 449.897" fill="none" stroke="#000000" stroke-width="3" stroke-linecap="round" stroke-linejoin="round" />
    <path d="M 239.374 458.689 C 238.205 458.919, 236.180 460.244, 234.874 461.634 L 232.500 464.162 232.330 560.786 C 232.146 665.853, 231.943 661.887, 237.613 664.043 C 239.155 664.629, 278.699 665, 339.642 665 L 439.154 665 442.077 662.077 L 445 659.154 445 562.527 C 445 456.175, 445.306 461.348, 438.881 459.108 C 436.628 458.323, 407.413 458.040, 338.601 458.136 C 285.195 458.211, 240.543 458.460, 239.374 458.689 M 518.655 471.829 C 517.141 473.501, 517.006 480.866, 517.071 558.079 C 517.140 640.707, 517.180 642.415, 518.971 638.500 C 524.723 625.930, 540.681 619.493, 552.637 624.922 C 563.030 629.642, 569 638.470, 569 649.119 C 569 664.019, 557.835 675.031, 542.782 674.978 C 532.219 674.941, 524.569 669.822, 519.445 659.363 L 517.063 654.500 517.031 717.750 L 517 781 627.122 781 L 737.244 781 736.679 627.250 C 736.369 542.688, 736.089 473.420, 736.057 473.321 C 736.026 473.223, 735.293 472.436, 734.429 471.571 C 733.020 470.163, 721.863 470, 626.584 470 C 524.897 470, 520.239 470.079, 518.655 471.829" fill="none" stroke="#000000" stroke-width="3" stroke-linecap="round" stroke-linejoin="round" />
    <path d="M 254.374 473.803 C 253.205 473.970, 251.180 475.244, 249.874 476.634 L 247.500 479.161 247.233 562.005 L 246.966 644.849 249.233 647.465 L 251.500 650.081 338.452 650.025 L 425.404 649.969 427.702 647.810 L 430 645.651 430 562.841 L 430 480.032 427.250 476.986 L 424.500 473.940 340.500 473.720 C 294.300 473.599, 255.543 473.636, 254.374 473.803 M 333 517 C 333 551.667, 332.926 553.074, 331 555 C 329.072 556.928, 327.667 557, 292 557 L 255 557 255 561.995 L 255 566.991 292.571 566.902 C 327.966 566.818, 330.224 566.920, 331.540 568.657 C 332.674 570.154, 332.942 577.264, 332.966 606.500 L 332.996 642.500 338.998 642.161 L 345 641.822 345 606.066 C 345 570.986, 345.040 570.274, 347.105 568.405 C 349.094 566.605, 351.218 566.500, 385.605 566.500 L 422 566.500 422 561.750 L 422 557 385.155 557 C 350.730 557, 348.201 556.880, 346.655 555.171 C 345.179 553.541, 345 549.426, 345 517.171 L 345 481 339 481 L 333 481 333 517 M 258.424 484.917 C 258.191 485.146, 258 498.983, 258 515.667 L 258 546 290 546 L 322 546 322 515.165 L 322 484.330 290.424 484.415 C 273.058 484.462, 258.658 484.688, 258.424 484.917 M 355 515.115 L 355 546 387 546 L 419 546 418.996 515.250 L 418.991 484.500 386.996 484.365 L 355 484.231 355 515.115 M 289.750 577.749 L 258 578.028 258 608.514 L 258 639 290 639 L 322 639 322 608 C 322 590.950, 321.887 577.106, 321.750 577.235 C 321.613 577.365, 307.212 577.596, 289.750 577.749 M 386.750 577.764 L 355 578.028 355 608.487 L 355 638.945 386.750 639.222 C 404.212 639.375, 418.619 639.456, 418.764 639.402 C 418.910 639.348, 418.910 625.398, 418.764 608.402 L 418.500 577.500 386.750 577.764" fill="none" stroke="#000000" stroke-width="3" stroke-linecap="round" stroke-linejoin="round" />
    <path d="M 577.500 520.328 C 564.946 525.251, 557.574 535.045, 556.321 548.470 C 555.307 559.322, 560.341 573.389, 569.917 586.468 C 578.409 598.067, 607.508 625.457, 622.030 635.521 C 625.330 637.807, 626.447 638.118, 628.316 637.266 C 633.008 635.128, 653.980 617.158, 667.059 604.069 C 681.774 589.342, 688.593 580.380, 693.361 569.500 C 696.132 563.176, 696.431 561.487, 696.464 552 C 696.498 542.196, 696.303 541.145, 693.534 536.145 C 690.286 530.281, 684.035 524.241, 678.225 521.352 C 675.275 519.885, 672.213 519.502, 663.500 519.509 C 653.601 519.516, 651.849 519.803, 646 522.369 C 642.425 523.938, 636.564 527.353, 632.976 529.958 L 626.452 534.694 621.476 530.802 C 610.918 522.544, 600.861 518.960, 588.568 519.076 C 584.131 519.118, 579.150 519.681, 577.500 520.328" fill="none" stroke="#000000" stroke-width="3" stroke-linecap="round" stroke-linejoin="round" />
    <path d="M 577.500 520.328 C 564.946 525.251, 557.574 535.045, 556.321 548.470 C 555.307 559.322, 560.341 573.389, 569.917 586.468 C 578.409 598.067, 607.508 625.457, 622.030 635.521 C 625.330 637.807, 626.447 638.118, 628.316 637.266 C 633.008 635.128, 653.980 617.158, 667.059 604.069 C 681.774 589.342, 688.593 580.380, 693.361 569.500 C 696.132 563.176, 696.431 561.487, 696.464 552 C 696.498 542.196, 696.303 541.145, 693.534 536.145 C 690.286 530.281, 684.035 524.241, 678.225 521.352 C 675.275 519.885, 672.213 519.502, 663.500 519.509 C 653.601 519.516, 651.849 519.803, 646 522.369 C 642.425 523.938, 636.564 527.353, 632.976 529.958 L 626.452 534.694 621.476 530.802 C 610.918 522.544, 600.861 518.960, 588.568 519.076 C 584.131 519.118, 579.150 519.681, 577.500 520.328" fill="none" stroke="#000000" stroke-width="3" stroke-linecap="round" stroke-linejoin="round" />
    <path d="M 580.036 531.858 C 574.655 534.116, 569.270 540.046, 568.403 544.667 C 566.479 554.924, 570.264 567.669, 578.710 579.373 C 585.771 589.156, 606.249 608.946, 622.484 621.674 L 626.468 624.797 630.484 621.681 C 648.996 607.318, 669.454 586.962, 677.011 575.385 C 682.855 566.433, 686.499 555.757, 685.712 549.890 C 684.429 540.322, 678.453 533.277, 669.599 530.892 C 659.789 528.249, 643.824 534.192, 633.719 544.248 C 630.540 547.411, 627.239 550, 626.384 550 C 625.529 550, 623.405 548.370, 621.665 546.379 C 617.179 541.245, 608.469 534.986, 602.830 532.844 C 595.394 530.018, 585.444 529.588, 580.036 531.858" fill="none" stroke="#000000" stroke-width="3" stroke-linecap="round" stroke-linejoin="round" />
    <path d="M 541.500 633.501 C 540.950 633.679, 539.297 634.089, 537.827 634.412 C 530.958 635.921, 525.892 645.571, 528.101 652.943 C 532.396 667.278, 552.270 668.333, 557.551 654.506 C 561.111 645.183, 555.792 636.706, 544.500 633.709 C 543.400 633.417, 542.050 633.324, 541.500 633.501" fill="none" stroke="#000000" stroke-width="3" stroke-linecap="round" stroke-linejoin="round" />
    <path d="M 331.596 804.250 C 330.651 810.341, 326.258 818.542, 320.650 824.686 L 315.799 830 378.374 830 L 440.949 830 442.379 827.250 C 445.227 821.776, 452.483 817, 457.950 817 L 461 817 461 808.500 L 461 800 396.628 800 L 332.256 800 331.596 804.250" fill="none" stroke="#000000" stroke-width="3" stroke-linecap="round" stroke-linejoin="round" />
    <path d="M 459.139 828.993 C 453.165 830.415, 452.537 831.815, 452.164 844.533 L 451.828 856 622.914 856 L 794 856 794 846.649 C 794 841.506, 793.542 835.985, 792.982 834.379 C 790.783 828.071, 803.137 828.515, 625 828.346 C 535.625 828.262, 460.988 828.553, 459.139 828.993" fill="none" stroke="#000000" stroke-width="3" stroke-linecap="round" stroke-linejoin="round" />
    <path d="M 478.315 794.007 C 474.764 795.438, 474 798.257, 474 809.934 L 474 821 624.320 821 L 774.640 821 774.882 811.184 C 775.037 804.932, 774.668 800.366, 773.868 798.609 C 771.161 792.668, 780.002 792.994, 623.800 793.063 C 543.759 793.099, 479.536 793.515, 478.315 794.007" fill="none" stroke="#000000" stroke-width="3" stroke-linecap="round" stroke-linejoin="round" />
    <path d="M 860.249 699.563 C 854.247 702.554, 849 709.508, 849 714.471 C 849 719.951, 845.708 721.489, 841.337 718.051 C 833.197 711.647, 816.733 716.013, 811.079 726.074 C 806.960 733.402, 808.848 746.071, 814.855 751.405 C 817.378 753.646, 817.615 756.245, 815.459 758.034 C 814.183 759.093, 813.107 758.899, 809.209 756.907 C 802.881 753.672, 792.714 753.658, 785.500 756.874 C 776.301 760.974, 770.069 769.173, 770.022 777.237 C 770.003 780.515, 770.399 781.140, 773.250 782.335 C 778.217 784.416, 783.085 788.979, 785.120 793.459 C 786.488 796.469, 786.962 799.958, 786.978 807.139 L 787 816.777 790.337 817.403 C 795.083 818.294, 801.349 824.059, 803.824 829.813 C 805.886 834.605, 806.064 834.740, 811.969 835.993 C 816.659 836.989, 819.281 837.019, 823.712 836.129 C 828.819 835.103, 833.251 833, 830.304 833 C 828.774 833, 823.338 824.151, 822.549 820.374 C 822.079 818.126, 822.364 816.779, 823.564 815.579 C 825.971 813.172, 827.086 813.954, 830.332 820.328 C 836.293 832.035, 848.387 837.364, 875.148 840.073 C 906.326 843.230, 932.485 835.429, 940.232 820.664 C 943.445 814.539, 943.216 805.866, 939.694 800.298 C 936.907 795.894, 930.695 791, 927.890 791 C 926.985 791, 925.703 790.347, 925.040 789.548 C 922.854 786.915, 924.317 784.661, 929.386 782.847 C 938.753 779.496, 943.382 772.541, 943.326 761.903 C 943.298 756.592, 942.739 754.290, 940.458 750.100 C 937.412 744.504, 930.363 738.566, 924.784 736.898 C 916.615 734.454, 905.399 736.398, 900.362 741.130 C 899.107 742.309, 897.208 743.025, 895.848 742.832 C 892.593 742.372, 892.075 737.613, 894.947 734.556 C 899.255 729.971, 900.278 719.411, 897.094 712.399 C 890.982 698.941, 873.629 692.896, 860.249 699.563 M 854.667 751.667 C 852.825 753.508, 854.316 755.975, 858.493 757.997 C 863.173 760.262, 868.320 766.060, 866.260 766.747 C 862.869 767.877, 855.945 774.483, 854.052 778.393 C 851.965 782.705, 851.788 782.822, 848.914 781.820 C 839.460 778.524, 821.220 789.544, 822.204 797.957 C 822.656 801.817, 825.748 801.761, 828.985 797.834 C 830.506 795.989, 833.875 793.418, 836.471 792.121 C 842.244 789.238, 849.146 789.544, 853.846 792.890 C 856.332 794.661, 857.349 794.883, 858.974 794.014 C 860.588 793.150, 861 791.928, 861 788 C 861 783.868, 861.524 782.473, 864.234 779.386 C 870.220 772.568, 878.027 771.216, 886.634 775.505 C 889.399 776.883, 892.699 779.115, 893.968 780.466 C 895.785 782.400, 896.672 782.711, 898.138 781.926 C 900.964 780.414, 900.384 777.431, 896.411 773.033 C 891.690 767.807, 883.213 763.640, 878.439 764.197 C 875.393 764.553, 874.651 764.230, 873.512 762.058 C 869.896 755.161, 857.827 748.506, 854.667 751.667" fill="none" stroke="#000000" stroke-width="3" stroke-linecap="round" stroke-linejoin="round" />
    <path d="M 193.847 689.512 C 190.817 690.483, 188.200 692.241, 186.347 694.550 C 178.671 704.109, 177.660 704.422, 173.933 698.392 C 170.846 693.397, 164.173 689.863, 156.710 689.270 C 149.077 688.664, 143.850 690.002, 137.550 694.175 C 125.421 702.209, 122.620 717.681, 131.144 729.552 C 134.177 733.775, 134.226 734.005, 132.618 736.460 C 131.703 737.857, 130.731 739, 130.458 739 C 130.185 739, 127.432 737.650, 124.340 736 C 111.558 729.179, 95.123 734.429, 87.230 747.855 C 84.871 751.869, 84.500 753.587, 84.500 760.500 C 84.500 767.459, 84.864 769.119, 87.296 773.257 C 90.363 778.474, 93.475 780.955, 98.930 782.532 C 101.723 783.339, 102.500 784.078, 102.500 785.923 C 102.500 788.454, 101.121 789.539, 96.725 790.466 C 91.911 791.481, 86.333 797.445, 84.999 803.005 C 82.903 811.742, 85.018 818.782, 91.668 825.198 C 101.222 834.416, 116.871 837.709, 132.676 833.826 L 136.853 832.800 133.476 828.100 C 131.619 825.515, 129.639 821.398, 129.074 818.950 C 127.750 813.205, 127.737 813.406, 129.569 811.573 C 131.861 809.281, 134.706 811.195, 135.967 815.877 C 137.487 821.523, 144.073 828.423, 151.303 831.946 C 161.670 836.998, 168.869 838.405, 184.500 838.434 C 196.346 838.455, 199.654 838.104, 206 836.148 C 221.546 831.357, 232.406 822.951, 235.913 812.991 C 237.958 807.185, 239.198 806.090, 241.534 808.028 C 244.334 810.352, 242.999 818.108, 238.241 827.158 C 237.616 828.347, 248.958 831.993, 258.320 833.613 C 272.513 836.068, 284.694 834.449, 297.500 828.403 C 317.449 818.986, 326.293 800.507, 318.187 785.182 C 314.568 778.341, 309.457 773.118, 302.802 769.461 C 298.133 766.894, 296.485 766.544, 289 766.523 C 283.824 766.509, 279.173 767.060, 277.106 767.931 C 273.913 769.277, 273.603 769.229, 271.888 767.110 C 270.110 764.914, 270.125 764.768, 272.483 761.179 C 277.600 753.395, 277.526 745.055, 272.274 737.582 C 267.022 730.110, 254.746 725.646, 245.954 728.011 C 240.165 729.569, 236.140 731.630, 232.815 734.739 C 227.352 739.847, 222.237 734.823, 226.855 728.885 C 235.744 717.454, 230.455 697.978, 216.500 690.754 C 211.308 688.067, 200.244 687.460, 193.847 689.512 M 182.500 739.811 C 178.333 742.388, 173.416 748.207, 171.928 752.323 C 170.761 755.549, 170.339 755.808, 165.589 756.211 C 159.660 756.715, 154.947 758.771, 149.582 763.193 C 142.990 768.627, 138.774 780.907, 142.452 783.960 C 145.075 786.137, 147.231 784.711, 148.642 779.868 C 152.215 767.603, 167.926 761.493, 180.652 767.418 C 186.918 770.336, 191 775.757, 191 781.161 C 191 784.573, 192.992 788, 194.977 788 C 195.435 788, 197.665 786.451, 199.931 784.557 C 208.656 777.268, 224.367 779.281, 230.381 788.459 C 231.560 790.258, 232.836 791.022, 234.313 790.811 C 236.152 790.550, 236.481 789.892, 236.380 786.682 C 236.239 782.203, 231.929 777.082, 225.500 773.754 C 220.018 770.917, 208.814 770.215, 203.623 772.384 C 198.403 774.565, 198.316 774.540, 196.093 770.182 C 193.717 765.525, 187.295 759.568, 182.484 757.558 L 178.924 756.070 180.934 752.130 C 183.022 748.036, 186.738 744.535, 190.141 743.455 C 191.461 743.036, 192.014 742.110, 191.808 740.664 C 191.396 737.770, 186.523 737.323, 182.500 739.811" fill="none" stroke="#000000" stroke-width="3" stroke-linecap="round" stroke-linejoin="round" />
  </g>
</svg>