<svg xmlns="http://www.w3.org/2000/svg" width="1024" height="1084" viewBox="0 0 1024 1084">
<defs>
  <style>
    .region { cursor:pointer; }
    .region:hover { opacity:0.7; }
    .swatch { cursor:pointer; stroke:transparent; stroke-width:3; }
    .swatch:hover { stroke:#fff; stroke-width:3; }
    .swatch.active { stroke:#fff; stroke-width:3.5; }
  </style>
</defs>

<!-- خلفية بيضاء -->
<rect width="1024" height="860" fill="white"/>

<!-- مناطق التلوين -->
<g id="colorRegions">
    <path id="body_main" class="region" d="M 601.500 188.173 C 596.550 188.671, 585.750 190.429, 577.500 192.081 C 505.552 206.488, 452.157 251.831, 425.686 321 C 415.203 348.391, 409.489 386.411, 411.934 412.500 C 415.156 446.879, 423.770 472.591, 440.396 497.457 C 444.028 502.889, 446.887 507.383, 446.750 507.444 C 446.612 507.504, 443.350 508.343, 439.500 509.308 C 430.514 511.559, 421.370 515.847, 413.354 521.567 L 406.994 526.105 401.247 521.420 C 398.086 518.844, 393.587 515.806, 391.250 514.669 C 388.912 513.532, 387.034 512.354, 387.076 512.051 C 387.118 511.748, 392.056 509.093, 398.049 506.152 C 409.573 500.495, 416 494.968, 416 490.714 C 416 489.460, 414.478 485.524, 412.618 481.967 C 410.758 478.410, 407.775 471.675, 405.990 467 C 404 461.789, 401.578 457.393, 399.732 455.640 C 396.971 453.017, 396.304 452.835, 391.697 453.446 C 386.100 454.188, 378.462 457.150, 366.500 463.217 C 346.176 473.524, 331 487.888, 331 496.815 C 331 498.501, 329.879 498.759, 320.098 499.318 C 285.536 501.296, 251.990 516.435, 229.346 540.273 C 216.926 553.348, 207.256 570.165, 203.546 585.144 L 201.652 592.787 191.076 592.782 C 176.095 592.775, 163.858 596.870, 151.429 606.052 C 136.311 617.221, 126.544 638.060, 128.488 655 C 128.835 658.025, 129.332 661.240, 129.593 662.145 C 129.945 663.364, 128.052 664.875, 122.284 667.978 C 93.113 683.676, 75.770 710.023, 73.465 742.143 C 71.713 766.544, 81.004 793.157, 97.407 810.727 C 109.889 824.096, 122.778 832.378, 139.710 837.907 C 160.841 844.808, 187.603 844.439, 206.898 836.982 C 209.867 835.835, 212.582 835.257, 212.932 835.698 C 213.282 836.139, 215.328 839.136, 217.480 842.357 C 234.289 867.527, 270.806 886.066, 313.492 891.101 C 326.988 892.692, 352.499 891.721, 366.720 889.075 C 392.039 884.362, 415.561 874.539, 430.325 862.513 L 435.916 857.958 443.208 863.594 C 472.155 885.966, 518.310 893.927, 555.267 882.921 C 583.993 874.365, 606.055 857.283, 616.545 835.474 L 620.034 828.220 624.267 829.209 C 626.595 829.752, 632.550 829.941, 637.500 829.629 C 676.561 827.161, 708.948 800.278, 719.645 761.442 C 722.152 752.341, 722.386 749.977, 722.415 733.500 C 722.441 718.090, 722.122 714.205, 720.193 706.500 C 715.607 688.175, 708.900 674.763, 696.690 659.502 L 689.879 650.990 689.431 638.858 C 689.011 627.474, 687.374 618.110, 684.826 612.518 C 683.101 608.732, 678.430 607.035, 672.413 608.006 C 669.615 608.458, 661.609 609.154, 654.623 609.552 C 640.085 610.380, 639 611.026, 639 618.853 L 639 623.262 635.250 622.612 C 623.642 620.601, 614.628 619.904, 607.750 620.484 L 600 621.137 600 616.027 C 600 610.464, 597.424 596.662, 595.831 593.684 C 595.285 592.664, 594.987 591.701, 595.169 591.544 C 595.351 591.387, 602.475 592.306, 611 593.585 C 668.891 602.273, 732.918 585.088, 777 549.031 C 805.569 525.663, 826.020 496.234, 837.827 461.500 C 849.903 425.976, 851.193 384.237, 841.381 346.500 C 826.812 290.464, 792.629 246.409, 741.500 217.775 C 700.690 194.920, 647.114 183.592, 601.500 188.173" fill="none" fill-rule="evenodd" stroke="none" onclick="fillRegion(this)" />
    <path id="body_inner" class="region" d="M 601.970 201.070 C 565.964 204.056, 527.502 218.721, 499.001 240.331 C 483.570 252.031, 464.132 274.120, 453.093 292.500 C 441.196 312.309, 431.336 339.678, 426.794 365.500 C 423.917 381.856, 423.645 414.917, 426.272 429 C 430.922 453.927, 441.902 479.363, 456.162 498.243 L 460.500 503.986 478 504.330 C 493.242 504.629, 496.781 505.022, 505.425 507.379 C 534.484 515.300, 559.172 531.853, 576.809 555.238 C 582.167 562.343, 588.356 572.395, 589.403 575.693 C 590.658 579.648, 629.286 584.769, 648.500 583.528 C 702.493 580.041, 746.571 561.640, 781.368 528.058 C 796.813 513.154, 807.716 498.057, 817.079 478.613 C 828.590 454.707, 833.668 434.031, 834.644 407.093 C 835.931 371.558, 829.340 340.615, 813.779 309.148 C 793.463 268.063, 757.941 236.454, 709.823 216.643 C 678.437 203.720, 638.882 198.009, 601.970 201.070" fill="none" fill-rule="evenodd" stroke="none" onclick="fillRegion(this)" />
    <path id="body_lower" class="region" d="M 315.500 511.614 C 301.690 513.615, 285.960 518.242, 273.470 523.979 C 251.236 534.191, 231.016 553.223, 220.653 573.693 C 217.280 580.356, 213 593.092, 213 596.467 C 213 597.905, 213.958 600.377, 215.129 601.960 C 216.602 603.954, 217.063 605.612, 216.626 607.353 C 215.646 611.257, 212.502 611.620, 207.812 608.369 C 204.190 605.859, 202.724 605.519, 194.017 605.170 C 178.419 604.543, 165.632 609.386, 154.398 620.173 C 143.620 630.522, 138.392 644.238, 140.920 655.531 C 142.124 660.914, 142.133 660.923, 145.313 660.212 C 147.066 659.821, 151.895 659.500, 156.045 659.500 C 164.796 659.500, 169 661.443, 169 665.488 C 169 668.742, 166.346 670, 159.482 670 C 147.384 670, 130.564 676.223, 117.372 685.580 C 98.021 699.306, 86 722.918, 86 747.202 C 86 769.874, 92.624 786.860, 107.784 803.065 C 119.529 815.620, 135.884 824.797, 153.379 828.650 C 163.104 830.791, 182.491 830.787, 191.353 828.640 C 202.680 825.898, 211.126 822.063, 216.207 817.359 C 221.413 812.538, 222.900 812.127, 225.345 814.829 C 227.674 817.402, 227.404 820.366, 224.530 823.782 L 222.060 826.717 225.588 832.609 C 243.559 862.622, 295.192 882.632, 344.988 878.882 C 375.441 876.588, 403.877 867.044, 423.503 852.530 C 430.567 847.306, 431 846.764, 431 843.148 C 431 838.882, 433.327 836, 436.772 836 C 439.519 836, 442 839.609, 442 843.606 C 442 851.384, 464.935 865.135, 488.893 871.722 C 497.755 874.158, 500.051 874.367, 518.500 874.408 C 537.156 874.449, 539.157 874.272, 548.277 871.777 C 559.391 868.736, 573.934 862.157, 582.698 856.205 C 591.260 850.391, 601.917 838.568, 605.830 830.544 C 608.766 824.522, 609.046 823.218, 608.443 818.392 C 607.688 812.350, 608.810 810, 612.448 810 C 614.712 810, 619 813.758, 619 815.742 C 619 817.293, 628.973 818.380, 636.893 817.693 C 658.201 815.846, 680.669 803.461, 693.539 786.467 C 711.810 762.342, 715.551 725.686, 702.953 694.223 C 691.833 666.453, 670.815 646.794, 642.500 637.677 C 631.528 634.145, 624.309 633, 613 633 C 602.448 633, 593.833 634.212, 587.217 636.627 C 583.825 637.865, 582.629 637.937, 581.467 636.973 C 578.832 634.786, 579.774 631.349, 584 627.732 C 587.831 624.453, 588 624.058, 587.993 618.404 C 587.985 612.062, 585.146 598.762, 581.985 590.261 C 576.862 576.487, 566.955 561.187, 556.032 550.181 C 526.788 520.714, 480.477 508.792, 443.021 521.087 C 427.155 526.295, 413.261 534.542, 410.949 540.122 C 408.069 547.076, 400 546.214, 400 538.952 C 400 536.648, 398.935 535.205, 394.859 531.983 C 378.789 519.280, 356.412 511.975, 332 511.463 C 324.575 511.307, 317.150 511.375, 315.500 511.614" fill="none" fill-rule="evenodd" stroke="none" onclick="fillRegion(this)" />
    <path id="head_top_right" class="region" d="M 671.748 96.427 C 660.954 100.279, 653.833 110.985, 647.568 132.778 C 643.234 147.856, 641.311 162.381, 642.978 167.435 C 644.648 172.492, 647.147 173.681, 657.500 174.341 C 662.450 174.656, 670.325 175.976, 675 177.273 C 679.794 178.603, 684.585 179.366, 685.989 179.023 C 692.179 177.511, 697.248 162.324, 698.637 141.129 C 700.245 116.595, 693.424 99.710, 680.451 96.108 C 675.731 94.798, 676.379 94.774, 671.748 96.427 M 670.781 108.958 C 665.146 113.390, 656.411 134.965, 653.505 151.630 C 651.091 165.475, 650.660 164.598, 660.250 165.363 C 664.788 165.725, 671.758 166.870, 675.739 167.908 L 682.978 169.795 683.953 166.147 C 687.182 154.065, 688.103 147.749, 688.113 137.625 C 688.129 122.561, 685.145 110.218, 680.945 107.971 C 678.022 106.406, 673.461 106.849, 670.781 108.958" fill="none" fill-rule="evenodd" stroke="none" onclick="fillRegion(this)" />
    <path id="head_top_left" class="region" d="M 551.604 99.987 C 541.010 103.345, 535.690 118.610, 538.002 139.021 C 540.678 162.640, 546.624 179.476, 553.006 181.502 C 554.110 181.852, 558.948 181.010, 563.757 179.629 C 568.566 178.249, 576.775 176.355, 582 175.420 C 587.225 174.486, 592.055 173.285, 592.733 172.752 C 596.895 169.482, 595.655 155.192, 589.675 137.500 C 581.698 113.904, 571.109 100.833, 558.919 99.539 C 556.489 99.281, 553.197 99.482, 551.604 99.987 M 553.750 111.080 C 548.445 114.170, 546.618 129.139, 549.427 146.500 C 551.293 158.034, 555.625 172.004, 557.332 171.992 C 557.974 171.988, 561.373 171.111, 564.884 170.043 C 568.396 168.976, 574.533 167.575, 578.523 166.932 L 585.778 165.761 585.286 161.631 C 583.975 150.620, 578.052 133.139, 572.577 124.127 C 570.622 120.909, 567.003 116.414, 564.534 114.138 C 560.014 109.972, 557.081 109.140, 553.750 111.080" fill="none" fill-rule="evenodd" stroke="none" onclick="fillRegion(this)" />
    <path id="arm_right" class="region" d="M 780.946 139.657 C 772.552 143.752, 755.103 161.911, 747.260 174.711 C 743.828 180.313, 740.475 186.934, 739.809 189.425 C 737.922 196.480, 739.193 198.576, 748.274 203.384 C 752.550 205.648, 759.676 210.088, 764.111 213.250 C 774.533 220.682, 776.850 220.804, 783.118 214.250 C 790.028 207.024, 793.296 202.386, 798.794 192 C 804.760 180.729, 810 164.894, 810 158.137 C 810 140.974, 796.217 132.207, 780.946 139.657 M 784.418 150.022 C 779.823 152.297, 769.333 161.970, 763.297 169.500 C 761.093 172.250, 756.740 178.744, 753.626 183.932 L 747.962 193.363 754.731 196.948 C 758.454 198.920, 764.288 202.438, 767.695 204.766 C 771.102 207.095, 774.309 209, 774.820 209 C 776.276 209, 785.331 195.339, 789.733 186.500 C 798.128 169.647, 800.911 154.883, 796.595 150.108 C 794.166 147.420, 789.738 147.389, 784.418 150.022" fill="none" fill-rule="evenodd" stroke="none" onclick="fillRegion(this)" />
    <path id="arm_left" class="region" d="M 438.500 141.932 C 431.839 145.357, 427.140 154.469, 428.505 161.315 C 431.862 178.151, 445.082 202.255, 459.184 217.250 C 467.767 226.378, 469.684 226.413, 480.594 217.650 C 484.942 214.158, 491.774 209.203, 495.776 206.640 C 499.778 204.077, 503.547 200.894, 504.152 199.566 C 506.587 194.221, 501.828 184.344, 490.137 170.485 C 482.598 161.547, 465.749 147.212, 458.430 143.509 C 451.231 139.866, 443.680 139.269, 438.500 141.932 M 442.789 152.008 C 436.149 156.074, 440.985 174.696, 453.564 193.500 C 460.046 203.189, 468.973 214, 470.491 214 C 471.186 214, 472.317 213.323, 473.003 212.496 C 473.690 211.669, 478.933 207.581, 484.655 203.411 L 495.058 195.829 492.853 192.165 C 486.197 181.101, 480.557 174.434, 470.161 165.346 C 457.210 154.023, 447.347 149.217, 442.789 152.008" fill="none" fill-rule="evenodd" stroke="none" onclick="fillRegion(this)" />
    <path id="shoulder_right" class="region" d="M 870.320 212.962 C 860.513 215.296, 840.017 225.712, 831.544 232.667 C 824.649 238.327, 817.054 246.367, 815.492 249.659 C 813.252 254.378, 814.043 256.753, 820.333 264.201 C 823.259 267.665, 827.991 273.943, 830.847 278.151 C 837.662 288.191, 839.077 288.710, 848.396 284.588 C 857.747 280.453, 866.061 274.113, 878.590 261.565 C 888.156 251.985, 891.340 248.074, 893.840 242.835 C 898.816 232.409, 898.112 223.853, 891.733 217.240 C 887.104 212.441, 879.168 210.855, 870.320 212.962 M 872 223.581 C 858.835 227.050, 837.222 239.833, 827.589 249.848 L 823.678 253.914 826.374 257.207 C 827.856 259.018, 831.057 263.200, 833.486 266.500 C 835.915 269.800, 838.733 273.569, 839.747 274.875 L 841.592 277.249 845.546 275.207 C 858.139 268.703, 880.493 247.014, 884.631 237.282 C 887.313 230.977, 886.284 225.715, 881.928 223.463 C 878.599 221.741, 878.999 221.737, 872 223.581" fill="none" fill-rule="evenodd" stroke="none" onclick="fillRegion(this)" />
    <path id="shoulder_left" class="region" d="M 359.994 232.873 C 346.920 237.171, 342.075 248.276, 347.966 260.435 C 351.020 266.738, 362.117 278.429, 372.448 286.228 C 382.107 293.519, 399.106 302.032, 405.431 302.745 C 411.208 303.396, 412.188 302.570, 417.009 292.982 C 419.119 288.786, 422.959 282.266, 425.542 278.492 C 428.282 274.490, 430.447 270.084, 430.738 267.920 C 431.181 264.617, 430.758 263.693, 426.890 259.497 C 421.230 253.356, 415.726 249.630, 403.516 243.675 C 385.341 234.810, 367.540 230.392, 359.994 232.873 M 362.090 243.873 C 360.765 244.244, 358.816 245.705, 357.760 247.120 C 356.118 249.318, 355.994 250.258, 356.900 253.596 C 359.399 262.799, 378.413 279.670, 396.500 288.733 C 406.122 293.554, 406.644 293.600, 408.566 289.801 C 409.484 287.985, 412.745 282.264, 415.812 277.087 L 421.389 267.675 417.444 264.255 C 409.283 257.177, 390.408 248.270, 376.500 244.933 C 368.109 242.920, 366.042 242.768, 362.090 243.873" fill="none" fill-rule="evenodd" stroke="none" onclick="fillRegion(this)" />
    <path id="mid_right" class="region" d="M 520.746 317.022 C 510.430 319.629, 497.879 329.359, 493.379 338.239 C 485.918 352.962, 486.821 369.677, 495.830 383.616 L 499.688 389.584 494.094 387.680 C 487.011 385.270, 474.544 385.771, 467.918 388.732 C 455.076 394.470, 452.484 406.649, 462.114 415.995 C 470.206 423.848, 481.184 427.092, 493.606 425.303 C 510.368 422.888, 517.566 411.008, 509.579 398.940 L 506.917 394.917 510.875 396.936 C 513.053 398.047, 517.987 399.445, 521.840 400.043 C 549.700 404.366, 572.690 379.597, 568.148 350.152 C 565.105 330.426, 551.172 317.342, 532.249 316.442 C 527.987 316.239, 522.811 316.500, 520.746 317.022 M 536.500 329.830 C 527.900 332.711, 525.100 342.628, 530.993 349.339 C 534.504 353.338, 538.573 354.426, 543.653 352.725 C 555.158 348.871, 553.223 332.032, 541 329.648 C 539.625 329.380, 537.600 329.462, 536.500 329.830" fill="none" fill-rule="evenodd" stroke="none" onclick="fillRegion(this)" />
    <path id="mid_left" class="region" d="M 889.500 325.004 C 881.108 326.050, 867.126 330.441, 862.710 333.416 C 857.598 336.861, 857.268 339.387, 860.249 352.226 C 861.688 358.427, 863.178 366.129, 863.560 369.341 C 864.004 373.079, 865.019 376.073, 866.379 377.654 C 868.356 379.953, 869.164 380.127, 878.002 380.162 C 893.164 380.222, 911.336 375.394, 924.828 367.721 C 937.750 360.373, 943.007 352.284, 941.498 342.071 C 940.534 335.549, 933.699 329.013, 925.448 326.725 C 918.237 324.725, 899.089 323.808, 889.500 325.004 M 892.107 335.260 C 887.410 335.686, 880.143 337.250, 875.607 338.813 C 868.932 341.113, 867.543 341.950, 867.746 343.553 C 867.881 344.624, 869.041 351.125, 870.324 358 L 872.657 370.500 876.579 370.756 C 884.110 371.248, 906.005 365.533, 916.139 360.430 C 927.799 354.558, 932.975 347.663, 929.596 342.506 C 925.551 336.333, 911.099 333.540, 892.107 335.260" fill="none" fill-rule="evenodd" stroke="none" onclick="fillRegion(this)" />
    <path id="mid_center_right" class="region" d="M 716.500 346.741 C 699.491 352.823, 687.799 371.996, 689.273 391.391 C 690.272 404.549, 696.292 415.229, 706.666 422.252 C 714.346 427.452, 721.449 429.347, 731.151 428.785 L 738.972 428.332 735.104 431.643 C 721.699 443.117, 729.333 459.093, 751.017 464.944 C 757.852 466.788, 760.009 466.964, 765.858 466.154 C 773.859 465.045, 777.264 463.457, 781.829 458.706 C 788.367 451.903, 787.158 443.081, 778.620 435.292 C 771.408 428.712, 765.115 426.574, 752.880 426.545 L 743.261 426.522 748.013 423.808 C 758.166 418.009, 766.174 405.086, 768.073 391.433 C 769.915 378.188, 766.139 366.256, 757.070 356.667 C 749.475 348.637, 742.731 345.692, 731 345.284 C 723.756 345.032, 720.313 345.378, 716.500 346.741 M 718.415 357.421 C 713.651 359.496, 711 363.540, 711 368.735 C 711 372.480, 711.549 373.749, 714.400 376.600 C 717.266 379.466, 718.512 380, 722.329 380 C 726.097 380, 727.457 379.435, 730.429 376.632 C 733.581 373.659, 734 372.688, 734 368.354 C 734 362.541, 732.078 359.348, 727.401 357.394 C 723.346 355.700, 722.362 355.703, 718.415 357.421" fill="none" fill-rule="evenodd" stroke="none" onclick="fillRegion(this)" />
    <path id="mid_center_left" class="region" d="M 346.600 349.539 C 327.564 352.581, 320.877 355.362, 315.430 362.503 C 312.555 366.272, 311.172 373.567, 312.403 378.471 C 313.200 381.643, 319.049 388.249, 323.496 390.997 C 330.280 395.191, 351.793 400.878, 366.834 402.454 C 375.378 403.350, 387.482 401.350, 390.802 398.494 C 393.168 396.459, 393.403 395.455, 394.103 384.401 C 394.517 377.856, 395.322 369.634, 395.892 366.130 C 397.085 358.789, 395.887 355.181, 391.605 353.230 C 382.141 348.918, 361.225 347.202, 346.600 349.539 M 345.329 360.514 C 332.720 362.727, 326.874 365.073, 324.236 368.983 C 319.076 376.629, 326.199 382.766, 346.229 387.930 C 359.337 391.310, 371.022 392.603, 379.213 391.579 L 384.700 390.894 385.312 379.697 C 385.649 373.539, 386.216 367.072, 386.572 365.327 C 387.184 362.325, 387.011 362.092, 383.360 360.989 C 377.257 359.146, 354.728 358.865, 345.329 360.514" fill="none" fill-rule="evenodd" stroke="none" onclick="fillRegion(this)" />
    <path id="chest" class="region" d="M 581.627 389.250 C 580.462 391.098, 580.378 393.643, 581.159 403.500 C 583.578 434.022, 591.790 451.340, 607.512 459.081 C 613.578 462.067, 614.445 462.222, 622.722 461.806 C 632.241 461.327, 635.209 460.222, 643.337 454.127 C 652.249 447.444, 663.468 429.522, 667.562 415.430 C 668.510 412.168, 669.878 408.594, 670.602 407.486 C 671.650 405.886, 671.672 404.983, 670.710 403.085 C 668.657 399.032, 666.424 398.258, 663.795 400.689 C 658.256 405.810, 632.947 406.281, 614.696 401.602 C 602.141 398.382, 590.237 392.753, 588.977 389.439 C 587.760 386.238, 583.594 386.131, 581.627 389.250 M 476.469 390.877 C 467.658 392.406, 460 398.875, 460 404.791 C 460 408.635, 468.292 416.264, 475.288 418.856 C 485.663 422.700, 498.141 421.449, 504.422 415.935 C 508.871 412.028, 509.531 408.990, 507.116 403.529 C 503.059 394.357, 489.255 388.658, 476.469 390.877 M 603.718 427.092 C 600.665 427.810, 594.547 430.373, 593.223 431.488 C 592.187 432.360, 600.048 444.707, 603.981 448.385 C 615.412 459.078, 630.193 457.848, 642.962 445.142 L 648.424 439.707 643.884 435.603 C 639.442 431.587, 631.619 427.985, 627.361 427.995 C 626.184 427.998, 624.177 428.846, 622.900 429.880 C 620.597 431.745, 620.557 431.737, 617.888 428.880 C 614.981 425.768, 611.307 425.304, 603.718 427.092" fill="none" fill-rule="evenodd" stroke="none" onclick="fillRegion(this)" />
    <path id="side_right_low" class="region" d="M 865.556 430.353 C 864.080 431.829, 862.765 434.905, 862.030 438.603 C 861.385 441.846, 859.374 449.441, 857.561 455.480 C 853.381 469.404, 853.680 470.533, 862.833 475.343 C 876.176 482.355, 909.527 486.307, 924 482.591 C 936.301 479.433, 941.990 473.620, 941.996 464.200 C 942.001 457.647, 940.521 454.697, 934.323 448.899 C 928.018 443.001, 922.733 440.024, 910.500 435.477 C 898.045 430.847, 884.723 428.030, 875.205 428.013 C 868.868 428.002, 867.600 428.309, 865.556 430.353 M 870.557 439.250 C 870.349 439.938, 869.647 443.425, 868.999 447 C 868.351 450.575, 866.955 455.975, 865.896 459 C 864.070 464.220, 864.061 464.565, 865.719 465.780 C 870.233 469.090, 889.694 472.852, 904 473.181 C 916.111 473.460, 923.128 472.386, 927.239 469.626 C 937.320 462.857, 925.972 451.296, 901.153 443.051 C 887.198 438.414, 871.407 436.453, 870.557 439.250" fill="none" fill-rule="evenodd" stroke="none" onclick="fillRegion(this)" />
    <path id="side_left_low" class="region" d="M 741.459 432.880 C 735.481 435.595, 731.665 440.546, 732.340 444.710 C 734.481 457.902, 760.094 466.604, 774.759 459.123 C 783.874 454.473, 784.237 445.805, 775.633 438.251 C 767.786 431.362, 750.710 428.678, 741.459 432.880 M 387.766 464.443 C 368.424 471.201, 344.355 488.490, 341.593 497.610 C 341.002 499.562, 341.435 499.768, 347.414 500.381 C 350.967 500.745, 358.335 502.168, 363.788 503.543 L 373.703 506.043 384.601 501.390 C 394.662 497.094, 406 490.780, 406 489.473 C 406 489.169, 405.020 487.026, 403.821 484.710 C 402.623 482.395, 400.026 476.361, 398.050 471.302 L 394.458 462.104 387.766 464.443" fill="none" fill-rule="evenodd" stroke="none" onclick="fillRegion(this)" />
    <path id="leg_right" class="region" d="M 829.338 519.250 C 828.232 520.487, 825.133 524.403, 822.450 527.951 C 819.768 531.500, 815.194 537.069, 812.287 540.327 C 805.226 548.241, 805.140 551.081, 811.750 558.207 C 823.544 570.924, 848.221 586.118, 862.607 589.520 C 884.776 594.763, 896.553 578.519, 885.098 558.500 C 880.660 550.743, 869.404 538.369, 859.500 530.357 C 844.010 517.827, 833.927 514.114, 829.338 519.250 M 831.384 531.307 C 829.248 534.123, 825.045 539.332, 822.045 542.882 L 816.589 549.337 822.545 554.726 C 838.883 569.510, 864.813 582.021, 874.222 579.659 C 878.419 578.606, 879.580 573.547, 877.113 567.056 C 872.875 555.902, 857.351 539.702, 841.751 530.154 L 835.269 526.186 831.384 531.307 M 756.925 581.953 C 752.841 584.198, 745.579 587.940, 740.787 590.268 C 731.308 594.872, 729.233 597.417, 730.361 603.055 C 731.292 607.711, 739.343 623.297, 745.754 632.854 C 752.674 643.170, 765.986 656.950, 771.500 659.504 C 781.735 664.244, 792.428 661.499, 796.831 653 C 798.903 649.001, 799.106 647.538, 798.654 639.863 C 797.636 622.596, 786.351 597.310, 773.399 583.275 C 767.827 577.237, 765.798 577.074, 756.925 581.953 M 762.450 588.918 C 761.928 589.422, 756.663 592.386, 750.750 595.504 C 744.837 598.622, 740 601.369, 740 601.609 C 740 601.848, 741.854 605.747, 744.120 610.272 C 752.369 626.747, 767.010 644.851, 775.729 649.360 C 779.680 651.403, 784.388 651.470, 786.347 649.510 C 792.638 643.219, 785.587 618.879, 770.772 595.750 C 765.961 588.239, 764.443 586.993, 762.450 588.918" fill="none" fill-rule="evenodd" stroke="none" onclick="fillRegion(this)" />
    <path id="leg_left" class="region" d="M 497.223 630.062 C 482.245 633.014, 469.453 647.482, 466.815 664.454 C 461.796 696.732, 490.185 722.521, 520.205 712.955 C 526.537 710.937, 528.368 709.764, 534.076 704.065 C 544.432 693.726, 548.767 682.329, 547.702 668.244 C 546.705 655.056, 538.025 641.333, 526.337 634.464 C 518.583 629.907, 506.940 628.147, 497.223 630.062 M 286.746 638.022 C 282.118 639.191, 273.597 643.448, 269.246 646.764 C 264.394 650.462, 259.319 657.918, 256.401 665.637 C 254.122 671.667, 253.853 673.653, 254.185 682 C 254.510 690.177, 255.018 692.475, 257.833 698.500 C 259.767 702.638, 263.128 707.558, 266.056 710.536 L 271.008 715.571 261.007 715.169 C 249.167 714.694, 242.980 716.303, 235.870 721.708 C 229.295 726.706, 226.653 731.805, 227.203 738.434 C 227.730 744.789, 230.273 748.668, 236.707 752.929 C 248.373 760.657, 266.975 761.123, 278.536 753.977 C 291.151 746.181, 293.088 732.215, 282.773 723.428 C 280.834 721.776, 280.315 720.970, 281.500 721.450 C 290.605 725.138, 303.207 724.263, 313.235 719.246 C 325.070 713.325, 332.587 704.097, 335.442 691.986 C 339.317 675.543, 335.618 660.820, 324.713 649.290 C 317.481 641.643, 309.173 637.865, 298.606 637.417 C 294.148 637.228, 288.811 637.500, 286.746 638.022" fill="none" fill-rule="evenodd" stroke="none" onclick="fillRegion(this)" />
    <path id="feet" class="region" d="M 492.071 643.752 C 487.041 646.317, 484.667 650.092, 484.667 655.526 C 484.667 659.366, 485.194 660.656, 487.853 663.314 C 490.647 666.109, 491.702 666.500, 496.439 666.500 C 500.784 666.500, 502.345 666.024, 504.431 664.065 C 510.823 658.059, 509.326 647.415, 501.594 643.903 C 496.532 641.604, 496.290 641.600, 492.071 643.752 M 296.400 653.400 C 293.626 656.174, 293 657.564, 293 660.950 C 293 668.186, 296.265 672.594, 302.699 674.045 C 308.044 675.250, 314.083 672.453, 316.322 667.734 C 318.421 663.310, 318.422 661.693, 316.330 657.283 C 314.160 652.711, 309.639 650.008, 304.150 650.004 C 300.534 650.001, 299.227 650.573, 296.400 653.400 M 442.368 697.783 C 440.993 699.984, 428.157 704.520, 417.662 706.512 C 408.604 708.232, 394.363 708.432, 385 706.971 C 375.485 705.486, 364.762 702.086, 362.711 699.904 C 360.281 697.318, 358.530 697.511, 356.073 700.635 C 353.691 703.662, 353.433 705.569, 355.308 706.288 C 356.027 706.564, 357.162 709.757, 357.831 713.384 C 361.026 730.727, 368.827 747.042, 378.468 756.546 C 387.436 765.387, 392.243 767.443, 404.015 767.475 C 412.723 767.498, 414.081 767.229, 420.015 764.306 C 435.173 756.840, 444.372 740.056, 449.185 711.086 C 451.177 699.097, 451.186 698.609, 449.434 697.328 C 446.891 695.469, 443.684 695.675, 442.368 697.783 M 535.879 707.243 C 527.480 710.189, 522.764 713.789, 520.102 719.289 C 514.293 731.289, 521.578 742.120, 538.500 746.641 C 552.322 750.333, 569.576 745.667, 576.716 736.306 C 579.014 733.293, 579.500 731.654, 579.500 726.914 C 579.500 718.903, 575.801 713.718, 566.815 709.131 C 561.143 706.235, 558.969 705.702, 551.357 705.341 C 543.943 704.989, 541.422 705.299, 535.879 707.243 M 537.190 711.479 C 528.839 714.086, 522 721.045, 522 726.936 C 522 730.252, 524.648 734.639, 528.249 737.288 C 534.037 741.547, 537.864 742.502, 549 742.467 C 557.472 742.441, 560.369 742.033, 564 740.357 C 569.788 737.685, 574.813 732.513, 575.576 728.444 C 576.761 722.129, 570.205 714.662, 560.814 711.629 C 554.765 709.675, 543.204 709.602, 537.190 711.479 M 248.500 720.334 C 242.117 722.456, 238.518 724.646, 235.198 728.428 C 224.776 740.297, 236.897 754, 257.818 754 C 269.107 754, 280.295 749.198, 283.515 742.971 C 287.532 735.203, 283.579 727.279, 273.048 721.990 C 267.507 719.206, 254.525 718.330, 248.500 720.334 M 388.624 733.998 C 383.632 735.948, 376 740.746, 376 741.936 C 376 742.301, 378.152 745.271, 380.783 748.536 C 384.221 752.804, 387.383 755.419, 392.033 757.838 C 397.982 760.934, 399.061 761.168, 405.500 760.760 C 410.032 760.473, 414.024 759.535, 416.821 758.102 C 421.836 755.531, 428.527 748.807, 431.742 743.106 L 433.985 739.131 426.858 735.565 C 417.454 730.861, 410.230 730.570, 406.365 734.740 L 403.825 737.480 401.829 734.740 C 399.409 731.418, 395.756 731.213, 388.624 733.998" fill="none" fill-rule="evenodd" stroke="none" onclick="fillRegion(this)" />
    <path id="accents" class="region" d="M 518.159 285.608 C 510.602 289.374, 505.268 298.014, 509.497 299.637 C 510.363 299.969, 512.478 298.909, 514.511 297.125 C 520.249 292.086, 523.917 290.614, 531 290.507 C 537.064 290.415, 537.523 290.247, 537.845 288.010 C 538.339 284.579, 535.553 283, 529.005 283 C 524.961 283, 521.930 283.729, 518.159 285.608 M 739.011 314.487 C 737.009 316.899, 738.554 318.743, 743.448 319.787 C 749.451 321.067, 754.256 324.454, 757.619 329.775 C 760.573 334.448, 763.278 335.042, 763.833 331.138 C 764.632 325.514, 759.907 318.524, 752.885 314.941 C 748.320 312.612, 740.772 312.365, 739.011 314.487 M 507.228 597.039 C 504.372 598.186, 503.404 600.577, 505.011 602.513 C 505.825 603.494, 508.087 604, 511.655 604 C 518.382 604, 522.511 605.723, 526.946 610.381 C 530.370 613.977, 533.895 615.142, 534.115 612.750 C 534.627 607.193, 530.969 602.160, 523.832 598.603 C 518.405 595.899, 511.651 595.263, 507.228 597.039 M 278.838 605.182 C 271.884 607.034, 264 615.621, 264 621.343 C 264 625.333, 266.509 625.194, 269.865 621.018 C 273.688 616.262, 283.838 611, 289.191 611 C 294.046 611, 295.404 608.555, 292.056 605.844 C 289.573 603.834, 284.799 603.594, 278.838 605.182 M 658.250 617.746 L 648 618.070 648 622.043 C 648 625.786, 648.246 626.114, 652.250 627.702 C 658.706 630.262, 668.927 635.805, 674.408 639.719 L 679.316 643.224 678.699 633.362 C 678.360 627.938, 677.783 622.038, 677.416 620.250 C 676.785 617.169, 676.535 617.011, 672.625 617.211 C 670.356 617.327, 663.888 617.568, 658.250 617.746" fill="none" fill-rule="evenodd" stroke="none" onclick="fillRegion(this)" />
    <path id="sun_ray_32" class="region" d="M 829.338 519.250 C 828.232 520.487, 825.133 524.403, 822.450 527.951 C 819.768 531.500, 815.194 537.069, 812.287 540.327 C 805.226 548.241, 805.140 551.081, 811.750 558.207 C 823.544 570.924, 848.221 586.118, 862.607 589.520 C 884.776 594.763, 896.553 578.519, 885.098 558.500 C 880.660 550.743, 869.404 538.369, 859.500 530.357 C 844.010 517.827, 833.927 514.114, 829.338 519.250" fill="none" fill-rule="evenodd" stroke="none" onclick="fillRegion(this)" />
    <path id="sun_ray_33" class="region" d="M 831.384 531.307 C 829.248 534.123, 825.045 539.332, 822.045 542.882 L 816.589 549.337 822.545 554.726 C 838.883 569.510, 864.813 582.021, 874.222 579.659 C 878.419 578.606, 879.580 573.547, 877.113 567.056 C 872.875 555.902, 857.351 539.702, 841.751 530.154 L 835.269 526.186 831.384 531.307" fill="none" fill-rule="evenodd" stroke="none" onclick="fillRegion(this)" />
    <path id="sun_ray_34" class="region" d="M 756.925 581.953 C 752.841 584.198, 745.579 587.940, 740.787 590.268 C 731.308 594.872, 729.233 597.417, 730.361 603.055 C 731.292 607.711, 739.343 623.297, 745.754 632.854 C 752.674 643.170, 765.986 656.950, 771.500 659.504 C 781.735 664.244, 792.428 661.499, 796.831 653 C 798.903 649.001, 799.106 647.538, 798.654 639.863 C 797.636 622.596, 786.351 597.310, 773.399 583.275 C 767.827 577.237, 765.798 577.074, 756.925 581.953" fill="none" fill-rule="evenodd" stroke="none" onclick="fillRegion(this)" />
    <path id="sun_ray_35" class="region" d="M 762.450 588.918 C 761.928 589.422, 756.663 592.386, 750.750 595.504 C 744.837 598.622, 740 601.369, 740 601.609 C 740 601.848, 741.854 605.747, 744.120 610.272 C 752.369 626.747, 767.010 644.851, 775.729 649.360 C 779.680 651.403, 784.388 651.470, 786.347 649.510 C 792.638 643.219, 785.587 618.879, 770.772 595.750 C 765.961 588.239, 764.443 586.993, 762.450 588.918" fill="none" fill-rule="evenodd" stroke="none" onclick="fillRegion(this)" />
    <path id="sun_ray_38" class="region" d="M 658.250 617.746 L 648 618.070 648 622.043 C 648 625.786, 648.246 626.114, 652.250 627.702 C 658.706 630.262, 668.927 635.805, 674.408 639.719 L 679.316 643.224 678.699 633.362 C 678.360 627.938, 677.783 622.038, 677.416 620.250 C 676.785 617.169, 676.535 617.011, 672.625 617.211 C 670.356 617.327, 663.888 617.568, 658.250 617.746" fill="none" fill-rule="evenodd" stroke="none" onclick="fillRegion(this)" />
</g>

<!-- الخطوط والتفاصيل فوق المناطق -->
<g id="outlines" fill="none" stroke="#111111" stroke-width="3" stroke-linejoin="round" stroke-linecap="round">
    <path d="M 671.748 96.427 C 660.954 100.279, 653.833 110.985, 647.568 132.778 C 643.234 147.856, 641.311 162.381, 642.978 167.435 C 644.648 172.492, 647.147 173.681, 657.500 174.341 C 662.450 174.656, 670.325 175.976, 675 177.273 C 679.794 178.603, 684.585 179.366, 685.989 179.023 C 692.179 177.511, 697.248 162.324, 698.637 141.129 C 700.245 116.595, 693.424 99.710, 680.451 96.108 C 675.731 94.798, 676.379 94.774, 671.748 96.427" />
    <path d="M 551.604 99.987 C 541.010 103.345, 535.690 118.610, 538.002 139.021 C 540.678 162.640, 546.624 179.476, 553.006 181.502 C 554.110 181.852, 558.948 181.010, 563.757 179.629 C 568.566 178.249, 576.775 176.355, 582 175.420 C 587.225 174.486, 592.055 173.285, 592.733 172.752 C 596.895 169.482, 595.655 155.192, 589.675 137.500 C 581.698 113.904, 571.109 100.833, 558.919 99.539 C 556.489 99.281, 553.197 99.482, 551.604 99.987" />
    <path d="M 670.781 108.958 C 665.146 113.390, 656.411 134.965, 653.505 151.630 C 651.091 165.475, 650.660 164.598, 660.250 165.363 C 664.788 165.725, 671.758 166.870, 675.739 167.908 L 682.978 169.795 683.953 166.147 C 687.182 154.065, 688.103 147.749, 688.113 137.625 C 688.129 122.561, 685.145 110.218, 680.945 107.971 C 678.022 106.406, 673.461 106.849, 670.781 108.958" />
    <path d="M 553.750 111.080 C 548.445 114.170, 546.618 129.139, 549.427 146.500 C 551.293 158.034, 555.625 172.004, 557.332 171.992 C 557.974 171.988, 561.373 171.111, 564.884 170.043 C 568.396 168.976, 574.533 167.575, 578.523 166.932 L 585.778 165.761 585.286 161.631 C 583.975 150.620, 578.052 133.139, 572.577 124.127 C 570.622 120.909, 567.003 116.414, 564.534 114.138 C 560.014 109.972, 557.081 109.140, 553.750 111.080" />
    <path d="M 780.946 139.657 C 772.552 143.752, 755.103 161.911, 747.260 174.711 C 743.828 180.313, 740.475 186.934, 739.809 189.425 C 737.922 196.480, 739.193 198.576, 748.274 203.384 C 752.550 205.648, 759.676 210.088, 764.111 213.250 C 774.533 220.682, 776.850 220.804, 783.118 214.250 C 790.028 207.024, 793.296 202.386, 798.794 192 C 804.760 180.729, 810 164.894, 810 158.137 C 810 140.974, 796.217 132.207, 780.946 139.657" />
    <path d="M 438.500 141.932 C 431.839 145.357, 427.140 154.469, 428.505 161.315 C 431.862 178.151, 445.082 202.255, 459.184 217.250 C 467.767 226.378, 469.684 226.413, 480.594 217.650 C 484.942 214.158, 491.774 209.203, 495.776 206.640 C 499.778 204.077, 503.547 200.894, 504.152 199.566 C 506.587 194.221, 501.828 184.344, 490.137 170.485 C 482.598 161.547, 465.749 147.212, 458.430 143.509 C 451.231 139.866, 443.680 139.269, 438.500 141.932" />
    <path d="M 784.418 150.022 C 779.823 152.297, 769.333 161.970, 763.297 169.500 C 761.093 172.250, 756.740 178.744, 753.626 183.932 L 747.962 193.363 754.731 196.948 C 758.454 198.920, 764.288 202.438, 767.695 204.766 C 771.102 207.095, 774.309 209, 774.820 209 C 776.276 209, 785.331 195.339, 789.733 186.500 C 798.128 169.647, 800.911 154.883, 796.595 150.108 C 794.166 147.420, 789.738 147.389, 784.418 150.022" />
    <path d="M 442.789 152.008 C 436.149 156.074, 440.985 174.696, 453.564 193.500 C 460.046 203.189, 468.973 214, 470.491 214 C 471.186 214, 472.317 213.323, 473.003 212.496 C 473.690 211.669, 478.933 207.581, 484.655 203.411 L 495.058 195.829 492.853 192.165 C 486.197 181.101, 480.557 174.434, 470.161 165.346 C 457.210 154.023, 447.347 149.217, 442.789 152.008" />
    <path d="M 601.500 188.173 C 596.550 188.671, 585.750 190.429, 577.500 192.081 C 505.552 206.488, 452.157 251.831, 425.686 321 C 415.203 348.391, 409.489 386.411, 411.934 412.500 C 415.156 446.879, 423.770 472.591, 440.396 497.457 C 444.028 502.889, 446.887 507.383, 446.750 507.444 C 446.612 507.504, 443.350 508.343, 439.500 509.308 C 430.514 511.559, 421.370 515.847, 413.354 521.567 L 406.994 526.105 401.247 521.420 C 398.086 518.844, 393.587 515.806, 391.250 514.669 C 388.912 513.532, 387.034 512.354, 387.076 512.051 C 387.118 511.748, 392.056 509.093, 398.049 506.152 C 409.573 500.495, 416 494.968, 416 490.714 C 416 489.460, 414.478 485.524, 412.618 481.967 C 410.758 478.410, 407.775 471.675, 405.990 467 C 404 461.789, 401.578 457.393, 399.732 455.640 C 396.971 453.017, 396.304 452.835, 391.697 453.446 C 386.100 454.188, 378.462 457.150, 366.500 463.217 C 346.176 473.524, 331 487.888, 331 496.815 C 331 498.501, 329.879 498.759, 320.098 499.318 C 285.536 501.296, 251.990 516.435, 229.346 540.273 C 216.926 553.348, 207.256 570.165, 203.546 585.144 L 201.652 592.787 191.076 592.782 C 176.095 592.775, 163.858 596.870, 151.429 606.052 C 136.311 617.221, 126.544 638.060, 128.488 655 C 128.835 658.025, 129.332 661.240, 129.593 662.145 C 129.945 663.364, 128.052 664.875, 122.284 667.978 C 93.113 683.676, 75.770 710.023, 73.465 742.143 C 71.713 766.544, 81.004 793.157, 97.407 810.727 C 109.889 824.096, 122.778 832.378, 139.710 837.907 C 160.841 844.808, 187.603 844.439, 206.898 836.982 C 209.867 835.835, 212.582 835.257, 212.932 835.698 C 213.282 836.139, 215.328 839.136, 217.480 842.357 C 234.289 867.527, 270.806 886.066, 313.492 891.101 C 326.988 892.692, 352.499 891.721, 366.720 889.075 C 392.039 884.362, 415.561 874.539, 430.325 862.513 L 435.916 857.958 443.208 863.594 C 472.155 885.966, 518.310 893.927, 555.267 882.921 C 583.993 874.365, 606.055 857.283, 616.545 835.474 L 620.034 828.220 624.267 829.209 C 626.595 829.752, 632.550 829.941, 637.500 829.629 C 676.561 827.161, 708.948 800.278, 719.645 761.442 C 722.152 752.341, 722.386 749.977, 722.415 733.500 C 722.441 718.090, 722.122 714.205, 720.193 706.500 C 715.607 688.175, 708.900 674.763, 696.690 659.502 L 689.879 650.990 689.431 638.858 C 689.011 627.474, 687.374 618.110, 684.826 612.518 C 683.101 608.732, 678.430 607.035, 672.413 608.006 C 669.615 608.458, 661.609 609.154, 654.623 609.552 C 640.085 610.380, 639 611.026, 639 618.853 L 639 623.262 635.250 622.612 C 623.642 620.601, 614.628 619.904, 607.750 620.484 L 600 621.137 600 616.027 C 600 610.464, 597.424 596.662, 595.831 593.684 C 595.285 592.664, 594.987 591.701, 595.169 591.544 C 595.351 591.387, 602.475 592.306, 611 593.585 C 668.891 602.273, 732.918 585.088, 777 549.031 C 805.569 525.663, 826.020 496.234, 837.827 461.500 C 849.903 425.976, 851.193 384.237, 841.381 346.500 C 826.812 290.464, 792.629 246.409, 741.500 217.775 C 700.690 194.920, 647.114 183.592, 601.500 188.173" />
    <path d="M 601.970 201.070 C 565.964 204.056, 527.502 218.721, 499.001 240.331 C 483.570 252.031, 464.132 274.120, 453.093 292.500 C 441.196 312.309, 431.336 339.678, 426.794 365.500 C 423.917 381.856, 423.645 414.917, 426.272 429 C 430.922 453.927, 441.902 479.363, 456.162 498.243 L 460.500 503.986 478 504.330 C 493.242 504.629, 496.781 505.022, 505.425 507.379 C 534.484 515.300, 559.172 531.853, 576.809 555.238 C 582.167 562.343, 588.356 572.395, 589.403 575.693 C 590.658 579.648, 629.286 584.769, 648.500 583.528 C 702.493 580.041, 746.571 561.640, 781.368 528.058 C 796.813 513.154, 807.716 498.057, 817.079 478.613 C 828.590 454.707, 833.668 434.031, 834.644 407.093 C 835.931 371.558, 829.340 340.615, 813.779 309.148 C 793.463 268.063, 757.941 236.454, 709.823 216.643 C 678.437 203.720, 638.882 198.009, 601.970 201.070" />
    <path d="M 870.320 212.962 C 860.513 215.296, 840.017 225.712, 831.544 232.667 C 824.649 238.327, 817.054 246.367, 815.492 249.659 C 813.252 254.378, 814.043 256.753, 820.333 264.201 C 823.259 267.665, 827.991 273.943, 830.847 278.151 C 837.662 288.191, 839.077 288.710, 848.396 284.588 C 857.747 280.453, 866.061 274.113, 878.590 261.565 C 888.156 251.985, 891.340 248.074, 893.840 242.835 C 898.816 232.409, 898.112 223.853, 891.733 217.240 C 887.104 212.441, 879.168 210.855, 870.320 212.962" />
    <path d="M 872 223.581 C 858.835 227.050, 837.222 239.833, 827.589 249.848 L 823.678 253.914 826.374 257.207 C 827.856 259.018, 831.057 263.200, 833.486 266.500 C 835.915 269.800, 838.733 273.569, 839.747 274.875 L 841.592 277.249 845.546 275.207 C 858.139 268.703, 880.493 247.014, 884.631 237.282 C 887.313 230.977, 886.284 225.715, 881.928 223.463 C 878.599 221.741, 878.999 221.737, 872 223.581" />
    <path d="M 359.994 232.873 C 346.920 237.171, 342.075 248.276, 347.966 260.435 C 351.020 266.738, 362.117 278.429, 372.448 286.228 C 382.107 293.519, 399.106 302.032, 405.431 302.745 C 411.208 303.396, 412.188 302.570, 417.009 292.982 C 419.119 288.786, 422.959 282.266, 425.542 278.492 C 428.282 274.490, 430.447 270.084, 430.738 267.920 C 431.181 264.617, 430.758 263.693, 426.890 259.497 C 421.230 253.356, 415.726 249.630, 403.516 243.675 C 385.341 234.810, 367.540 230.392, 359.994 232.873" />
    <path d="M 362.090 243.873 C 360.765 244.244, 358.816 245.705, 357.760 247.120 C 356.118 249.318, 355.994 250.258, 356.900 253.596 C 359.399 262.799, 378.413 279.670, 396.500 288.733 C 406.122 293.554, 406.644 293.600, 408.566 289.801 C 409.484 287.985, 412.745 282.264, 415.812 277.087 L 421.389 267.675 417.444 264.255 C 409.283 257.177, 390.408 248.270, 376.500 244.933 C 368.109 242.920, 366.042 242.768, 362.090 243.873" />
    <path d="M 518.159 285.608 C 510.602 289.374, 505.268 298.014, 509.497 299.637 C 510.363 299.969, 512.478 298.909, 514.511 297.125 C 520.249 292.086, 523.917 290.614, 531 290.507 C 537.064 290.415, 537.523 290.247, 537.845 288.010 C 538.339 284.579, 535.553 283, 529.005 283 C 524.961 283, 521.930 283.729, 518.159 285.608" stroke-width="3" />
    <path d="M 739.011 314.487 C 737.009 316.899, 738.554 318.743, 743.448 319.787 C 749.451 321.067, 754.256 324.454, 757.619 329.775 C 760.573 334.448, 763.278 335.042, 763.833 331.138 C 764.632 325.514, 759.907 318.524, 752.885 314.941 C 748.320 312.612, 740.772 312.365, 739.011 314.487" />
    <path d="M 520.746 317.022 C 510.430 319.629, 497.879 329.359, 493.379 338.239 C 485.918 352.962, 486.821 369.677, 495.830 383.616 L 499.688 389.584 494.094 387.680 C 487.011 385.270, 474.544 385.771, 467.918 388.732 C 455.076 394.470, 452.484 406.649, 462.114 415.995 C 470.206 423.848, 481.184 427.092, 493.606 425.303 C 510.368 422.888, 517.566 411.008, 509.579 398.940 L 506.917 394.917 510.875 396.936 C 513.053 398.047, 517.987 399.445, 521.840 400.043 C 549.700 404.366, 572.690 379.597, 568.148 350.152 C 565.105 330.426, 551.172 317.342, 532.249 316.442 C 527.987 316.239, 522.811 316.500, 520.746 317.022" />
    <path d="M 889.500 325.004 C 881.108 326.050, 867.126 330.441, 862.710 333.416 C 857.598 336.861, 857.268 339.387, 860.249 352.226 C 861.688 358.427, 863.178 366.129, 863.560 369.341 C 864.004 373.079, 865.019 376.073, 866.379 377.654 C 868.356 379.953, 869.164 380.127, 878.002 380.162 C 893.164 380.222, 911.336 375.394, 924.828 367.721 C 937.750 360.373, 943.007 352.284, 941.498 342.071 C 940.534 335.549, 933.699 329.013, 925.448 326.725 C 918.237 324.725, 899.089 323.808, 889.500 325.004" />
    <path d="M 536.500 329.830 C 527.900 332.711, 525.100 342.628, 530.993 349.339 C 534.504 353.338, 538.573 354.426, 543.653 352.725 C 555.158 348.871, 553.223 332.032, 541 329.648 C 539.625 329.380, 537.600 329.462, 536.500 329.830" stroke-width="3" />
    <path d="M 892.107 335.260 C 887.410 335.686, 880.143 337.250, 875.607 338.813 C 868.932 341.113, 867.543 341.950, 867.746 343.553 C 867.881 344.624, 869.041 351.125, 870.324 358 L 872.657 370.500 876.579 370.756 C 884.110 371.248, 906.005 365.533, 916.139 360.430 C 927.799 354.558, 932.975 347.663, 929.596 342.506 C 925.551 336.333, 911.099 333.540, 892.107 335.260" />
    <path d="M 716.500 346.741 C 699.491 352.823, 687.799 371.996, 689.273 391.391 C 690.272 404.549, 696.292 415.229, 706.666 422.252 C 714.346 427.452, 721.449 429.347, 731.151 428.785 L 738.972 428.332 735.104 431.643 C 721.699 443.117, 729.333 459.093, 751.017 464.944 C 757.852 466.788, 760.009 466.964, 765.858 466.154 C 773.859 465.045, 777.264 463.457, 781.829 458.706 C 788.367 451.903, 787.158 443.081, 778.620 435.292 C 771.408 428.712, 765.115 426.574, 752.880 426.545 L 743.261 426.522 748.013 423.808 C 758.166 418.009, 766.174 405.086, 768.073 391.433 C 769.915 378.188, 766.139 366.256, 757.070 356.667 C 749.475 348.637, 742.731 345.692, 731 345.284 C 723.756 345.032, 720.313 345.378, 716.500 346.741" />
    <path d="M 346.600 349.539 C 327.564 352.581, 320.877 355.362, 315.430 362.503 C 312.555 366.272, 311.172 373.567, 312.403 378.471 C 313.200 381.643, 319.049 388.249, 323.496 390.997 C 330.280 395.191, 351.793 400.878, 366.834 402.454 C 375.378 403.350, 387.482 401.350, 390.802 398.494 C 393.168 396.459, 393.403 395.455, 394.103 384.401 C 394.517 377.856, 395.322 369.634, 395.892 366.130 C 397.085 358.789, 395.887 355.181, 391.605 353.230 C 382.141 348.918, 361.225 347.202, 346.600 349.539" />
    <path d="M 718.415 357.421 C 713.651 359.496, 711 363.540, 711 368.735 C 711 372.480, 711.549 373.749, 714.400 376.600 C 717.266 379.466, 718.512 380, 722.329 380 C 726.097 380, 727.457 379.435, 730.429 376.632 C 733.581 373.659, 734 372.688, 734 368.354 C 734 362.541, 732.078 359.348, 727.401 357.394 C 723.346 355.700, 722.362 355.703, 718.415 357.421" stroke-width="3" />
    <path d="M 345.329 360.514 C 332.720 362.727, 326.874 365.073, 324.236 368.983 C 319.076 376.629, 326.199 382.766, 346.229 387.930 C 359.337 391.310, 371.022 392.603, 379.213 391.579 L 384.700 390.894 385.312 379.697 C 385.649 373.539, 386.216 367.072, 386.572 365.327 C 387.184 362.325, 387.011 362.092, 383.360 360.989 C 377.257 359.146, 354.728 358.865, 345.329 360.514" />
    <path d="M 581.627 389.250 C 580.462 391.098, 580.378 393.643, 581.159 403.500 C 583.578 434.022, 591.790 451.340, 607.512 459.081 C 613.578 462.067, 614.445 462.222, 622.722 461.806 C 632.241 461.327, 635.209 460.222, 643.337 454.127 C 652.249 447.444, 663.468 429.522, 667.562 415.430 C 668.510 412.168, 669.878 408.594, 670.602 407.486 C 671.650 405.886, 671.672 404.983, 670.710 403.085 C 668.657 399.032, 666.424 398.258, 663.795 400.689 C 658.256 405.810, 632.947 406.281, 614.696 401.602 C 602.141 398.382, 590.237 392.753, 588.977 389.439 C 587.760 386.238, 583.594 386.131, 581.627 389.250" />
    <path d="M 476.469 390.877 C 467.658 392.406, 460 398.875, 460 404.791 C 460 408.635, 468.292 416.264, 475.288 418.856 C 485.663 422.700, 498.141 421.449, 504.422 415.935 C 508.871 412.028, 509.531 408.990, 507.116 403.529 C 503.059 394.357, 489.255 388.658, 476.469 390.877" />
    <path d="M 603.718 427.092 C 600.665 427.810, 594.547 430.373, 593.223 431.488 C 592.187 432.360, 600.048 444.707, 603.981 448.385 C 615.412 459.078, 630.193 457.848, 642.962 445.142 L 648.424 439.707 643.884 435.603 C 639.442 431.587, 631.619 427.985, 627.361 427.995 C 626.184 427.998, 624.177 428.846, 622.900 429.880 C 620.597 431.745, 620.557 431.737, 617.888 428.880 C 614.981 425.768, 611.307 425.304, 603.718 427.092" />
    <path d="M 865.556 430.353 C 864.080 431.829, 862.765 434.905, 862.030 438.603 C 861.385 441.846, 859.374 449.441, 857.561 455.480 C 853.381 469.404, 853.680 470.533, 862.833 475.343 C 876.176 482.355, 909.527 486.307, 924 482.591 C 936.301 479.433, 941.990 473.620, 941.996 464.200 C 942.001 457.647, 940.521 454.697, 934.323 448.899 C 928.018 443.001, 922.733 440.024, 910.500 435.477 C 898.045 430.847, 884.723 428.030, 875.205 428.013 C 868.868 428.002, 867.600 428.309, 865.556 430.353" />
    <path d="M 741.459 432.880 C 735.481 435.595, 731.665 440.546, 732.340 444.710 C 734.481 457.902, 760.094 466.604, 774.759 459.123 C 783.874 454.473, 784.237 445.805, 775.633 438.251 C 767.786 431.362, 750.710 428.678, 741.459 432.880" />
    <path d="M 870.557 439.250 C 870.349 439.938, 869.647 443.425, 868.999 447 C 868.351 450.575, 866.955 455.975, 865.896 459 C 864.070 464.220, 864.061 464.565, 865.719 465.780 C 870.233 469.090, 889.694 472.852, 904 473.181 C 916.111 473.460, 923.128 472.386, 927.239 469.626 C 937.320 462.857, 925.972 451.296, 901.153 443.051 C 887.198 438.414, 871.407 436.453, 870.557 439.250" />
    <path d="M 387.766 464.443 C 368.424 471.201, 344.355 488.490, 341.593 497.610 C 341.002 499.562, 341.435 499.768, 347.414 500.381 C 350.967 500.745, 358.335 502.168, 363.788 503.543 L 373.703 506.043 384.601 501.390 C 394.662 497.094, 406 490.780, 406 489.473 C 406 489.169, 405.020 487.026, 403.821 484.710 C 402.623 482.395, 400.026 476.361, 398.050 471.302 L 394.458 462.104 387.766 464.443" />
    <path d="M 315.500 511.614 C 301.690 513.615, 285.960 518.242, 273.470 523.979 C 251.236 534.191, 231.016 553.223, 220.653 573.693 C 217.280 580.356, 213 593.092, 213 596.467 C 213 597.905, 213.958 600.377, 215.129 601.960 C 216.602 603.954, 217.063 605.612, 216.626 607.353 C 215.646 611.257, 212.502 611.620, 207.812 608.369 C 204.190 605.859, 202.724 605.519, 194.017 605.170 C 178.419 604.543, 165.632 609.386, 154.398 620.173 C 143.620 630.522, 138.392 644.238, 140.920 655.531 C 142.124 660.914, 142.133 660.923, 145.313 660.212 C 147.066 659.821, 151.895 659.500, 156.045 659.500 C 164.796 659.500, 169 661.443, 169 665.488 C 169 668.742, 166.346 670, 159.482 670 C 147.384 670, 130.564 676.223, 117.372 685.580 C 98.021 699.306, 86 722.918, 86 747.202 C 86 769.874, 92.624 786.860, 107.784 803.065 C 119.529 815.620, 135.884 824.797, 153.379 828.650 C 163.104 830.791, 182.491 830.787, 191.353 828.640 C 202.680 825.898, 211.126 822.063, 216.207 817.359 C 221.413 812.538, 222.900 812.127, 225.345 814.829 C 227.674 817.402, 227.404 820.366, 224.530 823.782 L 222.060 826.717 225.588 832.609 C 243.559 862.622, 295.192 882.632, 344.988 878.882 C 375.441 876.588, 403.877 867.044, 423.503 852.530 C 430.567 847.306, 431 846.764, 431 843.148 C 431 838.882, 433.327 836, 436.772 836 C 439.519 836, 442 839.609, 442 843.606 C 442 851.384, 464.935 865.135, 488.893 871.722 C 497.755 874.158, 500.051 874.367, 518.500 874.408 C 537.156 874.449, 539.157 874.272, 548.277 871.777 C 559.391 868.736, 573.934 862.157, 582.698 856.205 C 591.260 850.391, 601.917 838.568, 605.830 830.544 C 608.766 824.522, 609.046 823.218, 608.443 818.392 C 607.688 812.350, 608.810 810, 612.448 810 C 614.712 810, 619 813.758, 619 815.742 C 619 817.293, 628.973 818.380, 636.893 817.693 C 658.201 815.846, 680.669 803.461, 693.539 786.467 C 711.810 762.342, 715.551 725.686, 702.953 694.223 C 691.833 666.453, 670.815 646.794, 642.500 637.677 C 631.528 634.145, 624.309 633, 613 633 C 602.448 633, 593.833 634.212, 587.217 636.627 C 583.825 637.865, 582.629 637.937, 581.467 636.973 C 578.832 634.786, 579.774 631.349, 584 627.732 C 587.831 624.453, 588 624.058, 587.993 618.404 C 587.985 612.062, 585.146 598.762, 581.985 590.261 C 576.862 576.487, 566.955 561.187, 556.032 550.181 C 526.788 520.714, 480.477 508.792, 443.021 521.087 C 427.155 526.295, 413.261 534.542, 410.949 540.122 C 408.069 547.076, 400 546.214, 400 538.952 C 400 536.648, 398.935 535.205, 394.859 531.983 C 378.789 519.280, 356.412 511.975, 332 511.463 C 324.575 511.307, 317.150 511.375, 315.500 511.614" />
    <path d="M 829.338 519.250 C 828.232 520.487, 825.133 524.403, 822.450 527.951 C 819.768 531.500, 815.194 537.069, 812.287 540.327 C 805.226 548.241, 805.140 551.081, 811.750 558.207 C 823.544 570.924, 848.221 586.118, 862.607 589.520 C 884.776 594.763, 896.553 578.519, 885.098 558.500 C 880.660 550.743, 869.404 538.369, 859.500 530.357 C 844.010 517.827, 833.927 514.114, 829.338 519.250" />
    <path d="M 831.384 531.307 C 829.248 534.123, 825.045 539.332, 822.045 542.882 L 816.589 549.337 822.545 554.726 C 838.883 569.510, 864.813 582.021, 874.222 579.659 C 878.419 578.606, 879.580 573.547, 877.113 567.056 C 872.875 555.902, 857.351 539.702, 841.751 530.154 L 835.269 526.186 831.384 531.307" />
    <path d="M 756.925 581.953 C 752.841 584.198, 745.579 587.940, 740.787 590.268 C 731.308 594.872, 729.233 597.417, 730.361 603.055 C 731.292 607.711, 739.343 623.297, 745.754 632.854 C 752.674 643.170, 765.986 656.950, 771.500 659.504 C 781.735 664.244, 792.428 661.499, 796.831 653 C 798.903 649.001, 799.106 647.538, 798.654 639.863 C 797.636 622.596, 786.351 597.310, 773.399 583.275 C 767.827 577.237, 765.798 577.074, 756.925 581.953" />
    <path d="M 762.450 588.918 C 761.928 589.422, 756.663 592.386, 750.750 595.504 C 744.837 598.622, 740 601.369, 740 601.609 C 740 601.848, 741.854 605.747, 744.120 610.272 C 752.369 626.747, 767.010 644.851, 775.729 649.360 C 779.680 651.403, 784.388 651.470, 786.347 649.510 C 792.638 643.219, 785.587 618.879, 770.772 595.750 C 765.961 588.239, 764.443 586.993, 762.450 588.918" />
    <path d="M 507.228 597.039 C 504.372 598.186, 503.404 600.577, 505.011 602.513 C 505.825 603.494, 508.087 604, 511.655 604 C 518.382 604, 522.511 605.723, 526.946 610.381 C 530.370 613.977, 533.895 615.142, 534.115 612.750 C 534.627 607.193, 530.969 602.160, 523.832 598.603 C 518.405 595.899, 511.651 595.263, 507.228 597.039" stroke-width="3" />
    <path d="M 278.838 605.182 C 271.884 607.034, 264 615.621, 264 621.343 C 264 625.333, 266.509 625.194, 269.865 621.018 C 273.688 616.262, 283.838 611, 289.191 611 C 294.046 611, 295.404 608.555, 292.056 605.844 C 289.573 603.834, 284.799 603.594, 278.838 605.182" stroke-width="3" />
    <path d="M 658.250 617.746 L 648 618.070 648 622.043 C 648 625.786, 648.246 626.114, 652.250 627.702 C 658.706 630.262, 668.927 635.805, 674.408 639.719 L 679.316 643.224 678.699 633.362 C 678.360 627.938, 677.783 622.038, 677.416 620.250 C 676.785 617.169, 676.535 617.011, 672.625 617.211 C 670.356 617.327, 663.888 617.568, 658.250 617.746" stroke-width="3" />
    <path d="M 497.223 630.062 C 482.245 633.014, 469.453 647.482, 466.815 664.454 C 461.796 696.732, 490.185 722.521, 520.205 712.955 C 526.537 710.937, 528.368 709.764, 534.076 704.065 C 544.432 693.726, 548.767 682.329, 547.702 668.244 C 546.705 655.056, 538.025 641.333, 526.337 634.464 C 518.583 629.907, 506.940 628.147, 497.223 630.062" />
    <path d="M 286.746 638.022 C 282.118 639.191, 273.597 643.448, 269.246 646.764 C 264.394 650.462, 259.319 657.918, 256.401 665.637 C 254.122 671.667, 253.853 673.653, 254.185 682 C 254.510 690.177, 255.018 692.475, 257.833 698.500 C 259.767 702.638, 263.128 707.558, 266.056 710.536 L 271.008 715.571 261.007 715.169 C 249.167 714.694, 242.980 716.303, 235.870 721.708 C 229.295 726.706, 226.653 731.805, 227.203 738.434 C 227.730 744.789, 230.273 748.668, 236.707 752.929 C 248.373 760.657, 266.975 761.123, 278.536 753.977 C 291.151 746.181, 293.088 732.215, 282.773 723.428 C 280.834 721.776, 280.315 720.970, 281.500 721.450 C 290.605 725.138, 303.207 724.263, 313.235 719.246 C 325.070 713.325, 332.587 704.097, 335.442 691.986 C 339.317 675.543, 335.618 660.820, 324.713 649.290 C 317.481 641.643, 309.173 637.865, 298.606 637.417 C 294.148 637.228, 288.811 637.500, 286.746 638.022" />
    <path d="M 492.071 643.752 C 487.041 646.317, 484.667 650.092, 484.667 655.526 C 484.667 659.366, 485.194 660.656, 487.853 663.314 C 490.647 666.109, 491.702 666.500, 496.439 666.500 C 500.784 666.500, 502.345 666.024, 504.431 664.065 C 510.823 658.059, 509.326 647.415, 501.594 643.903 C 496.532 641.604, 496.290 641.600, 492.071 643.752" stroke-width="3" />
    <path d="M 296.400 653.400 C 293.626 656.174, 293 657.564, 293 660.950 C 293 668.186, 296.265 672.594, 302.699 674.045 C 308.044 675.250, 314.083 672.453, 316.322 667.734 C 318.421 663.310, 318.422 661.693, 316.330 657.283 C 314.160 652.711, 309.639 650.008, 304.150 650.004 C 300.534 650.001, 299.227 650.573, 296.400 653.400" stroke-width="3" />
    <path d="M 442.368 697.783 C 440.993 699.984, 428.157 704.520, 417.662 706.512 C 408.604 708.232, 394.363 708.432, 385 706.971 C 375.485 705.486, 364.762 702.086, 362.711 699.904 C 360.281 697.318, 358.530 697.511, 356.073 700.635 C 353.691 703.662, 353.433 705.569, 355.308 706.288 C 356.027 706.564, 357.162 709.757, 357.831 713.384 C 361.026 730.727, 368.827 747.042, 378.468 756.546 C 387.436 765.387, 392.243 767.443, 404.015 767.475 C 412.723 767.498, 414.081 767.229, 420.015 764.306 C 435.173 756.840, 444.372 740.056, 449.185 711.086 C 451.177 699.097, 451.186 698.609, 449.434 697.328 C 446.891 695.469, 443.684 695.675, 442.368 697.783" />
    <path d="M 535.879 707.243 C 527.480 710.189, 522.764 713.789, 520.102 719.289 C 514.293 731.289, 521.578 742.120, 538.500 746.641 C 552.322 750.333, 569.576 745.667, 576.716 736.306 C 579.014 733.293, 579.500 731.654, 579.500 726.914 C 579.500 718.903, 575.801 713.718, 566.815 709.131 C 561.143 706.235, 558.969 705.702, 551.357 705.341 C 543.943 704.989, 541.422 705.299, 535.879 707.243" />
    <path d="M 537.190 711.479 C 528.839 714.086, 522 721.045, 522 726.936 C 522 730.252, 524.648 734.639, 528.249 737.288 C 534.037 741.547, 537.864 742.502, 549 742.467 C 557.472 742.441, 560.369 742.033, 564 740.357 C 569.788 737.685, 574.813 732.513, 575.576 728.444 C 576.761 722.129, 570.205 714.662, 560.814 711.629 C 554.765 709.675, 543.204 709.602, 537.190 711.479" />
    <path d="M 248.500 720.334 C 242.117 722.456, 238.518 724.646, 235.198 728.428 C 224.776 740.297, 236.897 754, 257.818 754 C 269.107 754, 280.295 749.198, 283.515 742.971 C 287.532 735.203, 283.579 727.279, 273.048 721.990 C 267.507 719.206, 254.525 718.330, 248.500 720.334" />
    <path d="M 388.624 733.998 C 383.632 735.948, 376 740.746, 376 741.936 C 376 742.301, 378.152 745.271, 380.783 748.536 C 384.221 752.804, 387.383 755.419, 392.033 757.838 C 397.982 760.934, 399.061 761.168, 405.500 760.760 C 410.032 760.473, 414.024 759.535, 416.821 758.102 C 421.836 755.531, 428.527 748.807, 431.742 743.106 L 433.985 739.131 426.858 735.565 C 417.454 730.861, 410.230 730.570, 406.365 734.740 L 403.825 737.480 401.829 734.740 C 399.409 731.418, 395.756 731.213, 388.624 733.998" />
  </g>
<g id="dark_details" fill="none" stroke="#111111" stroke-width="2.5" stroke-linejoin="round" stroke-linecap="round">
    <path d="M 518.159 285.608 C 510.602 289.374, 505.268 298.014, 509.497 299.637 C 510.363 299.969, 512.478 298.909, 514.511 297.125 C 520.249 292.086, 523.917 290.614, 531 290.507 C 537.064 290.415, 537.523 290.247, 537.845 288.010 C 538.339 284.579, 535.553 283, 529.005 283 C 524.961 283, 521.930 283.729, 518.159 285.608" />
    <path d="M 739.011 314.487 C 737.009 316.899, 738.554 318.743, 743.448 319.787 C 749.451 321.067, 754.256 324.454, 757.619 329.775 C 760.573 334.448, 763.278 335.042, 763.833 331.138 C 764.632 325.514, 759.907 318.524, 752.885 314.941 C 748.320 312.612, 740.772 312.365, 739.011 314.487" />
    <path d="M 536.500 329.830 C 527.900 332.711, 525.100 342.628, 530.993 349.339 C 534.504 353.338, 538.573 354.426, 543.653 352.725 C 555.158 348.871, 553.223 332.032, 541 329.648 C 539.625 329.380, 537.600 329.462, 536.500 329.830" />
    <path d="M 718.415 357.421 C 713.651 359.496, 711 363.540, 711 368.735 C 711 372.480, 711.549 373.749, 714.400 376.600 C 717.266 379.466, 718.512 380, 722.329 380 C 726.097 380, 727.457 379.435, 730.429 376.632 C 733.581 373.659, 734 372.688, 734 368.354 C 734 362.541, 732.078 359.348, 727.401 357.394 C 723.346 355.700, 722.362 355.703, 718.415 357.421" />
    <path d="M 507.228 597.039 C 504.372 598.186, 503.404 600.577, 505.011 602.513 C 505.825 603.494, 508.087 604, 511.655 604 C 518.382 604, 522.511 605.723, 526.946 610.381 C 530.370 613.977, 533.895 615.142, 534.115 612.750 C 534.627 607.193, 530.969 602.160, 523.832 598.603 C 518.405 595.899, 511.651 595.263, 507.228 597.039" />
    <path d="M 278.838 605.182 C 271.884 607.034, 264 615.621, 264 621.343 C 264 625.333, 266.509 625.194, 269.865 621.018 C 273.688 616.262, 283.838 611, 289.191 611 C 294.046 611, 295.404 608.555, 292.056 605.844 C 289.573 603.834, 284.799 603.594, 278.838 605.182" />
    <path d="M 658.250 617.746 L 648 618.070 648 622.043 C 648 625.786, 648.246 626.114, 652.250 627.702 C 658.706 630.262, 668.927 635.805, 674.408 639.719 L 679.316 643.224 678.699 633.362 C 678.360 627.938, 677.783 622.038, 677.416 620.250 C 676.785 617.169, 676.535 617.011, 672.625 617.211 C 670.356 617.327, 663.888 617.568, 658.250 617.746" />
    <path d="M 492.071 643.752 C 487.041 646.317, 484.667 650.092, 484.667 655.526 C 484.667 659.366, 485.194 660.656, 487.853 663.314 C 490.647 666.109, 491.702 666.500, 496.439 666.500 C 500.784 666.500, 502.345 666.024, 504.431 664.065 C 510.823 658.059, 509.326 647.415, 501.594 643.903 C 496.532 641.604, 496.290 641.600, 492.071 643.752" />
    <path d="M 296.400 653.400 C 293.626 656.174, 293 657.564, 293 660.950 C 293 668.186, 296.265 672.594, 302.699 674.045 C 308.044 675.250, 314.083 672.453, 316.322 667.734 C 318.421 663.310, 318.422 661.693, 316.330 657.283 C 314.160 652.711, 309.639 650.008, 304.150 650.004 C 300.534 650.001, 299.227 650.573, 296.400 653.400" />
  </g>

<!-- لوحة التحكم -->
<rect x="0" y="860" width="1024" height="224" fill="#1a1a2e"/>
<rect x="0" y="860" width="1024" height="5" fill="#e94560"/>
<text x="14" y="880" font-family="sans-serif" font-size="12" fill="#f5a623" font-weight="bold">🎨 اختر لون:</text>

  <rect class="swatch" x="20" y="870" width="32" height="28" rx="6" fill="#FF6B6B" onclick="pick('#FF6B6B', this)" />
  <rect class="swatch" x="62" y="870" width="32" height="28" rx="6" fill="#FF8E53" onclick="pick('#FF8E53', this)" />
  <rect class="swatch" x="104" y="870" width="32" height="28" rx="6" fill="#FFC107" onclick="pick('#FFC107', this)" />
  <rect class="swatch" x="146" y="870" width="32" height="28" rx="6" fill="#A8E063" onclick="pick('#A8E063', this)" />
  <rect class="swatch" x="188" y="870" width="32" height="28" rx="6" fill="#56CCF2" onclick="pick('#56CCF2', this)" />
  <rect class="swatch" x="20" y="906" width="32" height="28" rx="6" fill="#764BA2" onclick="pick('#764BA2', this)" />
  <rect class="swatch" x="62" y="906" width="32" height="28" rx="6" fill="#F093FB" onclick="pick('#F093FB', this)" />
  <rect class="swatch" x="104" y="906" width="32" height="28" rx="6" fill="#4ECDC4" onclick="pick('#4ECDC4', this)" />
  <rect class="swatch" x="146" y="906" width="32" height="28" rx="6" fill="#D62839" onclick="pick('#D62839', this)" />
  <rect class="swatch" x="188" y="906" width="32" height="28" rx="6" fill="#E84393" onclick="pick('#E84393', this)" />
  <rect class="swatch" x="20" y="942" width="32" height="28" rx="6" fill="#F7B731" onclick="pick('#F7B731', this)" />
  <rect class="swatch" x="62" y="942" width="32" height="28" rx="6" fill="#20BF6B" onclick="pick('#20BF6B', this)" />
  <rect class="swatch" x="104" y="942" width="32" height="28" rx="6" fill="#0652DD" onclick="pick('#0652DD', this)" />
  <rect class="swatch" x="146" y="942" width="32" height="28" rx="6" fill="#C0392B" onclick="pick('#C0392B', this)" />
  <rect class="swatch" x="188" y="942" width="32" height="28" rx="6" fill="#2C3E50" onclick="pick('#2C3E50', this)" />
  <rect class="swatch" x="20" y="978" width="32" height="28" rx="6" fill="#8E44AD" onclick="pick('#8E44AD', this)" />
  <rect class="swatch" x="62" y="978" width="32" height="28" rx="6" fill="#1ABC9C" onclick="pick('#1ABC9C', this)" />
  <rect class="swatch" x="104" y="978" width="32" height="28" rx="6" fill="#E67E22" onclick="pick('#E67E22', this)" />
  <rect class="swatch" x="146" y="978" width="32" height="28" rx="6" fill="#2980B9" onclick="pick('#2980B9', this)" />
  <rect class="swatch" x="188" y="978" width="32" height="28" rx="6" fill="#27AE60" onclick="pick('#27AE60', this)" />
  <rect class="swatch" x="20" y="1014" width="32" height="28" rx="6" fill="#FF5252" onclick="pick('#FF5252', this)" />
  <rect class="swatch" x="62" y="1014" width="32" height="28" rx="6" fill="#FF6F00" onclick="pick('#FF6F00', this)" />
  <rect class="swatch" x="104" y="1014" width="32" height="28" rx="6" fill="#E040FB" onclick="pick('#E040FB', this)" />
  <rect class="swatch" x="146" y="1014" width="32" height="28" rx="6" fill="#00BCD4" onclick="pick('#00BCD4', this)" />
  <rect class="swatch" x="188" y="1014" width="32" height="28" rx="6" fill="#8BC34A" onclick="pick('#8BC34A', this)" />


<!-- أزرار -->
<rect id="eraserBtn" x="240" y="952" width="70" height="28" rx="7" fill="#0f3460" stroke="#444" stroke-width="1.5" onclick="toggleErase()" style="cursor:pointer"/>
<text x="275" y="971" font-family="sans-serif" font-size="12" fill="#eee" text-anchor="middle" pointer-events="none">🧹 محو</text>

<rect id="undoBtn" x="320" y="952" width="70" height="28" rx="7" fill="#0f3460" stroke="#444" stroke-width="1.5" onclick="undo()" style="cursor:pointer"/>
<text x="355" y="971" font-family="sans-serif" font-size="12" fill="#eee" text-anchor="middle" pointer-events="none">↩ تراجع</text>

<rect id="clearBtn" x="400" y="952" width="70" height="28" rx="7" fill="#0f3460" stroke="#444" stroke-width="1.5" onclick="clearAll()" style="cursor:pointer"/>
<text x="435" y="971" font-family="sans-serif" font-size="12" fill="#eee" text-anchor="middle" pointer-events="none">🗑 مسح</text>

<text x="490" y="967" font-family="sans-serif" font-size="11" fill="#aaa">اللون:</text>
<rect id="preview" x="525" y="952" width="28" height="28" rx="6" fill="#FF6B6B" stroke="#666" stroke-width="1.5"/>

<!-- شريط الشفافية -->
<text x="570" y="964" font-family="sans-serif" font-size="11" fill="#aaa">شفافية:</text>
<text id="opLabel" x="570" y="978" font-family="sans-serif" font-size="11" fill="#f5a623">100%</text>
<rect x="620" y="957" width="100" height="7" rx="3" fill="#333"/>
<rect id="opBar" x="620" y="957" width="100" height="7" rx="3" fill="#f5a623"/>
<rect x="620" y="950" width="100" height="22" rx="3" fill="transparent" onmousedown="startSlide(evt)" onmousemove="slideMove(evt)" onmouseup="endSlide()" style="cursor:ew-resize"/>

<script type="text/javascript"><![CDATA[
  var activeColor = '#FF6B6B';
  var eraseMode = false;
  var opacity = 1.0;
  var sliding = false;
  var history = [];

  document.querySelectorAll('.swatch')[0].classList.add('active');

  function pick(c, el) {
    activeColor = c;
    eraseMode = false;
    document.getElementById('preview').setAttribute('fill', c);
    document.getElementById('eraserBtn').setAttribute('fill','#0f3460');
    document.querySelectorAll('.swatch').forEach(function(s){s.classList.remove('active');});
    el.classList.add('active');
  }

  function toggleErase() {
    eraseMode = !eraseMode;
    var el = document.getElementById('eraserBtn');
    el.setAttribute('fill', eraseMode ? '#fff0f0' : '#0f3460');
    el.setAttribute('stroke', eraseMode ? '#e94560' : '#444');
  }

  function fillRegion(el) {
    history.push({ el:el, fill:el.getAttribute('fill'), op:el.getAttribute('fill-opacity') });
    if (eraseMode) {
      el.setAttribute('fill','none');
      el.setAttribute('fill-opacity','1');
    } else {
      el.setAttribute('fill', activeColor);
      el.setAttribute('fill-opacity', opacity);
    }
  }

  function undo() {
    if (!history.length) return;
    var last = history.pop();
    last.el.setAttribute('fill', last.fill || 'none');
    last.el.setAttribute('fill-opacity', last.op || '1');
  }

  function clearAll() {
    document.querySelectorAll('.region').forEach(function(r){
      r.setAttribute('fill','none');
      r.setAttribute('fill-opacity','1');
    });
    history = [];
  }

  function startSlide(evt) { sliding=true; slideMove(evt); }
  function endSlide() { sliding=false; }
  function slideMove(evt) {
    if (!sliding) return;
    var svg = evt.target.ownerSVGElement;
    var pt = svg.createSVGPoint();
    pt.x = evt.clientX; pt.y = evt.clientY;
    var sp = pt.matrixTransform(svg.getScreenCTM().inverse());
    var pct = Math.max(0, Math.min(1, (sp.x - 620) / 100));
    opacity = pct;
    document.getElementById('opBar').setAttribute('width', Math.round(pct*100));
    document.getElementById('opLabel').textContent = Math.round(pct*100) + '%';
  }
]]></script>
</svg>