<svg xmlns="http://www.w3.org/2000/svg" width="1024" height="1200" viewBox="0 0 1024 1024">
<defs>
  <style>
    .region { cursor:pointer; transition: opacity 0.1s; }
    .region:hover { opacity:0.75; }
    .swatch { cursor:pointer; stroke:transparent; stroke-width:3; }
    .swatch:hover { stroke:#fff; stroke-width:3; }
    .swatch.active { stroke:#fff; stroke-width:3.5; }
  </style>
</defs>
<rect width="1024" height="1024" fill="white"/>
<g pointer-events="none">
  <path d="M 763.448 105.998 C 731.552 108.210, 699.280 115.055, 671 125.606 C 651.878 132.740, 638.577 139.061, 617.851 150.861 L 612.202 154.077 600.351 149.990 C 581.086 143.347, 560.312 138.528, 537 135.295 C 519.070 132.808, 465.783 132.820, 448 135.315 C 421.206 139.074, 396.368 145.258, 377.599 152.843 L 367.699 156.844 354.642 149.254 C 305.115 120.464, 247.355 104.577, 198.118 106.201 C 186.854 106.573, 183.636 107.035, 179.500 108.875 C 164.823 115.403, 159.759 128.681, 158.397 164.209 C 156.425 215.663, 168.448 275.990, 188.749 316.500 C 191.848 322.685, 200.434 335.850, 206.031 343 C 207.975 345.483, 207.975 345.544, 205.979 352 C 196.734 381.902, 192.078 412.665, 193.397 435.131 L 194.021 445.762 185.261 446.458 C 174.119 447.344, 162.168 449.717, 159.191 451.635 C 157.428 452.772, 156.955 453.875, 157.191 456.305 C 157.662 461.160, 160.603 462.050, 171 460.486 C 175.675 459.783, 183.047 459.048, 187.382 458.854 L 195.263 458.500 198.108 469.114 C 199.672 474.952, 202.506 483.413, 204.405 487.916 L 207.858 496.103 205.179 497.138 C 203.706 497.707, 199.658 499.250, 196.185 500.566 C 181.197 506.246, 169 514.300, 169 518.516 C 169 521.073, 172.326 524, 175.232 524 C 176.215 524, 180.727 522.004, 185.260 519.565 C 189.792 517.126, 195.750 514.246, 198.500 513.164 C 201.250 512.082, 205.794 510.286, 208.598 509.173 L 213.696 507.149 219.598 515.288 C 231.941 532.309, 252.219 550.238, 273.335 562.800 C 283.528 568.865, 305.921 579.236, 315.750 582.446 C 318.638 583.389, 321 584.489, 321 584.891 C 321 585.292, 319.851 588.519, 318.447 592.060 C 311.429 609.759, 304.957 637.041, 303.486 655.127 L 302.784 663.754 294.398 665.969 C 277.309 670.484, 260.525 680.843, 249.912 693.427 C 241.779 703.069, 236.880 711.667, 232.258 724.408 L 228.597 734.500 228.549 752 C 228.502 768.614, 228.643 769.927, 231.326 777.938 C 232.880 782.579, 235.057 788.151, 236.163 790.320 L 238.175 794.263 235.548 799.089 C 226.890 814.997, 225.704 834.588, 232.578 848.154 C 237.436 857.740, 248.721 866.562, 261.680 870.904 C 283.234 878.125, 327.777 877.969, 345.386 870.612 L 349.140 869.044 355.163 874.056 C 366.764 883.710, 382.708 889.689, 403.207 892.073 C 416.632 893.633, 448.037 892.733, 458 890.502 C 474.786 886.743, 487.911 879.710, 495.532 870.391 L 499.564 865.460 506.032 871.990 C 517.261 883.327, 533.255 889.440, 558.500 892.045 C 578.123 894.069, 605.497 892.043, 620.992 887.418 C 629.919 884.754, 641.931 878.179, 647.507 872.905 L 652.708 867.986 656.890 869.461 C 671.261 874.532, 707.777 876.588, 729.500 873.549 C 755.643 869.893, 772.096 860.769, 778.748 846.240 C 780.854 841.639, 781.351 838.997, 781.418 832.044 C 781.463 827.345, 781.950 823.169, 782.500 822.765 C 783.050 822.361, 786.200 822.015, 789.500 821.996 C 803.439 821.914, 824.708 817.172, 841 810.514 C 866.883 799.935, 887.065 783.716, 901.135 762.188 C 909.605 749.227, 915.782 733.499, 918.582 717.765 C 920.787 705.370, 920.785 680.696, 918.577 668.039 C 910.363 620.945, 878.682 586.555, 841.415 584.280 C 823.372 583.179, 806.127 589.698, 793.432 602.418 C 785.260 610.607, 782.242 616.223, 780.716 626.077 C 779.397 634.602, 780.698 642.424, 784.974 651.680 C 788.424 659.147, 794.108 665.510, 803.617 672.549 C 813.191 679.636, 815.330 682.818, 815.833 690.718 C 816.073 694.493, 815.714 698.319, 814.937 700.260 C 809.694 713.354, 793.647 724.228, 776.201 726.508 L 770.902 727.201 769.706 723.851 C 766.589 715.122, 758.471 700.704, 752.453 693.211 C 739.561 677.157, 722.543 665.955, 701.837 659.894 L 694.175 657.651 693.537 653.075 C 691.420 637.876, 682.655 609.739, 674.130 590.776 C 672.467 587.078, 671.420 583.861, 671.803 583.627 C 672.187 583.394, 677.675 581.173, 684 578.692 C 708.056 569.255, 725.049 560.039, 742.500 546.965 C 753.019 539.084, 768.388 523.564, 775.889 513.250 C 778.788 509.263, 781.272 506, 781.408 506 C 782.520 506, 796.153 512.044, 803.054 515.596 C 814.584 521.532, 819 521.322, 819 514.840 C 819 510.749, 815.085 507.693, 801 500.789 C 794.125 497.419, 788.316 494.516, 788.091 494.338 C 787.866 494.160, 789.095 490.402, 790.824 485.987 C 794.025 477.808, 799 460.046, 799 456.795 C 799 454.499, 802.304 454.460, 816.629 456.588 C 829.130 458.445, 832 457.808, 832 453.176 C 832 451.600, 831.212 449.603, 830.250 448.739 C 828.171 446.873, 818.866 444.400, 810.500 443.489 C 800.512 442.402, 801.382 443.976, 800.688 425.731 C 799.753 401.153, 796.218 382.962, 787.334 357 L 782.714 343.500 787.232 337 C 793.851 327.477, 797.385 320.771, 801.991 309 C 815.094 275.508, 821.969 234.424, 821.988 189.500 C 822.011 136.056, 815.529 113.550, 798.393 107.581 C 792.369 105.483, 779.367 104.894, 763.448 105.998" fill="white" stroke="none" fill-rule="nonzero"/>
  <path d="M 769.500 121.620 C 738.959 123.261, 703.250 131.002, 673.994 142.324 C 658.648 148.263, 635.706 159.337, 624 166.456 L 614.500 172.233 610 170.561 C 595.352 165.121, 574.722 158.797, 563 156.154 C 501.743 142.344, 434.676 147.024, 379.387 168.967 C 366.689 174.007, 363.594 174.770, 362.570 173.114 C 361.461 171.319, 341.076 159.886, 327 153.165 C 284.126 132.694, 236.568 121.097, 199.766 122.142 C 188.835 122.452, 186.767 122.782, 184.323 124.605 C 176.821 130.198, 174.763 140.573, 174.722 173 C 174.684 203.367, 176.193 216.834, 183.016 247 C 190.990 282.262, 206.156 315.610, 222.467 333.753 C 224.960 336.525, 226.993 339.628, 226.985 340.647 C 226.977 341.666, 225.851 346.100, 224.483 350.500 C 220.905 362.010, 216.409 383.450, 214.417 398.500 C 212.786 410.824, 211.826 444.159, 213.066 445.399 C 213.377 445.710, 218.913 446.657, 225.367 447.503 C 239.304 449.331, 250.085 451.761, 262.967 455.982 C 273.017 459.274, 276 461.152, 276 464.187 C 276 467.070, 272.257 467.888, 266.021 466.366 C 252.664 463.107, 230.657 458.946, 223.642 458.352 C 216.792 457.773, 216 457.887, 216 459.452 C 216 462.236, 222.858 482.113, 225.333 486.501 C 227.951 491.145, 228.109 491.165, 245 489.045 C 256.560 487.594, 280.622 488.097, 285.250 489.887 C 288.470 491.132, 289.080 495.369, 286.250 496.839 C 285.287 497.339, 277.075 497.994, 268 498.294 C 250.423 498.876, 235 500.717, 235 502.232 C 235 504.209, 244.205 514.952, 253.653 524 C 285.904 554.886, 331.771 574.524, 396.394 585.116 C 406.902 586.838, 416.513 588.877, 417.750 589.647 C 420.953 591.639, 420.799 596.430, 417.461 598.617 C 415.343 600.006, 413.396 600.170, 405.711 599.611 C 389.582 598.436, 371.991 596.025, 354.761 592.628 L 338.022 589.327 336.147 594.413 C 326.309 621.115, 321.957 644.331, 321.271 673.770 C 320.578 703.549, 323.590 721.454, 332.223 738.872 L 336.500 747.500 336.783 736.252 C 337.050 725.608, 337.195 724.918, 339.484 723.419 C 342.220 721.626, 345.531 722.251, 346.898 724.818 C 347.391 725.743, 348.111 729.650, 348.498 733.500 C 350.731 755.693, 356.847 776.567, 367 796.641 L 373.900 810.285 368.981 814.707 C 365.896 817.480, 362.847 821.597, 360.806 825.742 C 358.014 831.413, 357.548 833.431, 357.526 839.927 C 357.504 846.216, 357.971 848.460, 360.280 853.161 C 363.327 859.366, 368.691 864.781, 374.956 867.978 C 379.343 870.215, 390.873 873.461, 391.656 872.678 C 391.921 872.412, 391.600 868.516, 390.943 864.019 C 389.567 854.610, 390.105 841.783, 391.970 839.536 C 393.633 837.533, 397.618 837.561, 398.393 839.582 C 398.727 840.452, 399 844.930, 399 849.533 C 399 861.159, 400.545 867.537, 404.362 871.675 C 407.047 874.585, 408.510 875.232, 414.500 876.159 C 423.857 877.607, 435.581 876.690, 438.926 874.249 C 444.025 870.528, 445.359 865.872, 445.433 851.540 L 445.500 838.500 448.607 838.197 C 451.275 837.937, 451.899 838.341, 453.025 841.060 C 454.494 844.608, 454.900 863.173, 453.645 869.384 L 452.859 873.268 457.726 872.800 C 467.978 871.815, 479.766 864.158, 484.170 855.622 C 490.461 843.430, 484.563 824.357, 470.367 810.985 L 464.545 805.500 457.238 781.500 C 440.485 726.468, 439.016 721.088, 440.019 718.451 C 442.145 712.857, 447.992 714.052, 451.352 720.767 C 452.654 723.370, 459.040 741.250, 465.543 760.500 L 477.365 795.500 483.583 801.628 C 487.002 804.999, 491.805 810.512, 494.256 813.881 L 498.713 820.005 502.572 813.753 C 504.694 810.314, 509.483 804.448, 513.214 800.717 L 519.996 793.935 532.576 755.890 C 540.283 732.580, 545.923 717.077, 547.138 715.862 C 549.824 713.176, 554.025 713.762, 555.880 717.083 C 557.219 719.480, 556.738 721.706, 549.180 748.083 C 531.423 810.057, 533.636 803.789, 527.619 809.152 C 521.692 814.434, 514.882 824.250, 512.542 830.881 C 510.192 837.542, 510.548 847.490, 513.353 853.500 C 517.708 862.833, 529.229 870.549, 540.553 871.718 L 546.111 872.291 545.318 869.396 C 544.882 867.803, 544.519 860.607, 544.512 853.404 C 544.499 839.274, 545.203 837, 549.587 837 C 553.173 837, 554.134 839.955, 553.403 848.731 C 552.925 854.464, 553.190 858.197, 554.414 862.975 C 557.201 873.847, 560.836 875.989, 576.500 875.989 C 587.422 875.989, 591.805 874.879, 595.186 871.256 C 599.087 867.077, 600.407 861.682, 600.456 849.714 C 600.501 838.786, 601.081 837.061, 604.727 837.015 C 608.742 836.965, 610.646 851.031, 608.635 865.893 L 607.770 872.286 612.423 871.762 C 618.944 871.027, 629.029 865.785, 634.396 860.341 C 640.645 854.002, 642.375 849.046, 641.801 839.128 C 641.226 829.187, 637.885 821.929, 630.475 814.519 L 625.197 809.240 630.610 798.687 C 640.281 779.837, 647.172 755.323, 648.622 734.624 C 649.186 726.556, 649.711 724.285, 651.485 722.222 C 653.210 720.218, 654.215 719.837, 656.364 720.377 C 660.100 721.314, 661 724.386, 661 736.200 C 661 746.248, 661.004 746.265, 662.886 743.872 C 673.572 730.286, 679.895 705.861, 678.554 683.348 C 677.382 663.666, 671.983 637.216, 665.386 618.836 C 663.184 612.700, 653.419 590.086, 652.632 589.299 C 652.499 589.166, 645.890 590.357, 637.945 591.946 C 619.910 595.552, 611.927 596.768, 595.500 598.411 C 578.976 600.063, 575.057 599.105, 575.015 593.405 C 574.987 589.502, 578.252 587.966, 590.885 585.938 C 666.627 573.784, 724.826 546.222, 755.224 508.110 C 758.467 504.045, 760.755 500.384, 760.310 499.975 C 758.352 498.177, 738.974 495.713, 721.610 495.054 C 704.853 494.418, 702.567 494.128, 701.363 492.481 C 700.227 490.929, 700.224 490.295, 701.343 488.610 C 703.468 485.409, 707.392 484.777, 725.500 484.720 C 738.938 484.677, 744.999 485.128, 754.425 486.873 C 760.984 488.086, 766.880 488.876, 767.527 488.628 C 769.880 487.725, 779 461.872, 779 456.106 L 779 453.705 769.526 454.371 C 757.584 455.210, 745.861 457.234, 730.259 461.149 C 716.611 464.574, 713 464.439, 713 460.501 C 713 458.662, 713.947 457.562, 716.750 456.143 C 728.137 450.381, 750.185 444.808, 769.139 442.901 L 780.778 441.730 781.418 436.909 C 782.255 430.596, 780.482 409.068, 777.951 394.815 C 775.686 382.065, 770.691 363.809, 765.490 349.271 L 761.994 339.500 763.952 337 C 778.003 319.067, 788.418 296.917, 794.985 271 C 805.656 228.883, 808.654 177.913, 802.524 142.799 C 800.937 133.709, 797.641 126.393, 794 123.875 C 791.325 122.026, 780.501 121.029, 769.500 121.620" fill="white" stroke="none" fill-rule="evenodd"/>
  <path d="M 207.356 161.354 C 202.494 165.445, 201.491 170.747, 201.558 192 C 201.621 212.017, 202.843 221.317, 208.103 241.836 C 213.683 263.600, 225.174 287.276, 238.249 303.945 C 245.125 312.712, 246.308 312.431, 253.812 300.250 C 262.694 285.833, 271.248 274.797, 282.863 262.768 C 295.468 249.714, 295.494 249.385, 284.459 242.507 C 280.302 239.916, 277.064 237.280, 277.263 236.648 C 277.861 234.746, 287.591 228.645, 293.739 226.317 C 296.907 225.117, 302.716 223.199, 306.648 222.056 C 317.738 218.829, 317.840 215.978, 307.225 205.838 C 283.741 183.401, 242.032 162.063, 216.429 159.387 C 210.965 158.816, 210.166 158.989, 207.356 161.354" fill="white" stroke="none" fill-rule="evenodd"/>
  <path d="M 749 161.510 C 726.819 167.678, 701.316 181.544, 681.411 198.258 C 663.560 213.246, 662.719 217.689, 677 221.552 C 688.016 224.533, 706 233.550, 706 236.093 C 706 236.580, 702.898 239.234, 699.106 241.992 C 692.034 247.135, 690.641 248.902, 691.629 251.475 C 691.940 252.286, 697.474 258.249, 703.926 264.725 C 715.643 276.486, 728.147 291.437, 735.274 302.208 C 739.698 308.893, 740.332 309.384, 743.512 308.586 C 749.032 307.201, 762.393 283.210, 769.129 262.589 C 781.021 226.183, 782.750 169.241, 772.214 160.953 C 768.798 158.267, 759.897 158.480, 749 161.510" fill="white" stroke="none" fill-rule="evenodd"/>
  <path d="M 213.864 172.662 C 212.925 173.793, 212.391 178.112, 212.151 186.514 C 211.414 212.289, 218.671 245.023, 230.549 269.500 C 235.653 280.018, 242.836 292.043, 243.966 291.961 C 244.260 291.940, 247.834 286.972, 251.910 280.921 C 255.985 274.870, 263.073 265.932, 267.660 261.059 C 272.247 256.187, 276 251.966, 276 251.681 C 276 251.396, 274.313 250.122, 272.250 248.849 C 265.993 244.987, 261 239.950, 261 237.498 C 261 232.309, 279.248 218.939, 292.750 214.236 C 294.538 213.613, 295.979 212.743, 295.954 212.302 C 295.892 211.230, 282.996 201.223, 275.500 196.431 C 256.384 184.210, 236.976 175.850, 217.864 171.605 C 216.083 171.209, 214.787 171.552, 213.864 172.662" fill="white" stroke="none" fill-rule="evenodd"/>
  <path d="M 751 173.427 C 731.273 179.454, 710.475 190.745, 692.355 205.266 C 688.839 208.084, 686.088 210.765, 686.242 211.226 C 686.395 211.686, 690.004 213.577, 694.261 215.427 C 708.409 221.578, 722 231.932, 722 236.561 C 722 238.134, 719.815 240.791, 715.007 245.064 L 708.015 251.278 717.757 261.408 C 723.116 266.979, 730.610 275.578, 734.411 280.518 C 738.211 285.458, 741.652 289.881, 742.056 290.346 C 743.025 291.460, 748.698 281.660, 753.291 270.941 C 761.289 252.273, 766.454 229.877, 767.805 208 C 768.650 194.318, 767.862 178.070, 766.143 173.750 C 764.762 170.277, 761.536 170.209, 751 173.427" fill="white" stroke="none" fill-rule="evenodd"/>
  <path d="M 337.254 336.460 C 328.326 339.249, 319 346.900, 319 351.435 C 319 356.875, 323.600 357.354, 329.265 352.505 C 335.334 347.310, 341.329 344.800, 349.599 343.990 C 359.540 343.017, 361.984 340.984, 358 337 C 356.352 335.352, 354.723 335.012, 348.750 335.067 C 344.762 335.104, 339.589 335.731, 337.254 336.460" fill="white" stroke="none" fill-rule="evenodd"/>
  <path d="M 621.750 336.519 C 618.853 338.147, 618.148 341.076, 620.250 342.750 C 620.938 343.298, 624.692 343.963, 628.594 344.228 C 636.834 344.789, 644.311 347.853, 650.845 353.347 C 653.234 355.356, 655.790 357, 656.523 357 C 658.546 357, 661 354.120, 661 351.745 C 661 348.428, 652.102 340.569, 645.377 337.947 C 637.861 335.016, 625.731 334.283, 621.750 336.519" fill="white" stroke="none" fill-rule="evenodd"/>
  <path d="M 349.124 367.578 C 335.176 371.329, 321.430 381.725, 313.415 394.584 C 306.447 405.764, 303.892 414.225, 303.259 428.220 C 302.599 442.780, 303.878 449.870, 309.143 460.841 C 315.764 474.640, 329.877 486.550, 342 488.569 C 345.340 489.125, 345.248 489.002, 340 485.881 C 328.112 478.811, 317.767 464.598, 314.537 450.897 C 310.682 434.541, 314.642 416.683, 325.504 401.447 C 331.746 392.693, 333.825 391.383, 330.114 398.545 C 325.524 407.401, 323.633 415.921, 323.575 428 C 323.514 440.777, 324.886 446.788, 330.532 458.500 C 340.173 478.499, 356.338 489.426, 376.018 489.248 C 392.915 489.096, 408.427 478.882, 416.810 462.387 C 422.580 451.035, 424.518 432.864, 421.490 418.500 C 419.607 409.573, 412.624 395.121, 406.685 387.862 C 398.323 377.641, 385.687 369.600, 374.073 367.109 C 367.066 365.606, 355.656 365.821, 349.124 367.578" fill="white" stroke="none" fill-rule="evenodd"/>
  <path d="M 605.608 368.522 C 584.460 374.329, 567.568 392.484, 561.437 416 C 559.427 423.708, 559.191 439.726, 560.957 448.500 C 562.958 458.437, 568.957 469.640, 576.100 476.782 C 602.471 503.146, 642.276 491.173, 655.712 452.835 C 659.498 442.030, 660.108 423.595, 657.047 412.440 C 655.850 408.074, 653.385 401.706, 651.570 398.288 C 647.232 390.119, 649.875 391.390, 656.883 400.842 C 666.051 413.209, 670 425.062, 670 440.213 C 670 450.857, 668.405 457.465, 663.655 466.500 C 660.116 473.230, 649.449 484.472, 643.750 487.477 C 638.200 490.404, 639.200 491.167, 645.670 488.941 C 654.092 486.044, 659.066 482.776, 665.293 476.050 C 687.987 451.538, 685.417 408.776, 659.745 383.732 C 651.810 375.991, 640.327 369.827, 630.566 368.069 C 622.723 366.656, 611.674 366.857, 605.608 368.522" fill="white" stroke="none" fill-rule="evenodd"/>
  <path d="M 378.309 388.466 C 376.554 389.229, 373.742 391.754, 372.059 394.077 C 362.146 407.762, 377.426 427.071, 391.784 419.001 C 403.122 412.629, 402.681 395.128, 391.034 389.250 C 385.942 386.680, 382.854 386.490, 378.309 388.466" fill="white" stroke="none" fill-rule="evenodd"/>
  <path d="M 591.500 389.959 C 588.695 391.127, 584.327 395.972, 583.064 399.315 C 581.472 403.529, 581.813 408.991, 583.964 413.729 C 590.663 428.487, 613.037 422.221, 612.984 405.602 C 612.963 399.217, 609.828 393.415, 605.016 390.854 C 601.408 388.934, 594.984 388.509, 591.500 389.959" fill="white" stroke="none" fill-rule="evenodd"/>
  <path d="M 478.613 454.057 C 472.602 455.555, 467.013 459.100, 466.322 461.853 C 465.020 467.039, 473.033 475.348, 483.480 479.644 C 487.942 481.479, 487.994 481.556, 488.142 486.500 C 488.609 502.159, 484.491 509.705, 474.174 512.097 C 468.891 513.322, 461.260 510.914, 457.355 506.791 C 453.117 502.313, 452 499.855, 452 495 C 452 489.286, 450.568 487, 446.988 487 C 440.632 487, 439.460 495.145, 444.216 506.257 C 448.170 515.493, 458.841 521.974, 470.124 521.990 C 478.771 522.003, 484.515 519.883, 489.757 514.743 L 494.014 510.570 496.982 513.819 C 503.829 521.316, 517.405 524.126, 528.504 520.344 C 534.280 518.376, 541.293 511.772, 544.045 505.709 C 546.641 499.992, 546.711 489.953, 544.171 487.655 C 539.936 483.822, 536.002 487.154, 535.996 494.579 C 535.992 500.409, 533.760 504.556, 528.445 508.609 C 525.407 510.927, 523.502 511.517, 518.110 511.812 C 512.476 512.120, 510.983 511.827, 508 509.828 C 501.816 505.686, 497.725 493.608, 499.430 484.522 C 500.001 481.478, 500.832 480.657, 505.768 478.260 C 513.746 474.385, 520 468.225, 520 464.243 C 520 457.244, 512.080 453.806, 495 453.392 C 488.125 453.225, 480.751 453.524, 478.613 454.057" fill="white" stroke="none" fill-rule="evenodd"/>
  <path d="M 826.870 601.060 C 815.634 603.719, 803.205 612.813, 799.035 621.428 C 796.211 627.262, 796.350 635.090, 799.392 641.500 C 802.226 647.471, 806.072 651.674, 815.640 659.253 C 827.349 668.529, 831.698 675.349, 833.411 687.116 C 834.368 693.695, 831.741 705.172, 827.768 711.772 C 819.407 725.663, 801.313 736.952, 781 740.954 L 775.500 742.038 775.459 756.769 C 775.414 772.719, 774.045 780.031, 769.378 789.241 L 766.903 794.125 770.263 798.813 C 773.474 803.291, 773.866 803.515, 779.062 803.831 C 786.837 804.305, 804.734 802.182, 815.917 799.460 C 859.503 788.850, 890.320 759.428, 900.190 719 C 903.200 706.673, 903.828 683.314, 901.500 670.267 C 897.637 648.618, 889.654 632.479, 876.090 618.900 C 869.208 612.010, 865.810 609.474, 859 606.144 C 847.242 600.395, 836.719 598.729, 826.870 601.060" fill="white" stroke="none" fill-rule="evenodd"/>
  <path d="M 696.298 682.250 C 697.563 695.970, 694.137 719.372, 688.838 733.209 C 683.676 746.689, 671.768 762.425, 660.030 771.278 C 658.122 772.717, 656.784 774.117, 657.057 774.390 C 657.329 774.662, 662.040 773.357, 667.526 771.489 C 691.984 763.160, 719.550 765.518, 742.841 777.933 L 750.181 781.845 752.022 777.673 C 756.456 767.622, 757.065 748.421, 753.406 734 C 748.629 715.169, 735.678 696.647, 719.704 685.799 C 713.432 681.540, 701.006 676, 697.724 676 C 695.874 676, 695.766 676.473, 696.298 682.250" fill="white" stroke="none" fill-rule="evenodd"/>
  <path d="M 289.833 683.924 C 269.577 692.378, 252.865 712.569, 248.387 734 C 246.028 745.284, 246.880 762.269, 250.288 771.903 C 253.458 780.867, 254.328 781.918, 256.760 779.717 C 259.285 777.432, 269.027 773.224, 278.500 770.326 C 285.311 768.242, 288.506 767.880, 300 767.888 C 311.271 767.896, 315.129 768.323, 323.366 770.476 C 328.792 771.894, 334.192 773.567, 335.366 774.194 C 336.540 774.821, 335.209 772.826, 332.410 769.761 C 316.509 752.353, 305.731 725.019, 303.522 696.500 C 302.380 681.750, 302.166 680.991, 299.162 681.070 C 297.698 681.109, 293.500 682.393, 289.833 683.924" fill="white" stroke="none" fill-rule="evenodd"/>
  <path d="M 682.113 781.481 C 672.242 783.721, 666.775 785.765, 660.379 789.605 C 652.902 794.094, 649.215 797.599, 647.381 801.961 C 646.036 805.160, 646.079 805.616, 647.950 807.961 C 651.506 812.420, 656.842 821.780, 658.643 826.717 C 659.860 830.053, 660.401 834.586, 660.432 841.706 L 660.476 851.911 663.988 853.433 C 673.947 857.748, 684.270 857.974, 688.533 853.969 C 692.299 850.431, 693.258 845.926, 692.861 833.649 L 692.500 822.500 695.774 822.185 C 698.729 821.900, 699.206 822.241, 700.675 825.685 C 702.900 830.899, 702.947 846.965, 700.754 852.660 C 699.873 854.947, 699.418 857.085, 699.743 857.410 C 700.952 858.619, 719.086 857.991, 722.282 856.629 C 730.351 853.191, 733.769 843.970, 731.877 830.742 C 730.616 821.925, 731.474 819.683, 735.914 820.199 C 738.030 820.445, 738.810 821.409, 740.206 825.500 C 742.299 831.631, 742.452 841.711, 740.562 848.813 L 739.148 854.126 742.324 853.456 C 744.071 853.087, 747.692 851.608, 750.370 850.168 C 764.877 842.373, 766.924 824.790, 755.317 807.678 C 747.671 796.407, 735.672 788.143, 719.500 783.009 C 710.413 780.124, 691.497 779.351, 682.113 781.481" fill="white" stroke="none" fill-rule="evenodd"/>
  <path d="M 286.500 782.477 C 262.608 787.723, 245.180 804.558, 243.350 824.157 C 242.214 836.325, 247.585 847.197, 257.142 852.072 C 263.014 855.068, 264.051 854.732, 262.754 850.250 C 261.276 845.145, 261.518 830.402, 263.160 825.500 C 264.207 822.374, 265.065 821.434, 267.086 821.199 C 271.389 820.699, 272.322 822.918, 271.105 830.760 C 270.394 835.346, 270.362 839.578, 271.008 843.551 C 272.551 853.027, 276.923 857.441, 286.274 858.963 C 292.255 859.937, 302 859.304, 302 857.941 C 302 857.513, 301.269 854.313, 300.376 850.831 C 298.523 843.605, 298.923 831.027, 301.156 826.347 C 302.722 823.065, 306.946 822.025, 308.942 824.430 C 309.950 825.645, 309.972 827.342, 309.047 832.651 C 307.328 842.522, 309.123 851.888, 313.528 856.026 C 315.599 857.971, 317.009 858.331, 322.252 858.252 C 328.529 858.157, 339.298 854.945, 340.644 852.767 C 341.019 852.160, 341.381 846.451, 341.448 840.082 C 341.555 830, 341.909 827.701, 344.183 822.328 C 345.621 818.934, 348.141 814.202, 349.785 811.812 L 352.774 807.469 350.362 802.722 C 347.519 797.128, 342.568 793.239, 331.385 787.816 C 318.401 781.519, 300.537 779.394, 286.500 782.477" fill="white" stroke="none" fill-rule="evenodd"/>
</g>
<g id="colorRegions">
  <path id="body_outer" class="region" d="M 763.448 105.998 C 731.552 108.210, 699.280 115.055, 671 125.606 C 651.878 132.740, 638.577 139.061, 617.851 150.861 L 612.202 154.077 600.351 149.990 C 581.086 143.347, 560.312 138.528, 537 135.295 C 519.070 132.808, 465.783 132.820, 448 135.315 C 421.206 139.074, 396.368 145.258, 377.599 152.843 L 367.699 156.844 354.642 149.254 C 305.115 120.464, 247.355 104.577, 198.118 106.201 C 186.854 106.573, 183.636 107.035, 179.500 108.875 C 164.823 115.403, 159.759 128.681, 158.397 164.209 C 156.425 215.663, 168.448 275.990, 188.749 316.500 C 191.848 322.685, 200.434 335.850, 206.031 343 C 207.975 345.483, 207.975 345.544, 205.979 352 C 196.734 381.902, 192.078 412.665, 193.397 435.131 L 194.021 445.762 185.261 446.458 C 174.119 447.344, 162.168 449.717, 159.191 451.635 C 157.428 452.772, 156.955 453.875, 157.191 456.305 C 157.662 461.160, 160.603 462.050, 171 460.486 C 175.675 459.783, 183.047 459.048, 187.382 458.854 L 195.263 458.500 198.108 469.114 C 199.672 474.952, 202.506 483.413, 204.405 487.916 L 207.858 496.103 205.179 497.138 C 203.706 497.707, 199.658 499.250, 196.185 500.566 C 181.197 506.246, 169 514.300, 169 518.516 C 169 521.073, 172.326 524, 175.232 524 C 176.215 524, 180.727 522.004, 185.260 519.565 C 189.792 517.126, 195.750 514.246, 198.500 513.164 C 201.250 512.082, 205.794 510.286, 208.598 509.173 L 213.696 507.149 219.598 515.288 C 231.941 532.309, 252.219 550.238, 273.335 562.800 C 283.528 568.865, 305.921 579.236, 315.750 582.446 C 318.638 583.389, 321 584.489, 321 584.891 C 321 585.292, 319.851 588.519, 318.447 592.060 C 311.429 609.759, 304.957 637.041, 303.486 655.127 L 302.784 663.754 294.398 665.969 C 277.309 670.484, 260.525 680.843, 249.912 693.427 C 241.779 703.069, 236.880 711.667, 232.258 724.408 L 228.597 734.500 228.549 752 C 228.502 768.614, 228.643 769.927, 231.326 777.938 C 232.880 782.579, 235.057 788.151, 236.163 790.320 L 238.175 794.263 235.548 799.089 C 226.890 814.997, 225.704 834.588, 232.578 848.154 C 237.436 857.740, 248.721 866.562, 261.680 870.904 C 283.234 878.125, 327.777 877.969, 345.386 870.612 L 349.140 869.044 355.163 874.056 C 366.764 883.710, 382.708 889.689, 403.207 892.073 C 416.632 893.633, 448.037 892.733, 458 890.502 C 474.786 886.743, 487.911 879.710, 495.532 870.391 L 499.564 865.460 506.032 871.990 C 517.261 883.327, 533.255 889.440, 558.500 892.045 C 578.123 894.069, 605.497 892.043, 620.992 887.418 C 629.919 884.754, 641.931 878.179, 647.507 872.905 L 652.708 867.986 656.890 869.461 C 671.261 874.532, 707.777 876.588, 729.500 873.549 C 755.643 869.893, 772.096 860.769, 778.748 846.240 C 780.854 841.639, 781.351 838.997, 781.418 832.044 C 781.463 827.345, 781.950 823.169, 782.500 822.765 C 783.050 822.361, 786.200 822.015, 789.500 821.996 C 803.439 821.914, 824.708 817.172, 841 810.514 C 866.883 799.935, 887.065 783.716, 901.135 762.188 C 909.605 749.227, 915.782 733.499, 918.582 717.765 C 920.787 705.370, 920.785 680.696, 918.577 668.039 C 910.363 620.945, 878.682 586.555, 841.415 584.280 C 823.372 583.179, 806.127 589.698, 793.432 602.418 C 785.260 610.607, 782.242 616.223, 780.716 626.077 C 779.397 634.602, 780.698 642.424, 784.974 651.680 C 788.424 659.147, 794.108 665.510, 803.617 672.549 C 813.191 679.636, 815.330 682.818, 815.833 690.718 C 816.073 694.493, 815.714 698.319, 814.937 700.260 C 809.694 713.354, 793.647 724.228, 776.201 726.508 L 770.902 727.201 769.706 723.851 C 766.589 715.122, 758.471 700.704, 752.453 693.211 C 739.561 677.157, 722.543 665.955, 701.837 659.894 L 694.175 657.651 693.537 653.075 C 691.420 637.876, 682.655 609.739, 674.130 590.776 C 672.467 587.078, 671.420 583.861, 671.803 583.627 C 672.187 583.394, 677.675 581.173, 684 578.692 C 708.056 569.255, 725.049 560.039, 742.500 546.965 C 753.019 539.084, 768.388 523.564, 775.889 513.250 C 778.788 509.263, 781.272 506, 781.408 506 C 782.520 506, 796.153 512.044, 803.054 515.596 C 814.584 521.532, 819 521.322, 819 514.840 C 819 510.749, 815.085 507.693, 801 500.789 C 794.125 497.419, 788.316 494.516, 788.091 494.338 C 787.866 494.160, 789.095 490.402, 790.824 485.987 C 794.025 477.808, 799 460.046, 799 456.795 C 799 454.499, 802.304 454.460, 816.629 456.588 C 829.130 458.445, 832 457.808, 832 453.176 C 832 451.600, 831.212 449.603, 830.250 448.739 C 828.171 446.873, 818.866 444.400, 810.500 443.489 C 800.512 442.402, 801.382 443.976, 800.688 425.731 C 799.753 401.153, 796.218 382.962, 787.334 357 L 782.714 343.500 787.232 337 C 793.851 327.477, 797.385 320.771, 801.991 309 C 815.094 275.508, 821.969 234.424, 821.988 189.500 C 822.011 136.056, 815.529 113.550, 798.393 107.581 C 792.369 105.483, 779.367 104.894, 763.448 105.998" fill="white" fill-opacity="1" fill-rule="nonzero" stroke="none" onclick="fillRegion(this)"/>
  <path id="body_inner" class="region" d="M 769.500 121.620 C 738.959 123.261, 703.250 131.002, 673.994 142.324 C 658.648 148.263, 635.706 159.337, 624 166.456 L 614.500 172.233 610 170.561 C 595.352 165.121, 574.722 158.797, 563 156.154 C 501.743 142.344, 434.676 147.024, 379.387 168.967 C 366.689 174.007, 363.594 174.770, 362.570 173.114 C 361.461 171.319, 341.076 159.886, 327 153.165 C 284.126 132.694, 236.568 121.097, 199.766 122.142 C 188.835 122.452, 186.767 122.782, 184.323 124.605 C 176.821 130.198, 174.763 140.573, 174.722 173 C 174.684 203.367, 176.193 216.834, 183.016 247 C 190.990 282.262, 206.156 315.610, 222.467 333.753 C 224.960 336.525, 226.993 339.628, 226.985 340.647 C 226.977 341.666, 225.851 346.100, 224.483 350.500 C 220.905 362.010, 216.409 383.450, 214.417 398.500 C 212.786 410.824, 211.826 444.159, 213.066 445.399 C 213.377 445.710, 218.913 446.657, 225.367 447.503 C 239.304 449.331, 250.085 451.761, 262.967 455.982 C 273.017 459.274, 276 461.152, 276 464.187 C 276 467.070, 272.257 467.888, 266.021 466.366 C 252.664 463.107, 230.657 458.946, 223.642 458.352 C 216.792 457.773, 216 457.887, 216 459.452 C 216 462.236, 222.858 482.113, 225.333 486.501 C 227.951 491.145, 228.109 491.165, 245 489.045 C 256.560 487.594, 280.622 488.097, 285.250 489.887 C 288.470 491.132, 289.080 495.369, 286.250 496.839 C 285.287 497.339, 277.075 497.994, 268 498.294 C 250.423 498.876, 235 500.717, 235 502.232 C 235 504.209, 244.205 514.952, 253.653 524 C 285.904 554.886, 331.771 574.524, 396.394 585.116 C 406.902 586.838, 416.513 588.877, 417.750 589.647 C 420.953 591.639, 420.799 596.430, 417.461 598.617 C 415.343 600.006, 413.396 600.170, 405.711 599.611 C 389.582 598.436, 371.991 596.025, 354.761 592.628 L 338.022 589.327 336.147 594.413 C 326.309 621.115, 321.957 644.331, 321.271 673.770 C 320.578 703.549, 323.590 721.454, 332.223 738.872 L 336.500 747.500 336.783 736.252 C 337.050 725.608, 337.195 724.918, 339.484 723.419 C 342.220 721.626, 345.531 722.251, 346.898 724.818 C 347.391 725.743, 348.111 729.650, 348.498 733.500 C 350.731 755.693, 356.847 776.567, 367 796.641 L 373.900 810.285 368.981 814.707 C 365.896 817.480, 362.847 821.597, 360.806 825.742 C 358.014 831.413, 357.548 833.431, 357.526 839.927 C 357.504 846.216, 357.971 848.460, 360.280 853.161 C 363.327 859.366, 368.691 864.781, 374.956 867.978 C 379.343 870.215, 390.873 873.461, 391.656 872.678 C 391.921 872.412, 391.600 868.516, 390.943 864.019 C 389.567 854.610, 390.105 841.783, 391.970 839.536 C 393.633 837.533, 397.618 837.561, 398.393 839.582 C 398.727 840.452, 399 844.930, 399 849.533 C 399 861.159, 400.545 867.537, 404.362 871.675 C 407.047 874.585, 408.510 875.232, 414.500 876.159 C 423.857 877.607, 435.581 876.690, 438.926 874.249 C 444.025 870.528, 445.359 865.872, 445.433 851.540 L 445.500 838.500 448.607 838.197 C 451.275 837.937, 451.899 838.341, 453.025 841.060 C 454.494 844.608, 454.900 863.173, 453.645 869.384 L 452.859 873.268 457.726 872.800 C 467.978 871.815, 479.766 864.158, 484.170 855.622 C 490.461 843.430, 484.563 824.357, 470.367 810.985 L 464.545 805.500 457.238 781.500 C 440.485 726.468, 439.016 721.088, 440.019 718.451 C 442.145 712.857, 447.992 714.052, 451.352 720.767 C 452.654 723.370, 459.040 741.250, 465.543 760.500 L 477.365 795.500 483.583 801.628 C 487.002 804.999, 491.805 810.512, 494.256 813.881 L 498.713 820.005 502.572 813.753 C 504.694 810.314, 509.483 804.448, 513.214 800.717 L 519.996 793.935 532.576 755.890 C 540.283 732.580, 545.923 717.077, 547.138 715.862 C 549.824 713.176, 554.025 713.762, 555.880 717.083 C 557.219 719.480, 556.738 721.706, 549.180 748.083 C 531.423 810.057, 533.636 803.789, 527.619 809.152 C 521.692 814.434, 514.882 824.250, 512.542 830.881 C 510.192 837.542, 510.548 847.490, 513.353 853.500 C 517.708 862.833, 529.229 870.549, 540.553 871.718 L 546.111 872.291 545.318 869.396 C 544.882 867.803, 544.519 860.607, 544.512 853.404 C 544.499 839.274, 545.203 837, 549.587 837 C 553.173 837, 554.134 839.955, 553.403 848.731 C 552.925 854.464, 553.190 858.197, 554.414 862.975 C 557.201 873.847, 560.836 875.989, 576.500 875.989 C 587.422 875.989, 591.805 874.879, 595.186 871.256 C 599.087 867.077, 600.407 861.682, 600.456 849.714 C 600.501 838.786, 601.081 837.061, 604.727 837.015 C 608.742 836.965, 610.646 851.031, 608.635 865.893 L 607.770 872.286 612.423 871.762 C 618.944 871.027, 629.029 865.785, 634.396 860.341 C 640.645 854.002, 642.375 849.046, 641.801 839.128 C 641.226 829.187, 637.885 821.929, 630.475 814.519 L 625.197 809.240 630.610 798.687 C 640.281 779.837, 647.172 755.323, 648.622 734.624 C 649.186 726.556, 649.711 724.285, 651.485 722.222 C 653.210 720.218, 654.215 719.837, 656.364 720.377 C 660.100 721.314, 661 724.386, 661 736.200 C 661 746.248, 661.004 746.265, 662.886 743.872 C 673.572 730.286, 679.895 705.861, 678.554 683.348 C 677.382 663.666, 671.983 637.216, 665.386 618.836 C 663.184 612.700, 653.419 590.086, 652.632 589.299 C 652.499 589.166, 645.890 590.357, 637.945 591.946 C 619.910 595.552, 611.927 596.768, 595.500 598.411 C 578.976 600.063, 575.057 599.105, 575.015 593.405 C 574.987 589.502, 578.252 587.966, 590.885 585.938 C 666.627 573.784, 724.826 546.222, 755.224 508.110 C 758.467 504.045, 760.755 500.384, 760.310 499.975 C 758.352 498.177, 738.974 495.713, 721.610 495.054 C 704.853 494.418, 702.567 494.128, 701.363 492.481 C 700.227 490.929, 700.224 490.295, 701.343 488.610 C 703.468 485.409, 707.392 484.777, 725.500 484.720 C 738.938 484.677, 744.999 485.128, 754.425 486.873 C 760.984 488.086, 766.880 488.876, 767.527 488.628 C 769.880 487.725, 779 461.872, 779 456.106 L 779 453.705 769.526 454.371 C 757.584 455.210, 745.861 457.234, 730.259 461.149 C 716.611 464.574, 713 464.439, 713 460.501 C 713 458.662, 713.947 457.562, 716.750 456.143 C 728.137 450.381, 750.185 444.808, 769.139 442.901 L 780.778 441.730 781.418 436.909 C 782.255 430.596, 780.482 409.068, 777.951 394.815 C 775.686 382.065, 770.691 363.809, 765.490 349.271 L 761.994 339.500 763.952 337 C 778.003 319.067, 788.418 296.917, 794.985 271 C 805.656 228.883, 808.654 177.913, 802.524 142.799 C 800.937 133.709, 797.641 126.393, 794 123.875 C 791.325 122.026, 780.501 121.029, 769.500 121.620" fill="white" fill-opacity="1" fill-rule="evenodd" stroke="none" onclick="fillRegion(this)"/>
  <path id="left_ear_outer" class="region" d="M 207.356 161.354 C 202.494 165.445, 201.491 170.747, 201.558 192 C 201.621 212.017, 202.843 221.317, 208.103 241.836 C 213.683 263.600, 225.174 287.276, 238.249 303.945 C 245.125 312.712, 246.308 312.431, 253.812 300.250 C 262.694 285.833, 271.248 274.797, 282.863 262.768 C 295.468 249.714, 295.494 249.385, 284.459 242.507 C 280.302 239.916, 277.064 237.280, 277.263 236.648 C 277.861 234.746, 287.591 228.645, 293.739 226.317 C 296.907 225.117, 302.716 223.199, 306.648 222.056 C 317.738 218.829, 317.840 215.978, 307.225 205.838 C 283.741 183.401, 242.032 162.063, 216.429 159.387 C 210.965 158.816, 210.166 158.989, 207.356 161.354" fill="white" fill-opacity="1" fill-rule="evenodd" stroke="none" onclick="fillRegion(this)"/>
  <path id="right_ear_outer" class="region" d="M 749 161.510 C 726.819 167.678, 701.316 181.544, 681.411 198.258 C 663.560 213.246, 662.719 217.689, 677 221.552 C 688.016 224.533, 706 233.550, 706 236.093 C 706 236.580, 702.898 239.234, 699.106 241.992 C 692.034 247.135, 690.641 248.902, 691.629 251.475 C 691.940 252.286, 697.474 258.249, 703.926 264.725 C 715.643 276.486, 728.147 291.437, 735.274 302.208 C 739.698 308.893, 740.332 309.384, 743.512 308.586 C 749.032 307.201, 762.393 283.210, 769.129 262.589 C 781.021 226.183, 782.750 169.241, 772.214 160.953 C 768.798 158.267, 759.897 158.480, 749 161.510" fill="white" fill-opacity="1" fill-rule="evenodd" stroke="none" onclick="fillRegion(this)"/>
  <path id="left_ear_inner" class="region" d="M 213.864 172.662 C 212.925 173.793, 212.391 178.112, 212.151 186.514 C 211.414 212.289, 218.671 245.023, 230.549 269.500 C 235.653 280.018, 242.836 292.043, 243.966 291.961 C 244.260 291.940, 247.834 286.972, 251.910 280.921 C 255.985 274.870, 263.073 265.932, 267.660 261.059 C 272.247 256.187, 276 251.966, 276 251.681 C 276 251.396, 274.313 250.122, 272.250 248.849 C 265.993 244.987, 261 239.950, 261 237.498 C 261 232.309, 279.248 218.939, 292.750 214.236 C 294.538 213.613, 295.979 212.743, 295.954 212.302 C 295.892 211.230, 282.996 201.223, 275.500 196.431 C 256.384 184.210, 236.976 175.850, 217.864 171.605 C 216.083 171.209, 214.787 171.552, 213.864 172.662" fill="white" fill-opacity="1" fill-rule="evenodd" stroke="none" onclick="fillRegion(this)"/>
  <path id="right_ear_inner" class="region" d="M 751 173.427 C 731.273 179.454, 710.475 190.745, 692.355 205.266 C 688.839 208.084, 686.088 210.765, 686.242 211.226 C 686.395 211.686, 690.004 213.577, 694.261 215.427 C 708.409 221.578, 722 231.932, 722 236.561 C 722 238.134, 719.815 240.791, 715.007 245.064 L 708.015 251.278 717.757 261.408 C 723.116 266.979, 730.610 275.578, 734.411 280.518 C 738.211 285.458, 741.652 289.881, 742.056 290.346 C 743.025 291.460, 748.698 281.660, 753.291 270.941 C 761.289 252.273, 766.454 229.877, 767.805 208 C 768.650 194.318, 767.862 178.070, 766.143 173.750 C 764.762 170.277, 761.536 170.209, 751 173.427" fill="white" fill-opacity="1" fill-rule="evenodd" stroke="none" onclick="fillRegion(this)"/>
  <path id="left_eye_outer" class="region" d="M 337.254 336.460 C 328.326 339.249, 319 346.900, 319 351.435 C 319 356.875, 323.600 357.354, 329.265 352.505 C 335.334 347.310, 341.329 344.800, 349.599 343.990 C 359.540 343.017, 361.984 340.984, 358 337 C 356.352 335.352, 354.723 335.012, 348.750 335.067 C 344.762 335.104, 339.589 335.731, 337.254 336.460" fill="white" fill-opacity="1" fill-rule="evenodd" stroke="none" onclick="fillRegion(this)"/>
  <path id="right_eye_outer" class="region" d="M 621.750 336.519 C 618.853 338.147, 618.148 341.076, 620.250 342.750 C 620.938 343.298, 624.692 343.963, 628.594 344.228 C 636.834 344.789, 644.311 347.853, 650.845 353.347 C 653.234 355.356, 655.790 357, 656.523 357 C 658.546 357, 661 354.120, 661 351.745 C 661 348.428, 652.102 340.569, 645.377 337.947 C 637.861 335.016, 625.731 334.283, 621.750 336.519" fill="white" fill-opacity="1" fill-rule="evenodd" stroke="none" onclick="fillRegion(this)"/>
  <path id="left_eye_iris" class="region" d="M 349.124 367.578 C 335.176 371.329, 321.430 381.725, 313.415 394.584 C 306.447 405.764, 303.892 414.225, 303.259 428.220 C 302.599 442.780, 303.878 449.870, 309.143 460.841 C 315.764 474.640, 329.877 486.550, 342 488.569 C 345.340 489.125, 345.248 489.002, 340 485.881 C 328.112 478.811, 317.767 464.598, 314.537 450.897 C 310.682 434.541, 314.642 416.683, 325.504 401.447 C 331.746 392.693, 333.825 391.383, 330.114 398.545 C 325.524 407.401, 323.633 415.921, 323.575 428 C 323.514 440.777, 324.886 446.788, 330.532 458.500 C 340.173 478.499, 356.338 489.426, 376.018 489.248 C 392.915 489.096, 408.427 478.882, 416.810 462.387 C 422.580 451.035, 424.518 432.864, 421.490 418.500 C 419.607 409.573, 412.624 395.121, 406.685 387.862 C 398.323 377.641, 385.687 369.600, 374.073 367.109 C 367.066 365.606, 355.656 365.821, 349.124 367.578" fill="white" fill-opacity="1" fill-rule="evenodd" stroke="none" onclick="fillRegion(this)"/>
  <path id="right_eye_iris" class="region" d="M 605.608 368.522 C 584.460 374.329, 567.568 392.484, 561.437 416 C 559.427 423.708, 559.191 439.726, 560.957 448.500 C 562.958 458.437, 568.957 469.640, 576.100 476.782 C 602.471 503.146, 642.276 491.173, 655.712 452.835 C 659.498 442.030, 660.108 423.595, 657.047 412.440 C 655.850 408.074, 653.385 401.706, 651.570 398.288 C 647.232 390.119, 649.875 391.390, 656.883 400.842 C 666.051 413.209, 670 425.062, 670 440.213 C 670 450.857, 668.405 457.465, 663.655 466.500 C 660.116 473.230, 649.449 484.472, 643.750 487.477 C 638.200 490.404, 639.200 491.167, 645.670 488.941 C 654.092 486.044, 659.066 482.776, 665.293 476.050 C 687.987 451.538, 685.417 408.776, 659.745 383.732 C 651.810 375.991, 640.327 369.827, 630.566 368.069 C 622.723 366.656, 611.674 366.857, 605.608 368.522" fill="white" fill-opacity="1" fill-rule="evenodd" stroke="none" onclick="fillRegion(this)"/>
  <path id="left_eye_pupil" class="region" d="M 378.309 388.466 C 376.554 389.229, 373.742 391.754, 372.059 394.077 C 362.146 407.762, 377.426 427.071, 391.784 419.001 C 403.122 412.629, 402.681 395.128, 391.034 389.250 C 385.942 386.680, 382.854 386.490, 378.309 388.466" fill="white" fill-opacity="1" fill-rule="evenodd" stroke="none" onclick="fillRegion(this)"/>
  <path id="right_eye_pupil" class="region" d="M 591.500 389.959 C 588.695 391.127, 584.327 395.972, 583.064 399.315 C 581.472 403.529, 581.813 408.991, 583.964 413.729 C 590.663 428.487, 613.037 422.221, 612.984 405.602 C 612.963 399.217, 609.828 393.415, 605.016 390.854 C 601.408 388.934, 594.984 388.509, 591.500 389.959" fill="white" fill-opacity="1" fill-rule="evenodd" stroke="none" onclick="fillRegion(this)"/>
  <path id="nose_mouth" class="region" d="M 478.613 454.057 C 472.602 455.555, 467.013 459.100, 466.322 461.853 C 465.020 467.039, 473.033 475.348, 483.480 479.644 C 487.942 481.479, 487.994 481.556, 488.142 486.500 C 488.609 502.159, 484.491 509.705, 474.174 512.097 C 468.891 513.322, 461.260 510.914, 457.355 506.791 C 453.117 502.313, 452 499.855, 452 495 C 452 489.286, 450.568 487, 446.988 487 C 440.632 487, 439.460 495.145, 444.216 506.257 C 448.170 515.493, 458.841 521.974, 470.124 521.990 C 478.771 522.003, 484.515 519.883, 489.757 514.743 L 494.014 510.570 496.982 513.819 C 503.829 521.316, 517.405 524.126, 528.504 520.344 C 534.280 518.376, 541.293 511.772, 544.045 505.709 C 546.641 499.992, 546.711 489.953, 544.171 487.655 C 539.936 483.822, 536.002 487.154, 535.996 494.579 C 535.992 500.409, 533.760 504.556, 528.445 508.609 C 525.407 510.927, 523.502 511.517, 518.110 511.812 C 512.476 512.120, 510.983 511.827, 508 509.828 C 501.816 505.686, 497.725 493.608, 499.430 484.522 C 500.001 481.478, 500.832 480.657, 505.768 478.260 C 513.746 474.385, 520 468.225, 520 464.243 C 520 457.244, 512.080 453.806, 495 453.392 C 488.125 453.225, 480.751 453.524, 478.613 454.057" fill="white" fill-opacity="1" fill-rule="evenodd" stroke="none" onclick="fillRegion(this)"/>
  <path id="right_arm" class="region" d="M 826.870 601.060 C 815.634 603.719, 803.205 612.813, 799.035 621.428 C 796.211 627.262, 796.350 635.090, 799.392 641.500 C 802.226 647.471, 806.072 651.674, 815.640 659.253 C 827.349 668.529, 831.698 675.349, 833.411 687.116 C 834.368 693.695, 831.741 705.172, 827.768 711.772 C 819.407 725.663, 801.313 736.952, 781 740.954 L 775.500 742.038 775.459 756.769 C 775.414 772.719, 774.045 780.031, 769.378 789.241 L 766.903 794.125 770.263 798.813 C 773.474 803.291, 773.866 803.515, 779.062 803.831 C 786.837 804.305, 804.734 802.182, 815.917 799.460 C 859.503 788.850, 890.320 759.428, 900.190 719 C 903.200 706.673, 903.828 683.314, 901.500 670.267 C 897.637 648.618, 889.654 632.479, 876.090 618.900 C 869.208 612.010, 865.810 609.474, 859 606.144 C 847.242 600.395, 836.719 598.729, 826.870 601.060" fill="white" fill-opacity="1" fill-rule="evenodd" stroke="none" onclick="fillRegion(this)"/>
  <path id="right_leg" class="region" d="M 696.298 682.250 C 697.563 695.970, 694.137 719.372, 688.838 733.209 C 683.676 746.689, 671.768 762.425, 660.030 771.278 C 658.122 772.717, 656.784 774.117, 657.057 774.390 C 657.329 774.662, 662.040 773.357, 667.526 771.489 C 691.984 763.160, 719.550 765.518, 742.841 777.933 L 750.181 781.845 752.022 777.673 C 756.456 767.622, 757.065 748.421, 753.406 734 C 748.629 715.169, 735.678 696.647, 719.704 685.799 C 713.432 681.540, 701.006 676, 697.724 676 C 695.874 676, 695.766 676.473, 696.298 682.250" fill="white" fill-opacity="1" fill-rule="evenodd" stroke="none" onclick="fillRegion(this)"/>
  <path id="left_leg" class="region" d="M 289.833 683.924 C 269.577 692.378, 252.865 712.569, 248.387 734 C 246.028 745.284, 246.880 762.269, 250.288 771.903 C 253.458 780.867, 254.328 781.918, 256.760 779.717 C 259.285 777.432, 269.027 773.224, 278.500 770.326 C 285.311 768.242, 288.506 767.880, 300 767.888 C 311.271 767.896, 315.129 768.323, 323.366 770.476 C 328.792 771.894, 334.192 773.567, 335.366 774.194 C 336.540 774.821, 335.209 772.826, 332.410 769.761 C 316.509 752.353, 305.731 725.019, 303.522 696.500 C 302.380 681.750, 302.166 680.991, 299.162 681.070 C 297.698 681.109, 293.500 682.393, 289.833 683.924" fill="white" fill-opacity="1" fill-rule="evenodd" stroke="none" onclick="fillRegion(this)"/>
  <path id="right_foot" class="region" d="M 682.113 781.481 C 672.242 783.721, 666.775 785.765, 660.379 789.605 C 652.902 794.094, 649.215 797.599, 647.381 801.961 C 646.036 805.160, 646.079 805.616, 647.950 807.961 C 651.506 812.420, 656.842 821.780, 658.643 826.717 C 659.860 830.053, 660.401 834.586, 660.432 841.706 L 660.476 851.911 663.988 853.433 C 673.947 857.748, 684.270 857.974, 688.533 853.969 C 692.299 850.431, 693.258 845.926, 692.861 833.649 L 692.500 822.500 695.774 822.185 C 698.729 821.900, 699.206 822.241, 700.675 825.685 C 702.900 830.899, 702.947 846.965, 700.754 852.660 C 699.873 854.947, 699.418 857.085, 699.743 857.410 C 700.952 858.619, 719.086 857.991, 722.282 856.629 C 730.351 853.191, 733.769 843.970, 731.877 830.742 C 730.616 821.925, 731.474 819.683, 735.914 820.199 C 738.030 820.445, 738.810 821.409, 740.206 825.500 C 742.299 831.631, 742.452 841.711, 740.562 848.813 L 739.148 854.126 742.324 853.456 C 744.071 853.087, 747.692 851.608, 750.370 850.168 C 764.877 842.373, 766.924 824.790, 755.317 807.678 C 747.671 796.407, 735.672 788.143, 719.500 783.009 C 710.413 780.124, 691.497 779.351, 682.113 781.481" fill="white" fill-opacity="1" fill-rule="evenodd" stroke="none" onclick="fillRegion(this)"/>
  <path id="left_foot" class="region" d="M 286.500 782.477 C 262.608 787.723, 245.180 804.558, 243.350 824.157 C 242.214 836.325, 247.585 847.197, 257.142 852.072 C 263.014 855.068, 264.051 854.732, 262.754 850.250 C 261.276 845.145, 261.518 830.402, 263.160 825.500 C 264.207 822.374, 265.065 821.434, 267.086 821.199 C 271.389 820.699, 272.322 822.918, 271.105 830.760 C 270.394 835.346, 270.362 839.578, 271.008 843.551 C 272.551 853.027, 276.923 857.441, 286.274 858.963 C 292.255 859.937, 302 859.304, 302 857.941 C 302 857.513, 301.269 854.313, 300.376 850.831 C 298.523 843.605, 298.923 831.027, 301.156 826.347 C 302.722 823.065, 306.946 822.025, 308.942 824.430 C 309.950 825.645, 309.972 827.342, 309.047 832.651 C 307.328 842.522, 309.123 851.888, 313.528 856.026 C 315.599 857.971, 317.009 858.331, 322.252 858.252 C 328.529 858.157, 339.298 854.945, 340.644 852.767 C 341.019 852.160, 341.381 846.451, 341.448 840.082 C 341.555 830, 341.909 827.701, 344.183 822.328 C 345.621 818.934, 348.141 814.202, 349.785 811.812 L 352.774 807.469 350.362 802.722 C 347.519 797.128, 342.568 793.239, 331.385 787.816 C 318.401 781.519, 300.537 779.394, 286.500 782.477" fill="white" fill-opacity="1" fill-rule="evenodd" stroke="none" onclick="fillRegion(this)"/>
</g>
<g id="outlines" pointer-events="none">
  <path d="M 763.448 105.998 C 731.552 108.210, 699.280 115.055, 671 125.606 C 651.878 132.740, 638.577 139.061, 617.851 150.861 L 612.202 154.077 600.351 149.990 C 581.086 143.347, 560.312 138.528, 537 135.295 C 519.070 132.808, 465.783 132.820, 448 135.315 C 421.206 139.074, 396.368 145.258, 377.599 152.843 L 367.699 156.844 354.642 149.254 C 305.115 120.464, 247.355 104.577, 198.118 106.201 C 186.854 106.573, 183.636 107.035, 179.500 108.875 C 164.823 115.403, 159.759 128.681, 158.397 164.209 C 156.425 215.663, 168.448 275.990, 188.749 316.500 C 191.848 322.685, 200.434 335.850, 206.031 343 C 207.975 345.483, 207.975 345.544, 205.979 352 C 196.734 381.902, 192.078 412.665, 193.397 435.131 L 194.021 445.762 185.261 446.458 C 174.119 447.344, 162.168 449.717, 159.191 451.635 C 157.428 452.772, 156.955 453.875, 157.191 456.305 C 157.662 461.160, 160.603 462.050, 171 460.486 C 175.675 459.783, 183.047 459.048, 187.382 458.854 L 195.263 458.500 198.108 469.114 C 199.672 474.952, 202.506 483.413, 204.405 487.916 L 207.858 496.103 205.179 497.138 C 203.706 497.707, 199.658 499.250, 196.185 500.566 C 181.197 506.246, 169 514.300, 169 518.516 C 169 521.073, 172.326 524, 175.232 524 C 176.215 524, 180.727 522.004, 185.260 519.565 C 189.792 517.126, 195.750 514.246, 198.500 513.164 C 201.250 512.082, 205.794 510.286, 208.598 509.173 L 213.696 507.149 219.598 515.288 C 231.941 532.309, 252.219 550.238, 273.335 562.800 C 283.528 568.865, 305.921 579.236, 315.750 582.446 C 318.638 583.389, 321 584.489, 321 584.891 C 321 585.292, 319.851 588.519, 318.447 592.060 C 311.429 609.759, 304.957 637.041, 303.486 655.127 L 302.784 663.754 294.398 665.969 C 277.309 670.484, 260.525 680.843, 249.912 693.427 C 241.779 703.069, 236.880 711.667, 232.258 724.408 L 228.597 734.500 228.549 752 C 228.502 768.614, 228.643 769.927, 231.326 777.938 C 232.880 782.579, 235.057 788.151, 236.163 790.320 L 238.175 794.263 235.548 799.089 C 226.890 814.997, 225.704 834.588, 232.578 848.154 C 237.436 857.740, 248.721 866.562, 261.680 870.904 C 283.234 878.125, 327.777 877.969, 345.386 870.612 L 349.140 869.044 355.163 874.056 C 366.764 883.710, 382.708 889.689, 403.207 892.073 C 416.632 893.633, 448.037 892.733, 458 890.502 C 474.786 886.743, 487.911 879.710, 495.532 870.391 L 499.564 865.460 506.032 871.990 C 517.261 883.327, 533.255 889.440, 558.500 892.045 C 578.123 894.069, 605.497 892.043, 620.992 887.418 C 629.919 884.754, 641.931 878.179, 647.507 872.905 L 652.708 867.986 656.890 869.461 C 671.261 874.532, 707.777 876.588, 729.500 873.549 C 755.643 869.893, 772.096 860.769, 778.748 846.240 C 780.854 841.639, 781.351 838.997, 781.418 832.044 C 781.463 827.345, 781.950 823.169, 782.500 822.765 C 783.050 822.361, 786.200 822.015, 789.500 821.996 C 803.439 821.914, 824.708 817.172, 841 810.514 C 866.883 799.935, 887.065 783.716, 901.135 762.188 C 909.605 749.227, 915.782 733.499, 918.582 717.765 C 920.787 705.370, 920.785 680.696, 918.577 668.039 C 910.363 620.945, 878.682 586.555, 841.415 584.280 C 823.372 583.179, 806.127 589.698, 793.432 602.418 C 785.260 610.607, 782.242 616.223, 780.716 626.077 C 779.397 634.602, 780.698 642.424, 784.974 651.680 C 788.424 659.147, 794.108 665.510, 803.617 672.549 C 813.191 679.636, 815.330 682.818, 815.833 690.718 C 816.073 694.493, 815.714 698.319, 814.937 700.260 C 809.694 713.354, 793.647 724.228, 776.201 726.508 L 770.902 727.201 769.706 723.851 C 766.589 715.122, 758.471 700.704, 752.453 693.211 C 739.561 677.157, 722.543 665.955, 701.837 659.894 L 694.175 657.651 693.537 653.075 C 691.420 637.876, 682.655 609.739, 674.130 590.776 C 672.467 587.078, 671.420 583.861, 671.803 583.627 C 672.187 583.394, 677.675 581.173, 684 578.692 C 708.056 569.255, 725.049 560.039, 742.500 546.965 C 753.019 539.084, 768.388 523.564, 775.889 513.250 C 778.788 509.263, 781.272 506, 781.408 506 C 782.520 506, 796.153 512.044, 803.054 515.596 C 814.584 521.532, 819 521.322, 819 514.840 C 819 510.749, 815.085 507.693, 801 500.789 C 794.125 497.419, 788.316 494.516, 788.091 494.338 C 787.866 494.160, 789.095 490.402, 790.824 485.987 C 794.025 477.808, 799 460.046, 799 456.795 C 799 454.499, 802.304 454.460, 816.629 456.588 C 829.130 458.445, 832 457.808, 832 453.176 C 832 451.600, 831.212 449.603, 830.250 448.739 C 828.171 446.873, 818.866 444.400, 810.500 443.489 C 800.512 442.402, 801.382 443.976, 800.688 425.731 C 799.753 401.153, 796.218 382.962, 787.334 357 L 782.714 343.500 787.232 337 C 793.851 327.477, 797.385 320.771, 801.991 309 C 815.094 275.508, 821.969 234.424, 821.988 189.500 C 822.011 136.056, 815.529 113.550, 798.393 107.581 C 792.369 105.483, 779.367 104.894, 763.448 105.998" fill="none" fill-rule="evenodd" stroke="#111" stroke-width="2.5" stroke-linejoin="round" stroke-linecap="round"/>
  <path d="M 769.500 121.620 C 738.959 123.261, 703.250 131.002, 673.994 142.324 C 658.648 148.263, 635.706 159.337, 624 166.456 L 614.500 172.233 610 170.561 C 595.352 165.121, 574.722 158.797, 563 156.154 C 501.743 142.344, 434.676 147.024, 379.387 168.967 C 366.689 174.007, 363.594 174.770, 362.570 173.114 C 361.461 171.319, 341.076 159.886, 327 153.165 C 284.126 132.694, 236.568 121.097, 199.766 122.142 C 188.835 122.452, 186.767 122.782, 184.323 124.605 C 176.821 130.198, 174.763 140.573, 174.722 173 C 174.684 203.367, 176.193 216.834, 183.016 247 C 190.990 282.262, 206.156 315.610, 222.467 333.753 C 224.960 336.525, 226.993 339.628, 226.985 340.647 C 226.977 341.666, 225.851 346.100, 224.483 350.500 C 220.905 362.010, 216.409 383.450, 214.417 398.500 C 212.786 410.824, 211.826 444.159, 213.066 445.399 C 213.377 445.710, 218.913 446.657, 225.367 447.503 C 239.304 449.331, 250.085 451.761, 262.967 455.982 C 273.017 459.274, 276 461.152, 276 464.187 C 276 467.070, 272.257 467.888, 266.021 466.366 C 252.664 463.107, 230.657 458.946, 223.642 458.352 C 216.792 457.773, 216 457.887, 216 459.452 C 216 462.236, 222.858 482.113, 225.333 486.501 C 227.951 491.145, 228.109 491.165, 245 489.045 C 256.560 487.594, 280.622 488.097, 285.250 489.887 C 288.470 491.132, 289.080 495.369, 286.250 496.839 C 285.287 497.339, 277.075 497.994, 268 498.294 C 250.423 498.876, 235 500.717, 235 502.232 C 235 504.209, 244.205 514.952, 253.653 524 C 285.904 554.886, 331.771 574.524, 396.394 585.116 C 406.902 586.838, 416.513 588.877, 417.750 589.647 C 420.953 591.639, 420.799 596.430, 417.461 598.617 C 415.343 600.006, 413.396 600.170, 405.711 599.611 C 389.582 598.436, 371.991 596.025, 354.761 592.628 L 338.022 589.327 336.147 594.413 C 326.309 621.115, 321.957 644.331, 321.271 673.770 C 320.578 703.549, 323.590 721.454, 332.223 738.872 L 336.500 747.500 336.783 736.252 C 337.050 725.608, 337.195 724.918, 339.484 723.419 C 342.220 721.626, 345.531 722.251, 346.898 724.818 C 347.391 725.743, 348.111 729.650, 348.498 733.500 C 350.731 755.693, 356.847 776.567, 367 796.641 L 373.900 810.285 368.981 814.707 C 365.896 817.480, 362.847 821.597, 360.806 825.742 C 358.014 831.413, 357.548 833.431, 357.526 839.927 C 357.504 846.216, 357.971 848.460, 360.280 853.161 C 363.327 859.366, 368.691 864.781, 374.956 867.978 C 379.343 870.215, 390.873 873.461, 391.656 872.678 C 391.921 872.412, 391.600 868.516, 390.943 864.019 C 389.567 854.610, 390.105 841.783, 391.970 839.536 C 393.633 837.533, 397.618 837.561, 398.393 839.582 C 398.727 840.452, 399 844.930, 399 849.533 C 399 861.159, 400.545 867.537, 404.362 871.675 C 407.047 874.585, 408.510 875.232, 414.500 876.159 C 423.857 877.607, 435.581 876.690, 438.926 874.249 C 444.025 870.528, 445.359 865.872, 445.433 851.540 L 445.500 838.500 448.607 838.197 C 451.275 837.937, 451.899 838.341, 453.025 841.060 C 454.494 844.608, 454.900 863.173, 453.645 869.384 L 452.859 873.268 457.726 872.800 C 467.978 871.815, 479.766 864.158, 484.170 855.622 C 490.461 843.430, 484.563 824.357, 470.367 810.985 L 464.545 805.500 457.238 781.500 C 440.485 726.468, 439.016 721.088, 440.019 718.451 C 442.145 712.857, 447.992 714.052, 451.352 720.767 C 452.654 723.370, 459.040 741.250, 465.543 760.500 L 477.365 795.500 483.583 801.628 C 487.002 804.999, 491.805 810.512, 494.256 813.881 L 498.713 820.005 502.572 813.753 C 504.694 810.314, 509.483 804.448, 513.214 800.717 L 519.996 793.935 532.576 755.890 C 540.283 732.580, 545.923 717.077, 547.138 715.862 C 549.824 713.176, 554.025 713.762, 555.880 717.083 C 557.219 719.480, 556.738 721.706, 549.180 748.083 C 531.423 810.057, 533.636 803.789, 527.619 809.152 C 521.692 814.434, 514.882 824.250, 512.542 830.881 C 510.192 837.542, 510.548 847.490, 513.353 853.500 C 517.708 862.833, 529.229 870.549, 540.553 871.718 L 546.111 872.291 545.318 869.396 C 544.882 867.803, 544.519 860.607, 544.512 853.404 C 544.499 839.274, 545.203 837, 549.587 837 C 553.173 837, 554.134 839.955, 553.403 848.731 C 552.925 854.464, 553.190 858.197, 554.414 862.975 C 557.201 873.847, 560.836 875.989, 576.500 875.989 C 587.422 875.989, 591.805 874.879, 595.186 871.256 C 599.087 867.077, 600.407 861.682, 600.456 849.714 C 600.501 838.786, 601.081 837.061, 604.727 837.015 C 608.742 836.965, 610.646 851.031, 608.635 865.893 L 607.770 872.286 612.423 871.762 C 618.944 871.027, 629.029 865.785, 634.396 860.341 C 640.645 854.002, 642.375 849.046, 641.801 839.128 C 641.226 829.187, 637.885 821.929, 630.475 814.519 L 625.197 809.240 630.610 798.687 C 640.281 779.837, 647.172 755.323, 648.622 734.624 C 649.186 726.556, 649.711 724.285, 651.485 722.222 C 653.210 720.218, 654.215 719.837, 656.364 720.377 C 660.100 721.314, 661 724.386, 661 736.200 C 661 746.248, 661.004 746.265, 662.886 743.872 C 673.572 730.286, 679.895 705.861, 678.554 683.348 C 677.382 663.666, 671.983 637.216, 665.386 618.836 C 663.184 612.700, 653.419 590.086, 652.632 589.299 C 652.499 589.166, 645.890 590.357, 637.945 591.946 C 619.910 595.552, 611.927 596.768, 595.500 598.411 C 578.976 600.063, 575.057 599.105, 575.015 593.405 C 574.987 589.502, 578.252 587.966, 590.885 585.938 C 666.627 573.784, 724.826 546.222, 755.224 508.110 C 758.467 504.045, 760.755 500.384, 760.310 499.975 C 758.352 498.177, 738.974 495.713, 721.610 495.054 C 704.853 494.418, 702.567 494.128, 701.363 492.481 C 700.227 490.929, 700.224 490.295, 701.343 488.610 C 703.468 485.409, 707.392 484.777, 725.500 484.720 C 738.938 484.677, 744.999 485.128, 754.425 486.873 C 760.984 488.086, 766.880 488.876, 767.527 488.628 C 769.880 487.725, 779 461.872, 779 456.106 L 779 453.705 769.526 454.371 C 757.584 455.210, 745.861 457.234, 730.259 461.149 C 716.611 464.574, 713 464.439, 713 460.501 C 713 458.662, 713.947 457.562, 716.750 456.143 C 728.137 450.381, 750.185 444.808, 769.139 442.901 L 780.778 441.730 781.418 436.909 C 782.255 430.596, 780.482 409.068, 777.951 394.815 C 775.686 382.065, 770.691 363.809, 765.490 349.271 L 761.994 339.500 763.952 337 C 778.003 319.067, 788.418 296.917, 794.985 271 C 805.656 228.883, 808.654 177.913, 802.524 142.799 C 800.937 133.709, 797.641 126.393, 794 123.875 C 791.325 122.026, 780.501 121.029, 769.500 121.620" fill="none" fill-rule="evenodd" stroke="#111" stroke-width="2.5" stroke-linejoin="round" stroke-linecap="round"/>
  <path d="M 207.356 161.354 C 202.494 165.445, 201.491 170.747, 201.558 192 C 201.621 212.017, 202.843 221.317, 208.103 241.836 C 213.683 263.600, 225.174 287.276, 238.249 303.945 C 245.125 312.712, 246.308 312.431, 253.812 300.250 C 262.694 285.833, 271.248 274.797, 282.863 262.768 C 295.468 249.714, 295.494 249.385, 284.459 242.507 C 280.302 239.916, 277.064 237.280, 277.263 236.648 C 277.861 234.746, 287.591 228.645, 293.739 226.317 C 296.907 225.117, 302.716 223.199, 306.648 222.056 C 317.738 218.829, 317.840 215.978, 307.225 205.838 C 283.741 183.401, 242.032 162.063, 216.429 159.387 C 210.965 158.816, 210.166 158.989, 207.356 161.354" fill="none" fill-rule="evenodd" stroke="#111" stroke-width="2.5" stroke-linejoin="round" stroke-linecap="round"/>
  <path d="M 749 161.510 C 726.819 167.678, 701.316 181.544, 681.411 198.258 C 663.560 213.246, 662.719 217.689, 677 221.552 C 688.016 224.533, 706 233.550, 706 236.093 C 706 236.580, 702.898 239.234, 699.106 241.992 C 692.034 247.135, 690.641 248.902, 691.629 251.475 C 691.940 252.286, 697.474 258.249, 703.926 264.725 C 715.643 276.486, 728.147 291.437, 735.274 302.208 C 739.698 308.893, 740.332 309.384, 743.512 308.586 C 749.032 307.201, 762.393 283.210, 769.129 262.589 C 781.021 226.183, 782.750 169.241, 772.214 160.953 C 768.798 158.267, 759.897 158.480, 749 161.510" fill="none" fill-rule="evenodd" stroke="#111" stroke-width="2.5" stroke-linejoin="round" stroke-linecap="round"/>
  <path d="M 213.864 172.662 C 212.925 173.793, 212.391 178.112, 212.151 186.514 C 211.414 212.289, 218.671 245.023, 230.549 269.500 C 235.653 280.018, 242.836 292.043, 243.966 291.961 C 244.260 291.940, 247.834 286.972, 251.910 280.921 C 255.985 274.870, 263.073 265.932, 267.660 261.059 C 272.247 256.187, 276 251.966, 276 251.681 C 276 251.396, 274.313 250.122, 272.250 248.849 C 265.993 244.987, 261 239.950, 261 237.498 C 261 232.309, 279.248 218.939, 292.750 214.236 C 294.538 213.613, 295.979 212.743, 295.954 212.302 C 295.892 211.230, 282.996 201.223, 275.500 196.431 C 256.384 184.210, 236.976 175.850, 217.864 171.605 C 216.083 171.209, 214.787 171.552, 213.864 172.662" fill="none" fill-rule="evenodd" stroke="#111" stroke-width="2.5" stroke-linejoin="round" stroke-linecap="round"/>
  <path d="M 751 173.427 C 731.273 179.454, 710.475 190.745, 692.355 205.266 C 688.839 208.084, 686.088 210.765, 686.242 211.226 C 686.395 211.686, 690.004 213.577, 694.261 215.427 C 708.409 221.578, 722 231.932, 722 236.561 C 722 238.134, 719.815 240.791, 715.007 245.064 L 708.015 251.278 717.757 261.408 C 723.116 266.979, 730.610 275.578, 734.411 280.518 C 738.211 285.458, 741.652 289.881, 742.056 290.346 C 743.025 291.460, 748.698 281.660, 753.291 270.941 C 761.289 252.273, 766.454 229.877, 767.805 208 C 768.650 194.318, 767.862 178.070, 766.143 173.750 C 764.762 170.277, 761.536 170.209, 751 173.427" fill="none" fill-rule="evenodd" stroke="#111" stroke-width="2.5" stroke-linejoin="round" stroke-linecap="round"/>
  <path d="M 337.254 336.460 C 328.326 339.249, 319 346.900, 319 351.435 C 319 356.875, 323.600 357.354, 329.265 352.505 C 335.334 347.310, 341.329 344.800, 349.599 343.990 C 359.540 343.017, 361.984 340.984, 358 337 C 356.352 335.352, 354.723 335.012, 348.750 335.067 C 344.762 335.104, 339.589 335.731, 337.254 336.460" fill="none" fill-rule="evenodd" stroke="#111" stroke-width="2.5" stroke-linejoin="round" stroke-linecap="round"/>
  <path d="M 621.750 336.519 C 618.853 338.147, 618.148 341.076, 620.250 342.750 C 620.938 343.298, 624.692 343.963, 628.594 344.228 C 636.834 344.789, 644.311 347.853, 650.845 353.347 C 653.234 355.356, 655.790 357, 656.523 357 C 658.546 357, 661 354.120, 661 351.745 C 661 348.428, 652.102 340.569, 645.377 337.947 C 637.861 335.016, 625.731 334.283, 621.750 336.519" fill="none" fill-rule="evenodd" stroke="#111" stroke-width="2.5" stroke-linejoin="round" stroke-linecap="round"/>
  <path d="M 349.124 367.578 C 335.176 371.329, 321.430 381.725, 313.415 394.584 C 306.447 405.764, 303.892 414.225, 303.259 428.220 C 302.599 442.780, 303.878 449.870, 309.143 460.841 C 315.764 474.640, 329.877 486.550, 342 488.569 C 345.340 489.125, 345.248 489.002, 340 485.881 C 328.112 478.811, 317.767 464.598, 314.537 450.897 C 310.682 434.541, 314.642 416.683, 325.504 401.447 C 331.746 392.693, 333.825 391.383, 330.114 398.545 C 325.524 407.401, 323.633 415.921, 323.575 428 C 323.514 440.777, 324.886 446.788, 330.532 458.500 C 340.173 478.499, 356.338 489.426, 376.018 489.248 C 392.915 489.096, 408.427 478.882, 416.810 462.387 C 422.580 451.035, 424.518 432.864, 421.490 418.500 C 419.607 409.573, 412.624 395.121, 406.685 387.862 C 398.323 377.641, 385.687 369.600, 374.073 367.109 C 367.066 365.606, 355.656 365.821, 349.124 367.578" fill="none" fill-rule="evenodd" stroke="#111" stroke-width="2.5" stroke-linejoin="round" stroke-linecap="round"/>
  <path d="M 605.608 368.522 C 584.460 374.329, 567.568 392.484, 561.437 416 C 559.427 423.708, 559.191 439.726, 560.957 448.500 C 562.958 458.437, 568.957 469.640, 576.100 476.782 C 602.471 503.146, 642.276 491.173, 655.712 452.835 C 659.498 442.030, 660.108 423.595, 657.047 412.440 C 655.850 408.074, 653.385 401.706, 651.570 398.288 C 647.232 390.119, 649.875 391.390, 656.883 400.842 C 666.051 413.209, 670 425.062, 670 440.213 C 670 450.857, 668.405 457.465, 663.655 466.500 C 660.116 473.230, 649.449 484.472, 643.750 487.477 C 638.200 490.404, 639.200 491.167, 645.670 488.941 C 654.092 486.044, 659.066 482.776, 665.293 476.050 C 687.987 451.538, 685.417 408.776, 659.745 383.732 C 651.810 375.991, 640.327 369.827, 630.566 368.069 C 622.723 366.656, 611.674 366.857, 605.608 368.522" fill="none" fill-rule="evenodd" stroke="#111" stroke-width="2.5" stroke-linejoin="round" stroke-linecap="round"/>
  <path d="M 378.309 388.466 C 376.554 389.229, 373.742 391.754, 372.059 394.077 C 362.146 407.762, 377.426 427.071, 391.784 419.001 C 403.122 412.629, 402.681 395.128, 391.034 389.250 C 385.942 386.680, 382.854 386.490, 378.309 388.466" fill="none" fill-rule="evenodd" stroke="#111" stroke-width="2.5" stroke-linejoin="round" stroke-linecap="round"/>
  <path d="M 591.500 389.959 C 588.695 391.127, 584.327 395.972, 583.064 399.315 C 581.472 403.529, 581.813 408.991, 583.964 413.729 C 590.663 428.487, 613.037 422.221, 612.984 405.602 C 612.963 399.217, 609.828 393.415, 605.016 390.854 C 601.408 388.934, 594.984 388.509, 591.500 389.959" fill="none" fill-rule="evenodd" stroke="#111" stroke-width="2.5" stroke-linejoin="round" stroke-linecap="round"/>
  <path d="M 478.613 454.057 C 472.602 455.555, 467.013 459.100, 466.322 461.853 C 465.020 467.039, 473.033 475.348, 483.480 479.644 C 487.942 481.479, 487.994 481.556, 488.142 486.500 C 488.609 502.159, 484.491 509.705, 474.174 512.097 C 468.891 513.322, 461.260 510.914, 457.355 506.791 C 453.117 502.313, 452 499.855, 452 495 C 452 489.286, 450.568 487, 446.988 487 C 440.632 487, 439.460 495.145, 444.216 506.257 C 448.170 515.493, 458.841 521.974, 470.124 521.990 C 478.771 522.003, 484.515 519.883, 489.757 514.743 L 494.014 510.570 496.982 513.819 C 503.829 521.316, 517.405 524.126, 528.504 520.344 C 534.280 518.376, 541.293 511.772, 544.045 505.709 C 546.641 499.992, 546.711 489.953, 544.171 487.655 C 539.936 483.822, 536.002 487.154, 535.996 494.579 C 535.992 500.409, 533.760 504.556, 528.445 508.609 C 525.407 510.927, 523.502 511.517, 518.110 511.812 C 512.476 512.120, 510.983 511.827, 508 509.828 C 501.816 505.686, 497.725 493.608, 499.430 484.522 C 500.001 481.478, 500.832 480.657, 505.768 478.260 C 513.746 474.385, 520 468.225, 520 464.243 C 520 457.244, 512.080 453.806, 495 453.392 C 488.125 453.225, 480.751 453.524, 478.613 454.057" fill="none" fill-rule="evenodd" stroke="#111" stroke-width="2.5" stroke-linejoin="round" stroke-linecap="round"/>
  <path d="M 826.870 601.060 C 815.634 603.719, 803.205 612.813, 799.035 621.428 C 796.211 627.262, 796.350 635.090, 799.392 641.500 C 802.226 647.471, 806.072 651.674, 815.640 659.253 C 827.349 668.529, 831.698 675.349, 833.411 687.116 C 834.368 693.695, 831.741 705.172, 827.768 711.772 C 819.407 725.663, 801.313 736.952, 781 740.954 L 775.500 742.038 775.459 756.769 C 775.414 772.719, 774.045 780.031, 769.378 789.241 L 766.903 794.125 770.263 798.813 C 773.474 803.291, 773.866 803.515, 779.062 803.831 C 786.837 804.305, 804.734 802.182, 815.917 799.460 C 859.503 788.850, 890.320 759.428, 900.190 719 C 903.200 706.673, 903.828 683.314, 901.500 670.267 C 897.637 648.618, 889.654 632.479, 876.090 618.900 C 869.208 612.010, 865.810 609.474, 859 606.144 C 847.242 600.395, 836.719 598.729, 826.870 601.060" fill="none" fill-rule="evenodd" stroke="#111" stroke-width="2.5" stroke-linejoin="round" stroke-linecap="round"/>
  <path d="M 696.298 682.250 C 697.563 695.970, 694.137 719.372, 688.838 733.209 C 683.676 746.689, 671.768 762.425, 660.030 771.278 C 658.122 772.717, 656.784 774.117, 657.057 774.390 C 657.329 774.662, 662.040 773.357, 667.526 771.489 C 691.984 763.160, 719.550 765.518, 742.841 777.933 L 750.181 781.845 752.022 777.673 C 756.456 767.622, 757.065 748.421, 753.406 734 C 748.629 715.169, 735.678 696.647, 719.704 685.799 C 713.432 681.540, 701.006 676, 697.724 676 C 695.874 676, 695.766 676.473, 696.298 682.250" fill="none" fill-rule="evenodd" stroke="#111" stroke-width="2.5" stroke-linejoin="round" stroke-linecap="round"/>
  <path d="M 289.833 683.924 C 269.577 692.378, 252.865 712.569, 248.387 734 C 246.028 745.284, 246.880 762.269, 250.288 771.903 C 253.458 780.867, 254.328 781.918, 256.760 779.717 C 259.285 777.432, 269.027 773.224, 278.500 770.326 C 285.311 768.242, 288.506 767.880, 300 767.888 C 311.271 767.896, 315.129 768.323, 323.366 770.476 C 328.792 771.894, 334.192 773.567, 335.366 774.194 C 336.540 774.821, 335.209 772.826, 332.410 769.761 C 316.509 752.353, 305.731 725.019, 303.522 696.500 C 302.380 681.750, 302.166 680.991, 299.162 681.070 C 297.698 681.109, 293.500 682.393, 289.833 683.924" fill="none" fill-rule="evenodd" stroke="#111" stroke-width="2.5" stroke-linejoin="round" stroke-linecap="round"/>
  <path d="M 682.113 781.481 C 672.242 783.721, 666.775 785.765, 660.379 789.605 C 652.902 794.094, 649.215 797.599, 647.381 801.961 C 646.036 805.160, 646.079 805.616, 647.950 807.961 C 651.506 812.420, 656.842 821.780, 658.643 826.717 C 659.860 830.053, 660.401 834.586, 660.432 841.706 L 660.476 851.911 663.988 853.433 C 673.947 857.748, 684.270 857.974, 688.533 853.969 C 692.299 850.431, 693.258 845.926, 692.861 833.649 L 692.500 822.500 695.774 822.185 C 698.729 821.900, 699.206 822.241, 700.675 825.685 C 702.900 830.899, 702.947 846.965, 700.754 852.660 C 699.873 854.947, 699.418 857.085, 699.743 857.410 C 700.952 858.619, 719.086 857.991, 722.282 856.629 C 730.351 853.191, 733.769 843.970, 731.877 830.742 C 730.616 821.925, 731.474 819.683, 735.914 820.199 C 738.030 820.445, 738.810 821.409, 740.206 825.500 C 742.299 831.631, 742.452 841.711, 740.562 848.813 L 739.148 854.126 742.324 853.456 C 744.071 853.087, 747.692 851.608, 750.370 850.168 C 764.877 842.373, 766.924 824.790, 755.317 807.678 C 747.671 796.407, 735.672 788.143, 719.500 783.009 C 710.413 780.124, 691.497 779.351, 682.113 781.481" fill="none" fill-rule="evenodd" stroke="#111" stroke-width="2.5" stroke-linejoin="round" stroke-linecap="round"/>
  <path d="M 286.500 782.477 C 262.608 787.723, 245.180 804.558, 243.350 824.157 C 242.214 836.325, 247.585 847.197, 257.142 852.072 C 263.014 855.068, 264.051 854.732, 262.754 850.250 C 261.276 845.145, 261.518 830.402, 263.160 825.500 C 264.207 822.374, 265.065 821.434, 267.086 821.199 C 271.389 820.699, 272.322 822.918, 271.105 830.760 C 270.394 835.346, 270.362 839.578, 271.008 843.551 C 272.551 853.027, 276.923 857.441, 286.274 858.963 C 292.255 859.937, 302 859.304, 302 857.941 C 302 857.513, 301.269 854.313, 300.376 850.831 C 298.523 843.605, 298.923 831.027, 301.156 826.347 C 302.722 823.065, 306.946 822.025, 308.942 824.430 C 309.950 825.645, 309.972 827.342, 309.047 832.651 C 307.328 842.522, 309.123 851.888, 313.528 856.026 C 315.599 857.971, 317.009 858.331, 322.252 858.252 C 328.529 858.157, 339.298 854.945, 340.644 852.767 C 341.019 852.160, 341.381 846.451, 341.448 840.082 C 341.555 830, 341.909 827.701, 344.183 822.328 C 345.621 818.934, 348.141 814.202, 349.785 811.812 L 352.774 807.469 350.362 802.722 C 347.519 797.128, 342.568 793.239, 331.385 787.816 C 318.401 781.519, 300.537 779.394, 286.500 782.477" fill="none" fill-rule="evenodd" stroke="#111" stroke-width="2.5" stroke-linejoin="round" stroke-linecap="round"/>
</g>

<g id="toolbar">
  <rect x="12" y="1038" width="1000" height="150" rx="18" fill="#1a1a2e" stroke="#0f3460" stroke-width="2"/>

  <!-- Row 1 - 20 colors -->
  <rect class="swatch active" x="22"  y="1050" width="44" height="44" rx="8" fill="#e94560" onclick="setColor('#e94560',this)"/>
  <rect class="swatch" x="72"  y="1050" width="44" height="44" rx="8" fill="#ff7675" onclick="setColor('#ff7675',this)"/>
  <rect class="swatch" x="122" y="1050" width="44" height="44" rx="8" fill="#f5a623" onclick="setColor('#f5a623',this)"/>
  <rect class="swatch" x="172" y="1050" width="44" height="44" rx="8" fill="#fdcb6e" onclick="setColor('#fdcb6e',this)"/>
  <rect class="swatch" x="222" y="1050" width="44" height="44" rx="8" fill="#f7e94b" onclick="setColor('#f7e94b',this)"/>
  <rect class="swatch" x="272" y="1050" width="44" height="44" rx="8" fill="#a8e063" onclick="setColor('#a8e063',this)"/>
  <rect class="swatch" x="322" y="1050" width="44" height="44" rx="8" fill="#2ecc71" onclick="setColor('#2ecc71',this)"/>
  <rect class="swatch" x="372" y="1050" width="44" height="44" rx="8" fill="#1abc9c" onclick="setColor('#1abc9c',this)"/>
  <rect class="swatch" x="422" y="1050" width="44" height="44" rx="8" fill="#74b9ff" onclick="setColor('#74b9ff',this)"/>
  <rect class="swatch" x="472" y="1050" width="44" height="44" rx="8" fill="#0984e3" onclick="setColor('#0984e3',this)"/>
  <rect class="swatch" x="522" y="1050" width="44" height="44" rx="8" fill="#6c5ce7" onclick="setColor('#6c5ce7',this)"/>
  <rect class="swatch" x="572" y="1050" width="44" height="44" rx="8" fill="#a29bfe" onclick="setColor('#a29bfe',this)"/>
  <rect class="swatch" x="622" y="1050" width="44" height="44" rx="8" fill="#fd79a8" onclick="setColor('#fd79a8',this)"/>
  <rect class="swatch" x="672" y="1050" width="44" height="44" rx="8" fill="#e84393" onclick="setColor('#e84393',this)"/>
  <rect class="swatch" x="722" y="1050" width="44" height="44" rx="8" fill="#b8621f" onclick="setColor('#b8621f',this)"/>
  <rect class="swatch" x="772" y="1050" width="44" height="44" rx="8" fill="#f0c080" onclick="setColor('#f0c080',this)"/>
  <rect class="swatch" x="822" y="1050" width="44" height="44" rx="8" fill="#b2bec3" onclick="setColor('#b2bec3',this)"/>
  <rect class="swatch" x="872" y="1050" width="44" height="44" rx="8" fill="#636e72" onclick="setColor('#636e72',this)"/>
  <rect class="swatch" x="922" y="1050" width="44" height="44" rx="8" fill="#2d3436" onclick="setColor('#2d3436',this)"/>
  <rect class="swatch" x="972" y="1050" width="44" height="44" rx="8" fill="#ffffff" stroke="#888" stroke-width="1.5" onclick="setColor('#ffffff',this)"/>

  <!-- Row 2 - 17 colors + controls -->
  <rect class="swatch" x="22"  y="1102" width="44" height="44" rx="8" fill="#c0392b" onclick="setColor('#c0392b',this)"/>
  <rect class="swatch" x="72"  y="1102" width="44" height="44" rx="8" fill="#fab1a0" onclick="setColor('#fab1a0',this)"/>
  <rect class="swatch" x="122" y="1102" width="44" height="44" rx="8" fill="#e17055" onclick="setColor('#e17055',this)"/>
  <rect class="swatch" x="172" y="1102" width="44" height="44" rx="8" fill="#ffeaa7" onclick="setColor('#ffeaa7',this)"/>
  <rect class="swatch" x="222" y="1102" width="44" height="44" rx="8" fill="#55efc4" onclick="setColor('#55efc4',this)"/>
  <rect class="swatch" x="272" y="1102" width="44" height="44" rx="8" fill="#00b894" onclick="setColor('#00b894',this)"/>
  <rect class="swatch" x="322" y="1102" width="44" height="44" rx="8" fill="#81ecec" onclick="setColor('#81ecec',this)"/>
  <rect class="swatch" x="372" y="1102" width="44" height="44" rx="8" fill="#00cec9" onclick="setColor('#00cec9',this)"/>
  <rect class="swatch" x="422" y="1102" width="44" height="44" rx="8" fill="#0652DD" onclick="setColor('#0652DD',this)"/>
  <rect class="swatch" x="472" y="1102" width="44" height="44" rx="8" fill="#d6a2e8" onclick="setColor('#d6a2e8',this)"/>
  <rect class="swatch" x="522" y="1102" width="44" height="44" rx="8" fill="#6d214f" onclick="setColor('#6d214f',this)"/>
  <rect class="swatch" x="572" y="1102" width="44" height="44" rx="8" fill="#ff6b81" onclick="setColor('#ff6b81',this)"/>
  <rect class="swatch" x="622" y="1102" width="44" height="44" rx="8" fill="#6d4c41" onclick="setColor('#6d4c41',this)"/>
  <rect class="swatch" x="672" y="1102" width="44" height="44" rx="8" fill="#f5cba7" onclick="setColor('#f5cba7',this)"/>
  <rect class="swatch" x="722" y="1102" width="44" height="44" rx="8" fill="#55713f" onclick="setColor('#55713f',this)"/>
  <rect class="swatch" x="772" y="1102" width="44" height="44" rx="8" fill="#27ae60" onclick="setColor('#27ae60',this)"/>
  <rect class="swatch" x="822" y="1102" width="44" height="44" rx="8" fill="#f8c8d4" onclick="setColor('#f8c8d4',this)"/>

  <!-- Undo / Clear / Eraser -->
  <rect x="872" y="1102" width="58" height="20" rx="7" fill="#0f3460" stroke="#555" stroke-width="1.5" onclick="undo()" style="cursor:pointer"/>
  <text x="901" y="1116" font-family="sans-serif" font-size="11" fill="#eee" text-anchor="middle" pointer-events="none">&#8617; تراجع</text>
  <rect x="872" y="1126" width="58" height="20" rx="7" fill="#0f3460" stroke="#555" stroke-width="1.5" onclick="clearAll()" style="cursor:pointer"/>
  <text x="901" y="1140" font-family="sans-serif" font-size="11" fill="#eee" text-anchor="middle" pointer-events="none">مسح كل</text>
  <rect id="eraserBtn" x="936" y="1102" width="76" height="44" rx="8" fill="#0f3460" stroke="#444" stroke-width="1.5" onclick="toggleEraser()" style="cursor:pointer"/>
  <text x="974" y="1129" font-family="sans-serif" font-size="13" fill="#eee" text-anchor="middle" pointer-events="none">&#129529; ممحاة</text>

  <!-- Opacity slider -->
  <text x="82" y="1045" font-family="sans-serif" font-size="11" fill="#aaa" text-anchor="middle">شفافية</text>
  <rect x="22" y="1030" width="120" height="12" rx="6" fill="#2d3436"/>
  <rect id="opBar" x="22" y="1030" width="96" height="12" rx="6" fill="#e94560"/>
  <rect x="22" y="1028" width="120" height="16" rx="6" fill="transparent"
    onmousedown="startSlide(event)" onmousemove="slideMove(event)" onmouseup="endSlide()"
    ontouchstart="startSlide(event)" ontouchmove="slideMove(event)" ontouchend="endSlide()"/>
  <text id="opLabel" x="155" y="1040" font-family="sans-serif" font-size="11" fill="#ccc">80%</text>
</g>
<script type="text/javascript"><![CDATA[

  var activeColor = '#e94560';
  var opacity = 0.8;
  var eraseMode = false;
  var history = [];
  var sliding = false;

  function setColor(c, el) {
    activeColor = c; eraseMode = false;
    document.querySelectorAll('.swatch').forEach(function(s){ s.classList.remove('active'); });
    el.classList.add('active');
    document.getElementById('eraserBtn').setAttribute('fill','#0f3460');
    document.getElementById('eraserBtn').setAttribute('stroke','#444');
  }
  function toggleEraser() {
    eraseMode = !eraseMode;
    var el = document.getElementById('eraserBtn');
    el.setAttribute('fill', eraseMode ? '#fff0f0' : '#0f3460');
    el.setAttribute('stroke', eraseMode ? '#e94560' : '#444');
  }
  function fillRegion(el) {
    history.push({ el:el, fill:el.getAttribute('fill'), op:el.getAttribute('fill-opacity') });
    if (eraseMode) {
      el.setAttribute('fill','white'); el.setAttribute('fill-opacity','1');
    } else {
      el.setAttribute('fill', activeColor); el.setAttribute('fill-opacity', opacity);
    }
  }
  function undo() {
    if (!history.length) return;
    var last = history.pop();
    last.el.setAttribute('fill', last.fill || 'white');
    last.el.setAttribute('fill-opacity', last.op || '1');
  }
  function clearAll() {
    document.querySelectorAll('.region').forEach(function(r){
      r.setAttribute('fill','white'); r.setAttribute('fill-opacity','1');
    });
    history = [];
  }
  function startSlide(evt) { sliding = true; slideMove(evt); }
  function endSlide() { sliding = false; }
  function slideMove(evt) {
    if (!sliding) return;
    var svg = evt.target.ownerSVGElement;
    var pt = svg.createSVGPoint();
    pt.x = evt.clientX; pt.y = evt.clientY;
    var sp = pt.matrixTransform(svg.getScreenCTM().inverse());
    var pct = Math.max(0, Math.min(1, (sp.x - 22) / 120));
    opacity = pct;
    document.getElementById('opBar').setAttribute('width', Math.round(pct * 120));
    document.getElementById('opLabel').textContent = Math.round(pct * 100) + '%';
  }

]]></script>
</svg>