<svg xmlns="http://www.w3.org/2000/svg" width="1024" height="1084" viewBox="0 0 1024 1084">
<defs>
  <style>
    .region { cursor:pointer; }
    .region:hover { opacity:0.7; }
    .swatch { cursor:pointer; stroke:transparent; stroke-width:3; }
    .swatch:hover { stroke:#fff; stroke-width:3; }
    .swatch.active { stroke:#fff; stroke-width:3.5; }
  </style>
</defs>

<rect width="1024" height="860" fill="white"/>

<g id="colorRegions">
    <path id="body_outer" class="region" d="M 665.075 40.087 C 630.143 46.941, 594.724 80.279, 570.611 129 C 562.792 144.799, 559.027 153.892, 553.635 170 C 547.307 188.906, 539.631 219.739, 538.534 230.659 L 537.827 237.704 527.163 238.329 C 521.299 238.673, 510.650 240.087, 503.500 241.471 C 496.350 242.856, 490.335 243.992, 490.134 243.995 C 489.932 243.998, 491.395 242.199, 493.384 239.997 C 497.569 235.364, 497.945 232.237, 494.686 229.174 C 488.605 223.462, 461.166 229.658, 445.553 240.270 C 441.896 242.755, 441.474 242.834, 439.825 241.342 C 437.282 239.041, 431.556 240.219, 426.832 244.015 L 422.990 247.103 421.995 244.486 C 421.448 243.047, 421 241.261, 421 240.516 C 421 235.716, 407.410 197.196, 399.436 179.396 C 382.223 140.969, 356.585 103.181, 334.035 83 C 318.210 68.838, 297.011 56.270, 282.500 52.446 C 273.080 49.965, 257.692 49.441, 250.265 51.349 C 220.048 59.113, 200.996 90.502, 201.012 132.500 C 201.036 195.100, 234.742 262.292, 291.673 313.231 L 303.847 324.123 299.544 330.312 C 283.283 353.700, 270.131 381.841, 263.136 408.219 C 257.021 431.279, 253.194 462.070, 254.265 479.599 L 254.760 487.699 248.612 488.831 C 238.298 490.732, 231.500 493.419, 231.500 495.595 C 231.500 497.382, 232.246 497.478, 243.516 497.152 L 255.532 496.804 257.410 506.152 C 258.444 511.293, 259.917 517.294, 260.684 519.487 C 261.811 522.708, 261.831 523.554, 260.789 523.893 C 257.206 525.057, 241.750 533.716, 236.254 537.638 C 230.453 541.778, 228.799 544.139, 230.824 545.391 C 231.276 545.671, 238.356 543.205, 246.557 539.910 C 254.757 536.616, 262.387 533.690, 263.512 533.408 C 265.229 532.977, 266.263 534.216, 269.940 541.118 C 275.700 551.928, 287.129 566.995, 295.674 575.044 C 312.845 591.217, 322.399 597.235, 353.283 611.332 L 358.066 613.515 353.470 620.008 C 337.568 642.472, 329.287 669.539, 332.109 689.831 C 333.527 700.025, 336.274 708.416, 340.481 715.400 C 342.435 718.644, 343.914 721.379, 343.767 721.477 C 343.620 721.575, 341.959 722.270, 340.076 723.021 C 335.323 724.917, 324.799 733.598, 320.698 739.006 C 316.266 744.850, 312.346 752.638, 311.461 757.358 C 310.785 760.957, 310.634 761.077, 307.629 760.374 C 305.908 759.972, 301.800 759.596, 298.500 759.538 C 295.200 759.481, 289.415 758.436, 285.645 757.217 C 276.983 754.416, 269.695 754.394, 262.338 757.146 C 252.965 760.653, 244.044 770.511, 241.657 780 C 241.311 781.375, 239.697 783.420, 238.069 784.543 C 233.168 787.927, 229.400 793.535, 226.990 801.031 C 222.873 813.834, 225.384 833.672, 233.441 852 C 243.915 875.826, 262.333 898.738, 285 916.139 C 307.683 933.552, 328.140 941.572, 349.500 941.424 C 361.457 941.341, 369.191 939.337, 375.355 934.723 C 377.683 932.980, 380.878 932.060, 387.659 931.178 C 405.002 928.924, 424.603 921.712, 434.913 913.790 L 439.326 910.400 447.768 912.654 C 470.726 918.785, 506.242 922.132, 527.785 920.194 C 541.148 918.993, 556.025 916.666, 564.475 914.456 C 569.464 913.151, 569.547 913.169, 576 916.875 C 590.654 925.291, 606.515 930, 620.203 930 C 626.082 930, 628.332 930.541, 634.366 933.404 C 644.254 938.097, 651.753 939.388, 665.289 938.731 C 678.800 938.075, 689.975 935.049, 704.500 928.112 C 729.247 916.293, 752.468 897.339, 768.954 875.500 C 777.780 863.808, 787.365 844.543, 790.596 832.004 C 792.875 823.157, 793.184 820.252, 792.791 811.412 C 792.389 802.366, 791.945 800.331, 789.125 794.602 C 787.293 790.881, 784.217 786.630, 781.958 784.696 C 779.781 782.833, 778 780.636, 778 779.814 C 778 776.402, 771.618 765.842, 767.103 761.782 C 762.057 757.246, 753.190 753.487, 744.939 752.388 C 740.046 751.736, 731.062 753.218, 726.938 755.357 C 725.452 756.128, 723.603 756.354, 722.454 755.905 C 716.834 753.706, 705.375 755.189, 694.809 759.481 C 693.492 760.017, 692.524 758.991, 690.424 754.834 C 688.942 751.900, 686.887 748.422, 685.856 747.104 L 683.982 744.707 687.987 741.279 C 699.245 731.643, 705.923 722.601, 709.752 711.813 C 711.943 705.639, 712.359 702.709, 712.424 693 C 712.505 680.740, 710.792 673.480, 705.698 664.500 L 703.429 660.500 705.735 655.713 C 708.558 649.851, 710.965 639.981, 710.985 634.183 C 711.003 628.895, 710.249 628.757, 729.500 637.573 C 746.381 645.305, 757.716 648.814, 768.461 649.636 C 785.824 650.965, 799.550 644.453, 804.583 632.500 C 808.254 623.783, 805.588 608.626, 799.653 604.470 C 797.573 603.013, 797.573 603, 799.589 603 C 803.396 603, 817.099 598.951, 823.309 595.991 C 841.604 587.271, 850.126 573.647, 846.948 558.199 C 846.304 555.065, 845.317 551.600, 844.756 550.500 C 842.668 546.408, 836.731 539.911, 832.280 536.848 C 827.153 533.321, 814.682 529, 809.629 529 C 805.221 529, 804.687 528.214, 807.051 525.209 C 812.152 518.724, 813.050 505.958, 808.966 498 C 806.757 493.696, 800.681 487.816, 796.008 485.459 C 788.746 481.797, 773.054 482.622, 765.250 487.077 L 762 488.933 762 486.588 C 762 479.750, 753.652 469.402, 746.384 467.230 C 741.578 465.794, 732.802 465.623, 728.421 466.879 L 725.355 467.759 723.666 453.129 C 721.005 430.067, 712.607 400.693, 702.187 378 C 693.497 359.072, 678.230 333.965, 667.024 320.173 C 661.370 313.214, 661.349 313.781, 667.500 307.474 C 674.513 300.283, 684.271 288.765, 692.045 278.500 C 728.828 229.934, 746.923 182.949, 746.982 135.849 C 747.045 85.416, 726.110 49.598, 691.298 40.577 C 684.803 38.894, 672.343 38.661, 665.075 40.087" fill="none" fill-rule="evenodd" stroke="none" onclick="fillRegion(this)" />
    <path id="body_main" class="region" d="M 666.509 52.661 C 644.200 57.440, 621.747 74.234, 601.882 101 C 580.188 130.229, 562.467 173.882, 552.370 222.970 C 550.500 232.061, 548.694 242.650, 548.357 246.500 L 547.745 253.500 553.623 253.500 C 559.218 253.500, 559.500 253.619, 559.500 255.989 C 559.500 258.232, 558.882 258.612, 553.250 259.826 C 547.372 261.093, 547 261.342, 547 264.005 C 547 270.361, 544.856 271.604, 540.989 267.489 C 539.692 266.108, 536.801 264.502, 534.565 263.921 C 532.329 263.341, 528.813 262.428, 526.750 261.894 C 524.684 261.359, 523 260.300, 523 259.535 C 523 258.771, 525.231 256.426, 527.957 254.323 C 530.684 252.220, 532.934 250.105, 532.957 249.621 C 533.014 248.464, 527.376 249.192, 497.716 254.171 C 480.390 257.080, 472.616 258.016, 471.881 257.281 C 470.500 255.900, 472.953 251.029, 478.221 244.692 C 480.419 242.047, 481.959 239.626, 481.645 239.311 C 481.330 238.996, 478.018 239.489, 474.286 240.406 C 465.480 242.569, 448.419 251.006, 440.075 257.324 C 431.876 263.533, 430.598 263.700, 430.182 258.618 L 429.864 254.737 427.397 258.366 C 426.041 260.363, 424.058 264.031, 422.992 266.519 C 419.902 273.728, 415.652 273.543, 414.469 266.150 C 412.125 251.489, 402.991 220.443, 394.703 198.971 C 388.186 182.084, 376.473 158.807, 365.885 141.701 C 345.608 108.941, 319.420 82.743, 294.481 70.271 C 282.680 64.369, 275.451 62.529, 264 62.514 C 254.218 62.501, 253.032 62.722, 246.653 65.743 C 235.037 71.244, 227.910 78.351, 221.683 90.640 C 215.957 101.938, 212.358 123.949, 213.447 141 C 216.904 195.131, 242.029 246.264, 287.418 291.539 C 296.813 300.910, 307.988 311.433, 312.250 314.923 C 317.127 318.917, 320 321.996, 320 323.231 C 320 324.310, 318.153 327.287, 315.895 329.847 C 305.387 341.758, 291.546 365.923, 283.558 386.301 C 272.390 414.793, 268.067 436.098, 267.276 466.550 L 266.729 487.599 274.238 488.767 C 278.369 489.409, 284.167 490.737, 287.124 491.717 C 291.716 493.240, 292.500 493.864, 292.500 496 C 292.500 498.264, 292.122 498.492, 288.500 498.419 C 286.300 498.374, 280.786 497.972, 276.246 497.525 L 267.992 496.712 268.588 500.106 C 268.915 501.973, 269.869 506.200, 270.708 509.500 C 271.546 512.800, 272.456 516.504, 272.729 517.732 C 273.209 519.888, 273.585 519.955, 283.863 519.732 L 294.500 519.500 294.500 522 C 294.500 524.284, 293.851 524.657, 287 526.310 C 282.875 527.305, 279.109 528.507, 278.631 528.979 C 276.687 530.901, 289.532 550.388, 299.995 561.392 C 320.067 582.499, 342.730 595.487, 379.528 606.971 C 386.662 609.198, 395.875 611.716, 400 612.567 C 408.255 614.269, 409.583 615.039, 408.615 617.560 C 408.036 619.070, 406.792 619.179, 397.232 618.556 C 391.330 618.172, 383.483 617.289, 379.796 616.594 L 373.092 615.331 369.164 619.415 C 359.870 629.080, 349.461 648.779, 345.984 663.283 C 343.648 673.027, 343.459 684.783, 345.485 694.347 C 350.463 717.838, 375.756 738.969, 410.500 748.661 C 417.554 750.628, 422.744 751.288, 434.500 751.710 C 450.922 752.299, 457.316 751.288, 467.963 746.415 L 473.427 743.915 470.463 741.525 C 468.004 739.541, 467.688 738.826, 468.607 737.317 C 470.152 734.782, 472.529 734.549, 476.693 736.524 C 485.917 740.902, 498.480 732.036, 500.294 719.869 C 500.813 716.392, 500.667 716.172, 496.835 714.667 C 492.058 712.791, 491.909 710.028, 496.510 708.637 C 504.852 706.114, 509 700.799, 509 692.630 C 509 680.600, 499.821 670.272, 484.420 664.972 C 477.277 662.514, 458.409 659.012, 452.075 658.969 C 443.258 658.908, 426.398 655.340, 419.158 652.003 C 411.783 648.604, 407.332 644.890, 408.454 643.074 C 409.505 641.374, 412.325 641.802, 418.405 644.585 C 423.558 646.944, 425.744 647.247, 443.420 648.046 C 460.794 648.832, 465.437 649.303, 478.005 651.554 C 481.420 652.166, 481.816 651.870, 493.505 639.982 C 525.981 606.951, 564.885 575.949, 590.133 562.981 C 613.501 550.977, 632.898 547.575, 649.642 552.541 C 651.770 553.173, 651.788 553.046, 652.216 533.838 C 652.596 516.770, 652.920 513.737, 654.979 508 C 657.752 500.273, 660.511 495.688, 665.109 491.164 C 670.216 486.140, 673.783 484.607, 680.500 484.551 C 688.529 484.483, 691.323 485.394, 695.971 489.592 L 699.891 493.134 701.987 489.026 C 703.140 486.766, 705.864 483.136, 708.041 480.959 C 711.474 477.526, 712.974 475, 711.581 475 C 711.350 475, 708.369 475.715, 704.956 476.590 C 699.285 478.043, 698.614 478.043, 697.161 476.590 C 695.738 475.166, 695.731 474.841, 697.094 473.477 C 697.931 472.640, 701.740 470.951, 705.558 469.724 L 712.500 467.492 712.190 460.996 C 711.581 448.234, 707.196 426.984, 701.668 410 C 691.212 377.875, 667.614 336.492, 650.088 319.547 C 647.840 317.373, 646 314.659, 646 313.516 C 646 312.292, 648.505 308.983, 652.091 305.469 C 659.044 298.655, 673.186 282.589, 680.671 273 C 707.553 238.563, 725.344 201.396, 732.202 165.350 C 735.396 148.560, 735.432 119.782, 732.275 106.328 C 725.546 77.650, 710.490 58.668, 690.020 53.052 C 681.338 50.670, 676.199 50.585, 666.509 52.661" fill="none" fill-rule="evenodd" stroke="none" onclick="fillRegion(this)" />
    <path id="ear_right_inner" class="region" d="M 670.487 103.799 C 662.137 106.686, 656.874 110.389, 647.920 119.678 C 630.959 137.272, 617.108 160.560, 602.228 196.500 C 592.286 220.513, 582.686 252.967, 581.367 267.026 C 580.864 272.381, 581.051 273.797, 582.407 274.923 C 583.784 276.065, 584.513 276.075, 586.780 274.978 C 588.276 274.255, 590.175 273.718, 591 273.786 C 591.942 273.864, 593.940 270.903, 596.374 265.820 C 600.952 256.262, 605.382 251.033, 611.079 248.464 C 615.160 246.624, 615.254 246.626, 616.700 248.546 C 619.737 252.579, 615.354 268.650, 609.021 276.701 C 607.504 278.629, 607.243 279.634, 608.054 280.421 C 609.757 282.075, 617.490 272.979, 619.933 266.450 C 625.995 250.246, 621.442 239.454, 609.991 242.884 C 605.328 244.282, 599.622 249.052, 595.500 255.001 C 593.961 257.220, 592.527 258.860, 592.312 258.646 C 591.806 258.139, 596.369 241.155, 600.278 229 C 606.535 209.542, 618.292 182.148, 628.937 162.224 C 641.246 139.186, 657.862 119.819, 670.416 113.880 C 677.646 110.459, 678.867 110.382, 684.026 113.013 C 701.754 122.057, 694.976 175.307, 670.281 221 C 656.921 245.721, 633.259 274.014, 617 284.710 C 610.479 289, 609.833 289.820, 611.105 292.196 C 612.553 294.903, 615.069 294.407, 621.595 290.129 C 655.041 268.205, 688.865 215.286, 699.017 169 C 704.745 142.883, 703.609 123.907, 695.624 112.320 C 691.878 106.884, 683.778 101.979, 678.636 102.033 C 676.911 102.051, 673.244 102.845, 670.487 103.799" fill="none" fill-rule="evenodd" stroke="none" onclick="fillRegion(this)" />
    <path id="ear_left_inner" class="region" d="M 261.120 116.710 C 247.247 123.545, 244.614 150.646, 254.583 184 C 258.482 197.046, 259.812 200.418, 267.003 215.500 C 278.878 240.403, 296.745 263.969, 316.856 281.250 C 328.649 291.384, 338.909 298.268, 346.616 301.217 C 352.668 303.533, 355.292 303.071, 354.820 299.771 C 354.591 298.169, 352.653 296.567, 348 294.130 C 337.460 288.610, 324.151 277.952, 311.795 265.136 C 289.086 241.583, 273.890 216.669, 264.099 186.941 C 259.470 172.883, 257.927 164.805, 257.330 151.500 C 256.850 140.788, 257.027 138.878, 258.984 133.707 C 262.667 123.972, 266.677 121.683, 275.175 124.462 C 284.897 127.642, 298.300 138.365, 308.822 151.381 C 327.288 174.224, 343.747 201.876, 357.699 233.500 C 363.304 246.202, 369.049 262, 368.065 262 C 367.650 262, 366.461 261.062, 365.423 259.915 C 362.226 256.382, 354.694 251.331, 350.697 250.039 C 346.261 248.605, 342.743 249.257, 339.975 252.025 C 337.449 254.551, 337.295 263.153, 339.666 269.230 C 343.114 278.068, 353.335 290.147, 355.981 288.512 C 356.497 288.193, 354.742 284.910, 352.080 281.216 C 347.021 274.195, 343 264.872, 343 260.162 C 343 248.802, 360.142 258.051, 367.719 273.500 C 369.575 277.284, 370.890 278.872, 371.860 278.500 C 372.641 278.201, 373.918 278.865, 374.697 279.978 C 376.409 282.422, 380.813 282.652, 381.699 280.342 C 384.258 273.674, 367.900 230.326, 350.859 198.617 C 335.605 170.232, 322.108 150.893, 307.101 135.921 C 296.455 125.299, 290.275 120.715, 282.024 117.320 C 275.286 114.548, 266.056 114.279, 261.120 116.710" fill="none" fill-rule="evenodd" stroke="none" onclick="fillRegion(this)" />
    <path id="eye_right_outer" class="region" d="M 586.657 413.930 C 567.149 421.774, 556.243 444.474, 561.470 466.356 C 565.734 484.206, 579.605 497.287, 596.669 499.551 C 611.485 501.516, 629.128 492.367, 636.445 478.924 C 641.675 469.315, 643.446 455.986, 640.939 445.112 C 638.087 432.740, 628.180 420.246, 617.295 415.293 C 609.340 411.673, 593.969 410.990, 586.657 413.930" fill="none" fill-rule="evenodd" stroke="none" onclick="fillRegion(this)" />
    <path id="eye_left_outer" class="region" d="M 381.456 416.934 C 376.422 418.140, 366.513 423.889, 362.702 427.815 C 351.464 439.393, 346.567 457.238, 350.492 472.307 C 354.897 489.219, 366.026 500.225, 382.141 503.606 C 402.388 507.854, 422.290 497.019, 429.428 477.864 C 434.625 463.915, 432.653 446.304, 424.552 434.330 C 420.164 427.844, 411.694 421.162, 404.233 418.302 C 398.323 416.035, 387.835 415.406, 381.456 416.934" fill="none" fill-rule="evenodd" stroke="none" onclick="fillRegion(this)" />
    <path id="eye_right_iris" class="region" d="M 591.352 424.061 C 586.510 425.512, 582 431.250, 582 435.958 C 582 442.452, 589.029 449, 596 449 C 602.628 449, 609 443.281, 609 437.333 C 609 427.451, 600.749 421.246, 591.352 424.061" fill="none" fill-rule="evenodd" stroke="none" onclick="fillRegion(this)" />
    <path id="eye_left_iris" class="region" d="M 388.615 430.088 C 382.899 434.585, 381.671 440.474, 385.063 447.124 C 391.152 459.058, 409.469 455.584, 410.750 442.251 C 411.152 438.065, 410.846 436.970, 408.488 434.169 C 406.989 432.386, 404.488 430.269, 402.931 429.464 C 398.718 427.286, 391.794 427.588, 388.615 430.088" fill="none" fill-rule="evenodd" stroke="none" onclick="fillRegion(this)" />
    <path id="eye_right_pupil" class="region" d="M 604.214 467.182 C 600.542 471.959, 600.234 473.997, 602.829 476.345 C 605.478 478.742, 607.763 478.391, 611.077 475.077 C 614.429 471.725, 614.752 468.481, 612.056 465.250 C 609.389 462.052, 607.869 462.427, 604.214 467.182" fill="none" fill-rule="evenodd" stroke="none" onclick="fillRegion(this)" />
    <path id="eye_left_pupil" class="region" d="M 396 470.462 C 394.625 471.242, 392.039 472.559, 390.252 473.388 C 385.753 475.477, 384.076 479.321, 386.496 481.996 C 388.638 484.363, 391.855 484.577, 394.559 482.532 C 395.626 481.724, 397.434 481.049, 398.576 481.032 C 401.203 480.992, 405 477.017, 405 474.308 C 405 470.439, 399.890 468.255, 396 470.462" fill="none" fill-rule="evenodd" stroke="none" onclick="fillRegion(this)" />
    <path id="nose" class="region" d="M 492.121 476.002 C 486.767 477.267, 484.175 479.059, 483.055 482.272 C 481.546 486.600, 483.279 489.428, 491.750 496.470 L 499 502.498 499 507.889 C 499 514.792, 495.799 521.393, 490.632 525.145 C 481.789 531.566, 472.709 529.520, 465.346 519.447 C 463.341 516.705, 463.073 516.614, 461.492 518.139 C 459.167 520.383, 460.310 525.144, 464.251 529.633 C 467.279 533.082, 473.668 537, 476.263 537 C 477.047 537, 478.563 539.969, 479.903 544.131 C 486.154 563.540, 505.150 570.161, 518.759 557.674 C 523.347 553.464, 527.308 546.203, 528.510 539.801 C 529.026 537.050, 529.836 536.100, 532.482 535.143 C 539.532 532.593, 545.471 524.900, 544.809 519.174 C 544.371 515.381, 540.332 514.829, 539.426 518.438 C 538.588 521.777, 533.936 525.639, 528.955 527.132 C 518.511 530.261, 507.448 520.662, 506.904 508 L 506.667 502.500 513.277 495.899 C 520.523 488.663, 522.114 485.093, 519.883 481.069 C 517.516 476.798, 512.550 474.990, 503.500 475.104 C 499.100 475.159, 493.979 475.564, 492.121 476.002" fill="none" fill-rule="evenodd" stroke="none" onclick="fillRegion(this)" />
    <path id="carrot_leaves" class="region" d="M 734 476.961 C 724.484 478.813, 713.646 489.013, 707.221 502.164 C 701.209 514.471, 699.062 515.659, 696.958 507.845 C 696.356 505.607, 694.189 501.981, 692.144 499.789 C 684.771 491.884, 674.585 493.988, 668.814 504.608 C 664.313 512.892, 662.718 523.786, 663.164 543.220 C 663.546 559.890, 663.602 560.259, 666.027 562.196 C 667.387 563.283, 669.775 565.296, 671.334 566.669 C 672.893 568.042, 674.293 569.016, 674.445 568.833 C 674.597 568.650, 675.529 565.150, 676.516 561.055 C 679.447 548.896, 685.176 538.651, 693.915 529.936 C 702.121 521.753, 714.659 512.319, 715.796 513.473 C 716.183 513.866, 713.350 516.932, 709.500 520.287 C 692.082 535.464, 687.555 541.948, 681.016 561.081 L 677.371 571.744 681.119 576.122 C 683.493 578.895, 685.192 580.133, 685.754 579.500 C 686.242 578.950, 688.922 575.575, 691.711 572 C 698.628 563.130, 713.845 548.587, 724.600 540.566 C 729.741 536.732, 739.413 531.042, 747.500 527.094 C 770.028 516.095, 774.702 516.450, 753.500 527.549 C 739.828 534.706, 732.903 539.327, 721.811 548.695 C 713.988 555.301, 695.424 574.293, 690.042 581.195 L 687.941 583.890 690.704 587.771 L 693.466 591.651 701.483 586.447 C 723.730 572.006, 754.213 561.847, 776 561.613 C 788.270 561.481, 791.021 563.110, 780.500 564.276 C 753.378 567.283, 727.763 575.949, 704.556 589.966 L 696.095 595.077 698.797 599.550 C 700.651 602.618, 701.970 603.835, 703 603.426 C 707.526 601.628, 725.253 599, 732.853 599 C 745.048 599, 762.146 603.856, 765.907 608.388 C 768.215 611.169, 766.333 611.390, 760.780 608.990 C 751.773 605.096, 745.981 604.024, 733.881 604.012 C 723.925 604.002, 705.495 606.172, 704.155 607.512 C 703.919 607.748, 704.592 610.050, 705.649 612.628 C 707.515 617.173, 707.774 617.370, 714.214 619.134 C 717.866 620.134, 727.099 623.843, 734.733 627.376 C 742.366 630.909, 751.634 634.733, 755.328 635.874 C 778.764 643.113, 796.518 636.162, 794.746 620.442 C 794.054 614.298, 789.586 607.444, 782.986 602.401 C 774.518 595.931, 775.220 594.823, 788.733 593.316 C 819.855 589.846, 836 579.734, 836 563.711 C 836 559.417, 835.398 557.435, 832.992 553.802 C 825.463 542.435, 810.163 537.435, 790.946 540.062 C 778.183 541.806, 778.009 540.910, 789.013 530.120 C 796.531 522.748, 798.036 520.710, 799.409 516.045 C 801.342 509.476, 800.701 504.771, 797.244 500.144 C 790.274 490.815, 773.420 492.055, 757 503.104 C 746.856 509.930, 745.321 509.334, 749 500 C 754.755 485.398, 747.546 474.325, 734 476.961" fill="none" fill-rule="evenodd" stroke="none" onclick="fillRegion(this)" />
    <path id="mouth" class="region" d="M 503.005 527.917 C 503.002 529.246, 502.749 530.082, 502.442 529.775 C 502.134 529.468, 499.348 530.743, 496.250 532.608 C 493.152 534.474, 490.141 536.007, 489.559 536.015 C 486.504 536.059, 485.945 537.625, 487.575 541.573 C 491.479 551.027, 497.356 555.558, 504.651 554.736 C 510.261 554.104, 513.321 552.015, 516.442 546.689 C 519.862 540.854, 520.835 536, 518.585 536 C 515.833 536, 509.321 532.234, 506.065 528.761 C 503.066 525.560, 503.009 525.544, 503.005 527.917" fill="none" fill-rule="evenodd" stroke="none" onclick="fillRegion(this)" />
    <path id="carrot_body" class="region" d="M 619.500 563.890 C 594.952 570.606, 574.148 583.428, 538.500 613.812 C 525.336 625.033, 494 654.784, 494 656.062 C 494 656.559, 496.137 658.067, 498.750 659.413 C 505.943 663.118, 513.273 670.159, 516.774 676.728 C 522.343 687.176, 522.290 696.068, 516.609 704.695 C 514.146 708.434, 513.104 711.364, 512.575 716.036 C 510.621 733.310, 501.275 745.060, 487.086 748.083 C 483.251 748.900, 480.979 750.060, 479.294 752.063 C 472.826 759.750, 460.185 763.194, 438 763.313 C 428.210 763.366, 420.894 762.930, 418.142 762.131 C 413.033 760.647, 413.828 759.889, 404.708 774.941 C 392.778 794.629, 385 814.805, 385 826.061 C 385 847.028, 401.931 850.984, 439.777 838.860 C 456.847 833.393, 494.036 816.778, 510 807.488 C 513.025 805.727, 520 801.686, 525.500 798.508 C 551.036 783.750, 585.205 760.546, 603.299 745.676 C 608.097 741.733, 608.097 741.732, 606.153 739.616 C 602.741 735.903, 598 727.682, 598 725.479 C 598 724.307, 596.815 722.258, 595.368 720.924 C 593.920 719.591, 591.674 716.250, 590.377 713.500 C 584.047 700.076, 590.704 681.243, 604.871 672.499 C 609.920 669.382, 610.743 668.412, 611.854 664.258 C 613.565 657.860, 619.990 651.736, 627.463 649.380 C 632.145 647.904, 634.026 647.795, 639.266 648.694 C 645.387 649.744, 645.554 649.712, 648.500 646.932 C 656.277 639.594, 667.176 639.276, 677.061 646.099 C 678.470 647.071, 680.945 648.186, 682.561 648.575 C 684.177 648.965, 687.231 650.151, 689.347 651.212 C 691.463 652.272, 693.471 652.862, 693.810 652.524 C 695.669 650.664, 698.192 641.514, 698.699 634.787 C 699.856 619.447, 693.273 605.531, 674.513 583.661 C 667.279 575.227, 656.572 567.427, 648.283 564.551 C 640.689 561.916, 627.797 561.620, 619.500 563.890" fill="none" fill-rule="evenodd" stroke="none" onclick="fillRegion(this)" />
    <path id="carrot_line1" class="region carrot-line" d="M 609 583.272 C 609 587.305, 612.585 598.617, 615.370 603.369 C 621.827 614.387, 636.999 628.982, 640.571 627.611 C 642.881 626.725, 642.250 625.813, 634.751 619.208 C 631.039 615.938, 626.149 610.937, 623.885 608.094 C 620.083 603.318, 611.016 585.126, 611.005 582.250 C 611.002 581.563, 610.550 581, 610 581 C 609.450 581, 609 582.022, 609 583.272" fill="none" fill-rule="evenodd" stroke="none" onclick="fillCarrot(this)" />
    <path id="carrot_line2" class="region carrot-line" d="M 657.676 591.658 C 655.105 594.228, 658.951 604.215, 663.006 605.502 C 666.317 606.553, 666.450 605.456, 663.484 601.568 C 661.989 599.608, 660.223 596.424, 659.559 594.493 C 658.895 592.562, 658.047 591.286, 657.676 591.658" fill="none" fill-rule="evenodd" stroke="none" onclick="fillCarrot(this)" />
    <path id="carrot_line3" class="region carrot-line" d="M 566.010 603.199 C 566.015 603.915, 567.183 606.975, 568.606 610 C 570.028 613.025, 572.466 618.779, 574.023 622.788 C 575.580 626.796, 578.027 632.077, 579.461 634.524 C 582.526 639.754, 591.486 649, 593.489 649 C 596.635 649, 595.913 646.675, 591.584 642.865 C 585.565 637.567, 580.686 629.076, 578.389 619.903 C 577.369 615.831, 575.636 611.237, 574.538 609.693 C 571.891 605.975, 565.997 601.486, 566.010 603.199" fill="none" fill-rule="evenodd" stroke="none" onclick="fillCarrot(this)" />
    <path id="carrot_line4" class="region carrot-line" d="M 663 612.829 C 663 616.251, 676.166 630.752, 681.465 633.166 C 686.210 635.328, 685.475 632.900, 679.905 628.014 C 676.854 625.337, 672.422 620.639, 670.057 617.574 C 666.246 612.634, 663 610.452, 663 612.829" fill="none" fill-rule="evenodd" stroke="none" onclick="fillCarrot(this)" />
    <path id="body_lower" class="region" d="M 478 619.500 C 478 620.417, 478.484 621.005, 479.075 620.808 C 479.666 620.611, 480.150 620.023, 480.150 619.500 C 480.150 618.977, 479.666 618.389, 479.075 618.192 C 478.484 617.995, 478 618.583, 478 619.500" fill="none" fill-rule="evenodd" stroke="none" onclick="fillRegion(this)" />
    <path id="carrot_line5" class="region carrot-line" d="M 541.531 641.949 C 539.099 645.886, 561.620 675.340, 568.666 677.437 C 573.604 678.907, 571.945 675.503, 563.872 667.603 C 559.267 663.097, 552.916 655.521, 549.757 650.769 C 543.685 641.631, 542.508 640.369, 541.531 641.949" fill="none" fill-rule="evenodd" stroke="none" onclick="fillCarrot(this)" />
    <path id="carrot_line6" class="region carrot-line" d="M 658.364 653.170 C 655.068 654.766, 653.641 658.720, 655.095 662.230 C 656.106 664.669, 656.035 665.394, 654.652 666.777 C 653.124 668.304, 652.692 668.114, 648.636 664.134 C 643.901 659.487, 639.337 658.151, 632.542 659.426 C 627.796 660.317, 622.293 665.278, 621.047 669.792 C 620.194 672.881, 620.339 673.732, 622.023 675.524 C 626.396 680.179, 622.620 684.185, 615.938 681.980 C 612.567 680.867, 611.803 680.959, 608.755 682.842 C 604.797 685.288, 600.373 692.818, 599.430 698.710 C 598.615 703.808, 601.090 711.797, 604.467 714.969 C 605.788 716.210, 608.361 717.529, 610.185 717.900 C 614.499 718.777, 615.408 722.430, 611.554 723.397 C 610.149 723.750, 609 724.499, 609 725.062 C 609 727.223, 618.180 735.763, 623.219 738.289 C 630.163 741.770, 639.077 744, 646.050 744 C 653.617 744, 665.762 740.777, 673.276 736.775 C 681.252 732.526, 692.029 721.630, 695.883 713.918 C 703.566 698.542, 702.343 681.033, 692.620 667.208 C 690.018 663.509, 684.550 659, 682.666 659 C 682.337 659, 683.008 661.456, 684.157 664.459 C 686.300 670.058, 686.131 673, 683.666 673 C 682.898 673, 680.218 669.468, 677.710 665.152 C 670.751 653.175, 665.311 649.806, 658.364 653.170" fill="none" fill-rule="evenodd" stroke="none" onclick="fillCarrot(this)" />
    <path id="carrot_line7" class="region carrot-line" d="M 524 653.901 C 524 654.397, 525.688 655.852, 527.750 657.135 C 533.162 660.502, 533.215 660.486, 529.623 656.565 C 526.504 653.159, 524 651.973, 524 653.901" fill="none" fill-rule="evenodd" stroke="none" onclick="fillCarrot(this)" />
    <path id="carrot_line8" class="region carrot-line" d="M 541.020 708.987 C 539.031 710.217, 540.981 716.113, 545.888 723.706 C 548.866 728.313, 552.009 731.338, 559.055 736.379 C 567.783 742.622, 571 744.166, 571 742.110 C 571 741.620, 566.528 737.097, 561.062 732.058 C 551.502 723.243, 544 713.826, 544 710.640 C 544 708.630, 542.734 707.928, 541.020 708.987" fill="none" fill-rule="evenodd" stroke="none" onclick="fillCarrot(this)" />
    <path id="belly" class="region" d="M 348.930 732.160 C 343.896 733.505, 334.718 741.019, 329.571 748.011 C 325.819 753.108, 320.983 764.082, 321.008 767.444 C 321.012 768.025, 322.699 769.468, 324.758 770.651 C 331.041 774.263, 344.790 787.820, 352.516 798.021 C 361.184 809.467, 369.112 821.442, 370.935 825.843 C 371.654 827.579, 372.665 829, 373.180 829 C 373.696 829, 373.863 828.587, 373.551 828.082 C 372.476 826.343, 375.038 812.710, 378.149 803.616 C 381.099 794.992, 390.980 774.287, 397.233 763.629 C 398.805 760.950, 399.958 758.626, 399.795 758.466 C 399.633 758.305, 396.125 756.824, 392 755.174 C 379.240 750.070, 368.087 743.476, 358.392 735.305 C 355.583 732.937, 353.108 731.047, 352.892 731.103 C 352.676 731.160, 350.893 731.636, 348.930 732.160" fill="none" fill-rule="evenodd" stroke="none" onclick="fillRegion(this)" />
    <path id="carrot_line9" class="region carrot-line" d="M 511.200 741.200 C 509.458 742.942, 509.726 746.548, 511.913 750.790 C 514.311 755.441, 516.779 758.064, 522.387 761.922 C 524.817 763.594, 527.713 766.208, 528.821 767.729 C 529.930 769.251, 531.159 770.174, 531.553 769.780 C 533.033 768.301, 529.678 763.133, 522.944 756.516 C 517.970 751.629, 515.652 748.510, 514.823 745.588 C 513.375 740.484, 512.715 739.685, 511.200 741.200" fill="none" fill-rule="evenodd" stroke="none" onclick="fillCarrot(this)" />
    <path id="carrot_white" class="region" d="M 616.557 749.908 C 614.483 753.264, 570.199 784.808, 549.500 797.675 C 512.572 820.630, 487.198 833.514, 455.088 845.616 C 422.949 857.728, 399.973 860.189, 387.193 852.889 C 385.374 851.850, 383.756 851, 383.598 851 C 383.440 851, 384.105 853.362, 385.075 856.250 C 392.629 878.723, 394.189 897.929, 389.562 911.500 C 388.249 915.350, 387.362 918.689, 387.590 918.920 C 387.819 919.150, 391.717 918.563, 396.253 917.613 C 401.530 916.509, 408.574 913.910, 415.814 910.398 C 424.939 905.971, 428.378 903.659, 433.583 898.454 C 441.523 890.514, 444.305 890.123, 444.448 896.929 C 444.497 899.265, 445.171 899.561, 456.201 902.091 C 484.023 908.471, 516.768 910.028, 542 906.170 C 549.425 905.035, 557.833 903.399, 560.685 902.534 C 565.119 901.189, 565.917 900.565, 566.185 898.230 C 566.427 896.133, 567.105 895.430, 569.107 895.197 C 571.211 894.953, 571.962 895.493, 572.999 897.997 C 574.507 901.639, 580.186 905.766, 590.256 910.536 C 598.098 914.251, 611.332 918, 616.607 918 L 619.895 918 616.754 911.287 C 613.959 905.316, 613.565 903.340, 613.185 893.396 C 612.946 887.173, 613.280 879.178, 613.937 875.359 C 617.833 852.726, 630.056 826.405, 647.441 803.216 C 654.882 793.290, 671.153 776.511, 678.705 770.976 C 683.395 767.538, 683.395 767.605, 678.628 758.312 C 673.975 749.241, 674.285 749.413, 666.914 751.837 C 651.310 756.967, 638.119 756.834, 624.422 751.408 C 617.573 748.695, 617.335 748.650, 616.557 749.908" fill="none" fill-rule="evenodd" stroke="none" onclick="fillRegion(this)" />
    <path id="carrot_line10" class="region carrot-line" d="M 477.032 763.750 C 477.084 764.993, 481.827 770, 482.952 770 C 483.528 770, 484 768.864, 484 767.475 C 484 765.685, 483.254 764.667, 481.435 763.975 C 478.362 762.807, 476.989 762.737, 477.032 763.750" fill="none" fill-rule="evenodd" stroke="none" onclick="fillCarrot(this)" />
    <path id="foot_right_outer" class="region" d="M 733.794 763.892 C 729.743 764.743, 725.736 767.269, 718.263 773.680 C 714.812 776.640, 712.975 777.603, 711.967 776.980 C 710.806 776.262, 711.139 775.257, 713.772 771.521 C 715.547 769.002, 717 766.730, 717 766.471 C 717 766.212, 715.087 766.011, 712.750 766.024 C 702.448 766.081, 687.287 775.537, 670.436 792.416 C 643.023 819.873, 622.980 860.440, 622.716 889 C 622.445 918.316, 642.144 932.991, 673.043 926.491 C 698.385 921.160, 722.962 907.108, 744.322 885.736 C 757.930 872.122, 766.741 860.044, 773.522 845.710 C 780.151 831.698, 782.300 822.681, 781.826 810.875 C 781.460 801.771, 781.227 800.848, 778.408 797.366 C 776.744 795.310, 774.931 793.477, 774.379 793.293 C 773.827 793.109, 772.372 795.178, 771.146 797.891 C 769.920 800.605, 768.280 803.353, 767.502 803.998 C 765.197 805.912, 764.039 804.349, 765.085 800.737 C 767.656 791.865, 768.109 784.844, 766.435 779.805 C 762.515 768.003, 747.973 760.913, 733.794 763.892" fill="none" fill-rule="evenodd" stroke="none" onclick="fillRegion(this)" />
    <path id="foot_left_outer" class="region" d="M 266.500 767.224 C 261.808 768.892, 256.135 773.833, 253.712 778.364 C 251.846 781.854, 251.500 784.088, 251.500 792.666 C 251.500 798.257, 251.173 803.159, 250.774 803.558 C 249.537 804.796, 247.065 801.948, 245.846 797.881 C 245.207 795.747, 244.345 794, 243.931 794 C 242.090 794, 238.118 800.339, 236.976 805.100 C 235.218 812.426, 236.326 825.601, 239.574 836 C 254.427 883.555, 308.169 930.143, 348.500 930.427 C 363.179 930.530, 372.264 925.303, 378.137 913.374 C 381.009 907.539, 381.404 905.679, 381.792 896.166 C 382.331 882.909, 380.362 871.652, 375.011 857.407 C 361.356 821.054, 334.153 785.792, 310.634 773.958 C 303.828 770.533, 298 768.926, 298 770.473 C 298 770.734, 298.990 772.984, 300.200 775.474 C 301.884 778.940, 302.124 780.276, 301.225 781.175 C 300.325 782.075, 298.463 780.696, 293.275 775.290 C 288.370 770.178, 285.396 767.923, 282.500 767.120 C 277.580 765.756, 270.501 765.802, 266.500 767.224" fill="none" fill-rule="evenodd" stroke="none" onclick="fillRegion(this)" />
    <path id="foot_left_top" class="region" d="M 444.768 770.189 C 443.249 774.725, 449.404 787.786, 455.990 794 C 462.629 800.264, 471.754 805.646, 473.232 804.168 C 473.856 803.544, 474.172 802.880, 473.933 802.693 C 473.695 802.506, 470.790 800.301, 467.477 797.793 C 456.552 789.521, 449 779.873, 449 774.188 C 449 771.720, 445.396 768.314, 444.768 770.189" fill="none" fill-rule="evenodd" stroke="none" onclick="fillRegion(this)" />
    <path id="foot_right_inner1" class="region" d="M 709.017 787.245 C 699.386 792.397, 693.797 805.961, 699.015 811.516 C 700.269 812.850, 702.857 814.458, 704.768 815.088 C 709.614 816.688, 717.511 816.651, 719.477 815.019 C 722.172 812.783, 725.816 805.818, 726.951 800.736 C 729.571 789.002, 719.664 781.550, 709.017 787.245" fill="none" fill-rule="evenodd" stroke="none" onclick="fillRegion(this)" />
    <path id="foot_left_toe1" class="region" d="M 292.344 790.713 C 286.010 795.962, 284.305 804.868, 288.124 812.756 C 290.670 818.016, 293.492 819.336, 300.918 818.742 C 307.991 818.175, 312 814.217, 312 807.800 C 312 795.886, 299.360 784.898, 292.344 790.713" fill="none" fill-rule="evenodd" stroke="none" onclick="fillRegion(this)" />
    <path id="foot_right_inner2" class="region" d="M 710.389 790.905 C 704.725 794.358, 701.117 801.345, 702.386 806.400 C 703.350 810.241, 711.172 812.246, 716.221 809.945 C 722.882 806.910, 725.477 795.094, 720.365 791.073 C 717.097 788.502, 714.404 788.457, 710.389 790.905" fill="none" fill-rule="evenodd" stroke="none" onclick="fillRegion(this)" />
    <path id="foot_left_toe2" class="region" d="M 295.302 793.012 C 292.257 794.238, 290 799.061, 290 804.345 C 290 813.156, 298.815 818.080, 305.365 812.927 C 308.542 810.429, 308.726 807.195, 306.030 801.256 C 304.119 797.047, 299.824 791.942, 298.295 792.063 C 297.858 792.098, 296.511 792.525, 295.302 793.012" fill="none" fill-rule="evenodd" stroke="none" onclick="fillRegion(this)" />
    <path id="foot_left_inner" class="region" d="M 407 793.723 C 407 794.121, 409.635 796.954, 412.856 800.019 C 416.077 803.084, 419.495 807.240, 420.450 809.254 C 422.535 813.647, 433.633 826, 435.495 826 C 437.886 826, 435.957 822.382, 430.918 817.419 C 427.691 814.241, 426 811.735, 426 810.132 C 426 808.788, 424.847 806.178, 423.439 804.331 C 418.843 798.306, 407 790.664, 407 793.723" fill="none" fill-rule="evenodd" stroke="none" onclick="fillRegion(this)" />
    <path id="foot_left_toe3" class="region" d="M 255.106 809.901 C 252.293 812.529, 252 813.374, 252 818.854 C 252 825.609, 253.082 828.766, 257.263 834.215 C 266.545 846.314, 282.196 831.753, 275.370 817.368 C 274.474 815.479, 271.918 812.374, 269.690 810.467 C 264.368 805.912, 259.576 805.726, 255.106 809.901" fill="none" fill-rule="evenodd" stroke="none" onclick="fillRegion(this)" />
    <path id="foot_right_toe1" class="region" d="M 745.619 809.024 C 741.659 810.224, 738.246 813.629, 735.401 819.217 C 732.368 825.175, 732.388 827.281, 735.531 832.644 C 738.544 837.784, 740.524 839, 745.887 839 C 751.650 839, 754.594 837.311, 757.930 832.090 C 763.464 823.432, 764.350 813.851, 759.748 812.448 C 758.511 812.072, 756.825 811.192, 756 810.493 C 753.872 808.691, 748.996 808.001, 745.619 809.024" fill="none" fill-rule="evenodd" stroke="none" onclick="fillRegion(this)" />
    <path id="foot_left_toe4" class="region" d="M 256.557 813.223 C 253.647 817.377, 255.410 825.294, 260.475 830.822 C 263.464 834.083, 264.091 834.354, 266.600 833.472 C 268.137 832.931, 270.254 831.018, 271.304 829.220 C 274.013 824.580, 272.916 819.916, 267.944 814.944 C 263.294 810.294, 259.056 809.654, 256.557 813.223" fill="none" fill-rule="evenodd" stroke="none" onclick="fillRegion(this)" />
    <path id="lap" class="region" d="M 599.500 812 C 599.840 812.550, 600.793 813, 601.618 813 C 602.443 813, 602.840 812.550, 602.500 812 C 602.160 811.450, 601.207 811, 600.382 811 C 599.557 811, 599.160 811.450, 599.500 812" fill="none" fill-rule="evenodd" stroke="none" onclick="fillRegion(this)" />
    <path id="foot_right_toe2" class="region" d="M 743.070 815.556 C 738.205 819.951, 737.177 823.849, 739.516 829.036 C 741.887 834.293, 745.798 835.888, 750.116 833.359 C 755.042 830.475, 757.274 826.746, 757.788 820.542 L 758.248 815.001 754.656 813.501 C 749.346 811.282, 747.423 811.623, 743.070 815.556" fill="none" fill-rule="evenodd" stroke="none" onclick="fillRegion(this)" />
    <path id="foot_right_inner3" class="region" d="M 695.363 835.988 C 689.692 837.179, 680.566 841.940, 674.172 847.042 C 659.297 858.913, 650.415 879.596, 654.362 893.174 C 657.409 903.653, 663.411 907.939, 675.093 907.978 C 686.435 908.016, 698.446 902.546, 710.293 891.946 C 731.140 873.295, 733.357 847.462, 714.926 837.978 C 710.627 835.766, 701.055 834.792, 695.363 835.988" fill="none" fill-rule="evenodd" stroke="none" onclick="fillRegion(this)" />
    <path id="foot_left_oval" class="region" d="M 297.500 837.893 C 282.726 841.695, 276.798 854.775, 281.962 872.176 C 284.638 881.192, 297.099 895.876, 308.121 903 C 320.404 910.939, 332.702 912.743, 342.431 908.033 C 349.216 904.749, 351.500 899.684, 351.500 887.925 C 351.500 878.622, 351.375 878.096, 347.106 869.483 C 340.439 856.027, 327.487 843.906, 315.112 839.539 C 310.025 837.745, 301.260 836.926, 297.500 837.893" fill="none" fill-rule="evenodd" stroke="none" onclick="fillRegion(this)" />
    <path id="foot_right_toe3" class="region" d="M 691.500 841.774 C 684.533 844.338, 680.639 846.947, 673.555 853.795 C 656.321 870.458, 652.803 896.703, 667.039 902.399 C 684.199 909.265, 713.153 891.065, 721.117 868.408 C 725.059 857.190, 722.040 846.658, 713.636 842.312 C 708.967 839.897, 697.364 839.615, 691.500 841.774" fill="none" fill-rule="evenodd" stroke="none" onclick="fillRegion(this)" />
    <path id="foot_right_oval" class="region" d="M 294.459 843.826 C 283.490 848.954, 281.110 860.089, 287.935 874.344 C 298.722 896.874, 326.523 912.638, 340.373 904.079 C 361.505 891.018, 334.432 843.600, 305.066 842.241 C 300.226 842.016, 297.438 842.433, 294.459 843.826" fill="none" fill-rule="evenodd" stroke="none" onclick="fillRegion(this)" />
</g>

<g id="outlines" fill="none" stroke="#111111" stroke-width="3" stroke-linejoin="round" stroke-linecap="round" pointer-events="none">
    <path d="M 665.075 40.087 C 630.143 46.941, 594.724 80.279, 570.611 129 C 562.792 144.799, 559.027 153.892, 553.635 170 C 547.307 188.906, 539.631 219.739, 538.534 230.659 L 537.827 237.704 527.163 238.329 C 521.299 238.673, 510.650 240.087, 503.500 241.471 C 496.350 242.856, 490.335 243.992, 490.134 243.995 C 489.932 243.998, 491.395 242.199, 493.384 239.997 C 497.569 235.364, 497.945 232.237, 494.686 229.174 C 488.605 223.462, 461.166 229.658, 445.553 240.270 C 441.896 242.755, 441.474 242.834, 439.825 241.342 C 437.282 239.041, 431.556 240.219, 426.832 244.015 L 422.990 247.103 421.995 244.486 C 421.448 243.047, 421 241.261, 421 240.516 C 421 235.716, 407.410 197.196, 399.436 179.396 C 382.223 140.969, 356.585 103.181, 334.035 83 C 318.210 68.838, 297.011 56.270, 282.500 52.446 C 273.080 49.965, 257.692 49.441, 250.265 51.349 C 220.048 59.113, 200.996 90.502, 201.012 132.500 C 201.036 195.100, 234.742 262.292, 291.673 313.231 L 303.847 324.123 299.544 330.312 C 283.283 353.700, 270.131 381.841, 263.136 408.219 C 257.021 431.279, 253.194 462.070, 254.265 479.599 L 254.760 487.699 248.612 488.831 C 238.298 490.732, 231.500 493.419, 231.500 495.595 C 231.500 497.382, 232.246 497.478, 243.516 497.152 L 255.532 496.804 257.410 506.152 C 258.444 511.293, 259.917 517.294, 260.684 519.487 C 261.811 522.708, 261.831 523.554, 260.789 523.893 C 257.206 525.057, 241.750 533.716, 236.254 537.638 C 230.453 541.778, 228.799 544.139, 230.824 545.391 C 231.276 545.671, 238.356 543.205, 246.557 539.910 C 254.757 536.616, 262.387 533.690, 263.512 533.408 C 265.229 532.977, 266.263 534.216, 269.940 541.118 C 275.700 551.928, 287.129 566.995, 295.674 575.044 C 312.845 591.217, 322.399 597.235, 353.283 611.332 L 358.066 613.515 353.470 620.008 C 337.568 642.472, 329.287 669.539, 332.109 689.831 C 333.527 700.025, 336.274 708.416, 340.481 715.400 C 342.435 718.644, 343.914 721.379, 343.767 721.477 C 343.620 721.575, 341.959 722.270, 340.076 723.021 C 335.323 724.917, 324.799 733.598, 320.698 739.006 C 316.266 744.850, 312.346 752.638, 311.461 757.358 C 310.785 760.957, 310.634 761.077, 307.629 760.374 C 305.908 759.972, 301.800 759.596, 298.500 759.538 C 295.200 759.481, 289.415 758.436, 285.645 757.217 C 276.983 754.416, 269.695 754.394, 262.338 757.146 C 252.965 760.653, 244.044 770.511, 241.657 780 C 241.311 781.375, 239.697 783.420, 238.069 784.543 C 233.168 787.927, 229.400 793.535, 226.990 801.031 C 222.873 813.834, 225.384 833.672, 233.441 852 C 243.915 875.826, 262.333 898.738, 285 916.139 C 307.683 933.552, 328.140 941.572, 349.500 941.424 C 361.457 941.341, 369.191 939.337, 375.355 934.723 C 377.683 932.980, 380.878 932.060, 387.659 931.178 C 405.002 928.924, 424.603 921.712, 434.913 913.790 L 439.326 910.400 447.768 912.654 C 470.726 918.785, 506.242 922.132, 527.785 920.194 C 541.148 918.993, 556.025 916.666, 564.475 914.456 C 569.464 913.151, 569.547 913.169, 576 916.875 C 590.654 925.291, 606.515 930, 620.203 930 C 626.082 930, 628.332 930.541, 634.366 933.404 C 644.254 938.097, 651.753 939.388, 665.289 938.731 C 678.800 938.075, 689.975 935.049, 704.500 928.112 C 729.247 916.293, 752.468 897.339, 768.954 875.500 C 777.780 863.808, 787.365 844.543, 790.596 832.004 C 792.875 823.157, 793.184 820.252, 792.791 811.412 C 792.389 802.366, 791.945 800.331, 789.125 794.602 C 787.293 790.881, 784.217 786.630, 781.958 784.696 C 779.781 782.833, 778 780.636, 778 779.814 C 778 776.402, 771.618 765.842, 767.103 761.782 C 762.057 757.246, 753.190 753.487, 744.939 752.388 C 740.046 751.736, 731.062 753.218, 726.938 755.357 C 725.452 756.128, 723.603 756.354, 722.454 755.905 C 716.834 753.706, 705.375 755.189, 694.809 759.481 C 693.492 760.017, 692.524 758.991, 690.424 754.834 C 688.942 751.900, 686.887 748.422, 685.856 747.104 L 683.982 744.707 687.987 741.279 C 699.245 731.643, 705.923 722.601, 709.752 711.813 C 711.943 705.639, 712.359 702.709, 712.424 693 C 712.505 680.740, 710.792 673.480, 705.698 664.500 L 703.429 660.500 705.735 655.713 C 708.558 649.851, 710.965 639.981, 710.985 634.183 C 711.003 628.895, 710.249 628.757, 729.500 637.573 C 746.381 645.305, 757.716 648.814, 768.461 649.636 C 785.824 650.965, 799.550 644.453, 804.583 632.500 C 808.254 623.783, 805.588 608.626, 799.653 604.470 C 797.573 603.013, 797.573 603, 799.589 603 C 803.396 603, 817.099 598.951, 823.309 595.991 C 841.604 587.271, 850.126 573.647, 846.948 558.199 C 846.304 555.065, 845.317 551.600, 844.756 550.500 C 842.668 546.408, 836.731 539.911, 832.280 536.848 C 827.153 533.321, 814.682 529, 809.629 529 C 805.221 529, 804.687 528.214, 807.051 525.209 C 812.152 518.724, 813.050 505.958, 808.966 498 C 806.757 493.696, 800.681 487.816, 796.008 485.459 C 788.746 481.797, 773.054 482.622, 765.250 487.077 L 762 488.933 762 486.588 C 762 479.750, 753.652 469.402, 746.384 467.230 C 741.578 465.794, 732.802 465.623, 728.421 466.879 L 725.355 467.759 723.666 453.129 C 721.005 430.067, 712.607 400.693, 702.187 378 C 693.497 359.072, 678.230 333.965, 667.024 320.173 C 661.370 313.214, 661.349 313.781, 667.500 307.474 C 674.513 300.283, 684.271 288.765, 692.045 278.500 C 728.828 229.934, 746.923 182.949, 746.982 135.849 C 747.045 85.416, 726.110 49.598, 691.298 40.577 C 684.803 38.894, 672.343 38.661, 665.075 40.087" />
    <path d="M 666.509 52.661 C 644.200 57.440, 621.747 74.234, 601.882 101 C 580.188 130.229, 562.467 173.882, 552.370 222.970 C 550.500 232.061, 548.694 242.650, 548.357 246.500 L 547.745 253.500 553.623 253.500 C 559.218 253.500, 559.500 253.619, 559.500 255.989 C 559.500 258.232, 558.882 258.612, 553.250 259.826 C 547.372 261.093, 547 261.342, 547 264.005 C 547 270.361, 544.856 271.604, 540.989 267.489 C 539.692 266.108, 536.801 264.502, 534.565 263.921 C 532.329 263.341, 528.813 262.428, 526.750 261.894 C 524.684 261.359, 523 260.300, 523 259.535 C 523 258.771, 525.231 256.426, 527.957 254.323 C 530.684 252.220, 532.934 250.105, 532.957 249.621 C 533.014 248.464, 527.376 249.192, 497.716 254.171 C 480.390 257.080, 472.616 258.016, 471.881 257.281 C 470.500 255.900, 472.953 251.029, 478.221 244.692 C 480.419 242.047, 481.959 239.626, 481.645 239.311 C 481.330 238.996, 478.018 239.489, 474.286 240.406 C 465.480 242.569, 448.419 251.006, 440.075 257.324 C 431.876 263.533, 430.598 263.700, 430.182 258.618 L 429.864 254.737 427.397 258.366 C 426.041 260.363, 424.058 264.031, 422.992 266.519 C 419.902 273.728, 415.652 273.543, 414.469 266.150 C 412.125 251.489, 402.991 220.443, 394.703 198.971 C 388.186 182.084, 376.473 158.807, 365.885 141.701 C 345.608 108.941, 319.420 82.743, 294.481 70.271 C 282.680 64.369, 275.451 62.529, 264 62.514 C 254.218 62.501, 253.032 62.722, 246.653 65.743 C 235.037 71.244, 227.910 78.351, 221.683 90.640 C 215.957 101.938, 212.358 123.949, 213.447 141 C 216.904 195.131, 242.029 246.264, 287.418 291.539 C 296.813 300.910, 307.988 311.433, 312.250 314.923 C 317.127 318.917, 320 321.996, 320 323.231 C 320 324.310, 318.153 327.287, 315.895 329.847 C 305.387 341.758, 291.546 365.923, 283.558 386.301 C 272.390 414.793, 268.067 436.098, 267.276 466.550 L 266.729 487.599 274.238 488.767 C 278.369 489.409, 284.167 490.737, 287.124 491.717 C 291.716 493.240, 292.500 493.864, 292.500 496 C 292.500 498.264, 292.122 498.492, 288.500 498.419 C 286.300 498.374, 280.786 497.972, 276.246 497.525 L 267.992 496.712 268.588 500.106 C 268.915 501.973, 269.869 506.200, 270.708 509.500 C 271.546 512.800, 272.456 516.504, 272.729 517.732 C 273.209 519.888, 273.585 519.955, 283.863 519.732 L 294.500 519.500 294.500 522 C 294.500 524.284, 293.851 524.657, 287 526.310 C 282.875 527.305, 279.109 528.507, 278.631 528.979 C 276.687 530.901, 289.532 550.388, 299.995 561.392 C 320.067 582.499, 342.730 595.487, 379.528 606.971 C 386.662 609.198, 395.875 611.716, 400 612.567 C 408.255 614.269, 409.583 615.039, 408.615 617.560 C 408.036 619.070, 406.792 619.179, 397.232 618.556 C 391.330 618.172, 383.483 617.289, 379.796 616.594 L 373.092 615.331 369.164 619.415 C 359.870 629.080, 349.461 648.779, 345.984 663.283 C 343.648 673.027, 343.459 684.783, 345.485 694.347 C 350.463 717.838, 375.756 738.969, 410.500 748.661 C 417.554 750.628, 422.744 751.288, 434.500 751.710 C 450.922 752.299, 457.316 751.288, 467.963 746.415 L 473.427 743.915 470.463 741.525 C 468.004 739.541, 467.688 738.826, 468.607 737.317 C 470.152 734.782, 472.529 734.549, 476.693 736.524 C 485.917 740.902, 498.480 732.036, 500.294 719.869 C 500.813 716.392, 500.667 716.172, 496.835 714.667 C 492.058 712.791, 491.909 710.028, 496.510 708.637 C 504.852 706.114, 509 700.799, 509 692.630 C 509 680.600, 499.821 670.272, 484.420 664.972 C 477.277 662.514, 458.409 659.012, 452.075 658.969 C 443.258 658.908, 426.398 655.340, 419.158 652.003 C 411.783 648.604, 407.332 644.890, 408.454 643.074 C 409.505 641.374, 412.325 641.802, 418.405 644.585 C 423.558 646.944, 425.744 647.247, 443.420 648.046 C 460.794 648.832, 465.437 649.303, 478.005 651.554 C 481.420 652.166, 481.816 651.870, 493.505 639.982 C 525.981 606.951, 564.885 575.949, 590.133 562.981 C 613.501 550.977, 632.898 547.575, 649.642 552.541 C 651.770 553.173, 651.788 553.046, 652.216 533.838 C 652.596 516.770, 652.920 513.737, 654.979 508 C 657.752 500.273, 660.511 495.688, 665.109 491.164 C 670.216 486.140, 673.783 484.607, 680.500 484.551 C 688.529 484.483, 691.323 485.394, 695.971 489.592 L 699.891 493.134 701.987 489.026 C 703.140 486.766, 705.864 483.136, 708.041 480.959 C 711.474 477.526, 712.974 475, 711.581 475 C 711.350 475, 708.369 475.715, 704.956 476.590 C 699.285 478.043, 698.614 478.043, 697.161 476.590 C 695.738 475.166, 695.731 474.841, 697.094 473.477 C 697.931 472.640, 701.740 470.951, 705.558 469.724 L 712.500 467.492 712.190 460.996 C 711.581 448.234, 707.196 426.984, 701.668 410 C 691.212 377.875, 667.614 336.492, 650.088 319.547 C 647.840 317.373, 646 314.659, 646 313.516 C 646 312.292, 648.505 308.983, 652.091 305.469 C 659.044 298.655, 673.186 282.589, 680.671 273 C 707.553 238.563, 725.344 201.396, 732.202 165.350 C 735.396 148.560, 735.432 119.782, 732.275 106.328 C 725.546 77.650, 710.490 58.668, 690.020 53.052 C 681.338 50.670, 676.199 50.585, 666.509 52.661" />
    <path d="M 670.487 103.799 C 662.137 106.686, 656.874 110.389, 647.920 119.678 C 630.959 137.272, 617.108 160.560, 602.228 196.500 C 592.286 220.513, 582.686 252.967, 581.367 267.026 C 580.864 272.381, 581.051 273.797, 582.407 274.923 C 583.784 276.065, 584.513 276.075, 586.780 274.978 C 588.276 274.255, 590.175 273.718, 591 273.786 C 591.942 273.864, 593.940 270.903, 596.374 265.820 C 600.952 256.262, 605.382 251.033, 611.079 248.464 C 615.160 246.624, 615.254 246.626, 616.700 248.546 C 619.737 252.579, 615.354 268.650, 609.021 276.701 C 607.504 278.629, 607.243 279.634, 608.054 280.421 C 609.757 282.075, 617.490 272.979, 619.933 266.450 C 625.995 250.246, 621.442 239.454, 609.991 242.884 C 605.328 244.282, 599.622 249.052, 595.500 255.001 C 593.961 257.220, 592.527 258.860, 592.312 258.646 C 591.806 258.139, 596.369 241.155, 600.278 229 C 606.535 209.542, 618.292 182.148, 628.937 162.224 C 641.246 139.186, 657.862 119.819, 670.416 113.880 C 677.646 110.459, 678.867 110.382, 684.026 113.013 C 701.754 122.057, 694.976 175.307, 670.281 221 C 656.921 245.721, 633.259 274.014, 617 284.710 C 610.479 289, 609.833 289.820, 611.105 292.196 C 612.553 294.903, 615.069 294.407, 621.595 290.129 C 655.041 268.205, 688.865 215.286, 699.017 169 C 704.745 142.883, 703.609 123.907, 695.624 112.320 C 691.878 106.884, 683.778 101.979, 678.636 102.033 C 676.911 102.051, 673.244 102.845, 670.487 103.799" />
    <path d="M 261.120 116.710 C 247.247 123.545, 244.614 150.646, 254.583 184 C 258.482 197.046, 259.812 200.418, 267.003 215.500 C 278.878 240.403, 296.745 263.969, 316.856 281.250 C 328.649 291.384, 338.909 298.268, 346.616 301.217 C 352.668 303.533, 355.292 303.071, 354.820 299.771 C 354.591 298.169, 352.653 296.567, 348 294.130 C 337.460 288.610, 324.151 277.952, 311.795 265.136 C 289.086 241.583, 273.890 216.669, 264.099 186.941 C 259.470 172.883, 257.927 164.805, 257.330 151.500 C 256.850 140.788, 257.027 138.878, 258.984 133.707 C 262.667 123.972, 266.677 121.683, 275.175 124.462 C 284.897 127.642, 298.300 138.365, 308.822 151.381 C 327.288 174.224, 343.747 201.876, 357.699 233.500 C 363.304 246.202, 369.049 262, 368.065 262 C 367.650 262, 366.461 261.062, 365.423 259.915 C 362.226 256.382, 354.694 251.331, 350.697 250.039 C 346.261 248.605, 342.743 249.257, 339.975 252.025 C 337.449 254.551, 337.295 263.153, 339.666 269.230 C 343.114 278.068, 353.335 290.147, 355.981 288.512 C 356.497 288.193, 354.742 284.910, 352.080 281.216 C 347.021 274.195, 343 264.872, 343 260.162 C 343 248.802, 360.142 258.051, 367.719 273.500 C 369.575 277.284, 370.890 278.872, 371.860 278.500 C 372.641 278.201, 373.918 278.865, 374.697 279.978 C 376.409 282.422, 380.813 282.652, 381.699 280.342 C 384.258 273.674, 367.900 230.326, 350.859 198.617 C 335.605 170.232, 322.108 150.893, 307.101 135.921 C 296.455 125.299, 290.275 120.715, 282.024 117.320 C 275.286 114.548, 266.056 114.279, 261.120 116.710" />
    <path d="M 595.223 363.557 C 592.979 365.128, 592.306 367.453, 593.823 368.391 C 594.276 368.670, 597.369 369.338, 600.698 369.874 C 609.962 371.366, 619.727 376.778, 626.342 384.088 C 630.959 389.190, 632.207 390.073, 633.402 389.082 C 636.899 386.179, 629.658 375.011, 620.067 368.515 C 610.944 362.335, 600.066 360.164, 595.223 363.557" />
    <path d="M 376.500 367.015 C 366.478 370.865, 360.100 375.859, 354.873 383.946 C 351.913 388.526, 351.029 394, 353.250 393.999 C 353.938 393.999, 357.052 391.145, 360.170 387.658 C 366.978 380.045, 377.361 374.380, 386.613 373.231 C 391.963 372.567, 392.527 372.266, 392.799 369.933 C 393.373 364.995, 385.449 363.576, 376.500 367.015" />
    <path d="M 586.657 413.930 C 567.149 421.774, 556.243 444.474, 561.470 466.356 C 565.734 484.206, 579.605 497.287, 596.669 499.551 C 611.485 501.516, 629.128 492.367, 636.445 478.924 C 641.675 469.315, 643.446 455.986, 640.939 445.112 C 638.087 432.740, 628.180 420.246, 617.295 415.293 C 609.340 411.673, 593.969 410.990, 586.657 413.930" />
    <path d="M 381.456 416.934 C 376.422 418.140, 366.513 423.889, 362.702 427.815 C 351.464 439.393, 346.567 457.238, 350.492 472.307 C 354.897 489.219, 366.026 500.225, 382.141 503.606 C 402.388 507.854, 422.290 497.019, 429.428 477.864 C 434.625 463.915, 432.653 446.304, 424.552 434.330 C 420.164 427.844, 411.694 421.162, 404.233 418.302 C 398.323 416.035, 387.835 415.406, 381.456 416.934" />
    <path d="M 591.352 424.061 C 586.510 425.512, 582 431.250, 582 435.958 C 582 442.452, 589.029 449, 596 449 C 602.628 449, 609 443.281, 609 437.333 C 609 427.451, 600.749 421.246, 591.352 424.061" />
    <path d="M 388.615 430.088 C 382.899 434.585, 381.671 440.474, 385.063 447.124 C 391.152 459.058, 409.469 455.584, 410.750 442.251 C 411.152 438.065, 410.846 436.970, 408.488 434.169 C 406.989 432.386, 404.488 430.269, 402.931 429.464 C 398.718 427.286, 391.794 427.588, 388.615 430.088" />
    <path d="M 604.214 467.182 C 600.542 471.959, 600.234 473.997, 602.829 476.345 C 605.478 478.742, 607.763 478.391, 611.077 475.077 C 614.429 471.725, 614.752 468.481, 612.056 465.250 C 609.389 462.052, 607.869 462.427, 604.214 467.182" />
    <path d="M 396 470.462 C 394.625 471.242, 392.039 472.559, 390.252 473.388 C 385.753 475.477, 384.076 479.321, 386.496 481.996 C 388.638 484.363, 391.855 484.577, 394.559 482.532 C 395.626 481.724, 397.434 481.049, 398.576 481.032 C 401.203 480.992, 405 477.017, 405 474.308 C 405 470.439, 399.890 468.255, 396 470.462" />
    <path d="M 492.121 476.002 C 486.767 477.267, 484.175 479.059, 483.055 482.272 C 481.546 486.600, 483.279 489.428, 491.750 496.470 L 499 502.498 499 507.889 C 499 514.792, 495.799 521.393, 490.632 525.145 C 481.789 531.566, 472.709 529.520, 465.346 519.447 C 463.341 516.705, 463.073 516.614, 461.492 518.139 C 459.167 520.383, 460.310 525.144, 464.251 529.633 C 467.279 533.082, 473.668 537, 476.263 537 C 477.047 537, 478.563 539.969, 479.903 544.131 C 486.154 563.540, 505.150 570.161, 518.759 557.674 C 523.347 553.464, 527.308 546.203, 528.510 539.801 C 529.026 537.050, 529.836 536.100, 532.482 535.143 C 539.532 532.593, 545.471 524.900, 544.809 519.174 C 544.371 515.381, 540.332 514.829, 539.426 518.438 C 538.588 521.777, 533.936 525.639, 528.955 527.132 C 518.511 530.261, 507.448 520.662, 506.904 508 L 506.667 502.500 513.277 495.899 C 520.523 488.663, 522.114 485.093, 519.883 481.069 C 517.516 476.798, 512.550 474.990, 503.500 475.104 C 499.100 475.159, 493.979 475.564, 492.121 476.002" />
    <path d="M 734 476.961 C 724.484 478.813, 713.646 489.013, 707.221 502.164 C 701.209 514.471, 699.062 515.659, 696.958 507.845 C 696.356 505.607, 694.189 501.981, 692.144 499.789 C 684.771 491.884, 674.585 493.988, 668.814 504.608 C 664.313 512.892, 662.718 523.786, 663.164 543.220 C 663.546 559.890, 663.602 560.259, 666.027 562.196 C 667.387 563.283, 669.775 565.296, 671.334 566.669 C 672.893 568.042, 674.293 569.016, 674.445 568.833 C 674.597 568.650, 675.529 565.150, 676.516 561.055 C 679.447 548.896, 685.176 538.651, 693.915 529.936 C 702.121 521.753, 714.659 512.319, 715.796 513.473 C 716.183 513.866, 713.350 516.932, 709.500 520.287 C 692.082 535.464, 687.555 541.948, 681.016 561.081 L 677.371 571.744 681.119 576.122 C 683.493 578.895, 685.192 580.133, 685.754 579.500 C 686.242 578.950, 688.922 575.575, 691.711 572 C 698.628 563.130, 713.845 548.587, 724.600 540.566 C 729.741 536.732, 739.413 531.042, 747.500 527.094 C 770.028 516.095, 774.702 516.450, 753.500 527.549 C 739.828 534.706, 732.903 539.327, 721.811 548.695 C 713.988 555.301, 695.424 574.293, 690.042 581.195 L 687.941 583.890 690.704 587.771 L 693.466 591.651 701.483 586.447 C 723.730 572.006, 754.213 561.847, 776 561.613 C 788.270 561.481, 791.021 563.110, 780.500 564.276 C 753.378 567.283, 727.763 575.949, 704.556 589.966 L 696.095 595.077 698.797 599.550 C 700.651 602.618, 701.970 603.835, 703 603.426 C 707.526 601.628, 725.253 599, 732.853 599 C 745.048 599, 762.146 603.856, 765.907 608.388 C 768.215 611.169, 766.333 611.390, 760.780 608.990 C 751.773 605.096, 745.981 604.024, 733.881 604.012 C 723.925 604.002, 705.495 606.172, 704.155 607.512 C 703.919 607.748, 704.592 610.050, 705.649 612.628 C 707.515 617.173, 707.774 617.370, 714.214 619.134 C 717.866 620.134, 727.099 623.843, 734.733 627.376 C 742.366 630.909, 751.634 634.733, 755.328 635.874 C 778.764 643.113, 796.518 636.162, 794.746 620.442 C 794.054 614.298, 789.586 607.444, 782.986 602.401 C 774.518 595.931, 775.220 594.823, 788.733 593.316 C 819.855 589.846, 836 579.734, 836 563.711 C 836 559.417, 835.398 557.435, 832.992 553.802 C 825.463 542.435, 810.163 537.435, 790.946 540.062 C 778.183 541.806, 778.009 540.910, 789.013 530.120 C 796.531 522.748, 798.036 520.710, 799.409 516.045 C 801.342 509.476, 800.701 504.771, 797.244 500.144 C 790.274 490.815, 773.420 492.055, 757 503.104 C 746.856 509.930, 745.321 509.334, 749 500 C 754.755 485.398, 747.546 474.325, 734 476.961" />
    <path d="M 492.043 482.448 C 490.066 484.830, 495.167 486.318, 502.737 485.566 C 510.132 484.832, 512.216 484.149, 511.711 482.627 C 511.481 481.932, 507.885 481.391, 502.321 481.214 C 495.221 480.990, 493.036 481.252, 492.043 482.448" />
    <path d="M 503.005 527.917 C 503.002 529.246, 502.749 530.082, 502.442 529.775 C 502.134 529.468, 499.348 530.743, 496.250 532.608 C 493.152 534.474, 490.141 536.007, 489.559 536.015 C 486.504 536.059, 485.945 537.625, 487.575 541.573 C 491.479 551.027, 497.356 555.558, 504.651 554.736 C 510.261 554.104, 513.321 552.015, 516.442 546.689 C 519.862 540.854, 520.835 536, 518.585 536 C 515.833 536, 509.321 532.234, 506.065 528.761 C 503.066 525.560, 503.009 525.544, 503.005 527.917" />
    <path d="M 619.500 563.890 C 594.952 570.606, 574.148 583.428, 538.500 613.812 C 525.336 625.033, 494 654.784, 494 656.062 C 494 656.559, 496.137 658.067, 498.750 659.413 C 505.943 663.118, 513.273 670.159, 516.774 676.728 C 522.343 687.176, 522.290 696.068, 516.609 704.695 C 514.146 708.434, 513.104 711.364, 512.575 716.036 C 510.621 733.310, 501.275 745.060, 487.086 748.083 C 483.251 748.900, 480.979 750.060, 479.294 752.063 C 472.826 759.750, 460.185 763.194, 438 763.313 C 428.210 763.366, 420.894 762.930, 418.142 762.131 C 413.033 760.647, 413.828 759.889, 404.708 774.941 C 392.778 794.629, 385 814.805, 385 826.061 C 385 847.028, 401.931 850.984, 439.777 838.860 C 456.847 833.393, 494.036 816.778, 510 807.488 C 513.025 805.727, 520 801.686, 525.500 798.508 C 551.036 783.750, 585.205 760.546, 603.299 745.676 C 608.097 741.733, 608.097 741.732, 606.153 739.616 C 602.741 735.903, 598 727.682, 598 725.479 C 598 724.307, 596.815 722.258, 595.368 720.924 C 593.920 719.591, 591.674 716.250, 590.377 713.500 C 584.047 700.076, 590.704 681.243, 604.871 672.499 C 609.920 669.382, 610.743 668.412, 611.854 664.258 C 613.565 657.860, 619.990 651.736, 627.463 649.380 C 632.145 647.904, 634.026 647.795, 639.266 648.694 C 645.387 649.744, 645.554 649.712, 648.500 646.932 C 656.277 639.594, 667.176 639.276, 677.061 646.099 C 678.470 647.071, 680.945 648.186, 682.561 648.575 C 684.177 648.965, 687.231 650.151, 689.347 651.212 C 691.463 652.272, 693.471 652.862, 693.810 652.524 C 695.669 650.664, 698.192 641.514, 698.699 634.787 C 699.856 619.447, 693.273 605.531, 674.513 583.661 C 667.279 575.227, 656.572 567.427, 648.283 564.551 C 640.689 561.916, 627.797 561.620, 619.500 563.890" />
    <path d="M 609 583.272 C 609 587.305, 612.585 598.617, 615.370 603.369 C 621.827 614.387, 636.999 628.982, 640.571 627.611 C 642.881 626.725, 642.250 625.813, 634.751 619.208 C 631.039 615.938, 626.149 610.937, 623.885 608.094 C 620.083 603.318, 611.016 585.126, 611.005 582.250 C 611.002 581.563, 610.550 581, 610 581 C 609.450 581, 609 582.022, 609 583.272" />
    <path d="M 657.676 591.658 C 655.105 594.228, 658.951 604.215, 663.006 605.502 C 666.317 606.553, 666.450 605.456, 663.484 601.568 C 661.989 599.608, 660.223 596.424, 659.559 594.493 C 658.895 592.562, 658.047 591.286, 657.676 591.658" />
    <path d="M 566.010 603.199 C 566.015 603.915, 567.183 606.975, 568.606 610 C 570.028 613.025, 572.466 618.779, 574.023 622.788 C 575.580 626.796, 578.027 632.077, 579.461 634.524 C 582.526 639.754, 591.486 649, 593.489 649 C 596.635 649, 595.913 646.675, 591.584 642.865 C 585.565 637.567, 580.686 629.076, 578.389 619.903 C 577.369 615.831, 575.636 611.237, 574.538 609.693 C 571.891 605.975, 565.997 601.486, 566.010 603.199" />
    <path d="M 663 612.829 C 663 616.251, 676.166 630.752, 681.465 633.166 C 686.210 635.328, 685.475 632.900, 679.905 628.014 C 676.854 625.337, 672.422 620.639, 670.057 617.574 C 666.246 612.634, 663 610.452, 663 612.829" />
    <path d="M 478 619.500 C 478 620.417, 478.484 621.005, 479.075 620.808 C 479.666 620.611, 480.150 620.023, 480.150 619.500 C 480.150 618.977, 479.666 618.389, 479.075 618.192 C 478.484 617.995, 478 618.583, 478 619.500" />
    <path d="M 541.531 641.949 C 539.099 645.886, 561.620 675.340, 568.666 677.437 C 573.604 678.907, 571.945 675.503, 563.872 667.603 C 559.267 663.097, 552.916 655.521, 549.757 650.769 C 543.685 641.631, 542.508 640.369, 541.531 641.949" />
    <path d="M 658.364 653.170 C 655.068 654.766, 653.641 658.720, 655.095 662.230 C 656.106 664.669, 656.035 665.394, 654.652 666.777 C 653.124 668.304, 652.692 668.114, 648.636 664.134 C 643.901 659.487, 639.337 658.151, 632.542 659.426 C 627.796 660.317, 622.293 665.278, 621.047 669.792 C 620.194 672.881, 620.339 673.732, 622.023 675.524 C 626.396 680.179, 622.620 684.185, 615.938 681.980 C 612.567 680.867, 611.803 680.959, 608.755 682.842 C 604.797 685.288, 600.373 692.818, 599.430 698.710 C 598.615 703.808, 601.090 711.797, 604.467 714.969 C 605.788 716.210, 608.361 717.529, 610.185 717.900 C 614.499 718.777, 615.408 722.430, 611.554 723.397 C 610.149 723.750, 609 724.499, 609 725.062 C 609 727.223, 618.180 735.763, 623.219 738.289 C 630.163 741.770, 639.077 744, 646.050 744 C 653.617 744, 665.762 740.777, 673.276 736.775 C 681.252 732.526, 692.029 721.630, 695.883 713.918 C 703.566 698.542, 702.343 681.033, 692.620 667.208 C 690.018 663.509, 684.550 659, 682.666 659 C 682.337 659, 683.008 661.456, 684.157 664.459 C 686.300 670.058, 686.131 673, 683.666 673 C 682.898 673, 680.218 669.468, 677.710 665.152 C 670.751 653.175, 665.311 649.806, 658.364 653.170" />
    <path d="M 524 653.901 C 524 654.397, 525.688 655.852, 527.750 657.135 C 533.162 660.502, 533.215 660.486, 529.623 656.565 C 526.504 653.159, 524 651.973, 524 653.901" />
    <path d="M 541.020 708.987 C 539.031 710.217, 540.981 716.113, 545.888 723.706 C 548.866 728.313, 552.009 731.338, 559.055 736.379 C 567.783 742.622, 571 744.166, 571 742.110 C 571 741.620, 566.528 737.097, 561.062 732.058 C 551.502 723.243, 544 713.826, 544 710.640 C 544 708.630, 542.734 707.928, 541.020 708.987" />
    <path d="M 348.930 732.160 C 343.896 733.505, 334.718 741.019, 329.571 748.011 C 325.819 753.108, 320.983 764.082, 321.008 767.444 C 321.012 768.025, 322.699 769.468, 324.758 770.651 C 331.041 774.263, 344.790 787.820, 352.516 798.021 C 361.184 809.467, 369.112 821.442, 370.935 825.843 C 371.654 827.579, 372.665 829, 373.180 829 C 373.696 829, 373.863 828.587, 373.551 828.082 C 372.476 826.343, 375.038 812.710, 378.149 803.616 C 381.099 794.992, 390.980 774.287, 397.233 763.629 C 398.805 760.950, 399.958 758.626, 399.795 758.466 C 399.633 758.305, 396.125 756.824, 392 755.174 C 379.240 750.070, 368.087 743.476, 358.392 735.305 C 355.583 732.937, 353.108 731.047, 352.892 731.103 C 352.676 731.160, 350.893 731.636, 348.930 732.160" />
    <path d="M 511.200 741.200 C 509.458 742.942, 509.726 746.548, 511.913 750.790 C 514.311 755.441, 516.779 758.064, 522.387 761.922 C 524.817 763.594, 527.713 766.208, 528.821 767.729 C 529.930 769.251, 531.159 770.174, 531.553 769.780 C 533.033 768.301, 529.678 763.133, 522.944 756.516 C 517.970 751.629, 515.652 748.510, 514.823 745.588 C 513.375 740.484, 512.715 739.685, 511.200 741.200" />
    <path d="M 616.557 749.908 C 614.483 753.264, 570.199 784.808, 549.500 797.675 C 512.572 820.630, 487.198 833.514, 455.088 845.616 C 422.949 857.728, 399.973 860.189, 387.193 852.889 C 385.374 851.850, 383.756 851, 383.598 851 C 383.440 851, 384.105 853.362, 385.075 856.250 C 392.629 878.723, 394.189 897.929, 389.562 911.500 C 388.249 915.350, 387.362 918.689, 387.590 918.920 C 387.819 919.150, 391.717 918.563, 396.253 917.613 C 401.530 916.509, 408.574 913.910, 415.814 910.398 C 424.939 905.971, 428.378 903.659, 433.583 898.454 C 441.523 890.514, 444.305 890.123, 444.448 896.929 C 444.497 899.265, 445.171 899.561, 456.201 902.091 C 484.023 908.471, 516.768 910.028, 542 906.170 C 549.425 905.035, 557.833 903.399, 560.685 902.534 C 565.119 901.189, 565.917 900.565, 566.185 898.230 C 566.427 896.133, 567.105 895.430, 569.107 895.197 C 571.211 894.953, 571.962 895.493, 572.999 897.997 C 574.507 901.639, 580.186 905.766, 590.256 910.536 C 598.098 914.251, 611.332 918, 616.607 918 L 619.895 918 616.754 911.287 C 613.959 905.316, 613.565 903.340, 613.185 893.396 C 612.946 887.173, 613.280 879.178, 613.937 875.359 C 617.833 852.726, 630.056 826.405, 647.441 803.216 C 654.882 793.290, 671.153 776.511, 678.705 770.976 C 683.395 767.538, 683.395 767.605, 678.628 758.312 C 673.975 749.241, 674.285 749.413, 666.914 751.837 C 651.310 756.967, 638.119 756.834, 624.422 751.408 C 617.573 748.695, 617.335 748.650, 616.557 749.908" />
    <path d="M 477.032 763.750 C 477.084 764.993, 481.827 770, 482.952 770 C 483.528 770, 484 768.864, 484 767.475 C 484 765.685, 483.254 764.667, 481.435 763.975 C 478.362 762.807, 476.989 762.737, 477.032 763.750" />
    <path d="M 733.794 763.892 C 729.743 764.743, 725.736 767.269, 718.263 773.680 C 714.812 776.640, 712.975 777.603, 711.967 776.980 C 710.806 776.262, 711.139 775.257, 713.772 771.521 C 715.547 769.002, 717 766.730, 717 766.471 C 717 766.212, 715.087 766.011, 712.750 766.024 C 702.448 766.081, 687.287 775.537, 670.436 792.416 C 643.023 819.873, 622.980 860.440, 622.716 889 C 622.445 918.316, 642.144 932.991, 673.043 926.491 C 698.385 921.160, 722.962 907.108, 744.322 885.736 C 757.930 872.122, 766.741 860.044, 773.522 845.710 C 780.151 831.698, 782.300 822.681, 781.826 810.875 C 781.460 801.771, 781.227 800.848, 778.408 797.366 C 776.744 795.310, 774.931 793.477, 774.379 793.293 C 773.827 793.109, 772.372 795.178, 771.146 797.891 C 769.920 800.605, 768.280 803.353, 767.502 803.998 C 765.197 805.912, 764.039 804.349, 765.085 800.737 C 767.656 791.865, 768.109 784.844, 766.435 779.805 C 762.515 768.003, 747.973 760.913, 733.794 763.892" />
    <path d="M 266.500 767.224 C 261.808 768.892, 256.135 773.833, 253.712 778.364 C 251.846 781.854, 251.500 784.088, 251.500 792.666 C 251.500 798.257, 251.173 803.159, 250.774 803.558 C 249.537 804.796, 247.065 801.948, 245.846 797.881 C 245.207 795.747, 244.345 794, 243.931 794 C 242.090 794, 238.118 800.339, 236.976 805.100 C 235.218 812.426, 236.326 825.601, 239.574 836 C 254.427 883.555, 308.169 930.143, 348.500 930.427 C 363.179 930.530, 372.264 925.303, 378.137 913.374 C 381.009 907.539, 381.404 905.679, 381.792 896.166 C 382.331 882.909, 380.362 871.652, 375.011 857.407 C 361.356 821.054, 334.153 785.792, 310.634 773.958 C 303.828 770.533, 298 768.926, 298 770.473 C 298 770.734, 298.990 772.984, 300.200 775.474 C 301.884 778.940, 302.124 780.276, 301.225 781.175 C 300.325 782.075, 298.463 780.696, 293.275 775.290 C 288.370 770.178, 285.396 767.923, 282.500 767.120 C 277.580 765.756, 270.501 765.802, 266.500 767.224" />
    <path d="M 444.768 770.189 C 443.249 774.725, 449.404 787.786, 455.990 794 C 462.629 800.264, 471.754 805.646, 473.232 804.168 C 473.856 803.544, 474.172 802.880, 473.933 802.693 C 473.695 802.506, 470.790 800.301, 467.477 797.793 C 456.552 789.521, 449 779.873, 449 774.188 C 449 771.720, 445.396 768.314, 444.768 770.189" />
    <path d="M 709.017 787.245 C 699.386 792.397, 693.797 805.961, 699.015 811.516 C 700.269 812.850, 702.857 814.458, 704.768 815.088 C 709.614 816.688, 717.511 816.651, 719.477 815.019 C 722.172 812.783, 725.816 805.818, 726.951 800.736 C 729.571 789.002, 719.664 781.550, 709.017 787.245" />
    <path d="M 292.344 790.713 C 286.010 795.962, 284.305 804.868, 288.124 812.756 C 290.670 818.016, 293.492 819.336, 300.918 818.742 C 307.991 818.175, 312 814.217, 312 807.800 C 312 795.886, 299.360 784.898, 292.344 790.713" />
    <path d="M 710.389 790.905 C 704.725 794.358, 701.117 801.345, 702.386 806.400 C 703.350 810.241, 711.172 812.246, 716.221 809.945 C 722.882 806.910, 725.477 795.094, 720.365 791.073 C 717.097 788.502, 714.404 788.457, 710.389 790.905" />
    <path d="M 295.302 793.012 C 292.257 794.238, 290 799.061, 290 804.345 C 290 813.156, 298.815 818.080, 305.365 812.927 C 308.542 810.429, 308.726 807.195, 306.030 801.256 C 304.119 797.047, 299.824 791.942, 298.295 792.063 C 297.858 792.098, 296.511 792.525, 295.302 793.012" />
    <path d="M 407 793.723 C 407 794.121, 409.635 796.954, 412.856 800.019 C 416.077 803.084, 419.495 807.240, 420.450 809.254 C 422.535 813.647, 433.633 826, 435.495 826 C 437.886 826, 435.957 822.382, 430.918 817.419 C 427.691 814.241, 426 811.735, 426 810.132 C 426 808.788, 424.847 806.178, 423.439 804.331 C 418.843 798.306, 407 790.664, 407 793.723" />
    <path d="M 255.106 809.901 C 252.293 812.529, 252 813.374, 252 818.854 C 252 825.609, 253.082 828.766, 257.263 834.215 C 266.545 846.314, 282.196 831.753, 275.370 817.368 C 274.474 815.479, 271.918 812.374, 269.690 810.467 C 264.368 805.912, 259.576 805.726, 255.106 809.901" />
    <path d="M 745.619 809.024 C 741.659 810.224, 738.246 813.629, 735.401 819.217 C 732.368 825.175, 732.388 827.281, 735.531 832.644 C 738.544 837.784, 740.524 839, 745.887 839 C 751.650 839, 754.594 837.311, 757.930 832.090 C 763.464 823.432, 764.350 813.851, 759.748 812.448 C 758.511 812.072, 756.825 811.192, 756 810.493 C 753.872 808.691, 748.996 808.001, 745.619 809.024" />
    <path d="M 256.557 813.223 C 253.647 817.377, 255.410 825.294, 260.475 830.822 C 263.464 834.083, 264.091 834.354, 266.600 833.472 C 268.137 832.931, 270.254 831.018, 271.304 829.220 C 274.013 824.580, 272.916 819.916, 267.944 814.944 C 263.294 810.294, 259.056 809.654, 256.557 813.223" />
    <path d="M 599.500 812 C 599.840 812.550, 600.793 813, 601.618 813 C 602.443 813, 602.840 812.550, 602.500 812 C 602.160 811.450, 601.207 811, 600.382 811 C 599.557 811, 599.160 811.450, 599.500 812" />
    <path d="M 743.070 815.556 C 738.205 819.951, 737.177 823.849, 739.516 829.036 C 741.887 834.293, 745.798 835.888, 750.116 833.359 C 755.042 830.475, 757.274 826.746, 757.788 820.542 L 758.248 815.001 754.656 813.501 C 749.346 811.282, 747.423 811.623, 743.070 815.556" />
    <path d="M 695.363 835.988 C 689.692 837.179, 680.566 841.940, 674.172 847.042 C 659.297 858.913, 650.415 879.596, 654.362 893.174 C 657.409 903.653, 663.411 907.939, 675.093 907.978 C 686.435 908.016, 698.446 902.546, 710.293 891.946 C 731.140 873.295, 733.357 847.462, 714.926 837.978 C 710.627 835.766, 701.055 834.792, 695.363 835.988" />
    <path d="M 297.500 837.893 C 282.726 841.695, 276.798 854.775, 281.962 872.176 C 284.638 881.192, 297.099 895.876, 308.121 903 C 320.404 910.939, 332.702 912.743, 342.431 908.033 C 349.216 904.749, 351.500 899.684, 351.500 887.925 C 351.500 878.622, 351.375 878.096, 347.106 869.483 C 340.439 856.027, 327.487 843.906, 315.112 839.539 C 310.025 837.745, 301.260 836.926, 297.500 837.893" />
    <path d="M 691.500 841.774 C 684.533 844.338, 680.639 846.947, 673.555 853.795 C 656.321 870.458, 652.803 896.703, 667.039 902.399 C 684.199 909.265, 713.153 891.065, 721.117 868.408 C 725.059 857.190, 722.040 846.658, 713.636 842.312 C 708.967 839.897, 697.364 839.615, 691.500 841.774" />
    <path d="M 294.459 843.826 C 283.490 848.954, 281.110 860.089, 287.935 874.344 C 298.722 896.874, 326.523 912.638, 340.373 904.079 C 361.505 891.018, 334.432 843.600, 305.066 842.241 C 300.226 842.016, 297.438 842.433, 294.459 843.826" />
</g>

<g id="dark_details" fill="#111111" stroke="none" pointer-events="none">
    <path d="M 595.223 363.557 C 592.979 365.128, 592.306 367.453, 593.823 368.391 C 594.276 368.670, 597.369 369.338, 600.698 369.874 C 609.962 371.366, 619.727 376.778, 626.342 384.088 C 630.959 389.190, 632.207 390.073, 633.402 389.082 C 636.899 386.179, 629.658 375.011, 620.067 368.515 C 610.944 362.335, 600.066 360.164, 595.223 363.557" fill-rule="evenodd" />
    <path d="M 376.500 367.015 C 366.478 370.865, 360.100 375.859, 354.873 383.946 C 351.913 388.526, 351.029 394, 353.250 393.999 C 353.938 393.999, 357.052 391.145, 360.170 387.658 C 366.978 380.045, 377.361 374.380, 386.613 373.231 C 391.963 372.567, 392.527 372.266, 392.799 369.933 C 393.373 364.995, 385.449 363.576, 376.500 367.015" fill-rule="evenodd" />
    <path d="M 492.043 482.448 C 490.066 484.830, 495.167 486.318, 502.737 485.566 C 510.132 484.832, 512.216 484.149, 511.711 482.627 C 511.481 481.932, 507.885 481.391, 502.321 481.214 C 495.221 480.990, 493.036 481.252, 492.043 482.448" fill-rule="evenodd" />
</g>

<rect x="0" y="860" width="1024" height="224" fill="#1a1a2e"/>
<rect x="0" y="860" width="1024" height="5" fill="#e94560"/>
<text x="14" y="880" font-family="sans-serif" font-size="12" fill="#f5a623" font-weight="bold">🎨 اختر لون:</text>

  <rect class="swatch" x="20" y="870" width="32" height="28" rx="6" fill="#FF6B6B" onclick="pick('#FF6B6B', this)" />
  <rect class="swatch" x="62" y="870" width="32" height="28" rx="6" fill="#FF8E53" onclick="pick('#FF8E53', this)" />
  <rect class="swatch" x="104" y="870" width="32" height="28" rx="6" fill="#FFC107" onclick="pick('#FFC107', this)" />
  <rect class="swatch" x="146" y="870" width="32" height="28" rx="6" fill="#A8E063" onclick="pick('#A8E063', this)" />
  <rect class="swatch" x="188" y="870" width="32" height="28" rx="6" fill="#56CCF2" onclick="pick('#56CCF2', this)" />
  <rect class="swatch" x="20" y="906" width="32" height="28" rx="6" fill="#764BA2" onclick="pick('#764BA2', this)" />
  <rect class="swatch" x="62" y="906" width="32" height="28" rx="6" fill="#F093FB" onclick="pick('#F093FB', this)" />
  <rect class="swatch" x="104" y="906" width="32" height="28" rx="6" fill="#4ECDC4" onclick="pick('#4ECDC4', this)" />
  <rect class="swatch" x="146" y="906" width="32" height="28" rx="6" fill="#D62839" onclick="pick('#D62839', this)" />
  <rect class="swatch" x="188" y="906" width="32" height="28" rx="6" fill="#E84393" onclick="pick('#E84393', this)" />
  <rect class="swatch" x="20" y="942" width="32" height="28" rx="6" fill="#F7B731" onclick="pick('#F7B731', this)" />
  <rect class="swatch" x="62" y="942" width="32" height="28" rx="6" fill="#20BF6B" onclick="pick('#20BF6B', this)" />
  <rect class="swatch" x="104" y="942" width="32" height="28" rx="6" fill="#0652DD" onclick="pick('#0652DD', this)" />
  <rect class="swatch" x="146" y="942" width="32" height="28" rx="6" fill="#C0392B" onclick="pick('#C0392B', this)" />
  <rect class="swatch" x="188" y="942" width="32" height="28" rx="6" fill="#2C3E50" onclick="pick('#2C3E50', this)" />
  <rect class="swatch" x="20" y="978" width="32" height="28" rx="6" fill="#8E44AD" onclick="pick('#8E44AD', this)" />
  <rect class="swatch" x="62" y="978" width="32" height="28" rx="6" fill="#1ABC9C" onclick="pick('#1ABC9C', this)" />
  <rect class="swatch" x="104" y="978" width="32" height="28" rx="6" fill="#E67E22" onclick="pick('#E67E22', this)" />
  <rect class="swatch" x="146" y="978" width="32" height="28" rx="6" fill="#2980B9" onclick="pick('#2980B9', this)" />
  <rect class="swatch" x="188" y="978" width="32" height="28" rx="6" fill="#27AE60" onclick="pick('#27AE60', this)" />
  <rect class="swatch" x="20" y="1014" width="32" height="28" rx="6" fill="#FF5252" onclick="pick('#FF5252', this)" />
  <rect class="swatch" x="62" y="1014" width="32" height="28" rx="6" fill="#FF6F00" onclick="pick('#FF6F00', this)" />
  <rect class="swatch" x="104" y="1014" width="32" height="28" rx="6" fill="#E040FB" onclick="pick('#E040FB', this)" />
  <rect class="swatch" x="146" y="1014" width="32" height="28" rx="6" fill="#00BCD4" onclick="pick('#00BCD4', this)" />
  <rect class="swatch" x="188" y="1014" width="32" height="28" rx="6" fill="#8BC34A" onclick="pick('#8BC34A', this)" />

<rect id="eraserBtn" x="240" y="952" width="70" height="28" rx="7" fill="#0f3460" stroke="#444" stroke-width="1.5" onclick="toggleErase()" style="cursor:pointer"/>
<text x="275" y="971" font-family="sans-serif" font-size="12" fill="#eee" text-anchor="middle" pointer-events="none">🧹 محو</text>

<rect id="undoBtn" x="320" y="952" width="70" height="28" rx="7" fill="#0f3460" stroke="#444" stroke-width="1.5" onclick="undo()" style="cursor:pointer"/>
<text x="355" y="971" font-family="sans-serif" font-size="12" fill="#eee" text-anchor="middle" pointer-events="none">↩ تراجع</text>

<rect id="clearBtn" x="400" y="952" width="70" height="28" rx="7" fill="#0f3460" stroke="#444" stroke-width="1.5" onclick="clearAll()" style="cursor:pointer"/>
<text x="435" y="971" font-family="sans-serif" font-size="12" fill="#eee" text-anchor="middle" pointer-events="none">🗑 مسح</text>

<text x="490" y="967" font-family="sans-serif" font-size="11" fill="#aaa">اللون:</text>
<rect id="preview" x="525" y="952" width="28" height="28" rx="6" fill="#FF6B6B" stroke="#666" stroke-width="1.5"/>

<text x="570" y="964" font-family="sans-serif" font-size="11" fill="#aaa">شفافية:</text>
<text id="opLabel" x="570" y="978" font-family="sans-serif" font-size="11" fill="#f5a623">100%</text>
<rect x="620" y="957" width="100" height="7" rx="3" fill="#333"/>
<rect id="opBar" x="620" y="957" width="100" height="7" rx="3" fill="#f5a623"/>
<rect x="620" y="950" width="100" height="22" rx="3" fill="transparent" onmousedown="startSlide(evt)" onmousemove="slideMove(evt)" onmouseup="endSlide()" style="cursor:ew-resize"/>

<script type="text/javascript"><![CDATA[
  var activeColor = '#FF6B6B';
  var eraseMode = false;
  var opacity = 1.0;
  var sliding = false;
  var history = [];

  document.querySelectorAll('.swatch')[0].classList.add('active');

  function pick(c, el) {
    activeColor = c;
    eraseMode = false;
    document.getElementById('preview').setAttribute('fill', c);
    document.getElementById('eraserBtn').setAttribute('fill','#0f3460');
    document.getElementById('eraserBtn').setAttribute('stroke','#444');
    document.querySelectorAll('.swatch').forEach(function(s){s.classList.remove('active');});
    el.classList.add('active');
  }

  function toggleErase() {
    eraseMode = !eraseMode;
    var el = document.getElementById('eraserBtn');
    el.setAttribute('fill', eraseMode ? '#fff0f0' : '#0f3460');
    el.setAttribute('stroke', eraseMode ? '#e94560' : '#444');
  }

  function fillRegion(el) {
    history.push({ el:el, fill:el.getAttribute('fill'), op:el.getAttribute('fill-opacity') });
    if (eraseMode) {
      el.setAttribute('fill','none');
      el.setAttribute('fill-opacity','1');
    } else {
      el.setAttribute('fill', activeColor);
      el.setAttribute('fill-opacity', opacity);
    }
  }

  // تلوين الجزرة كلها مرة واحدة
  function fillCarrot(clicked) {
    var allCarrot = document.querySelectorAll('.carrot-line');
    var carrotBody = document.getElementById('carrot_body');
    var targets = Array.from(allCarrot);
    if (carrotBody) targets.push(carrotBody);

    if (eraseMode) {
      targets.forEach(function(el) {
        history.push({ el:el, fill:el.getAttribute('fill'), op:el.getAttribute('fill-opacity') });
        el.setAttribute('fill','none');
        el.setAttribute('fill-opacity','1');
      });
    } else {
      targets.forEach(function(el) {
        history.push({ el:el, fill:el.getAttribute('fill'), op:el.getAttribute('fill-opacity') });
        el.setAttribute('fill', activeColor);
        el.setAttribute('fill-opacity', opacity);
      });
    }
  }

  // كمان carrot_body لما ينقر عليه يلوّن الكل
  function fillRegion(el) {
    if (el.id === 'carrot_body') {
      fillCarrot(el);
      return;
    }
    history.push({ el:el, fill:el.getAttribute('fill'), op:el.getAttribute('fill-opacity') });
    if (eraseMode) {
      el.setAttribute('fill','none');
      el.setAttribute('fill-opacity','1');
    } else {
      el.setAttribute('fill', activeColor);
      el.setAttribute('fill-opacity', opacity);
    }
  }

  function undo() {
    if (!history.length) return;
    var last = history.pop();
    last.el.setAttribute('fill', last.fill || 'none');
    last.el.setAttribute('fill-opacity', last.op || '1');
  }

  function clearAll() {
    document.querySelectorAll('.region').forEach(function(r){
      r.setAttribute('fill','none');
      r.setAttribute('fill-opacity','1');
    });
    history = [];
  }

  function startSlide(evt) { sliding=true; slideMove(evt); }
  function endSlide() { sliding=false; }
  function slideMove(evt) {
    if (!sliding) return;
    var svg = evt.target.ownerSVGElement;
    var pt = svg.createSVGPoint();
    pt.x = evt.clientX; pt.y = evt.clientY;
    var sp = pt.matrixTransform(svg.getScreenCTM().inverse());
    var pct = Math.max(0, Math.min(1, (sp.x - 620) / 100));
    opacity = pct;
    document.getElementById('opBar').setAttribute('width', Math.round(pct*100));
    document.getElementById('opLabel').textContent = Math.round(pct*100) + '%';
  }
]]></script>
</svg>