<svg xmlns="http://www.w3.org/2000/svg" width="1024" height="1084" viewBox="0 0 1024 1084">
<defs>
  <style>
    .region { cursor:pointer; }
    .region:hover { opacity:0.7; }
    .swatch { cursor:pointer; stroke:transparent; stroke-width:3; }
    .swatch:hover { stroke:#fff; stroke-width:3; }
    .swatch.active { stroke:#fff; stroke-width:3.5; }
  </style>
</defs>
<rect width="1024" height="860" fill="white"/>
<g id="colorRegions">
    <path id="body_outer" class="region" d="M 665.075 40.087 C 642.564 44.504, 617.476 61.609, 597.734 86 C 577.320 111.220, 558.644 149.172, 549.014 185 C 543.102 206.998, 539.924 220.629, 538.823 228.711 L 537.595 237.724 527.048 238.369 C 521.246 238.723, 510.669 240.135, 503.542 241.507 C 496.416 242.878, 490.401 244, 490.176 244 C 489.951 244, 491.395 242.199, 493.384 239.997 C 497.569 235.364, 497.945 232.237, 494.686 229.174 C 488.476 223.341, 461.550 229.657, 444.384 240.973 C 441.627 242.790, 441.122 242.852, 440.011 241.514 C 437.966 239.049, 433.544 239.769, 428.060 243.459 L 422.920 246.919 421.960 244.394 C 421.432 243.006, 421 241.261, 421 240.516 C 421 235.891, 407.650 197.852, 399.823 180.175 C 374.488 122.961, 338.375 78.836, 301.805 60.415 C 286.916 52.915, 275.881 49.990, 262.566 50.012 C 237.239 50.054, 215.380 68.278, 206.205 97 C 202.156 109.674, 201.499 114.967, 201.548 134.500 C 201.587 150.150, 202.005 155.616, 203.923 165.500 C 214.514 220.098, 245.568 272.177, 292.491 314.035 L 303.862 324.179 297.002 334.339 C 272.396 370.780, 258.291 411.850, 254.876 457 C 254.272 464.975, 254.032 475.212, 254.341 479.750 C 254.855 487.299, 254.746 488, 253.062 488 C 249.372 488, 232.718 492.837, 231.887 494.150 C 230.042 497.065, 231.733 497.498, 243.621 497.151 L 255.574 496.803 257.352 506.075 C 258.329 511.174, 259.763 517.181, 260.537 519.423 C 261.378 521.860, 261.557 523.633, 260.980 523.831 C 260.450 524.012, 255.741 526.358, 250.516 529.042 C 235.180 536.921, 225.812 545, 232.012 545 C 233.118 545, 240.726 542.300, 248.919 539 C 257.112 535.700, 264.237 533, 264.754 533 C 265.271 533, 267.675 536.711, 270.097 541.247 C 285.578 570.247, 311.833 593.257, 346.491 608.200 C 352.557 610.815, 357.368 613.467, 357.206 614.106 C 357.044 614.744, 354.971 618.018, 352.599 621.383 C 330.091 653.309, 325.410 690.371, 340.683 715.734 C 342.526 718.795, 343.914 721.358, 343.767 721.429 C 343.620 721.501, 341.704 722.378, 339.510 723.378 C 327.489 728.857, 313.667 745.598, 311.462 757.349 C 310.787 760.949, 310.627 761.076, 307.629 760.405 C 305.908 760.019, 301.800 759.630, 298.500 759.541 C 295.200 759.452, 289.415 758.394, 285.645 757.189 C 272.846 753.102, 260.975 755.295, 252.220 763.365 C 247.341 767.862, 242.024 776.311, 242.009 779.590 C 242.004 780.825, 240.591 782.683, 238.558 784.129 C 233.128 787.993, 229.458 793.355, 226.990 801.031 C 224.981 807.279, 224.779 809.413, 225.305 818.815 C 227.978 866.638, 276.033 922.964, 327.500 938.601 C 335.136 940.921, 338.318 941.338, 348.500 941.353 C 361.608 941.372, 367.081 940.057, 374.500 935.104 C 377.507 933.097, 380.859 932.104, 388 931.105 C 405.898 928.603, 424.635 921.687, 434.915 913.789 L 439.330 910.397 450.338 913.171 C 474.586 919.283, 508.469 922.222, 530 920.081 C 541.894 918.898, 561.130 915.658, 566.657 913.907 C 569.463 913.017, 570.455 913.316, 575.576 916.592 C 587.444 924.183, 602.349 928.840, 617.500 929.689 C 626.048 930.168, 628.517 930.729, 634.500 933.548 C 644.163 938.101, 651.799 939.386, 665.289 938.731 C 678.800 938.075, 689.975 935.049, 704.500 928.112 C 729.350 916.244, 752.458 897.381, 768.937 875.513 C 777.964 863.534, 788.239 842.689, 790.990 830.776 C 794.301 816.435, 793.668 803.830, 789.180 794.713 C 787.343 790.982, 784.236 786.645, 782.073 784.792 C 779.703 782.762, 777.828 780.045, 777.183 777.703 C 771.905 758.567, 748.925 747.470, 729.077 754.473 C 726.620 755.340, 722.422 755.606, 716.448 755.274 C 707.678 754.787, 704.777 755.350, 694.809 759.470 C 693.488 760.016, 692.531 759.004, 690.424 754.834 C 688.942 751.900, 686.893 748.430, 685.870 747.122 L 684.010 744.743 688.708 740.622 C 696.380 733.891, 697.454 732.760, 701.766 726.869 C 714.754 709.124, 716.391 685.367, 706.025 665.049 L 703.804 660.695 706.365 654.097 C 709.511 645.994, 710.943 639.829, 710.976 634.250 C 710.989 631.866, 711.478 630, 712.089 630 C 712.688 630, 719.101 632.752, 726.339 636.116 C 743.666 644.168, 754.576 647.851, 765.253 649.254 C 783.885 651.703, 798.736 645.530, 804.302 633.023 C 808.311 624.015, 805.833 608.798, 799.653 604.470 C 797.573 603.013, 797.573 603, 799.589 603 C 803.576 603, 817.332 598.862, 823.366 595.847 C 837.517 588.778, 844.796 580.799, 846.913 570.036 C 850.233 553.162, 839.569 537.477, 820.698 531.480 C 816.407 530.116, 811.372 529, 809.507 529 C 807.643 529, 805.840 528.550, 805.500 528 C 805.160 527.450, 805.303 527, 805.818 527 C 806.333 527, 807.808 524.638, 809.096 521.750 C 812.191 514.813, 812.254 504.345, 809.235 498.500 C 806.778 493.742, 800.857 487.905, 796.008 485.459 C 788.746 481.797, 773.054 482.622, 765.250 487.077 C 762.233 488.800, 762 488.810, 761.994 487.216 C 761.971 479.942, 754.591 470.178, 747.124 467.544 C 742.294 465.840, 733.176 465.516, 728.421 466.879 L 725.355 467.759 723.666 453.129 C 720.548 426.115, 709.389 390.271, 696.697 366.500 C 689.924 353.816, 674.992 329.547, 673.009 328 C 672.656 327.725, 670.988 325.475, 669.300 323 C 667.613 320.525, 665.280 317.643, 664.116 316.595 C 662.952 315.547, 662 314.347, 662 313.929 C 662 313.510, 665.557 309.417, 669.904 304.834 C 711.254 261.239, 740.202 205.128, 745.915 157.500 C 747.463 144.592, 747.250 124.458, 745.436 112.128 C 740.730 80.159, 724.190 54.050, 702.592 44.498 C 691.123 39.426, 676.943 37.759, 665.075 40.087" fill="none" fill-rule="evenodd" stroke="none" onclick="fillRegion(this)" />
    <path id="body_main" class="region" d="M 666.894 52.504 C 640.920 57.680, 613.405 80.898, 592.225 115.511 C 573.661 145.849, 558.499 188.302, 550.508 232.317 C 549.129 239.916, 547.999 247.791, 547.998 249.817 L 547.996 253.500 553.748 253.500 C 559.210 253.500, 559.500 253.625, 559.500 255.989 C 559.500 258.232, 558.882 258.612, 553.250 259.826 C 547.372 261.093, 547 261.342, 547 264.005 C 547 270.361, 544.856 271.604, 540.989 267.489 C 539.692 266.108, 536.801 264.502, 534.565 263.921 C 532.329 263.341, 528.813 262.428, 526.750 261.894 C 524.684 261.359, 523 260.300, 523 259.535 C 523 258.771, 525.231 256.426, 527.957 254.323 C 530.684 252.220, 532.934 250.141, 532.957 249.702 C 532.981 249.263, 531.313 249.124, 529.250 249.393 C 527.188 249.662, 523.025 250.172, 520 250.525 C 514.265 251.195, 503.797 252.933, 488.500 255.754 C 483.550 256.667, 477.700 257.434, 475.500 257.457 C 471.828 257.496, 471.523 257.297, 471.778 255.028 C 471.930 253.668, 474.307 249.623, 477.060 246.039 C 479.812 242.454, 481.616 239.372, 481.069 239.190 C 480.522 239.007, 476.570 239.815, 472.287 240.985 C 463.148 243.481, 447.922 251.291, 439.678 257.712 C 432.168 263.560, 430.648 263.684, 430 258.500 L 429.500 254.500 427.336 258.161 C 426.146 260.175, 424.256 263.893, 423.137 266.423 C 419.911 273.717, 415.658 273.582, 414.469 266.150 C 412.862 256.096, 407.141 234.762, 401.908 219.311 C 382.775 162.812, 355.681 118.651, 322.180 89.363 C 285.121 56.963, 249.007 53.324, 228.560 79.929 C 220.086 90.955, 216.156 102.041, 213.929 121.194 C 211.232 144.389, 216.573 176.228, 227.734 203.500 C 241.672 237.559, 258.861 262.974, 286.946 291.048 C 296.601 300.700, 307.988 311.448, 312.250 314.933 C 317.087 318.888, 320 322, 320 323.213 C 320 324.283, 317.813 327.710, 315.139 330.829 C 299.243 349.377, 284.085 379.986, 275.065 411.757 C 269.465 431.483, 267.913 442.418, 267.289 466.551 L 266.744 487.602 274.246 488.768 C 278.372 489.409, 284.167 490.737, 287.124 491.717 C 291.716 493.240, 292.500 493.864, 292.500 496 C 292.500 498.264, 292.122 498.492, 288.500 498.419 C 286.300 498.374, 280.737 497.968, 276.137 497.516 L 267.774 496.694 268.458 500.097 C 268.834 501.969, 269.837 506.200, 270.687 509.500 C 271.537 512.800, 272.452 516.486, 272.721 517.691 C 273.191 519.794, 273.642 519.875, 283.855 519.691 L 294.500 519.500 294.500 522 C 294.500 524.309, 293.869 524.647, 286.250 526.428 C 281.712 527.489, 278 528.784, 278 529.307 C 278 529.829, 279.446 532.786, 281.213 535.878 C 293.079 556.643, 311.172 574.801, 332.405 587.254 C 349.956 597.547, 374.795 606.590, 405.500 613.864 C 407.573 614.355, 408.500 615.181, 408.500 616.537 C 408.500 618.391, 407.863 618.483, 397.077 618.198 C 390.794 618.032, 382.815 617.302, 379.346 616.574 L 373.038 615.252 368.566 620.033 C 359.407 629.825, 349.420 648.952, 345.984 663.283 C 342.271 678.770, 343.983 695.913, 350.386 707.363 C 361.161 726.630, 383.213 741.488, 412.444 749.175 C 423.631 752.117, 446.947 752.898, 455.809 750.627 C 463.574 748.638, 472 745.078, 472 743.787 C 472 743.256, 470.988 741.989, 469.750 740.973 C 467.929 739.478, 467.710 738.779, 468.602 737.313 C 469.972 735.060, 473.611 734.432, 475.622 736.102 C 476.454 736.792, 479.274 737.389, 481.888 737.428 C 490.579 737.559, 499.358 729.016, 500.167 719.642 C 500.480 716.010, 500.294 715.716, 497 714.642 C 492.445 713.156, 492.176 709.942, 496.500 708.656 C 501.957 707.033, 504.474 705.234, 506.734 701.345 C 512.400 691.590, 507.170 677.504, 495.020 669.797 C 486.409 664.335, 468.470 660.089, 447.500 658.550 C 443.100 658.227, 436.416 657.310, 432.646 656.512 C 420.452 653.931, 406.525 646.195, 408.454 643.074 C 409.502 641.379, 412.321 641.800, 418.317 644.545 C 423.352 646.850, 425.717 647.178, 443.426 648.021 C 454.179 648.534, 467.144 649.657, 472.238 650.518 L 481.500 652.083 497 636.732 C 533.899 600.188, 566.288 574.823, 592.500 561.943 C 606.687 554.972, 614.400 552.430, 626.227 550.828 C 634.579 549.697, 640.749 550.162, 649.642 552.592 C 651.767 553.172, 651.788 553.020, 652.247 533.838 C 652.652 516.916, 652.998 513.688, 655.017 508 C 657.759 500.277, 660.508 495.690, 665.109 491.164 C 670.216 486.140, 673.783 484.607, 680.500 484.551 C 688.501 484.483, 691.324 485.394, 695.888 489.518 L 699.725 492.985 703.442 486.964 C 705.486 483.652, 708.247 480.229, 709.579 479.356 C 710.911 478.484, 712 477.147, 712 476.385 C 712 474.685, 712.440 474.672, 704.956 476.590 C 699.669 477.944, 698.546 477.975, 697.366 476.794 C 695.088 474.517, 697.719 472.235, 705.500 469.739 L 712.500 467.494 712.165 460.497 C 711.546 447.587, 708.032 430.541, 702.064 411.500 C 692.004 379.398, 667.918 336.786, 650.088 319.547 C 647.840 317.373, 646 314.659, 646 313.516 C 646 312.292, 648.505 308.984, 652.093 305.469 C 659.155 298.551, 673.388 282.392, 680.691 273 C 707.281 238.803, 724.288 203.687, 731.575 167.937 C 735.212 150.100, 735.890 126.638, 733.208 111.500 C 729.009 87.803, 718.341 69.014, 703.167 58.590 C 697.980 55.027, 684.422 50.967, 678.137 51.094 C 675.587 51.146, 670.527 51.780, 666.894 52.504" fill="none" fill-rule="evenodd" stroke="none" onclick="fillRegion(this)" />
    <path id="ear_right_inner" class="region" d="M 670.487 103.746 C 661.877 106.814, 656.661 110.556, 647.196 120.457 C 627.128 141.448, 607.981 177.202, 592.869 221.904 C 587.851 236.747, 582.756 256.104, 581.180 266.314 C 580.421 271.233, 580.551 272.458, 582.024 274.278 C 583.618 276.246, 584.008 276.311, 586.633 275.045 C 588.210 274.285, 590.175 273.745, 591 273.845 C 591.931 273.959, 593.236 272.220, 594.439 269.264 C 598.692 258.813, 605.477 250.511, 611.806 248.015 C 616.242 246.265, 617.500 247.654, 617.500 254.300 C 617.500 260.230, 614.175 269.402, 609.833 275.449 C 607.802 278.277, 607.307 279.696, 608.088 280.449 C 609.724 282.025, 617.632 272.599, 620.014 266.234 C 625.996 250.245, 621.371 239.475, 609.988 242.885 C 605.967 244.090, 598.198 250.718, 594.687 255.940 C 593.784 257.281, 592.842 258.175, 592.592 257.925 C 591.318 256.651, 603.222 218.351, 609.663 203 C 630.770 152.692, 650.788 123.437, 670.762 113.704 C 682.267 108.098, 689.706 112.839, 692.877 127.799 C 695.128 138.421, 693.623 156.676, 689.028 174.467 C 681.918 201.999, 664.802 234.476, 645.005 258 C 635.926 268.788, 624.077 280.097, 617 284.729 C 610.483 288.994, 609.832 289.818, 611.105 292.196 C 612.493 294.789, 614.504 294.450, 620.869 290.550 C 632.120 283.656, 647.260 268.711, 659.921 252 C 691.032 210.938, 708.788 154.419, 700.477 122.912 C 696.379 107.379, 683.461 99.123, 670.487 103.746" fill="none" fill-rule="evenodd" stroke="none" onclick="fillRegion(this)" />
    <path id="ear_left_inner" class="region" d="M 266.766 115.115 C 250.151 117.622, 243.998 141.142, 251.623 173 C 256.567 193.655, 268.516 222.024, 278.159 236 C 280.626 239.575, 284.538 245.275, 286.852 248.666 C 300.826 269.138, 330.090 294.893, 346.526 301.183 C 352.665 303.532, 355.294 303.084, 354.820 299.768 C 354.591 298.167, 352.618 296.524, 347.907 294.014 C 336.767 288.076, 328.051 281.193, 314.426 267.571 C 289.301 242.451, 272.378 214.768, 262.887 183.260 C 254.277 154.677, 255.233 130.428, 265.203 124.539 C 274.491 119.053, 295.751 133.615, 314.118 158.043 C 326.231 174.153, 340.531 197.466, 349.362 215.500 C 358.356 233.868, 369.737 262.015, 368.160 261.989 C 367.797 261.983, 365.700 260.286, 363.500 258.218 C 356.651 251.780, 349.138 248.247, 344.677 249.366 C 340.102 250.514, 338 253.678, 338 259.413 C 338 267.574, 341.785 276.131, 348.653 283.500 C 355.620 290.975, 358.847 290.360, 353.036 282.664 C 345.630 272.854, 341.158 259.924, 343.992 256.510 C 348.219 251.416, 361.581 260.984, 367.719 273.500 C 369.575 277.284, 370.890 278.872, 371.860 278.500 C 372.641 278.201, 373.918 278.865, 374.697 279.978 C 376.409 282.422, 380.813 282.652, 381.699 280.342 C 383.319 276.120, 376.740 254.873, 366.265 230.500 C 348.899 190.093, 325.347 152.932, 304.630 133.254 C 289.685 119.057, 277.938 113.430, 266.766 115.115" fill="none" fill-rule="evenodd" stroke="none" onclick="fillRegion(this)" />
    <path id="eyebrow_right" class="region" d="M 595.250 363.155 C 593.044 364.283, 592.198 367.386, 593.823 368.391 C 594.276 368.670, 597.369 369.338, 600.698 369.874 C 609.938 371.362, 619.728 376.780, 626.302 384.044 C 631.768 390.084, 634 390.896, 634 386.842 C 634 380.806, 624.982 370.342, 615.760 365.676 C 609.638 362.578, 598.947 361.264, 595.250 363.155" fill="none" fill-rule="evenodd" stroke="none" onclick="fillRegion(this)" />
    <path id="eyebrow_left" class="region" d="M 374.719 367.680 C 367.059 370.583, 359.252 376.965, 354.822 383.946 C 351.975 388.431, 351.040 394, 353.133 394 C 353.755 394, 356.888 391.137, 360.095 387.638 C 367.092 380.001, 377.462 374.368, 386.613 373.231 C 392.080 372.552, 392.523 372.304, 392.816 369.750 C 393.425 364.462, 385.581 363.564, 374.719 367.680" fill="none" fill-rule="evenodd" stroke="none" onclick="fillRegion(this)" />
    <path id="eye_right_outer" class="region" d="M 586.721 413.905 C 575.729 418.329, 565.837 429.290, 562.269 441 C 561.256 444.322, 560.574 450.064, 560.546 455.500 C 560.508 463.022, 560.975 465.792, 563.394 472.368 C 570.210 490.895, 588.841 502.342, 607.006 499.163 C 619.627 496.955, 631.627 488.532, 636.912 478.173 C 641.586 469.010, 643.267 455.210, 640.939 445.112 C 638.087 432.740, 628.180 420.246, 617.295 415.293 C 609.375 411.689, 593.966 410.990, 586.721 413.905" fill="none" fill-rule="evenodd" stroke="none" onclick="fillRegion(this)" />
    <path id="eye_left_outer" class="region" d="M 382 416.731 C 368.475 419.210, 354.110 434.429, 350.559 450.041 C 348.475 459.203, 348.595 465.077, 351.044 473.917 C 357.120 495.842, 377.440 508.314, 399.500 503.657 C 408.602 501.736, 414.624 498.253, 421.283 491.061 C 434.628 476.647, 436.120 452.487, 424.766 434.669 C 420.304 427.666, 410.848 420.365, 403.145 417.973 C 397.174 416.119, 388.208 415.593, 382 416.731" fill="none" fill-rule="evenodd" stroke="none" onclick="fillRegion(this)" />
    <path id="eye_right_iris" class="region" d="M 591.352 424.061 C 589.620 424.580, 586.807 426.594, 585.102 428.537 C 579.742 434.641, 581.460 442.642, 589.046 446.906 C 593.903 449.636, 598.858 449.570, 603.088 446.720 C 607.165 443.972, 608.968 440.692, 608.979 436 C 608.999 427.459, 600.109 421.438, 591.352 424.061" fill="none" fill-rule="evenodd" stroke="none" onclick="fillRegion(this)" />
    <path id="eye_left_iris" class="region" d="M 388.615 430.088 C 382.899 434.585, 381.671 440.474, 385.063 447.124 C 387.861 452.608, 393.699 455.304, 399.804 453.933 C 405.477 452.658, 407.701 451.150, 409.500 447.358 C 412.543 440.947, 410.225 433.937, 403.759 429.995 C 399.317 427.286, 392.121 427.331, 388.615 430.088" fill="none" fill-rule="evenodd" stroke="none" onclick="fillRegion(this)" />
    <path id="eye_right_pupil" class="region" d="M 604.084 466.894 C 600.560 471.344, 600.210 473.975, 602.829 476.345 C 605.478 478.742, 607.763 478.391, 611.077 475.077 C 614.394 471.760, 614.642 470.142, 612.474 465.950 C 610.396 461.931, 607.782 462.225, 604.084 466.894" fill="none" fill-rule="evenodd" stroke="none" onclick="fillRegion(this)" />
    <path id="eye_left_pupil" class="region" d="M 392.986 471.896 C 389.969 473.480, 386.840 475.921, 386.033 477.320 C 384.707 479.620, 384.746 480.061, 386.438 481.932 C 388.634 484.358, 391.832 484.594, 394.559 482.532 C 395.626 481.724, 397.480 481.049, 398.679 481.032 C 402.970 480.969, 406.683 474.180, 403.880 471.523 C 401.112 468.899, 398.525 468.988, 392.986 471.896" fill="none" fill-rule="evenodd" stroke="none" onclick="fillRegion(this)" />
    <path id="nose" class="region" d="M 493 475.647 C 483.620 478.704, 480.684 482.555, 483.533 488.063 C 485.036 490.971, 496.292 501, 498.052 501 C 498.573 501, 499 503.763, 499 507.140 C 499 514.836, 496.031 521.224, 490.632 525.145 C 481.659 531.660, 473.466 529.689, 465.088 519 C 463.270 516.680, 463.009 516.618, 461.461 518.139 C 459.171 520.390, 460.331 525.168, 464.251 529.633 C 467.279 533.082, 473.668 537, 476.263 537 C 477.043 537, 478.537 539.889, 479.823 543.881 C 486.130 563.466, 505.116 570.191, 518.759 557.674 C 523.347 553.464, 527.308 546.203, 528.510 539.801 C 529.026 537.050, 529.836 536.100, 532.482 535.143 C 539.532 532.593, 545.471 524.900, 544.809 519.174 C 544.318 514.924, 540.804 515.092, 538.718 519.464 C 535.723 525.747, 527.300 529.244, 520.540 527.013 C 512.490 524.356, 507.322 517.118, 506.931 507.950 L 506.698 502.500 513.355 495.648 C 520.667 488.123, 522.064 485.004, 519.883 481.069 C 517.480 476.733, 512.575 474.993, 503 475.081 C 498.325 475.123, 493.825 475.378, 493 475.647" fill="none" fill-rule="evenodd" stroke="none" onclick="fillRegion(this)" />
    <path id="carrot_leaves" class="region" d="M 727.500 479.189 C 720.881 482.667, 711.943 492.663, 707.530 501.526 C 702.808 511.009, 701.279 513.044, 699.417 512.330 C 698.650 512.035, 697.536 509.990, 696.942 507.785 C 695.350 501.873, 689.469 496.007, 684.461 495.335 C 675.460 494.128, 668.612 500.550, 665.357 513.252 C 663.846 519.149, 663.500 524.289, 663.500 540.821 C 663.500 559.392, 663.656 561.229, 665.310 562.154 C 666.306 562.711, 668.683 564.539, 670.594 566.216 C 672.504 567.894, 674.212 569.094, 674.389 568.883 C 674.566 568.672, 675.718 564.675, 676.948 560 C 680.305 547.243, 686.102 537.109, 694.735 528.908 C 702.233 521.784, 708.511 516.860, 713.250 514.385 C 718.439 511.675, 715.990 514.824, 706.532 523.025 C 696.289 531.905, 690.580 538.650, 686.662 546.500 C 684.275 551.282, 678 569.204, 678 571.239 C 678 572.471, 683.922 580, 684.891 580 C 685.289 580, 687.721 577.131, 690.296 573.623 C 696.641 564.983, 715.645 546.916, 726.567 539.141 C 731.480 535.644, 741.350 529.971, 748.500 526.533 C 770.301 516.053, 774.108 516.848, 753.500 527.577 C 747.450 530.727, 739.800 535.116, 736.500 537.330 C 723.639 545.960, 706.925 561.564, 692.674 578.245 L 687.926 583.802 690.560 587.651 C 692.009 589.768, 693.488 591.424, 693.847 591.331 C 694.206 591.239, 697.635 589.059, 701.467 586.488 C 721.463 573.072, 752.314 562.619, 775.750 561.318 C 785.565 560.774, 787 560.894, 787 562.262 C 787 563.492, 785.333 563.975, 779.250 564.506 C 755.569 566.573, 729.311 575.461, 705.522 589.461 L 696.065 595.027 698.782 599.525 C 700.279 602.003, 702.049 603.811, 702.725 603.552 C 707.078 601.882, 726.459 599, 733.341 599 C 745.143 599, 761.538 603.623, 765.582 608.090 C 768.553 611.373, 766.429 611.333, 758.313 607.953 C 751.121 604.958, 749.427 604.663, 737 604.248 C 727.243 603.922, 720.879 604.251, 714.049 605.433 C 708.850 606.333, 704.400 607.266, 704.159 607.507 C 703.918 607.748, 704.633 610.050, 705.746 612.623 C 707.718 617.178, 707.967 617.359, 715.136 619.465 C 719.186 620.654, 728.125 624.251, 735 627.457 C 758.082 638.222, 770.763 640.955, 782.199 637.630 C 788.205 635.884, 793.415 631.179, 794.609 626.421 C 796.501 618.882, 791.776 609.117, 782.986 602.401 C 774.601 595.995, 775.275 594.810, 788.115 593.387 C 819.450 589.914, 835.900 579.837, 835.978 564.066 C 836.024 554.721, 829.046 546.495, 817.153 541.875 C 811.635 539.732, 802.237 539.252, 785.523 540.260 C 779.787 540.606, 779.861 538.245, 785.734 533.514 C 799.570 522.367, 804.080 509.292, 797.244 500.144 C 794.085 495.916, 789.552 494, 782.710 494 C 774.489 494, 766.225 496.930, 757 503.117 C 746.848 509.925, 745.322 509.331, 749 500 C 752.499 491.123, 751.181 482.342, 745.783 478.561 C 742.451 476.227, 732.487 476.570, 727.500 479.189" fill="none" fill-rule="evenodd" stroke="none" onclick="fillRegion(this)" />
    <path id="mouth" class="region" d="M 492.010 482.488 C 490.155 484.723, 493.091 485.530, 502.367 485.333 C 510.137 485.169, 512.863 484.206, 511.554 482.087 C 510.465 480.325, 493.517 480.672, 492.010 482.488" fill="none" fill-rule="evenodd" stroke="none" onclick="fillRegion(this)" />
    <path id="mouth_inner" class="region" d="M 503 528.667 C 503 529.583, 502.749 530.082, 502.442 529.775 C 502.134 529.468, 499.348 530.743, 496.250 532.608 C 493.152 534.474, 490.141 536.007, 489.559 536.015 C 488.976 536.024, 487.896 536.414, 487.157 536.882 C 485.339 538.034, 489.749 547.428, 494.037 551.535 C 496.748 554.132, 497.858 554.500, 502.992 554.500 C 510.369 554.500, 513.512 552.391, 517.218 544.954 C 520.309 538.751, 520.691 536, 518.460 536 C 516.046 536, 509.744 532.456, 507.076 529.597 C 504.274 526.596, 503 526.305, 503 528.667" fill="none" fill-rule="evenodd" stroke="none" onclick="fillRegion(this)" />
    <path id="carrot_body" class="region" d="M 621 563.406 C 597.984 568.962, 572.857 584.297, 538.500 613.756 C 526.378 624.150, 493.999 654.765, 494.002 655.829 C 494.004 656.198, 496.977 658.300, 500.610 660.500 C 508.111 665.042, 514.004 671.203, 517.829 678.500 C 519.968 682.581, 520.454 684.878, 520.475 691 C 520.496 697.435, 520.103 699.175, 517.708 703.250 C 516.172 705.862, 514.485 708, 513.958 708 C 513.431 708, 513 709.492, 513 711.316 C 513 717.785, 510.784 726.579, 507.682 732.422 C 503.681 739.959, 495.431 746.354, 487.615 747.976 C 483.475 748.836, 481.232 750.079, 477.680 753.482 C 471.773 759.142, 463.725 761.689, 447.187 763.134 C 435.678 764.139, 422.305 763.438, 415.496 761.474 C 413.878 761.007, 412.681 762.131, 409.270 767.319 C 395.084 788.895, 385 813.604, 385 826.787 C 385 843.405, 395.959 848.776, 420.099 843.990 C 456.693 836.735, 514.837 808.226, 569 770.981 C 582.210 761.897, 601.307 747.720, 605.719 743.721 L 607.938 741.710 605.096 738.105 C 600.715 732.549, 598.008 727.709, 598.004 725.424 C 598.002 724.283, 596.815 722.258, 595.368 720.924 C 588.847 714.919, 586.076 701.705, 589.376 692.351 C 591.901 685.194, 599.372 675.773, 605.412 672.128 C 609.081 669.914, 611 668.097, 611 666.838 C 611 663.566, 614.767 657.338, 618.721 654.073 C 624.576 649.237, 631.649 647.387, 639.266 648.696 C 645.213 649.719, 645.605 649.659, 647.782 647.393 C 654.571 640.327, 663.642 639.618, 675.188 645.250 C 679.417 647.313, 683.372 649, 683.978 649 C 684.584 649, 686.915 649.936, 689.159 651.081 C 691.402 652.226, 693.579 652.788, 693.996 652.331 C 694.412 651.874, 695.709 648.686, 696.877 645.246 C 701.888 630.486, 698.248 615.184, 685.518 597.500 C 667.841 572.941, 653.685 563.105, 635.003 562.400 C 630.183 562.218, 624.117 562.654, 621 563.406" fill="none" fill-rule="evenodd" stroke="none" onclick="fillRegion(this)" />
    <path id="carrot_white" class="region" d="M 658.364 653.170 C 655.068 654.766, 653.641 658.720, 655.095 662.230 C 656.106 664.669, 656.035 665.394, 654.652 666.777 C 653.124 668.304, 652.692 668.114, 648.636 664.134 C 643.901 659.487, 639.337 658.151, 632.542 659.426 C 624.606 660.915, 617.888 671.012, 621.874 675.460 C 625.054 679.008, 625.157 679.851, 622.610 681.520 C 620.538 682.878, 619.537 682.941, 616.162 681.930 C 612.607 680.865, 611.792 680.966, 608.756 682.842 C 604.833 685.267, 600.370 692.812, 599.462 698.557 C 598.726 703.211, 601.152 711.362, 604.286 714.761 C 605.432 716.005, 608.087 717.485, 610.185 718.050 C 614.731 719.274, 615.499 722.407, 611.500 723.411 C 610.125 723.756, 609 724.499, 609 725.062 C 609 727.464, 618.438 735.938, 624.266 738.769 C 639.438 746.137, 657.043 745.421, 673.276 736.775 C 680.568 732.890, 691.465 722.237, 695.240 715.300 C 702.480 701.998, 702.844 687.186, 696.271 673.282 C 693.388 667.182, 686.094 659, 683.540 659 C 682.258 659, 682.344 659.844, 684.103 664.546 C 687.897 674.686, 683.902 676.362, 678.809 666.768 C 676.989 663.340, 673.665 658.615, 671.421 656.268 C 668.122 652.815, 666.690 652.013, 663.921 652.068 C 662.040 652.105, 659.539 652.601, 658.364 653.170" fill="none" fill-rule="evenodd" stroke="none" onclick="fillRegion(this)" />
    <path id="belly" class="region" d="M 349.942 731.948 C 338.903 735.298, 327.008 748.122, 322.790 761.223 C 321.041 766.653, 320.800 768.433, 321.771 768.757 C 324.920 769.807, 335.616 778.851, 342.839 786.571 C 351.333 795.650, 364.357 813.517, 369.508 823.159 L 372.676 829.088 373.818 821.012 C 374.446 816.570, 376.379 808.787, 378.114 803.718 C 381.219 794.640, 391.533 773.135, 397.330 763.650 C 400.528 758.418, 400.292 757.680, 395 756.358 C 388.968 754.850, 368.097 743.216, 360.864 737.328 C 356.587 733.848, 352.956 731.039, 352.794 731.086 C 352.632 731.133, 351.349 731.521, 349.942 731.948" fill="none" fill-rule="evenodd" stroke="none" onclick="fillRegion(this)" />
    <path id="lap" class="region" d="M 612 753.613 C 580.283 779.426, 529.371 811.841, 493.500 829.061 C 444.017 852.814, 412.519 860.997, 393.181 855.124 C 389.287 853.941, 385.827 852.529, 385.492 851.987 C 385.156 851.444, 384.519 851, 384.075 851 C 383.632 851, 384.125 853.587, 385.171 856.750 C 393.683 882.471, 394.394 900.810, 387.518 917.250 C 386.550 919.563, 388.082 919.518, 398.863 916.914 C 411.607 913.835, 425.963 906.179, 433.742 898.312 C 441.057 890.914, 443.728 890.231, 444.190 895.640 L 444.500 899.280 454.465 901.671 C 477.200 907.127, 506.507 909.756, 525.480 908.041 C 540.574 906.676, 552.575 904.780, 560.189 902.556 C 565.124 901.114, 565.919 900.536, 566.189 898.197 C 566.427 896.135, 567.114 895.429, 569.107 895.197 C 571.211 894.953, 571.962 895.493, 572.999 897.997 C 574.508 901.641, 580.193 905.770, 590.256 910.532 C 597.948 914.172, 611.385 917.959, 616.697 917.985 L 619.895 918 616.754 911.287 C 613.959 905.316, 613.565 903.340, 613.185 893.396 C 612.682 880.273, 613.839 872.520, 618.539 857.500 C 628.428 825.901, 653.311 790.314, 679.760 769.945 L 683.019 767.434 679.102 759.333 C 676.947 754.877, 674.715 750.942, 674.143 750.588 C 673.570 750.234, 670.491 750.820, 667.301 751.890 C 664.110 752.960, 657.805 754.398, 653.289 755.085 C 643.698 756.544, 634.498 755.368, 624.422 751.396 C 621.078 750.078, 618.153 749.031, 617.922 749.068 C 617.690 749.106, 615.025 751.151, 612 753.613" fill="none" fill-rule="evenodd" stroke="none" onclick="fillRegion(this)" />
    <path id="foot_right" class="region" d="M 733.236 763.979 C 729.576 764.847, 724.453 768.139, 718.511 773.441 C 714.824 776.730, 711 778.124, 711 776.178 C 711 775.726, 712.337 773.589, 713.972 771.428 C 715.607 769.268, 716.957 767.163, 716.972 766.750 C 716.987 766.337, 715.087 766.011, 712.750 766.024 C 697.419 766.109, 668.284 789.630, 650.754 816.074 C 627.034 851.855, 617.972 883.183, 624.954 905.273 C 626.696 910.785, 628.164 913.139, 632.842 917.919 C 640.394 925.638, 647.370 928, 662.610 928 C 672.313 928, 673.763 927.723, 684.255 923.873 C 708.696 914.904, 726.535 903.552, 744.503 885.536 C 762.510 867.480, 774.677 848.074, 779.936 829.020 C 782.214 820.763, 782.744 806.100, 780.936 801.315 C 779.851 798.443, 775.231 793, 773.878 793 C 773.466 793, 772.560 794.575, 771.864 796.500 C 770.423 800.483, 769.926 800.695, 767.760 798.250 C 766.480 796.806, 766.373 795.436, 767.150 790.408 C 767.958 785.177, 767.794 783.524, 765.990 778.703 C 761.748 767.364, 746.971 760.721, 733.236 763.979" fill="none" fill-rule="evenodd" stroke="none" onclick="fillRegion(this)" />
    <path id="foot_left" class="region" d="M 266.134 767.280 C 264.283 767.872, 260.659 770.413, 258.081 772.928 C 252.053 778.808, 250.465 784.028, 251.377 794.968 C 251.845 800.577, 251.694 803.071, 250.856 803.589 C 249.340 804.526, 246.051 800.503, 245.312 796.812 C 244.601 793.256, 243.784 793.279, 240.703 796.942 C 233.157 805.909, 235.232 830.494, 245.223 850.500 C 266.774 893.654, 308.259 926.643, 346.015 930.650 C 352.940 931.385, 362.674 929.018, 368.359 925.216 C 373.585 921.722, 379.389 913.157, 380.865 906.764 C 382.657 899.001, 382.261 882.641, 380.060 873.500 C 370.424 833.481, 337.030 786.284, 309 773.067 C 303.134 770.301, 298 769.121, 298 770.540 C 298 770.837, 298.900 772.844, 300 775 C 304.254 783.339, 300.979 783.152, 292.700 774.583 C 288.286 770.014, 285.348 767.856, 282.500 767.089 C 277.586 765.765, 270.620 765.846, 266.134 767.280" fill="none" fill-rule="evenodd" stroke="none" onclick="fillRegion(this)" />
</g>
<g id="outlines" fill="none" stroke="#111111" stroke-width="3" stroke-linejoin="round" stroke-linecap="round" pointer-events="none">
    <path d="M 665.075 40.087 C 642.564 44.504, 617.476 61.609, 597.734 86 C 577.320 111.220, 558.644 149.172, 549.014 185 C 543.102 206.998, 539.924 220.629, 538.823 228.711 L 537.595 237.724 527.048 238.369 C 521.246 238.723, 510.669 240.135, 503.542 241.507 C 496.416 242.878, 490.401 244, 490.176 244 C 489.951 244, 491.395 242.199, 493.384 239.997 C 497.569 235.364, 497.945 232.237, 494.686 229.174 C 488.476 223.341, 461.550 229.657, 444.384 240.973 C 441.627 242.790, 441.122 242.852, 440.011 241.514 C 437.966 239.049, 433.544 239.769, 428.060 243.459 L 422.920 246.919 421.960 244.394 C 421.432 243.006, 421 241.261, 421 240.516 C 421 235.891, 407.650 197.852, 399.823 180.175 C 374.488 122.961, 338.375 78.836, 301.805 60.415 C 286.916 52.915, 275.881 49.990, 262.566 50.012 C 237.239 50.054, 215.380 68.278, 206.205 97 C 202.156 109.674, 201.499 114.967, 201.548 134.500 C 201.587 150.150, 202.005 155.616, 203.923 165.500 C 214.514 220.098, 245.568 272.177, 292.491 314.035 L 303.862 324.179 297.002 334.339 C 272.396 370.780, 258.291 411.850, 254.876 457 C 254.272 464.975, 254.032 475.212, 254.341 479.750 C 254.855 487.299, 254.746 488, 253.062 488 C 249.372 488, 232.718 492.837, 231.887 494.150 C 230.042 497.065, 231.733 497.498, 243.621 497.151 L 255.574 496.803 257.352 506.075 C 258.329 511.174, 259.763 517.181, 260.537 519.423 C 261.378 521.860, 261.557 523.633, 260.980 523.831 C 260.450 524.012, 255.741 526.358, 250.516 529.042 C 235.180 536.921, 225.812 545, 232.012 545 C 233.118 545, 240.726 542.300, 248.919 539 C 257.112 535.700, 264.237 533, 264.754 533 C 265.271 533, 267.675 536.711, 270.097 541.247 C 285.578 570.247, 311.833 593.257, 346.491 608.200 C 352.557 610.815, 357.368 613.467, 357.206 614.106 C 357.044 614.744, 354.971 618.018, 352.599 621.383 C 330.091 653.309, 325.410 690.371, 340.683 715.734 C 342.526 718.795, 343.914 721.358, 343.767 721.429 C 343.620 721.501, 341.704 722.378, 339.510 723.378 C 327.489 728.857, 313.667 745.598, 311.462 757.349 C 310.787 760.949, 310.627 761.076, 307.629 760.405 C 305.908 760.019, 301.800 759.630, 298.500 759.541 C 295.200 759.452, 289.415 758.394, 285.645 757.189 C 272.846 753.102, 260.975 755.295, 252.220 763.365 C 247.341 767.862, 242.024 776.311, 242.009 779.590 C 242.004 780.825, 240.591 782.683, 238.558 784.129 C 233.128 787.993, 229.458 793.355, 226.990 801.031 C 224.981 807.279, 224.779 809.413, 225.305 818.815 C 227.978 866.638, 276.033 922.964, 327.500 938.601 C 335.136 940.921, 338.318 941.338, 348.500 941.353 C 361.608 941.372, 367.081 940.057, 374.500 935.104 C 377.507 933.097, 380.859 932.104, 388 931.105 C 405.898 928.603, 424.635 921.687, 434.915 913.789 L 439.330 910.397 450.338 913.171 C 474.586 919.283, 508.469 922.222, 530 920.081 C 541.894 918.898, 561.130 915.658, 566.657 913.907 C 569.463 913.017, 570.455 913.316, 575.576 916.592 C 587.444 924.183, 602.349 928.840, 617.500 929.689 C 626.048 930.168, 628.517 930.729, 634.500 933.548 C 644.163 938.101, 651.799 939.386, 665.289 938.731 C 678.800 938.075, 689.975 935.049, 704.500 928.112 C 729.350 916.244, 752.458 897.381, 768.937 875.513 C 777.964 863.534, 788.239 842.689, 790.990 830.776 C 794.301 816.435, 793.668 803.830, 789.180 794.713 C 787.343 790.982, 784.236 786.645, 782.073 784.792 C 779.703 782.762, 777.828 780.045, 777.183 777.703 C 771.905 758.567, 748.925 747.470, 729.077 754.473 C 726.620 755.340, 722.422 755.606, 716.448 755.274 C 707.678 754.787, 704.777 755.350, 694.809 759.470 C 693.488 760.016, 692.531 759.004, 690.424 754.834 C 688.942 751.900, 686.893 748.430, 685.870 747.122 L 684.010 744.743 688.708 740.622 C 696.380 733.891, 697.454 732.760, 701.766 726.869 C 714.754 709.124, 716.391 685.367, 706.025 665.049 L 703.804 660.695 706.365 654.097 C 709.511 645.994, 710.943 639.829, 710.976 634.250 C 710.989 631.866, 711.478 630, 712.089 630 C 712.688 630, 719.101 632.752, 726.339 636.116 C 743.666 644.168, 754.576 647.851, 765.253 649.254 C 783.885 651.703, 798.736 645.530, 804.302 633.023 C 808.311 624.015, 805.833 608.798, 799.653 604.470 C 797.573 603.013, 797.573 603, 799.589 603 C 803.576 603, 817.332 598.862, 823.366 595.847 C 837.517 588.778, 844.796 580.799, 846.913 570.036 C 850.233 553.162, 839.569 537.477, 820.698 531.480 C 816.407 530.116, 811.372 529, 809.507 529 C 807.643 529, 805.840 528.550, 805.500 528 C 805.160 527.450, 805.303 527, 805.818 527 C 806.333 527, 807.808 524.638, 809.096 521.750 C 812.191 514.813, 812.254 504.345, 809.235 498.500 C 806.778 493.742, 800.857 487.905, 796.008 485.459 C 788.746 481.797, 773.054 482.622, 765.250 487.077 C 762.233 488.800, 762 488.810, 761.994 487.216 C 761.971 479.942, 754.591 470.178, 747.124 467.544 C 742.294 465.840, 733.176 465.516, 728.421 466.879 L 725.355 467.759 723.666 453.129 C 720.548 426.115, 709.389 390.271, 696.697 366.500 C 689.924 353.816, 674.992 329.547, 673.009 328 C 672.656 327.725, 670.988 325.475, 669.300 323 C 667.613 320.525, 665.280 317.643, 664.116 316.595 C 662.952 315.547, 662 314.347, 662 313.929 C 662 313.510, 665.557 309.417, 669.904 304.834 C 711.254 261.239, 740.202 205.128, 745.915 157.500 C 747.463 144.592, 747.250 124.458, 745.436 112.128 C 740.730 80.159, 724.190 54.050, 702.592 44.498 C 691.123 39.426, 676.943 37.759, 665.075 40.087" />
    <path d="M 666.894 52.504 C 640.920 57.680, 613.405 80.898, 592.225 115.511 C 573.661 145.849, 558.499 188.302, 550.508 232.317 C 549.129 239.916, 547.999 247.791, 547.998 249.817 L 547.996 253.500 553.748 253.500 C 559.210 253.500, 559.500 253.625, 559.500 255.989 C 559.500 258.232, 558.882 258.612, 553.250 259.826 C 547.372 261.093, 547 261.342, 547 264.005 C 547 270.361, 544.856 271.604, 540.989 267.489 C 539.692 266.108, 536.801 264.502, 534.565 263.921 C 532.329 263.341, 528.813 262.428, 526.750 261.894 C 524.684 261.359, 523 260.300, 523 259.535 C 523 258.771, 525.231 256.426, 527.957 254.323 C 530.684 252.220, 532.934 250.141, 532.957 249.702 C 532.981 249.263, 531.313 249.124, 529.250 249.393 C 527.188 249.662, 523.025 250.172, 520 250.525 C 514.265 251.195, 503.797 252.933, 488.500 255.754 C 483.550 256.667, 477.700 257.434, 475.500 257.457 C 471.828 257.496, 471.523 257.297, 471.778 255.028 C 471.930 253.668, 474.307 249.623, 477.060 246.039 C 479.812 242.454, 481.616 239.372, 481.069 239.190 C 480.522 239.007, 476.570 239.815, 472.287 240.985 C 463.148 243.481, 447.922 251.291, 439.678 257.712 C 432.168 263.560, 430.648 263.684, 430 258.500 L 429.500 254.500 427.336 258.161 C 426.146 260.175, 424.256 263.893, 423.137 266.423 C 419.911 273.717, 415.658 273.582, 414.469 266.150 C 412.862 256.096, 407.141 234.762, 401.908 219.311 C 382.775 162.812, 355.681 118.651, 322.180 89.363 C 285.121 56.963, 249.007 53.324, 228.560 79.929 C 220.086 90.955, 216.156 102.041, 213.929 121.194 C 211.232 144.389, 216.573 176.228, 227.734 203.500 C 241.672 237.559, 258.861 262.974, 286.946 291.048 C 296.601 300.700, 307.988 311.448, 312.250 314.933 C 317.087 318.888, 320 322, 320 323.213 C 320 324.283, 317.813 327.710, 315.139 330.829 C 299.243 349.377, 284.085 379.986, 275.065 411.757 C 269.465 431.483, 267.913 442.418, 267.289 466.551 L 266.744 487.602 274.246 488.768 C 278.372 489.409, 284.167 490.737, 287.124 491.717 C 291.716 493.240, 292.500 493.864, 292.500 496 C 292.500 498.264, 292.122 498.492, 288.500 498.419 C 286.300 498.374, 280.737 497.968, 276.137 497.516 L 267.774 496.694 268.458 500.097 C 268.834 501.969, 269.837 506.200, 270.687 509.500 C 271.537 512.800, 272.452 516.486, 272.721 517.691 C 273.191 519.794, 273.642 519.875, 283.855 519.691 L 294.500 519.500 294.500 522 C 294.500 524.309, 293.869 524.647, 286.250 526.428 C 281.712 527.489, 278 528.784, 278 529.307 C 278 529.829, 279.446 532.786, 281.213 535.878 C 293.079 556.643, 311.172 574.801, 332.405 587.254 C 349.956 597.547, 374.795 606.590, 405.500 613.864 C 407.573 614.355, 408.500 615.181, 408.500 616.537 C 408.500 618.391, 407.863 618.483, 397.077 618.198 C 390.794 618.032, 382.815 617.302, 379.346 616.574 L 373.038 615.252 368.566 620.033 C 359.407 629.825, 349.420 648.952, 345.984 663.283 C 342.271 678.770, 343.983 695.913, 350.386 707.363 C 361.161 726.630, 383.213 741.488, 412.444 749.175 C 423.631 752.117, 446.947 752.898, 455.809 750.627 C 463.574 748.638, 472 745.078, 472 743.787 C 472 743.256, 470.988 741.989, 469.750 740.973 C 467.929 739.478, 467.710 738.779, 468.602 737.313 C 469.972 735.060, 473.611 734.432, 475.622 736.102 C 476.454 736.792, 479.274 737.389, 481.888 737.428 C 490.579 737.559, 499.358 729.016, 500.167 719.642 C 500.480 716.010, 500.294 715.716, 497 714.642 C 492.445 713.156, 492.176 709.942, 496.500 708.656 C 501.957 707.033, 504.474 705.234, 506.734 701.345 C 512.400 691.590, 507.170 677.504, 495.020 669.797 C 486.409 664.335, 468.470 660.089, 447.500 658.550 C 443.100 658.227, 436.416 657.310, 432.646 656.512 C 420.452 653.931, 406.525 646.195, 408.454 643.074 C 409.502 641.379, 412.321 641.800, 418.317 644.545 C 423.352 646.850, 425.717 647.178, 443.426 648.021 C 454.179 648.534, 467.144 649.657, 472.238 650.518 L 481.500 652.083 497 636.732 C 533.899 600.188, 566.288 574.823, 592.500 561.943 C 606.687 554.972, 614.400 552.430, 626.227 550.828 C 634.579 549.697, 640.749 550.162, 649.642 552.592 C 651.767 553.172, 651.788 553.020, 652.247 533.838 C 652.652 516.916, 652.998 513.688, 655.017 508 C 657.759 500.277, 660.508 495.690, 665.109 491.164 C 670.216 486.140, 673.783 484.607, 680.500 484.551 C 688.501 484.483, 691.324 485.394, 695.888 489.518 L 699.725 492.985 703.442 486.964 C 705.486 483.652, 708.247 480.229, 709.579 479.356 C 710.911 478.484, 712 477.147, 712 476.385 C 712 474.685, 712.440 474.672, 704.956 476.590 C 699.669 477.944, 698.546 477.975, 697.366 476.794 C 695.088 474.517, 697.719 472.235, 705.500 469.739 L 712.500 467.494 712.165 460.497 C 711.546 447.587, 708.032 430.541, 702.064 411.500 C 692.004 379.398, 667.918 336.786, 650.088 319.547 C 647.840 317.373, 646 314.659, 646 313.516 C 646 312.292, 648.505 308.984, 652.093 305.469 C 659.155 298.551, 673.388 282.392, 680.691 273 C 707.281 238.803, 724.288 203.687, 731.575 167.937 C 735.212 150.100, 735.890 126.638, 733.208 111.500 C 729.009 87.803, 718.341 69.014, 703.167 58.590 C 697.980 55.027, 684.422 50.967, 678.137 51.094 C 675.587 51.146, 670.527 51.780, 666.894 52.504" />
    <path d="M 670.487 103.746 C 661.877 106.814, 656.661 110.556, 647.196 120.457 C 627.128 141.448, 607.981 177.202, 592.869 221.904 C 587.851 236.747, 582.756 256.104, 581.180 266.314 C 580.421 271.233, 580.551 272.458, 582.024 274.278 C 583.618 276.246, 584.008 276.311, 586.633 275.045 C 588.210 274.285, 590.175 273.745, 591 273.845 C 591.931 273.959, 593.236 272.220, 594.439 269.264 C 598.692 258.813, 605.477 250.511, 611.806 248.015 C 616.242 246.265, 617.500 247.654, 617.500 254.300 C 617.500 260.230, 614.175 269.402, 609.833 275.449 C 607.802 278.277, 607.307 279.696, 608.088 280.449 C 609.724 282.025, 617.632 272.599, 620.014 266.234 C 625.996 250.245, 621.371 239.475, 609.988 242.885 C 605.967 244.090, 598.198 250.718, 594.687 255.940 C 593.784 257.281, 592.842 258.175, 592.592 257.925 C 591.318 256.651, 603.222 218.351, 609.663 203 C 630.770 152.692, 650.788 123.437, 670.762 113.704 C 682.267 108.098, 689.706 112.839, 692.877 127.799 C 695.128 138.421, 693.623 156.676, 689.028 174.467 C 681.918 201.999, 664.802 234.476, 645.005 258 C 635.926 268.788, 624.077 280.097, 617 284.729 C 610.483 288.994, 609.832 289.818, 611.105 292.196 C 612.493 294.789, 614.504 294.450, 620.869 290.550 C 632.120 283.656, 647.260 268.711, 659.921 252 C 691.032 210.938, 708.788 154.419, 700.477 122.912 C 696.379 107.379, 683.461 99.123, 670.487 103.746" />
    <path d="M 266.766 115.115 C 250.151 117.622, 243.998 141.142, 251.623 173 C 256.567 193.655, 268.516 222.024, 278.159 236 C 280.626 239.575, 284.538 245.275, 286.852 248.666 C 300.826 269.138, 330.090 294.893, 346.526 301.183 C 352.665 303.532, 355.294 303.084, 354.820 299.768 C 354.591 298.167, 352.618 296.524, 347.907 294.014 C 336.767 288.076, 328.051 281.193, 314.426 267.571 C 289.301 242.451, 272.378 214.768, 262.887 183.260 C 254.277 154.677, 255.233 130.428, 265.203 124.539 C 274.491 119.053, 295.751 133.615, 314.118 158.043 C 326.231 174.153, 340.531 197.466, 349.362 215.500 C 358.356 233.868, 369.737 262.015, 368.160 261.989 C 367.797 261.983, 365.700 260.286, 363.500 258.218 C 356.651 251.780, 349.138 248.247, 344.677 249.366 C 340.102 250.514, 338 253.678, 338 259.413 C 338 267.574, 341.785 276.131, 348.653 283.500 C 355.620 290.975, 358.847 290.360, 353.036 282.664 C 345.630 272.854, 341.158 259.924, 343.992 256.510 C 348.219 251.416, 361.581 260.984, 367.719 273.500 C 369.575 277.284, 370.890 278.872, 371.860 278.500 C 372.641 278.201, 373.918 278.865, 374.697 279.978 C 376.409 282.422, 380.813 282.652, 381.699 280.342 C 383.319 276.120, 376.740 254.873, 366.265 230.500 C 348.899 190.093, 325.347 152.932, 304.630 133.254 C 289.685 119.057, 277.938 113.430, 266.766 115.115" />
    <path d="M 595.250 363.155 C 593.044 364.283, 592.198 367.386, 593.823 368.391 C 594.276 368.670, 597.369 369.338, 600.698 369.874 C 609.938 371.362, 619.728 376.780, 626.302 384.044 C 631.768 390.084, 634 390.896, 634 386.842 C 634 380.806, 624.982 370.342, 615.760 365.676 C 609.638 362.578, 598.947 361.264, 595.250 363.155" />
    <path d="M 374.719 367.680 C 367.059 370.583, 359.252 376.965, 354.822 383.946 C 351.975 388.431, 351.040 394, 353.133 394 C 353.755 394, 356.888 391.137, 360.095 387.638 C 367.092 380.001, 377.462 374.368, 386.613 373.231 C 392.080 372.552, 392.523 372.304, 392.816 369.750 C 393.425 364.462, 385.581 363.564, 374.719 367.680" />
    <path d="M 586.721 413.905 C 575.729 418.329, 565.837 429.290, 562.269 441 C 561.256 444.322, 560.574 450.064, 560.546 455.500 C 560.508 463.022, 560.975 465.792, 563.394 472.368 C 570.210 490.895, 588.841 502.342, 607.006 499.163 C 619.627 496.955, 631.627 488.532, 636.912 478.173 C 641.586 469.010, 643.267 455.210, 640.939 445.112 C 638.087 432.740, 628.180 420.246, 617.295 415.293 C 609.375 411.689, 593.966 410.990, 586.721 413.905" />
    <path d="M 382 416.731 C 368.475 419.210, 354.110 434.429, 350.559 450.041 C 348.475 459.203, 348.595 465.077, 351.044 473.917 C 357.120 495.842, 377.440 508.314, 399.500 503.657 C 408.602 501.736, 414.624 498.253, 421.283 491.061 C 434.628 476.647, 436.120 452.487, 424.766 434.669 C 420.304 427.666, 410.848 420.365, 403.145 417.973 C 397.174 416.119, 388.208 415.593, 382 416.731" />
    <path d="M 591.352 424.061 C 589.620 424.580, 586.807 426.594, 585.102 428.537 C 579.742 434.641, 581.460 442.642, 589.046 446.906 C 593.903 449.636, 598.858 449.570, 603.088 446.720 C 607.165 443.972, 608.968 440.692, 608.979 436 C 608.999 427.459, 600.109 421.438, 591.352 424.061" />
    <path d="M 388.615 430.088 C 382.899 434.585, 381.671 440.474, 385.063 447.124 C 387.861 452.608, 393.699 455.304, 399.804 453.933 C 405.477 452.658, 407.701 451.150, 409.500 447.358 C 412.543 440.947, 410.225 433.937, 403.759 429.995 C 399.317 427.286, 392.121 427.331, 388.615 430.088" />
    <path d="M 604.084 466.894 C 600.560 471.344, 600.210 473.975, 602.829 476.345 C 605.478 478.742, 607.763 478.391, 611.077 475.077 C 614.394 471.760, 614.642 470.142, 612.474 465.950 C 610.396 461.931, 607.782 462.225, 604.084 466.894" />
    <path d="M 392.986 471.896 C 389.969 473.480, 386.840 475.921, 386.033 477.320 C 384.707 479.620, 384.746 480.061, 386.438 481.932 C 388.634 484.358, 391.832 484.594, 394.559 482.532 C 395.626 481.724, 397.480 481.049, 398.679 481.032 C 402.970 480.969, 406.683 474.180, 403.880 471.523 C 401.112 468.899, 398.525 468.988, 392.986 471.896" />
    <path d="M 493 475.647 C 483.620 478.704, 480.684 482.555, 483.533 488.063 C 485.036 490.971, 496.292 501, 498.052 501 C 498.573 501, 499 503.763, 499 507.140 C 499 514.836, 496.031 521.224, 490.632 525.145 C 481.659 531.660, 473.466 529.689, 465.088 519 C 463.270 516.680, 463.009 516.618, 461.461 518.139 C 459.171 520.390, 460.331 525.168, 464.251 529.633 C 467.279 533.082, 473.668 537, 476.263 537 C 477.043 537, 478.537 539.889, 479.823 543.881 C 486.130 563.466, 505.116 570.191, 518.759 557.674 C 523.347 553.464, 527.308 546.203, 528.510 539.801 C 529.026 537.050, 529.836 536.100, 532.482 535.143 C 539.532 532.593, 545.471 524.900, 544.809 519.174 C 544.318 514.924, 540.804 515.092, 538.718 519.464 C 535.723 525.747, 527.300 529.244, 520.540 527.013 C 512.490 524.356, 507.322 517.118, 506.931 507.950 L 506.698 502.500 513.355 495.648 C 520.667 488.123, 522.064 485.004, 519.883 481.069 C 517.480 476.733, 512.575 474.993, 503 475.081 C 498.325 475.123, 493.825 475.378, 493 475.647" />
    <path d="M 727.500 479.189 C 720.881 482.667, 711.943 492.663, 707.530 501.526 C 702.808 511.009, 701.279 513.044, 699.417 512.330 C 698.650 512.035, 697.536 509.990, 696.942 507.785 C 695.350 501.873, 689.469 496.007, 684.461 495.335 C 675.460 494.128, 668.612 500.550, 665.357 513.252 C 663.846 519.149, 663.500 524.289, 663.500 540.821 C 663.500 559.392, 663.656 561.229, 665.310 562.154 C 666.306 562.711, 668.683 564.539, 670.594 566.216 C 672.504 567.894, 674.212 569.094, 674.389 568.883 C 674.566 568.672, 675.718 564.675, 676.948 560 C 680.305 547.243, 686.102 537.109, 694.735 528.908 C 702.233 521.784, 708.511 516.860, 713.250 514.385 C 718.439 511.675, 715.990 514.824, 706.532 523.025 C 696.289 531.905, 690.580 538.650, 686.662 546.500 C 684.275 551.282, 678 569.204, 678 571.239 C 678 572.471, 683.922 580, 684.891 580 C 685.289 580, 687.721 577.131, 690.296 573.623 C 696.641 564.983, 715.645 546.916, 726.567 539.141 C 731.480 535.644, 741.350 529.971, 748.500 526.533 C 770.301 516.053, 774.108 516.848, 753.500 527.577 C 747.450 530.727, 739.800 535.116, 736.500 537.330 C 723.639 545.960, 706.925 561.564, 692.674 578.245 L 687.926 583.802 690.560 587.651 C 692.009 589.768, 693.488 591.424, 693.847 591.331 C 694.206 591.239, 697.635 589.059, 701.467 586.488 C 721.463 573.072, 752.314 562.619, 775.750 561.318 C 785.565 560.774, 787 560.894, 787 562.262 C 787 563.492, 785.333 563.975, 779.250 564.506 C 755.569 566.573, 729.311 575.461, 705.522 589.461 L 696.065 595.027 698.782 599.525 C 700.279 602.003, 702.049 603.811, 702.725 603.552 C 707.078 601.882, 726.459 599, 733.341 599 C 745.143 599, 761.538 603.623, 765.582 608.090 C 768.553 611.373, 766.429 611.333, 758.313 607.953 C 751.121 604.958, 749.427 604.663, 737 604.248 C 727.243 603.922, 720.879 604.251, 714.049 605.433 C 708.850 606.333, 704.400 607.266, 704.159 607.507 C 703.918 607.748, 704.633 610.050, 705.746 612.623 C 707.718 617.178, 707.967 617.359, 715.136 619.465 C 719.186 620.654, 728.125 624.251, 735 627.457 C 758.082 638.222, 770.763 640.955, 782.199 637.630 C 788.205 635.884, 793.415 631.179, 794.609 626.421 C 796.501 618.882, 791.776 609.117, 782.986 602.401 C 774.601 595.995, 775.275 594.810, 788.115 593.387 C 819.450 589.914, 835.900 579.837, 835.978 564.066 C 836.024 554.721, 829.046 546.495, 817.153 541.875 C 811.635 539.732, 802.237 539.252, 785.523 540.260 C 779.787 540.606, 779.861 538.245, 785.734 533.514 C 799.570 522.367, 804.080 509.292, 797.244 500.144 C 794.085 495.916, 789.552 494, 782.710 494 C 774.489 494, 766.225 496.930, 757 503.117 C 746.848 509.925, 745.322 509.331, 749 500 C 752.499 491.123, 751.181 482.342, 745.783 478.561 C 742.451 476.227, 732.487 476.570, 727.500 479.189" />
    <path d="M 492.010 482.488 C 490.155 484.723, 493.091 485.530, 502.367 485.333 C 510.137 485.169, 512.863 484.206, 511.554 482.087 C 510.465 480.325, 493.517 480.672, 492.010 482.488" />
    <path d="M 503 528.667 C 503 529.583, 502.749 530.082, 502.442 529.775 C 502.134 529.468, 499.348 530.743, 496.250 532.608 C 493.152 534.474, 490.141 536.007, 489.559 536.015 C 488.976 536.024, 487.896 536.414, 487.157 536.882 C 485.339 538.034, 489.749 547.428, 494.037 551.535 C 496.748 554.132, 497.858 554.500, 502.992 554.500 C 510.369 554.500, 513.512 552.391, 517.218 544.954 C 520.309 538.751, 520.691 536, 518.460 536 C 516.046 536, 509.744 532.456, 507.076 529.597 C 504.274 526.596, 503 526.305, 503 528.667" />
    <path d="M 621 563.406 C 597.984 568.962, 572.857 584.297, 538.500 613.756 C 526.378 624.150, 493.999 654.765, 494.002 655.829 C 494.004 656.198, 496.977 658.300, 500.610 660.500 C 508.111 665.042, 514.004 671.203, 517.829 678.500 C 519.968 682.581, 520.454 684.878, 520.475 691 C 520.496 697.435, 520.103 699.175, 517.708 703.250 C 516.172 705.862, 514.485 708, 513.958 708 C 513.431 708, 513 709.492, 513 711.316 C 513 717.785, 510.784 726.579, 507.682 732.422 C 503.681 739.959, 495.431 746.354, 487.615 747.976 C 483.475 748.836, 481.232 750.079, 477.680 753.482 C 471.773 759.142, 463.725 761.689, 447.187 763.134 C 435.678 764.139, 422.305 763.438, 415.496 761.474 C 413.878 761.007, 412.681 762.131, 409.270 767.319 C 395.084 788.895, 385 813.604, 385 826.787 C 385 843.405, 395.959 848.776, 420.099 843.990 C 456.693 836.735, 514.837 808.226, 569 770.981 C 582.210 761.897, 601.307 747.720, 605.719 743.721 L 607.938 741.710 605.096 738.105 C 600.715 732.549, 598.008 727.709, 598.004 725.424 C 598.002 724.283, 596.815 722.258, 595.368 720.924 C 588.847 714.919, 586.076 701.705, 589.376 692.351 C 591.901 685.194, 599.372 675.773, 605.412 672.128 C 609.081 669.914, 611 668.097, 611 666.838 C 611 663.566, 614.767 657.338, 618.721 654.073 C 624.576 649.237, 631.649 647.387, 639.266 648.696 C 645.213 649.719, 645.605 649.659, 647.782 647.393 C 654.571 640.327, 663.642 639.618, 675.188 645.250 C 679.417 647.313, 683.372 649, 683.978 649 C 684.584 649, 686.915 649.936, 689.159 651.081 C 691.402 652.226, 693.579 652.788, 693.996 652.331 C 694.412 651.874, 695.709 648.686, 696.877 645.246 C 701.888 630.486, 698.248 615.184, 685.518 597.500 C 667.841 572.941, 653.685 563.105, 635.003 562.400 C 630.183 562.218, 624.117 562.654, 621 563.406" />
    <path d="M 658.364 653.170 C 655.068 654.766, 653.641 658.720, 655.095 662.230 C 656.106 664.669, 656.035 665.394, 654.652 666.777 C 653.124 668.304, 652.692 668.114, 648.636 664.134 C 643.901 659.487, 639.337 658.151, 632.542 659.426 C 624.606 660.915, 617.888 671.012, 621.874 675.460 C 625.054 679.008, 625.157 679.851, 622.610 681.520 C 620.538 682.878, 619.537 682.941, 616.162 681.930 C 612.607 680.865, 611.792 680.966, 608.756 682.842 C 604.833 685.267, 600.370 692.812, 599.462 698.557 C 598.726 703.211, 601.152 711.362, 604.286 714.761 C 605.432 716.005, 608.087 717.485, 610.185 718.050 C 614.731 719.274, 615.499 722.407, 611.500 723.411 C 610.125 723.756, 609 724.499, 609 725.062 C 609 727.464, 618.438 735.938, 624.266 738.769 C 639.438 746.137, 657.043 745.421, 673.276 736.775 C 680.568 732.890, 691.465 722.237, 695.240 715.300 C 702.480 701.998, 702.844 687.186, 696.271 673.282 C 693.388 667.182, 686.094 659, 683.540 659 C 682.258 659, 682.344 659.844, 684.103 664.546 C 687.897 674.686, 683.902 676.362, 678.809 666.768 C 676.989 663.340, 673.665 658.615, 671.421 656.268 C 668.122 652.815, 666.690 652.013, 663.921 652.068 C 662.040 652.105, 659.539 652.601, 658.364 653.170" />
    <path d="M 349.942 731.948 C 338.903 735.298, 327.008 748.122, 322.790 761.223 C 321.041 766.653, 320.800 768.433, 321.771 768.757 C 324.920 769.807, 335.616 778.851, 342.839 786.571 C 351.333 795.650, 364.357 813.517, 369.508 823.159 L 372.676 829.088 373.818 821.012 C 374.446 816.570, 376.379 808.787, 378.114 803.718 C 381.219 794.640, 391.533 773.135, 397.330 763.650 C 400.528 758.418, 400.292 757.680, 395 756.358 C 388.968 754.850, 368.097 743.216, 360.864 737.328 C 356.587 733.848, 352.956 731.039, 352.794 731.086 C 352.632 731.133, 351.349 731.521, 349.942 731.948" />
    <path d="M 612 753.613 C 580.283 779.426, 529.371 811.841, 493.500 829.061 C 444.017 852.814, 412.519 860.997, 393.181 855.124 C 389.287 853.941, 385.827 852.529, 385.492 851.987 C 385.156 851.444, 384.519 851, 384.075 851 C 383.632 851, 384.125 853.587, 385.171 856.750 C 393.683 882.471, 394.394 900.810, 387.518 917.250 C 386.550 919.563, 388.082 919.518, 398.863 916.914 C 411.607 913.835, 425.963 906.179, 433.742 898.312 C 441.057 890.914, 443.728 890.231, 444.190 895.640 L 444.500 899.280 454.465 901.671 C 477.200 907.127, 506.507 909.756, 525.480 908.041 C 540.574 906.676, 552.575 904.780, 560.189 902.556 C 565.124 901.114, 565.919 900.536, 566.189 898.197 C 566.427 896.135, 567.114 895.429, 569.107 895.197 C 571.211 894.953, 571.962 895.493, 572.999 897.997 C 574.508 901.641, 580.193 905.770, 590.256 910.532 C 597.948 914.172, 611.385 917.959, 616.697 917.985 L 619.895 918 616.754 911.287 C 613.959 905.316, 613.565 903.340, 613.185 893.396 C 612.682 880.273, 613.839 872.520, 618.539 857.500 C 628.428 825.901, 653.311 790.314, 679.760 769.945 L 683.019 767.434 679.102 759.333 C 676.947 754.877, 674.715 750.942, 674.143 750.588 C 673.570 750.234, 670.491 750.820, 667.301 751.890 C 664.110 752.960, 657.805 754.398, 653.289 755.085 C 643.698 756.544, 634.498 755.368, 624.422 751.396 C 621.078 750.078, 618.153 749.031, 617.922 749.068 C 617.690 749.106, 615.025 751.151, 612 753.613" />
    <path d="M 733.236 763.979 C 729.576 764.847, 724.453 768.139, 718.511 773.441 C 714.824 776.730, 711 778.124, 711 776.178 C 711 775.726, 712.337 773.589, 713.972 771.428 C 715.607 769.268, 716.957 767.163, 716.972 766.750 C 716.987 766.337, 715.087 766.011, 712.750 766.024 C 697.419 766.109, 668.284 789.630, 650.754 816.074 C 627.034 851.855, 617.972 883.183, 624.954 905.273 C 626.696 910.785, 628.164 913.139, 632.842 917.919 C 640.394 925.638, 647.370 928, 662.610 928 C 672.313 928, 673.763 927.723, 684.255 923.873 C 708.696 914.904, 726.535 903.552, 744.503 885.536 C 762.510 867.480, 774.677 848.074, 779.936 829.020 C 782.214 820.763, 782.744 806.100, 780.936 801.315 C 779.851 798.443, 775.231 793, 773.878 793 C 773.466 793, 772.560 794.575, 771.864 796.500 C 770.423 800.483, 769.926 800.695, 767.760 798.250 C 766.480 796.806, 766.373 795.436, 767.150 790.408 C 767.958 785.177, 767.794 783.524, 765.990 778.703 C 761.748 767.364, 746.971 760.721, 733.236 763.979" />
    <path d="M 266.134 767.280 C 264.283 767.872, 260.659 770.413, 258.081 772.928 C 252.053 778.808, 250.465 784.028, 251.377 794.968 C 251.845 800.577, 251.694 803.071, 250.856 803.589 C 249.340 804.526, 246.051 800.503, 245.312 796.812 C 244.601 793.256, 243.784 793.279, 240.703 796.942 C 233.157 805.909, 235.232 830.494, 245.223 850.500 C 266.774 893.654, 308.259 926.643, 346.015 930.650 C 352.940 931.385, 362.674 929.018, 368.359 925.216 C 373.585 921.722, 379.389 913.157, 380.865 906.764 C 382.657 899.001, 382.261 882.641, 380.060 873.500 C 370.424 833.481, 337.030 786.284, 309 773.067 C 303.134 770.301, 298 769.121, 298 770.540 C 298 770.837, 298.900 772.844, 300 775 C 304.254 783.339, 300.979 783.152, 292.700 774.583 C 288.286 770.014, 285.348 767.856, 282.500 767.089 C 277.586 765.765, 270.620 765.846, 266.134 767.280" />
</g>
<rect x="0" y="860" width="1024" height="224" fill="#1a1a2e"/>
<rect x="0" y="860" width="1024" height="5" fill="#e94560"/>
<text x="14" y="880" font-family="sans-serif" font-size="12" fill="#f5a623" font-weight="bold">🎨 اختر لون:</text>
  <rect class="swatch" x="20" y="870" width="32" height="28" rx="6" fill="#FF6B6B" onclick="pick('#FF6B6B', this)" />
  <rect class="swatch" x="62" y="870" width="32" height="28" rx="6" fill="#FF8E53" onclick="pick('#FF8E53', this)" />
  <rect class="swatch" x="104" y="870" width="32" height="28" rx="6" fill="#FFC107" onclick="pick('#FFC107', this)" />
  <rect class="swatch" x="146" y="870" width="32" height="28" rx="6" fill="#A8E063" onclick="pick('#A8E063', this)" />
  <rect class="swatch" x="188" y="870" width="32" height="28" rx="6" fill="#56CCF2" onclick="pick('#56CCF2', this)" />
  <rect class="swatch" x="20" y="906" width="32" height="28" rx="6" fill="#764BA2" onclick="pick('#764BA2', this)" />
  <rect class="swatch" x="62" y="906" width="32" height="28" rx="6" fill="#F093FB" onclick="pick('#F093FB', this)" />
  <rect class="swatch" x="104" y="906" width="32" height="28" rx="6" fill="#4ECDC4" onclick="pick('#4ECDC4', this)" />
  <rect class="swatch" x="146" y="906" width="32" height="28" rx="6" fill="#D62839" onclick="pick('#D62839', this)" />
  <rect class="swatch" x="188" y="906" width="32" height="28" rx="6" fill="#E84393" onclick="pick('#E84393', this)" />
  <rect class="swatch" x="20" y="942" width="32" height="28" rx="6" fill="#F7B731" onclick="pick('#F7B731', this)" />
  <rect class="swatch" x="62" y="942" width="32" height="28" rx="6" fill="#20BF6B" onclick="pick('#20BF6B', this)" />
  <rect class="swatch" x="104" y="942" width="32" height="28" rx="6" fill="#0652DD" onclick="pick('#0652DD', this)" />
  <rect class="swatch" x="146" y="942" width="32" height="28" rx="6" fill="#C0392B" onclick="pick('#C0392B', this)" />
  <rect class="swatch" x="188" y="942" width="32" height="28" rx="6" fill="#2C3E50" onclick="pick('#2C3E50', this)" />
  <rect class="swatch" x="20" y="978" width="32" height="28" rx="6" fill="#8E44AD" onclick="pick('#8E44AD', this)" />
  <rect class="swatch" x="62" y="978" width="32" height="28" rx="6" fill="#1ABC9C" onclick="pick('#1ABC9C', this)" />
  <rect class="swatch" x="104" y="978" width="32" height="28" rx="6" fill="#E67E22" onclick="pick('#E67E22', this)" />
  <rect class="swatch" x="146" y="978" width="32" height="28" rx="6" fill="#2980B9" onclick="pick('#2980B9', this)" />
  <rect class="swatch" x="188" y="978" width="32" height="28" rx="6" fill="#27AE60" onclick="pick('#27AE60', this)" />
  <rect class="swatch" x="20" y="1014" width="32" height="28" rx="6" fill="#FF5252" onclick="pick('#FF5252', this)" />
  <rect class="swatch" x="62" y="1014" width="32" height="28" rx="6" fill="#FF6F00" onclick="pick('#FF6F00', this)" />
  <rect class="swatch" x="104" y="1014" width="32" height="28" rx="6" fill="#E040FB" onclick="pick('#E040FB', this)" />
  <rect class="swatch" x="146" y="1014" width="32" height="28" rx="6" fill="#00BCD4" onclick="pick('#00BCD4', this)" />
  <rect class="swatch" x="188" y="1014" width="32" height="28" rx="6" fill="#8BC34A" onclick="pick('#8BC34A', this)" />

<rect id="eraserBtn" x="240" y="952" width="70" height="28" rx="7" fill="#0f3460" stroke="#444" stroke-width="1.5" onclick="toggleErase()" style="cursor:pointer"/>
<text x="275" y="971" font-family="sans-serif" font-size="12" fill="#eee" text-anchor="middle" pointer-events="none">🧹 محو</text>
<rect id="undoBtn" x="320" y="952" width="70" height="28" rx="7" fill="#0f3460" stroke="#444" stroke-width="1.5" onclick="undo()" style="cursor:pointer"/>
<text x="355" y="971" font-family="sans-serif" font-size="12" fill="#eee" text-anchor="middle" pointer-events="none">↩ تراجع</text>
<rect id="clearBtn" x="400" y="952" width="70" height="28" rx="7" fill="#0f3460" stroke="#444" stroke-width="1.5" onclick="clearAll()" style="cursor:pointer"/>
<text x="435" y="971" font-family="sans-serif" font-size="12" fill="#eee" text-anchor="middle" pointer-events="none">🗑 مسح</text>
<text x="490" y="967" font-family="sans-serif" font-size="11" fill="#aaa">اللون:</text>
<rect id="preview" x="525" y="952" width="28" height="28" rx="6" fill="#FF6B6B" stroke="#666" stroke-width="1.5"/>
<text x="570" y="964" font-family="sans-serif" font-size="11" fill="#aaa">شفافية:</text>
<text id="opLabel" x="570" y="978" font-family="sans-serif" font-size="11" fill="#f5a623">100%</text>
<rect x="620" y="957" width="100" height="7" rx="3" fill="#333"/>
<rect id="opBar" x="620" y="957" width="100" height="7" rx="3" fill="#f5a623"/>
<rect x="620" y="950" width="100" height="22" rx="3" fill="transparent" onmousedown="startSlide(evt)" onmousemove="slideMove(evt)" onmouseup="endSlide()" style="cursor:ew-resize"/>
<script type="text/javascript"><![CDATA[
  var activeColor = '#FF6B6B';
  var eraseMode = false;
  var opacity = 1.0;
  var sliding = false;
  var history = [];

  document.querySelectorAll('.swatch')[0].classList.add('active');

  function pick(c, el) {
    activeColor = c;
    eraseMode = false;
    document.getElementById('preview').setAttribute('fill', c);
    document.getElementById('eraserBtn').setAttribute('fill','#0f3460');
    document.getElementById('eraserBtn').setAttribute('stroke','#444');
    document.querySelectorAll('.swatch').forEach(function(s){s.classList.remove('active');});
    el.classList.add('active');
  }

  function toggleErase() {
    eraseMode = !eraseMode;
    var el = document.getElementById('eraserBtn');
    el.setAttribute('fill', eraseMode ? '#fff0f0' : '#0f3460');
    el.setAttribute('stroke', eraseMode ? '#e94560' : '#444');
  }

  function fillRegion(el) {
    history.push({ el:el, fill:el.getAttribute('fill'), op:el.getAttribute('fill-opacity') });
    if (eraseMode) {
      el.setAttribute('fill','none');
      el.setAttribute('fill-opacity','1');
    } else {
      el.setAttribute('fill', activeColor);
      el.setAttribute('fill-opacity', opacity);
    }
  }

  function undo() {
    if (!history.length) return;
    var last = history.pop();
    last.el.setAttribute('fill', last.fill || 'none');
    last.el.setAttribute('fill-opacity', last.op || '1');
  }

  function clearAll() {
    document.querySelectorAll('.region').forEach(function(r){
      r.setAttribute('fill','none');
      r.setAttribute('fill-opacity','1');
    });
    history = [];
  }

  function startSlide(evt) { sliding=true; slideMove(evt); }
  function endSlide() { sliding=false; }
  function slideMove(evt) {
    if (!sliding) return;
    var svg = evt.target.ownerSVGElement;
    var pt = svg.createSVGPoint();
    pt.x = evt.clientX; pt.y = evt.clientY;
    var sp = pt.matrixTransform(svg.getScreenCTM().inverse());
    var pct = Math.max(0, Math.min(1, (sp.x - 620) / 100));
    opacity = pct;
    document.getElementById('opBar').setAttribute('width', Math.round(pct*100));
    document.getElementById('opLabel').textContent = Math.round(pct*100) + '%';
  }
]]></script>
</svg>